<?xml version="1.0" encoding="utf-8"?>
<!-- Generator: Adobe Illustrator 16.0.0, SVG Export Plug-In . SVG Version: 6.00 Build 0)  -->
<!DOCTYPE svg PUBLIC "-//W3C//DTD SVG 1.1//EN" "http://www.w3.org/Graphics/SVG/1.1/DTD/svg11.dtd">
<svg version="1.1" id="Layer_1" xmlns="http://www.w3.org/2000/svg" xmlns:xlink="http://www.w3.org/1999/xlink" x="0px" y="0px"
	 width="40px" height="40px" viewBox="0 0 40 40" enable-background="new 0 0 40 40" xml:space="preserve">
<g>
	<path fill="#0077FF" d="M36.019,26.148c-0.008-1.264-0.973-2.335-2.196-2.439c-0.439-0.04-0.909-0.058-1.478-0.058
		c-0.419,0-0.838,0.01-1.257,0.02l-0.221,0.005c-0.224,0.007-0.484,0.207-0.598,0.39c-0.129,0.21-0.138,0.449-0.024,0.654
		c0.131,0.237,0.403,0.389,0.713,0.394c0.221,0.003,0.44,0.004,0.66,0.004l0.998-0.002c0.264,0,0.526,0.001,0.789,0.005
		c0.688,0.01,1.15,0.439,1.153,1.069l0.007,1.431c0.01,2.112,0.021,4.296-0.017,6.442c-0.024,1.523-1.314,2.764-2.876,2.764
		c-0.17,0-0.342-0.016-0.51-0.045c-1.453-0.257-2.395-1.428-2.399-2.983c-0.004-1.775-0.004-3.551-0.003-5.327
		c0-1.229,0-2.456-0.001-3.685c0-0.154,0-0.347-0.045-0.521c-0.079-0.312-0.352-0.521-0.677-0.521c-0.052,0-0.104,0.006-0.154,0.017
		c-0.524,0.104-0.585,0.55-0.585,0.875l-0.001,9.261c0,1.106,0.372,2.093,1.105,2.931c0.002,0.002,0.004,0.005,0.006,0.007H8.586
		c-1.941,0-3.147-1.209-3.147-3.156V4.513c0-0.956,0.388-1.346,1.34-1.346h19.194c0.855,0,1.191,0.287,1.33,1.136
		c0.073,0.435,0.365,0.71,0.772,0.68c0.416-0.032,0.7-0.378,0.676-0.824c-0.053-0.913-0.461-1.607-1.213-2.063
		c-0.195-0.119-0.411-0.198-0.62-0.275c-0.091-0.033-0.181-0.066-0.269-0.103L6.093,1.708L5.917,1.765
		C5.832,1.797,5.747,1.83,5.661,1.861c-1.035,0.378-1.678,1.329-1.68,2.481c-0.001,3.128,0,6.257,0,9.386l0,4.694
		c0,1.481,0.003,2.962,0.005,4.444C3.993,26.407,4,30.068,3.967,33.67c-0.021,2.307,1.579,4.271,3.725,4.579
		c0.014,0.01,0.029,0.021,0.043,0.028l0.028,0.016H32.23l0.084-0.029c0.047-0.017,0.095-0.034,0.148-0.043
		c2.035-0.4,3.529-2.136,3.553-4.126C36.043,31.471,36.032,28.839,36.019,26.148z"/>
	<path fill="#0077FF" d="M17.981,14.243c-0.007,4.447,3.61,8.072,8.064,8.081h0.011c4.435,0,8.054-3.614,8.066-8.056
		c0.008-2.153-0.825-4.181-2.344-5.711c-1.52-1.53-3.54-2.375-5.711-2.381C21.615,6.175,17.987,9.794,17.981,14.243z M26.064,7.635
		V7.51l0,0l0.011,0.125c3.633,0.006,6.589,2.973,6.589,6.613c0,3.638-2.956,6.606-6.606,6.616c-1.758,0-3.416-0.691-4.67-1.945
		c-1.255-1.255-1.945-2.914-1.944-4.672C19.445,10.601,22.415,7.635,26.064,7.635z M26.057,22.198L26.057,22.198L26.057,22.198
		L26.057,22.198z"/>
	<path fill="#0077FF" d="M10.569,24.193c-0.203,0-0.405,0.002-0.608,0.01c-0.372,0.018-0.646,0.289-0.668,0.662
		c-0.022,0.378,0.17,0.646,0.542,0.757c0.102,0.029,0.207,0.032,0.314,0.032v-0.125l0.038,0.125l8.249,0.001l4.125-0.001
		c0.173,0,0.312-0.021,0.424-0.064c0.327-0.118,0.501-0.395,0.465-0.739c-0.039-0.361-0.269-0.598-0.634-0.646
		c-0.071-0.008-0.144-0.01-0.215-0.01l-11.428,0.001L10.569,24.193z"/>
	<path fill="#0077FF" d="M9.923,31.991c0.125,0.018,0.25,0.018,0.371,0.018h12.158c0.12,0,0.245,0,0.372-0.018
		c0.363-0.055,0.624-0.34,0.635-0.695c0.007-0.357-0.239-0.655-0.602-0.726c-0.138-0.025-0.276-0.025-0.411-0.025H10.322
		c-0.145,0-0.295,0-0.446,0.025c-0.366,0.07-0.596,0.357-0.586,0.731C9.301,31.67,9.549,31.94,9.923,31.991z"/>
	<path fill="#0077FF" d="M11.083,12.031l1.504-0.002l1.504,0.002c0.326,0,0.652-0.001,0.978-0.003
		c0.489-0.004,0.806-0.29,0.809-0.725c0.005-0.441-0.3-0.721-0.796-0.731c-0.128-0.002-0.257-0.002-0.386-0.002l-2.691,0
		c-0.629,0-1.259,0-1.887,0.002c-0.489,0-0.789,0.238-0.825,0.655c-0.019,0.219,0.041,0.411,0.171,0.554
		c0.146,0.16,0.367,0.245,0.639,0.248C10.43,12.03,10.756,12.031,11.083,12.031z"/>
	<path fill="#0077FF" d="M10.142,18.842c0.815,0.001,1.63,0.002,2.446,0.002s1.631-0.001,2.447-0.002
		c0.517-0.001,0.84-0.281,0.843-0.729c0.001-0.205-0.063-0.379-0.187-0.504c-0.146-0.148-0.364-0.225-0.647-0.227l-0.816-0.001
		l-1.631,0.001l-1.63-0.001l-0.816,0.001c-0.301,0.001-0.529,0.079-0.679,0.232c-0.125,0.128-0.186,0.299-0.182,0.507
		C9.298,18.572,9.616,18.841,10.142,18.842z"/>
	<path fill="#0077FF" d="M26.027,16.241c-0.086,0-0.348,0-0.452-0.55l-0.006-0.035c-0.087-0.403-0.386-0.644-0.789-0.612
		c-0.393,0.03-0.655,0.332-0.654,0.752c0.003,0.598,0.247,1.1,0.706,1.452c0.22,0.169,0.293,0.303,0.29,0.531
		c-0.006,0.358,0.23,0.612,0.617,0.663c0.041,0.005,0.082,0.008,0.122,0.008c0.34,0,0.587-0.186,0.63-0.472
		c0.046-0.31,0.202-0.418,0.476-0.511c0.118-0.041,0.216-0.123,0.303-0.195l0.029-0.025c0.567-0.477,0.825-1.213,0.689-1.971
		c-0.134-0.753-0.628-1.353-1.32-1.602c-0.127-0.045-0.255-0.083-0.383-0.121c-0.088-0.026-0.177-0.052-0.264-0.08
		c-0.349-0.115-0.438-0.242-0.438-0.613c0-0.213,0.058-0.574,0.44-0.606c0.268-0.018,0.466,0.169,0.521,0.5
		c0.078,0.485,0.396,0.759,0.824,0.696c0.423-0.058,0.679-0.428,0.622-0.901c-0.077-0.666-0.404-1.168-0.972-1.492
		c-0.174-0.1-0.24-0.155-0.242-0.338c-0.008-0.383-0.321-0.684-0.741-0.684h-0.001c-0.388,0.016-0.685,0.312-0.69,0.688
		c-0.003,0.165-0.06,0.226-0.22,0.315c-0.78,0.443-1.112,1.177-0.987,2.18c0.102,0.794,0.556,1.337,1.352,1.614
		c0.104,0.037,0.21,0.068,0.316,0.101c0.13,0.04,0.261,0.079,0.387,0.127c0.296,0.113,0.42,0.391,0.339,0.764
		C26.477,16.086,26.316,16.226,26.027,16.241z"/>
</g>
</svg>
