<?xml version="1.0" encoding="utf-8"?>
<!-- Generator: Adobe Illustrator 16.0.0, SVG Export Plug-In . SVG Version: 6.00 Build 0)  -->
<!DOCTYPE svg PUBLIC "-//W3C//DTD SVG 1.1//EN" "http://www.w3.org/Graphics/SVG/1.1/DTD/svg11.dtd">
<svg version="1.1" id="Layer_1" xmlns="http://www.w3.org/2000/svg" xmlns:xlink="http://www.w3.org/1999/xlink" x="0px" y="0px"
	 width="40px" height="40px" viewBox="0 0 40 40" enable-background="new 0 0 40 40" xml:space="preserve">
<g>
	<path fill-rule="evenodd" clip-rule="evenodd" fill="#0077FF" d="M34.79,14.683c0,0.404,0,0.768,0,1.183c0.626,0,1.249,0,1.871,0
		c0.172,0,0.345-0.006,0.518,0.002c0.626,0.031,1.129,0.512,1.133,1.139c0.013,1.994,0.014,3.987,0,5.98
		c-0.004,0.657-0.525,1.138-1.201,1.146c-0.762,0.01-1.523,0.002-2.312,0.002c0,0.393,0,0.766,0,1.183c0.713,0,1.422-0.001,2.131,0
		c0.937,0,1.388,0.446,1.389,1.373c0,1.846,0,3.692-0.001,5.538c0,0.903-0.458,1.357-1.365,1.359c-0.712,0.001-1.423,0-2.179,0
		c0,0.551,0.001,1.075,0,1.601c-0.003,1.223-0.727,1.943-1.956,1.944c-3.2,0.001-6.399,0.002-9.6-0.004
		c-0.239,0-0.38,0.042-0.514,0.283c-0.672,1.207-2.374,1.197-3.046-0.014c-0.125-0.226-0.258-0.27-0.485-0.27
		c-3.2,0.006-6.399,0.005-9.599,0.004c-1.258-0.001-1.975-0.712-1.977-1.961c-0.001-0.908,0-1.816,0-2.732
		c-0.765-0.087-1.51-0.146-2.246-0.263c-0.926-0.148-1.824-0.402-2.614-0.94c-0.7-0.478-1.057-1.114-1.055-1.987
		c0.013-6.141,0.018-12.282-0.003-18.422C1.676,9.794,2.123,9.1,2.982,8.609C4.065,7.99,5.263,7.793,6.479,7.671
		C6.834,7.636,7.19,7.619,7.597,7.589c0-0.378,0-0.756,0-1.133c0-0.579-0.003-1.157,0-1.735c0.008-1.103,0.754-1.851,1.86-1.853
		c3.225-0.003,6.449-0.004,9.673,0.004c0.258,0,0.404-0.054,0.544-0.299c0.673-1.185,2.361-1.181,3.027,0.008
		c0.133,0.237,0.27,0.29,0.512,0.29c3.188-0.006,6.374-0.004,9.562-0.004c1.302,0,1.998,0.702,1.999,2.012c0,0.492,0,0.983,0,1.51
		c0.116,0.008,0.222,0.021,0.327,0.022c0.676,0.002,1.354-0.008,2.03,0.003c0.67,0.011,1.179,0.5,1.183,1.166
		c0.011,1.981,0.011,3.963-0.001,5.944c-0.004,0.661-0.519,1.147-1.191,1.156C36.358,14.691,35.596,14.683,34.79,14.683z
		 M8.782,7.561c0.78,0.089,1.516,0.149,2.244,0.263c0.953,0.148,1.874,0.412,2.676,0.982c0.655,0.466,1.015,1.083,0.988,1.909
		c-0.017,0.525-0.003,1.05-0.003,1.615c0.809,0,1.577,0,2.374,0c-0.044,0.684-0.038,1.325,0.669,1.645
		c0.748,0.338,1.232-0.12,1.716-0.647c0.814,0.868,1.61,1.717,2.424,2.583c-0.403,0.377-0.886,0.835-0.593,1.579
		c0.297,0.753,0.966,0.771,1.654,0.748c0,1.203,0,2.363,0,3.546c-0.658-0.04-1.287-0.04-1.614,0.646
		c-0.363,0.762,0.107,1.253,0.639,1.746c-0.866,0.819-1.712,1.619-2.571,2.433c-0.399-0.417-0.854-0.904-1.601-0.605
		c-0.752,0.301-0.76,0.972-0.742,1.672c-0.803,0-1.561,0-2.354,0c0,0.137,0,0.233,0,0.329c0,0.382-0.021,0.765,0.004,1.144
		c0.069,1.049-0.437,1.757-1.306,2.255c-0.891,0.511-1.873,0.73-2.877,0.857c-0.569,0.071-1.141,0.112-1.729,0.168
		c0,0.937-0.001,1.846,0,2.755c0.001,0.576,0.198,0.771,0.78,0.771c3.2,0.001,6.4-0.002,9.6,0.004
		c0.242,0.001,0.378-0.055,0.51-0.29c0.667-1.189,2.355-1.192,3.028-0.006c0.14,0.246,0.287,0.298,0.543,0.297
		c2.498-0.009,4.997-0.005,7.495-0.005c0.727,0,1.453,0.004,2.179-0.002c0.382-0.002,0.646-0.181,0.661-0.504
		c0.027-0.609,0.008-1.221,0.008-1.857c-0.748,0-1.46,0.001-2.172,0c-0.908-0.002-1.363-0.455-1.363-1.36
		c-0.002-1.846-0.002-3.692,0-5.538c0-0.922,0.456-1.372,1.388-1.372c0.709-0.001,1.42,0,2.13,0c0-0.418,0-0.791,0-1.183
		c-0.789,0-1.551,0.008-2.313-0.002c-0.676-0.009-1.195-0.489-1.2-1.146c-0.012-1.994-0.012-3.988,0-5.982
		c0.005-0.629,0.506-1.106,1.135-1.138c0.172-0.009,0.345-0.002,0.518-0.002c0.622,0,1.245,0,1.856,0c0-0.425,0-0.798,0-1.183
		c-0.793,0-1.556,0.008-2.318-0.002c-0.674-0.01-1.188-0.496-1.191-1.157c-0.011-1.982-0.011-3.963,0-5.945
		c0.003-0.664,0.513-1.153,1.184-1.164c0.677-0.011,1.354-0.001,2.03-0.003c0.105,0,0.21-0.014,0.311-0.021
		c0.008-0.073,0.014-0.109,0.014-0.146c0.002-0.468,0.003-0.936,0.002-1.403C33.59,4.24,33.4,4.05,32.796,4.049
		c-3.2,0-6.4,0.002-9.6-0.004c-0.229,0-0.36,0.047-0.485,0.271c-0.675,1.212-2.373,1.22-3.046,0.01
		c-0.135-0.243-0.278-0.282-0.516-0.282c-3.175,0.005-6.35,0.004-9.525,0.004c-0.099,0-0.199-0.007-0.296,0.005
		C9.006,4.097,8.793,4.284,8.787,4.607C8.771,5.59,8.782,6.572,8.782,7.561z M2.871,21.917c0,0.895,0.012,1.754-0.005,2.612
		c-0.008,0.411,0.131,0.748,0.474,0.935c0.47,0.256,0.958,0.519,1.47,0.649c1.932,0.496,3.897,0.515,5.853,0.186
		c0.738-0.123,1.459-0.407,2.158-0.691c0.487-0.198,0.74-0.616,0.691-1.187c-0.032-0.378-0.006-0.762-0.006-1.144
		c0-0.445,0-0.892,0-1.358C10.186,23.313,6.119,23.312,2.871,21.917z M13.5,26.718c-3.553,1.327-7.083,1.322-10.629-0.004
		c0,0.833,0.011,1.692-0.005,2.553c-0.007,0.396,0.124,0.728,0.454,0.907c0.48,0.262,0.977,0.533,1.501,0.668
		c1.932,0.495,3.893,0.485,5.855,0.195c0.768-0.113,1.52-0.299,2.19-0.715c0.308-0.191,0.615-0.425,0.625-0.816
		C13.516,28.563,13.5,27.619,13.5,26.718z M2.871,12.537c0,0.771,0.034,1.582-0.011,2.388c-0.035,0.622,0.246,1.006,0.747,1.277
		c0.237,0.128,0.482,0.269,0.74,0.322c0.887,0.181,1.777,0.395,2.676,0.47c1.685,0.14,3.369,0.07,4.996-0.462
		c1.264-0.414,1.486-0.737,1.486-2.039c0-0.667,0-1.336,0-1.953C9.945,13.857,6.438,13.86,2.871,12.537z M2.871,17.265
		c0,0.758,0.039,1.547-0.012,2.33c-0.045,0.701,0.28,1.114,0.86,1.395c0.209,0.101,0.423,0.202,0.644,0.269
		c2.228,0.667,4.487,0.668,6.746,0.23c0.626-0.121,1.24-0.388,1.81-0.682c0.255-0.132,0.535-0.486,0.555-0.758
		c0.067-0.938,0.026-1.884,0.026-2.782C9.953,18.584,6.433,18.589,2.871,17.265z M14.703,15.896c2.597-0.276,4.57,1.608,4.699,3.865
		c0.067,1.174-0.308,2.208-1.116,3.063c-0.967,1.023-2.176,1.42-3.6,1.282c0,0.414,0,0.806,0,1.197c0,0.389,0,0.778,0,1.197
		c0.347,0,0.652-0.015,0.957,0.004c0.22,0.014,0.311-0.066,0.391-0.273c0.427-1.106,1.588-1.773,2.704-1.401
		c0.637,0.213,0.967,0.027,1.31-0.407c0.023-0.028,0.05-0.056,0.079-0.078c0.172-0.13,0.157-0.261,0.104-0.472
		c-0.109-0.431-0.225-0.896-0.167-1.324c0.133-0.979,0.76-1.592,1.7-1.898c0-0.434,0-0.862,0-1.297
		c-0.086-0.034-0.165-0.065-0.244-0.096c-1.116-0.439-1.8-1.611-1.408-2.736c0.223-0.639,0.008-0.939-0.401-1.279
		c-0.038-0.031-0.076-0.064-0.104-0.104c-0.121-0.172-0.251-0.17-0.44-0.083c-0.749,0.343-1.481,0.277-2.186-0.14
		c-0.544-0.322-0.866-0.817-1.051-1.383c-0.429,0-0.829,0-1.227,0C14.703,14.329,14.703,15.1,14.703,15.896z M7.597,8.763
		c-0.605,0.058-1.168,0.09-1.723,0.172C5.021,9.06,4.176,9.235,3.442,9.725c-0.758,0.506-0.777,1.146-0.01,1.625
		c0.42,0.261,0.899,0.462,1.379,0.586c1.759,0.457,3.549,0.468,5.344,0.269c0.857-0.094,1.703-0.256,2.478-0.657
		c0.417-0.216,0.861-0.466,0.856-1.012c-0.005-0.525-0.433-0.777-0.842-0.982c-1.205-0.601-2.512-0.699-3.871-0.775
		c0,0.8,0,1.567,0,2.332c-0.417,0-0.79,0-1.18,0C7.597,10.337,7.597,9.589,7.597,8.763z M31.245,13.476c1.977,0,3.924,0,5.862,0
		c0-1.974,0-3.921,0-5.863c-1.968,0-3.906,0-5.862,0C31.245,9.571,31.245,11.51,31.245,13.476z M37.121,17.073
		c-1.979,0-3.926,0-5.863,0c0,1.974,0,3.921,0,5.863c1.969,0,3.907,0,5.863,0C37.121,20.977,37.121,19.038,37.121,17.073z
		 M31.229,32.381c1.994,0,3.941,0,5.878,0c0-1.975,0-3.922,0-5.861c-1.969,0-3.907,0-5.864,0c-0.006,0.077-0.013,0.137-0.013,0.195
		C31.229,28.595,31.229,30.476,31.229,32.381z M14.702,17.135c0,0.396,0,0.774,0,1.154c1.412-0.127,2.308,0.505,2.345,1.645
		c0.016,0.505-0.153,0.944-0.508,1.303c-0.511,0.516-1.136,0.633-1.838,0.458c0,0.411,0,0.79,0,1.164
		c0.992,0.306,2.25-0.167,2.938-1.095c0.758-1.02,0.789-2.377,0.079-3.419C17.042,17.354,15.791,16.843,14.702,17.135z
		 M21.773,3.443c-0.01-0.319-0.284-0.582-0.604-0.573c-0.32,0.008-0.581,0.283-0.572,0.602c0.008,0.32,0.282,0.582,0.602,0.573
		C21.519,4.038,21.781,3.762,21.773,3.443z M15.271,20.589c0.319,0.003,0.59-0.263,0.594-0.583c0.003-0.32-0.262-0.59-0.582-0.593
		s-0.59,0.261-0.593,0.582C14.686,20.314,14.951,20.585,15.271,20.589z M21.186,35.955c-0.32-0.001-0.588,0.265-0.588,0.586
		c-0.001,0.32,0.266,0.589,0.586,0.59c0.319,0.001,0.589-0.268,0.59-0.587C21.773,36.225,21.506,35.955,21.186,35.955z"/>
	<path fill-rule="evenodd" clip-rule="evenodd" fill="#0077FF" d="M32.428,9.937c0-0.38,0-0.744,0-1.135c1.16,0,2.319,0,3.503,0
		c0,0.369,0,0.742,0,1.135C34.764,9.937,33.604,9.937,32.428,9.937z"/>
	<path fill-rule="evenodd" clip-rule="evenodd" fill="#0077FF" d="M32.433,11.145c1.18,0,2.321,0,3.492,0c0,0.378,0,0.751,0,1.149
		c-1.149,0-2.309,0-3.492,0C32.433,11.922,32.433,11.55,32.433,11.145z"/>
	<path fill-rule="evenodd" clip-rule="evenodd" fill="#0077FF" d="M35.938,18.254c0,0.39,0,0.753,0,1.136c-1.167,0-2.317,0-3.499,0
		c0-0.363,0-0.736,0-1.136C33.589,18.254,34.748,18.254,35.938,18.254z"/>
	<path fill-rule="evenodd" clip-rule="evenodd" fill="#0077FF" d="M35.928,21.759c-1.174,0-2.324,0-3.496,0c0-0.378,0-0.742,0-1.137
		c1.148,0,2.308,0,3.496,0C35.928,20.979,35.928,21.352,35.928,21.759z"/>
	<path fill-rule="evenodd" clip-rule="evenodd" fill="#0077FF" d="M32.428,28.839c0-0.395,0-0.759,0-1.14c1.169,0,2.319,0,3.499,0
		c0,0.368,0,0.741,0,1.14C34.773,28.839,33.614,28.839,32.428,28.839z"/>
	<path fill-rule="evenodd" clip-rule="evenodd" fill="#0077FF" d="M32.428,31.201c0-0.394,0-0.758,0-1.139c1.169,0,2.319,0,3.499,0
		c0,0.368,0,0.741,0,1.139C34.773,31.201,33.614,31.201,32.428,31.201z"/>
</g>
</svg>
