<svg width="90" height="90" viewBox="0 0 90 90" fill="none" xmlns="http://www.w3.org/2000/svg">
<path fill-rule="evenodd" clip-rule="evenodd" d="M80.2503 67.2383V77.1617V77.1727H80.2448C80.2411 79.4809 79.3016 81.5748 77.7876 83.0895C76.2669 84.6113 74.1721 85.5554 71.8674 85.5554H71.8564V85.5499L51.313 85.5171V82.7155L71.8564 82.7483V82.7429H71.8674C73.4024 82.7429 74.7931 82.1185 75.799 81.112C76.812 80.0984 77.4409 78.704 77.4432 77.1727H77.4378V77.1617V67.2383H80.2503Z" fill="#B0B8FF"/>
<path fill-rule="evenodd" clip-rule="evenodd" d="M45 3.15454C65.2894 3.15454 81.8894 19.755 81.8894 40.044V55.752H75.2099V40.044C75.2099 23.4286 61.6153 9.83423 45 9.83423C28.3846 9.83423 14.79 23.4286 14.79 40.044V55.752H8.11035V40.044C8.11035 19.755 24.7106 3.15454 45 3.15454Z" fill="#B0B8FF"/>
<path fill-rule="evenodd" clip-rule="evenodd" d="M76.2684 44.3416H81.4202C85.0102 44.3416 87.9477 47.2789 87.9477 50.8688V64.2266C87.9477 67.8166 85.0102 70.7539 81.4202 70.7539H76.2684C75.4283 70.7539 74.7412 70.0668 74.7412 69.2267V45.8684C74.7412 45.0287 75.4283 44.3416 76.2684 44.3416Z" fill="#010E8C"/>
<path fill-rule="evenodd" clip-rule="evenodd" d="M13.7313 44.3416H8.57953C4.98955 44.3416 2.05225 47.2789 2.05225 50.8688V64.2266C2.05225 67.8166 4.98955 70.7539 8.57953 70.7539H13.7315C14.5716 70.7539 15.2587 70.0668 15.2587 69.2267V45.8684C15.2585 45.0287 14.5714 44.3416 13.7313 44.3416Z" fill="#010E8C"/>
<path fill-rule="evenodd" clip-rule="evenodd" d="M24.3604 7.54594C30.5102 3.61934 37.7002 1.49414 44.9999 1.49414C52.2996 1.49414 59.4894 3.61951 65.6394 7.54594L60.2971 15.9295C55.6853 12.985 50.469 11.4764 44.9999 11.4764C39.531 11.4764 34.3143 12.985 29.7027 15.9295L24.3604 7.54594Z" fill="#8A95FF"/>
<path fill-rule="evenodd" clip-rule="evenodd" d="M40.8779 79.793H49.1218C51.5179 79.793 53.4782 81.7531 53.4782 84.1494C53.4782 86.5456 51.5179 88.5059 49.1218 88.5059H40.8779C38.4818 88.5059 36.5215 86.5456 36.5215 84.1494C36.5215 81.7531 38.4816 79.793 40.8779 79.793Z" fill="#0119FF"/>
<path fill-rule="evenodd" clip-rule="evenodd" d="M65.2665 37.5673H36.573C35.3634 37.5673 34.377 38.5537 34.377 39.7633V57.7431C34.377 58.9526 35.3634 59.9391 36.573 59.9391H52.8904L62.1884 66.6153V59.9391H65.2666C66.4762 59.9391 67.4627 58.9526 67.4627 57.7431V39.7633C67.4625 38.5537 66.476 37.5673 65.2665 37.5673Z" fill="#010E8C"/>
<path fill-rule="evenodd" clip-rule="evenodd" d="M24.733 32.0588H53.4265C54.636 32.0588 55.6223 33.0453 55.6223 34.2549V52.2345C55.6223 53.4442 54.636 54.4305 53.4265 54.4305H37.1091L27.8111 61.1067V54.4305H24.7328C23.5231 54.4305 22.5366 53.4442 22.5366 52.2345V34.2549C22.5368 33.0453 23.5233 32.0588 24.733 32.0588Z" fill="#8A95FF"/>
<path fill-rule="evenodd" clip-rule="evenodd" d="M29.0859 50.2443C28.3093 50.2443 27.6797 49.6147 27.6797 48.8381C27.6797 48.0615 28.3093 47.4318 29.0859 47.4318H49.0742C49.8508 47.4318 50.4805 48.0615 50.4805 48.8381C50.4805 49.6147 49.8508 50.2443 49.0742 50.2443H29.0859ZM29.0859 44.651C28.3093 44.651 27.6797 44.0213 27.6797 43.2447C27.6797 42.4681 28.3093 41.8385 29.0859 41.8385H49.0742C49.8508 41.8385 50.4805 42.4681 50.4805 43.2447C50.4805 44.0213 49.8508 44.651 49.0742 44.651H29.0859ZM29.0859 39.0576C28.3093 39.0576 27.6797 38.428 27.6797 37.6514C27.6797 36.8748 28.3093 36.2451 29.0859 36.2451H49.0742C49.8508 36.2451 50.4805 36.8748 50.4805 37.6514C50.4805 38.428 49.8508 39.0576 49.0742 39.0576H29.0859Z" fill="#0119FF"/>
</svg>
