<svg width="90" height="90" viewBox="0 0 90 90" fill="none" xmlns="http://www.w3.org/2000/svg">
<g clip-path="url(#clip0_1_1411)">
<path fill-rule="evenodd" clip-rule="evenodd" d="M43.5834 50.4366C59.9693 67.6099 68.1621 76.196 68.1621 76.196C69.8295 77.6032 69.8295 79.9049 68.1621 81.3121C66.4945 82.7192 63.7673 82.7192 62.0998 81.3121C63.767 82.7192 63.767 85.0209 62.0998 86.4277C60.4324 87.8349 57.7049 87.8351 56.038 86.4281L52.731 83.6377C54.3984 85.0445 54.3984 87.3462 52.731 88.7533C51.064 90.1605 48.3364 90.1605 46.6691 88.7533L40.8339 83.8293C42.5013 85.2361 42.5013 87.5378 40.8337 88.945C39.1667 90.3517 36.439 90.3517 34.7718 88.945L10.8613 68.7667C10.8613 68.7667 12.4775 62.6568 15.7099 50.4366H43.5834Z" fill="#B0B8FF"/>
<path fill-rule="evenodd" clip-rule="evenodd" d="M48.1091 71.5769C47.4315 71.005 47.4315 70.0775 48.1091 69.5055C48.787 68.9332 49.8863 68.9332 50.5641 69.5055L62.3727 79.4708C63.0506 80.0427 63.0506 80.9702 62.3727 81.5426C61.695 82.1145 60.596 82.1145 59.9179 81.5426L48.1091 71.5769ZM34.5393 80.5884C33.8612 80.0166 33.8612 79.0887 34.5393 78.5166C35.217 77.9448 36.316 77.9448 36.9941 78.5166L41.136 82.012C41.8139 82.5839 41.8139 83.5117 41.136 84.0838C40.4581 84.6559 39.3591 84.6557 38.6812 84.0838L34.5393 80.5884ZM41.324 76.0826L50.5493 83.8679C51.227 84.4398 52.3264 84.4398 53.0043 83.8679C53.6822 83.296 53.682 82.3685 53.0043 81.7961L43.779 74.0111C43.1014 73.4389 42.0023 73.4389 41.324 74.0111C40.6463 74.5832 40.6463 75.5107 41.324 76.0826Z" fill="#8A95FF"/>
<path fill-rule="evenodd" clip-rule="evenodd" d="M10.4316 46.9698L20.8654 48.7201L14.4644 75.8956L4.03064 74.1453L10.4316 46.9698Z" fill="#010E8C"/>
<path fill-rule="evenodd" clip-rule="evenodd" d="M80.4735 67.3142C80.267 67.3807 72.2814 50.3571 72.0775 50.4215C64.4075 52.8403 58.5273 53.7221 50.6248 48.2199C48.1247 46.4792 44.7542 46.2862 42.2665 48.0392L32.2072 55.1271C31.0047 55.9741 30.3458 57.1518 30.6798 58.4431L33.7313 70.2436C41.4894 68.6301 41.4532 63.9711 41.9998 59.0726C42.2628 57.1965 45.8555 57.7102 50.3646 61.1772L68.9199 77.0644L80.4735 67.3142Z" fill="#8A95FF"/>
<path fill-rule="evenodd" clip-rule="evenodd" d="M85.9995 74.0905L75.5656 75.8407L69.1646 48.6653L79.5985 46.915L85.9995 74.0905Z" fill="#010E8C"/>
<path fill-rule="evenodd" clip-rule="evenodd" d="M44.9995 40.957C56.2785 40.957 65.4779 31.7577 65.4779 20.4785C65.4779 9.19934 56.2785 0 44.9995 0C33.7203 0 24.521 9.19934 24.521 20.4785C24.521 31.7577 33.7203 40.957 44.9995 40.957Z" fill="#8A95FF"/>
<path fill-rule="evenodd" clip-rule="evenodd" d="M44.9996 35.4109C53.2241 35.4109 59.9319 28.7028 59.9319 20.4785C59.9319 12.2542 53.2241 5.54639 44.9996 5.54639C36.7752 5.54639 30.0674 12.2542 30.0674 20.4785C30.0674 28.7028 36.7752 35.4109 44.9996 35.4109Z" fill="#B0B8FF"/>
<path fill-rule="evenodd" clip-rule="evenodd" d="M49.5231 14.4834C50.035 15.1897 49.8775 16.1774 49.1709 16.6893C48.4644 17.2015 47.4767 17.0436 46.9646 16.337C46.8084 16.121 46.6096 15.9466 46.3851 15.8313C46.1715 15.7218 45.9215 15.6595 45.6489 15.6595H44.6417C44.1982 15.6595 43.7939 15.8422 43.4998 16.1364C43.2057 16.4303 43.0233 16.8348 43.0233 17.2779C43.0233 17.7214 43.2055 18.1256 43.4998 18.4198C43.7939 18.7141 44.1982 18.8964 44.6417 18.8964H45.3569C46.6737 18.8964 47.8697 19.4341 48.7358 20.3002C49.6019 21.1661 50.1394 22.3621 50.1394 23.6788C50.1394 24.9958 49.6017 26.192 48.7358 27.0579C48.148 27.6461 47.4078 28.0823 46.5813 28.3021V28.976C46.5813 29.8498 45.873 30.558 44.9992 30.558C44.1256 30.558 43.4172 29.8498 43.4172 28.976V28.3673C42.9835 28.279 42.568 28.1307 42.1799 27.9313C41.5021 27.5835 40.9174 27.0792 40.4755 26.4678C39.967 25.7612 40.1274 24.7762 40.8339 24.2677C41.5404 23.7592 42.5254 23.9198 43.034 24.6261C43.1853 24.8358 43.3845 25.0083 43.6135 25.1257C43.8271 25.2356 44.0771 25.2978 44.3497 25.2978H45.3571C45.8004 25.2978 46.2049 25.1152 46.4988 24.8209C46.7931 24.527 46.9755 24.1225 46.9755 23.679C46.9755 23.2359 46.7931 22.8314 46.4988 22.5375C46.2049 22.2432 45.8004 22.0606 45.3571 22.0606H44.6419C43.3251 22.0606 42.1289 21.5232 41.2628 20.6572C40.3967 19.7911 39.8594 18.5953 39.8594 17.2781C39.8594 15.9615 40.3969 14.7653 41.2628 13.8994C41.8508 13.3113 42.5908 12.875 43.4174 12.6553V11.981C43.4174 11.1071 44.1258 10.3989 44.9994 10.3989C45.8732 10.3989 46.5814 11.1071 46.5814 11.981V12.5897C47.0151 12.6783 47.4306 12.8266 47.8188 13.0256C48.5013 13.3761 49.0858 13.8785 49.5231 14.4834Z" fill="#0119FF"/>
</g>
<defs>
<clipPath id="clip0_1_1411">
<rect width="90" height="90" fill="white"/>
</clipPath>
</defs>
</svg>
