<svg width="90" height="90" viewBox="0 0 90 90" fill="none" xmlns="http://www.w3.org/2000/svg">
<path fill-rule="evenodd" clip-rule="evenodd" d="M21.528 66.1853C27.4915 66.1853 32.3557 61.3215 32.3557 55.3579C32.3557 49.394 27.4915 44.5302 21.528 44.5302C15.5639 44.5302 10.7002 49.394 10.7002 55.3579C10.7002 61.3217 15.5639 66.1853 21.528 66.1853Z" fill="#010E8C"/>
<path fill-rule="evenodd" clip-rule="evenodd" d="M41.5617 87.9771C41.5617 76.9584 32.5466 67.9431 21.5279 67.9431C10.5093 67.9431 1.49414 76.9586 1.49414 87.9771H41.5617Z" fill="#B0B8FF"/>
<path fill-rule="evenodd" clip-rule="evenodd" d="M68.4723 66.1853C74.436 66.1853 79.2995 61.3215 79.2995 55.3579C79.2995 49.394 74.436 44.5302 68.4723 44.5302C62.5086 44.5302 57.6445 49.394 57.6445 55.3579C57.6447 61.3217 62.5086 66.1853 68.4723 66.1853Z" fill="#0119FF"/>
<path fill-rule="evenodd" clip-rule="evenodd" d="M88.5061 87.9771C88.5061 76.9584 79.4911 67.9431 68.4724 67.9431C57.4538 67.9431 48.4385 76.9584 48.4385 87.9771H88.5061Z" fill="#8A95FF"/>
<path fill-rule="evenodd" clip-rule="evenodd" d="M68.3615 8.37268H35.286C33.8917 8.37268 32.7549 9.50981 32.7549 10.9039V31.6294C32.7549 33.0239 33.8918 34.1608 35.286 34.1608H54.0956L64.8133 41.8564V34.1608H68.3617C69.756 34.1608 70.8931 33.0237 70.8931 31.6294V10.9039C70.8931 9.50981 69.7558 8.37268 68.3615 8.37268Z" fill="#010E8C"/>
<path fill-rule="evenodd" clip-rule="evenodd" d="M21.6384 2.02295H54.7135C56.1082 2.02295 57.2453 3.16008 57.2453 4.55437V25.2799C57.2453 26.6742 56.108 27.8111 54.7135 27.8111H35.9046L25.1865 35.5066V27.8111H21.6382C20.2439 27.8111 19.1069 26.674 19.1069 25.2799V4.55437C19.1069 3.16008 20.2441 2.02295 21.6384 2.02295Z" fill="#8A95FF"/>
<path fill-rule="evenodd" clip-rule="evenodd" d="M45.5998 6.7933C46.5745 5.81841 48.1554 5.81841 49.1303 6.7933C50.1054 7.76835 50.1054 9.34898 49.1303 10.324L36.4136 23.0408C35.3095 24.145 33.4851 23.9715 32.5992 22.7022L27.0316 15.6963C26.1752 14.6191 26.3542 13.0513 27.4315 12.1949C28.5089 11.3385 30.0765 11.5174 30.9329 12.5948L34.8585 17.5346L45.5998 6.7933Z" fill="#0119FF"/>
</svg>
