<svg width="52" height="52" viewBox="0 0 52 52" fill="none" xmlns="http://www.w3.org/2000/svg">
<path d="M44.2317 33.668L42.8159 33.6243C42.6534 33.082 42.4361 32.5579 42.167 32.0582L43.1379 31.0253C43.4233 30.7216 43.4152 30.2534 43.1216 29.9599L40.8639 27.7022C40.5694 27.4077 40.1012 27.4005 39.7985 27.6859L38.7656 28.6559C38.267 28.3867 37.7429 28.1694 37.1995 28.0069L37.1559 26.5911C37.1427 26.1747 36.8065 25.8487 36.3901 25.8487H35.4029V5.04258C35.4029 3.10172 33.8236 1.52344 31.8837 1.52344H10.5465C8.60562 1.52344 7.02734 3.10172 7.02734 5.04258V46.9564C7.02734 48.8973 8.60664 50.4755 10.5465 50.4755H31.8837C33.8246 50.4755 35.4029 48.8963 35.4029 46.9564V46.2089H36.3901C36.8065 46.2089 37.1427 45.8829 37.1559 45.4665L37.1985 44.0517C37.7419 43.8892 38.267 43.6719 38.7656 43.4017L39.7975 44.3716C40.1012 44.657 40.5694 44.6499 40.8639 44.3554L43.1216 42.0977C43.4162 41.8031 43.4233 41.3359 43.1379 41.0313L42.168 39.9984C42.4371 39.4997 42.6545 38.9746 42.817 38.4323L44.2327 38.3886C44.6491 38.3764 44.9752 38.0402 44.9752 37.6228V34.4307C44.9731 34.0173 44.6471 33.6802 44.2317 33.668ZM26.3557 2.74219L25.1918 5.22438C25.0872 5.44781 24.8861 5.57477 24.6393 5.57477H17.7899C17.5441 5.57477 17.342 5.4468 17.2384 5.22438L16.0745 2.74219H26.3557ZM10.5465 2.74219H14.7278L16.1345 5.74133C16.4391 6.39031 17.0729 6.79352 17.7899 6.79352H24.6393C25.3563 6.79352 25.9901 6.39031 26.2948 5.74133L27.7014 2.74219H31.8827C33.1513 2.74219 34.1831 3.77406 34.1831 5.04258V25.8487H33.1959C32.7795 25.8487 32.4434 26.1747 32.4302 26.5911L32.3865 28.0069C31.8431 28.1694 31.318 28.3867 30.8194 28.6569L29.7885 27.687C29.4848 27.4005 29.0166 27.4077 28.7221 27.7032L26.4654 29.9599C26.1709 30.2545 26.1638 30.7227 26.4491 31.0263L27.4201 32.0572C27.1499 32.5569 26.9326 33.082 26.7701 33.6263L25.3553 33.669C24.9389 33.6812 24.6129 34.0184 24.6129 34.4348V37.6269C24.6129 38.0433 24.9389 38.3795 25.3553 38.3927L26.7701 38.4353C26.9326 38.9787 27.1509 39.5038 27.4201 40.0045L26.4491 41.0353C26.1638 41.339 26.1709 41.8072 26.4654 42.1017L27.1184 42.7548H8.24609V5.04258C8.24609 3.77406 9.27797 2.74219 10.5465 2.74219ZM34.1841 46.9574C34.1841 48.2259 33.1523 49.2578 31.8837 49.2578H10.5465C9.27797 49.2578 8.24609 48.2259 8.24609 46.9574V43.9715H28.3382L28.7241 44.3574C29.0187 44.652 29.4869 44.6591 29.7905 44.3737L30.8214 43.4027C31.3211 43.6729 31.8472 43.8902 32.3905 44.0527L32.4332 45.4675C32.4454 45.8839 32.7826 46.2099 33.199 46.2099H34.1862V46.9574H34.1841ZM43.7544 37.1871L42.4452 37.2277C42.1009 37.2379 41.8115 37.4695 41.7262 37.8036C41.5586 38.4617 41.2966 39.0924 40.9492 39.6774C40.7735 39.974 40.8141 40.3416 41.0498 40.5925L41.9476 41.5482L40.3114 43.1844L39.3557 42.2866C39.1048 42.0499 38.7372 42.0103 38.4406 42.186C37.8546 42.5334 37.2239 42.7954 36.5648 42.963C36.2306 43.0483 35.9991 43.3367 35.9889 43.682L35.9493 44.9912H33.6367L33.5971 43.682C33.587 43.3367 33.3554 43.0483 33.0212 42.963C32.3621 42.7954 31.7304 42.5334 31.1444 42.185C30.8478 42.0083 30.4791 42.0489 30.2283 42.2855L29.2746 43.1834L27.6395 41.5482L28.5373 40.5945C28.7739 40.3427 28.8145 39.975 28.6378 39.6784C28.2895 39.0924 28.0274 38.4607 27.8598 37.8016C27.7745 37.4674 27.4851 37.2348 27.1408 37.2257L25.8316 37.1861V34.8725L27.1408 34.8329C27.4851 34.8227 27.7745 34.5912 27.8598 34.257C28.0284 33.5969 28.2895 32.9662 28.6378 32.3802C28.8135 32.0836 28.7729 31.7159 28.5373 31.4641L27.6395 30.5104L29.2746 28.8752L30.2283 29.773C30.4791 30.0097 30.8468 30.0503 31.1444 29.8746C31.7304 29.5263 32.3611 29.2652 33.0192 29.0966C33.3534 29.0113 33.5849 28.7229 33.5961 28.3786L33.6367 27.0684H35.9513L35.992 28.3786C36.0031 28.7229 36.2347 29.0113 36.5678 29.0966C37.2259 29.2652 37.8566 29.5263 38.4416 29.8736C38.7382 30.0493 39.1059 30.0087 39.3567 29.773L40.3124 28.8752L41.9486 30.5114L41.0508 31.4671C40.8152 31.718 40.7745 32.0866 40.9502 32.3822C41.2976 32.9672 41.5586 33.5979 41.7272 34.256C41.8125 34.5902 42.1009 34.8217 42.4452 34.8319L43.7554 34.8725V37.1871H43.7544ZM36.0803 31.2264C33.4326 30.5175 30.7005 32.0938 29.9906 34.7425C29.2807 37.3913 30.858 40.1223 33.5067 40.8322C33.9353 40.947 34.37 41.0038 34.8016 41.0038C35.6629 41.0038 36.514 40.7784 37.2798 40.3355C38.4295 39.6713 39.2531 38.5988 39.5964 37.3161C40.3053 34.6684 38.728 31.9363 36.0803 31.2264ZM38.4193 37.0013C38.1593 37.9702 37.5387 38.7786 36.6704 39.2803C35.802 39.782 34.7905 39.9151 33.8226 39.6551C31.8238 39.1198 30.6325 37.0571 31.1688 35.0584C31.6177 33.3836 33.138 32.2756 34.7955 32.2756C35.1165 32.2756 35.4425 32.3172 35.7665 32.4035C37.7642 32.9398 38.9545 35.0015 38.4193 37.0013ZM24.6799 46.8284C24.6799 47.1646 24.4067 47.4378 24.0705 47.4378H18.3597C18.0235 47.4378 17.7503 47.1646 17.7503 46.8284C17.7503 46.4923 18.0235 46.2191 18.3597 46.2191H24.0705C24.4067 46.2191 24.6799 46.4913 24.6799 46.8284ZM25.4163 24.3913L28.7495 21.1372L25.4163 17.8831C25.1755 17.6485 25.1705 17.2626 25.4061 17.0219C25.6407 16.7812 26.0266 16.7761 26.2673 17.0117L30.0475 20.7015C30.1653 20.8163 30.2313 20.9737 30.2313 21.1372C30.2313 21.3007 30.1653 21.4581 30.0475 21.5729L26.2673 25.2627C26.1485 25.3784 25.9952 25.4363 25.8418 25.4363C25.6834 25.4363 25.5249 25.3754 25.4061 25.2525C25.1705 25.0118 25.1755 24.6269 25.4163 24.3913ZM12.3817 21.5729C12.2639 21.4581 12.1979 21.3007 12.1979 21.1372C12.1979 20.9737 12.2639 20.8163 12.3817 20.7015L16.1619 17.0117C16.4026 16.7761 16.7885 16.7812 17.0231 17.0219C17.2577 17.2626 17.2537 17.6485 17.013 17.8831L13.6797 21.1372L17.013 24.3913C17.2537 24.6259 17.2587 25.0118 17.0231 25.2525C16.9033 25.3744 16.7459 25.4363 16.5874 25.4363C16.4341 25.4363 16.2807 25.3784 16.1619 25.2627L12.3817 21.5729ZM19.8547 27.6443L22.6192 14.3823C22.6883 14.0532 23.0112 13.8409 23.3403 13.91C23.6694 13.9791 23.8816 14.301 23.8126 14.6311L21.048 27.8931C20.9881 28.1805 20.7342 28.3786 20.4519 28.3786C20.4102 28.3786 20.3686 28.3745 20.327 28.3654C19.9979 28.2963 19.7856 27.9734 19.8547 27.6443Z" fill="white"/>
</svg>
