<?xml version="1.0" encoding="utf-8"?>
<!-- Generator: Adobe Illustrator 16.0.0, SVG Export Plug-In . SVG Version: 6.00 Build 0)  -->
<!DOCTYPE svg PUBLIC "-//W3C//DTD SVG 1.1//EN" "http://www.w3.org/Graphics/SVG/1.1/DTD/svg11.dtd">
<svg version="1.1" id="Layer_1" xmlns="http://www.w3.org/2000/svg" xmlns:xlink="http://www.w3.org/1999/xlink" x="0px" y="0px"
	 width="100px" height="100px" viewBox="0 0 100 100" enable-background="new 0 0 100 100" xml:space="preserve">
<g>
	<path fill="#224653" d="M78.205,79.957h-8.92C75.787,72.959,79.77,63.6,79.77,53.314c0-8.521-2.768-16.745-7.842-23.5h12.545
		c7.777,0,14.105-6.327,14.105-14.108c0-7.774-6.328-14.102-14.105-14.102h-9.4c-7.777,0-14.104,6.328-14.104,14.102v4.145
		c-6.125-3.742-13.109-5.708-20.372-5.708c-21.603,0-39.175,17.572-39.175,39.171c0,9.924,3.775,19.43,10.461,26.643h-1.061v3.135
		h29.774c16.42,0,29.774-13.355,29.774-29.777c0-16.413-13.354-29.768-29.774-29.768c-16.417,0-29.774,13.355-29.774,29.768
		c0,11.645,6.719,21.748,16.485,26.643h-10.97C8.849,73.131,4.557,63.459,4.557,53.314c0-19.868,16.167-36.037,36.041-36.037
		c7.339,0,14.358,2.198,20.372,6.332v6.206h6.92c5.637,6.536,8.748,14.85,8.748,23.5c0,19.877-16.168,36.047-36.04,36.047H13.958
		v3.133h26.639h37.608v5.9l20.287-12.17L78.205,74.057V79.957z M13.958,53.314c0-14.688,11.949-26.634,26.639-26.634
		s26.639,11.946,26.639,26.634c0,14.693-11.949,26.643-26.639,26.643S13.958,68.008,13.958,53.314z M64.102,15.707
		c0-6.046,4.922-10.967,10.971-10.967h9.4c6.049,0,10.971,4.921,10.971,10.967c0,6.053-4.922,10.974-10.971,10.974H64.102V15.707z
		 M81.338,79.588l11.057,6.637l-11.057,6.639v-3.502H55.943c3.682-1.576,7.07-3.705,10.072-6.27h15.322V79.588z"/>
	<path fill="#224653" d="M4.557,79.957h3.132v3.135H4.557V79.957z"/>
	<path fill="#224653" d="M1.422,89.361h3.134v3.133H1.422V89.361z"/>
	<path fill="#224653" d="M7.689,89.361h3.134v3.133H7.689V89.361z"/>
	<path fill="#224653" d="M64.102,53.314c0-12.957-10.543-23.5-23.504-23.5c-12.962,0-23.504,10.543-23.504,23.5
		c0,12.965,10.542,23.508,23.504,23.508C53.559,76.822,64.102,66.279,64.102,53.314z M29.516,62.186l-4.372,4.369
		c-2.739-3.189-4.5-7.229-4.839-11.668h6.188V51.75h-6.186c0.339-4.438,2.1-8.477,4.839-11.67l4.372,4.376l2.218-2.214l-4.375-4.376
		c3.189-2.739,7.232-4.498,11.669-4.839v6.187h3.132v-6.187c4.441,0.341,8.48,2.1,11.669,4.839l-4.374,4.372l2.218,2.218
		l4.373-4.376c2.738,3.193,4.5,7.232,4.838,11.67h-6.186v3.137h6.186c-0.338,4.439-2.1,8.479-4.838,11.668l-4.373-4.373
		l-2.218,2.213l4.374,4.377c-3.189,2.734-7.229,4.498-11.669,4.838V67.42h-3.132v6.189c-4.441-0.34-8.48-2.104-11.669-4.838
		l4.375-4.377L29.516,62.186z"/>
	<path fill="#224653" d="M40.597,58.02c0.723,0,1.401-0.18,2.012-0.473l3.148,3.146l2.215-2.213l-3.146-3.148
		c0.293-0.615,0.47-1.287,0.47-2.018c0-2.037-1.314-3.761-3.134-4.407v-6.559h-3.132v6.559c-1.82,0.646-3.134,2.37-3.134,4.407
		C35.896,55.908,38.006,58.02,40.597,58.02z M40.597,51.75c0.863,0,1.566,0.703,1.566,1.564c0,0.867-0.703,1.572-1.566,1.572
		c-0.863,0-1.566-0.705-1.566-1.572C39.031,52.453,39.734,51.75,40.597,51.75z"/>
	<path fill="#224653" d="M71.938,7.874h15.67v3.134h-15.67V7.874z"/>
	<path fill="#224653" d="M71.938,14.143h15.67v3.134h-15.67V14.143z"/>
	<path fill="#224653" d="M84.473,20.412h3.135v3.134h-3.135V20.412z"/>
	<path fill="#224653" d="M78.205,20.412h3.133v3.134h-3.133V20.412z"/>
	<path fill="#224653" d="M71.938,20.412h3.135v3.134h-3.135V20.412z"/>
</g>
</svg>
