<svg id="Order" enable-background="new 0 0 128 128" height="512" viewBox="0 0 128 128" width="512" xmlns="http://www.w3.org/2000/svg"><g><path id="_x38_" d="m2.013 17.799h123.976v3.997h-123.976z"/><path id="_x37_" clip-rule="evenodd" d="m11.905 8.956c1.077 0 1.927.879 1.927 1.927 0 1.077-.85 1.956-1.927 1.956s-1.928-.879-1.928-1.956c0-1.048.851-1.927 1.928-1.927zm16.892 0c1.077 0 1.927.879 1.927 1.927 0 1.077-.85 1.956-1.927 1.956-1.078 0-1.956-.879-1.956-1.956.001-1.048.879-1.927 1.956-1.927zm-8.446 0c1.077 0 1.927.879 1.927 1.927 0 1.077-.85 1.956-1.927 1.956s-1.956-.879-1.956-1.956c0-1.048.879-1.927 1.956-1.927z" fill-rule="evenodd"/><path id="_x36_" d="m113.572 8.899c1.105 0 1.984.879 1.984 1.984s-.879 2.013-1.984 2.013h-68.052c-1.105 0-2.013-.907-2.013-2.013 0-1.105.907-1.984 2.013-1.984z"/><path id="_x35_" d="m82.508 62.724c0-3.798 1.758-6.236 4.055-7.369.906-.425 1.898-.652 2.918-.652 1.021 0 2.012.227 2.92.68 2.324 1.133 4.139 3.6 4.139 7.341v19.302c.51.113 1.445.34 2.322.566 3.432.794 6.293 1.475 10.857 3.09 1.756.624 3.43 1.928 4.648 3.516 1.189 1.586 1.955 3.457 1.955 5.3v26.245c0 3.969-3.287 7.257-7.285 7.257h-19.273c-3.344 0-6.973-2.126-9.07-4.705l-14.227-17.403c-2.354-2.777-2.835-5.726-2.155-8.077.311-1.077.907-2.041 1.672-2.807s1.758-1.332 2.863-1.616c2.805-.736 5.695.539 7.736 2.467l5.924 5.158v-5.158-5.727-27.408zm5.783-3.769c-.992.51-1.785 1.729-1.785 3.77v27.408 5.727 9.58c0 .453-.17.936-.512 1.304-.707.822-1.984.907-2.805.198l-9.213-8.077c-1.389-1.105-3.543-2.637-5.186-1.021-1.588 1.559-.482 4.053.736 5.47l14.143 17.346c.795 1.049 3.346 3.345 6.094 3.345h19.273c1.814 0 3.26-1.474 3.26-3.26v-26.247c0-.964-.424-1.984-1.105-2.892-.766-.992-1.785-1.786-2.807-2.153-4.307-1.531-7.113-2.183-10.457-2.977-.566-.142-1.135-.283-2.551-.624-.852-.198-1.559-.68-2.041-1.304-.51-.651-.795-1.445-.795-2.296v-19.528c0-1.984-.82-3.231-1.869-3.741-.398-.198-.795-.284-1.191-.284-.396 0-.792.086-1.189.256z"/><path id="_x34_" d="m29.137 31.206h12.839 12.784c1.304 0 2.522.539 3.373 1.417.879.851 1.417 2.069 1.417 3.373v36.847c0 1.304-.539 2.522-1.417 3.373v.028c-.851.851-2.069 1.39-3.373 1.39h-38.406c-1.333 0-2.523-.539-3.401-1.39v-.028c-.878-.851-1.417-2.069-1.417-3.373v-36.847c0-1.304.539-2.522 1.417-3.373.878-.879 2.069-1.417 3.401-1.417zm11.281 36.479c-1.105 0-2.012-.907-2.012-2.013s.907-1.984 2.012-1.984h7.625c1.105 0 1.984.878 1.984 1.984s-.879 2.013-1.984 2.013zm3.543-32.482v13.633c0 .595-.17 1.162-.482 1.644s-.765.878-1.332 1.133c-1.105.482-2.381.284-3.288-.538l-3.231-2.891-3.43 3.004c-.907.765-2.182.963-3.288.453-.539-.227-.964-.623-1.304-1.105-.312-.51-.482-1.077-.482-1.672v-13.661h-10.77c-.227 0-.425.085-.567.227-.142.142-.227.34-.227.567v36.847c0 .227.085.425.227.567.142.142.34.227.567.227h38.406c.227 0 .425-.085.567-.227.142-.143.227-.341.227-.567v-36.848c0-.227-.085-.425-.227-.567-.142-.142-.34-.227-.567-.227h-10.799zm-3.996 0h-8.843v11.592l2.522-2.182c.539-.482 1.332-.737 2.041-.737.708 0 1.445.255 2.012.766l2.268 2.069z"/><path id="_x33_" d="m76.301 64.935c1.105 0 2.014.879 2.014 1.984 0 1.106-.908 2.013-2.014 2.013h-1.559c-3.346 0-6.064-2.721-6.064-6.066v-10.374c0-3.345 2.748-6.066 6.064-6.066h34.863c3.316 0 6.037 2.721 6.037 6.066v10.374c0 3.345-2.721 6.066-6.037 6.066h-5.896c-1.105 0-2.012-.906-2.012-2.013 0-1.105.906-1.984 2.012-1.984h5.896c1.133 0 2.041-.935 2.041-2.069v-10.374c0-1.134-.908-2.069-2.041-2.069h-34.863c-1.133 0-2.068.935-2.068 2.069v10.374c0 1.134.936 2.069 2.068 2.069z"/><path id="_x32_" d="m13.548 95.972c-1.105 0-2.012-.907-2.012-2.013s.907-1.984 2.012-1.984h9.552c1.105 0 2.013.879 2.013 1.984s-.907 2.013-2.013 2.013zm0-8.447c-1.105 0-2.012-.907-2.012-1.984 0-1.105.907-2.013 2.012-2.013h25.878c1.105 0 1.984.907 1.984 2.013 0 1.077-.878 1.984-1.984 1.984z"/><path id="_x31_" d="m57.027 102.462c1.077 0 1.984.907 1.984 2.013s-.907 1.984-1.984 1.984h-51.33c-1.644 0-3.062-.681-4.082-1.786-1.02-1.077-1.615-2.579-1.615-4.167v-94.639c0-3.203 2.664-5.867 5.867-5.867h116.236c3.233 0 5.897 2.664 5.897 5.867v94.639c0 1.616-.709 3.118-1.842 4.195-1.105 1.077-2.607 1.758-4.225 1.758-1.105 0-2.012-.879-2.012-1.984s.906-2.013 2.012-2.013c.539 0 1.049-.227 1.447-.624.367-.368.623-.85.623-1.332v-94.639c0-1.02-.852-1.871-1.9-1.871h-116.236c-1.021 0-1.871.851-1.871 1.871v94.639c0 .567.198 1.105.539 1.446.312.312.708.51 1.162.51z"/></g></svg>