<?xml version="1.0" encoding="utf-8"?>
<!-- Generator: Adobe Illustrator 16.0.0, SVG Export Plug-In . SVG Version: 6.00 Build 0)  -->
<!DOCTYPE svg PUBLIC "-//W3C//DTD SVG 1.1//EN" "http://www.w3.org/Graphics/SVG/1.1/DTD/svg11.dtd">
<svg version="1.1" id="Layer_1" xmlns="http://www.w3.org/2000/svg" xmlns:xlink="http://www.w3.org/1999/xlink" x="0px" y="0px"
	 width="300px" height="300px" viewBox="0 0 300 300" enable-background="new 0 0 300 300" xml:space="preserve">
<linearGradient id="SVGID_1_" gradientUnits="userSpaceOnUse" x1="38.6875" y1="232.6641" x2="38.6875" y2="269.4609" gradientTransform="matrix(8 0 0 -8 -159.5 2158.5)">
	<stop  offset="0" style="stop-color:#000000"/>
	<stop  offset="1" style="stop-color:#000000"/>
</linearGradient>
<path fill="url(#SVGID_1_)" d="M192.732,126.26c-36.654,0-66.473,29.818-66.473,66.473s29.818,66.473,66.473,66.473
	s66.473-29.818,66.473-66.473S229.387,126.26,192.732,126.26z M249.467,187.984h-19.082c-2.15-17.15-15.76-30.754-32.91-32.908
	v-19.083C225.109,138.291,247.174,160.355,249.467,187.984z M192.732,221.221c-15.711,0-28.488-12.777-28.488-28.488
	s12.777-28.488,28.488-28.488s28.488,12.777,28.488,28.488S208.443,221.221,192.732,221.221z M187.984,135.998v19.082
	c-17.15,2.15-30.754,15.758-32.908,32.908h-19.083C138.291,160.355,160.355,138.291,187.984,135.998L187.984,135.998z
	 M135.998,197.48h19.083c2.15,17.15,15.758,30.754,32.908,32.908v19.082C160.355,247.174,138.291,225.109,135.998,197.48z
	 M197.48,249.467v-19.084c17.15-2.148,30.754-15.758,32.908-32.908h19.082C247.174,225.109,225.109,247.174,197.48,249.467z
	 M192.732,173.74c-10.475,0-18.992,8.518-18.992,18.992s8.518,18.992,18.992,18.992s18.992-8.518,18.992-18.992
	S203.207,173.74,192.732,173.74z M192.732,202.229c-5.238,0-9.496-4.26-9.496-9.496c0-5.238,4.258-9.496,9.496-9.496
	c5.236,0,9.496,4.258,9.496,9.496C202.229,197.969,197.969,202.229,192.732,202.229z M271.682,159.947
	c-2.256-5.389-1.055-11.524,3.049-15.631l8.666-8.66l-33.592-33.592l-8.662,8.665c-4.102,4.107-10.236,5.304-15.871,2.948
	c-5.348-2.212-8.799-7.378-8.799-13.166V88.276h-47.48v12.235c0,5.788-3.457,10.954-9.045,13.271
	c-5.395,2.255-11.524,1.054-15.631-3.048l-8.66-8.665l-6.017,6.015c-7.686-16.694-22.049-29.675-39.688-35.467
	c10.407-6.78,17.316-18.503,17.316-31.821c0-20.943-17.041-37.984-37.984-37.984c-20.943,0-37.984,17.041-37.984,37.984
	c0,13.318,6.908,25.041,17.311,31.821c-26.556,8.717-45.799,33.706-45.799,63.139v18.993h41.431
	c-7.915,6.965-12.943,17.141-12.943,28.488c0,13.318,6.908,25.041,17.311,31.82c-26.556,8.719-45.799,33.707-45.799,63.139v18.994
	h132.944v-13.889l8.565-8.57c4.107-4.104,10.246-5.293,15.873-2.947c5.342,2.217,8.799,7.383,8.799,13.17v12.236h47.48v-12.236
	c0-5.787,3.451-10.953,9.045-13.271c5.389-2.26,11.518-1.055,15.631,3.049l8.66,8.666l33.592-33.592l-8.666-8.662
	c-4.102-4.107-5.303-10.24-2.947-15.871c2.213-5.348,7.379-8.799,13.166-8.799h12.236v-47.48h-12.236
	C279.166,168.992,274,165.539,271.682,159.947L271.682,159.947z M126.26,135.755v9.497H77.464l29.684-51.948
	C118.843,103.745,126.26,118.881,126.26,135.755z M94.324,154.748h20.526c-0.052,1.799-0.408,3.617-1.167,5.445
	c-1.705,4.111-5.228,7.109-9.411,8.258C102.025,163.152,98.583,158.5,94.324,154.748L94.324,154.748z M50.614,81.984
	c0.864,5.028,3.684,9.373,7.677,12.226l-4.435,19.225L39.063,87.544C42.666,85.275,46.531,83.409,50.614,81.984L50.614,81.984z
	 M69.283,78.779c3.214,0,6.343,0.333,9.411,0.845c-0.437,4.838-4.463,8.651-9.411,8.651c-4.947,0-8.974-3.813-9.41-8.651
	C62.94,79.112,66.069,78.779,69.283,78.779z M99.505,87.544L84.71,113.436L80.275,94.21c3.993-2.854,6.813-7.198,7.678-12.226
	C92.036,83.409,95.9,85.275,99.505,87.544L99.505,87.544z M67.266,97.567c0.669,0.071,1.325,0.204,2.018,0.204
	c0.693,0,1.349-0.133,2.018-0.204l6.462,28.018l-8.48,14.847l-8.485-14.847L67.266,97.567z M40.795,40.795
	c0-15.711,12.777-28.488,28.488-28.488c15.711,0,28.488,12.777,28.488,28.488c0,15.711-12.777,28.488-28.488,28.488
	C53.572,69.283,40.795,56.506,40.795,40.795z M12.307,135.755c0-16.874,7.417-32.011,19.111-42.451l29.685,51.948H12.307V135.755z
	 M40.795,183.236c0-15.711,12.777-28.488,28.488-28.488c15.711,0,28.488,12.777,28.488,28.488s-12.777,28.488-28.488,28.488
	C53.572,211.725,40.795,198.947,40.795,183.236z M93.812,216.473h6.699c5.788,0,10.954,3.451,13.271,9.041
	c0.583,1.4,0.859,2.867,0.982,4.338C108.725,224.168,101.646,219.596,93.812,216.473z M50.614,224.426
	c0.864,5.027,3.684,9.371,7.677,12.227l-4.435,19.223l-14.794-25.891C42.666,227.715,46.531,225.85,50.614,224.426z M69.283,221.221
	c3.214,0,6.343,0.332,9.411,0.844c-0.437,4.84-4.463,8.652-9.411,8.652c-4.947,0-8.974-3.813-9.41-8.652
	C62.94,221.553,66.069,221.221,69.283,221.221z M67.266,240.008c0.669,0.072,1.325,0.205,2.018,0.205
	c0.693,0,1.349-0.133,2.018-0.205l6.462,28.02l-8.48,14.846l-8.485-14.846L67.266,240.008z M84.71,255.875l-4.435-19.223
	c3.993-2.855,6.813-7.199,7.678-12.227c4.083,1.424,7.948,3.289,11.552,5.559L84.71,255.875z M12.307,278.195
	c0-16.873,7.417-32.01,19.111-42.451l29.685,51.949H12.307V278.195z M126.26,287.693H77.464l29.684-51.949
	c11.695,10.441,19.111,25.578,19.111,42.451V287.693z M287.693,206.977h-2.74c-9.639,0-18.252,5.754-22.035,14.875
	c-3.742,8.959-1.742,19.168,5.098,26.006l1.947,1.947l-20.158,20.158l-1.947-1.947c-6.842-6.84-17.051-8.844-26.225-5.004
	c-8.902,3.689-14.656,12.303-14.656,21.941v2.74h-28.488v-2.74c0-9.639-5.754-18.252-14.877-22.035
	c-8.969-3.742-19.172-1.742-26.003,5.098l-1.947,1.947l-0.556-0.555c-1.49-11.211-5.773-21.523-12.14-30.256
	c2.018-5.582,1.894-11.764-0.508-17.514c-3.693-8.908-12.307-14.662-21.945-14.662h-1.624c5.232-6.51,8.38-14.762,8.38-23.74
	c0-1.928-0.19-3.809-0.47-5.66c6.96-1.932,12.839-6.951,15.75-13.969c1.192-2.848,1.737-5.844,1.78-8.859h11.428v-18.993
	c0-6.186-0.916-12.154-2.501-17.848l2.407-2.407l1.947,1.946c6.837,6.837,17.041,8.841,26.224,5.005
	c8.902-3.689,14.656-12.302,14.656-21.941v-2.74h28.488v2.74c0,9.639,5.754,18.251,14.875,22.036
	c8.965,3.737,19.168,1.742,26.006-5.1l1.947-1.946l20.158,20.16l-1.947,1.947c-6.836,6.837-8.84,17.044-5.004,26.222
	c3.689,8.902,12.303,14.658,21.941,14.658h2.74V206.977z M241.332,88.276c4.047,0,7.688-2.251,9.496-5.869l6.563-13.124h11.311
	c5.236,0,9.494-4.259,9.494-9.496v-47.48c0-5.237-4.258-9.496-9.494-9.496h-85.465c-5.238,0-9.496,4.259-9.496,9.496v47.48
	c0,5.237,4.258,9.496,9.496,9.496h47.48v8.375C230.717,83.513,235.479,88.276,241.332,88.276z M183.236,59.787l-0.004-47.48h0.004
	h85.465v47.48h-17.18l-9.182,18.37c-0.467,0.931-2.127,0.542-2.127-0.499V59.787H183.236z M249.709,40.795h-9.496v-9.497h9.496
	V40.795z M221.221,31.299h9.496v9.497h-9.496V31.299z M202.229,31.299h9.496v9.497h-9.496V31.299z"/>
</svg>
