<?xml version="1.0" encoding="utf-8"?>
<!-- Generator: Adobe Illustrator 16.0.0, SVG Export Plug-In . SVG Version: 6.00 Build 0)  -->
<!DOCTYPE svg PUBLIC "-//W3C//DTD SVG 1.1//EN" "http://www.w3.org/Graphics/SVG/1.1/DTD/svg11.dtd">
<svg version="1.1" id="Layer_1" xmlns="http://www.w3.org/2000/svg" xmlns:xlink="http://www.w3.org/1999/xlink" x="0px" y="0px"
	 width="300px" height="300px" viewBox="0 0 300 300" enable-background="new 0 0 300 300" xml:space="preserve">
<g>
	
		<linearGradient id="SVGID_1_" gradientUnits="userSpaceOnUse" x1="306" y1="-255.353" x2="306" y2="90.1426" gradientTransform="matrix(1 0 0 -1 -156 55)">
		<stop  offset="0" style="stop-color:#3F6DB5"/>
		<stop  offset="1" style="stop-color:#5EC8DA"/>
	</linearGradient>
	<path fill="url(#SVGID_1_)" d="M296.238,65.823c-0.026-0.431-0.111-0.86-0.254-1.267c-0.053-0.159-0.094-0.311-0.161-0.465
		c-0.241-0.537-0.575-1.026-0.987-1.445l-59.2-59.2c-0.419-0.415-0.91-0.749-1.45-0.988c-0.146-0.067-0.297-0.108-0.447-0.161
		c-0.42-0.145-0.854-0.231-1.294-0.258C232.359,2.056,232.271,2,232.167,2h-148C70.552,2.017,59.518,13.049,59.5,26.667v36.309
		C25.585,77.932,3.699,111.501,3.699,148.569c0,37.068,21.886,70.637,55.801,85.594v39.17c0.018,13.618,11.052,24.649,24.667,24.667
		h187.467c13.617-0.018,24.651-11.049,24.667-24.667v-207.2C296.301,66.025,296.248,65.931,296.238,65.823z M279.457,61.2h-37.423
		c-2.725,0-4.934-2.209-4.934-4.933V18.842L279.457,61.2z M13.67,148.569c-0.029-22.252,8.796-43.6,24.531-59.334
		C53.936,73.5,75.286,64.673,97.537,64.702c2.803,0,5.585,0.137,8.332,0.405c38.146,3.77,68.847,32.989,74.499,70.901
		c0.655,4.156,1,8.355,1.031,12.56c0.036,15.799-4.431,31.282-12.871,44.637c-6.694,10.671-15.716,19.689-26.389,26.379
		c-25.844,16.231-58.465,17.142-85.174,2.375C30.254,207.195,13.675,179.087,13.67,148.569z M154.833,222.678
		c0.675-0.523,1.342-1.041,2.002-1.578c2.435-1.961,4.768-4.045,6.99-6.241c2.197-2.224,4.281-4.553,6.241-6.986
		c0.537-0.659,1.056-1.332,1.579-2.006c0.597-0.78,1.244-1.52,1.815-2.315l42.056,42.107c2.785,2.758,4.353,6.517,4.353,10.435
		c0,3.922-1.567,7.678-4.353,10.438c-5.824,5.63-15.063,5.63-20.887,0l-42.111-42.037
		C153.314,223.915,154.059,223.274,154.833,222.678z M271.634,288.133H84.167c-8.173,0-14.8-6.626-14.8-14.8v-35.318
		c0.306,0.099,0.626,0.164,0.936,0.258c0.791,0.24,1.591,0.435,2.39,0.655c1.846,0.494,3.705,0.987,5.584,1.355
		c0.923,0.194,1.846,0.371,2.777,0.535c1.879,0.331,3.775,0.591,5.678,0.811c0.851,0.096,1.689,0.216,2.542,0.288
		c2.733,0.233,5.484,0.386,8.262,0.386c16.307,0.011,32.331-4.257,46.468-12.382l43.62,43.577c6.121,6.698,15.429,9.497,24.228,7.28
		c8.802-2.214,15.677-9.081,17.898-17.88c2.223-8.8-0.565-18.109-7.264-24.235l-43.6-43.627
		c8.126-14.139,12.396-30.161,12.381-46.467c0-3.124-0.148-6.224-0.451-9.297c-2.105-21.555-11.647-41.702-26.987-56.987
		c-17.544-17.637-41.416-27.521-66.293-27.449c-2.778,0-5.529,0.154-8.262,0.385c-0.853,0.075-1.698,0.193-2.546,0.292
		c-1.899,0.212-3.785,0.482-5.664,0.809c-0.937,0.165-1.872,0.342-2.802,0.538c-1.854,0.385-3.695,0.838-5.52,1.342
		c-0.819,0.222-1.638,0.419-2.467,0.665c-0.306,0.093-0.617,0.158-0.923,0.257V26.667c0-8.173,6.628-14.8,14.8-14.8h143.081v44.4
		c0,8.173,6.627,14.799,14.801,14.799h44.399v202.267C286.434,281.507,279.81,288.133,271.634,288.133z"/>
	
		<linearGradient id="SVGID_2_" gradientUnits="userSpaceOnUse" x1="304.3008" y1="-255.3545" x2="304.3008" y2="90.1428" gradientTransform="matrix(1 0 0 -1 -156 55)">
		<stop  offset="0" style="stop-color:#3F6DB5"/>
		<stop  offset="1" style="stop-color:#5EC8DA"/>
	</linearGradient>
	<path fill="url(#SVGID_2_)" d="M207.5,36.533c0-2.725-2.209-4.933-4.934-4.933H94.034c-2.725,0-4.934,2.208-4.934,4.933
		s2.209,4.934,4.934,4.934h108.532C205.291,41.467,207.5,39.258,207.5,36.533z"/>
	
		<linearGradient id="SVGID_3_" gradientUnits="userSpaceOnUse" x1="388.168" y1="-255.354" x2="388.168" y2="90.1433" gradientTransform="matrix(1 0 0 -1 -156 55)">
		<stop  offset="0" style="stop-color:#3F6DB5"/>
		<stop  offset="1" style="stop-color:#5EC8DA"/>
	</linearGradient>
	<path fill="url(#SVGID_3_)" d="M261.767,120.4h-59.2c-2.725,0-4.933,2.208-4.933,4.933c0,2.724,2.208,4.934,4.933,4.934h59.2
		c2.725,0,4.934-2.209,4.934-4.934C266.7,122.609,264.491,120.4,261.767,120.4z"/>
	
		<linearGradient id="SVGID_4_" gradientUnits="userSpaceOnUse" x1="388.168" y1="-255.3535" x2="388.168" y2="90.1438" gradientTransform="matrix(1 0 0 -1 -156 55)">
		<stop  offset="0" style="stop-color:#3F6DB5"/>
		<stop  offset="1" style="stop-color:#5EC8DA"/>
	</linearGradient>
	<path fill="url(#SVGID_4_)" d="M261.767,150h-59.2c-2.725,0-4.933,2.209-4.933,4.934s2.208,4.934,4.933,4.934h59.2
		c2.725,0,4.934-2.209,4.934-4.934S264.491,150,261.767,150z"/>
	
		<linearGradient id="SVGID_5_" gradientUnits="userSpaceOnUse" x1="385.7012" y1="-255.3345" x2="385.7012" y2="90.1115" gradientTransform="matrix(1 0 0 -1 -156 55)">
		<stop  offset="0" style="stop-color:#3F6DB5"/>
		<stop  offset="1" style="stop-color:#5EC8DA"/>
	</linearGradient>
	<path fill="url(#SVGID_5_)" d="M266.7,184.534c0-2.725-2.209-4.934-4.934-4.934h-64.133c-2.725,0-4.934,2.209-4.934,4.934
		c0,2.723,2.209,4.932,4.934,4.932h64.133C264.491,189.466,266.7,187.257,266.7,184.534z"/>
	
		<linearGradient id="SVGID_6_" gradientUnits="userSpaceOnUse" x1="395.5684" y1="-255.3481" x2="395.5684" y2="90.132" gradientTransform="matrix(1 0 0 -1 -156 55)">
		<stop  offset="0" style="stop-color:#3F6DB5"/>
		<stop  offset="1" style="stop-color:#5EC8DA"/>
	</linearGradient>
	<path fill="url(#SVGID_6_)" d="M266.7,214.133c0-2.725-2.209-4.933-4.934-4.933h-44.399c-2.725,0-4.934,2.208-4.934,4.933
		s2.209,4.934,4.934,4.934h44.399C264.491,219.066,266.7,216.857,266.7,214.133z"/>
	
		<linearGradient id="SVGID_7_" gradientUnits="userSpaceOnUse" x1="338.834" y1="-255.354" x2="338.834" y2="90.1433" gradientTransform="matrix(1 0 0 -1 -156 55)">
		<stop  offset="0" style="stop-color:#3F6DB5"/>
		<stop  offset="1" style="stop-color:#5EC8DA"/>
	</linearGradient>
	<path fill="url(#SVGID_7_)" d="M207.5,66.133c0-2.725-2.209-4.934-4.934-4.934h-39.466c-2.725,0-4.934,2.209-4.934,4.934
		s2.209,4.933,4.934,4.933h39.466C205.291,71.066,207.5,68.858,207.5,66.133z"/>
	
		<linearGradient id="SVGID_8_" gradientUnits="userSpaceOnUse" x1="380.7676" y1="-255.3369" x2="380.7676" y2="90.1328" gradientTransform="matrix(1 0 0 -1 -156 55)">
		<stop  offset="0" style="stop-color:#3F6DB5"/>
		<stop  offset="1" style="stop-color:#5EC8DA"/>
	</linearGradient>
	<path fill="url(#SVGID_8_)" d="M266.7,95.733c0-2.724-2.209-4.933-4.934-4.933h-74c-2.724,0-4.934,2.209-4.934,4.933
		c0,2.725,2.21,4.934,4.934,4.934h74C264.491,100.667,266.7,98.458,266.7,95.733z"/>
	<g>
		
			<linearGradient id="SVGID_9_" gradientUnits="userSpaceOnUse" x1="252.5" y1="-255.354" x2="252.5" y2="90.1433" gradientTransform="matrix(1 0 0 -1 -156 55)">
			<stop  offset="0" style="stop-color:#3F6DB5"/>
			<stop  offset="1" style="stop-color:#5EC8DA"/>
		</linearGradient>
		<path fill="url(#SVGID_9_)" d="M79.234,125.333h34.533c2.725,0,4.933-2.209,4.933-4.933c0-2.725-2.208-4.934-4.933-4.934H79.234
			c-2.725,0-4.934,2.209-4.934,4.934C74.3,123.125,76.509,125.333,79.234,125.333z"/>
		
			<linearGradient id="SVGID_10_" gradientUnits="userSpaceOnUse" x1="252.5" y1="-255.3535" x2="252.5" y2="90.1438" gradientTransform="matrix(1 0 0 -1 -156 55)">
			<stop  offset="0" style="stop-color:#3F6DB5"/>
			<stop  offset="1" style="stop-color:#5EC8DA"/>
		</linearGradient>
		<path fill="url(#SVGID_10_)" d="M138.434,150c0-2.725-2.209-4.934-4.934-4.934h-74c-2.725,0-4.933,2.209-4.933,4.934
			s2.208,4.934,4.933,4.934h74C136.225,154.934,138.434,152.725,138.434,150z"/>
		
			<linearGradient id="SVGID_11_" gradientUnits="userSpaceOnUse" x1="252.5" y1="-255.3604" x2="252.5" y2="90.1541" gradientTransform="matrix(1 0 0 -1 -156 55)">
			<stop  offset="0" style="stop-color:#3F6DB5"/>
			<stop  offset="1" style="stop-color:#5EC8DA"/>
		</linearGradient>
		<path fill="url(#SVGID_11_)" d="M113.767,174.667H79.234c-2.725,0-4.934,2.209-4.934,4.934c0,2.724,2.209,4.934,4.934,4.934
			h34.533c2.725,0,4.933-2.21,4.933-4.934C118.7,176.876,116.491,174.667,113.767,174.667z"/>
	</g>
	
		<linearGradient id="SVGID_12_" gradientUnits="userSpaceOnUse" x1="253.502" y1="-255.3535" x2="253.5019" y2="90.1434" gradientTransform="matrix(1 0 0 -1 -156 55)">
		<stop  offset="0" style="stop-color:#3F6DB5"/>
		<stop  offset="1" style="stop-color:#5EC8DA"/>
	</linearGradient>
	<path fill="url(#SVGID_12_)" d="M132.652,213.64c12.032-6.408,22.01-16.086,28.781-27.916c0.39-0.682,0.814-1.342,1.18-2.034
		c0.19-0.355,0.34-0.724,0.523-1.081c0.749-1.44,1.479-2.881,2.124-4.355c0.648-1.473,1.156-2.875,1.685-4.326
		c0.151-0.418,0.345-0.828,0.493-1.253c12.545-36.481-5.04-76.482-40.401-91.902c-35.364-15.419-76.64-1.081-94.831,32.939
		c-5.727,10.717-8.708,22.687-8.68,34.84c-0.046,26.073,13.649,50.241,36.039,63.6c22.391,13.363,50.162,13.938,73.087,1.519V213.64
		z M66.792,204.85c-5.37-2.927-10.289-6.611-14.608-10.943c-2.997-2.994-5.691-6.273-8.05-9.792
		c-1.167-1.744-2.238-3.533-3.223-5.371c-14.849-28.038-6.981-62.718,18.511-81.601c25.494-18.883,60.961-16.301,83.452,6.075
		c19.92,20.107,24.399,50.853,11.051,75.809v0.041c-5.883,11.007-14.901,20.019-25.911,25.896
		c-19.097,10.375-42.157,10.339-61.222-0.094V204.85z"/>
	
		<linearGradient id="SVGID_13_" gradientUnits="userSpaceOnUse" x1="412.834" y1="-255.3535" x2="412.834" y2="90.1464" gradientTransform="matrix(1 0 0 -1 -156 55)">
		<stop  offset="0" style="stop-color:#3F6DB5"/>
		<stop  offset="1" style="stop-color:#5EC8DA"/>
	</linearGradient>
	<path fill="url(#SVGID_13_)" d="M271.634,238.8c-2.725,0-4.934,2.209-4.934,4.934v19.732c0,2.725-2.209,4.934-4.934,4.934h-19.732
		c-2.725,0-4.934,2.209-4.934,4.934s2.209,4.934,4.934,4.934h19.732c8.176,0,14.8-6.627,14.8-14.801v-19.732
		C276.566,241.009,274.357,238.8,271.634,238.8z"/>
</g>
</svg>
