<svg version="1.1" id="Layer_1" xmlns="http://www.w3.org/2000/svg" xmlns:xlink="http://www.w3.org/1999/xlink" x="0px" y="0px" viewBox="0 0 512 512" style="enable-background:new 0 0 512 512;" xml:space="preserve">
<g>
	<path style="fill:none;stroke:#000000;stroke-width:20;stroke-linecap:round;stroke-linejoin:round;stroke-miterlimit:10;" d="&#10;&#9;&#9;M339.541,351.53h-22.618l15.993-15.993c4.982-4.983,4.982-13.061,0-18.043l-18.043-18.043c-4.982-4.982-13.061-4.982-18.043,0&#10;&#9;&#9;l-15.993,15.993v-22.618c0-7.046-5.712-12.758-12.758-12.758h-25.517c-7.046,0-12.758,5.712-12.758,12.758v22.618L213.81,299.45&#10;&#9;&#9;c-4.983-4.982-13.061-4.982-18.043,0l-18.043,18.043c-4.982,4.982-4.982,13.061,0,18.043l15.993,15.993h-22.618&#10;&#9;&#9;c-7.046,0-12.758,5.712-12.758,12.758v25.517c0,7.046,5.712,12.758,12.758,12.758h22.618l-15.993,15.993&#10;&#9;&#9;c-4.982,4.983-4.982,13.061,0,18.043l18.043,18.043c4.982,4.982,13.061,4.982,18.043,0l15.993-15.993v22.618&#10;&#9;&#9;c0,7.046,5.712,12.758,12.758,12.758h25.517c7.046,0,12.758-5.712,12.758-12.758V438.65l15.993,15.993&#10;&#9;&#9;c4.983,4.982,13.061,4.982,18.043,0l18.043-18.043c4.982-4.982,4.982-13.061,0-18.043l-15.993-15.993h22.618&#10;&#9;&#9;c7.046,0,12.758-5.712,12.758-12.758v-25.517C352.299,357.242,346.587,351.53,339.541,351.53z"/>
	
		<circle style="fill:none;stroke:#000000;stroke-width:20;stroke-linecap:round;stroke-linejoin:round;stroke-miterlimit:10;" cx="255.32" cy="377.047" r="25.463"/>
	<path style="fill:none;stroke:#000000;stroke-width:20;stroke-linecap:round;stroke-linejoin:round;stroke-miterlimit:10;" d="&#10;&#9;&#9;M171.341,172.339H35c-13.807,0-25-11.193-25-25V62.974c0-13.807,11.193-25,25-25h136.341c13.807,0,25,11.193,25,25v84.365&#10;&#9;&#9;C196.341,161.146,185.148,172.339,171.341,172.339z"/>
	
		<line style="fill:none;stroke:#000000;stroke-width:20;stroke-linecap:round;stroke-linejoin:round;stroke-miterlimit:10;" x1="190.129" y1="130.177" x2="16.212" y2="130.177"/>
	
		<rect x="74.418" y="172.339" style="fill:none;stroke:#000000;stroke-width:20;stroke-linecap:round;stroke-linejoin:round;stroke-miterlimit:10;" width="57.505" height="47.818"/>
	
		<line style="fill:none;stroke:#000000;stroke-width:20;stroke-linecap:round;stroke-linejoin:round;stroke-miterlimit:10;" x1="149.212" y1="220.157" x2="57.129" y2="220.157"/>
	<path style="fill:none;stroke:#000000;stroke-width:20;stroke-linecap:round;stroke-linejoin:round;stroke-miterlimit:10;" d="&#10;&#9;&#9;M452.197,37.974H477c13.807,0,25,11.193,25,25v84.365c0,13.807-11.193,25-25,25H340.659c-13.807,0-25-11.193-25-25V62.974&#10;&#9;&#9;c0-13.807,11.193-25,25-25h20.418"/>
	
		<line style="fill:none;stroke:#000000;stroke-width:20;stroke-linecap:round;stroke-linejoin:round;stroke-miterlimit:10;" x1="495.788" y1="130.177" x2="321.871" y2="130.177"/>
	
		<rect x="380.077" y="172.339" style="fill:none;stroke:#000000;stroke-width:20;stroke-linecap:round;stroke-linejoin:round;stroke-miterlimit:10;" width="57.505" height="47.818"/>
	
		<line style="fill:none;stroke:#000000;stroke-width:20;stroke-linecap:round;stroke-linejoin:round;stroke-miterlimit:10;" x1="454.871" y1="220.157" x2="362.788" y2="220.157"/>
	<path style="fill:none;stroke:#000000;stroke-width:20;stroke-linecap:round;stroke-linejoin:round;stroke-miterlimit:10;" d="&#10;&#9;&#9;M104.084,223.151V356.95c0,11.099,8.998,20.097,20.097,20.097h31.032"/>
	<path style="fill:none;stroke:#000000;stroke-width:20;stroke-linecap:round;stroke-linejoin:round;stroke-miterlimit:10;" d="&#10;&#9;&#9;M406.556,223.151V356.95c0,11.099-8.998,20.097-20.097,20.097h-31.032"/>
	
		<line style="fill:none;stroke:#000000;stroke-width:20;stroke-linecap:round;stroke-linejoin:round;stroke-miterlimit:10;" x1="406.556" y1="37.974" x2="406.556" y2="37.974"/>
</g>
<g>
</g>
<g>
</g>
<g>
</g>
<g>
</g>
<g>
</g>
<g>
</g>
<g>
</g>
<g>
</g>
<g>
</g>
<g>
</g>
<g>
</g>
<g>
</g>
<g>
</g>
<g>
</g>
<g>
</g>
</svg>