<?xml version="1.0" encoding="utf-8"?>
<!-- Generator: Adobe Illustrator 16.0.0, SVG Export Plug-In . SVG Version: 6.00 Build 0)  -->
<!DOCTYPE svg PUBLIC "-//W3C//DTD SVG 1.1//EN" "http://www.w3.org/Graphics/SVG/1.1/DTD/svg11.dtd">
<svg version="1.1" id="Layer_1" xmlns="http://www.w3.org/2000/svg" xmlns:xlink="http://www.w3.org/1999/xlink" x="0px" y="0px"
	 width="300px" height="300px" viewBox="0 0 300 300" enable-background="new 0 0 300 300" xml:space="preserve">
<linearGradient id="SVGID_1_" gradientUnits="userSpaceOnUse" x1="37.9336" y1="235.2061" x2="37.9336" y2="271.1299" gradientTransform="matrix(8.2581 0 0 -8.2581 -163.2578 2240.6797)">
	<stop  offset="0" style="stop-color:#000000"/>
	<stop  offset="1" style="stop-color:#000000"/>
</linearGradient>
<path fill="url(#SVGID_1_)" d="M30.166,241.627l-10.307,56.706h73.669l-10.221-56.224l6.35-8.47
	c2.675-3.568,4.642-7.611,5.943-11.865h30.476v-66.989h-9.57c-5.277,0-9.57-4.292-9.57-9.57c0-5.278,4.293-9.57,9.57-9.57h9.57
	v-28.71h28.709v-9.569c0-5.277,4.293-9.57,9.57-9.57s9.569,4.293,9.569,9.57v9.569h28.71v19.141c-10.557,0-19.14,8.584-19.14,19.14
	c0,10.555,8.583,19.14,19.14,19.14v47.849H178.71c-7.914,0-14.354,6.441-14.354,14.354c0,3.689,1.439,7.025,3.73,9.571
	c-2.295,2.545-3.73,5.879-3.73,9.568s1.439,7.024,3.73,9.57c-2.295,2.545-3.73,5.88-3.73,9.569c0,7.914,6.44,14.355,14.354,14.355
	h1.33c4.211,11.388,15,19.14,27.379,19.14c12.384,0,23.174-7.757,27.384-19.14h1.327c7.912,0,14.354-6.441,14.354-14.355
	c0-3.689-1.439-7.024-3.731-9.569c2.297-2.546,3.731-5.881,3.731-9.57s-1.439-7.023-3.731-9.568
	c2.297-2.546,3.731-5.882,3.731-9.571c0-5.604-3.259-10.416-7.951-12.78c9.144-23.235,20.934-45.414,35.159-65.96l6.177-8.924
	c9.459-13.67,14.465-29.686,14.465-46.313c0-50.132-40.782-90.914-90.914-90.914s-90.914,40.782-90.914,90.914v4.785h-19.14
	c0-10.556-8.584-19.14-19.14-19.14c-10.556,0-19.14,8.584-19.14,19.14H30.376v37.217c-2.478-5.091-7.631-8.507-13.565-8.507
	c-8.35,0-15.144,6.794-15.144,15.148c0,28.394,6.708,56.827,19.413,82.22L30.166,241.627z M31.324,288.763l7.833-43.064H74.23
	l7.833,43.064H31.324z M178.71,221.774h57.42c2.64,0,4.784,2.146,4.784,4.784c0,2.637-2.145,4.785-4.784,4.785h-57.42
	c-2.642,0-4.785-2.148-4.785-4.785C173.925,223.921,176.068,221.774,178.71,221.774z M240.914,245.698
	c0,2.638-2.145,4.785-4.784,4.785h-57.42c-2.642,0-4.785-2.147-4.785-4.785c0-2.636,2.144-4.784,4.785-4.784h57.42
	C238.77,240.914,240.914,243.063,240.914,245.698z M207.419,288.763c-7.067,0-13.363-3.757-16.857-9.569h33.721
	C220.789,285.002,214.486,288.763,207.419,288.763L207.419,288.763z M236.13,269.623h-57.42c-2.642,0-4.785-2.148-4.785-4.785
	c0-2.635,2.144-4.784,4.785-4.784h57.42c2.64,0,4.784,2.149,4.784,4.784C240.914,267.475,238.77,269.623,236.13,269.623z
	 M275.996,133.454l-6.177,8.918c-15.033,21.724-27.436,45.209-36.954,69.832h-20.662v-57.419h-9.568c-5.278,0-9.57-4.292-9.57-9.57
	c0-5.278,4.292-9.57,9.57-9.57h9.568v-28.71h19.141c0,10.556,8.585,19.141,19.14,19.141c10.556,0,19.14-8.585,19.14-19.141h17.7
	C285.403,116.396,281.582,125.381,275.996,133.454z M288.763,92.581c0,1.603-0.053,3.196-0.158,4.785h-28.551v9.569
	c0,5.278-4.293,9.57-9.57,9.57s-9.569-4.292-9.569-9.57v-9.569h-28.711v-19.14c10.557,0,19.141-8.584,19.141-19.14
	c0-10.555-8.584-19.14-19.141-19.14V11.481C254.829,13.979,288.763,49.344,288.763,92.581z M126.076,92.581
	c0-43.237,33.934-78.603,76.559-81.1v38.035h9.568c5.278,0,9.571,4.293,9.571,9.57c0,5.278-4.293,9.57-9.571,9.57h-9.568v28.71
	h-19.14c0-10.556-8.584-19.14-19.14-19.14c-10.557,0-19.14,8.584-19.14,19.14h-19.14V92.581z M68.656,106.935v-9.569
	c0-5.277,4.293-9.57,9.57-9.57c5.278,0,9.569,4.293,9.569,9.57v9.569h28.71v19.141c-10.556,0-19.14,8.584-19.14,19.14
	c0,10.555,8.584,19.14,19.14,19.14v47.849H97.227c0.029-0.56,0.139-1.115,0.139-1.68c0-9.335-3.388-18.341-9.531-25.369
	L65.636,159.79c-2.785-3.183-6.804-5.005-11.034-5.005c-5.67,0-10.546,3.271-12.981,7.995c-0.574-0.818-1.144-1.646-1.675-2.492
	v-53.353H68.656z M16.811,135.645c2.737,0,5.058,1.962,5.503,4.661c2.35,14.11,8.938,26.91,19.048,37.021l0.115,0.114
	c0.201,0.426,0.311,0.886,0.555,1.292l12.948,21.58l8.207-4.924l-12.948-21.575c-0.468-0.795-0.723-1.703-0.723-2.627v-1.746
	c0-2.805,2.287-5.086,5.086-5.086c1.469,0,2.867,0.631,3.828,1.735l22.197,25.365c4.622,5.283,7.167,12.054,7.167,19.068
	c0,6.22-2.057,12.393-5.79,17.374l-6.172,8.231H38.119l-8.483-16.964c-12.035-24.072-18.398-51.021-18.398-77.942
	C11.237,138.148,13.735,135.645,16.811,135.645L16.811,135.645z M25.592,49.516c7.914,0,14.354-6.44,14.354-14.354
	c0-7.915-6.44-14.355-14.354-14.355s-14.355,6.44-14.355,14.355C11.237,43.076,17.678,49.516,25.592,49.516z M25.592,30.376
	c2.641,0,4.785,2.148,4.785,4.785c0,2.636-2.144,4.785-4.785,4.785c-2.642,0-4.785-2.148-4.785-4.785
	C20.807,32.525,22.95,30.376,25.592,30.376z M63.872,49.516c7.914,0,14.354-6.44,14.354-14.354c0-7.915-6.441-14.355-14.354-14.355
	c-7.915,0-14.355,6.44-14.355,14.355C49.516,43.076,55.957,49.516,63.872,49.516z M63.872,30.376c2.641,0,4.784,2.148,4.784,4.785
	c0,2.636-2.144,4.785-4.784,4.785c-2.642,0-4.786-2.148-4.786-4.785C59.086,32.525,61.23,30.376,63.872,30.376z M102.151,49.516
	c7.914,0,14.354-6.44,14.354-14.354c0-7.915-6.44-14.355-14.354-14.355c-7.915,0-14.355,6.44-14.355,14.355
	C87.795,43.076,94.236,49.516,102.151,49.516z M102.151,30.376c2.641,0,4.784,2.148,4.784,4.785c0,2.636-2.143,4.785-4.784,4.785
	c-2.642,0-4.785-2.148-4.785-4.785C97.366,32.525,99.509,30.376,102.151,30.376z"/>
</svg>
