<?xml version="1.0" encoding="utf-8"?>
<!-- Generator: Adobe Illustrator 16.0.0, SVG Export Plug-In . SVG Version: 6.00 Build 0)  -->
<!DOCTYPE svg PUBLIC "-//W3C//DTD SVG 1.1//EN" "http://www.w3.org/Graphics/SVG/1.1/DTD/svg11.dtd">
<svg version="1.1" id="Layer_1" xmlns="http://www.w3.org/2000/svg" xmlns:xlink="http://www.w3.org/1999/xlink" x="0px" y="0px"
	 width="512px" height="512px" viewBox="0 0 512 512" enable-background="new 0 0 512 512" xml:space="preserve">
<g>
	<linearGradient id="SVGID_1_" gradientUnits="userSpaceOnUse" x1="186.0518" y1="471.5791" x2="186.0517" y2="39.091">
		<stop  offset="0" style="stop-color:#000000"/>
		<stop  offset="1" style="stop-color:#000000"/>
	</linearGradient>
	<path fill="url(#SVGID_1_)" d="M180.865,388.725c-21.896,5.698-18.297,38.992,5.099,38.992c7.198,0,13.797-3.899,17.097-9.897
		C212.059,402.822,197.662,384.225,180.865,388.725z M186.863,411.819c-5.098,1.199-6.898-7.798-0.899-7.798
		C190.463,404.021,191.363,410.62,186.863,411.819z"/>
	<linearGradient id="SVGID_2_" gradientUnits="userSpaceOnUse" x1="255.8877" y1="471.5791" x2="255.8877" y2="39.0909">
		<stop  offset="0" style="stop-color:#000000"/>
		<stop  offset="1" style="stop-color:#000000"/>
	</linearGradient>
	<path fill="url(#SVGID_2_)" d="M503.901,459.811h-82.185l15.598-59.089c2.099-6.898-3.9-9.298-9.299-10.798
		c78.585-96.881,68.986-149.071,52.189-241.753c-3.298-17.097-6.598-36.293-9.897-57.289c-0.899-7.198-4.8-13.197-10.498-17.396
		c-18.296-13.797-45.291,2.1-41.691,25.195l12.598,83.983c-20.096-7.798-43.192,3.9-48.591,24.596
		c-17.396,64.488-30.893,98.081-70.486,151.771c-6.299-1.799-17.697-6.899-20.396,2.7l-26.095,98.08h-18.297l-26.095-98.08
		c-2.699-9.599-14.097-4.499-20.396-2.7c-39.592-53.69-53.089-87.283-70.486-151.771c-5.399-20.697-28.494-32.394-48.59-24.596
		L93.882,98.68c2.099-14.097-7.799-27.595-22.196-30.294c-14.097-2.099-27.895,8.399-30.294,22.496
		c-2.999,20.996-6.599,40.192-9.598,57.289c-16.797,92.682-26.395,144.872,52.19,241.753c-5.399,1.5-11.397,3.9-9.598,10.798
		l15.897,59.089H8.099c-10.498,0-10.498,15.896,0,15.896h495.802C514.099,475.707,514.099,459.811,503.901,459.811z M47.391,150.872
		c3.299-17.097,6.899-36.593,9.898-57.889c2.099-13.798,22.796-9.898,20.696,3.299l-15.297,102.58
		c-4.8,8.398-5.999,17.996-3.6,27.294l18.597,68.686c2.699,9.899,17.996,5.699,15.297-4.199l-18.296-68.686
		c-1.5-5.099-0.6-10.798,2.1-15.597c8.998-15.597,32.993-12.597,37.792,5.099c16.496,61.788,30.294,98.081,68.986,151.77
		l-82.484,22.197C22.196,290.645,30.595,243.554,47.391,150.872z M106.779,459.811l-14.697-55.488l7.798-2.101
		c32.994-8.099,65.688-17.998,98.981-26.396c0.3,0,0.3,0,0.6,0l7.799-2.1l23.095,86.084H106.779z M397.423,211.458
		c1.499-5.399,4.799-9.898,9.599-12.597c15.597-8.999,34.793,5.998,30.294,23.095l-18.296,68.687
		c-2.7,9.897,12.597,14.096,15.297,3.899l18.296-68.387c2.7-9.298,1.2-18.896-3.3-27.294L433.716,96.28
		c-2.1-13.497,18.896-16.797,20.696-3.299c3.299,21.296,6.897,40.792,9.897,57.889c16.798,92.681,25.495,139.772-53.39,234.554
		l-82.784-22.196C367.128,309.539,380.926,273.246,397.423,211.458z M404.921,459.81H281.645l23.097-86.084l8.397,2.101
		l106.779,28.495L404.921,459.81z"/>
	<linearGradient id="SVGID_3_" gradientUnits="userSpaceOnUse" x1="325.916" y1="471.5791" x2="325.916" y2="39.091">
		<stop  offset="0" style="stop-color:#000000"/>
		<stop  offset="1" style="stop-color:#000000"/>
	</linearGradient>
	<path fill="url(#SVGID_3_)" d="M306.84,402.821c-3.6,12.598,6.299,24.896,19.196,24.896c14.997,0,24.596-16.797,17.097-29.694
		C334.436,383.025,311.339,385.724,306.84,402.821z M326.036,404.021c5.698,0,4.198,8.998-1.199,7.798
		C320.639,410.62,321.537,404.021,326.036,404.021z"/>
</g>
<linearGradient id="SVGID_4_" gradientUnits="userSpaceOnUse" x1="255.8496" y1="229.5" x2="255.8496" y2="41.4335">
	<stop  offset="0" style="stop-color:#000000"/>
	<stop  offset="1" style="stop-color:#000000"/>
</linearGradient>
<path fill="url(#SVGID_4_)" d="M341.032,104.079l-17.097-2.399c-0.299-0.899-0.6-1.799-0.899-2.399l10.498-14.097
	c2.399-2.999,2.1-7.499-0.9-10.498L309.538,51.59c-2.999-2.7-7.198-3-10.498-0.6l-14.097,10.498c-0.602-0.6-1.5-0.9-2.101-1.2
	l-2.698-17.097c-0.301-3.898-3.9-6.898-7.8-6.898h-32.693c-4.2,0-7.499,2.999-8.099,6.898l-2.399,17.097
	c-0.899,0.301-1.499,0.6-2.399,1.2L212.958,50.99c-3.299-2.4-7.798-2.099-10.498,0.6l-23.395,23.097c-2.7,2.999-3,7.498-0.6,10.498
	l10.498,14.097c-0.299,0.599-0.599,1.499-0.899,2.399l-17.397,2.399c-3.898,0.6-6.898,3.899-6.898,7.798v32.994
	c0,3.899,2.999,7.198,6.898,7.798l17.397,2.4c0.299,0.899,0.599,1.499,0.899,2.399l-10.498,13.797
	c-2.4,3.299-2.099,7.798,0.6,10.498l23.396,23.396c2.7,2.7,7.199,2.999,10.498,0.6l13.797-10.498c0.899,0.3,1.499,0.6,2.399,0.9
	l2.399,17.396c0.6,3.899,3.9,6.899,8.099,6.899v-0.001h32.693c3.899,0,7.498-3,7.799-6.899l2.698-17.396
	c0.602-0.3,1.499-0.6,2.101-0.9l14.097,10.498c3.3,2.399,7.499,2.099,10.498-0.6l23.096-23.396c3-2.7,3.3-7.199,0.9-10.498
	l-10.498-13.797c0.299-0.899,0.599-1.499,0.899-2.399l17.097-2.4c4.198-0.599,6.897-3.899,6.897-7.798v-32.994
	C347.93,107.978,345.23,104.679,341.032,104.079z M332.034,137.673c-9.899,1.5-19.496,0.9-21.597,7.799
	c-5.698,17.696-9.299,9.598,6,29.994l-13.498,13.497c-7.799-5.999-14.397-13.497-20.695-10.198
	c-16.197,8.698-13.198,0.3-16.797,25.795h-18.896c-1.499-9.898-0.9-19.796-7.798-21.896c-3.599-1.2-9.598-4.799-12.897-4.799
	c-4.799,0-13.197,8.099-17.098,11.098l-13.197-13.497c5.999-7.799,13.197-14.397,9.898-20.696
	c-8.698-16.497-0.3-13.497-25.495-17.097v-18.896c9.598-1.2,19.496-0.601,21.596-7.499c5.699-17.697,9.298-9.598-5.999-29.994
	l13.197-13.498c8.098,5.999,14.397,13.198,20.696,9.898c16.497-8.398,13.498,0,17.097-25.495h18.896
	c1.499,9.898,0.898,19.497,7.499,21.896c17.694,5.399,9.598,9.298,29.993-6.299l13.498,13.498c-6,7.799-13.198,14.397-9.898,20.696
	c8.698,16.497,0.3,13.198,25.495,16.797V137.673z"/>
<linearGradient id="SVGID_5_" gradientUnits="userSpaceOnUse" x1="256" y1="191.5" x2="256" y2="85.6983">
	<stop  offset="0" style="stop-color:#000000"/>
	<stop  offset="1" style="stop-color:#000000"/>
</linearGradient>
<path fill="url(#SVGID_5_)" d="M255.875,88.109c-22.009,0-40.016,18.007-40.016,40.266c0,22.009,18.007,40.266,40.016,40.266
	c22.259,0,40.266-18.257,40.266-40.266C296.141,106.116,278.134,88.109,255.875,88.109z M255.875,155.135
	c-14.756,0-26.761-12.005-26.761-26.76c0-14.756,12.004-27.011,26.761-27.011c15.007,0,27.011,12.254,27.011,27.011
	C282.886,143.131,270.882,155.135,255.875,155.135z"/>
</svg>
