<?xml version="1.0" encoding="utf-8"?>
<!-- Generator: Adobe Illustrator 16.0.0, SVG Export Plug-In . SVG Version: 6.00 Build 0)  -->
<!DOCTYPE svg PUBLIC "-//W3C//DTD SVG 1.1//EN" "http://www.w3.org/Graphics/SVG/1.1/DTD/svg11.dtd">
<svg version="1.1" id="Layer_1" xmlns="http://www.w3.org/2000/svg" xmlns:xlink="http://www.w3.org/1999/xlink" x="0px" y="0px"
	 width="100px" height="100px" viewBox="0 0 100 100" enable-background="new 0 0 100 100" xml:space="preserve">
<g>
	<path fill="#224653" d="M93.873,17.491H82.369c-0.693-4.754-4.291-8.564-8.998-9.524c-2.582-5.73-9.314-8.278-15.041-5.699
		c-4.074,1.838-6.697,5.879-6.703,10.347v4.875h-3.253v-4.875C48.363,6.333,43.26,1.253,36.977,1.261
		c-4.464,0.012-8.511,2.634-10.347,6.706c-4.708,0.96-8.305,4.77-8.999,9.524H6.128c-2.693,0-4.875,2.183-4.875,4.875v51.997
		c0,2.694,2.183,4.876,4.875,4.876h35.29l-2.434,9.749h-1.983c-2.691,0-4.874,2.184-4.874,4.875v3.25
		c0,0.896,0.727,1.626,1.625,1.626h32.5c0.895,0,1.623-0.729,1.623-1.626v-3.25c0-2.691-2.184-4.875-4.875-4.875h-1.98l-2.438-9.749
		h35.291c2.693,0,4.875-2.182,4.875-4.876V22.367C98.748,19.674,96.566,17.491,93.873,17.491z M54.875,12.616
		c-0.01-4.476,3.609-8.113,8.084-8.125c2.615-0.004,5.07,1.25,6.6,3.37c-5.617,0.784-9.799,5.585-9.809,11.256H63
		c0.008-4.421,3.545-8.019,7.963-8.109c0.889,4.398-1.959,8.686-6.355,9.575C64.076,20.689,63.541,20.74,63,20.74v3.249
		c6.279-0.003,11.367-5.095,11.377-11.374c0-0.321-0.023-0.651-0.051-0.964c4.121,1.779,6.021,6.561,4.248,10.676
		c-1.285,2.979-4.211,4.907-7.449,4.915v3.249c3.619-0.008,7.02-1.732,9.15-4.652c1.691,4.158-0.316,8.897-4.475,10.578
		c-4.16,1.686-8.896-0.317-10.58-4.476c-0.396-0.976-0.598-2.022-0.598-3.076h-3.248c0.008,5.593,4.078,10.347,9.6,11.221
		c-0.809,4.409-5.039,7.329-9.449,6.521c-3.854-0.709-6.652-4.072-6.65-7.991V12.616z M25.678,11.651
		c-0.03,0.313-0.051,0.643-0.051,0.964c0.008,6.279,5.095,11.37,11.375,11.374V20.74c-4.486,0-8.122-3.637-8.122-8.125
		c0-0.541,0.053-1.078,0.159-1.607c4.419,0.09,7.954,3.688,7.962,8.109h3.25c-0.011-5.671-4.193-10.472-9.808-11.256
		c2.614-3.633,7.68-4.456,11.313-1.838c2.123,1.521,3.377,3.978,3.369,6.592v26c0.003,4.484-3.627,8.117-8.109,8.125
		c-3.919,0.004-7.283-2.794-7.99-6.654c5.52-0.875,9.59-5.628,9.598-11.221h-3.249c0.014,4.487-3.612,8.136-8.102,8.148
		c-4.487,0.015-8.134-3.61-8.148-8.102c-0.002-1.05,0.198-2.093,0.596-3.073c2.136,2.92,5.536,4.645,9.153,4.652v-3.249
		c-4.485-0.008-8.117-3.653-8.111-8.141C20.771,15.865,22.699,12.937,25.678,11.651z M6.128,20.74h11.503
		c0.075,0.545,0.19,1.086,0.347,1.611c-3.625,5.086-2.446,12.142,2.638,15.767c1.515,1.082,3.276,1.771,5.124,2.011
		c0.678,5.032,4.609,9.002,9.636,9.731v3.378H18.827c-0.896-2.536-3.683-3.868-6.219-2.971c-2.542,0.897-3.87,3.684-2.975,6.22
		c0.9,2.541,3.684,3.868,6.224,2.971c1.388-0.485,2.477-1.583,2.97-2.971h18.174c0.897,0,1.624-0.725,1.624-1.623v-5.004
		c5.594-0.807,9.741-5.597,9.749-11.245V20.74h3.253v17.876c0.006,5.647,4.154,10.438,9.748,11.245v5.004
		c0,0.898,0.727,1.623,1.625,1.623h18.174c0.898,2.541,3.684,3.868,6.217,2.971c2.543-0.894,3.871-3.68,2.975-6.22
		c-0.898-2.536-3.68-3.868-6.225-2.971c-1.387,0.489-2.477,1.584-2.967,2.971H64.623v-3.378c5.027-0.729,8.961-4.699,9.637-9.731
		c6.193-0.796,10.566-6.463,9.773-12.652c-0.24-1.85-0.928-3.61-2.012-5.126c0.156-0.525,0.27-1.066,0.348-1.611h11.504
		c0.896,0,1.627,0.729,1.627,1.626v40.625H4.501V22.367C4.501,21.469,5.23,20.74,6.128,20.74z M15.877,54.865
		c0,0.898-0.729,1.623-1.625,1.623c-0.898,0-1.626-0.725-1.626-1.623c0-0.896,0.729-1.626,1.626-1.626
		C15.148,53.239,15.877,53.969,15.877,54.865z M84.125,54.865c0-0.896,0.727-1.626,1.625-1.626c0.895,0,1.625,0.729,1.625,1.626
		c0,0.898-0.73,1.623-1.625,1.623C84.852,56.488,84.125,55.764,84.125,54.865z M64.623,93.863v1.626H35.376v-1.626
		c0-0.897,0.728-1.628,1.625-1.628H63C63.896,92.235,64.623,92.966,64.623,93.863z M57.668,88.988H42.333l2.436-9.749h10.464
		L57.668,88.988z M93.873,75.987H6.128c-0.897,0-1.626-0.726-1.626-1.624V66.24H95.5v8.123C95.5,75.262,94.77,75.987,93.873,75.987z
		"/>
	<path fill="#224653" d="M50.001,59.736c2.685,0.01,4.866-2.166,4.872-4.851c0.006-2.065-1.297-3.912-3.246-4.598v-1.924h-3.253
		v1.924c-2.532,0.894-3.862,3.672-2.971,6.203C46.091,58.445,47.934,59.746,50.001,59.736z M50.001,53.239
		c0.897,0,1.626,0.729,1.626,1.626c0,0.898-0.729,1.623-1.626,1.623c-0.898,0-1.627-0.725-1.627-1.623
		C48.374,53.969,49.103,53.239,50.001,53.239z"/>
</g>
</svg>
