<?xml version="1.0" encoding="utf-8"?>
<!-- Generator: Adobe Illustrator 16.0.0, SVG Export Plug-In . SVG Version: 6.00 Build 0)  -->
<!DOCTYPE svg PUBLIC "-//W3C//DTD SVG 1.1//EN" "http://www.w3.org/Graphics/SVG/1.1/DTD/svg11.dtd">
<svg version="1.1" id="Layer_1" xmlns="http://www.w3.org/2000/svg" xmlns:xlink="http://www.w3.org/1999/xlink" x="0px" y="0px"
	 width="100px" height="100px" viewBox="0 0 100 100" enable-background="new 0 0 100 100" xml:space="preserve">
<g>
	<g>
		<path fill="#224653" d="M81.017,31.203H68.5V18.687c0-0.709-0.575-1.276-1.276-1.276H18.17c-0.705,0-1.276,0.567-1.276,1.276
			v49.051c0,0.704,0.572,1.28,1.276,1.28h12.52v12.516c0,0.709,0.572,1.276,1.276,1.276h19.352c0.705,0,1.279-0.567,1.279-1.276
			c0-0.704-0.574-1.276-1.279-1.276H33.245v-11.35c0.45-0.199,0.763-0.645,0.763-1.17c0-0.705-0.569-1.276-1.276-1.276H19.446
			V19.963h46.5v11.349c-0.452,0.2-0.768,0.646-0.768,1.171c0,0.705,0.571,1.276,1.277,1.276H79.74v46.498H61.599
			c-0.701,0-1.275,0.572-1.275,1.276c0,0.709,0.574,1.276,1.275,1.276h19.418c0.708,0,1.276-0.567,1.276-1.276V32.483
			C82.293,31.779,81.725,31.203,81.017,31.203z"/>
		<path fill="#224653" d="M65.945,61.865c0,0.7,0.573,1.272,1.278,1.272c0.701,0,1.276-0.572,1.276-1.272v-0.767
			c0-0.705-0.575-1.276-1.276-1.276c-0.705,0-1.278,0.571-1.278,1.276V61.865z"/>
		<path fill="#224653" d="M65.945,50.113c0,0.705,0.573,1.272,1.278,1.272c0.701,0,1.276-0.567,1.276-1.272v-0.768
			c0-0.704-0.575-1.276-1.276-1.276c-0.705,0-1.278,0.572-1.278,1.276V50.113z"/>
		<path fill="#224653" d="M67.224,39.632c0.701,0,1.276-0.568,1.276-1.272v-0.768c0-0.705-0.575-1.276-1.276-1.276
			c-0.705,0-1.278,0.572-1.278,1.276v0.768C65.945,39.064,66.519,39.632,67.224,39.632z"/>
		<path fill="#224653" d="M65.945,55.989c0,0.701,0.573,1.276,1.278,1.276c0.701,0,1.276-0.575,1.276-1.276v-0.771
			c0-0.705-0.575-1.276-1.276-1.276c-0.705,0-1.278,0.571-1.278,1.276V55.989z"/>
		<path fill="#224653" d="M55.47,33.76c0.703,0,1.279-0.572,1.279-1.276s-0.576-1.28-1.279-1.28h-0.767
			c-0.703,0-1.276,0.576-1.276,1.28S54,33.76,54.703,33.76H55.47z"/>
		<path fill="#224653" d="M56.235,69.019c0.706,0,1.278-0.576,1.278-1.28c0-0.705-0.572-1.276-1.278-1.276H55.47
			c-0.707,0-1.277,0.571-1.277,1.276c0,0.704,0.57,1.28,1.277,1.28H56.235z"/>
		<path fill="#224653" d="M65.945,67.738c0,0.704,0.573,1.28,1.278,1.28c0.701,0,1.276-0.576,1.276-1.28V66.97
			c0-0.703-0.575-1.276-1.276-1.276c-0.705,0-1.278,0.573-1.278,1.276V67.738z"/>
		<path fill="#224653" d="M61.347,33.76c0.703,0,1.276-0.572,1.276-1.276s-0.573-1.28-1.276-1.28H60.58
			c-0.706,0-1.278,0.576-1.278,1.28s0.572,1.276,1.278,1.276H61.347z"/>
		<path fill="#224653" d="M61.347,69.019h0.766c0.706,0,1.277-0.576,1.277-1.28c0-0.705-0.571-1.276-1.277-1.276h-0.766
			c-0.707,0-1.279,0.571-1.279,1.276C60.067,68.442,60.64,69.019,61.347,69.019z"/>
		<path fill="#224653" d="M65.945,44.232c0,0.708,0.573,1.28,1.278,1.28c0.701,0,1.276-0.571,1.276-1.28v-0.76
			c0-0.712-0.575-1.28-1.276-1.28c-0.705,0-1.278,0.567-1.278,1.28V44.232z"/>
		<path fill="#224653" d="M43.717,33.76c0.707,0,1.278-0.572,1.278-1.276s-0.572-1.28-1.278-1.28H42.95
			c-0.705,0-1.276,0.576-1.276,1.28s0.572,1.276,1.276,1.276H43.717z"/>
		<path fill="#224653" d="M33.245,44.232c0-0.701-0.571-1.276-1.279-1.276c-0.705,0-1.276,0.576-1.276,1.276v0.771
			c0,0.705,0.572,1.276,1.276,1.276c0.708,0,1.279-0.572,1.279-1.276V44.232z"/>
		<path fill="#224653" d="M33.245,50.113c0-0.708-0.571-1.276-1.279-1.276c-0.705,0-1.276,0.568-1.276,1.276v0.764
			c0,0.704,0.572,1.276,1.276,1.276c0.708,0,1.279-0.572,1.279-1.276V50.113z"/>
		<path fill="#224653" d="M33.245,32.483c0-0.705-0.571-1.28-1.279-1.28c-0.705,0-1.276,0.576-1.276,1.28v0.767
			c0,0.705,0.572,1.276,1.276,1.276c0.708,0,1.279-0.571,1.279-1.276V32.483z"/>
		<path fill="#224653" d="M33.245,38.36c0-0.705-0.571-1.276-1.279-1.276c-0.705,0-1.276,0.572-1.276,1.276v0.763
			c0,0.705,0.572,1.276,1.276,1.276c0.708,0,1.279-0.572,1.279-1.276V38.36z"/>
		<path fill="#224653" d="M31.966,60.59c-0.705,0-1.276,0.567-1.276,1.275v0.764c0,0.705,0.572,1.276,1.276,1.276
			c0.708,0,1.279-0.571,1.279-1.276v-0.764C33.245,61.157,32.673,60.59,31.966,60.59z"/>
		<path fill="#224653" d="M33.245,55.989c0-0.709-0.571-1.281-1.279-1.281c-0.705,0-1.276,0.572-1.276,1.281v0.759
			c0,0.714,0.572,1.28,1.276,1.28c0.708,0,1.279-0.566,1.279-1.28V55.989z"/>
		<path fill="#224653" d="M43.717,69.019h0.767c0.707,0,1.276-0.576,1.276-1.28c0-0.705-0.57-1.276-1.276-1.276h-0.767
			c-0.705,0-1.279,0.571-1.279,1.276C42.438,68.442,43.012,69.019,43.717,69.019z"/>
		<path fill="#224653" d="M49.594,69.019h0.768c0.703,0,1.276-0.576,1.276-1.28c0-0.705-0.573-1.276-1.276-1.276h-0.768
			c-0.708,0-1.278,0.571-1.278,1.276C48.315,68.442,48.885,69.019,49.594,69.019z"/>
		<path fill="#224653" d="M49.594,33.76c0.708,0,1.278-0.572,1.278-1.276s-0.57-1.28-1.278-1.28h-0.768
			c-0.704,0-1.276,0.576-1.276,1.28s0.572,1.276,1.276,1.276H49.594z"/>
		<path fill="#224653" d="M37.843,33.76c0.705,0,1.276-0.572,1.276-1.276s-0.571-1.28-1.276-1.28h-0.769
			c-0.703,0-1.276,0.576-1.276,1.28s0.573,1.276,1.276,1.276H37.843z"/>
		<path fill="#224653" d="M37.843,69.019h0.766c0.707,0,1.277-0.576,1.277-1.28c0-0.705-0.571-1.276-1.277-1.276h-0.766
			c-0.705,0-1.28,0.571-1.28,1.276C36.563,68.442,37.138,69.019,37.843,69.019z"/>
		<path fill="#224653" d="M56.491,80.258c-0.334,0-0.663,0.138-0.901,0.371c-0.239,0.239-0.377,0.568-0.377,0.905
			s0.138,0.666,0.377,0.904c0.238,0.239,0.567,0.372,0.901,0.372c0.338,0,0.663-0.133,0.902-0.372
			c0.239-0.238,0.377-0.567,0.377-0.904s-0.138-0.666-0.377-0.905C57.154,80.396,56.829,80.258,56.491,80.258z"/>
	</g>
	<path fill="#224653" d="M97.851,31.771l-1.53-0.873c0.191-0.34,0.379-0.693,0.552-1.046c1.374-2.791,2.074-5.907,2.036-9.012
		c-0.043-3.022-0.783-6.052-2.154-8.757c-1.39-2.745-3.432-5.164-5.903-6.992c-2.755-2.032-5.981-3.328-9.353-3.75
		c-3.296-0.419-6.684,0.011-9.794,1.233c-0.735,0.29-1.098,1.124-0.809,1.864c0.29,0.736,1.125,1.1,1.863,0.81
		c0.158-0.062,0.32-0.121,0.479-0.18c2.528-0.908,5.254-1.209,7.904-0.877c2.878,0.364,5.641,1.472,7.998,3.215
		c2.113,1.562,3.865,3.629,5.051,5.978c1.171,2.314,1.805,4.91,1.84,7.497c0.039,2.654-0.563,5.32-1.738,7.705
		c-0.074,0.152-0.152,0.305-0.23,0.454c-0.083,0.153-0.16,0.298-0.243,0.442l-1.539-0.869c-0.576-0.325-1.256,0.204-1.084,0.846
		l1.21,4.365c0.105,0.396,0.52,0.63,0.917,0.517l4.359-1.202C98.324,32.958,98.43,32.096,97.851,31.771z"/>
	<path fill="#224653" d="M2.148,68.228L3.681,69.1c-0.192,0.342-0.38,0.694-0.552,1.046c-1.375,2.791-2.075,5.912-2.036,9.017
		c0.042,3.022,0.784,6.053,2.152,8.753c1.39,2.749,3.435,5.168,5.905,6.993c2.754,2.031,5.982,3.332,9.351,3.754
		c3.298,0.415,6.683-0.012,9.793-1.233c0.736-0.289,1.101-1.123,0.811-1.863c-0.29-0.739-1.126-1.1-1.864-0.811
		c-0.158,0.063-0.321,0.118-0.479,0.176c-2.529,0.909-5.252,1.215-7.904,0.882c-2.875-0.363-5.641-1.476-7.996-3.218
		c-2.116-1.559-3.865-3.625-5.052-5.975c-1.171-2.313-1.805-4.91-1.84-7.501c-0.039-2.65,0.565-5.317,1.738-7.701
		c0.074-0.156,0.152-0.305,0.23-0.454c0.083-0.153,0.163-0.301,0.245-0.447l1.539,0.87c0.573,0.328,1.257-0.204,1.083-0.845
		l-1.208-4.366c-0.107-0.396-0.521-0.626-0.916-0.518l-4.364,1.208C1.676,67.041,1.57,67.903,2.148,68.228z"/>
</g>
</svg>
