<svg id="Layer_1" enable-background="new 0 0 66 66" height="512" viewBox="0 0 66 66" width="512" xmlns="http://www.w3.org/2000/svg"><g id="icons"><g><g><path d="m44.1 42.4h-22.2c-.6 0-1-.4-1-1s.4-1 1-1h22.2c.6 0 1 .4 1 1s-.4 1-1 1z"/></g><g><path d="m18.5 64.7c-1.3 0-2.6-.8-2.7-2.5l-.7-11h-9c-2.9 0-5.1-2.2-5.1-5.1v-13.7c0-2.9 2.2-5.1 5.1-5.1h2.8c2.3 0 4.6.9 6.4 2.4l3.6 3 8.4.5c1.3 0 2.3 1.1 2.3 2.5 0 1.2-1 2.2-2.3 2.4l-7.8.5c-1.3.1-2.6-.2-4-.8 0 0-.1 0-.1-.1l-3.3-2.1v8.6h6.3c.9-.1 1.8.3 2.5 1s1 1.6 1 2.6l-.8 14.4c0 1.4-1.1 2.4-2.6 2.5.1 0 .1 0 0 0zm-12.4-35.4c-1.7 0-3.1 1.4-3.1 3.1v13.7c0 1.7 1.4 3.1 3.1 3.1h9.9c.5 0 1 .4 1 .9l.8 11.9c.1.6.6.6.8.6s.6-.1.6-.6l.8-14.4c0-.4-.1-.8-.4-1-.3-.3-.7-.4-1-.4h-7.3-.1c-.6 0-1-.4-1-1v-11.4c0-.4.2-.7.5-.9s.7-.2 1 0l4.7 3.1c1 .5 2 .7 2.9.6l7.7-.5c.3 0 .5-.2.5-.4s-.2-.5-.4-.5l-8.8-.5c-.2 0-.4-.1-.6-.2l-3.7-3.2c-1.5-1.3-3.3-2-5.1-2z"/></g><g><path d="m8.2 25.6c-2.5 0-4.6-2.1-4.6-4.6s2.1-4.6 4.6-4.6 4.6 2.1 4.6 4.6-2.1 4.6-4.6 4.6zm0-7.2c-1.4 0-2.6 1.2-2.6 2.6s1.2 2.6 2.6 2.6 2.6-1.2 2.6-2.6-1.2-2.6-2.6-2.6z"/></g><g><path d="m47.5 64.7c-1.3 0-2.6-.8-2.7-2.5l-.8-14.4c-.1-.9.3-1.9 1-2.6s1.6-1 2.6-1h6.1v-8.6l-3.3 2.1s-.1.1-.1.1c-1.4.6-2.7.9-4 .8l-7.7-.5c-1.1 0-2.2-1-2.3-2.3v-.1c0-1.4 1.1-2.5 2.4-2.5l8.3-.5 3.6-3c1.9-1.6 4.2-2.4 6.3-2.4h2.8c2.9 0 5.1 2.2 5.1 5.1v13.7c0 2.9-2.2 5.1-5.1 5.1h-8.9l-.7 11c0 1.4-1.1 2.4-2.6 2.5.1 0 .1 0 0 0zm-.1-18.5c-.4 0-.7.1-1 .4s-.4.7-.4 1l.8 14.4c.1.6.6.6.8.6s.6-.1.6-.6l.8-11.9c0-.5.5-.9 1-.9h9.8c1.7 0 3.1-1.4 3.1-3.1v-13.7c0-1.7-1.4-3.1-3.1-3.1h-2.8c-1.7 0-3.5.7-5.1 2l-3.9 3.2c-.2.1-.4.2-.6.2l-8.7.5c-.3 0-.4.2-.5.4.1.3.2.5.4.5l7.8.5c.9.1 1.9-.1 3-.6l4.7-3.1c.3-.2.7-.2 1 0s.5.5.5.9v11.4c0 .6-.4 1-1 1z"/></g><g><path d="m57.8 25.6c-2.5 0-4.6-2.1-4.6-4.6s2.1-4.6 4.6-4.6 4.6 2.1 4.6 4.6-2.1 4.6-4.6 4.6zm0-7.2c-1.4 0-2.6 1.2-2.6 2.6s1.2 2.6 2.6 2.6 2.6-1.2 2.6-2.6-1.2-2.6-2.6-2.6z"/></g><g><g><path d="m29.8 25.1c-.6 0-1.2 0-1.8-.1-1.5-.3-2.8-.8-4-1.4l-5.5 1.1c-.4.1-.7-.1-1-.3-.2-.3-.3-.6-.2-1l1.8-5c-1-2.2-1.4-4.7-1-7 1.1-6.4 7.2-10.8 13.6-9.8 6.5 1 10.9 7.1 9.9 13.6-.9 5.8-6 9.9-11.8 9.9zm-5.6-3.6c.2 0 .4 0 .5.1 1.1.7 2.3 1.1 3.7 1.4 5.3.8 10.4-2.9 11.3-8.2.8-5.4-2.9-10.5-8.3-11.3-5.3-.8-10.4 2.8-11.3 8.2-.3 2 0 4.2 1 6.2.1.2.1.5 0 .8l-1.3 3.7 4.2-.8c.1-.1.1-.1.2-.1z"/></g><g><path d="m47.6 25.3c-.1 0-.2 0-.2 0l-5.4-1.4c-1.2.6-2.5 1-4.1 1.2-1.7.2-3.5 0-5.1-.5-.5-.2-.8-.8-.6-1.3s.8-.8 1.3-.6c1.3.5 2.7.6 4.1.4 1.5-.2 2.7-.6 3.7-1.2.2-.1.5-.2.8-.1l4.1 1.1-1.2-3.8c-.1-.3 0-.6.1-.8 1.2-1.9 1.6-4 1.4-6.2-.3-2.6-1.5-5-3.6-6.6-2.1-1.7-4.7-2.4-7.3-2.1-.7.1-1.4.3-2 .5l-.5-1.9c.7-.2 1.5-.4 2.3-.5 3.2-.4 6.3.5 8.8 2.5s4 4.8 4.3 8c.3 2.4-.2 4.8-1.4 7l1.6 5.1c.1.3 0 .7-.2 1-.4.1-.6.2-.9.2z"/></g><g><path d="m31.9 11.7h-5.3c-.6 0-1-.4-1-1s.4-1 1-1h5.3c.6 0 1 .4 1 1s-.4 1-1 1z"/></g><g><path d="m34.2 16.9h-9.9c-.6 0-1-.4-1-1s.4-1 1-1h9.9c.6 0 1 .4 1 1s-.4 1-1 1z"/></g></g><g><path d="m64 64.7h-9.9c-.6 0-1-.4-1-1v-9c0-.6.4-1 1-1h9.9c.6 0 1 .4 1 1v9c0 .6-.4 1-1 1zm-8.9-2h7.9v-7h-7.9z"/></g><g><path d="m11.9 64.7h-9.9c-.6 0-1-.4-1-1v-9.7c0-.6.4-1 1-1h9.9c.6 0 1 .4 1 1v9.7c0 .6-.4 1-1 1zm-8.9-2h7.9v-7.7h-7.9z"/></g></g></g></svg>