<svg version="1.1" id="Capa_1" xmlns="http://www.w3.org/2000/svg" xmlns:xlink="http://www.w3.org/1999/xlink" x="0px" y="0px" viewBox="0 0 512 512" style="enable-background:new 0 0 512 512;" xml:space="preserve">
<g>
	
		<line style="fill:none;stroke:#000000;stroke-width:15;stroke-linecap:round;stroke-linejoin:round;" x1="293.901" y1="461.873" x2="293.901" y2="504.5"/>
	
		<line style="fill:none;stroke:#000000;stroke-width:15;stroke-linecap:round;stroke-linejoin:round;" x1="218.099" y1="461.873" x2="218.099" y2="504.5"/>
	<path style="fill:none;stroke:#000000;stroke-width:15;stroke-linecap:round;stroke-linejoin:round;" d="M202.365,436.872v17.275&#10;&#9;&#9;c0,2.767,2.243,5.01,5.01,5.01h21.447c2.767,0,5.01-2.243,5.01-5.01v-17.615"/>
	<path style="fill:none;stroke:#000000;stroke-width:15;stroke-linecap:round;stroke-linejoin:round;" d="M278.167,436.532v17.615&#10;&#9;&#9;c0,2.767,2.243,5.01,5.01,5.01h21.447c2.767,0,5.01-2.243,5.01-5.01v-17.615"/>
	
		<line style="fill:none;stroke:#000000;stroke-width:15;stroke-linecap:round;stroke-linejoin:round;" x1="218.099" y1="50.127" x2="218.099" y2="7.5"/>
	
		<line style="fill:none;stroke:#000000;stroke-width:15;stroke-linecap:round;stroke-linejoin:round;" x1="293.901" y1="50.127" x2="293.901" y2="7.5"/>
	<path style="fill:none;stroke:#000000;stroke-width:15;stroke-linecap:round;stroke-linejoin:round;" d="M309.635,75V57.853&#10;&#9;&#9;c0-2.767-2.243-5.01-5.01-5.01h-21.447c-2.767,0-5.01,2.243-5.01,5.01v18.254"/>
	<path style="fill:none;stroke:#000000;stroke-width:15;stroke-linecap:round;stroke-linejoin:round;" d="M233.833,77V57.853&#10;&#9;&#9;c0-2.767-2.243-5.01-5.01-5.01h-21.447c-2.767,0-5.01,2.243-5.01,10.116v12.722"/>
	
		<line style="fill:none;stroke:#000000;stroke-width:15;stroke-linecap:round;stroke-linejoin:round;" x1="113.558" y1="289.703" x2="42.536" y2="289.703"/>
	
		<line style="fill:none;stroke:#000000;stroke-width:15;stroke-linecap:round;stroke-linejoin:round;" x1="113.558" y1="222.297" x2="42.536" y2="222.297"/>
	
		<circle style="fill:none;stroke:#000000;stroke-width:15;stroke-linecap:round;stroke-linejoin:round;" cx="24.537" cy="289.703" r="17.037"/>
	
		<circle style="fill:none;stroke:#000000;stroke-width:15;stroke-linecap:round;stroke-linejoin:round;" cx="24.537" cy="222.297" r="17.037"/>
	
		<circle style="fill:none;stroke:#000000;stroke-width:15;stroke-linecap:round;stroke-linejoin:round;" cx="49.665" cy="389.294" r="20"/>
	<path style="fill:none;stroke:#000000;stroke-width:15;stroke-linecap:round;stroke-linejoin:round;" d="M113.558,350.132H95.209&#10;&#9;&#9;c-4.086,0-8.005,1.623-10.894,4.512l-19.75,19.75"/>
	
		<circle style="fill:none;stroke:#000000;stroke-width:15;stroke-linecap:round;stroke-linejoin:round;" cx="49.665" cy="122.706" r="20"/>
	<path style="fill:none;stroke:#000000;stroke-width:15;stroke-linecap:round;stroke-linejoin:round;" d="M113.558,161.868H95.209&#10;&#9;&#9;c-4.086,0-8.005-1.623-10.894-4.512l-19.218-19.218"/>
	
		<line style="fill:none;stroke:#000000;stroke-width:15;stroke-linecap:round;stroke-linejoin:round;" x1="398.442" y1="222.297" x2="469.464" y2="222.297"/>
	
		<line style="fill:none;stroke:#000000;stroke-width:15;stroke-linecap:round;stroke-linejoin:round;" x1="398.442" y1="289.703" x2="469.464" y2="289.703"/>
	
		<circle style="fill:none;stroke:#000000;stroke-width:15;stroke-linecap:round;stroke-linejoin:round;" cx="487.463" cy="222.297" r="17.037"/>
	
		<circle style="fill:none;stroke:#000000;stroke-width:15;stroke-linecap:round;stroke-linejoin:round;" cx="487.463" cy="289.703" r="17.037"/>
	
		<circle style="fill:none;stroke:#000000;stroke-width:15;stroke-linecap:round;stroke-linejoin:round;" cx="462.335" cy="122.706" r="20"/>
	<path style="fill:none;stroke:#000000;stroke-width:15;stroke-linecap:round;stroke-linejoin:round;" d="M398.442,161.868h18.349&#10;&#9;&#9;c4.086,0,8.005-1.623,10.894-4.512l18.984-18.984"/>
	
		<circle style="fill:none;stroke:#000000;stroke-width:15;stroke-linecap:round;stroke-linejoin:round;" cx="462.335" cy="389.294" r="20"/>
	<path style="fill:none;stroke:#000000;stroke-width:15;stroke-linecap:round;stroke-linejoin:round;" d="M398.442,350.132h18.349&#10;&#9;&#9;c4.086,0,8.005,1.623,10.894,4.512l19.389,19.389"/>
	<path style="fill:none;stroke:#000000;stroke-width:15;stroke-linecap:round;stroke-linejoin:round;stroke-miterlimit:10;" d="&#10;&#9;&#9;M392.93,274.12v82.71c0,2.65-1.05,5.19-2.92,7.06l-67.75,67.8c-1.88,1.87-4.42,2.93-7.08,2.93H179.81"/>
	<path style="fill:none;stroke:#000000;stroke-width:15;stroke-linecap:round;stroke-linejoin:round;stroke-miterlimit:10;" d="&#10;&#9;&#9;M144.81,434.62h-19.03c-3.71,0-6.71-3.01-6.71-6.72V161.87v-22.9"/>
	<path style="fill:none;stroke:#000000;stroke-width:15;stroke-linecap:round;stroke-linejoin:round;stroke-miterlimit:10;" d="&#10;&#9;&#9;M392.93,239.12v-77.25V84.1c0-3.71-3-6.72-6.71-6.72H125.78c-3.71,0-6.71,3.01-6.71,6.72v19.87"/>
	<path style="fill:none;stroke:#000000;stroke-width:15;stroke-linecap:round;stroke-linejoin:round;stroke-miterlimit:10;" d="&#10;&#9;&#9;M389.503,360.966l-61.851,0c-4.598,0-8.326,3.728-8.326,8.326v62.088"/>
	<polyline style="fill:none;stroke:#000000;stroke-width:15;stroke-linecap:round;stroke-linejoin:round;" points="242.76,325.85 &#10;&#9;&#9;353.77,325.85 353.77,358.23 &#9;"/>
	<polyline style="fill:none;stroke:#000000;stroke-width:15;stroke-linecap:round;stroke-linejoin:round;" points="207.76,325.85 &#10;&#9;&#9;158.23,325.85 158.23,374.42 318.19,374.42 &#9;"/>
	
		<line style="fill:none;stroke:#000000;stroke-width:15;stroke-linecap:round;stroke-linejoin:round;" x1="158.234" y1="221.411" x2="353.766" y2="221.411"/>
	
		<line style="fill:none;stroke:#000000;stroke-width:15;stroke-linecap:round;stroke-linejoin:round;" x1="233.099" y1="255.115" x2="353.766" y2="255.115"/>
	
		<line style="fill:none;stroke:#000000;stroke-width:15;stroke-linecap:round;stroke-linejoin:round;" x1="158.234" y1="255.115" x2="198.099" y2="255.115"/>
	
		<line style="fill:none;stroke:#000000;stroke-width:15;stroke-linecap:round;stroke-linejoin:round;" x1="309.901" y1="288.818" x2="353.766" y2="288.818"/>
	
		<line style="fill:none;stroke:#000000;stroke-width:15;stroke-linecap:round;stroke-linejoin:round;" x1="158.234" y1="288.818" x2="273.901" y2="288.818"/>
	<path style="fill:none;stroke:#000000;stroke-width:15;stroke-linecap:round;stroke-linejoin:round;" d="M242.03,161.87&#10;&#9;&#9;c0,6.56-2.66,12.5-6.97,16.81c-4.3,4.3-10.24,6.96-16.8,6.96h-30.71c-13.13,0-23.77-10.65-23.77-23.77&#10;&#9;&#9;c0-6.57,2.66-12.51,6.96-16.81c4.3-4.3,10.24-6.96,16.81-6.96h30.71C231.38,138.1,242.03,148.74,242.03,161.87z"/>
	<path style="fill:none;stroke:#000000;stroke-width:15;stroke-linecap:round;stroke-linejoin:round;" d="M348.22,161.87&#10;&#9;&#9;c0,6.56-2.66,12.5-6.96,16.81c-4.3,4.3-10.24,6.96-16.81,6.96h-30.71c-13.12,0-23.77-10.65-23.77-23.77&#10;&#9;&#9;c0-6.57,2.66-12.51,6.97-16.81c4.3-4.3,10.24-6.96,16.8-6.96h30.71C337.58,138.1,348.22,148.74,348.22,161.87z"/>
	<polyline style="fill:none;stroke:#000000;stroke-width:15;stroke-linecap:round;stroke-linejoin:round;" points="286.74,161.87 &#10;&#9;&#9;269.97,161.87 242.03,161.87 225.26,161.87 &#9;"/>
	<polyline style="fill:none;stroke:#000000;stroke-width:15;stroke-linecap:round;stroke-linejoin:round;" points="180.54,161.87 &#10;&#9;&#9;163.78,161.87 119.07,161.87 &#9;"/>
	<polyline style="fill:none;stroke:#000000;stroke-width:15;stroke-linecap:round;stroke-linejoin:round;" points="392.93,161.87 &#10;&#9;&#9;348.22,161.87 331.46,161.87 &#9;"/>
</g>
<g>
</g>
<g>
</g>
<g>
</g>
<g>
</g>
<g>
</g>
<g>
</g>
<g>
</g>
<g>
</g>
<g>
</g>
<g>
</g>
<g>
</g>
<g>
</g>
<g>
</g>
<g>
</g>
<g>
</g>
</svg>