<?xml version="1.0" encoding="UTF-8"?>
<svg xmlns="http://www.w3.org/2000/svg" xmlns:xlink="http://www.w3.org/1999/xlink" version="1.1" id="Capa_1" x="0px" y="0px" viewBox="0 0 512 512" style="enable-background:new 0 0 512 512;" xml:space="preserve" width="512" height="512">
<g>
	<path style="fill:none;stroke:#000000;stroke-width:15;stroke-linecap:round;stroke-linejoin:round;stroke-miterlimit:10;" d="&#10;&#9;&#9;M504.5,189.26v262.3c0,9.01-7.3,16.31-16.31,16.31H23.81c-9.01,0-16.31-7.3-16.31-16.31V60.44c0-9.01,7.3-16.31,16.31-16.31h464.38&#10;&#9;&#9;c9.01,0,16.31,7.3,16.31,16.31v93.82"/>
	
		<line style="fill:none;stroke:#000000;stroke-width:15;stroke-linecap:round;stroke-linejoin:round;stroke-miterlimit:10;" x1="61.17" y1="107.78" x2="10.21" y2="107.78"/>
	
		<line style="fill:none;stroke:#000000;stroke-width:15;stroke-linecap:round;stroke-linejoin:round;stroke-miterlimit:10;" x1="206.17" y1="107.78" x2="96.17" y2="107.78"/>
	
		<line style="fill:none;stroke:#000000;stroke-width:15;stroke-linecap:round;stroke-linejoin:round;stroke-miterlimit:10;" x1="501.788" y1="107.775" x2="305.832" y2="107.775"/>
	
		<line style="fill:none;stroke:#000000;stroke-width:15;stroke-linecap:round;stroke-linejoin:round;stroke-miterlimit:10;" x1="110.31" y1="75.952" x2="110.31" y2="75.952"/>
	
		<line style="fill:none;stroke:#000000;stroke-width:15;stroke-linecap:round;stroke-linejoin:round;stroke-miterlimit:10;" x1="76.19" y1="75.952" x2="76.19" y2="75.952"/>
	
		<line style="fill:none;stroke:#000000;stroke-width:15;stroke-linecap:round;stroke-linejoin:round;stroke-miterlimit:10;" x1="42.07" y1="75.952" x2="42.07" y2="75.952"/>
	<path style="fill:none;stroke:#000000;stroke-width:15;stroke-linecap:round;stroke-linejoin:round;stroke-miterlimit:10;" d="&#10;&#9;&#9;M166.991,360.238c1.647,0.509,23.45,6.836,41.493-8.039c16.595-13.681,16.152-27.842,16.062-30.147&#10;&#9;&#9;c0.698,13.773,12.046,18.088,19.408,18.088c13.385,0,22.085-12.059,22.085-29.477c2.253,46.699,8.031,71.012,26.77,71.012&#10;&#9;&#9;c8.432,0,13.914-12.925,17.218-25.205c3.667-13.626,14.751-23.987,28.526-26.985l6.457-1.405"/>
	
		<polyline style="fill:none;stroke:#000000;stroke-width:15;stroke-linecap:round;stroke-linejoin:round;stroke-miterlimit:10;" points="&#10;&#9;&#9;127.81,414.28 450.83,414.28 450.83,275.95 61.17,275.95 61.17,414.28 92.81,414.28 &#9;"/>
	<path style="fill:none;stroke:#000000;stroke-width:15;stroke-linecap:round;stroke-linejoin:round;stroke-miterlimit:10;" d="&#10;&#9;&#9;M206.168,147.59v-26.261c0-27.477,22.354-49.831,49.832-49.831s49.832,22.354,49.832,49.831v25.38"/>
	<path style="fill:none;stroke:#000000;stroke-width:15;stroke-linecap:round;stroke-linejoin:round;stroke-miterlimit:10;" d="&#10;&#9;&#9;M276.66,147.37v-26.041c0-11.392-9.268-20.66-20.66-20.66c-11.392,0-20.66,9.268-20.66,20.66v26.151"/>
	<path style="fill:none;stroke:#000000;stroke-width:15;stroke-linecap:round;stroke-linejoin:round;stroke-miterlimit:10;" d="&#10;&#9;&#9;M299.69,245.75h6.14c7.63,0,13.81-6.19,13.81-13.81v-69.29c0-7.62-6.18-13.8-13.81-13.8h-99.66c-7.63,0-13.81,6.18-13.81,13.8&#10;&#9;&#9;v69.29c0,7.62,6.18,13.81,13.81,13.81h58.52"/>
	<path style="fill:none;stroke:#000000;stroke-width:15;stroke-linecap:round;stroke-linejoin:round;stroke-miterlimit:10;" d="&#10;&#9;&#9;M269.073,216.672h-26.147v-25.679c0-7.22,5.853-13.073,13.073-13.073h0c7.22,0,13.073,5.853,13.073,13.073V216.672z"/>
	
		<line style="fill:none;stroke:#000000;stroke-width:15;stroke-linecap:round;stroke-linejoin:round;stroke-miterlimit:10;" x1="61.165" y1="148.846" x2="142.358" y2="148.846"/>
	
		<line style="fill:none;stroke:#000000;stroke-width:15;stroke-linecap:round;stroke-linejoin:round;stroke-miterlimit:10;" x1="61.165" y1="190.749" x2="122.358" y2="190.749"/>
	
		<line style="fill:none;stroke:#000000;stroke-width:15;stroke-linecap:round;stroke-linejoin:round;stroke-miterlimit:10;" x1="61.165" y1="232.651" x2="142.358" y2="232.651"/>
	
		<line style="fill:none;stroke:#000000;stroke-width:15;stroke-linecap:round;stroke-linejoin:round;stroke-miterlimit:10;" x1="369.404" y1="148.846" x2="450.596" y2="148.846"/>
	
		<line style="fill:none;stroke:#000000;stroke-width:15;stroke-linecap:round;stroke-linejoin:round;stroke-miterlimit:10;" x1="389.404" y1="190.749" x2="450.596" y2="190.749"/>
	
		<line style="fill:none;stroke:#000000;stroke-width:15;stroke-linecap:round;stroke-linejoin:round;stroke-miterlimit:10;" x1="369.404" y1="232.651" x2="450.596" y2="232.651"/>
</g>















</svg>
