<?xml version="1.0" encoding="UTF-8"?>
<svg xmlns="http://www.w3.org/2000/svg" xmlns:xlink="http://www.w3.org/1999/xlink" version="1.1" id="Capa_1" x="0px" y="0px" viewBox="0 0 511.277 511.277" style="enable-background:new 0 0 511.277 511.277;" xml:space="preserve" width="512" height="512">
<g>
	<path style="fill:none;stroke:#000000;stroke-width:15;stroke-linecap:round;stroke-linejoin:round;stroke-miterlimit:10;" d="&#10;&#9;&#9;M132.614,267.122c-6.925-2.747-14.252-4.557-21.788-5.317c-1.853-0.187-3.222-1.817-3.126-3.678l0.488-9.452&#10;&#9;&#9;c0.102-1.981-1.452-3.672-3.435-3.7c-8.967-0.129-17.92,0.983-26.665,3.315c-5.969,1.592-11.776,3.74-17.309,6.402&#10;&#9;&#9;c-1.786,0.859-2.483,3.046-1.558,4.799l4.248,8.049c0.878,1.664,0.301,3.74-1.331,4.676c-6.648,3.815-12.632,8.506-17.839,13.881&#10;&#9;&#9;c-1.301,1.342-3.436,1.404-4.836,0.165l-6.723-5.95c-1.485-1.314-3.775-1.153-5.033,0.379&#10;&#9;&#9;c-9.659,11.761-16.457,25.609-19.841,40.42c-0.442,1.933,0.833,3.843,2.781,4.212l8.697,1.651c1.842,0.35,3.101,2.085,2.827,3.94&#10;&#9;&#9;c-1.09,7.383-1.167,15.002-0.128,22.667c0.252,1.859-1.036,3.579-2.884,3.902l-8.747,1.53c-1.973,0.345-3.249,2.264-2.831,4.223&#10;&#9;&#9;c0.347,1.624,0.735,3.242,1.162,4.841c3.528,13.229,9.594,25.269,18.051,35.842c1.238,1.547,3.524,1.737,5.025,0.444l6.894-5.938&#10;&#9;&#9;c1.414-1.218,3.545-1.132,4.827,0.223c5.212,5.507,11.152,10.237,17.62,14.075c1.621,0.962,2.171,3.048,1.264,4.701l-4.447,8.108&#10;&#9;&#9;c-0.953,1.738-0.29,3.936,1.482,4.825c13.636,6.839,28.66,10.399,43.852,10.393c1.983-0.001,3.56-1.67,3.485-3.652l-0.364-9.631&#10;&#9;&#9;c-0.071-1.887,1.362-3.475,3.244-3.639c4.641-0.404,9.311-1.212,13.967-2.454c2.661-0.71,5.254-1.546,7.777-2.497 M131.188,377.051&#10;&#9;&#9;c-4.621,3.76-10.065,6.642-16.141,8.318c-24.011,6.623-48.773-7.712-54.987-31.832c-6.033-23.419,7.97-47.607,31.283-54.038&#10;&#9;&#9;c14.803-4.083,29.892-0.2,40.744,9.031"/>
	<path style="fill:none;stroke:#000000;stroke-width:15;stroke-linecap:round;stroke-linejoin:round;stroke-miterlimit:10;" d="&#10;&#9;&#9;M344.912,479.905H153.048c-10.164,0-18.404-8.24-18.404-18.404V49.777c0-10.164,8.24-18.404,18.404-18.404h57.804"/>
	<path style="fill:none;stroke:#000000;stroke-width:15;stroke-linecap:round;stroke-linejoin:round;stroke-miterlimit:10;" d="&#10;&#9;&#9;M464.42,278.191v183.31c0,10.164-8.24,18.404-18.404,18.404h-66.103"/>
	<path style="fill:none;stroke:#000000;stroke-width:15;stroke-linecap:round;stroke-linejoin:round;stroke-miterlimit:10;" d="&#10;&#9;&#9;M245.852,31.372h200.163c10.164,0,18.404,8.24,18.404,18.404v41.847"/>
	<path style="fill:none;stroke:#000000;stroke-width:15;stroke-linecap:round;stroke-linejoin:round;stroke-miterlimit:10;" d="&#10;&#9;&#9;M499.454,152.49l-21.115,5.723c-0.008-0.029-0.014-0.057-0.022-0.086c-2.898-10.868-7.417-20.871-13.223-29.824&#10;&#9;&#9;c-1.301-2.006-0.772-4.683,1.17-6.075l10.368-7.432c2.061-1.478,2.512-4.379,0.959-6.384&#10;&#9;&#9;C465.7,93.061,450.351,80.662,432.79,72.218c-2.285-1.099-5.028-0.051-6.042,2.273l-4.931,11.304&#10;&#9;&#9;c-0.964,2.211-3.507,3.284-5.749,2.395c-8.857-3.514-18.229-5.829-27.867-6.801c-2.37-0.239-4.121-2.324-3.998-4.704l0.624-12.089&#10;&#9;&#9;c0.131-2.533-1.857-4.696-4.394-4.732c-11.469-0.165-22.919,1.257-34.104,4.24c-7.635,2.036-15.062,4.784-22.139,8.188&#10;&#9;&#9;c-2.284,1.099-3.176,3.896-1.992,6.138l5.434,10.294c1.123,2.128,0.385,4.783-1.703,5.98c-8.503,4.879-16.156,10.879-22.817,17.753&#10;&#9;&#9;c-1.664,1.717-4.394,1.796-6.185,0.212l-8.599-7.61c-1.899-1.68-4.828-1.474-6.437,0.485&#10;&#9;&#9;c-12.354,15.042-21.048,32.753-25.377,51.697c-0.565,2.472,1.065,4.915,3.557,5.388l11.124,2.112&#10;&#9;&#9;c2.356,0.447,3.966,2.667,3.616,5.04c-1.394,9.443-1.493,19.187-0.164,28.991c0.322,2.378-1.325,4.577-3.689,4.991l-11.188,1.957&#10;&#9;&#9;c-2.524,0.441-4.156,2.895-3.621,5.401c0.444,2.077,0.94,4.147,1.486,6.192c4.512,16.92,12.271,32.319,23.087,45.842&#10;&#9;&#9;c1.583,1.979,4.507,2.222,6.427,0.568l8.817-7.595c1.808-1.557,4.534-1.448,6.174,0.285c6.667,7.043,14.264,13.093,22.536,18.002&#10;&#9;&#9;c2.073,1.23,2.776,3.898,1.617,6.012l-5.688,10.37c-1.22,2.223-0.371,5.034,1.895,6.171c17.441,8.747,36.656,13.3,56.087,13.292&#10;&#9;&#9;c2.536-0.001,4.553-2.136,4.458-4.671l-0.465-12.318c-0.091-2.414,1.742-4.445,4.148-4.655c5.936-0.517,11.908-1.55,17.864-3.139&#10;&#9;&#9;c3.403-0.908,6.719-1.977,9.946-3.194c2.255-0.85,4.777,0.268,5.704,2.493l4.818,11.572c0.975,2.341,3.701,3.435,6.004,2.374&#10;&#9;&#9;c17.668-8.141,33.211-20.329,45.366-35.576c1.581-1.983,1.171-4.891-0.869-6.397l-10.361-7.651&#10;&#9;&#9;c-1.925-1.421-2.416-4.111-1.082-6.096c5.301-7.889,9.517-16.485,12.507-25.543c0.752-2.279,3.19-3.54,5.497-2.88l12.447,3.562&#10;&#9;&#9;c2.438,0.698,4.993-0.752,5.599-3.214c5.011-20.359,4.807-41.739-0.631-62.128L499.454,152.49z M395.023,244.585&#10;&#9;&#9;c-33.594,9.266-68.24-10.79-76.934-44.537c-8.441-32.766,11.151-66.609,43.769-75.606c33.594-9.266,68.24,10.79,76.934,44.537&#10;&#9;&#9;C447.233,201.745,427.641,235.587,395.023,244.585z"/>
	
		<line style="fill:none;stroke:#000000;stroke-width:15;stroke-linecap:round;stroke-linejoin:round;stroke-miterlimit:10;" x1="176.141" y1="82.291" x2="247.793" y2="82.291"/>
	
		<line style="fill:none;stroke:#000000;stroke-width:15;stroke-linecap:round;stroke-linejoin:round;stroke-miterlimit:10;" x1="178.502" y1="111.88" x2="223.881" y2="111.88"/>
	
		<line style="fill:none;stroke:#000000;stroke-width:15;stroke-linecap:round;stroke-linejoin:round;stroke-miterlimit:10;" x1="178.502" y1="184.513" x2="223.881" y2="184.513"/>
	
		<line style="fill:none;stroke:#000000;stroke-width:15;stroke-linecap:round;stroke-linejoin:round;stroke-miterlimit:10;" x1="178.502" y1="219.513" x2="223.881" y2="219.513"/>
	
		<line style="fill:none;stroke:#000000;stroke-width:15;stroke-linecap:round;stroke-linejoin:round;stroke-miterlimit:10;" x1="177.279" y1="297.882" x2="281.989" y2="297.882"/>
	
		<line style="fill:none;stroke:#000000;stroke-width:15;stroke-linecap:round;stroke-linejoin:round;stroke-miterlimit:10;" x1="180.728" y1="327.471" x2="247.045" y2="327.471"/>
	<path style="fill:none;stroke:#000000;stroke-width:15;stroke-linecap:round;stroke-linejoin:round;stroke-miterlimit:10;" d="&#10;&#9;&#9;M236.502,438.113h-51.301c-3.7,0-6.699-2.999-6.699-6.699v-51.301c0-3.7,2.999-6.699,6.699-6.699h51.301&#10;&#9;&#9;c3.7,0,6.699,2.999,6.699,6.699v51.301C243.202,435.114,240.202,438.113,236.502,438.113z"/>
	
		<polyline style="fill:none;stroke:#000000;stroke-width:15;stroke-linecap:round;stroke-linejoin:round;stroke-miterlimit:10;" points="&#10;&#9;&#9;205.414,402.261 213.886,411.348 254.938,370.296 &#9;"/>
	
		<line style="fill:none;stroke:#000000;stroke-width:15;stroke-linecap:round;stroke-linejoin:round;stroke-miterlimit:10;" x1="281.989" y1="379.889" x2="411.627" y2="379.889"/>
	
		<line style="fill:none;stroke:#000000;stroke-width:15;stroke-linecap:round;stroke-linejoin:round;stroke-miterlimit:10;" x1="332.217" y1="411.348" x2="281.989" y2="411.348"/>
</g>















</svg>
