<svg id="Outline" height="512" viewBox="0 0 512 512" width="512" xmlns="http://www.w3.org/2000/svg"><path d="m240.4 378.912a53.254 53.254 0 0 0 -37.655-90.912h-26.745v-56a24 24 0 0 0 -48 0v92.687l-5.372-5.373a24.971 24.971 0 0 0 -35.315 35.313l40.687 40.687v12.686h-8a8 8 0 0 0 -8 8v72h16v-64h96v64h16v-72a8 8 0 0 0 -8-8h-8v-12.686zm-96.4 29.088v-16a8 8 0 0 0 -2.343-5.657l-43.029-43.029a8.97 8.97 0 1 1 12.685-12.687l19.03 19.03a8 8 0 0 0 13.657-5.657v-112a8 8 0 0 1 16 0v64a8 8 0 0 0 8 8h34.745a37.255 37.255 0 0 1 26.343 63.6l-18.745 18.745a8 8 0 0 0 -2.343 5.655v16z"/><path d="m192 440h16v16h-16z"/><path d="m64 72h24a32.036 32.036 0 0 0 32 32h8v-16h-8a16.019 16.019 0 0 1 -16-16v-16a16 16 0 0 1 32 0h-16v16h152v-16h-120a32 32 0 0 0 -64 0h-32a8 8 0 0 0 -8 8v384a8 8 0 0 0 8 8h40v-16h-32z"/><path d="m368 440h-112v16h120a8 8 0 0 0 8-8v-152h-16z"/><path d="m360 128a32 32 0 1 0 32 32 32.036 32.036 0 0 0 -32-32zm0 48a16 16 0 1 1 16-16 16.019 16.019 0 0 1 -16 16z"/><path d="m470.526 169.091v-18.182l22.835-20.615a8 8 0 0 0 2.03-9l-12.291-29.661a7.966 7.966 0 0 0 -7.8-4.928l-30.724 1.569-12.85-12.857 1.574-30.723a8 8 0 0 0 -4.928-7.8l-29.667-12.285a8 8 0 0 0 -9 2.03l-20.614 22.834h-18.182l-20.609-22.834a8 8 0 0 0 -9-2.03l-29.667 12.291a8 8 0 0 0 -4.928 7.8l1.569 30.723-12.856 12.851-30.724-1.569a7.964 7.964 0 0 0 -7.8 4.928l-12.287 29.661a8 8 0 0 0 2.03 9l22.835 20.615v18.182l-22.835 20.615a8 8 0 0 0 -2.03 9l12.293 29.661a7.97 7.97 0 0 0 7.8 4.928l30.724-1.569 12.856 12.857-1.569 30.723a8 8 0 0 0 4.928 7.8l29.661 12.285a8 8 0 0 0 9-2.03l20.614-22.834h18.182l20.614 22.834a8 8 0 0 0 9 2.03l29.662-12.286a8 8 0 0 0 4.928-7.8l-1.569-30.723 12.856-12.857 30.724 1.569a7.972 7.972 0 0 0 7.8-4.928l12.287-29.661a8 8 0 0 0 -2.03-9zm-.043 47.937-28.635-1.463a8 8 0 0 0 -6.066 2.333l-17.882 17.885a8 8 0 0 0 -2.333 6.065l1.463 28.635-19.23 7.965-19.213-21.282a8 8 0 0 0 -5.939-2.639h-25.294a8 8 0 0 0 -5.939 2.639l-19.215 21.282-19.23-7.965 1.463-28.635a8 8 0 0 0 -2.333-6.065l-17.882-17.883a7.983 7.983 0 0 0 -6.066-2.333l-28.635 1.463-7.965-19.23 21.283-19.215a8 8 0 0 0 2.639-5.938v-25.293a8 8 0 0 0 -2.639-5.938l-21.283-19.216 7.965-19.229 28.635 1.463a8.007 8.007 0 0 0 6.066-2.333l17.882-17.884a8 8 0 0 0 2.333-6.065l-1.463-28.635 19.23-7.965 19.213 21.282a8 8 0 0 0 5.939 2.639h25.292a8 8 0 0 0 5.939-2.639l19.217-21.282 19.23 7.965-1.463 28.635a8 8 0 0 0 2.333 6.065l17.882 17.883a8.027 8.027 0 0 0 6.066 2.333l28.635-1.463 7.965 19.229-21.283 19.215a8 8 0 0 0 -2.639 5.938v25.292a8 8 0 0 0 2.639 5.938l21.283 19.218z"/><path d="m88 120h16v16h-16z"/><path d="m120 120h88v16h-88z"/><path d="m88 152h120v16h-120z"/><path d="m88 184h40v16h-40z"/><path d="m88 216h24v16h-24z"/><path d="m88 248h24v16h-24z"/><path d="m280 320h16v16h-16z"/><path d="m312 320h32v16h-32z"/><path d="m272 352h72v16h-72z"/><path d="m256 384h88v16h-88z"/><path d="m360 88a72 72 0 1 0 72 72 72.081 72.081 0 0 0 -72-72zm0 128a56 56 0 1 1 56-56 56.063 56.063 0 0 1 -56 56z"/><path d="m16 112h16v240h-16z"/><path d="m16 368h16v16h-16z"/><path d="m192 248h48v16h-48z"/></svg>