<?xml version="1.0" encoding="utf-8"?>
<!-- Generator: Adobe Illustrator 16.0.0, SVG Export Plug-In . SVG Version: 6.00 Build 0)  -->
<!DOCTYPE svg PUBLIC "-//W3C//DTD SVG 1.1//EN" "http://www.w3.org/Graphics/SVG/1.1/DTD/svg11.dtd">
<svg version="1.1" id="Layer_1" xmlns="http://www.w3.org/2000/svg" xmlns:xlink="http://www.w3.org/1999/xlink" x="0px" y="0px"
	 width="300px" height="300px" viewBox="0 0 300 300" enable-background="new 0 0 300 300" xml:space="preserve">
<g>
	
		<linearGradient id="SVGID_1_" gradientUnits="userSpaceOnUse" x1="38.6875" y1="232.7695" x2="38.6875" y2="269.3555" gradientTransform="matrix(8 0 0 -8 -159.5 2158.5)">
		<stop  offset="0" style="stop-color:#000000"/>
		<stop  offset="1" style="stop-color:#000000"/>
	</linearGradient>
	<path fill="url(#SVGID_1_)" d="M68.321,211.371c-10.415,0-18.883,8.471-18.883,18.885s8.469,18.883,18.883,18.883
		c10.414,0,18.883-8.469,18.883-18.883S78.735,211.371,68.321,211.371z M68.321,239.697c-5.208,0-9.441-4.234-9.441-9.441
		s4.234-9.443,9.441-9.443c5.207,0,9.441,4.236,9.441,9.443S73.528,239.697,68.321,239.697z M68.321,192.488
		c-20.824,0-37.767,16.943-37.767,37.768c0,20.822,16.943,37.766,37.767,37.766s37.767-16.943,37.767-37.766
		C106.088,209.432,89.146,192.488,68.321,192.488z M68.321,258.58c-15.622,0-28.325-12.705-28.325-28.324
		c0-15.623,12.703-28.326,28.325-28.326s28.325,12.703,28.325,28.326C96.646,245.875,83.943,258.58,68.321,258.58z M297.771,215.787
		l-12.289-9.014v-77.488l-14.561,4.853c-3.381,1.129-6.896,1.7-10.453,1.7c-7.031,0-12.754-5.722-12.754-12.752v-12.264
		c0-7.029,5.723-12.752,12.75-12.752c3.564,0,7.082,0.572,10.461,1.696l14.557,4.862V55.583c0-7.808-6.355-14.162-14.164-14.162
		h-35.936l1.605-4.821c0.85-2.554,1.283-5.215,1.283-7.921c0-13.799-11.227-25.026-25.029-25.026h-6.59
		c-13.803,0-25.031,11.231-25.031,25.035c0,2.696,0.436,5.363,1.285,7.912l1.605,4.821h-26.494c-3.639,0-6.93,1.421-9.441,3.681
		c-2.512-2.26-5.802-3.681-9.442-3.681h-35.935l1.605-4.821c0.85-2.554,1.284-5.215,1.284-7.921
		c0-13.799-11.226-25.026-25.03-25.026h-6.59c-13.805,0-25.03,11.231-25.03,25.035c0,2.696,0.434,5.363,1.284,7.912l1.605,4.821
		H25.833c-7.808,0-14.163,6.354-14.163,14.162v137.849l-3.437,3.438l6.435,6.443c2.068,2.068,1.308,4.457,1.029,5.146
		c-0.283,0.68-1.435,2.912-4.362,2.912H2.229v37.768h9.106c2.927,0,4.079,2.232,4.367,2.914c0.284,0.689,1.043,3.072-1.034,5.145
		l-6.43,6.443l26.696,26.697l6.444-6.436c2.077-2.07,4.457-1.301,5.146-1.029c0.68,0.289,2.913,1.441,2.913,4.369v9.105h37.767
		v-9.105c0-2.928,2.233-4.08,2.913-4.369c0.685-0.277,3.068-1.057,5.146,1.035l6.444,6.43l26.696-26.697l-6.435-6.443
		c-2.067-2.066-1.308-4.455-1.029-5.145c0.289-0.682,1.44-2.914,4.367-2.914h4.386h4.721h80.254v38.666L297.771,215.787z
		 M158.018,50.862h39.598l-5.754-17.25c-0.527-1.591-0.797-3.248-0.797-4.924c0-8.602,6.99-15.593,15.588-15.593h6.59
		c8.598,0,15.59,6.991,15.59,15.589c0,1.68-0.271,3.337-0.799,4.928l-5.756,17.25h49.041c2.607,0,4.721,2.115,4.721,4.721v35.939
		l-2.123-0.708c-4.342-1.454-8.867-2.186-13.451-2.186c-12.236,0-22.193,9.956-22.193,22.193v12.264
		c0,12.237,9.957,22.194,22.197,22.194c4.576,0,9.094-0.732,13.432-2.177l2.139-0.713v57.463l-61.371-45.004v37.639h-61.371V142.39
		l2.129,0.708c4.344,1.454,8.865,2.187,13.445,2.187c12.24-0.005,22.193-9.961,22.193-22.199v-12.259c0-5.93-2.309-11.51-6.5-15.697
		c-4.193-4.188-9.764-6.496-15.688-6.496c0,0-0.006,0-0.012,0c-4.574,0-9.09,0.732-13.434,2.181l-2.135,0.708V55.583
		C153.297,52.977,155.412,50.862,158.018,50.862L158.018,50.862z M21.112,55.583c0-2.606,2.116-4.721,4.721-4.721h39.599
		l-5.755-17.25c-0.528-1.591-0.797-3.248-0.797-4.924c0-8.602,6.992-15.593,15.588-15.593h6.59c8.597,0,15.588,6.991,15.588,15.589
		c0,1.68-0.268,3.337-0.797,4.928l-5.754,17.25h49.04c2.606,0,4.721,2.115,4.721,4.721v49.044l14.559-4.853
		c3.381-1.123,6.896-1.695,10.451-1.695h0.012c3.402,0,6.604,1.322,9.01,3.734c2.408,2.409,3.734,5.609,3.734,9.017v12.26
		c0,7.029-5.721,12.752-12.75,12.757c-3.561,0-7.076-0.572-10.457-1.7l-14.559-4.853v63.193h-19.828l-22.32-22.32l-6.444,6.434
		c-2.072,2.074-4.461,1.299-5.146,1.029c-0.68-0.283-2.913-1.434-2.913-4.361v-9.107H49.438v9.107c0,2.928-2.233,4.078-2.913,4.367
		c-0.689,0.273-3.063,1.053-5.146-1.035l-6.444-6.43L21.112,183.99V55.583z M124.972,239.701
		c-5.693,0.123-10.561,3.447-12.751,8.744c-2.19,5.287-1.095,11.078,2.842,15.191l-13.36,13.359
		c-4.117-3.939-9.899-5.027-15.192-2.842c-5.292,2.186-8.62,7.059-8.743,12.752H58.875c-0.123-5.693-3.446-10.561-8.744-12.752
		c-5.292-2.186-11.08-1.09-15.191,2.842l-13.356-13.363c3.938-4.113,5.027-9.904,2.842-15.191c-2.195-5.293-7.062-8.617-12.755-8.74
		v-18.893c5.693-0.121,10.561-3.445,12.751-8.742c2.19-5.287,1.096-11.08-2.842-15.193l13.361-13.359
		c4.116,3.938,9.895,5.029,15.191,2.842c5.292-2.189,8.615-7.057,8.744-12.75h18.893c0.123,5.693,3.446,10.561,8.743,12.75
		c5.301,2.195,11.09,1.09,15.192-2.842l13.36,13.359c-3.938,4.113-5.028,9.906-2.842,15.193c2.19,5.291,7.058,8.615,12.751,8.742
		V239.701z M134.414,239.697v-28.326h-9.107c-2.927,0-4.079-2.232-4.367-2.912c-0.283-0.689-1.043-3.072,1.034-5.146l1.383-1.383
		h100.754v-28.447l58.523,42.922l-58.523,50.723v-27.43H134.414z M58.88,112.233c0-7.808-6.354-14.163-14.163-14.163
		c-7.809,0-14.163,6.355-14.163,14.163c0,7.808,6.354,14.163,14.163,14.163C52.525,126.396,58.88,120.041,58.88,112.233z
		 M39.997,112.233c0-2.605,2.114-4.721,4.721-4.721c2.605,0,4.721,2.116,4.721,4.721c0,2.606-2.115,4.722-4.721,4.722
		C42.111,116.955,39.997,114.839,39.997,112.233z M82.483,126.396c7.809,0,14.163-6.355,14.163-14.163
		c0-7.808-6.354-14.163-14.163-14.163c-7.808,0-14.162,6.355-14.162,14.163C68.321,120.041,74.675,126.396,82.483,126.396z
		 M82.483,107.512c2.606,0,4.721,2.116,4.721,4.721c0,2.606-2.115,4.722-4.721,4.722c-2.605,0-4.721-2.116-4.721-4.722
		C77.763,109.627,79.878,107.512,82.483,107.512z M120.251,126.396c7.808,0,14.163-6.355,14.163-14.163
		c0-7.808-6.354-14.163-14.163-14.163c-7.809,0-14.163,6.355-14.163,14.163C106.088,120.041,112.442,126.396,120.251,126.396z
		 M120.251,107.512c2.606,0,4.721,2.116,4.721,4.721c0,2.606-2.115,4.722-4.721,4.722s-4.721-2.116-4.721-4.722
		C115.53,109.627,117.645,107.512,120.251,107.512z"/>
</g>
</svg>
