<?xml version="1.0" encoding="utf-8"?>
<!-- Generator: Adobe Illustrator 16.0.0, SVG Export Plug-In . SVG Version: 6.00 Build 0)  -->
<!DOCTYPE svg PUBLIC "-//W3C//DTD SVG 1.1//EN" "http://www.w3.org/Graphics/SVG/1.1/DTD/svg11.dtd">
<svg version="1.1" id="Layer_1" xmlns="http://www.w3.org/2000/svg" xmlns:xlink="http://www.w3.org/1999/xlink" x="0px" y="0px"
	 width="100px" height="100px" viewBox="0 0 100 100" enable-background="new 0 0 100 100" xml:space="preserve">
<g>
	<path fill="#224653" d="M79.772,28.543l0.476,3.125c1.082-0.163,2.143-0.349,3.188-0.557l-0.624-3.104
		C81.82,28.208,80.805,28.385,79.772,28.543L79.772,28.543z"/>
	<path fill="#224653" d="M85.817,27.327l0.785,3.063c1.074-0.274,2.119-0.577,3.135-0.905l-0.977-3.009
		C87.812,26.782,86.829,27.067,85.817,27.327L85.817,27.327z"/>
	<path fill="#224653" d="M73.612,29.222l0.227,3.155c1.076-0.076,2.147-0.171,3.208-0.289l-0.342-3.144
		C75.68,29.054,74.649,29.147,73.612,29.222z"/>
	<path fill="#224653" d="M79.772,53.848l0.476,3.126c1.082-0.163,2.143-0.351,3.188-0.56l-0.624-3.098
		C81.82,53.513,80.805,53.689,79.772,53.848L79.772,53.848z"/>
	<path fill="#224653" d="M85.817,52.632l0.785,3.063c1.074-0.275,2.119-0.578,3.135-0.902l-0.977-3.012
		C87.812,52.089,86.829,52.373,85.817,52.632L85.817,52.632z"/>
	<path fill="#224653" d="M73.612,54.526l0.227,3.155c1.076-0.077,2.147-0.173,3.208-0.288l-0.342-3.146
		C75.68,54.36,74.649,54.453,73.612,54.526z"/>
	<path fill="#224653" d="M67.396,0.97c-15.333,0-31.63,4.437-31.63,12.655v18.573C28.25,36.184,23.113,44.08,23.113,53.165
		c0,4.758,1.422,9.184,3.843,12.902l-3.052,3.048l-2.374-2.373L3.401,84.874c-1.569,1.567-2.429,3.65-2.429,5.865
		c0,4.573,3.718,8.291,8.292,8.291c2.213,0,4.297-0.858,5.865-2.426l18.13-18.138l-2.374-2.37l3.052-3.052
		c3.718,2.42,8.142,3.841,12.9,3.841c9.084,0,16.983-5.137,20.969-12.655c15.213-0.076,31.223-4.502,31.223-12.649V13.625
		C99.028,5.406,82.729,0.97,67.396,0.97L67.396,0.97z M67.396,4.134c16.775,0,28.467,5.002,28.467,9.491
		c0,4.489-11.691,9.489-28.467,9.489c-16.776,0-28.467-5-28.467-9.489C38.929,9.136,50.62,4.134,67.396,4.134z M12.892,94.366
		c-0.971,0.971-2.258,1.499-3.627,1.499c-2.829,0-5.129-2.299-5.129-5.126c0-1.368,0.533-2.657,1.503-3.628L21.53,71.215
		l7.254,7.252L12.892,94.366z M28.648,73.86l-2.507-2.508l2.734-2.736c0.774,0.896,1.613,1.735,2.509,2.51L28.648,73.86z
		 M46.837,73.724c-11.336,0-20.561-9.224-20.561-20.559c0-11.338,9.225-20.563,20.561-20.563c11.338,0,20.56,9.225,20.56,20.563
		C67.396,64.5,58.175,73.724,46.837,73.724z M69.19,61.038c0.869-2.467,1.371-5.112,1.371-7.873c0-0.558-0.047-1.105-0.084-1.654
		c12.57-0.438,21.126-3.307,25.386-6.926v6.997C95.863,55.908,84.991,60.696,69.19,61.038z M70.072,48.361
		c-0.729-3.513-2.25-6.726-4.343-9.486c0.561,0.012,1.11,0.055,1.667,0.055c11.242,0,22.992-2.386,28.467-6.895v6.895
		C95.863,43.082,85.334,47.852,70.072,48.361L70.072,48.361z M67.396,35.766c-1.559,0-3.113-0.061-4.648-0.148
		c-4.215-3.825-9.786-6.179-15.911-6.179c-2.775,0-5.428,0.506-7.908,1.384V19.38c5.477,4.511,17.23,6.897,28.467,6.897
		c11.242,0,22.992-2.387,28.467-6.897v6.897C95.863,30.766,84.172,35.766,67.396,35.766z"/>
	<path fill="#224653" d="M67.396,19.951c2.267,0,22.145-0.177,22.145-6.326c0-6.149-19.878-6.328-22.145-6.328
		c-2.266,0-22.141,0.179-22.141,6.328C45.256,19.773,65.131,19.951,67.396,19.951z M67.396,10.462
		c10.959,0,17.758,1.949,18.892,3.163c-1.134,1.213-7.933,3.163-18.892,3.163c-10.956,0-17.756-1.95-18.891-3.163
		C49.64,12.412,56.44,10.462,67.396,10.462z"/>
	<path fill="#224653" d="M13.623,26.277h18.98V13.625c0-6.977-5.677-12.655-12.652-12.655h-6.329
		c-6.975,0-12.651,5.679-12.651,12.655C0.972,20.601,6.648,26.277,13.623,26.277z M13.623,4.134h6.329
		c5.23,0,9.488,4.257,9.488,9.491v9.489H13.623c-5.231,0-9.488-4.254-9.488-9.489S8.392,4.134,13.623,4.134z"/>
	<path fill="#224653" d="M87.957,67.396H67.396v11.07c0,6.108,4.967,11.076,11.071,11.076h9.489c6.105,0,11.071-4.968,11.071-11.076
		C99.028,72.366,94.063,67.396,87.957,67.396z M87.957,86.376h-9.489c-4.358,0-7.906-3.542-7.906-7.909v-7.906h17.396
		c4.363,0,7.906,3.548,7.906,7.906C95.863,82.834,92.32,86.376,87.957,86.376z"/>
	<path fill="#224653" d="M26.276,16.788h-3.164V7.297h-3.161v9.491h-3.164v-6.326h-3.165v6.326h-3.162V7.297H7.298v12.653h18.978
		V16.788z"/>
	<path fill="#224653" d="M46.837,35.766c-9.592,0-17.397,7.806-17.397,17.399c0,9.591,7.806,17.396,17.397,17.396
		c9.593,0,17.399-7.805,17.399-17.396C64.236,43.572,56.43,35.766,46.837,35.766z M60.115,48.085
		c-11.046-1.023-18.229-4.158-20.443-7.2c2.108-1.235,4.552-1.955,7.165-1.955C52.894,38.93,58.066,42.74,60.115,48.085z
		 M32.604,53.165c0-3.38,1.188-6.484,3.163-8.928v7.344c0,5.629,8.074,10.185,20.818,11.928c-2.55,2.402-5.976,3.888-9.747,3.888
		C38.991,67.396,32.604,61.013,32.604,53.165L32.604,53.165z M58.946,60.609c-12.999-1.428-20.017-5.662-20.017-9.028v-6.939
		c4.141,3.439,12.063,5.899,22.009,6.678c0.079,0.607,0.131,1.218,0.131,1.846C61.069,55.895,60.287,58.438,58.946,60.609z"/>
	<path fill="#224653" d="M73.724,73.724h3.164v3.162h-3.164V73.724z"/>
	<path fill="#224653" d="M80.049,73.724h3.166v3.162h-3.166V73.724z"/>
	<path fill="#224653" d="M73.724,80.05h18.979v3.165H73.724V80.05z"/>
	<path fill="#224653" d="M86.376,73.724h3.165v3.162h-3.165V73.724z"/>
</g>
</svg>
