<?xml version="1.0" encoding="utf-8"?>
<!-- Generator: Adobe Illustrator 16.0.0, SVG Export Plug-In . SVG Version: 6.00 Build 0)  -->
<!DOCTYPE svg PUBLIC "-//W3C//DTD SVG 1.1//EN" "http://www.w3.org/Graphics/SVG/1.1/DTD/svg11.dtd">
<svg version="1.1" id="Layer_1" xmlns="http://www.w3.org/2000/svg" xmlns:xlink="http://www.w3.org/1999/xlink" x="0px" y="0px"
	 width="300px" height="300px" viewBox="0 0 300 300" enable-background="new 0 0 300 300" xml:space="preserve">
<path fill="#000" d="M45.132,121.399v104.869c0,13.143,10.69,23.834,23.833,23.834h33.367v19.065H83.265
	c-5.258,0-9.533,4.277-9.533,9.535v9.533c0,5.258,4.275,9.533,9.533,9.533h133.469c5.258,0,9.535-4.275,9.535-9.533v-9.533
	c0-5.258-4.277-9.535-9.535-9.535h-19.066v-19.065h33.366c13.144,0,23.835-10.691,23.835-23.834V121.399
	c0-13.143-10.691-23.833-23.835-23.833h-19.066v-8.142l-8.704-3.075c-0.294-0.748-0.604-1.497-0.934-2.246l3.984-8.332
	l-24.987-24.997l-8.337,3.985c-0.739-0.328-1.491-0.639-2.244-0.934l-3.071-8.694h-35.35l-3.069,8.704
	c-0.753,0.295-1.502,0.606-2.245,0.934l-8.337-3.985L93.685,75.782l3.985,8.332c-0.329,0.749-0.643,1.498-0.935,2.246l-8.704,3.065
	v8.142H68.965C55.822,97.566,45.132,108.257,45.132,121.399L45.132,121.399z M216.739,288.236H83.265v-9.533h133.469
	L216.739,288.236z M188.133,269.168h-76.267v-19.065h76.267V269.168z M231.033,240.568H68.965c-7.885,0-14.301-6.415-14.301-14.3
	v-14.301h190.67v14.301C245.334,234.153,238.919,240.568,231.033,240.568z M245.334,121.399v81.035H54.664v-81.035
	c0-7.883,6.416-14.301,14.301-14.301h162.068C238.919,107.099,245.334,113.516,245.334,121.399z M123.068,97.566
	c3.975-11.168,14.699-19.067,26.932-19.067c12.231,0,22.957,7.899,26.932,19.067H123.068z M97.565,96.174l6.64-2.341l0.744-2.183
	c0.62-1.812,1.382-3.646,2.273-5.463l1.02-2.074l-3.045-6.358l15.453-15.454l6.364,3.042l2.078-1.021
	c1.787-0.881,3.627-1.644,5.462-2.273l2.185-0.748l2.335-6.636h21.851l2.341,6.636l2.183,0.748c1.835,0.629,3.676,1.392,5.463,2.273
	l2.078,1.021l6.364-3.042l15.453,15.454l-3.045,6.358l1.02,2.074c0.891,1.817,1.653,3.651,2.273,5.463l0.745,2.183l6.634,2.341
	v1.392h-15.529c-4.29-16.56-19.458-28.601-36.904-28.601s-32.614,12.041-36.904,28.601h-15.53V96.174z M135.699,226.269
	c0,2.631-2.135,4.767-4.767,4.767s-4.767-2.136-4.767-4.767c0-2.632,2.135-4.768,4.767-4.768S135.699,223.637,135.699,226.269z
	 M154.766,226.269c0,2.631-2.135,4.767-4.766,4.767c-2.632,0-4.767-2.136-4.767-4.767c0-2.632,2.135-4.768,4.767-4.768
	C152.631,221.501,154.766,223.637,154.766,226.269z M173.834,226.269c0,2.631-2.136,4.767-4.768,4.767
	c-2.631,0-4.767-2.136-4.767-4.767c0-2.632,2.136-4.768,4.767-4.768C171.698,221.501,173.834,223.637,173.834,226.269z M150,2.23
	c23.476,0,46.19,5.844,66.477,17.003l-4.172-10.473l8.854-3.528l9.533,23.925c0.781,1.955,0.186,4.19-1.469,5.5
	c-0.862,0.681-1.907,1.029-2.954,1.029c-0.954,0-1.904-0.286-2.727-0.857C201.909,19.739,176.479,11.765,150,11.765
	c-26.479,0-51.91,7.975-73.542,23.066L71,27.008C94.248,10.801,121.561,2.23,150,2.23z M2.23,150
	c0-23.476,5.844-46.19,16.998-66.477L8.761,87.694l-3.527-8.853l23.924-9.533c1.955-0.787,4.195-0.182,5.497,1.463
	c1.306,1.649,1.382,3.966,0.176,5.692C19.738,98.095,11.765,123.525,11.765,150s7.974,51.905,23.065,73.541L27.008,229
	C10.801,205.751,2.23,178.435,2.23,150z M272.991,71.005C289.199,94.248,297.77,121.566,297.77,150
	c0,23.477-5.844,46.189-16.999,66.478l10.47-4.171l3.524,8.852l-23.923,9.533c-0.571,0.233-1.172,0.344-1.765,0.344
	c-1.424,0-2.812-0.639-3.732-1.802c-1.306-1.65-1.383-3.966-0.175-5.692c15.091-21.636,23.065-47.066,23.065-73.541
	s-7.975-51.905-23.065-73.542L272.991,71.005z M145.09,194.06l-9.243-2.313l19.067-76.268l9.242,2.312L145.09,194.06z
	 M171.064,174.72l27.932-19.953l-27.932-19.954l5.539-7.76l38.801,27.713l-38.801,27.714L171.064,174.72z M123.396,182.48
	l-38.802-27.714l38.802-27.713l5.539,7.76l-27.934,19.954l27.934,19.953L123.396,182.48z"/>
</svg>
