<svg id="Layer_1" height="512" viewBox="0 0 50 50" width="512" xmlns="http://www.w3.org/2000/svg"><g><g><g><g style="fill:none;stroke:#000;stroke-linecap:round;stroke-linejoin:round;stroke-miterlimit:10;stroke-width:1.5"><path d="m22.7 3.2v20.6h-4.9c-.8 0-1.5.7-1.5 1.5v4.9h-13.1c-.8 0-1.5-.7-1.5-1.5v-25.5c0-.8.7-1.5 1.5-1.5h17.9c.9 0 1.6.7 1.6 1.5z"/><path d="m22.7 23.9-6.4 6.3"/></g></g></g><g><g><g style="fill:none;stroke:#000;stroke-linecap:round;stroke-linejoin:round;stroke-miterlimit:10;stroke-width:1.5"><path d="m48.3 21.3v20.6h-4.9c-.8 0-1.5.7-1.5 1.5v4.9h-13.1c-.8 0-1.5-.7-1.5-1.5v-25.5c0-.8.7-1.5 1.5-1.5h17.9c.9 0 1.6.7 1.6 1.5z"/><path d="m48.3 41.9-6.4 6.3"/></g></g></g><g style="fill:none;stroke:#000;stroke-linecap:round;stroke-linejoin:round;stroke-miterlimit:10;stroke-width:1.5"><g><g><circle cx="18.4" cy="38.8" r="1.9"/><path d="m23.2 39.9 1.4-.2v-1.9l-1.4-.2c-.1-.5-.3-1-.6-1.5l.8-1.1-1.3-1.3-1.1.8c-.5-.3-1-.5-1.5-.6l-.2-1.4h-1.9l-.2 1.4c-.5.1-1 .3-1.5.6l-1.1-.8-1.2 1.3.8 1.1c-.3.5-.5 1-.6 1.5l-1.4.2v1.9l1.4.2c.1.5.3 1 .6 1.5l-.8 1.1 1.3 1.3 1.1-.8c.5.3 1 .5 1.5.6l.2 1.4h1.9l.2-1.4c.5-.1 1-.3 1.5-.6l1.1.8 1.3-1.3-.8-1.1c.2-.5.4-1 .5-1.5z"/></g><g><circle cx="31.6" cy="11.2" r="1.9"/><path d="m36.4 12.4 1.4-.2v-1.9l-1.4-.2c-.1-.5-.3-1-.6-1.5l.8-1.1-1.3-1.3-1.1.8c-.5-.3-1-.5-1.5-.6l-.2-1.4h-1.9l-.2 1.4c-.4.1-.9.3-1.4.6l-1.1-.8-1.3 1.3.8 1.1c-.3.5-.5 1-.6 1.5l-1.4.2v1.9l1.4.2c.1.5.3 1 .6 1.5l-.8 1.1 1.3 1.3 1.1-.8c.5.3 1 .5 1.5.6l.2 1.4h1.9l.2-1.4c.5-.1 1-.3 1.5-.6l1.1.8 1.3-1.3-.8-1.1c.2-.5.4-1 .5-1.5z"/></g></g><g><path d="m11.6 46.5h-6.9c-1.6 0-2.9-1.3-2.9-2.9v-6.9"/><path d="m10.1 44.7 1.8 1.8-1.8 1.7"/></g><g><path d="m38.4 3.5h6.9c1.6 0 2.9 1.3 2.9 2.9v6.9"/><path d="m39.9 5.3-1.8-1.8 1.8-1.8"/></g><g><path d="m10.9 26.1h1.1"/><path d="m5.2 26.1h2.7"/><path d="m14.5 22.1h4.7"/><path d="m5.2 22.1h6.6"/><path d="m17.8 18h1.4"/><path d="m11.2 18h3.6"/><path d="m5.2 18h3.1"/><path d="m11.9 13.9h7.4"/><path d="m5.2 13.9h4.1"/><path d="m16.2 9.9h3.1"/><path d="m5.2 9.9h8.3"/><path d="m10.6 5.8h8.6"/><path d="m5.2 5.8h2.7"/></g><g><path d="m36.5 44.2h1.1"/><path d="m30.8 44.2h2.7"/><path d="m40.1 40.1h4.7"/><path d="m30.8 40.1h6.6"/><path d="m43.4 36.1h1.4"/><path d="m36.8 36.1h3.6"/><path d="m30.8 36.1h3.1"/><path d="m37.5 32h7.4"/><path d="m30.8 32h4.1"/><path d="m41.7 27.9h3.1"/><path d="m30.8 27.9h8.3"/><path d="m36.2 23.9h8.6"/><path d="m30.8 23.9h2.7"/></g></g></g></svg>