<svg id="Layer_1" height="512" viewBox="0 0 64 64" width="512" xmlns="http://www.w3.org/2000/svg" data-name="Layer 1"><path d="m38 25a3.00328 3.00328 0 0 0 -3-3h-12a3.00328 3.00328 0 0 0 -3 3v2a2.97711 2.97711 0 0 0 .78027 2 2.97711 2.97711 0 0 0 -.78027 2v2a2.97711 2.97711 0 0 0 .78027 2 2.97711 2.97711 0 0 0 -.78027 2v2a3.00328 3.00328 0 0 0 3 3h12a3.00328 3.00328 0 0 0 3-3v-2a2.97711 2.97711 0 0 0 -.78027-2 2.97711 2.97711 0 0 0 .78027-2v-2a2.97711 2.97711 0 0 0 -.78027-2 2.97711 2.97711 0 0 0 .78027-2zm-2 14a1.001 1.001 0 0 1 -1 1h-12a1.001 1.001 0 0 1 -1-1v-2a1.001 1.001 0 0 1 1-1h12a1.001 1.001 0 0 1 1 1zm0-6a1.001 1.001 0 0 1 -1 1h-12a1.001 1.001 0 0 1 -1-1v-2a1.001 1.001 0 0 1 1-1h12a1.001 1.001 0 0 1 1 1zm0-6a1.001 1.001 0 0 1 -1 1h-12a1.001 1.001 0 0 1 -1-1v-2a1.001 1.001 0 0 1 1-1h12a1.001 1.001 0 0 1 1 1z"/><path d="m23 25h2v2h-2z"/><path d="m27 25h8v2h-8z"/><path d="m23 31h2v2h-2z"/><path d="m27 31h8v2h-8z"/><path d="m23 37h2v2h-2z"/><path d="m27 37h8v2h-8z"/><path d="m28.0835 12.7998a19.2002 19.2002 0 1 0 16.38037 29.22168l-1.70508-1.04492a17.1992 17.1992 0 1 1 .4541-17.167l1.75781-.95312a19.20017 19.20017 0 0 0 -16.8872-10.05664z"/><path d="m49.1709 44.59473a1.52043 1.52043 0 0 1 -.21338-1.78711l-1.77441-.92188a3.50981 3.50981 0 0 0 .57373 4.123l.60839.6084a24.98357 24.98357 0 0 1 -5.66406 5.665l-.60888-.60938a3.50929 3.50929 0 0 0 -4.123-.57324 21.39325 21.39325 0 0 1 -3.376 1.40234 3.50976 3.50976 0 0 0 -2.50439 3.31739v.85156a24.58342 24.58342 0 0 1 -8.01075 0v-.85156a3.50991 3.50991 0 0 0 -2.5039-3.31739 21.40673 21.40673 0 0 1 -3.377-1.40332 3.51306 3.51306 0 0 0 -4.12207.57422l-.60889.60938a24.964 24.964 0 0 1 -5.66406-5.665l.60839-.6084a3.50951 3.50951 0 0 0 .57325-4.123 21.43009 21.43009 0 0 1 -1.40235-3.376 3.50963 3.50963 0 0 0 -3.31689-2.50489h-.85154a24.50259 24.50259 0 0 1 0-8.01074h.85156a3.50825 3.50825 0 0 0 3.31689-2.50391 21.43009 21.43009 0 0 1 1.40235-3.376 3.50951 3.50951 0 0 0 -.57325-4.12305l-.60839-.6084a24.964 24.964 0 0 1 5.66406-5.665l.60889.60938a3.50771 3.50771 0 0 0 4.12255.57324 21.41621 21.41621 0 0 1 3.376-1.40234 3.50976 3.50976 0 0 0 2.50439-3.31739v-.85154a24.61058 24.61058 0 0 1 8.01075 0v.85156a3.50991 3.50991 0 0 0 2.5039 3.31739 21.38307 21.38307 0 0 1 3.37647 1.40234 3.51229 3.51229 0 0 0 4.12353-.57324l.60791-.60938a24.9758 24.9758 0 0 1 5.66455 5.665l-.60839.6084a3.50981 3.50981 0 0 0 -.57373 4.12305l1.77441-.92188a1.52043 1.52043 0 0 1 .21338-1.78711l1.20068-1.20019a1 1 0 0 0 .12256-1.26563 27.01132 27.01132 0 0 0 -7.35016-7.34957.9968.9968 0 0 0 -1.26611.12207l-1.19971 1.20118a1.51534 1.51534 0 0 1 -1.78662.21191 23.52966 23.52966 0 0 0 -3.69287-1.5332 1.49918 1.49918 0 0 1 -1.10986-1.41114v-1.68847a1 1 0 0 0 -.8086-.98145 26.81976 26.81976 0 0 0 -10.39355 0 1 1 0 0 0 -.8086.98145v1.68847a1.49906 1.49906 0 0 1 -1.11031 1.41114 23.519 23.519 0 0 0 -3.69189 1.5332 1.51565 1.51565 0 0 1 -1.78662-.21191l-1.20069-1.20118a.99618.99618 0 0 0 -1.26557-.12207 26.996 26.996 0 0 0 -7.34961 7.34961.99993.99993 0 0 0 .12256 1.26563l1.20068 1.20019a1.50174 1.50174 0 0 1 .21289 1.78711 23.38611 23.38611 0 0 0 -1.53418 3.69239 1.49916 1.49916 0 0 1 -1.41064 1.10937h-1.68853a1 1 0 0 0 -.98144.80859 26.66889 26.66889 0 0 0 0 10.39356 1 1 0 0 0 .98144.80859h1.68848a1.49894 1.49894 0 0 1 1.41064 1.11035 23.38611 23.38611 0 0 0 1.53418 3.69239 1.50174 1.50174 0 0 1 -.21289 1.78711l-1.20068 1.20019a.99993.99993 0 0 0 -.12256 1.26563 26.996 26.996 0 0 0 7.34966 7.34961.99729.99729 0 0 0 1.26562-.12207l1.20069-1.20118a1.52085 1.52085 0 0 1 1.78613-.21386 23.38558 23.38558 0 0 0 3.69287 1.53515 1.49918 1.49918 0 0 1 1.10986 1.41114v1.68847a1 1 0 0 0 .8086.98145 26.69394 26.69394 0 0 0 10.39355 0 1 1 0 0 0 .8086-.98145v-1.68847a1.49906 1.49906 0 0 1 1.11035-1.41114 23.35064 23.35064 0 0 0 3.69184-1.5342 1.51953 1.51953 0 0 1 1.78711.21289l1.20069 1.20118a.99747.99747 0 0 0 1.26562.12207 26.996 26.996 0 0 0 7.34961-7.34961 1 1 0 0 0 -.12256-1.26563z"/><path d="m60 37a2.99507 2.99507 0 0 0 -2.81573 2h-1.64911l-1.70316-2.55469a.99963.99963 0 0 0 -.832-.44531h-7v2h6.46484l1.70316 2.55469a.99963.99963 0 0 0 .832.44531h2.18433a2.99472 2.99472 0 1 0 2.81567-4zm0 4a1 1 0 1 1 1-1 1.001 1.001 0 0 1 -1 1z"/><path d="m58 35a3 3 0 1 0 -2.81573-4h-14.18427v2h14.18433a2.995 2.995 0 0 0 2.81567 2zm0-4a1 1 0 1 1 -1 1 1.001 1.001 0 0 1 1-1z"/><path d="m60 21a2.99507 2.99507 0 0 0 -2.81573 2h-2.18427a.99963.99963 0 0 0 -.832.44531l-1.70316 2.55469h-6.46484v2h7a.99963.99963 0 0 0 .832-.44531l1.70316-2.55469h1.64917a2.99472 2.99472 0 1 0 2.81567-4zm0 4a1 1 0 1 1 1-1 1.001 1.001 0 0 1 -1 1z"/><path d="m42 36h2v2h-2z"/><path d="m42 26h2v2h-2z"/></svg>