<svg id="Layer_1_1_" enable-background="new 0 0 64 64" height="512" viewBox="0 0 64 64" width="512" xmlns="http://www.w3.org/2000/svg"><path d="m32 13c-2.757 0-5 2.243-5 5s2.243 5 5 5 5-2.243 5-5-2.243-5-5-5zm0 8c-1.654 0-3-1.346-3-3s1.346-3 3-3 3 1.346 3 3-1.346 3-3 3z"/><path d="m42 21c.553 0 1-.447 1-1v-4c0-.553-.447-1-1-1l-1.537-.04c-.096-.271-.206-.534-.348-.833l1.077-1.077c.391-.391.391-1.023 0-1.414l-2.828-2.828c-.391-.391-1.023-.391-1.414 0l-1.118 1.057c-.258-.122-.521-.232-.832-.341v-1.524c0-.553-.447-1-1-1h-4c-.553 0-1 .447-1 1l-.04 1.537c-.271.096-.534.206-.833.348l-1.077-1.077c-.391-.391-1.023-.391-1.414 0l-2.828 2.828c-.391.391-.391 1.023 0 1.414l1.057 1.118c-.121.258-.231.521-.34.832h-1.525c-.553 0-1 .447-1 1v4c0 .553.447 1 1 1l1.537.04c.096.271.206.534.348.833l-1.077 1.077c-.391.391-.391 1.023 0 1.414l2.828 2.828c.391.391 1.023.391 1.414 0l1.118-1.057c.258.121.521.231.832.34v1.525c0 .553.447 1 1 1h4c.553 0 1-.447 1-1l.04-1.537c.271-.096.534-.206.833-.348l1.077 1.077c.391.391 1.023.391 1.414 0l2.828-2.828c.391-.391.391-1.023 0-1.414l-1.057-1.118c.121-.258.231-.521.34-.832zm-3.299 2.287.37.37-1.414 1.414-.37-.37c-.603-.604-1.511-.75-2.309-.374-.197.094-.4.177-.612.253-.83.299-1.366 1.043-1.366 1.896v.524h-2v-.524c0-.853-.536-1.597-1.37-1.897-.208-.074-.411-.157-.609-.252-.798-.373-1.705-.228-2.308.375l-.37.37-1.414-1.414.37-.37c.604-.604.75-1.509.374-2.309-.094-.197-.177-.4-.253-.612-.299-.831-1.043-1.367-1.896-1.367h-.524v-2h.524c.853 0 1.597-.536 1.897-1.37.074-.208.157-.411.252-.609.375-.799.229-1.704-.375-2.308l-.37-.37 1.414-1.414.37.37c.603.603 1.511.751 2.309.374.197-.094.4-.177.612-.253.831-.299 1.367-1.043 1.367-1.896v-.524h2v.524c0 .853.536 1.597 1.37 1.897.208.074.411.157.609.252.799.375 1.706.228 2.308-.375l.37-.37 1.414 1.414-.37.37c-.604.604-.75 1.509-.374 2.309.094.197.177.4.253.612.299.831 1.043 1.367 1.896 1.367h.524v2h-.524c-.853 0-1.597.536-1.897 1.37-.074.208-.157.411-.252.609-.376.799-.229 1.705.374 2.308z"/><path d="m16 18h2c0-7.72 6.28-14 14-14 5.924 0 11.23 3.751 13.204 9.333.14.397.514.664.935.667h.008c.418 0 .792-.26.938-.652l1.854-5-1.875-.695-1.003 2.704c-2.768-5.084-8.145-8.357-14.061-8.357-8.822 0-16 7.178-16 16z"/><path d="m16.969 28.248.768-2.992c2.689 5.271 8.176 8.744 14.263 8.744 8.822 0 16-7.178 16-16h-2c0 7.72-6.28 14-14 14-6.278 0-11.828-4.222-13.497-10.266-.12-.434-.515-.734-.964-.734-.003 0-.006 0-.009 0-.453.004-.848.312-.96.752l-1.539 6z"/><path d="m3 54h10v2c0 .391.228.745.582.908.134.062.276.092.418.092.234 0 .466-.082.65-.241l7-6c.222-.19.35-.467.35-.759s-.128-.569-.35-.759l-7-6c-.296-.255-.713-.312-1.068-.149-.354.163-.582.517-.582.908v2h-10c-.553 0-1 .447-1 1v6c0 .553.447 1 1 1zm1-6h10c.553 0 1-.447 1-1v-.826l4.464 3.826-4.464 3.826v-.826c0-.553-.447-1-1-1h-10z"/><path d="m62 53v-6c0-.553-.447-1-1-1h-10v-2c0-.391-.228-.745-.582-.908-.355-.163-.772-.105-1.068.149l-7 6c-.222.19-.35.467-.35.759s.128.569.35.759l7 6c.184.159.416.241.65.241.142 0 .284-.03.418-.092.354-.163.582-.517.582-.908v-2h10c.553 0 1-.447 1-1zm-2-1h-10c-.553 0-1 .447-1 1v.826l-4.464-3.826 4.464-3.826v.826c0 .553.447 1 1 1h10z"/><path d="m9 56v5c0 .553.447 1 1 1h44c.553 0 1-.447 1-1v-5h-2v4h-20v-7c0-.553-.447-1-1-1h-3c-1.103 0-2-.897-2-2s.897-2 2-2h3c.553 0 1-.447 1-1v-7h20v4h2v-5c0-.553-.447-1-1-1h-44c-.553 0-1 .447-1 1v5h2v-4h20v6h-2c-2.206 0-4 1.794-4 4s1.794 4 4 4h2v6h-20v-4z"/></svg>