<?xml version="1.0" encoding="utf-8"?>
<!-- Generator: Adobe Illustrator 16.0.0, SVG Export Plug-In . SVG Version: 6.00 Build 0)  -->
<!DOCTYPE svg PUBLIC "-//W3C//DTD SVG 1.1//EN" "http://www.w3.org/Graphics/SVG/1.1/DTD/svg11.dtd">
<svg version="1.1" id="Layer_1" xmlns="http://www.w3.org/2000/svg" xmlns:xlink="http://www.w3.org/1999/xlink" x="0px" y="0px"
	 width="100px" height="100px" viewBox="0 0 100 100" enable-background="new 0 0 100 100" xml:space="preserve">
<g>
	<path fill="#224653" d="M30.513,58.391l-2.241,2.242l7.567,7.568l16.962-20.357l-2.433-2.029l-14.742,17.69L30.513,58.391z"/>
	<path fill="#224653" d="M11.952,16.708c2.622,0,4.755-2.133,4.755-4.756c0-2.622-2.133-4.755-4.755-4.755
		c-2.621,0-4.754,2.134-4.754,4.755C7.198,14.576,9.331,16.708,11.952,16.708z M11.952,10.368c0.874,0,1.585,0.712,1.585,1.585
		c0,0.873-0.711,1.586-1.585,1.586c-0.873,0-1.585-0.713-1.585-1.586C10.367,11.08,11.079,10.368,11.952,10.368z"/>
	<path fill="#224653" d="M24.635,16.708c2.623,0,4.756-2.133,4.756-4.756c0-2.622-2.133-4.755-4.756-4.755
		c-2.62,0-4.755,2.134-4.755,4.755C19.88,14.576,22.015,16.708,24.635,16.708z M24.635,10.368c0.875,0,1.586,0.712,1.586,1.585
		c0,0.873-0.711,1.586-1.586,1.586s-1.586-0.713-1.586-1.586C23.049,11.08,23.76,10.368,24.635,10.368z"/>
	<path fill="#224653" d="M37.318,16.708c2.621,0,4.756-2.133,4.756-4.756c0-2.622-2.135-4.755-4.756-4.755
		c-2.623,0-4.756,2.134-4.756,4.755C32.563,14.576,34.695,16.708,37.318,16.708z M37.318,10.368c0.873,0,1.584,0.712,1.584,1.585
		c0,0.873-0.711,1.586-1.584,1.586c-0.875,0-1.586-0.713-1.586-1.586C35.732,11.08,36.443,10.368,37.318,10.368z"/>
	<path fill="#224653" d="M99.146,40.488c0-10.829-8.404-19.714-19.026-20.528V5.612c0-2.622-2.133-4.756-4.756-4.756H5.612
		c-2.623,0-4.758,2.134-4.758,4.756v88.777c0,2.621,2.135,4.756,4.758,4.756h72.922c4.374,0,7.928-3.555,7.928-7.926V67.439
		c0-1.75-1.421-3.172-3.171-3.172v-3.744C92.368,58.367,99.146,50.214,99.146,40.488z M95.975,40.488
		c0,9.615-7.825,17.438-17.44,17.438c-9.613,0-17.438-7.823-17.438-17.438c0-9.615,7.825-17.438,17.438-17.438
		C88.149,23.05,95.975,30.873,95.975,40.488z M58.109,43.091c0.384,3.031,1.431,5.855,2.986,8.331v4.223
		c0,12.814-8.453,24.098-20.609,27.586C28.332,79.742,19.88,68.461,19.88,55.645V43.502c7.648-0.865,14.57-2.875,20.606-5.981
		C45.733,40.222,51.656,42.086,58.109,43.091z M57.96,39.857c-6.158-1.024-11.784-2.871-16.724-5.523l-0.75-0.4l-0.749,0.4
		c-6.207,3.33-13.473,5.404-21.59,6.16l-1.44,0.133v15.017c0,14.389,9.61,27.041,23.368,30.762l0.411,0.111l0.414-0.111
		c13.757-3.723,23.367-16.373,23.367-30.762v-0.318c0.944,0.906,1.975,1.727,3.081,2.445c-0.933,15.354-11.834,28.322-26.862,31.82
		c-15.885-3.695-26.949-17.604-26.949-33.949V37.311c9.514-0.123,18.797-2.757,26.949-7.648c5.528,3.316,11.521,5.571,17.849,6.739
		C58.109,37.525,57.995,38.682,57.96,39.857L57.96,39.857z M5.612,4.026h69.751c0.877,0,1.588,0.711,1.588,1.585V19.88H4.026V5.612
		C4.026,4.738,4.738,4.026,5.612,4.026z M4.026,94.389V23.05h63.575c-3.816,2.399-6.782,6.008-8.374,10.292
		c-6.371-1.138-12.394-3.439-17.899-6.879l-0.842-0.526l-0.84,0.526c-8.046,5.027-17.311,7.685-26.799,7.685h-2.48v21.497
		c0,17.961,12.245,33.225,29.777,37.123l0.342,0.074l0.346-0.074c16.112-3.582,27.954-17.115,29.566-33.352
		c1.078,0.465,2.216,0.826,3.381,1.104v3.748c-1.75,0-3.172,1.422-3.172,3.172v23.779c0,1.789,0.62,3.426,1.628,4.756H5.612
		C4.738,95.975,4.026,95.264,4.026,94.389z M83.291,67.439v3.17h-9.512v-3.17H83.291z M78.534,95.975
		c-2.622,0-4.755-2.133-4.755-4.756V73.779h9.512v17.439C83.291,93.842,81.158,95.975,78.534,95.975z M80.119,64.268h-3.168v-3.25
		c0.525,0.039,1.051,0.078,1.583,0.078c0.534,0,1.06-0.039,1.585-0.078V64.268z"/>
	<path fill="#224653" d="M76.951,38.903h3.168v3.171h-3.168V38.903z"/>
	<path fill="#224653" d="M83.291,38.903h3.171v3.171h-3.171V38.903z"/>
	<path fill="#224653" d="M70.607,38.903h3.172v3.171h-3.172V38.903z"/>
</g>
</svg>
