<?xml version="1.0" encoding="UTF-8"?>
<svg xmlns="http://www.w3.org/2000/svg" xmlns:xlink="http://www.w3.org/1999/xlink" version="1.1" id="Capa_1" x="0px" y="0px" viewBox="0 0 512 512" style="enable-background:new 0 0 512 512;" xml:space="preserve" width="512" height="512">
<g>
	<path style="fill:none;stroke:#000000;stroke-width:15;stroke-linecap:round;stroke-linejoin:round;stroke-miterlimit:10;" d="&#10;&#9;&#9;M481.544,322.008c3.504,12.414,5.378,25.511,5.378,39.047c0,79.223-64.223,143.445-143.445,143.445&#10;&#9;&#9;c-42.853,0-81.318-18.791-107.602-48.584"/>
	<g>
		<path style="fill:none;stroke:#000000;stroke-width:15;stroke-linecap:round;stroke-linejoin:round;stroke-miterlimit:10;" d="&#10;&#9;&#9;&#9;M284.602,118.961c-5.938-2.916-13.312-1.919-18.251,3.02l-16.973,16.973c-4.605,4.605-11.578,5.995-17.533,3.357&#10;&#9;&#9;&#9;c-1.85-0.82-3.723-1.595-5.62-2.324c-6.08-2.338-10.026-8.26-10.026-14.773v-24.005c0-8.783-7.12-15.904-15.903-15.904h-36.229&#10;&#9;&#9;&#9;c-8.783,0-15.903,7.12-15.903,15.904v24.005c0,6.514-3.947,12.435-10.026,14.773c-1.896,0.729-3.77,1.504-5.62,2.324&#10;&#9;&#9;&#9;c-5.955,2.639-12.928,1.249-17.533-3.357L98.013,121.98c-6.211-6.21-16.28-6.21-22.491,0l-25.617,25.618&#10;&#9;&#9;&#9;c-6.211,6.21-6.211,16.28,0,22.491l16.973,16.973c4.605,4.605,5.995,11.578,3.357,17.533c-0.82,1.85-1.595,3.723-2.324,5.62&#10;&#9;&#9;&#9;c-2.338,6.08-8.26,10.026-14.773,10.026H29.131c-8.783,0-15.903,7.12-15.903,15.903v36.229c0,8.783,7.12,15.903,15.903,15.903&#10;&#9;&#9;&#9;h24.005c6.514,0,12.435,3.947,14.773,10.026c0.729,1.897,1.504,3.771,2.324,5.62c2.639,5.955,1.249,12.927-3.357,17.533&#10;&#9;&#9;&#9;l-16.973,16.973c-6.211,6.211-6.211,16.28,0,22.491l25.617,25.618c6.211,6.21,16.28,6.21,22.491,0l16.973-16.973&#10;&#9;&#9;&#9;c4.605-4.605,11.578-5.995,17.533-3.357c1.85,0.82,3.723,1.595,5.62,2.324c6.08,2.338,10.026,8.26,10.026,14.773v24.005&#10;&#9;&#9;&#9;c0,8.783,7.12,15.904,15.903,15.904h36.229c8.783,0,15.903-7.12,15.903-15.904v-24.005c0-6.514,3.947-12.435,10.026-14.773&#10;&#9;&#9;&#9;c1.896-0.729,3.77-1.504,5.62-2.324c5.424-2.404,11.687-1.455,16.242,2.212"/>
		<path style="fill:none;stroke:#000000;stroke-width:15;stroke-linecap:round;stroke-linejoin:round;stroke-miterlimit:10;" d="&#10;&#9;&#9;&#9;M113.096,271.758c7.801,30.892,35.77,53.758,69.085,53.758c39.354,0,71.258-31.903,71.258-71.258S221.536,183,182.182,183&#10;&#9;&#9;&#9;c-33.315,0-61.284,22.866-69.085,53.758"/>
		
			<circle style="fill:none;stroke:#000000;stroke-width:15;stroke-linecap:round;stroke-linejoin:round;stroke-miterlimit:10;" cx="182.182" cy="254.258" r="34.77"/>
	</g>
	<g>
		<g>
			<path style="fill:none;stroke:#000000;stroke-width:15;stroke-linecap:round;stroke-linejoin:round;stroke-miterlimit:10;" d="&#10;&#9;&#9;&#9;&#9;M413.581,96.947h-68.309c-3.69,0-6.68-2.991-6.68-6.68V51.223c0-24.329-19.86-43.979-44.188-43.721h0&#10;&#9;&#9;&#9;&#9;c-5.43,0.058-9.802,4.476-9.802,9.907V43"/>
			
				<line style="fill:none;stroke:#000000;stroke-width:15;stroke-linecap:round;stroke-linejoin:round;stroke-miterlimit:10;" x1="405.533" y1="288.248" x2="422.837" y2="288.248"/>
			<path style="fill:none;stroke:#000000;stroke-width:15;stroke-linecap:round;stroke-linejoin:round;stroke-miterlimit:10;" d="&#10;&#9;&#9;&#9;&#9;M284.602,78v156.403c0,15.958,6.948,30.287,17.976,40.147"/>
		</g>
	</g>
	<g>
		<g>
			<path style="fill:none;stroke:#000000;stroke-width:15;stroke-linecap:round;stroke-linejoin:round;stroke-miterlimit:10;" d="&#10;&#9;&#9;&#9;&#9;M292.026,441.722c14.857,9.496,32.511,15.001,51.451,15.001c52.836,0,95.669-42.832,95.669-95.669s-42.832-95.669-95.669-95.669&#10;&#9;&#9;&#9;&#9;s-95.669,42.832-95.669,95.669c0,21.244,6.929,40.868,18.644,56.744"/>
			
				<polyline style="fill:none;stroke:#000000;stroke-width:15;stroke-linecap:round;stroke-linejoin:round;stroke-miterlimit:10;" points="&#10;&#9;&#9;&#9;&#9;296.186,356.436 332.37,397.806 390.768,331.711 &#9;&#9;&#9;"/>
		</g>
	</g>
	<path style="fill:none;stroke:#000000;stroke-width:15;stroke-linecap:round;stroke-linejoin:round;stroke-miterlimit:10;" d="&#10;&#9;&#9;M481.042,264.336L481.042,264.336c0-13.207-10.706-23.913-23.913-23.913h-34.293c-13.207,0-23.913,10.706-23.913,23.913v0&#10;&#9;&#9;c0,13.207,10.706,23.913,23.913,23.913h34.293C470.336,288.248,481.042,277.542,481.042,264.336z"/>
	<path style="fill:none;stroke:#000000;stroke-width:15;stroke-linecap:round;stroke-linejoin:round;stroke-miterlimit:10;" d="&#10;&#9;&#9;M474.86,192.598h-61.279c-13.207,0-23.913,10.706-23.913,23.913v0c0,13.207,10.706,23.913,23.913,23.913h61.279&#10;&#9;&#9;c13.207,0,23.913-10.706,23.913-23.913v0C498.773,203.304,488.067,192.598,474.86,192.598z"/>
	<path style="fill:none;stroke:#000000;stroke-width:15;stroke-linecap:round;stroke-linejoin:round;stroke-miterlimit:10;" d="&#10;&#9;&#9;M474.86,96.947h-61.279c-13.207,0-23.913,10.706-23.913,23.913v0c0,13.207,10.706,23.913,23.913,23.913h61.279&#10;&#9;&#9;c13.207,0,23.913-10.706,23.913-23.913v0C498.773,107.653,488.067,96.947,474.86,96.947z"/>
	<path style="fill:none;stroke:#000000;stroke-width:15;stroke-linecap:round;stroke-linejoin:round;stroke-miterlimit:10;" d="&#10;&#9;&#9;M474.86,144.772h-61.279c-13.207,0-23.913,10.706-23.913,23.913v0c0,13.207,10.706,23.913,23.913,23.913h61.279&#10;&#9;&#9;c13.207,0,23.913-10.706,23.913-23.913v0C498.773,155.478,488.067,144.772,474.86,144.772z"/>
</g>















</svg>
