<?xml version="1.0" encoding="UTF-8"?>
<svg xmlns="http://www.w3.org/2000/svg" viewBox="0 0 64 64" width="512" height="512"><g id="Outline"><path d="M12.382,19.139a1,1,0,0,0,1.163.182,11.929,11.929,0,0,1,1.763-.736A1,1,0,0,0,16,17.634V16a1,1,0,0,0-2,0v.928c-.235.091-.471.19-.7.295l-2.073-2.072a1,1,0,0,0-1.414,0L4.15,20.808a1,1,0,0,0,0,1.414l2.073,2.072c-.106.235-.2.471-.295.706H3a1,1,0,0,0-1,1v8a1,1,0,0,0,1,1H5.928c.091.235.189.471.295.706L4.15,37.778a1,1,0,0,0,0,1.414L8.362,43.4a1,1,0,0,0,1.414-1.414l-3.5-3.5,1.868-1.866a1,1,0,0,0,.182-1.163,11.762,11.762,0,0,1-.735-1.763A1,1,0,0,0,6.634,33H4V27H6.634a1,1,0,0,0,.952-.693,11.762,11.762,0,0,1,.735-1.763,1,1,0,0,0-.182-1.163L6.271,21.515l4.244-4.243Z"/><path d="M36.914,42.406,40.65,34H41a6.9,6.9,0,0,1,4.324,1.521,1,1,0,1,0,1.242-1.566A8.874,8.874,0,0,0,41,32H37v-.792A11,11,0,0,0,42,22V19.684A8.945,8.945,0,0,0,45,13,11.013,11.013,0,0,0,34,2H28a10.979,10.979,0,0,0-7.3,2.788,1,1,0,0,0,1.33,1.494A8.983,8.983,0,0,1,28,4h6a9.01,9.01,0,0,1,9,9,6.932,6.932,0,0,1-1,3.581V14a1,1,0,0,0-1-1H36.831a9.347,9.347,0,0,1-7.974-4.515,1,1,0,0,0-1-.475l-1.06.152A7.956,7.956,0,0,0,20,16v.578A6.921,6.921,0,0,1,19,13a8.912,8.912,0,0,1,.853-3.8,1,1,0,0,0-1.813-.847A10.912,10.912,0,0,0,17,13a8.945,8.945,0,0,0,3,6.684V22a11,11,0,0,0,5,9.208V32H21a8.95,8.95,0,0,0-6.081,2.385,5.987,5.987,0,0,1,2.366-10.133,1,1,0,0,0-.57-1.917A7.989,7.989,0,0,0,13.6,35.891,8.936,8.936,0,0,0,12,41V61a1,1,0,0,0,2,0V41a7.008,7.008,0,0,1,7-7h.35l3.736,8.406a1,1,0,0,0,1.539.375L30,40.081V60a1,1,0,0,0,2,0V40.081l3.375,2.7a1,1,0,0,0,1.539-.375ZM22,22V16a5.948,5.948,0,0,1,5.081-5.859l.425-.06A11.362,11.362,0,0,0,36.831,15H40v7a9,9,0,0,1-18,0Zm9,11a10.927,10.927,0,0,0,4-.764V33.52l-4,3.2-4-3.2V32.236A10.927,10.927,0,0,0,31,33Zm-4.612,7.41L23.539,34H25a1,1,0,0,0,.375.781L29.4,38Zm9.224,0L32.6,38l4.024-3.219A1,1,0,0,0,37,34h1.461Z"/><path d="M20,45a1,1,0,0,0-1,1V61a1,1,0,0,0,2,0V46A1,1,0,0,0,20,45Z"/><path d="M24.293,18.293a1,1,0,0,0,1.414,1.414,1.831,1.831,0,0,1,2.586,0,1,1,0,0,0,1.414-1.414A3.832,3.832,0,0,0,24.293,18.293Z"/><path d="M33.707,19.707a1.831,1.831,0,0,1,2.586,0,1,1,0,0,0,1.414-1.414,3.832,3.832,0,0,0-5.414,0,1,1,0,0,0,1.414,1.414Z"/><path d="M39,11a1,1,0,0,0,0-2,8.6,8.6,0,0,1-6.122-2.537l-.172-.171a1,1,0,1,0-1.412,1.416l.171.17A10.581,10.581,0,0,0,39,11Z"/><path d="M49,31H59a1,1,0,0,0,1-1V25a1,1,0,0,0-2,0v4H49a1,1,0,0,1-1-1V18a1,1,0,0,1,1-1h1v3a1,1,0,0,0,1.447.895L53,20.118l1.553.777A1,1,0,0,0,56,20V17h2v3.982a1,1,0,0,0,2,0V16a1,1,0,0,0-1-1H55.722A1.993,1.993,0,0,0,54,14H52a1.993,1.993,0,0,0-1.722,1H49a3,3,0,0,0-3,3V28A3,3,0,0,0,49,31Zm5-15v2.382l-.553-.277a1,1,0,0,0-.894,0L52,18.382V16Z"/><path d="M51,24a1,1,0,0,0,0,2h3a1,1,0,0,0,0-2Z"/><path d="M61.86,45.8a1,1,0,0,0-1.154-.445L50,48.646V41.873l1.812,3.67a1,1,0,1,0,1.792-.884L49.9,37.145a1.04,1.04,0,0,0-1.792,0l-3.476,7.042-7.772,1.129a1,1,0,0,0-.554,1.706L41.926,52.5,40.6,60.244A1,1,0,0,0,42.05,61.3L49,57.644,55.95,61.3A1,1,0,0,0,57.4,60.244L56.074,52.5,61.7,47.022A1,1,0,0,0,61.86,45.8Zm-16.424.3a1,1,0,0,0,.752-.548L48,41.873v6.773l-6.461-1.989Zm-4.773,2.388,6.719,2.069-4.073,5.718.676-3.943a1,1,0,0,0-.287-.885Zm7.871,7.149-3.7,1.947L49,51.724l4.167,5.851-3.7-1.947A1,1,0,0,0,48.534,55.628Zm5.768-4.19a1,1,0,0,0-.287.885l.676,3.943-4.073-5.718,6.719-2.069Z"/></g></svg>
