<svg xmlns="http://www.w3.org/2000/svg" version="1.1" xmlns:xlink="http://www.w3.org/1999/xlink" width="512" height="512" x="0" y="0" viewBox="0 0 512 512" style="enable-background:new 0 0 512 512" xml:space="preserve"><g><path d="M504 288.441v-64.882a7.999 7.999 0 0 0-6.735-7.899l-39.689-6.353c-5.138-22.288-13.878-43.369-26.038-62.804l23.587-32.578a8 8 0 0 0-.822-10.348l-45.879-45.878a8.002 8.002 0 0 0-10.349-.823l-32.578 23.587c-19.441-12.162-40.52-20.901-62.804-26.039l-6.353-39.688A8 8 0 0 0 288.44 8h-64.882a8 8 0 0 0-7.899 6.735l-6.353 39.688c-22.287 5.138-43.368 13.877-62.805 26.038l-32.577-23.586a8.002 8.002 0 0 0-10.349.823l-45.879 45.878a8 8 0 0 0-.822 10.349l23.587 32.577c-12.166 19.448-20.905 40.525-26.039 62.804l-39.688 6.353a8 8 0 0 0-6.734 7.9v64.882a7.999 7.999 0 0 0 6.735 7.899l39.688 6.353c5.138 22.286 13.878 43.367 26.039 62.804l-23.587 32.578a8 8 0 0 0 .822 10.348l45.879 45.878a8.002 8.002 0 0 0 10.349.823l32.577-23.587c19.448 12.166 40.528 20.906 62.805 26.039l6.353 39.688a8 8 0 0 0 7.899 6.735h64.882a8 8 0 0 0 7.899-6.735l5.7-35.605c20.837 25.804 52.714 42.34 88.386 42.34C453.051 504 504 453.051 504 390.426c0-35.672-16.537-67.55-42.341-88.387l35.605-5.699a7.997 7.997 0 0 0 6.736-7.899zm-105.097-11.272a114.351 114.351 0 0 0-8.477-.316c-17.174 0-33.465 3.839-48.073 10.692v-12.65c0-18.903-14.314-33.294-39.274-39.485a202.143 202.143 0 0 0-26.051-4.679c13.249-9.299 22.232-27.085 22.232-47.466 0-27.566-16.576-44.691-43.259-44.691-26.684 0-43.26 17.125-43.26 44.691 0 20.337 8.945 38.089 22.147 47.404a188.016 188.016 0 0 0-26.032 4.757c-25.284 6.499-39.209 20.516-39.209 39.469v71.177a8 8 0 0 0 8 8H282.82c-3.868 11.419-5.967 23.646-5.967 36.354 0 2.851.108 5.678.316 8.477A145.83 145.83 0 0 1 256 400.452c-79.651 0-144.452-64.801-144.452-144.453S176.349 111.547 256 111.547 400.452 176.349 400.452 256c0 7.079-.521 14.171-1.549 21.169zm-100.155 6.088a8 8 0 0 0-8 8v44.778c-.369.674-.729 1.354-1.085 2.036H221.25v-46.814a8 8 0 0 0-16 0v46.814h-19.604v-63.177c0-14.037 14.787-20.784 27.192-23.973 28.126-7.233 57.189-7.227 86.388.017 10.131 2.513 27.126 8.966 27.126 23.956v21.809a114.489 114.489 0 0 0-19.604 17.015v-22.462a8 8 0 0 0-8-7.999zM256 221.605c-15.031 0-27.26-17.2-27.26-38.341 0-24.964 17.079-28.691 27.26-28.691s27.259 3.728 27.259 28.691c0 21.142-12.229 38.341-27.259 38.341zm232 168.821C488 444.229 444.229 488 390.426 488c-53.802 0-97.573-43.771-97.573-97.574s43.771-97.573 97.573-97.573c53.803 0 97.574 43.771 97.574 97.573zm0-108.806-38.351 6.138a7.993 7.993 0 0 0-4.977 2.91 112.747 112.747 0 0 0-29.938-11.187A161.814 161.814 0 0 0 416.452 256c0-88.474-71.979-160.452-160.453-160.452S95.547 167.527 95.547 256s71.979 160.453 160.452 160.453c7.852 0 15.718-.578 23.481-1.718a112.803 112.803 0 0 0 11.188 29.939 7.988 7.988 0 0 0-2.91 4.977L281.619 488H230.38l-6.139-38.35a7.998 7.998 0 0 0-6.312-6.576c-24.076-4.872-46.709-14.255-67.27-27.889a8.001 8.001 0 0 0-9.112.188l-31.48 22.793-36.231-36.232 22.792-31.481a8 8 0 0 0 .188-9.113c-13.628-20.546-23.012-43.179-27.889-67.269a8 8 0 0 0-6.576-6.312L24 281.62v-51.24l38.35-6.139a7.998 7.998 0 0 0 6.576-6.312c4.873-24.077 14.256-46.709 27.889-67.269a7.997 7.997 0 0 0-.188-9.113l-22.792-31.479 36.231-36.232 31.48 22.792a8 8 0 0 0 9.113.187c20.546-13.627 43.179-23.011 67.27-27.889a8.002 8.002 0 0 0 6.312-6.576L230.38 24h51.239l6.139 38.35a8 8 0 0 0 6.312 6.576c24.085 4.877 46.718 14.261 67.27 27.889a8 8 0 0 0 9.112-.188l31.48-22.792 36.232 36.232-22.792 31.48a8 8 0 0 0-.188 9.113c13.627 20.544 23.01 43.177 27.889 67.269a8.002 8.002 0 0 0 6.576 6.312L488 230.38zm-65.367 64.767-47.802 48.498-16.61-16.61c-4.445-4.445-10.355-6.894-16.642-6.894s-12.197 2.448-16.642 6.893a23.38 23.38 0 0 0-6.895 16.642 23.378 23.378 0 0 0 6.894 16.642l33.318 33.318c4.589 4.588 10.615 6.882 16.642 6.881 6.027 0 12.055-2.294 16.643-6.882 16.992-16.993 51.682-52.503 64.435-65.383a23.34 23.34 0 0 0 6.835-16.63 23.34 23.34 0 0 0-6.927-16.592c-9.184-9.134-24.089-9.093-33.249.117zm21.983 21.837c-12.804 12.931-47.465 48.413-64.392 65.339-2.938 2.938-7.719 2.938-10.656 0l-33.317-33.318h-.001a7.485 7.485 0 0 1-2.207-5.328c0-2.012.784-3.905 2.208-5.328a7.484 7.484 0 0 1 5.328-2.207c2.013 0 3.904.784 5.328 2.207l22.309 22.308a8 8 0 0 0 5.656 2.343h.029a8 8 0 0 0 5.668-2.384l53.433-54.21c2.913-2.93 7.667-2.942 10.598-.029a7.444 7.444 0 0 1 2.209 5.291c.004 2-.769 3.884-2.193 5.316z" fill="#224653" opacity="1" data-original="#000000"></path></g></svg>