<?xml version="1.0" encoding="utf-8"?>
<!-- Generator: Adobe Illustrator 16.0.0, SVG Export Plug-In . SVG Version: 6.00 Build 0)  -->
<!DOCTYPE svg PUBLIC "-//W3C//DTD SVG 1.1//EN" "http://www.w3.org/Graphics/SVG/1.1/DTD/svg11.dtd">
<svg version="1.1" id="svg1953" xmlns:svg="http://www.w3.org/2000/svg"
	 xmlns="http://www.w3.org/2000/svg" xmlns:xlink="http://www.w3.org/1999/xlink" x="0px" y="0px" width="682.667px"
	 height="682.667px" viewBox="0 0 682.667 682.667" enable-background="new 0 0 682.667 682.667" xml:space="preserve">
<g>
	<linearGradient id="SVGID_1_" gradientUnits="userSpaceOnUse" x1="96.7217" y1="646.8335" x2="96.7217" y2="60.7482">
		<stop  offset="0" style="stop-color:#000000"/>
		<stop  offset="1" style="stop-color:#000000"/>
	</linearGradient>
	<path fill="url(#SVGID_1_)" d="M107.814,506.335H85.629c-4.418,0-8,3.582-8,8s3.582,8,8,8h22.186c4.418,0,8-3.582,8-8
		S112.233,506.335,107.814,506.335z"/>
	<linearGradient id="SVGID_2_" gradientUnits="userSpaceOnUse" x1="619.3179" y1="646.8335" x2="619.3179" y2="60.7482">
		<stop  offset="0" style="stop-color:#000000"/>
		<stop  offset="1" style="stop-color:#000000"/>
	</linearGradient>
	<path fill="url(#SVGID_2_)" d="M605.201,167.037c-4.418,0-8,3.582-8,8s3.582,8,8,8h28.234c4.418,0,8-3.582,8-8s-3.582-8-8-8
		H605.201z"/>
	<linearGradient id="SVGID_3_" gradientUnits="userSpaceOnUse" x1="341.334" y1="646.8335" x2="341.334" y2="60.7482">
		<stop  offset="0" style="stop-color:#000000"/>
		<stop  offset="1" style="stop-color:#000000"/>
	</linearGradient>
	<path fill="url(#SVGID_3_)" d="M667.737,128.844l-10.013-1.559V87.916c0-4.418-3.582-8-8-8s-8,3.582-8,8v36.877l-15.861-2.47V72.91
		c0-4.418-3.582-8-8-8s-8,3.582-8,8v46.921l-17.637-2.747V83.909c0-7.572-5.246-13.487-13.994-15.81L489.599,44.07
		c-2.089-0.577-4.166-0.869-6.175-0.869c-9.713,0-16.239,6.775-16.239,16.858v57.012c-40.882-22.616-86.912-34.51-133.997-34.51
		c-49.792,0-98.098,13.183-140.61,38.244V78.731c0-10.351-8.421-18.772-18.772-18.772h-43.617H77.086H33.471
		c-10.372,0-18.809,8.421-18.809,18.772v47.095c0,4.418,3.582,8,8,8s8-3.582,8-8V78.731c0-1.502,1.287-2.772,2.809-2.772h35.616
		v64.04c0,3.311,2.039,6.279,5.129,7.467c0.934,0.359,1.906,0.533,2.869,0.533c2.222,0,4.395-0.927,5.941-2.641l20.597-22.828
		l20.63,22.832c2.218,2.456,5.719,3.292,8.809,2.103c3.088-1.189,5.126-4.157,5.126-7.466v-64.04h35.617
		c1.502,0,2.772,1.27,2.772,2.772v56.424c0,0.015,0,0.03,0,0.045v83.869c0,1.503-1.27,2.772-2.772,2.772H97.449
		c-0.034,0-0.068,0-0.103,0H33.471c-1.522,0-2.809-1.27-2.809-2.772v-49.325c0-4.418-3.582-8-8-8s-8,3.582-8,8v49.325
		c0,10.351,8.438,18.772,18.809,18.772h50.699c-18.48,37.749-28.197,79.628-28.197,121.943c0,29.688,4.657,58.814,13.832,86.697
		L14.378,473.4c-0.493,0.241-0.993,0.471-1.487,0.698C9.085,475.851,2,479.115,2,487.5v137.088c0,8.203,7.132,14.877,15.898,14.877
		h36.283c0.013,0,0.025,0.002,0.039,0.002s0.025-0.002,0.039-0.002h84.924c0.013,0,0.025,0.002,0.039,0.002s0.025-0.002,0.039-0.002
		h36.282c8.767,0,15.9-6.674,15.9-14.877v-26.525c42.781,25.521,91.478,38.947,141.745,38.947
		c53.465,0,104.753-15.04,149.306-43.635v31.816c0,7.871,6.945,14.275,15.482,14.275h49.248c4.418,0,8-3.582,8-8s-3.582-8-8-8
		h-48.73V584.41c0-21.536,21.674-39.057,48.314-39.057h7.493c5.567,1.83,11.507,2.834,17.679,2.834s12.111-1.004,17.679-2.834h7.493
		c26.641,0,48.314,17.521,48.314,39.057v39.057h-54.324c-4.418,0-8,3.582-8,8s3.582,8,8,8h54.803
		c8.559,0,15.521-6.404,15.521-14.275V584.41c0-25.789-20.824-47.483-48.831-53.434c9.953-10.229,16.101-24.18,16.101-39.545V463.31
		c0-3.357-0.31-6.643-0.872-9.842c-0.032-0.235-0.073-0.469-0.126-0.702c-2.795-14.8-11.352-27.582-23.249-35.931
		c3.913-18.755,5.917-37.916,5.917-57.051c0-42.733-9.913-84.99-28.768-123.04h84.867c7.809,0,14.162-6.352,14.162-14.16V142.91
		C680.667,135.84,675.361,130.057,667.737,128.844z M122.189,119.213l-12.635-13.982c-1.517-1.679-3.673-2.637-5.936-2.637
		c-0.001,0-0.002,0-0.003,0c-2.263,0.001-4.42,0.96-5.937,2.641l-12.593,13.957V75.959h37.103V119.213z M131.222,586.123H62.221
		v-21.342h69.001V586.123z M62.221,602.123h69.001v21.342H62.221V602.123z M175.443,623.464h-28.221v-29.332c0-0.003,0-0.007,0-0.01
		s0-0.007,0-0.01V561.73c0-7.141-5.827-12.949-12.988-12.949H59.21c-7.162,0-12.989,5.809-12.989,12.949v61.734H18V489.38
		c0.517-0.258,1.114-0.533,1.585-0.75c0.609-0.28,1.226-0.564,1.808-0.851l75.346-36.592l75.285,36.58
		c0.608,0.298,1.224,0.582,1.833,0.862c0.471,0.217,1.069,0.492,1.586,0.75V623.464z M586.124,529.653
		c-0.35,0.097-0.691,0.212-1.02,0.354c-4.122,1.406-8.533,2.181-13.124,2.181s-9.002-0.774-13.124-2.181
		c-0.328-0.142-0.67-0.257-1.02-0.354c-15.521-5.763-26.612-20.72-26.612-38.222v-14.891c1.398,0.066,2.834,0.138,4.3,0.211
		c6.656,0.335,14.238,0.716,22.307,0.716c17.525,0,37.338-1.799,54.905-9.776v23.74C612.736,508.933,601.645,523.89,586.124,529.653
		z M591.243,427.41c0.204,0.128,0.415,0.246,0.633,0.355c8.875,4.99,15.701,13.196,18.885,23.029
		c-22.651,12.574-52.351,11.085-74.434,9.978c-1.71-0.086-3.368-0.167-4.995-0.242c1.434-20.798,18.787-37.585,39.913-37.979
		c0.229-0.004,0.46-0.006,0.688-0.006C578.915,422.545,585.491,424.309,591.243,427.41z M594.406,359.785
		c0,16.621-1.607,33.263-4.743,49.607c-5.583-1.838-11.539-2.847-17.729-2.847c-0.317,0-0.638,0.003-0.972,0.008
		c-30.733,0.573-55.737,26.034-55.737,56.757v28.121c0,15.365,6.147,29.315,16.101,39.545
		c-23.818,5.061-42.439,21.507-47.476,42.179c-44.214,31.312-96.236,47.854-150.661,47.854c-50.607,0-99.521-14.438-141.745-41.785
		V487.5c0-8.386-7.087-11.649-10.895-13.402c-0.494-0.228-0.993-0.457-1.509-0.709l-78.803-38.289
		c-2.207-1.072-4.784-1.073-6.991-0.001l-8.906,4.325c-8.201-25.642-12.368-52.386-12.368-79.639
		c0-42.529,10.414-84.584,30.148-121.943h71.685c10.351,0,18.772-8.421,18.772-18.772v-79.491
		c41.968-26.845,90.488-41.017,140.61-41.017c47.368,0,93.599,12.77,133.997,36.97v85.087c0,8.892,7.234,16.126,16.127,16.126
		h33.326c0.003,0,0.007,0,0.01,0h43.918c0.003,0,0.007,0,0.01,0h3.066C583.78,274.398,594.406,316.833,594.406,359.785z
		 M552.566,220.745h-27.918v-42.382c0-7.698,6.262-13.96,13.959-13.96s13.959,6.262,13.959,13.96V220.745z M664.667,220.745h-96.102
		v-42.382c0-16.52-13.439-29.96-29.959-29.96s-29.959,13.44-29.959,29.96v42.382h-25.336c-0.042,0-0.127-0.085-0.127-0.126V60.059
		c0-0.367,0.022-0.647,0.051-0.854c0.531-0.023,1.324,0.072,2.141,0.298l88.708,24.049c1.097,0.291,1.787,0.643,2.142,0.875v39.507
		c0,3.943,2.873,7.298,6.769,7.905l33.18,5.167c0.302,0.065,0.607,0.113,0.92,0.143l47.573,7.409V220.745z"/>
	<linearGradient id="SVGID_4_" gradientUnits="userSpaceOnUse" x1="333.188" y1="646.8335" x2="333.188" y2="60.7482">
		<stop  offset="0" style="stop-color:#000000"/>
		<stop  offset="1" style="stop-color:#000000"/>
	</linearGradient>
	<path fill="url(#SVGID_4_)" d="M453.001,324.156h-5.865c-2.13-6.816-4.876-13.438-8.206-19.794l4.157-4.158
		c7.137-7.14,7.137-18.758,0.003-25.898l-24.447-24.484c-3.464-3.432-8.066-5.321-12.958-5.321c-4.906,0-9.508,1.899-12.968,5.36
		l-4.145,4.163c-6.348-3.346-12.97-6.1-19.794-8.231v-5.859c0-10.101-8.234-18.318-18.355-18.318h-34.507
		c-10.122,0-18.357,8.218-18.357,18.318v5.874c-6.868,2.154-13.489,4.904-19.791,8.219l-4.158-4.177
		c-3.449-3.449-8.05-5.348-12.957-5.348c-4.892,0-9.494,1.89-12.988,5.353l-24.412,24.449c-3.448,3.449-5.348,8.049-5.348,12.952
		c0,4.904,1.899,9.503,5.348,12.951l4.156,4.156c-3.331,6.354-6.077,12.976-8.208,19.795h-5.863
		c-10.101,0-18.319,8.234-18.319,18.355v34.547c0,10.101,8.218,18.318,18.319,18.318h5.859c2.125,6.809,4.873,13.432,8.211,19.796
		l-4.182,4.182c-7.102,7.171-7.091,18.796,0.027,25.916l24.444,24.443c3.463,3.43,8.064,5.318,12.956,5.318
		c4.905,0,9.506-1.897,12.958-5.347l4.154-4.155c6.364,3.338,12.986,6.085,19.793,8.211v5.858c0,10.122,8.235,18.357,18.357,18.357
		h34.507c10.121,0,18.355-8.235,18.355-18.357v-5.858c6.808-2.126,13.43-4.873,19.794-8.211l4.158,4.157
		c3.448,3.446,8.049,5.345,12.954,5.345c4.891,0,9.492-1.889,12.985-5.346l24.418-24.419c7.111-7.118,7.123-18.742-0.002-25.94
		l-4.155-4.155c3.338-6.366,6.085-12.989,8.209-19.795h5.861c10.12,0,18.354-8.218,18.354-18.318v-34.547
		C471.355,332.39,463.122,324.156,453.001,324.156z M455.355,377.058c0,1.235-1.1,2.318-2.354,2.318h-11.908
		c-3.658,0-6.851,2.481-7.753,6.027c-2.404,9.449-6.18,18.559-11.223,27.077c-1.861,3.144-1.356,7.148,1.227,9.732l8.399,8.398
		c0.909,0.918,0.921,2.451,0.028,3.344l-24.387,24.388c-0.605,0.599-1.325,0.688-1.7,0.688c-0.367,0-1.067-0.086-1.642-0.66
		l-8.43-8.43c-2.584-2.584-6.591-3.088-9.734-1.226c-8.512,5.042-17.62,8.818-27.074,11.226c-3.545,0.902-6.026,4.095-6.026,7.753
		v11.904c0,1.3-1.057,2.357-2.355,2.357h-34.507c-1.3,0-2.357-1.058-2.357-2.357v-11.904c0-3.658-2.481-6.85-6.026-7.753
		c-9.454-2.407-18.563-6.184-27.075-11.226c-1.268-0.751-2.676-1.117-4.075-1.117c-2.069,0-4.118,0.802-5.66,2.344l-8.425,8.427
		c-0.576,0.576-1.278,0.662-1.645,0.662c-0.375,0-1.094-0.09-1.67-0.66l-24.415-24.415c-0.895-0.895-0.882-2.426-0.001-3.315
		l8.428-8.428c2.584-2.584,3.089-6.591,1.226-9.734c-5.042-8.511-8.818-17.62-11.225-27.076c-0.902-3.545-4.095-6.026-7.753-6.026
		h-11.905c-1.257,0-2.319-1.062-2.319-2.318v-34.547c0-1.276,1.062-2.355,2.319-2.355h11.905c3.656,0,6.846-2.478,7.751-6.02
		c2.423-9.485,6.2-18.597,11.227-27.082c1.862-3.144,1.358-7.15-1.226-9.734l-8.429-8.43c-0.575-0.575-0.661-1.272-0.661-1.636
		c0-0.365,0.086-1.063,0.666-1.643l24.386-24.423c0.604-0.598,1.322-0.688,1.696-0.688c0.367,0,1.067,0.086,1.63,0.649l8.428,8.466
		c2.59,2.601,6.617,3.107,9.77,1.226c8.358-4.988,17.469-8.775,27.079-11.257c3.532-0.913,6-4.098,6-7.746v-11.905
		c0-1.257,1.08-2.318,2.357-2.318h34.507c1.276,0,2.355,1.062,2.355,2.318v11.905c0,3.658,2.481,6.851,6.026,7.753
		c9.488,2.415,18.589,6.2,27.052,11.25c3.152,1.882,7.18,1.375,9.769-1.225l8.418-8.455c0.575-0.576,1.275-0.661,1.642-0.661
		c0.375,0,1.093,0.089,1.667,0.658l24.418,24.455c0.889,0.889,0.89,2.391,0.002,3.278l-8.428,8.429
		c-2.583,2.583-3.088,6.588-1.227,9.732c5.027,8.492,8.804,17.604,11.225,27.083c0.904,3.542,4.095,6.021,7.751,6.021h11.908
		c1.275,0,2.354,1.079,2.354,2.355V377.058z"/>
	<linearGradient id="SVGID_5_" gradientUnits="userSpaceOnUse" x1="333.7422" y1="646.8335" x2="333.7422" y2="60.7482">
		<stop  offset="0" style="stop-color:#000000"/>
		<stop  offset="1" style="stop-color:#000000"/>
	</linearGradient>
	<path fill="url(#SVGID_5_)" d="M348.721,351.568c-2.797-0.995-5.366-1.941-7.76-2.855v-40.71c5.941,1.305,9.798,4.132,10.876,5.003
		c3.438,2.777,8.475,2.242,11.251-1.196c2.776-3.437,2.24-8.474-1.196-11.25c-2.693-2.175-10.084-7.342-20.931-8.848v-8.463
		c0-4.418-3.582-8-8-8s-8,3.582-8,8v9.121c-1.337,0.288-2.703,0.638-4.095,1.059c-11.918,3.588-20.826,13.792-23.246,26.629
		c-2.201,11.675,1.527,22.923,9.739,29.363c4.838,3.782,10.945,7.066,17.602,10.029v51.313c-6.801-0.432-11.39-2.005-19.068-7.024
		c-3.698-2.419-8.656-1.382-11.074,2.317c-2.418,3.698-1.38,8.656,2.318,11.073c10.874,7.109,18.241,9.156,27.824,9.642v9.554
		c0,4.418,3.582,8,8,8s8-3.582,8-8V426.14c18.937-3.548,29.995-19.071,32.434-33.571
		C376.507,374.06,366.816,357.963,348.721,351.568z M317.224,336.822c-3.483-2.732-4.97-8.02-3.88-13.802
		c1-5.309,4.582-11.715,11.618-14.092v32.784C321.851,340.067,319.326,338.465,317.224,336.822z M357.617,389.917
		c-1.348,8.013-7.01,16.535-16.655,19.699v-43.833c0.804,0.291,1.608,0.579,2.411,0.865
		C359.274,372.268,358.295,385.878,357.617,389.917z"/>
</g>
</svg>
