<?xml version="1.0" encoding="utf-8"?>
<!-- Generator: Adobe Illustrator 16.0.0, SVG Export Plug-In . SVG Version: 6.00 Build 0)  -->
<!DOCTYPE svg PUBLIC "-//W3C//DTD SVG 1.1//EN" "http://www.w3.org/Graphics/SVG/1.1/DTD/svg11.dtd">
<svg version="1.1" id="Layer_1" xmlns="http://www.w3.org/2000/svg" xmlns:xlink="http://www.w3.org/1999/xlink" x="0px" y="0px"
	 width="512px" height="512px" viewBox="0 0 512 512" enable-background="new 0 0 512 512" xml:space="preserve">
<g>
	
		<linearGradient id="SVGID_1_" gradientUnits="userSpaceOnUse" x1="206.2183" y1="12.6025" x2="206.2182" y2="492.5992" gradientTransform="matrix(1 0 0 -1 244 549)">
		<stop  offset="0" style="stop-color:#000000"/>
		<stop  offset="1" style="stop-color:#000000"/>
	</linearGradient>
	<path fill="url(#SVGID_1_)" d="M393.676,136.519h113.09c-2.207-14.085,9.742-55.395-27.539-77.565
		c1.892-4.078,2.955-8.614,2.955-13.396v-9.835c0-17.623-14.338-31.96-31.961-31.96c-17.621,0-31.961,14.337-31.961,31.96
		c0.394,7.049-1.307,14.042,2.953,23.231C383.945,81.115,395.863,122.563,393.676,136.519z M433.012,35.722
		c0-9.489,7.719-17.208,17.209-17.208c9.488,0,17.211,7.719,17.211,17.208v9.835c0,9.489-7.723,17.208-17.211,17.208
		c-9.489,0-17.209-7.719-17.209-17.208V35.722L433.012,35.722z M430.477,70.662c11.515,9.072,27.8,9.209,39.486,0
		c27.984,14.938,21.129,46.355,22.053,51.106h-83.588C409.436,116.564,402.365,85.667,430.477,70.662z"/>
	
		<linearGradient id="SVGID_2_" gradientUnits="userSpaceOnUse" x1="-182.2183" y1="12.6025" x2="-182.2183" y2="492.5992" gradientTransform="matrix(1 0 0 -1 244 549)">
		<stop  offset="0" style="stop-color:#000000"/>
		<stop  offset="1" style="stop-color:#000000"/>
	</linearGradient>
	<path fill="url(#SVGID_2_)" d="M5.24,136.519h113.089c-2.207-14.085,9.744-55.395-27.538-77.565
		c4.291-9.25,2.562-16.191,2.954-23.231c0-17.623-14.338-31.96-31.959-31.96c-17.624,0-31.961,14.337-31.961,31.96
		c0.391,7.049-1.308,14.042,2.955,23.231C-4.49,81.115,7.427,122.563,5.24,136.519z M44.575,35.722
		c0-9.489,7.72-17.208,17.21-17.208c9.489,0,17.208,7.719,17.208,17.208v9.835c0,9.489-7.719,17.208-17.208,17.208
		c-9.49,0-17.21-7.719-17.21-17.208V35.722z M42.043,70.662c5.439,4.287,12.294,6.854,19.743,6.854
		c7.447,0,14.302-2.567,19.742-6.854c27.985,14.938,21.129,46.355,22.051,51.106H19.991C21.001,116.564,13.93,85.667,42.043,70.662z
		"/>
	
		<linearGradient id="SVGID_3_" gradientUnits="userSpaceOnUse" x1="206.2183" y1="12.6025" x2="206.2182" y2="492.5992" gradientTransform="matrix(1 0 0 -1 244 549)">
		<stop  offset="0" style="stop-color:#000000"/>
		<stop  offset="1" style="stop-color:#000000"/>
	</linearGradient>
	<path fill="url(#SVGID_3_)" d="M479.227,430.672c4.291-9.25,2.564-16.19,2.955-23.229c0-17.623-14.338-31.961-31.961-31.961
		c-17.621,0-31.961,14.338-31.961,31.961v9.834c0,4.782,1.064,9.317,2.953,13.396c-37.268,22.164-25.35,63.609-27.537,77.566h113.09
		C504.559,494.154,516.508,452.842,479.227,430.672z M433.012,407.441c0-9.488,7.719-17.209,17.209-17.209
		c9.488,0,17.211,7.721,17.211,17.209v9.834c0,9.487-7.723,17.209-17.211,17.209c-9.489,0-17.209-7.722-17.209-17.209V407.441
		L433.012,407.441z M492.016,493.488h-83.588c1.008-5.205-6.063-36.103,22.049-51.107c11.519,9.074,27.804,9.207,39.486,0
		C497.947,457.32,491.092,488.736,492.016,493.488z"/>
	
		<linearGradient id="SVGID_4_" gradientUnits="userSpaceOnUse" x1="-182.1313" y1="12.6025" x2="-182.1314" y2="492.5992" gradientTransform="matrix(1 0 0 -1 244 549)">
		<stop  offset="0" style="stop-color:#000000"/>
		<stop  offset="1" style="stop-color:#000000"/>
	</linearGradient>
	<path fill="url(#SVGID_4_)" d="M90.792,430.672c1.89-4.078,2.954-8.613,2.954-13.396v-9.834c0-17.623-14.338-31.961-31.959-31.961
		c-17.624,0-31.961,14.338-31.961,31.961v9.834c0,4.782,1.063,9.317,2.955,13.396c-16.97,10.09-27.541,28.332-27.541,48.555v29.013
		h113.089C116.122,494.154,128.073,452.842,90.792,430.672z M44.575,407.441c0-9.488,7.72-17.209,17.21-17.209
		c9.489,0,17.208,7.721,17.208,17.209v9.834c0,9.487-7.719,17.209-17.208,17.209c-9.49,0-17.21-7.722-17.21-17.209V407.441z
		 M103.578,493.488H19.991v-14.263c0-15.61,8.521-29.625,22.052-36.846c11.515,9.074,27.802,9.207,39.484,0
		C109.513,457.32,102.656,488.736,103.578,493.488z"/>
	
		<linearGradient id="SVGID_5_" gradientUnits="userSpaceOnUse" x1="236.1377" y1="12.6025" x2="236.1377" y2="492.5992" gradientTransform="matrix(1 0 0 -1 244 549)">
		<stop  offset="0" style="stop-color:#000000"/>
		<stop  offset="1" style="stop-color:#000000"/>
	</linearGradient>
	<path fill="url(#SVGID_5_)" d="M470.594,161.694c1.854,4.356,3.599,8.837,5.181,13.316l13.907-4.916
		c-1.688-4.767-3.541-9.535-5.516-14.174L470.594,161.694z"/>
	
		<linearGradient id="SVGID_6_" gradientUnits="userSpaceOnUse" x1="240.8306" y1="12.6025" x2="240.8306" y2="492.5992" gradientTransform="matrix(1 0 0 -1 244 549)">
		<stop  offset="0" style="stop-color:#000000"/>
		<stop  offset="1" style="stop-color:#000000"/>
	</linearGradient>
	<path fill="url(#SVGID_6_)" d="M479.09,361.365c22.639-46.65,29.369-98.115,21.732-147.102l-14.574,2.274
		c7.104,45.549,1.092,94.041-20.426,138.387L479.09,361.365z"/>
	
		<linearGradient id="SVGID_7_" gradientUnits="userSpaceOnUse" x1="245.0693" y1="12.6025" x2="245.0693" y2="492.5992" gradientTransform="matrix(1 0 0 -1 244 549)">
		<stop  offset="0" style="stop-color:#000000"/>
		<stop  offset="1" style="stop-color:#000000"/>
	</linearGradient>
	<path fill="url(#SVGID_7_)" d="M498.02,199.322c-1.084-4.941-2.334-9.901-3.717-14.745l-14.184,4.048
		c1.297,4.552,2.473,9.215,3.494,13.859L498.02,199.322z"/>
	
		<linearGradient id="SVGID_8_" gradientUnits="userSpaceOnUse" x1="-220.1548" y1="12.6025" x2="-220.1548" y2="492.5992" gradientTransform="matrix(1 0 0 -1 244 549)">
		<stop  offset="0" style="stop-color:#000000"/>
		<stop  offset="1" style="stop-color:#000000"/>
	</linearGradient>
	<path fill="url(#SVGID_8_)" d="M26.924,155.754C6.424,203.875,2.52,256.08,12.354,303.746l14.447-2.982
		c-9.193-44.549-5.692-93.725,13.692-139.228L26.924,155.754z"/>
	
		<linearGradient id="SVGID_9_" gradientUnits="userSpaceOnUse" x1="-218.9116" y1="12.6025" x2="-218.9116" y2="492.5992" gradientTransform="matrix(1 0 0 -1 244 549)">
		<stop  offset="0" style="stop-color:#000000"/>
		<stop  offset="1" style="stop-color:#000000"/>
	</linearGradient>
	<path fill="url(#SVGID_9_)" d="M34.29,328.336c-1.521-4.482-2.924-9.08-4.169-13.668l-14.234,3.865
		c1.324,4.881,2.817,9.772,4.438,14.545L34.29,328.336z"/>
	
		<linearGradient id="SVGID_10_" gradientUnits="userSpaceOnUse" x1="-208.6147" y1="12.6025" x2="-208.6148" y2="492.5992" gradientTransform="matrix(1 0 0 -1 244 549)">
		<stop  offset="0" style="stop-color:#000000"/>
		<stop  offset="1" style="stop-color:#000000"/>
	</linearGradient>
	<path fill="url(#SVGID_10_)" d="M45.124,354.771c-2.068-4.269-4.028-8.658-5.827-13.048l-13.649,5.595
		c1.914,4.67,4,9.342,6.199,13.885L45.124,354.771z"/>
	
		<linearGradient id="SVGID_11_" gradientUnits="userSpaceOnUse" x1="-93.1333" y1="12.6025" x2="-93.1333" y2="492.5992" gradientTransform="matrix(1 0 0 -1 244 549)">
		<stop  offset="0" style="stop-color:#000000"/>
		<stop  offset="1" style="stop-color:#000000"/>
	</linearGradient>
	<path fill="url(#SVGID_11_)" d="M160.709,39.458l-5.989-13.48c-4.604,2.046-9.215,4.266-13.695,6.6l6.811,13.083
		C152.049,43.467,156.378,41.38,160.709,39.458z"/>
	
		<linearGradient id="SVGID_12_" gradientUnits="userSpaceOnUse" x1="38.5181" y1="12.6025" x2="38.518" y2="492.5992" gradientTransform="matrix(1 0 0 -1 244 549)">
		<stop  offset="0" style="stop-color:#000000"/>
		<stop  offset="1" style="stop-color:#000000"/>
	</linearGradient>
	<path fill="url(#SVGID_12_)" d="M387.854,60.524l8.382-12.138C327.48,0.906,241.617-6.836,168.801,20.238l5.141,13.826
		C242.139,8.706,322.958,15.709,387.854,60.524z"/>
	
		<linearGradient id="SVGID_13_" gradientUnits="userSpaceOnUse" x1="-118.6123" y1="12.6025" x2="-118.6123" y2="492.5992" gradientTransform="matrix(1 0 0 -1 244 549)">
		<stop  offset="0" style="stop-color:#000000"/>
		<stop  offset="1" style="stop-color:#000000"/>
	</linearGradient>
	<path fill="url(#SVGID_13_)" d="M135.37,52.648l-7.607-12.638c-4.174,2.512-8.331,5.188-12.357,7.95l8.344,12.163
		C127.537,57.525,131.446,55.011,135.37,52.648z"/>
	
		<linearGradient id="SVGID_14_" gradientUnits="userSpaceOnUse" x1="-17.2749" y1="12.6025" x2="-17.2749" y2="492.5992" gradientTransform="matrix(1 0 0 -1 244 549)">
		<stop  offset="0" style="stop-color:#000000"/>
		<stop  offset="1" style="stop-color:#000000"/>
	</linearGradient>
	<path fill="url(#SVGID_14_)" d="M142.572,457.613l-7.146,12.901c55.212,30.578,121.149,38.813,182.6,22.943l-3.688-14.281
		C256.621,494.084,194.561,486.404,142.572,457.613z"/>
	
		<linearGradient id="SVGID_15_" gradientUnits="userSpaceOnUse" x1="93.4922" y1="12.6025" x2="93.4922" y2="492.5992" gradientTransform="matrix(1 0 0 -1 244 549)">
		<stop  offset="0" style="stop-color:#000000"/>
		<stop  offset="1" style="stop-color:#000000"/>
	</linearGradient>
	<path fill="url(#SVGID_15_)" d="M328.057,475.178l4.565,14.027c4.796-1.563,9.608-3.295,14.306-5.15l-5.425-13.717
		C337.089,472.082,332.564,473.711,328.057,475.178z"/>
	
		<linearGradient id="SVGID_16_" gradientUnits="userSpaceOnUse" x1="120.5342" y1="12.6025" x2="120.5342" y2="492.5992" gradientTransform="matrix(1 0 0 -1 244 549)">
		<stop  offset="0" style="stop-color:#000000"/>
		<stop  offset="1" style="stop-color:#000000"/>
	</linearGradient>
	<path fill="url(#SVGID_16_)" d="M354.622,464.672l6.267,13.354c4.57-2.146,9.131-4.461,13.558-6.882l-7.078-12.938
		C363.205,460.48,358.917,462.656,354.622,464.672z"/>
	
		<linearGradient id="SVGID_17_" gradientUnits="userSpaceOnUse" x1="11.5103" y1="12.6025" x2="11.5102" y2="492.5992" gradientTransform="matrix(1 0 0 -1 244 549)">
		<stop  offset="0" style="stop-color:#000000"/>
		<stop  offset="1" style="stop-color:#000000"/>
	</linearGradient>
	<path fill="url(#SVGID_17_)" d="M255.511,83.416c-93.537,0-169.634,76.098-169.634,169.633
		c0,93.537,76.097,169.634,169.634,169.634c93.537,0,169.633-76.098,169.633-169.634C425.145,159.514,349.048,83.416,255.511,83.416
		z M206.693,106.057c-7.616,7.723-14.651,17.333-20.917,28.697c-3.775,6.843-7.182,14.169-10.206,21.893
		c-8.574-5.186-16.688-11.237-24.235-18.112C167.153,124.133,185.957,112.961,206.693,106.057z M140.902,148.975
		c9.174,8.426,19.122,15.733,29.68,21.86c-7.132,22.753-11.204,48.259-11.842,74.839h-57.933
		C102.558,208.544,117.437,174.792,140.902,148.975z M100.808,260.426h57.933c0.684,28.545,5.336,55.847,13.479,79.832
		c-10.021,5.66-19.509,12.369-28.312,20.072C118.714,334.131,102.631,299.113,100.808,260.426z M154.675,370.516
		c7.161-6.153,14.807-11.594,22.841-16.287c2.519,5.979,5.271,11.699,8.259,17.117c6.267,11.365,13.301,20.976,20.917,28.699
		C187.396,393.617,169.776,383.496,154.675,370.516z M248.137,407.289c-18.388-3.178-35.721-18.187-49.444-43.068
		c-2.926-5.305-5.612-10.934-8.056-16.834c17.932-8.276,37.399-13.073,57.5-14.018V407.289z M248.137,318.611
		c-21.873,0.936-43.077,6.028-62.636,14.896c-7.214-21.973-11.351-46.926-12.007-73.082h74.643V318.611z M248.137,245.674h-74.643
		c0.605-24.12,4.173-47.216,10.381-67.897c19.973,9.316,41.72,14.654,64.261,15.612v52.285H248.137z M248.137,178.629
		c-20.901-0.972-41.042-6.076-59.487-14.917c2.95-7.74,6.301-15.051,10.043-21.835c13.723-24.883,31.056-39.888,49.444-43.067
		V178.629z M410.213,245.674H352.28c-0.638-26.58-4.71-52.086-11.841-74.839c10.558-6.127,20.506-13.435,29.682-21.86
		C393.584,174.792,408.465,208.544,410.213,245.674z M359.686,138.534c-7.545,6.875-15.66,12.926-24.233,18.112
		c-3.025-7.724-6.433-15.049-10.205-21.893c-6.269-11.363-13.302-20.974-20.918-28.697
		C325.064,112.961,343.869,124.133,359.686,138.534z M262.885,98.81c18.389,3.179,35.723,18.185,49.444,43.067
		c3.741,6.785,7.092,14.096,10.044,21.835c-18.445,8.841-38.587,13.944-59.488,14.917V98.81z M262.885,193.389
		c22.541-0.958,44.287-6.296,64.262-15.612c6.207,20.682,9.777,43.778,10.383,67.897h-74.645V193.389z M262.885,260.426h74.645
		c-0.656,26.154-4.795,51.111-12.008,73.082c-19.56-8.867-40.763-13.961-62.637-14.896V260.426z M262.885,407.289v-73.92
		c20.102,0.943,39.568,5.74,57.5,14.018c-2.443,5.9-5.13,11.529-8.056,16.834C298.605,389.104,281.273,404.111,262.885,407.289z
		 M304.328,400.045c10.064-10.207,20.443-25.098,29.177-45.816c8.035,4.693,15.683,10.136,22.843,16.287
		C341.246,383.496,323.625,393.617,304.328,400.045z M367.115,360.33c-8.807-7.703-18.293-14.412-28.313-20.072
		c8.144-23.985,12.796-51.287,13.479-79.832h57.933C408.391,299.113,392.309,334.131,367.115,360.33z"/>
</g>
</svg>
