<svg id="Layer_1" enable-background="new 0 0 512 512" height="512" viewBox="0 0 512 512" width="512" xmlns="http://www.w3.org/2000/svg"><g><circle cx="190" cy="182" r="12"/><path d="m337.072 254.929c-1.876-1.875-4.419-2.929-7.072-2.929h-110v-20h30c5.523 0 10-4.478 10-10v-80c0-5.522-4.477-10-10-10h-30v-30c0-5.522-4.477-10-10-10h-40c-5.523 0-10 4.478-10 10v30h-110c-2.652 0-5.196 1.054-7.071 2.929l-40 40c-3.905 3.905-3.905 10.237 0 14.143l40 40c1.875 1.874 4.419 2.928 7.071 2.928h110v20h-30c-5.523 0-10 4.478-10 10v80c0 5.522 4.477 10 10 10h30v140h-70c-5.523 0-10 4.478-10 10s4.477 10 10 10h200c5.522 0 10-4.478 10-10s-4.478-10-10-10h-70v-140h110c2.652 0 5.195-1.054 7.071-2.929l40-40c3.905-3.905 3.905-10.237 0-14.143zm-157.072-142.929h20v20h-20zm-155.858 70 30-30h185.858v60h-185.858zm155.858 50h20v20h-20zm20 260h-20v-140h20zm125.858-160h-185.858v-60h185.857l30 30z"/><circle cx="190" cy="302" r="12"/><path d="m392 120 20 50 30-100-100 30z"/><path d="m402 0c-60.654 0-110 49.346-110 110v110c0 3.75 2.099 7.186 5.435 8.897 1.439.738 3.005 1.103 4.564 1.103 2.056 0 4.101-.633 5.833-1.877l35.186-25.261c17.611 11.236 37.853 17.138 58.982 17.138 60.654 0 110-49.346 110-110s-49.345-110-110-110zm0 200c-19.306 0-37.701-6.02-53.198-17.408-3.491-2.565-8.236-2.591-11.754-.064l-25.048 17.982v-90.51c0-49.626 40.374-90 90-90s90 40.374 90 90-40.374 90-90 90z"/></g></svg>