<?xml version="1.0" encoding="utf-8"?>
<!-- Generator: Adobe Illustrator 16.0.0, SVG Export Plug-In . SVG Version: 6.00 Build 0)  -->
<!DOCTYPE svg PUBLIC "-//W3C//DTD SVG 1.1//EN" "http://www.w3.org/Graphics/SVG/1.1/DTD/svg11.dtd">
<svg version="1.1" id="Layer_1" xmlns="http://www.w3.org/2000/svg" xmlns:xlink="http://www.w3.org/1999/xlink" x="0px" y="0px"
	 width="469.961px" height="512px" viewBox="0 0 469.961 512" enable-background="new 0 0 469.961 512" xml:space="preserve">
<g>
	
		<linearGradient id="SVGID_1_" gradientUnits="userSpaceOnUse" x1="47.251" y1="38.4199" x2="47.251" y2="542.0419" gradientTransform="matrix(1 0 0 -1 244 549)">
		<stop  offset="0" style="stop-color:#000000"/>
		<stop  offset="1" style="stop-color:#000000"/>
	</linearGradient>
	<path fill="url(#SVGID_1_)" d="M178.243,124.686l41.5,41.418c2.943,2.938,7.715,2.933,10.652-0.011
		c2.939-2.945,2.936-7.714-0.01-10.653l-41.488-41.406c-10.787-10.955-16.727-25.447-16.727-40.808
		c0-32.068,26.094-58.157,58.166-58.157c23.83,0,44.996,14.28,53.924,36.38c1.15,2.847,3.912,4.711,6.982,4.712h0.002
		c3.07,0,5.832-1.863,6.984-4.709c8.936-22.101,30.105-36.382,53.934-36.382c32.074,0,58.168,26.089,58.168,58.157
		c0,15.361-5.941,29.853-16.727,40.807L291.247,216.2l-37.629-37.557c-2.945-2.94-7.715-2.936-10.652,0.01
		c-2.939,2.945-2.936,7.714,0.01,10.652l42.949,42.869c4.449,4.07,6.457,4.07,10.645,0l107.691-107.49
		c0.014-0.014,0.066-0.068,0.08-0.081c13.58-13.79,21.059-32.037,21.059-51.379c0-40.375-32.854-73.223-73.232-73.223
		c-24.92,0-47.525,12.402-60.916,32.545c-13.387-20.146-35.992-32.546-60.914-32.546c-40.381,0-73.232,32.848-73.232,73.224
		c0,19.342,7.479,37.588,21.059,51.379C178.176,124.618,178.231,124.671,178.243,124.686L178.243,124.686z"/>
	
		<linearGradient id="SVGID_2_" gradientUnits="userSpaceOnUse" x1="48.7563" y1="38.4199" x2="48.7563" y2="542.042" gradientTransform="matrix(1 0 0 -1 244 549)">
		<stop  offset="0" style="stop-color:#000000"/>
		<stop  offset="1" style="stop-color:#000000"/>
	</linearGradient>
	<path fill="url(#SVGID_2_)" d="M308.358,62.376h-31.201c-4.16,0-7.533,3.373-7.533,7.533v23.667h-23.666
		c-4.16,0-7.533,3.373-7.533,7.533v31.2c0,4.16,3.373,7.533,7.533,7.533h23.666v23.667c0,4.16,3.373,7.533,7.533,7.533h31.201
		c4.16,0,7.533-3.373,7.533-7.533v-23.667h23.666c4.158,0,7.531-3.373,7.531-7.533v-31.2c0-4.16-3.373-7.533-7.531-7.533h-23.666
		V69.911C315.891,65.75,312.518,62.376,308.358,62.376z M332.024,108.644v16.133h-23.666c-4.16,0-7.533,3.373-7.533,7.533v23.667
		H284.69V132.31c0-4.16-3.373-7.533-7.533-7.533h-23.666v-16.133h23.666c4.16,0,7.533-3.373,7.533-7.533V77.444h16.135v23.667
		c0,4.16,3.373,7.533,7.533,7.533H332.024z"/>
	
		<linearGradient id="SVGID_3_" gradientUnits="userSpaceOnUse" x1="-9.0195" y1="38.4209" x2="-9.0196" y2="542.043" gradientTransform="matrix(1 0 0 -1 244 549)">
		<stop  offset="0" style="stop-color:#000000"/>
		<stop  offset="1" style="stop-color:#000000"/>
	</linearGradient>
	<path fill="url(#SVGID_3_)" d="M466.264,248.259c-8.402-13.27-24.492-17.723-37.686-10.11l-96.295,55.604
		c-3.152-11.768-13.908-20.455-26.656-20.455h-45.977c-18.563-7.928-38.662-15.539-59.066-15.539
		c-26.846,0-52.354,12.023-73.77,34.773c-8.789,9.334-15.174,18.629-19.186,25.194l-14.813-14.811
		c-3.551-2.943-7.102-2.943-10.652,0l-16.068,16.068l-8.246-8.254c-2.941-2.943-7.715-2.943-10.656-0.003L2.206,355.725
		c-2.941,2.941-2.941,7.709-0.002,10.652l28.375,28.396c2.941,2.942,7.711,2.944,10.652,0.004c2.943-2.941,2.945-7.711,0.004-10.652
		l-23.053-23.07l34.336-34.344L185.19,459.476l-34.344,34.336l-86.398-86.465c-2.941-2.942-7.711-2.944-10.652-0.004
		c-2.943,2.941-2.945,7.709-0.004,10.652l91.725,91.795c1.412,1.414,3.328,2.209,5.326,2.209h0.002c1.998,0,3.914-0.795,5.326-2.207
		l45-44.988c2.941-2.94,2.941-7.711,0.002-10.651l-15.854-15.863l16.109-16.111c2.941-2.94,2.941-7.711,0-10.651l-14.725-14.726
		h42.838c4.16,0,7.531-3.373,7.531-7.532c0-4.16-3.371-7.531-7.531-7.531h-57.904l-53.004-53.006
		c8.102-14.117,35.969-55.906,81.951-55.906c18.959,0,37.695,7.68,54.949,15.033c0.865,0.334,1.785,0.506,2.715,0.506h47.379
		c15.521,0,18.895,24.469,0,25.049h-90.961c-4.16,0-7.533,3.373-7.533,7.533c0,4.158,3.373,7.531,7.533,7.531h90.961
		c11.133,0,20.912-6.527,25.262-16.521l105.225-60.76c11.451-6.666,27.021,10.66,11.654,22.283l-126.984,99.252
		c-7.418,5.807-16.699,9.006-26.133,9.006H262.37c-4.16,0-7.533,3.373-7.533,7.532c0,4.16,3.373,7.533,7.533,7.533h32.281
		c12.785,0,25.363-4.336,35.416-12.205l126.6-98.953C469.668,275.751,473.682,261.104,466.264,248.259L466.264,248.259z
		 M174.709,427.595l-97.957-97.957l10.74-10.739l97.957,97.956L174.709,427.595z"/>
</g>
</svg>
