<?xml version="1.0" encoding="utf-8"?>
<!-- Generator: Adobe Illustrator 16.0.0, SVG Export Plug-In . SVG Version: 6.00 Build 0)  -->
<!DOCTYPE svg PUBLIC "-//W3C//DTD SVG 1.1//EN" "http://www.w3.org/Graphics/SVG/1.1/DTD/svg11.dtd">
<svg version="1.1" id="Capa_1" xmlns="http://www.w3.org/2000/svg" xmlns:xlink="http://www.w3.org/1999/xlink" x="0px" y="0px"
	 width="680.961px" height="680.961px" viewBox="0 0 680.961 680.961" enable-background="new 0 0 680.961 680.961"
	 xml:space="preserve">
<g>
	
		<linearGradient id="SVGID_1_" gradientUnits="userSpaceOnUse" x1="-73.5752" y1="39.9814" x2="-73.5752" y2="710.7012" gradientTransform="matrix(1 0 0 -1 244 717.9609)">
		<stop  offset="0" style="stop-color:#000000"/>
		<stop  offset="1" style="stop-color:#000000"/>
	</linearGradient>
	<path fill="url(#SVGID_1_)" d="M147.555,429.888h45.741c4.693,0,8.5-3.807,8.5-8.5v-45.741c0-4.694-3.807-8.5-8.5-8.5h-45.741
		c-4.694,0-8.5,3.806-8.5,8.5v45.741C139.055,426.082,142.86,429.888,147.555,429.888z M156.055,384.146h28.741v28.741h-28.741
		V384.146z"/>
	
		<linearGradient id="SVGID_2_" gradientUnits="userSpaceOnUse" x1="-73.5752" y1="39.9814" x2="-73.5752" y2="710.7012" gradientTransform="matrix(1 0 0 -1 244 717.9609)">
		<stop  offset="0" style="stop-color:#000000"/>
		<stop  offset="1" style="stop-color:#000000"/>
	</linearGradient>
	<path fill="url(#SVGID_2_)" d="M147.555,510.567h45.741c4.693,0,8.5-3.806,8.5-8.5v-45.74c0-4.693-3.807-8.5-8.5-8.5h-45.741
		c-4.694,0-8.5,3.807-8.5,8.5v45.74C139.055,506.762,142.86,510.567,147.555,510.567z M156.055,464.827h28.741v28.74h-28.741
		V464.827z"/>
	
		<linearGradient id="SVGID_3_" gradientUnits="userSpaceOnUse" x1="-73.5752" y1="39.9814" x2="-73.5752" y2="710.7012" gradientTransform="matrix(1 0 0 -1 244 717.9609)">
		<stop  offset="0" style="stop-color:#000000"/>
		<stop  offset="1" style="stop-color:#000000"/>
	</linearGradient>
	<path fill="url(#SVGID_3_)" d="M147.555,591.248h45.741c4.693,0,8.5-3.806,8.5-8.5v-45.74c0-4.694-3.807-8.5-8.5-8.5h-45.741
		c-4.694,0-8.5,3.806-8.5,8.5v45.74C139.055,587.442,142.86,591.248,147.555,591.248z M156.055,545.507h28.741v28.74h-28.741
		V545.507z"/>
	
		<linearGradient id="SVGID_4_" gradientUnits="userSpaceOnUse" x1="266.5376" y1="39.9814" x2="266.5376" y2="710.7012" gradientTransform="matrix(1 0 0 -1 244 717.9609)">
		<stop  offset="0" style="stop-color:#000000"/>
		<stop  offset="1" style="stop-color:#000000"/>
	</linearGradient>
	<path fill="url(#SVGID_4_)" d="M487.667,429.89h45.741c4.694,0,8.5-3.807,8.5-8.5v-45.741c0-4.694-3.806-8.5-8.5-8.5h-45.741
		c-4.693,0-8.5,3.806-8.5,8.5v45.741C479.167,426.083,482.973,429.89,487.667,429.89z M496.167,384.148h28.741v28.741h-28.741
		V384.148z"/>
	
		<linearGradient id="SVGID_5_" gradientUnits="userSpaceOnUse" x1="266.5376" y1="39.9814" x2="266.5376" y2="710.7012" gradientTransform="matrix(1 0 0 -1 244 717.9609)">
		<stop  offset="0" style="stop-color:#000000"/>
		<stop  offset="1" style="stop-color:#000000"/>
	</linearGradient>
	<path fill="url(#SVGID_5_)" d="M487.667,510.568h45.741c4.694,0,8.5-3.806,8.5-8.5v-45.741c0-4.693-3.806-8.5-8.5-8.5h-45.741
		c-4.693,0-8.5,3.807-8.5,8.5v45.741C479.167,506.763,482.973,510.568,487.667,510.568z M496.167,464.827h28.741v28.741h-28.741
		V464.827z"/>
	
		<linearGradient id="SVGID_6_" gradientUnits="userSpaceOnUse" x1="266.5376" y1="39.9814" x2="266.5376" y2="710.7012" gradientTransform="matrix(1 0 0 -1 244 717.9609)">
		<stop  offset="0" style="stop-color:#000000"/>
		<stop  offset="1" style="stop-color:#000000"/>
	</linearGradient>
	<path fill="url(#SVGID_6_)" d="M487.667,591.247h45.741c4.694,0,8.5-3.806,8.5-8.5v-45.739c0-4.694-3.806-8.5-8.5-8.5h-45.741
		c-4.693,0-8.5,3.806-8.5,8.5v45.739C479.167,587.441,482.973,591.247,487.667,591.247z M496.167,545.507h28.741v28.739h-28.741
		V545.507z"/>
	
		<linearGradient id="SVGID_7_" gradientUnits="userSpaceOnUse" x1="56.4116" y1="39.9814" x2="56.4116" y2="710.7012" gradientTransform="matrix(1 0 0 -1 244 717.9609)">
		<stop  offset="0" style="stop-color:#000000"/>
		<stop  offset="1" style="stop-color:#000000"/>
	</linearGradient>
	<path fill="url(#SVGID_7_)" d="M277.542,429.89h45.74c4.694,0,8.5-3.807,8.5-8.5v-45.741c0-4.694-3.806-8.5-8.5-8.5h-45.74
		c-4.694,0-8.5,3.806-8.5,8.5v45.741C269.042,426.083,272.847,429.89,277.542,429.89z M286.042,384.148h28.74v28.741h-28.74V384.148
		z"/>
	
		<linearGradient id="SVGID_8_" gradientUnits="userSpaceOnUse" x1="56.4116" y1="39.9868" x2="56.4116" y2="710.6962" gradientTransform="matrix(1 0 0 -1 244 717.9609)">
		<stop  offset="0" style="stop-color:#000000"/>
		<stop  offset="1" style="stop-color:#000000"/>
	</linearGradient>
	<path fill="url(#SVGID_8_)" d="M277.542,349.208h45.74c4.694,0,8.5-3.806,8.5-8.5v-45.74c0-4.694-3.806-8.5-8.5-8.5h-45.74
		c-4.694,0-8.5,3.806-8.5,8.5v45.74C269.042,345.403,272.847,349.208,277.542,349.208z M286.042,303.469h28.74v28.741h-28.74
		V303.469z"/>
	
		<linearGradient id="SVGID_9_" gradientUnits="userSpaceOnUse" x1="56.4116" y1="39.9814" x2="56.4116" y2="710.7012" gradientTransform="matrix(1 0 0 -1 244 717.9609)">
		<stop  offset="0" style="stop-color:#000000"/>
		<stop  offset="1" style="stop-color:#000000"/>
	</linearGradient>
	<path fill="url(#SVGID_9_)" d="M277.542,510.568h45.74c4.694,0,8.5-3.806,8.5-8.5v-45.741c0-4.693-3.806-8.5-8.5-8.5h-45.74
		c-4.694,0-8.5,3.807-8.5,8.5v45.741C269.042,506.763,272.847,510.568,277.542,510.568z M286.042,464.827h28.74v28.741h-28.74
		V464.827z"/>
	
		<linearGradient id="SVGID_10_" gradientUnits="userSpaceOnUse" x1="136.5513" y1="39.9814" x2="136.5512" y2="710.7012" gradientTransform="matrix(1 0 0 -1 244 717.9609)">
		<stop  offset="0" style="stop-color:#000000"/>
		<stop  offset="1" style="stop-color:#000000"/>
	</linearGradient>
	<path fill="url(#SVGID_10_)" d="M357.681,429.89h45.741c4.693,0,8.5-3.807,8.5-8.5v-45.741c0-4.694-3.807-8.5-8.5-8.5h-45.741
		c-4.694,0-8.5,3.806-8.5,8.5v45.741C349.181,426.083,352.986,429.89,357.681,429.89z M366.181,384.148h28.741v28.741h-28.741
		V384.148z"/>
	
		<linearGradient id="SVGID_11_" gradientUnits="userSpaceOnUse" x1="136.5513" y1="39.9868" x2="136.5512" y2="710.6962" gradientTransform="matrix(1 0 0 -1 244 717.9609)">
		<stop  offset="0" style="stop-color:#000000"/>
		<stop  offset="1" style="stop-color:#000000"/>
	</linearGradient>
	<path fill="url(#SVGID_11_)" d="M357.681,349.208h45.741c4.693,0,8.5-3.806,8.5-8.5v-45.74c0-4.694-3.807-8.5-8.5-8.5h-45.741
		c-4.694,0-8.5,3.806-8.5,8.5v45.74C349.181,345.403,352.986,349.208,357.681,349.208z M366.181,303.469h28.741v28.741h-28.741
		V303.469z"/>
	
		<linearGradient id="SVGID_12_" gradientUnits="userSpaceOnUse" x1="136.5513" y1="39.9814" x2="136.5512" y2="710.7012" gradientTransform="matrix(1 0 0 -1 244 717.9609)">
		<stop  offset="0" style="stop-color:#000000"/>
		<stop  offset="1" style="stop-color:#000000"/>
	</linearGradient>
	<path fill="url(#SVGID_12_)" d="M357.681,510.568h45.741c4.693,0,8.5-3.806,8.5-8.5v-45.741c0-4.693-3.807-8.5-8.5-8.5h-45.741
		c-4.694,0-8.5,3.807-8.5,8.5v45.741C349.181,506.763,352.986,510.568,357.681,510.568z M366.181,464.827h28.741v28.741h-28.741
		V464.827z"/>
	
		<linearGradient id="SVGID_13_" gradientUnits="userSpaceOnUse" x1="96.4805" y1="39.9814" x2="96.4804" y2="710.7012" gradientTransform="matrix(1 0 0 -1 244 717.9609)">
		<stop  offset="0" style="stop-color:#000000"/>
		<stop  offset="1" style="stop-color:#000000"/>
	</linearGradient>
	<path fill="url(#SVGID_13_)" d="M665.782,629.239h-10.401V461.081c0-7.309-5.945-13.254-13.255-13.254h-57.278v-95.888
		c54.203-4.571,96.115-49.783,96.115-104.588c0-45.243-29.298-85.428-71.896-99.58c-5.459-28.964-20.604-55.407-43.028-74.936
		C542.011,51.91,511.2,40.385,479.285,40.385c-19.212,0-38.3,4.217-55.623,12.246C394.104,19.097,351.978,0,307.029,0
		c-32.093,0-62.901,9.689-89.096,28.022c-23.447,16.41-41.705,38.617-53.159,64.558c-10.653-2.716-21.62-4.087-32.699-4.087
		c-23.338,0-46.277,6.168-66.341,17.838c-4.058,2.359-5.435,7.563-3.074,11.621c2.36,4.058,7.563,5.434,11.622,3.072
		c17.471-10.162,37.455-15.532,57.793-15.532c11.902,0,23.648,1.814,34.916,5.396l0.086,0.029c0.013,0.004,0.024,0.006,0.036,0.01
		c8.112,2.586,15.951,6.081,23.308,10.411c1.354,0.797,2.839,1.176,4.304,1.176c2.912,0,5.749-1.498,7.333-4.188
		c2.381-4.046,1.032-9.257-3.014-11.638c-5.76-3.391-11.781-6.33-17.981-8.806C203.392,49.173,252.941,17,307.029,17
		c42.075,0,81.375,18.788,107.823,51.546c2.556,3.167,6.995,4.075,10.593,2.172c16.463-8.722,35.08-13.333,53.84-13.333
		c52.571,0,98.44,36.227,111.396,86.063c-5.617-0.793-11.306-1.15-16.986-1.03c-4.692,0.096-8.421,3.979-8.324,8.672
		c0.098,4.692,4.013,8.443,8.673,8.324c8.445-0.171,16.881,0.858,24.963,3.049c0.1,0.031,0.19,0.077,0.292,0.104
		c38.073,10.464,64.665,45.329,64.665,84.785c0,45.443-34.388,83.015-79.115,87.517v-4.825c0-8.102-6.592-14.692-14.693-14.692
		h-23.055V251.73c13.117-3.713,22.76-15.786,22.76-30.077c0-17.236-14.022-31.26-31.26-31.26s-31.261,14.023-31.261,31.26
		c0,14.291,9.643,26.364,22.761,30.077v63.619h-74.016V268.53h8.541c7.904,0,14.334-6.43,14.334-14.334v-22.822
		c0-7.904-6.43-14.334-14.334-14.334h-62.773c0.202-2.904,1.418-5.608,3.496-7.688l25.027-25.027
		c4.517,2.535,9.718,3.987,15.254,3.987c17.235,0,31.26-14.022,31.26-31.26s-14.023-31.261-31.26-31.261
		c-17.237,0-31.262,14.022-31.262,31.261c0,5.536,1.452,10.736,3.987,15.251l-25.029,25.029c-5.289,5.29-8.28,12.26-8.495,19.707
		h-35.85v-90.892c13.118-3.713,22.761-15.786,22.761-30.077c0-17.236-14.022-31.26-31.261-31.26s-31.261,14.023-31.261,31.26
		c0,14.291,9.643,26.364,22.761,30.077v90.892h-35.848c-0.215-7.447-3.207-14.417-8.496-19.707l-25.029-25.029
		c2.535-4.515,3.987-9.715,3.987-15.251c0-17.237-14.023-31.261-31.261-31.261s-31.261,14.022-31.261,31.261
		c0,17.237,14.023,31.26,31.261,31.26c5.536,0,10.737-1.453,15.253-3.987l25.028,25.027c2.078,2.078,3.293,4.782,3.496,7.688
		h-62.775c-7.903,0-14.334,6.43-14.334,14.334v22.822c0,7.904,6.431,14.334,14.334,14.334h8.537v46.816h-74.011V251.73
		c13.118-3.713,22.761-15.786,22.761-30.077c0-17.236-14.022-31.26-31.261-31.26c-17.237,0-31.26,14.023-31.26,31.26
		c0,14.291,9.642,26.364,22.76,30.077v63.616h-23.058c-7.948,0-14.426,6.357-14.662,14.258
		c-47.021-15.331-79.145-59.014-79.145-109.2c0-25.951,8.445-50.427,24.423-70.778c2.899-3.692,2.257-9.036-1.437-11.936
		c-3.692-2.898-9.036-2.254-11.936,1.438c-18.352,23.376-28.052,51.48-28.052,81.276c0,30.18,9.933,58.582,28.721,82.139
		c17.211,21.576,41.003,37.354,67.4,44.816v100.467H38.834c-7.309,0-13.254,5.945-13.254,13.254v168.159H15.178
		c-8.369,0-15.18,6.811-15.18,15.181v21.36c0,8.37,6.811,15.181,15.18,15.181h500.044c4.693,0,8.5-3.807,8.5-8.5
		c0-4.694-3.807-8.5-8.5-8.5H17.001v-17.722h646.961v17.722H561.979c-4.694,0-8.5,3.806-8.5,8.5c0,4.693,3.806,8.5,8.5,8.5h103.803
		c8.37,0,15.18-6.811,15.18-15.181v-21.36C680.962,636.049,674.152,629.239,665.782,629.239z M524.338,221.654
		c0-7.862,6.396-14.26,14.261-14.26s14.26,6.397,14.26,14.26c0,7.863-6.396,14.262-14.26,14.262S524.338,229.518,524.338,221.654z
		 M445.628,142.793c7.862,0,14.26,6.396,14.26,14.261s-6.396,14.26-14.26,14.26c-7.864,0-14.262-6.396-14.262-14.26
		S437.765,142.793,445.628,142.793z M326.221,96.072c0-7.862,6.396-14.26,14.261-14.26s14.261,6.397,14.261,14.26
		c0,7.863-6.396,14.262-14.261,14.262S326.221,103.936,326.221,96.072z M221.075,157.053c0-7.863,6.397-14.261,14.26-14.261
		c7.863,0,14.262,6.396,14.262,14.261s-6.397,14.26-14.262,14.26C227.473,171.313,221.075,164.917,221.075,157.053z
		 M128.104,221.654c0-7.862,6.396-14.26,14.26-14.26s14.262,6.397,14.262,14.26c0,7.863-6.397,14.262-14.262,14.262
		C134.501,235.916,128.104,229.518,128.104,221.654z M638.38,464.827v164.412h-53.533V464.827H638.38z M219.003,234.04h242.955
		v17.49H219.003V234.04z M439.085,268.53v95.822c0,4.694,3.806,8.5,8.5,8.5c4.693,0,8.5-3.806,8.5-8.5V332.35h111.763v296.89
		H456.085V411.11c0-4.693-3.807-8.5-8.5-8.5c-4.694,0-8.5,3.807-8.5,8.5v218.129h-27.163v-92.231c0-4.694-3.807-8.5-8.5-8.5h-125.88
		c-4.694,0-8.5,3.806-8.5,8.5v92.231h-27.166V268.53H439.085z M321.042,596.628h10.939v32.61h-45.939v-83.731h45.939v34.121h-10.939
		c-4.693,0-8.5,3.806-8.5,8.5C312.542,592.821,316.348,596.628,321.042,596.628z M348.981,596.628h10.939c4.693,0,8.5-3.807,8.5-8.5
		c0-4.694-3.807-8.5-8.5-8.5h-10.939v-34.121h45.94v83.731h-45.94V596.628z M42.583,464.827h53.539v64.475
		c0,4.693,3.807,8.5,8.5,8.5c4.694,0,8.5-3.807,8.5-8.5V332.347h111.754v296.893H113.122v-53.181c0-4.694-3.806-8.5-8.5-8.5
		c-4.693,0-8.5,3.806-8.5,8.5v53.181H42.583V464.827z"/>
</g>
</svg>
