<?xml version="1.0" encoding="utf-8"?>
<!-- Generator: Adobe Illustrator 16.0.0, SVG Export Plug-In . SVG Version: 6.00 Build 0)  -->
<!DOCTYPE svg PUBLIC "-//W3C//DTD SVG 1.1//EN" "http://www.w3.org/Graphics/SVG/1.1/DTD/svg11.dtd" [
	<!ENTITY ns_extend "http://ns.adobe.com/Extensibility/1.0/">
	<!ENTITY ns_ai "http://ns.adobe.com/AdobeIllustrator/10.0/">
	<!ENTITY ns_graphs "http://ns.adobe.com/Graphs/1.0/">
	<!ENTITY ns_vars "http://ns.adobe.com/Variables/1.0/">
	<!ENTITY ns_imrep "http://ns.adobe.com/ImageReplacement/1.0/">
	<!ENTITY ns_sfw "http://ns.adobe.com/SaveForWeb/1.0/">
	<!ENTITY ns_custom "http://ns.adobe.com/GenericCustomNamespace/1.0/">
	<!ENTITY ns_adobe_xpath "http://ns.adobe.com/XPath/1.0/">
]>
<svg version="1.1" id="Layer_1" xmlns:x="&ns_extend;" xmlns:i="&ns_ai;" xmlns:graph="&ns_graphs;"
	 xmlns="http://www.w3.org/2000/svg" xmlns:xlink="http://www.w3.org/1999/xlink" x="0px" y="0px" width="600px" height="560px"
	 viewBox="0 0 600 560" enable-background="new 0 0 600 560" xml:space="preserve">
<switch>
	<foreignObject requiredExtensions="&ns_ai;" x="0" y="0" width="1" height="1">
		<i:pgfRef  xlink:href="#adobe_illustrator_pgf">
		</i:pgfRef>
	</foreignObject>
	<g i:extraneous="self">
		<g>
			<path fill="#211747" d="M165.239,421.764c-55.796,0-101.189-45.674-101.189-101.814s45.394-101.814,101.189-101.814
				c55.797,0,101.191,45.674,101.191,101.814S221.036,421.764,165.239,421.764z M165.239,232.135
				c-48.076,0-87.189,39.394-87.189,87.814s39.113,87.814,87.189,87.814c48.077,0,87.191-39.394,87.191-87.814
				S213.316,232.135,165.239,232.135z"/>
		</g>
		<path id="_x39_" fill="#211747" d="M116.778,474.503c4.795,0,8.738,3.877,8.738,8.732c0,4.792-3.942,8.734-8.738,8.734H46.46
			c-7.16,0-13.712-2.973-18.507-7.702v-0.061c-4.733-4.734-7.706-11.282-7.706-18.508V26.469c0-7.16,2.973-13.712,7.706-18.503
			C32.683,3.233,39.235,0.26,46.46,0.26h245.792c3.763,0,7.282,0.73,10.564,2.186c3.217,1.456,6.128,3.576,8.738,6.308v0.062V8.753
			l65.955,70.567c0.179,0.184,0.302,0.363,0.485,0.546c2.116,2.365,3.637,4.978,4.729,7.706c1.093,2.977,1.7,6.128,1.7,9.468v42.837
			c0,4.852-3.942,8.737-8.738,8.737c-4.851,0-8.799-3.886-8.799-8.737V97.041c0-1.215-0.118-2.304-0.485-3.278
			c-0.362-0.787-0.786-1.517-1.333-2.247c-0.122-0.118-0.248-0.179-0.367-0.301l-65.894-70.567c-0.914-0.971-1.941-1.7-3.034-2.247
			c-1.027-0.424-2.181-0.664-3.519-0.664H46.46c-2.364,0-4.55,0.97-6.128,2.609l-0.061-0.061c-1.579,1.574-2.548,3.82-2.548,6.185
			v439.23c0,2.426,0.97,4.611,2.548,6.189l0.061,0.061c1.579,1.521,3.759,2.554,6.128,2.554H116.778z"/>
		<path id="_x37_" fill="#2CC84D" d="M242.924,78.346c4.852,0,8.738,3.886,8.738,8.738c0,4.794-3.886,8.738-8.738,8.738H120.97
			c-4.856,0-8.742-3.943-8.742-8.738c0-4.852,3.886-8.738,8.742-8.738H242.924z M79.34,78.346c4.856,0,8.803,3.886,8.803,8.738
			c0,4.794-3.942,8.738-8.803,8.738h-6.548c-4.799,0-8.742-3.943-8.742-8.738c0-4.852,3.943-8.738,8.742-8.738H79.34z"/>
		<path id="_x36_" fill="#211747" d="M185.461,157.65c4.795,0,8.738,3.938,8.738,8.738c0,4.852-3.942,8.734-8.738,8.734h-64.496
			c-4.852,0-8.738-3.882-8.738-8.734c0-4.795,3.886-8.738,8.738-8.738H185.461z M79.344,157.65c4.852,0,8.799,3.938,8.799,8.738
			c0,4.852-3.942,8.734-8.799,8.734h-6.552c-4.795,0-8.742-3.882-8.742-8.734c0-4.795,3.943-8.738,8.742-8.738H79.344z"/>
		<path id="_x35_" fill="#2CC84D" d="M242.924,118.026c4.852,0,8.738,3.886,8.738,8.738c0,4.791-3.886,8.737-8.738,8.737H120.97
			c-4.856,0-8.742-3.943-8.742-8.737c0-4.852,3.886-8.738,8.742-8.738H242.924z M79.34,118.026c4.856,0,8.803,3.886,8.803,8.738
			c0,4.791-3.942,8.737-8.803,8.737h-6.548c-4.799,0-8.742-3.943-8.742-8.737c0-4.852,3.943-8.738,8.742-8.738H79.34z"/>
		<path id="_x34_" fill="#211747" d="M301.234,3.473l79.541,86.342c3.216,3.519,3.038,9.04-0.547,12.313
			c-1.639,1.517-3.754,2.308-5.883,2.308h-54.787c-9.342,0-17.778-3.825-23.906-9.949c-0.179-0.184-0.367-0.363-0.546-0.546
			c-5.827-6.072-9.407-14.32-9.407-23.363V8.999c0-4.795,3.886-8.738,8.742-8.738C297.165,0.26,299.595,1.533,301.234,3.473
			L301.234,3.473z M354.448,86.965l-51.272-55.583v39.2c0,4.367,1.699,8.31,4.432,11.221c0.118,0.123,0.244,0.245,0.367,0.367
			c2.972,2.972,7.094,4.791,11.584,4.791L354.448,86.965z"/>
		<path id="_x33_" fill="#2CC84D" d="M417.55,47.342c-0.972,4.729-5.578,7.763-10.313,6.736c-4.732-0.975-7.768-5.582-6.797-10.259
			l3.341-15.897l4.365-20.688c0.849-4.122,4.489-6.98,8.555-6.98h15.29h15.289c4.429,0,8.074,3.278,8.678,7.584l6.43,30.58
			c4.489,1.276,8.86,2.793,13.104,4.55c4.311,1.761,8.493,3.825,12.497,6.071l26.76-17.475c3.457-2.247,8.008-1.701,10.858,1.154
			h0.064l10.802,10.801c0.118,0.184,0.302,0.307,0.429,0.485l10.372,10.377c3.029,2.973,3.34,7.707,0.975,11.103l-17.297,26.511
			c2.305,4.008,4.311,8.191,6.129,12.501c1.7,4.245,3.218,8.616,4.49,13.105l31.188,6.614c4.309,0.848,7.221,4.733,6.98,8.978
			v14.814v15.29c0,4.428-3.274,8.13-7.585,8.677l-30.579,6.43c-1.272,4.55-2.794,8.921-4.489,13.104
			c-2.549,6.129-5.583,11.951-9.039,17.358c-2.544,4.122-7.947,5.337-12.074,2.728c-4.064-2.609-5.274-8.008-2.67-12.077
			c2.977-4.668,5.524-9.586,7.649-14.679c2.063-4.978,3.697-10.075,4.913-15.29c0.547-3.458,3.212-6.313,6.797-7.099l29.601-6.19
			v-8.252h0.062v-8.192l-29.671-6.25c-3.213-0.665-5.945-3.156-6.735-6.613c-1.155-5.398-2.851-10.618-4.975-15.771
			c-2.124-5.097-4.673-10.015-7.649-14.683c-1.758-2.793-1.818-6.435,0.062-9.407l16.57-25.361l-5.347-5.398
			c-0.179-0.118-0.296-0.245-0.484-0.428l-5.822-5.823l-24.819,16.2c-2.85,2.181-6.796,2.426-9.944,0.424
			c-4.672-2.972-9.585-5.521-14.683-7.645c-4.978-2.063-10.132-3.703-15.351-4.913c-3.396-0.546-6.313-3.156-7.038-6.797
			l-6.26-29.614h-8.187h-8.257l-2.85,13.712L417.55,47.342z M431.991,93.88c-4.856,0-8.742-3.885-8.742-8.738
			c0-4.852,3.886-8.737,8.742-8.737c19.774,0,37.674,8.012,50.661,20.994c12.925,12.925,20.933,30.825,20.933,50.604
			c0,5.219-0.546,10.376-1.639,15.29c-1.093,5.031-2.732,9.892-4.848,14.561c-2.006,4.371-7.164,6.312-11.592,4.31
			c-4.367-2.006-6.251-7.165-4.244-11.531c1.573-3.396,2.788-7.099,3.637-10.985c0.79-3.759,1.215-7.645,1.215-11.649
			c0-14.927-6.067-28.46-15.836-38.286C460.447,99.952,446.913,93.88,431.991,93.88z"/>
		<g>
			<path fill="#2CC84D" d="M160.91,325.396c-0.013-0.034-0.026-0.068-0.04-0.103c-0.71-1.747-2.387-2.876-4.271-2.876c0,0,0,0,0,0
				c-1.885,0-3.562,1.129-4.308,2.969l-9.653,25.514c-0.788,2.081,0.262,4.407,2.343,5.195s4.408-0.261,5.195-2.344l1.419-3.75
				h9.933l1.402,3.739c0.606,1.618,2.142,2.616,3.774,2.616c0.47,0,0.948-0.083,1.415-0.258c2.084-0.781,3.14-3.104,2.358-5.188
				L160.91,325.396z M154.644,341.941l1.939-5.127l1.922,5.127H154.644z"/>
			<path fill="#2CC84D" d="M132.901,322.417c-2.226,0-4.03,1.805-4.03,4.03v8.466h-9.731v-8.466c0-2.226-1.805-4.03-4.03-4.03
				s-4.03,1.805-4.03,4.03v25.879c0,2.226,1.805,4.03,4.03,4.03s4.03-1.805,4.03-4.03v-9.353h9.731v9.353
				c0,2.226,1.805,4.03,4.03,4.03s4.03-1.805,4.03-4.03v-25.879C136.932,324.222,135.127,322.417,132.901,322.417z"/>
			<path fill="#2CC84D" d="M217.939,330.478c2.226,0,4.03-1.805,4.03-4.03s-1.805-4.03-4.03-4.03h-10.831
				c-2.226,0-4.03,1.805-4.03,4.03v25.879c0,2.226,1.805,4.03,4.03,4.03h10.831c2.226,0,4.03-1.805,4.03-4.03s-1.805-4.03-4.03-4.03
				h-6.801v-4.879h6.003c2.226,0,4.03-1.805,4.03-4.03s-1.805-4.03-4.03-4.03h-6.003v-4.879H217.939z"/>
			<path fill="#2CC84D" d="M194.28,322.669c-2.114-0.697-4.393,0.451-5.09,2.564l-5.187,15.717l-5.454-15.816
				c-0.726-2.104-3.021-3.225-5.124-2.496c-2.104,0.726-3.222,3.02-2.497,5.123l8.795,25.508c0.648,1.85,2.394,3.087,4.35,3.087
				c0.009,0,0.019,0,0.028,0c1.967-0.012,3.711-1.273,4.348-3.163l8.394-25.434C197.542,325.646,196.394,323.366,194.28,322.669z"/>
			<path fill="#2CC84D" d="M133.983,287.238c-0.417-2.057-2.17-3.573-4.265-3.689c-2.094-0.101-4.003,1.199-4.644,3.197
				c-0.014,0.044-0.027,0.088-0.04,0.133l-3.832,13.529l-3.977-13.569c-0.014-0.049-0.03-0.099-0.046-0.147
				c-0.667-1.988-2.584-3.291-4.685-3.136c-2.091,0.142-3.824,1.68-4.223,3.781l-4.52,25.2c-0.393,2.19,1.064,4.285,3.255,4.678
				c2.191,0.39,4.286-1.064,4.678-3.256l1.932-10.772l3.224,10.999c0.014,0.047,0.029,0.095,0.044,0.142
				c0.63,1.888,2.385,3.152,4.373,3.152c0.006,0,0.013,0,0.019,0c1.996-0.008,3.751-1.289,4.369-3.188
				c0.016-0.049,0.031-0.098,0.044-0.147l3.111-10.984L130.859,314c0.415,2.187,2.521,3.628,4.711,3.207
				c2.187-0.415,3.623-2.524,3.208-4.711L133.983,287.238z"/>
			<path fill="#2CC84D" d="M149.962,315.477c2.062,1.326,4.388,2,6.914,2.004c0.006,0,0.012,0,0.018,0
				c2.167,0,4.205-0.476,6.056-1.414c4.547-2.307,7.052-6.108,7.052-10.706v-17.788c0-2.226-1.805-4.03-4.03-4.03
				s-4.03,1.805-4.03,4.03v17.788c0,1.078-0.313,2.339-2.637,3.517c-0.721,0.365-1.509,0.543-2.41,0.543c-0.003,0-0.005,0-0.008,0
				c-0.972-0.001-1.811-0.237-2.566-0.724c-1.824-1.172-2.181-2.104-2.181-3.316v-17.808c0-2.226-1.805-4.03-4.03-4.03
				s-4.03,1.805-4.03,4.03v17.808C144.079,309.57,146.059,312.968,149.962,315.477z"/>
			<path fill="#2CC84D" d="M222.761,283.542h-14.198c-2.226,0-4.03,1.805-4.03,4.03s1.805,4.03,4.03,4.03h3.039v21.848
				c0,2.226,1.805,4.03,4.03,4.03s4.03-1.805,4.03-4.03v-21.848h3.099c2.226,0,4.03-1.805,4.03-4.03
				S224.986,283.542,222.761,283.542z"/>
			<path fill="#2CC84D" d="M191.33,297.023c-3.003-1.114-5.81-2.325-6.819-2.768c-0.283-0.277-0.306-0.629-0.268-0.893
				c0.054-0.377,0.317-1.062,1.47-1.411c2.987-0.909,5.261,0.582,5.718,0.916c1.188,1.48,3.295,1.957,5.032,1.033
				c1.966-1.044,2.712-3.484,1.668-5.449c-1.389-2.612-7.681-6.362-14.757-4.213c-3.843,1.164-6.567,4.22-7.108,7.973
				c-0.512,3.548,1.017,6.964,3.989,8.915c0.178,0.117,0.366,0.22,0.561,0.308c0.149,0.066,3.708,1.661,7.71,3.145
				c1.503,0.559,3.04,1.544,2.844,2.633c-0.164,0.914-1.443,2.267-3.667,2.267c-2.315,0-4.538-0.933-5.944-2.494
				c-1.489-1.654-4.039-1.788-5.691-0.299c-1.654,1.489-1.788,4.038-0.298,5.692c2.954,3.279,7.303,5.161,11.934,5.161
				c5.795,0,10.674-3.743,11.601-8.9C200.007,304.717,198.284,299.606,191.33,297.023z"/>
		</g>
		<path fill="#211747" d="M568.514,250.545v-0.066c-6.92-6.915-16.444-11.221-27.005-11.221h-76.63v-42.535
			c0-8.31-3.462-15.898-8.921-21.418c-5.463-5.521-13.104-8.917-21.418-8.917H288.493c-8.371,0-15.964,3.396-21.484,8.917
			c-5.46,5.459-8.856,13.109-8.856,21.418v42.535h-31.28c6.559,5.083,12.484,10.955,17.632,17.476h13.647h8.738h36.888h8.742
			h228.988c5.704,0,10.919,2.369,14.684,6.128v-0.061c3.763,3.763,6.07,8.978,6.07,14.683v54.546h-0.004
			c0,5.154-2.002,9.407-5.28,12.686c-4.184,4.127-10.313,6.915-17.108,8.248l-132.938,25.449v-29.51
			c0-4.55-1.874-8.733-4.852-11.714l-0.063-0.063c-2.976-2.968-7.099-4.847-11.653-4.847h-57.697c-4.55,0-8.681,1.879-11.715,4.847
			v0.063c-3.033,2.972-4.917,7.164-4.917,11.714v29.291l-60.889-11.557c-2.88,5.592-6.26,10.881-10.08,15.81l70.969,13.475v16.936
			c0,12.501,5.158,23.844,13.354,32.092c8.247,8.258,19.596,13.354,32.097,13.354c12.502,0,23.91-5.097,32.098-13.354
			c8.256-8.248,13.349-19.596,13.349-32.092v-16.71l136.217-26.075c6.918-1.288,13.492-3.783,19.114-7.403v158.857
			c0,5.701-2.313,10.919-6.07,14.684c-3.765,3.758-8.979,6.063-14.684,6.063H181.458c-5.704,0-10.867-2.309-14.621-6.063
			c-3.764-3.765-6.128-8.979-6.128-14.684v-99.87c-5.973-0.266-11.813-1.056-17.476-2.325v102.195
			c0,10.553,4.305,20.081,11.225,26.996c6.916,6.924,16.505,11.226,27,11.226h360.051c10.561,0,20.085-4.302,27.005-11.226
			c6.915-6.915,11.226-16.505,11.226-26.996V277.484C579.739,266.989,575.429,257.465,568.514,250.545z M410.516,239.259h-97.995
			v-19.656h97.995V239.259z M447.404,239.259h-19.413V210.86v-8.734h-8.742H303.782h-8.738v8.734v28.395h-19.412v-42.531
			c0-3.519,1.451-6.732,3.755-9.04c2.369-2.37,5.582-3.82,9.105-3.82h146.042c3.523,0,6.735,1.456,9.045,3.825h0.064
			c2.305,2.303,3.76,5.516,3.76,9.039V239.259z M389.461,412.857c0,7.64-3.16,14.687-8.196,19.723
			c-5.097,5.097-12.068,8.248-19.779,8.248c-7.642,0-14.62-3.151-19.717-8.248c-5.098-5.041-8.192-12.083-8.192-19.723v-63.102
			h55.885V412.857z"/>
	</g>
</switch>
<i:pgf  id="adobe_illustrator_pgf">
	<![CDATA[
	eJzVvWl78jiyAHo/9/PkP0BWEgJ4X7InELLv+x4CJOENAQKkZ/p8uL/9VkmyLRuvwJwzd3o6nZTl
klQq1aYqayZ9epHbrLXf6jk5L6Qm/pqZKXbrlX67u5Qi4NRes/nb63cRlDmfT4laXsBWm3vGC2t5
Xe/2Gu3WEnlGn5bx/Uyp8v2bOm40673P1HmlPZ/KzOPDy0a/WYfHnXa3/95uNtr53t8f83bXgKpU
6UMDvSApBUmQ5JSyJOqp0yPSpNL6u9LrNf6njv3JhozArfZvq9ZofWy1/w1QMyWkVAP+1UR8uNs4
r/c8LfK6oospIa+roqnKKVU385IqmfCKkJcUA18rtau/3/VW/7TbrtZ7vWK72e72llLFfyqt1FHl
A55UUnf1ZrP9r9RWs1L9gnc299SXMkwXZv9d6adEiRBjc0+UXrZ+G83a8e/3Wx0IoxkSgcsvBOtV
D9ABZvydwPWXvW8AXdT7fRgydEpoer6zxY8FoOSfzMN5/aNBVggo9zRvYe62O9+V7he8nRPyagr/
VU0Tf8IcVdbqsv7daQKxCVkk8lgysCn3u9UUJkaa5UwNHuUkFX5qJv5UDc1u5pCt/nej/q+l1HG7
VWe02ez2L+jCKYog0J/s0flvs969ajX6MF6NwExKnKN2rd6ENxwU5WaF0IT8Izo/WYvLSvej3ocl
bzd/+4QtDbsXWIDDyj91XEeRdXLSqbcu29dkqDlR142UKADvIA1E4I6UqWopSSO9KBosqWF3LDo/
GXrEhZisPnRctlNYyZNu46PRWrIGqb/sdBs1Z3l1KWXQH2QieYP717T+ZeOF2ff79ZY1AWCt4hHH
KEL+6AJ73W7Viu1vXIge2SDAIi3gnmb7gz11/iDPAMVvh02DAF5g3U67jRYinvjrmD4zXk6bv/Bw
p9v+7ey13tsTf2WolLiuV0ESwOLWUidvf+AP2OyEiVOX3UoVcMDfdpt8pdGZj0AI8+zWU/QpvEv+
hP++43/jvF+qv8MudBBQ6Hbr73qz3eEQ25BKq5a6qXQ7cZCfNiutSjdFHti4Dxt/w5MKkMzB7sBi
oQWu6QCRyEukjaeLkAbco1hdVfqfILfqrVrPxk7/9AyeAuOgvPjn+w2kee/bRshD7N9jjq5f77ZO
WnSY3V9QIJftdtMhBG3AHjmL3O3Td/5rOrEb+3UAD/97kRcrzWbjo1vpfDaqfvh9ntsdBbwbi4uq
hOp+Pbof2Z0NvvHf1I/FRNu1Bgi/gG0d2ubiX5V+9RPEy1u30m3UI/YiLu97o1WDgV78Nvp1Z73a
3x00glIXn5UOgrFlmWvp4FVfQEHwCiCXi1QNJn2GKr7/D1h8E38VDlrtf7XIX6klGNkDiOTKb7P/
NJ8qHFe+66lFaHPRAAOkbjcSUif4w1GxYuq2gpBz+AHWmiCh1abppmbI5BdBkiTUjoKoKey12018
QbT++gf/2off/gDsX6DdU0ephychVZuAh4CW9FGDoVDRvTzxV6oAI8VfyLSAFNykoqlzWmmCOq7T
aZy+xR+315AjFLj9H6Sc18I7rcK/W85o7D6TLdIhIHUtzOCUaZMheUIU6EMq+xHV/2PBAZkXGtQD
G7RlWIJvABwx81KwAMg3+GejiuSpdP9hgNujw2MwHgMeL6cy//5utqBBDnZft/H226+DKlwkjTe7
3cr/Kpox9cK1q36Cw9Gtt1grKVXYA1LZj/FH/x+UA+RxZrbVe/m70u0tw+a8gB5aH+62f1eav3Zj
fNALaNiCnc3asdH03H/+/55Ubw3iSYpxKAUkBcv6mNAkBrn45ov/FZNtgfcWZ6LNdvWrXos1Savp
OJlidEKI4YSIt9aNyluzHmtnxFnd//PFTy4Ulv6OLxaw7X8Hk+M8q7+9fvv7v0D8/UdZdKlXQXsL
dSgImvic+r+xb2BA/23j+e8g0He9X6nBio1hMObIg5mqMbMr1gbgWhOQwPrH6ORmt17ZJAELP3nv
lQLovL61K91aChXvVatRhc6sAXAaUzdMMa+mdFPE/xTO65XmaRvsSTK9DAkz0micZ0SlRq/TrPxz
VOl+OQuHb4OjtHnOQDSAKrgQn9ebl+1zipN2ctruNXDs5LHEXiVBWBJ6jf+u6IxkC9zNVGavZ1GB
mezHfmtvtSHktGjrpaesWdPrVGo1hxi0o+9K78vbea/T7nvbVZoNS4bplpStdRp5BlMYqNpudh2m
2NxLbf7226nzSg/c3sb/1L1YwUMQUxbnpL5aYDC0f/upD+oQh7Vt9NoYzk69YdSKRB29rc1UB9zf
bqrX+P5tEofKoySwCbharV6nAvum+g9026iles4wRa5hxWLKKsaqLS6RFMkIbJSSYHT2fops+9Gt
27s3snHXtqs0VZXV4KYiP4bItvwYIhs7YyDHM3ZTy12jBzgXLnpyS3narffq3b/rqcv6v/skIlJ5
azQbfYuRMw9H9Vrj9zvlRPifBgUCQWU7iCS4nWKRc1h70kc/xW0eURWs7YCTOqInVpQ9CZNw3bFX
ZMH1yslvvwM8GvGSYJNjcHyHldbHL0bMT9sdns+ZEHLiu3h48FJuttvdk/f3Xt3alIpq6NaG8229
wy2jogYhPqy/98uVan2z9dG0yCNpkhiEGtvveBgkpOl5veahhbcVngKxJoZIhLmhKH7C3PviRb9i
i05rmkYgAfGgBngF5H6/0qra+zH4hfPGx2d/+999R5th6ChyUNWKQ8aAGV86GpjfXr4DiKYfabbF
iZjgKeGCuGYkS7qmh/EQjzecUiedStXZtmGISfN4zEmaerkzeCA4P/c4eL0hpN5tkQD6pdlo1VN9
kDr2Bg9CW6w3mxf+ekvjcFZa/UYKNGTFUpEZekDOWU5fm3vl32bTkgTsJB2eBqltj6dwUW/uVvrw
+mEb+AwFWs+l9QNawzLUu3slV1v++SXav9h1TKr1+t32l+3NBK8HFVquBRED1xqpXGz/2rwpBePd
xWPFdmu3juwRl5WdnaQapiGGyCyO6UM3HR4L1q8bvQbVWCiPnPdyqqUwQqQFGIQV/IMM8LrSavQ+
gU94iSYGLEW12eiADkbv7t+ggz+Aaaz1EAVO7fDvdImyyv1NzmVTb5UmJwgNRSaiVxa1GKLXmT6u
mkdI+g+4Yyn69t/1bgdDvj231NfNWFIfF4j0fNnu8ITSdeIBMGRxsPjSO9lgHDp4RhPIN45Dsteq
1f99Ua+2WzV33zHVn02IrXa/3/520cJUEyymjWhgLZMNyCHG4Iji0qPc6Pbs3jU9wYqS3n2XNKhv
sulC93CwiAh5LYOun4D/o/4f+ZXTARfXOyRbZ6v979s76x1QE/QV6xfPC2i9uF5A1L4tGWqXbMxo
Qnjrm0at/2krBiB1td2t1Ws+SilVOG733c8tUXoI4sXyRfdK4fY7Z7hLKXAQw4x1t75FbxIV7SYq
Wsfl48UOwVhEAVlkAvLcLSC9bU+YXrtw6TUhqNmlYzTojm9E21CHoEBzX1JbLhkretqeeCVhNLHE
1PbpRQJqYesoclGcMelFG0cTzN0ugGK0UUySMYxemom8r99qO+ol1WgRBYkRFjvkFMHKDq0LTtC2
8Kf9lu+Ap9YFj807sIF22HWl2Yxo1vtqdN5gol8eWeNt163DdHp1HGI3oik45E1OCg06yd4XLFc+
ybSsd7goN3PjkeL77TdMS0hxpmQUxSWfDqvfecBWdxlBfo0sk6L6/U8YHbmW7f5nJB3fGv3vCr4w
4MpTY5Rv3/n4/sqD7Vyvtd/f829E7VmeXWB7kqY50N5vjm70v7062Opb+KcjMLgki5DlRt6ok3Xg
gyA+Pfb6zXyNoiRLblMrgp/wPfYCFxGO81Kn9o0pn6344+rU4qOnxzzOK36L3ul0WbuwpYBGbADW
AoMQ91tiaPgvTp3qZmCzT15H+/MXtGpgWmW+CUZHvJb9did6hLRpl+s/ZJy0sYtbM8B3INhrqbd/
UqUuWEbd8LVANC2XkhrsquolXXCraMpRZG0+YBaCzttuUIZgMxImjpAetXqv8dHyCzT7itQ3TNGK
wklatt8bTa9l6i+le1SCxVcE7oUZnHuzm8c9GtEEHBlggz4eG4RNCJvaOvoNM+ktBpR8m3drefD2
Mf3eJ67qbfkORsxnu/s/lqMf0KzDTl1CGYN0/JEPZ0bWyDraFoXAZj0MDNrYIhv+HTHTXrXTrP4T
IrBoo2qrF8rW0KgPHgx/chIwS1iyZqUTgxysYdgEiF6rtzDqFCqYsVkP09Li8TJpTyU5t1nivAS7
oI9VKtZg8pIaqL5BC6BN6xFUIbo7qlG12+5EtUHzswGmVVS7Lpc5GNkvnuC8Vbq9sCV1myCRWsjV
ut8eONYIbszrohi2EzeSGK05nRjdmB+J3856b/XztWaERKSNOt33ditUHGK73u+bvUtlv9XqwXT/
rjfDFrQHdisa2eFtWvWPCncCH9AKvSawf3sRPIQNQS+1IrA1RcRXccLs/szQy/c+K+Dl1MOoha3q
fQwqtmB8zhr54vM00/20wb87eXccVBb8+oVm3QGPgBwi+jX98HMe/BoylckdQvjxm9OQxt0jmoIK
DO8Vzykq7nBAQMt2pxomcUiLXtjykxa13/DwRohwhvcjjBNwX3sxVAlp9v7bqobxDG3EYis230To
D/JSpdWykyX8YwikWaSXAa4qJ1cyV/mLfOqm/pYqtsGzr6UeMxc3J6eP86m/pQh/D11e3mJ0++mb
VstUwKGP6hxWnzb+XW+e1rvvdbul6/SchrJ2upUaGmmkrIoep4ceoNO3DjE2hIUr+BZJABh4y90X
jQEl7oy+Fqc3hwYXlb/rR+DtNTrN+qYn6mGTauD097P9r91Gre5FN9CuVfFu0ovrndJlaRBYBhnL
HRjbKOHR6ce7x8cA4HYLmMInFQYeWdWfPqgwQecAfHf2SHHwkbIA9wD4oeFBpFvQcd39m9Uf+Ty8
tQnAIdz+fqvXaDjQow5xtt16tdGLv1abzeZFHaMeToKKe+gXoHZpJaXP+EgRDTlg7VSqzi4aDGBx
dSOekgVkPFrLgJSwHk78VcAHPAgDY5sXxb09Qy3VcUsTzNk19VXPrl+/FYRC9iiXXf/sy/ibpKyc
Lcn2gzP7N/JgWV6/7G+V3s2dr92p89VK6V24W7OfStnVc+0zPS/vrqZzhblz6CadXftaSc8f35vp
xc8GPHt9z6ezv0sX6cWj21I6JxxJQmH1LkP6V9PF+TOlJ/WOYHSlL2X95HVN3jJkQ7vXvu9Xcq/l
tn4jCzXnqbD7Ui9CN93u2urb5mLneH/jwOytGbsrN/ly+1653u4+3gul+/LdZXl1c7UqLmzqLdaN
PJ1sckg0Or9uV0kvXj/vpXNGzkhnq/kLnJeBsO304ktNTc83vprp+f5WAyc3z09OWTwXCsrFud01
nTqbzetME7rBph22Iqt3CiXtVrt3TH9jbx72YBwl6OH2S/c2wXF2HysPSl4+NH6zaw==
	]]>
	<![CDATA[
	O+lZh675Qs/YgW6k37vXN4DsNIXa7F2Jx7vcu+0+zZeOcKiuAQK54eXsvTIpLS3AayKh5gnX69OV
VnJ6hW48Hatn8lc3qNfX7tNP/yqg1+Kbdl7JSX69Igv0jBsxaLq7ijmz+eXf68rkbG9uut3x67X7
+5qfzrxNnz+SXtnacB0LZWF9JaBXbWraWH43/XtV7h6F8uXWmV+v0E1vstxZmjlpHJ37TVfYmWof
BvY6t3+oHAVR+Kr7WJX2sVeszxok8uSNPKP25+BNpT2wtEvTa6zX07k5z7oql/pOk/QKm+xt2+mV
bM/l3lP36fqN8P78YK9LL+pV7aPg2+tz7vI4sFe98H4xR3qFbjwdw9LCXu0tZXv+vZ7qz8rt5+Gi
X6+9ubU70a9X6AY6Vj/n57bqO37TxaW9E8qmcOzb62T5Q58+/5ZO/HoVyk9PZdIrkdDe6WpTM1+t
o2JQrxVhZ/H12r/XHWFzrp7R7zy9WjKt259aXGfTvctlPJtn/VhZfaS9bj9+lV293q8Ih3pOxF4X
BnrdrbfJloVuoGO9453u4cN9JaBXbUr/qpWfg3otCUcLT6anV+yGdrz3s7Txp3t87tvrxfKcHNjr
Qf1CFgJ6fcgJFy/zk9iN73QPduvHD/fzGd9er+daH4G9XnyeMVHs9Eq6YR3vCNcHnRX/Xg/lmavy
xsqqf6+d/cnAXq9fdib71Bbwne6JcLN+UPLv9Wht++X57OnJt9enk689T6+0G9bxnzu1Vg7o9dEQ
nnrNnH+vx3863yemIfv2+rKXQwkdON3uzEU2HdDr3ZWw3fje9+3VOM5NpjeectvQ69IP6RXVmiOh
fl/0F9brmzzv2Tzz94eVBdKrNLeW2XXP9VB4XVjaxF4XBzTPy58f6GZW3H+5hI5Xu1652GvPrrJe
++tZz1zToPznaa9bd+KeWygudntXa2nsNU96xdnwEmovZ0232Pf0ml3endRor+viQc7Vq/q52FGO
X0mv8vRS8cDd6zRRBJW3FnYseKfb3ay3LTbeT3ulsfpnaYv1unSW91B4sl1/vaT6rl550bwmh7p7
NfvcXnIaeJ7enYnf10FPP9Em+/V7aikCEMSl2YDXYR1ms8UZ9vRPXfc81QzxxRp578vwPm19Tt5a
29OvgX66t/QY+NSQFs5fg59+Vp7nnKdeomlTm9LsfTXw9cNsa10Kfvp28r7s95QSTZs6may+7Qa8
buzO7q5c9ejT97kf04P8KttY/sOeipNL3qdv+xctm2g+Da5LWcv+9Hl6M/NWSAc/fSwtrTpPB4n2
OvOsTwe+/qd/2tkNfPp1LW2d+T21iPb9VV57DnodJny2rAY+3ZeUtdvAp9XW28VhCNFm07N7jwuB
T7c3j97qgU/3pfVJMYRom2lpen4p4HV1V9heXbBmvZRZ9jzNXp711tnTYn5lYHvuXr7uLGz6NSCb
d2F63TKV/Z6u32+c8E/BeeOcx2JuoUgsm7mHouO/8c5b+UUNcd6k/jS6x8V0bt+8A/f4zyX+yCOs
nF4snRfxxw2IPXOamOrMYaTChnVYOd+yhGh3UppbPc0x5SDO8ApjbUrGzb7/TZ0hcN64XVU4Mlpz
4Gne/hIJDf4Q9Pm+Ync4VWisvs2DnJvcRn8o5xLdfK/ZFenjLKBXbWrqqtN8cNkCTseoge8DewWV
9EcM7FUovx9f+PVq7RtUoVW/6WKvNb5X5WKa69U43rrgeq3Nzk45vfamPuvnvC0ge4i89jP9/WD1
utN09Tp/F9grUHhV8uvVMtWJa2FPV/YQGV2L54Be756C5zpZ7iluW8A9XeJaBPaKrsWnf68r6bxf
r9RbIx0fzgUSmdgpgb2ikXLpWte6afVPfrNYAIyw4n3tO7wpbff8+92KbKdN/Txv3564hE1AU/WT
cR8THVsw68fNLBfAcnbwa+bbHRoCbVD+7RI5A4S52LAktPNmoTG1tOj8WOtkapcsJEDCW0DXtc78
SoeLNiGCNXN3+g8ZxJq581ACCVbZxq5l2ynkhrC2PcN+LB61WQ/EuLZ6cIYDk1vt0CauyBoRgFuF
z3ppxv5x7nE8WIjsxG5fwm52+Am/7q9bg746hT9n0d37XbAIRD0CT2TvjHrSsxwZPdQX9tWZGfID
OfMmakxf5p7fmKAbNqyX3zng4KNFaW5d2HPCO57gJiG89PS7deAQ3p/q+IONXWmzCJR3khgrSMeY
IfkRuYYX6OJGL+OUPcOFwBmiTXwVuIbEYY+3jLiGbQ+jRtKLoSImxyA2cWHrTzkKWxyeX845tsDI
/LXz+BNOehQ2cakPFtP9kDvIIwWAXtLWvbk/JL3cUmjekUKWLQAjet52r6887IpsP+51eRoCPtth
d3HwLBFEAeR73rYpHDCcxe1F+oORzw4QDzLvXc69PXkh7r89SfDPd3J33u1pr0iSycnr15dH4bQm
a7NzMIsjPw8YTCkbZ1710/wsY4EBnt+m3Vy3R54Seou33CDszegRNq/zszDA21LAUi12xMr03G4U
HwYQhnTDaCME0qbw2c6uWhxkMzSJHvmTWfSgcmI28bC5N+DCoBlQKfvtPhqETLoBK5O3v6GrOSUu
XomL+OPBmg07qxhgDxCTme2DwFW1lhR/wJI60e9BBqmUsRuPSOSxnZzZw+LGBrPp7/gObG3nrec3
TWRoaLAh1PtXhQHrLGRZsoPLUtsJVHpk3wQIIn/W/jJ6gUZCoCnpaE/XIoON89AP1VTeRQ5a4R2k
ya7HuPVoqthGVW3HLbW9aop0Axzs6OKQYfXX9wPGdHLOhhMwJleUgw4r2Nazly/WGprTXo9gwNoI
9whca9gKN/ToGqK3FmcZd06/R+EIXkkjtovWuPjLpV2YTBsB2124k5OQaBEGX0KivXTHRjReug1D
tI4rtUHvDni3/TWvPHKptSSW824Sb/E8SKZt3X6m4zo+/tuzvz45vu25dfszHcOdZh7BeZY7GPYh
0Lp4cBiXQH7DwZSRrbvJ2REJtNazNXWwhHYMDX+jcTdaPESMhHQDg4nvBQaPJEQesLWJQxa31Zls
JMzk2I0WAB7nMRugRz92Meb94OEXzlvz8x/p6agTHj93UEpPvbc8FweH3/aQ8bfDgyneHmjywgD5
wESME/7gxAjuEisBxr2ge8QcSeA1B49pKjIuEFsUPPVnIkIyPKeFi4K9JKLAO0N3XAAmOZec8P5U
d1kP/vrGw7xBlv6fPTxWvIkxQ5xN1DKW+uL2U28nfuRj0HW3nELYBZ/y2Og1sNP9oxyx6OWz2QM5
gjK0i17uzS5Pm18F92bf9252XzfOFYsKCqYA806OGnTYdwK53ImHe0SxfY7vfbdxHxxMccVygyY3
N8rkmCLYx0SJo0ivOSwQsi7u/7o1tezRnpGxEDJoYIYfacgp8Qy9P6BohwgSfe/jGfOdhzB+ai2S
NlHRQY9QALc/wOpEAmkxCMQJBVdIwm1mb/yy/DTe0gZmiBN/jDazDxwzO3DfxCDf0tlM+HAcvWjH
OoNUo7x+pc9Fs0WEXmT75sCrGoea3Hzg5HBt4kmogwF3OgG7cwzdOfDqwqGmlHbrwODoYKgoWL+a
UZOLAnfaNaPNizfEP5SZC9SxNV84Q8czc/G8a47PCMF5AWze6xQOuwGLMJx8nFC57RT6T/z2wnuU
OZz6o6Y6YBtXlBZRDW7BxBIaN0+MIw4Pv3pS4q3FC1SDcRmfYHE8TTtlZEhEPlvRDwszbkMQjXDO
4WDBuEBiXRiIzX3KGGxyxDrnwDqGxYzbEi2SbNrAHWQdr8aMkxVJlmxy9ePveyI2KZ/wpDCQmn/q
CyRmE0DQgEPzUOnW+5ofkG69ryznRo1kXhSBNhs/UWsTbebdXo0i3bzBe8A2Nul25Ui3EQwoDGjH
lW7hUgAWbwzSjbKAO5Q2LKJw6eZIgWhEYzjFJYhCTpQWtzL2QVDBdwe5F83jZ9Mzae5YiTuB9Ldd
WB6ZlesIHtFAVB1h7qPc4TO68Eg9ljxCi42Y6v7WbBF2/Em4mIwtcZHTth+v0yPb/NbA7iZDTnFj
Opa310N63J61wcXz5EwNIx4Qi8vqdwUhkyEKzarwYAlMgCGIBj3vYYazlLkPPywOtde92MLiXr75
aWH6EWaY9epHgOXCd5DlFMbRj5XJc9+cg2RO4e3NeKx/isqtHIM5LY5+vInrgFMJHcgojz/Jrf8B
2QcrZ3UzMqJw5RhTrRFEMa3/ULVGEI1s/SMWP+XoxAWS6cfHn7D9OKAcWaArVD++DJ46IyxJoiFZ
m0D9uJSJmeXlpHb4z5+mwb10Q5aFp2aAfcDvpVu/Te7xpOPv89tERjBbm8B9fhtrn0cKcYtosTZ7
tAMKq5n32+6BaXAB1g6Q9LoQjy1iBIjJsGKyhf8mc6spkgZXzOcGNFUxHzzoRG6ctHVb+w3JUo2T
GuceWPAJAnEKE+wzktgyxtRexBZ9/BPn7AdRQTfy9PLB4Rh4uZjX48Whgw4W3Av6EscPoKiCPem7
0ExfF1vEGpPkPWFPmGRLd7Cj4NbUo5av4+FIAVK61/tI51pnL/STL7lN+RmL+LbjlvPZS+pby0eU
9DjK+cJr+aCb8ZTzDfTqquVjonP0cr7wWj6czVjK+eieC6rlsxyPkcv5wmv5Jljp4sjlfL692rV8
E36li8OU84XX8k1YXxkZtZwvvJZvwqnCG62cL7yWj8i0cZTzeaWVOwE74NwzeTnfoG7js59pMCWo
GOl0rhzlZ/NeXXAlEukmPInGNayQMYUlZ1HRCUZjrLqtci80oyo4IDVwIFny2saRpAoyjB9Kjvq3
sx+GJJUnIDWYU0/p5HBaSInbgotvffLYVt8y4RVp9KQQSwL/1K/Hw1V+WV4D/k1MZljOJZohf34z
WHbnDnQFET56TAXvwcowhGdjigx0hQ0rsH7PwhFdvEc5LZpvt72Z3InjhNRhX+zHTTEJzy8JjDUP
BIhjhJu3k+eXTPhUr97lpkYuu/NLuByu7C5JfkmgG4VldyNEtuxCuUKYR5CANsH5JZyX4mboAEdl
O7BQLKbP0/GkJbyKg4c+b9JPFLvHlNCVcnLn2H9J32TfPE07CJmo7rUyeeStgQwPtFEWCIoBAL1C
DsZjBNqsQKOtpNe+jI4nogKvX42pHGeCfhAwyByLqkfzFKMF2mJc8UXsmsLfKA2VpKbwLbz+ZsoV
4wqukZsMy7yP8dUM15g+p4LGtMFXesWqqorIvE+SllDbcUc9fezE2GvYdaKewVZnAmxRLsg2/QZx
PGxRJTphA/McryK2KD8k/jSdmOw4iBZeuJqUaFFfa4gimqd8Z+v2LufOo9oNLN+Ja+baVREYLY65
7X31fnjd3oT9wYwIHF+TEYN4lZ5F/PHqt8n5XPXdsfmDH7vucLDv13lsfzAQR5SgGEDgFTYfu+Gf
cuGXO0HJ3kDFSvQqvQhxPaJAKYDFdnGjEUEk9XPyAn3PYIpElev6nen4eQQwpcgd7w==
	]]>
	<![CDATA[
	ihqElBAskQ8mn7uJhnVQSVzR4FojD+lDGTqiBCq8UM8lgCbsLyr7Vdf1+oE6PpGdtkdmM6a9/2fP
s/d97bR4pIoZC/IY4YP50FjBVhgPHzh+o50JGXNYPmOSYoyJT1QOK4VLFL0JL/ZTxkSq6FrcsGG5
ozf5wejN935g9CaI0wKiN/tDRm88wkY8mB5P9EaeXsrPxopyxIje7I8lOQlwZMZQv7hz+h1ywh6/
Hi46ekPT4KLq4UaO3pCjb/NHGQdtQqqDJgYq8sOSaLBg0L33Yiaq2EraUxq7ftkX3Ib0QVRpbJgh
PcF/MENev8pOjcgRnQO/8I8nASamVwNKJ1Yxqx3+CVPSMLmlzMiTI5YwLwWGYFQsYwuORTlTwm6i
SvxG/uxZ54Ck8yTI0Q1aqnR4QmC8FEWkzSjFrC436iA0chpZ5+fNBTzlDmQdhkZw9NHFkJV5A/5N
jEzyISrzgk+jxlqZR7oZtT42ujIvbo3HiJV5To2Hqzhv6NqVgMo8v9zBaESJc3MHTXVaTjfmyrwY
onMclXmOOTh8nUiMyryJ2N9MGakyz29t/tQXxl2ZN+H+GL1VvjTyuRArqBtD4T/qu7inS9zRd1CY
E7GNmnrJKYLrdqzUy6jCM9mP4D6HXmGmQXEw52K4UnmCaHFUk7roSZDw1N8kRDSegjJMjwj0rhN9
X5XYaVjnFxxAS5pijQbZgmczMjstYjFi7sfrQD97wv3xrMiCqiFPe/2CkIhtXKnQdx2yGUc01ZHg
cRzKKFO9OJZPHbPSxVJEPVicbQRYgreRK7s7GlGcpP+or/MUw793nCjZ3PO9YyvQlQSbO6A9vzgY
8sISOJfb7TosTpSphRHD2DQMlWmJP5wcWiRbmXzxrWwdoki2MvnmG1gYyIEKd21uxlQk+/gzjiJZ
xDKWIlmsWxtLkSwiGr1IFrEMFMkGfeg6uozsZsALd6VAENEZmcLk3o85n/14Gx4GS5DaO0pRnq9a
G39RXvDajLUob8L55n0cB3/YorwAoo27KC+u7zliUd7EX7GHNUpR3mCSxZBFeeEWI3dMhNVXwYcz
yb5+X/TkXAwcrCQv8fP1mzwnPiThMvLQB7HF+s5YUN6hK6qO2EYKafJEc30/OeQ0KvpkgtTSxflC
3JR17hmgLt56YWdA8XUFdTzIsB4Dv+ETJ92VDxd90nv0FgMyU9g6kBtE104+d5rXlZfSVO13u2xO
bzyXL9dOtzcK/bli+XJdvyP3wJfut7sbm7va5X5xK18tFrcKB3jtwkXHUk4zzYHILQtRuYvCQgrg
VtIPwZfZGWdLp54gpLvsbrl6csTHrble1c+FmZV0O6js7jas2K83Wa4V+I3iKbu73Aou9sObyCtB
vb6GF/vt5EyuV+8Fb0vZnt2rt+wOb+e2L3zk69Am6D2FmbCyOzEf2Gt2Zfk7qNhPm5r60X4fg4v9
7h7CCuC+w4r92peXfr1OWPcUHtY/a0HFfvWwwsaz2+Bet48fdnhvzUvk6Za8/BLU69kAQ8G+Zf2T
3xi7L/mxgH/T5VgolcfD8HakG1Z+eUqbMmV6qPlYqdYOLv82vQo27GtwG3xqb8x7DrKtgeT809l2
eB4IqyOIU8gT63v1XIAl9E6vn/BhxR6T+8v10Rldia/X8zOMmfYc5/V6fhqSnUlHfF8+LqkCMzET
5tmUYty24jI9w+/CG/JmPT9UhEHdls2wzBB50QqxbAYn6TusiNsVwsbE2wKlpEmbIWPyBJxH2Tc7
9YjLmJy8WlfxxXgK+/yGOHAUMXphn19Vn9tUH0thn198zLIFxljY51fVxx16jauwL+Tcc5yFfYGi
c7yFfaOFu2MX9vn5Jn4MPWJhn8twYFV9HikwjsI+v6o+X2EzWmGfn3dtpyiOr7DPr6rPOcUdW2Ef
sxhdVX12au/4Cvv8qvq4mM24Cvv8VpiGu8da2BdwvDruwj6/MVmhoTEW9vmtIZ9qNabCPr+qvggD
apjCPj9UE38lxBZd2Bf3sHjEwj4vKmT8sREt3FhMSrQYhX0JiDZKYZ9fVR87whtnYZ9fVd+E/wWC
oxT2+SHwqVgZtbCPI4x92BJYsTJ8YZ+fXT3xl/eLaiMX9vlV9XnSecZR2Oe3Ss6Jx9gK+/gJW1V9
MX3PQIrErP8JOcgftrDPb0oT3i/4Jyrsc48pxEecCCmSdfuIPme3f/bifnMqyo3ai7rGM15FGBLt
qfcTte35JYi6xS/A5Bj3LX7x74qIvMUvbvFcPzvnybkdllSlfri14fMRoJDr7dylEUnHZHsEcS7w
i1tvOnhX70CCf2xSRVoF3s+0hQwrOD0j2ZjIvgkPmvrJT7fLtC7u9zxBdnna7HhtgcHcpjhhsySX
/4VI6P2xff/8e3+AaENnPYZe/hc/yjHS5X/Ovgm7/y92qVTQ5X8J86GHvfxvwvMZA//7/5LF6Xwu
//MLpsTLbkl0+Z+tPUPv//MeP0Vf/hf723adg5FDefL6lTjj0TdDpzkexChucnKgIizyzsEo6f8W
Q8P8VudHrukLTG9Mkt1NavqGq2ua8JSVzoxclXvglxYyoD1j0QaTG6N2sCtJLSjhEgkUqwgnXkkT
5bSpOW9VE34KNjyrN9aB0c7p94B/M2ShWkQCepJUK8AWK/c5XqoVYIuTRB6e006k4HgKMZNewelw
mhfRyIW+BAvTgSGiMyai4AytZHdIjuMezgnrDsmxVvteePMwiPYE8Lg+b4iofOw+5ygiWcELjDeO
YPNcsBGYHXgZk5q8s+ljVnCBrvmFQc8f6wKH/3jBQAnWGApjvJ919vv2Q+wqCsB2GF6QkeRyR3h2
GuPAOepmQ9u4nxitEDNuCcVE+E1LiGjUC4YRy8Q4PmNA79gLs/C5lPhoRO79mOSmPq/jQTZKSBVF
4hKKrMUC7v14PZ796Ln3zxMgTlaoFv/eP6ub4P04lnv/2IlH8NV/SfZj8L1/SUz1Ee798/ieg1f/
DbWNBu79mxjhAsEEHneQqW5f/RcS8Exw798EvQIp+IvoEdi8hRsB9/5FpvPErPa9CU+dii3THn9G
MX68nAbYxlXt+/gzcO3BkBfSxb5fPiQ6iPWOR2Momgcs+TFkdBFEEU6WHR2MRDSSf2WLzoGsnaGr
7+ktgqGZkMmr75cyiwP7cSnjrZj2yx2MtR9vExVS+Yft3JVpz4FmZuxCKjukCjMNvi4t0YEVovJG
fgaJFvcb7ogtzvYMiXW6idaK8fm7eL7nbdxaqrBCqpduoOal3SSru71NXkg1Qaq+g41Gn08/knqt
hBajK4PYXSg3eiqfRU1yF9746m7vAk98HDstft3tXfKvagVH1RHbOC7DtC8QHFPdbTFfCDwAcsoV
outuB1I7AtliYEyD6TxkWGO4DJOFi3AlDnUyGz86WDYh1t7trl6WvsTiVmH/pjRV378orWcvLlfb
r1kNfts5pXWGt4/lmjS3NlmiioiEg11Es/5wlQQer5/zvboq83pT13enfGTLfTXdUvHhzlOZN8HV
RgWXBHZ/X5fEwF6FsrAQVIWoTU3r5/NPLhfXXTf2GFz+OFnuyMG97kzdX3l6pYrAuppu7y3/EXQ1
3XxIjdypGlyZ15vTZ7t8drfsKbqcz6w/NANq5OZDr+GreKsQaTKsTeSDldOAXrWpGeW49BpUmfcS
0uvOtObeN977/86m7gN6NXZdpZ7eXs89vbJcDpuND66De93eviq7l3Yany7av7GS0N+F1YKnHSPa
YFO5KMRAKbwuLG3GaIdEW2r3tx3FCRO/U7x5EPZ5j48yLYb4V/yHzWImaAJd1Xn3cVIpbnbmRIxr
3VbD66sGgik+9UfMIyglTNwKHlPRN3FugvvQTNz6ql7y/PUAy2YgDhwvccu3VAtVfdyEywhSXUQk
uE3EL4+LkbgVuzwuIhk0DldZqPhTs6gM4qgCwJg5YLbjETKsgTSw5GMi3WANYJI0sLAx+QeXh9k3
7ZAcMDYcvws2PKJr+3FtwS26tkeOTVsuLiDfi3HuGFHfFiirHeM27lngXS4ixcbPRw4SNmMISz9v
O07A8PG0RB+9C4mnbY/j/Pt5m0Sk3aJzqBLSToyv69LD4gjaDOvV+DJ0KabrHCcVxXtSO8Fu9hvL
h67L4/SkK+XkMeTAMwKs/QuxvxIFDCplnzOCpN9LcodflJ+BL0N8GV1vgHjoOjuY123oZ9qiv2Th
qkuMsud8V9g3Aaa2E1l9H7eaykxzpYtxPsUQXGcX9rnXOKa6a1jBRQIxihJdIVWg6tf0mGpL3UeT
9Jho6LrE6AvAKKoJ7pqdMGzh10BHDmzCKZJFbIM3QQ87zcFzz5GwRVUTJSJaxAloQqJFnIAmmuah
8hhMtIEq5kCPN9FFg7y+GaIkMW49ont7Ji5JHByEfz2i21RPXJIYcoodMw4dqyQxbj2i7RQmxpHo
okH/VKvYJYlx6xGtfROoavz1QtKLBn21Z/ySxLj1iHE86ZCSxLj1iFFHeOEliRt0OIPz8l5WyDIh
XSUP/4HLCqMZOqJ4LN5lhRNRH8wYz2WFTNjs/YcvK/Qkw/6nLisM8KTHfVlhorDd8JcVTni/Bvef
uazQrdb+Y5cV+htQcUmlhdjVZDgxvmqV7MLDhF+1GvbCQ15aDd526JeZMtSFh+EpkraEHvXCw9DJ
ZcaQA7U/pq9axbrwMPqrVmO58DD8tsOJBPWeI5RheBOVh77w0M+ad2475M8IRrrwkCOfz22HE8MU
lCXPiQyKQCW+8DD8tsOJke/3ZBcejhjrjHvhYXgBIO1mDBcehpcJxEyGjb7wMHa952gXHrq2xUDF
jj9DD3HhoVNE6Kf5Qu20JBcehq+mr38zzIWHQZlU9LbDOGcEsS48DFd/sdOuoy48THBP4cgV+YG3
HU741K0NdeFhOBafjK7hLjz0w+JI8vBDrwQXHsYQneO48DC8OoYF70e/8DA8S4EXNoht6AsPB6jp
uu0wfG24o56oCw/Dbzv0eGsJU7yv4tr1E1HlceOpN7W059hKLvxvO0wuBQIuPAw3DQbcqGEvPPTB
shjJAskvPAzHElpKkuTCw/DbDsNOCpOVXNTDbjukMm0MFx6G33Zo+TcjX3iYtDxubPXf/G2HsWVa
1IWHI5rqcS88jHVP4egXHobfdhjfxY248DDhPYXDXnjoxuL9XGFAYUzyCw/9gm/JPgIU68LDcLeb
dDOOCw/DbzuMcnHjl+qH3nY4wV30PNKFh8k+NzX0hYee4kjPkdjEkLW4AxceDluLm/DCwxAs4uTd
yBld1oWHAXFwlqhjJcCMfOFhrK/Ej37hYXgYzC1sRrjw0K+MzXHG/NTaUBcehnv3LFF59AsPw737
ge057IWHfkSLm3CZ4MLDuL7niBcexktRHPnCwwGL0XXbodPNiBce2ovre9shlwAz2oWH4UW6zinu
iBcehp/48EQb6cJD98C88czhLRvPhYfhJxMTEZ80in3hYfhthxP0W0OjX3hojcm/SA==
	]]>
	<![CDATA[
	l52wJ/+yS8FHV9wH6gqaA3VyFefLrGs7nwNfhySw4LNQK99/YvAOSZ86Sg9XUbI4Ia+11Q4ngJkp
x/rKeNTaa77t0EYonNQ1e6WPXQ7rYa/blXqfaVAz++nsw/G0ULj90mkTrOpKTx+t7eWFTCtdqD50
FLn7uY+pvWvNJ/PsaiGT+56f2/rZEnY/jjenfn63tPRjpSbDb68b08by7/bs0cnPufrzdfegq3ml
ahyVb/MH+W5aPdxRXrfOv67WaxdH2s3nZf1Y/bnO1N+nbzbnldKfyctzjEN/LTVXbtv19Uzr50X/
melutLTj9M3x+ty0nNnRZt4f9vbmfz+nHpT2Y32JrC8pNV27ury4Tuezzxtp6ePnOrsiz20I5a2D
LaH8Xt0XdrTZ82731cx0e8YN7pve1LP21lPfHk7tusTL7Gohd5OXD81JqwDvT6Hbe2zjDXzmlP8B
sqvedfn+8MXcrJ51UGRedJy1wes2f1/FmYXNjcN9P3oRisCE+7PdrjydDp3rZ6YyVz+dur6/XJtu
dQu4NrOS8vE71ayla1jeum+Vq6Z/FzvKMSbEHbVIhWR6s3x5OSNM12sAO227rfmOZxvB5E6LTjjW
ikNT7cldAAoizo8Ya9pM8bd0X67fkvtFi08757facbE2uVHor+xvFHq15bI59XW6fbMhPwPlWms7
zevbR+hmc1dLvwGi6x8LL71iNCNmv3Ssrbx73lg+THfJvDa/24e9zYObm5fs9vXtLv4GEz5t5rGU
eJH6/mvqXZe4VkKhn8Hkhpe+7UkX1Pyc9ZuYITFnIIvegj/1BVKODLJnrwN/ri6SP0GtPXThz2Le
eq1cKG9LRwbg3RWypcWZ33Jmd29PXJz7fIFurKEezPPPzH7FfpDlHxxmq/aDHP/gWa/bDwr8g07x
g+9G5J7tbP1gZcPxAg+7yrxZjY8X+QcfSs1+kCdXP4q70xsCaohpcTdXlqktcCyCXGp/ibvr5zL8
ecYjf/vIIn3PFmmT6rS+xCQZyEVksi2xmlsVsUkBK6e+xer6HlLujCGtnl2xbs6w0HZlCmmexapn
oqmmpfmcgr7BJUcbaX59Yxm7Wcbj8/OtZv5jYfO0+n5YOthLXzhsaR8oFPnsB97FtbbCljS/W15J
jtIPH/NvAOXZ4aqNckvtn07Xd57ujY/Ni9/pxvZ97VTAeYkOG0tPv88bxUalIAqFu2fZYrJLhZt6
aV2n/EKJdpMjZJRKZ0XUijcFawPcAPK3J7yu7kZkFrF6Q5RDG3+T7d8UimB7+VuDP+8ZvpdqGdf6
noRU2ev3gv0bx3OYgtuw2Ohe5h+Uvqa3q18/plD4+qNas7lnt48K89OGIDUvZrYXzflnwtDC9TQf
2XnNsNNZOiXnBwsWsvDemvqUd3qVZ+dPkK5P8OPuJoO/ifZvxOTgmh59KAhWfEZ0Vn69viuWssZ8
ubx9dG0wLdv/VoX625KGXJqXp1dWXssv8w/3Ho0+4boxhip1ZgZsgcGX3WZmiyV5Oa3RXdfnlmbb
krJ9s/VzDaJzoZQ1VWXFEqKddXhwtF/6rZxi2A6era6XzenzWvFpf2p37Wf6+9D7dQW2aPvfTH7B
iOkWr0zuz5PtZjW5/kH+ziOZkV6PPXxKWMDi0UeA6F0iOknpNSmRdonOC4UgR2foh62+upEjRfCY
Aw922uI1E871U32FGtLvV0sPDqe5I8LvzxuPXhbAByhvCz5yNktFrDXiJybO14o5HCKx0556b19b
zclW2S1lgWX0693i69dmDXzVzhbbijtL87hAR8SAAwIZIiUfCFYDVvjjhApWIs5ApqpEnJLZEKk5
vVEo7a+0BUB0IuAQ5uXp5Y9NC/mVhDAkX9ZT5l7kTwtAJXLWnpDJL/M2tI/B19fS88f3ZjpbzW/g
j630olQ+pn/OrxwvpRevn/fSucLceTp7NjmLTy/SuU15DX/U0otHt7vp+W53Mb2YfqUfzLj9urat
g1kaa6yfrmZRP7OPHGw/ln9s45KIvY3tyuv210brp/C6cT13frd5ufwnU9p70PZBCmYmN1bWy3nb
hPixAl3Enih8zrQX3e5J7F6LjfJsFzq8/dlo73bvyi+Lu1ObJx8rh5uXJQW/llB6P+udkx3XSz/N
lYTaTKvU7a7eTxEbQypVT9aH6/qs9D7bmVqSi6U36AZmX30Jn7Nrwq0uoLxQvI4iMhKeNs/RTzGw
71EctXAL5uzzGyK/hF6ptXVyuvFULqnqa9KuH83Aries73K4e+dFZ/VlYWP58fOllD9/7RbfV1tv
HsKHU13e7KZLTpbq/x6nrV29LGx7XFcmOncOskR0sq98lF+yjiUsbxmyoU0tHZ5vLG3XG1tfmczZ
9u5pQ9z42Sxslva+G+hJl0tNcYttSqXUAI123sftOZdXdje/ky+3H8GRoZPRfH3pjDo+a7+z6bhT
p0SLP/vIqfuzGw3ex5/9kFMn+2Z5bdYJBAiFyk/OO6K4MnVhbmolvfjTOUSZeojO9gE8yKGdhsL0
Ir04vwGSd2FrMZ0zcs/p+UYTRG3r7BFfF7D9Og5r2mU4xOMD3PPQzfDbPj4LTpBrdjy9X9c3rg9W
98ov/cv09qt28hl72w8vbMYi59xJFvHJHX/CyG6YBgdLa/zSaMvCR2+gIivJSgfOGm1o18RBsF1P
l+Juu7h7jpjqI0r5GCKenrAn1OzJ1bqlCMatYDx2zPBqLdGEiegcityJJowxm8E5+7Db1twos0ZO
i5442WLe/TU6p3GG3FBWHLfJOsS1muBvKPMLoBW38oIE3t3d8eZiR9jYrJ4dl0vrWXV/c7G9NFe6
L/efNne11+ON98vO8nb36e1Ebb49TxNXcKPQ7U9vvR5LF2hymFPqmuMULv9+rC1u5ZXutTS3vrDj
ibFZnycrkO985UmQxvIgX8Fh16Z629nG/efm5fVNd7ludr9g/mn8FJj+s3t+uF2pzOW372uTn4T6
3DrMtJ+KaDZI4PGKe65Zx+16Gk11MC9+HnEdYAmKz4/xbIzeMfsQW7xeib7hOr6RSvn8yg0I+Cdx
Y3n/6zxBr2BUcWaFy6hiyUkjmZQxjCorcvsf1m0YVR+wq+LTPC7B0bgdwZocvwE1klql+mYMRkW4
RWGFH8ZtSHu6RuM2sbwd0WHHENkp57xhyGvE1WekR9EZi/re/h8SzZplPyTXMuRbpvvWdls991Id
Y0bkCw6DuRyuCOOHvvR0emSCMtE24MfKFiiOqWPy58pKrr8CGmXnEBTRxeFGob9+sLmrXuVB/Vxf
wJ9CeWm2XVoqTdU04T+jb/xFASqCuOI3iU/rkb3QzVDiN2HXJJ7mJ/k7xeLW11zrsZTX53qOto2h
av+X9Q2v6iYGipbiR08STJgKm870fzhw46dvQMrnWjmj6Y2eBCn6eJy2fDBdeizt7Kx+gYiRfxIt
d1zLinnSyVRuck63sobGEzYL7Jp60qNt8Rg8h5HbJPtsyAknkWmjcVqifTbkJguUaXFXOt4mS8pp
Q24yFDY++wyP9+74nDV39ish32LpXMIg4HE6e5/ZSGebSjm9+FLbxz/n0ouff54w5HeMxy7L2E3O
yJ2k51/fDTyS2camcjq3b96NMVjoPiMYS6Dez+QhiWPjjWiM9YwgmU8/eEYwojs7rCc9Dgv7jNjQ
SWzN4ZwcQrQxBG0j+h8ucpuY8Z14mo+5PT4nB+NpIQcWo3dNGR+6GZOn8Z+M3Eb7d3Y8DXZXZneY
eFqr0y1friu3xF8pm5O/OvFl/BwZjAsM7cvMZYqN9MN8DKWD+4b9wdIRsysN7YaljNxW+kOwuzhX
7xc/9ad6VOTWCV/+ZFnuoPp983A5ezEcu20ST/qruVDebFb+xBDw5DdAlC330uv16xFOo3zmHHfC
t+l24XJotbY55IS7v6+H+ggyLfGErQjUyIscPmGSeT+ORQ6fMPHWxrHI4ROewEuDxrHIw0UHR+Bq
vxWOf+g17ITJCo8Qh04yYXQKAxeZxcRaU/wxP5/gP+vSH5lvfrAkV5+7CI196IW9ueB6U/lx8rOI
1B6oVB3IIT3mc/C3n1Vi7UA36Pad8RfJsBT+HGcTzlaNA26oBJbuZ3q233g6gEBZ2CFWFFkq0s1q
2zUHonxXckeO8pUy5p3skIDmlM9sTdtmeXV2AMFWgUOARCvf7ohO/iPMPv+NPJch61VorF1hOuRp
u9BYXFojzpsFu/6xYHfdQuOklbUTLvGjTccHjjamhTE4cWUer1Yy00yFLn+fo9Getm56Mqfog+Xm
1TG/0uVf5nb+vq5KWfteo4WNm4WKtYNFmtQHQx2888i6iYasg6yffLEqA+lX5DT6cvXkCCs1JnE4
d+4roOZdREMO3qZp/d2tuwebtT8zb9Pnj2JlUtkhI3KxoNixifDME0H6OLOJcO8QAWeDI+Lp8GV0
LDpsyBwdZlbSrxYdlIJDBBzOl/fjxG4iUIZ20WF96atl0WFhxk2HnE0H1iurbSDLEkIErjBmtW/t
gt+0Q4e00nuYjcMM60unfcbfW/MHNhF2n/KTf66oFCB0yOcCmQHLkecsQi6JAQwVgoCYHH/qmVFw
sC/AhCHAtQnHQb9aEbkzQhCIk1nbjRpyIvS20kgEYduTFVOOMpFDJW+LzmEncrVUCGQtDwKm1gZx
PG8IcXH4CqrFuc+Ms8knnNvj4u9zcVFozScSFNDNAA6zvzCKsBEXizNZDwKLaHFXBOtvFn0HwSPg
B0EQuM7WsBAyF7UilZVjB4f80BQNHsGznvfjb+gm/kQ+VgtDbjIrpIqlRUIkMUL2iJib3hOpJTi5
s7tlIdCmFh668o+baDtbP/OsafmP6DR1XeqH7Q4no7mEnxd04x3WzlUmO4oAEnee814usTktLrfu
fCiRXDI4CA/ROku+jBJ7IliN4EdN5LS4E9nNlYcVQDan7WqH4kh7f3f9XIpW0t21gmjj2FX6+asV
Dsfb88xIAgi7efvIZiOIETGIjugvgOxBUH0TRozqtJ4biS2qudW8E+scTohVtWIcAeSnpIlTpooZ
Yj465UukfyOXriql9ezLLUlLKD7tm1OsGEvdyLFq0FthinTo9QjGWkLqVz9Kc9XHWkLqVz+KnDbm
ElK/+lHsZswlpFmf+tEJvgpvPCWkWZ/60Ym/xlBCSk4ZrXrPWb+qUT6dZ3hEkbWidN8MXS6ajVkr
OuHUew5TLhq3VpTOZuhy0bi1ovZshisXjVsriuHuZOWi+CkIT/yRSobVuwzdPNuPmxlSGWgRknxf
gLXCOhUmoZSMI6FsmTKH15D8oAeJx+G782TfoC9H/oQfd+08lUxzG+knElFBB2mRXPqLBytPvyt7
hcZtP0+5tbG4lCWVrfL08va+3+dSSEDGKutkP/DBFSsYXdPnbbH7RKQlkdBrq1lr0AdMAIA1nacC
y67GlLbur9YZp68dCoL6drCeHSx91+xqzAV7hvP0jOBxk63ITpGI5HnyNTT4c4+2Qg==
	]]>
	<![CDATA[
	zfOHloSC1BKp1HKQO6Xv9vc7/t+1ib90w5RShqJLqcL5b7PePek2PhqtFFBweeKvwuaeKF61au1y
t16/rP+7X2pXf7/rrX5qKVXYvCju7RlqqV5t1+opeo2a+qpzURA6XJZZwH9xxJVyQOVF6d3c+dqd
Ol+tlN6FuzVvQsK8vLtKKj0x2yC79rVCq5gWPxufmHeQT2d/ly6wSKmUzglHEg3O+XzOhUvquNe+
71dyr+W2fiMLNX4n0sRgMHpW3zYXO8f7Gwdmb83YXbnJl9v3yvV29/FeKN2X7y7Lq5urVcIJscte
ne+WuL6Y7yrRmsXqVgWne41zLaWnS0aBFl8BbB+zLo5p/gU8WOeKXRd+prq4swx3pDprqRFxoSgu
MyYsv9hq+rRtMfAFWHIfHxiuvP5hpsPXJNlA0/K0+d3Hqt0CLY6uV14y7Lc/9QWyRe2MXW6Xkj+X
MrjXd3Psz0OF4Xi/WupbBdZ7grO5hN1K37Q2i3vXwQSgG+vZapZ7VpkurloPijnngWvr7RWcB3wR
89qJaD94dsyvndUFB8yTDzYh94DrGrcjmFMLsB0fs3RjPvX+/MKDc5GWTq9fpeHP0w2KGY8z0Y4j
nw0FcJls7gUQnvUtwpR4roFG6qEBG/4E1vf0pICR2kXo4Wca/rwieBfoAhVOH+TC0cUX7vXLrGNO
UCsPw9Z3hw5tXq1uyFHvfa5UqKzMLn205q7KK9vKH+dLKln6nZWd2zP+62vWJ9jsjwNh3j6MslUc
I0rXafT8vnFmGjuorTbm6pelvdpqmm2su1vRth8k3kxqvkwxJrurKPbUKzyTvZ2QyvpFZgO/XRWs
b/7CH7eC+Ha4Nw+/PYhMeb09S2vmngTr9VaRrd9qCsHB1vfrnKDMkQ+kwZ+3Bfbu14Ng/fYs8izw
Js2tH66xEX3VZHuob9JzWn4hKk56PfqZsUyMb43LEas/z78XP7XyyVbTmDI4+UkPBkAe0TNgXrsx
3Wd9Wg608G3e7rXK+KX/LIg74gbq6Ipo/VaTnHagcc9hhv0/ivW9Mn5Eav+6vDC/tqxf5yaPyq9H
MyYxF+XZl54u7O9k8VsDTxozCdEJCv+2D/u+3OGSnQ82qFGYzlh4Kv9irtotS0o7urlFrZFhQvR3
6RSl6y4I1vVLd3qaSTPTuG9lxzZwhrRuJuhN4bENnCGtm0EWCDdwhrRusJskBs6Q1o3bCfMxcEI+
UMZ/0kz1so9bRk3g19csLiQOfXb1YrsWcn64ckA/AUcPIIuXb4rrAFLdnfrRfo8sBK8zntMf8umt
t9Mf/qz0XtofOCtdvfu2z0qvBs9K7/gCm1m1XXZ/KJkece09ODguKA5ri6l0uSkflF/mpPnvLR3P
vDLizvOHgKbMPINVfhYY7Gsyi98mUSe4L67UBnI8RzhIISfP9sko2Z7sY2hP/DFl8+o46Jgy46xN
3DNKKw3A+W7dSMdza2+gMEYLYRIpwOhQ6l3YRHjkifD7cGIT4dYhApNpizHoIG+cZTKMDpX1ExcR
lnrhB9bEhg4/phT3e6OcA5Grp6y0s+HOrOdoVIM7ZfbjJkBAiBaEg2PKMByBCJyTd5zNkDi2H9cW
+CUI2xZsbQZwVCZ3sqNMhGdLQBC4PUNx2CfwMSZCENCaChcOkEH5USYC1vRXIToNIBwHuRktMW/y
lk2GZ8+k+5wi4HjThcAuRInG4bDn0MImw7MnjyPuimR43hxEYEkB9zi8OBz2DF6RsMwO8uktjj2H
Ya1MDN608loCcTjsGULNMB3oEp3CbunizcJx1/Jk9TgsKJQvt+zx3j1528XktLAMIp7TkhKXcdp8
EKfF3TLzDqf5cYnDaWET8QjCxFwy7+G0oSbicFogu0dx2nwQp8UeRDwlnZ4rPZ4xHFLv2Y1jIa4U
5JX0rReHzZ5DDsKjpIchxgLPm5Fs4a+kF8LZM1qILYygpElwE7xWNEx3F72fZ87tm/dY7XWPTjQ4
1ifzizRhEvzW2oT1wVfq563eKZ4o5XhClDib0CjleEKUJDc8LEo5nhAlBlNCo5TjCVGS85KwKOV4
QpRkNmFRyvGEKCf+mgkPKY4nRDnh1Iz7RynHE6J0wt0BUcrxhCiJFAiLUo4nRImzCY1SjidESWYT
FqUcKUSJ7rFzNwMrpZpj8mvTID7lvBUTPG0zQt5+UREHm+K5R6VWY/J01j5Y6VlyJk9dILbdVIUd
AKpo2WwgZCkr7k7/WaMy2P6uLbx0jQfBu3lyJwHePJ0n1+pg7hdenLNbCLgkclewbgSzT/ZnrWf4
Gd3+2g+mS77aCRcLLBJYnOmwQa9tEKGQYWQGIWZHAPPutA20BdjXZL3ibH/dCgKuLlgzPM6S/Uiz
KGAiKKaPc9n1TKmLuWSoiI6dSGQdxFitR8QYRtVt5I44sz5g1cPTTzxLwjPOl+1WjT/fBPAMgC7q
/d8OaaK+bNU/Gq3Dyj/17sRfYor+I8A/+FM3U6JkpCRVhT9UhB6+TfyVIa1T4nzqEE+KXwqb3X6p
Ue032q1K95/UEoHdHh1e7ZVSSyna+gVaL6cyMCbhBZrDo3lytPqCI32Z+EtIbeKP239N/AXu6MIv
/gFWj5A3NVUWYCx50zAEWYdfZF2RRAl+UWRN1xX4RZRMhUAEUxBNDX6RdEORxdRtBfHQ+QDyf/Cv
ffjtD8D+lRKF1FHq4UlI1Sbg4TlMX1PyumzKKVE24BdNTn0DUDDypiIrDlCT86piGinRUPKKKEg2
QFKEvKoKRqo68ZcNM7W8ZorwuoVHVqS8rKlSyu7OhsB7kgQ4ZE10gJKm5k1Z0B1UDoTr0Abaw7JR
2SMfnCDsjXdc9xI3e1kyaM84exH61ICUNlDX2cQMmI8u6g6AG4wFE00JVwfYyMIjqpJ3LBYEJyFK
eQOeOEBJFdm0LFQ2xDV7G2gNy0Zlj3xwgnT2C1cTf8H/zVRmPnV7gzxSsthGYmyDwweeklMGEBnQ
E9JIYl7QgSUtmCipeUEEehs4UoEDADkkTdFwoA5Myiu6BPOy0GgGrJYgp+y+LACMUoEuNEGxQYcT
f8EKGgJM3gLJUl5SDDWli3lVkIBMel5RgeA6YJMlBbHwIJMgkYDKoglTgDFIOvRt5nUFpmLA+ulI
Mva3qdDOAIkFUmUlL8gAO+RgipgXTRinhVdVdHgCs7S6VmFdVRlmC5hgxKIhaQBD8sDrhCkVM6Vq
sINleN2atg3ASZhiHodmw3AapppXRVV0gMAoMDoFmqkm0ANYURZgPyE/qKqRF1SFrL4sqDgcbKbl
VdPQoJmRVxRFBghsIx0IKositofJAI/piqaRF3mgZkDXhx4gaYlAWHwBB6AAkUXdlCygaAByxQDJ
ZqrQL0DgfQqhfAsQxQTMCNGAZ0m/upnXRFFOwdCAaAYSDdDKIuDX1bymKjBT4D9JAnYD/sqb0Ii8
aMiAH8Slopl5EzgkhRATWAYgWl4H8cpDZFgu03qPwkCaaJJEJ2oDRTWv6wIQCcZlGsBmCtDAMHAU
MBzR0FQHUsXhg/yWAbPTDDqXDV3nUNkQq0cchg1kQzt0wZS8pssUmaSZ0CcIQ10DvpNRKgqSTCcp
6zJFBquOlAAulxSFNIJdJwEEiKoSiJJXNVMmENNQFPoacISiy4SEIGBV0kyWRAbRZI1AJAHGjBDJ
UDXKsiBvBGAuVTbzhgovEp6FBYehqiDFDNihRLyDRpPILoJ9gkysgiSAzoFbQbeZDBn0oOgaAaoS
KBTYy/AUpo8QXZPxRdwjQCUbwskQGwaDUEBLmZrkwKBr0B0aGYNuyjBFGDHuDxilqCqUfLDbdZGO
XBJVSxqBgIYO4RdNEZGfgQdxw8saTlPlAExuEG6mMEu8HHIg2K26mrLwmtC9YZLhkL5BypNtQIeD
IwQIUQY4KzYJkGICCjoyS9ER3hYlrL+LPgL+kKiGSOPm5d+y+RJg2uipwl6rn8pcXO+8XHxWOvXL
fzp1t9lDDJ28Lmg4cgGtHFXEtcVfRR1Y0YRfiC2Ddo6M1g21aiRYMEWSUapIdGG+EQjE03F3WUBU
i6BsNEdccBDYSKJmKU8KA27XJPjFwUS2lgHcaXdoQZBqsEMVXZAcICoD2MiayLcUYbPrkuGgtwHO
GBwQG6iDxpqM05sFKfoRgq4coDEUUIs8fUBqaabGwYBBNLQT7U4dgD0wG2QNHrDogqA707O74igD
klcy3XTRUJxL3HuWiWhjtgFO7w6IjdDGYs3B6omjycDcD207Jw5D6yMz9MhGO9qwwOogo0FrGwo8
RoPLgM2vgjqzgaKJKwqzl0HCmsBCPEQBmS4SreMAAYOkEtOdoZJhv4OiNVN2jzbE4m9N5Zrx/O28
y3jXQW8B+EHYMBiqoEscg9vTsbqzIUU/UnAMDlYMTyGbwS2Yxbw2fRyAMzIbZg3f4nB7glZfPG0Y
3/GUIbwJVo8Ns7jXxmwDuO4dGCOMzeLWLCwW56gyMPtkLK7938ps/AW8G7fMtoCONAblpxqwWTgI
rIwMpotLaEvoWCoGJ7QlYBnikVkdMoBLZDOYS2IzmC2MCWrB4XB+AA6MDdNBY03F6cyCFP3I4JHY
HHVshrZgtjS2OnUAzshsmEUZW2Sz+dldOXSxeMyhis2GDGSLYosoNoDr2oGx8dlYrBlYHXEUGZh5
MmZW/+/ltSwI6LopxJcTwATHxZMNbIOGNlj9mqFoluugmKJErG+RCAt0TGS02cGTUqgrAXwFAHDU
ZF2k9j/QSDCQsOCoGSppBpaajl4OQATgETDugYyqbgOImwZuoGo4jXAEAuAXNcN5URDBVEf6g69o
oEOBhreoMq9BEEXdMrxNnVgCGhilYPciBDxEiUCAYiqBaIJGAOBnkqFjRAKEoUzcMY1EMEA+iiZR
2mD7o6DkIOBHSSJ11y0gupOqIFK3wQGiF6/huzBHIAnv/IJ7pogcBOUFRo/AHXO7yCbxVoGhwX9K
Da5i0W9pD52YkaxiT2DLoMkClr1O1h1ksqaDGlMl8IpAJFKqMyCZoairHqCK1jsOQSF2PzrLmgCU
kQVgEwH9VuAAkAXUbxDQS1CpWavqqJkAIqvM0FVUcMAQohD+AIgMsyf+pwgcraBAAe6R4U3w7tHT
MxQ2AxNetHnGghT9Jppsjyqj7lESkxpG6ygiLBuKJFWUgakNEtYD6zIv6MCfKoY7JEMnDrmCcTNV
UKnDpgjMY1bhF0WiISTUt4KAMRokuIkeGqptDWM9InkEJAXGAgEJHINBP0PU6IsybDJwwlQZ3Fbd
JB6WIqCkRqYE8kqarlGgQeMeyHBgOcBCAGaQEDrlXRJ2AN4XRMkGYAeySAWLBUNUCkwBdzYPg80k
CaaDS1WoQMENRSaiqCqwkEFiVRo4swS7JlLRoEowS2AXxER2PYJgFwu6RuScriClwdwx0YtAzSHB
kGANrKiXAuIN+B7phQEPCXkdRCLZwCLqKXTfgHUNkBgqLgqIDHwPlhvGC+NG9SOTqQ==
	]]>
	<![CDATA[
	IFrgCPSpwRbAIBSOTkK7FuR5XpMNHJxK948q6cgfxDshQF00HSBik1GggvbBZTMNWaFAYBRTNAhQ
RzWIECLVyerqGoUoGGNBiELVqYqUJ6ELYB5REslyA5PmiX6BnZ4XFQNlCnCvCB4KvAYuj6KxiCHQ
wMQ4qUF4BydD9jR6SsB4dPLAR9QbwLCMiZEUWaFBHwWWlob6YGQghUUq6gUqPDBEQTgROUHXkOUx
qoABMEVBpmbhD0EXqUpGfUdeRNWtYjMkgWHQOenQhYbyCcinEK6HBYZFhnWVMY6DAhYgEgaeFQmD
fIJIsVlA4G4Fd+shB4StBVyqqR4gTBmDFCrqPk2hhjVwHnCYLmLwD9pgHESyFgFnoUokIkjiR4Ru
uAgYGqNBejllEwQ1qIieKaUbWJIyhr9Mla0CBm4wTKuBza1pOmE7AWPNMqoGRaH8BEuPEBgPbg7G
bbQZkBe4XiMbRMXxyMAmMkZ+cDOQcLisoKciUDZF9hdgPIgN3oElBvktmgQCPErYUmKz0dB6ofE9
urOQYBqGRHEri6gDcOywRVUdA1oS4ym0IzQa1MXdoyITouWiIfOC6ScqJnUKdZBWZDuRowNgExDB
jDIABMlDvSpFxCCXhHoJ+8N1RL8d2VXUJOqKWeFnVRMZxwq4uRXKAzaQZwyUPxI6PL5AjJQa9rYQ
QdYATEM5QTmImqwKYUAN5aGEAhQ5Ge05DJPDFBSR2rJgblD2gdlLZCDAICRkTAhEmF0BwmimQsmI
p1qw+kBhGqQm1BaRtTGGDtYKk3WCSkwsEIQKWThYIhphEoAg1oILeGJlh6RxwUHLUNmqyAQVrLiK
+olESWh4GC0NRUJDwkRjSzLprAEzahoVqAvijgo0CRS5gNsUSW7gU4DoJMYpKCTsggCVGEYAUFnY
lchalNY4IqINUQPAhjTxWEPBoKwk0ZgqxioFNGjhqaCQkD7IQJAeAMGoqmYSkQ9sj+OV6USJZgCy
yfjUROHJolDEUwKNSgmqIR/jfgebFehO3wOnA7aNRsSqKhDLFsOmeIgBylxEBQusTumI8hg2DxFo
uGYqJRDwioBMo7BjOhWMZFBH6KfgsaKuMvOBBphgIUD0o+ojcWOD6m1bAfNAoKUkK4oHCPIZg/+4
bIKqSTRo67VTqIVlo0We0EQa6EDm1mR2dkGACh45od7ADY4GigNgll4VX2Mw9EwEFNE2HkOhxrDT
nQWpMptBQy60m5GAPzIhKBaDKHHJchlg+KBrCJ1QiZGVRD2nqzJZIgF9GzyuI1rUAlj7GrqzYWjm
6sQCk6gliuaXiNOl669xigJ5FEx1MFRVoihId2Q7iLDLwBQADlJUwlv0oAsGjGeSZJjI5xibwigj
JRDsJxklIcxPlvE9Q6UaVKZcSq1BcjJlUoEpKyx8S04eUGLCIAmp6UkMoDTweIO8J9FjINBqQFg8
dzBkGr4HbOiO0hWB/Y5xLwEPTagZht4PngOgwNREgXoOGrEgiNmItLYhQFIcQpW+R2F4ECnhmREo
VaKpQGez+JpmUu2Ki6Ub9FwA5ZVJz3yAr+AlskWIjHdYb4BDq4l8A3kE34AlS4jOkbWV6SDCgGka
gKxSefRNgcRqJ0DUzwRigCAhELQJCUQHuiFEEihLikAHTSPYNCryQKBRKxEEFG4BAKCpaIo2gLyG
MOA2C4bRJlAKEvKk8yJyty7yuFFOCmyYokyEjqigFwAMJAnMekBkYOLIGP+TBLQtoCdsBjoW0KPs
M0FQi6CsgA0BGwp4QSGZBiAV8yh5JNhrGp79gT0KFj5YzNgKHWVQ/NQ5ldARok4GDozsfwm1AIue
aeTw3HDDMMaFTja+qxoMKFPtRkYG7hXJSADLzSB9wsARgooZo4AWBMeKfIXnm1wz8IrBIiIQ4gkj
RBPxoIZMUqAhOmRpPI0kPaInJqKLouJgkV4oJ7GNqWsaJath0MD3APNQYUzcUFxAoCnMF4/cDBqb
x4U2oJ0EAl8D/UxX2kDVbjotD33edhxp0DcwdNFiKZp+IxPJadgwUWJRIUlmR3YcBKQzHpySOKcF
BMsGumGhezydFIKA1utuoNULODcGRvnsgYgY6zFNG0BiohJqNplrhPYm8qeDx4Zwo7WBIMVEXWZh
WRuo0uCDg54wAkZY7UFYkCo9zKRDdZpZ03FQ2RDWY5GfNTqskkaMHIeSvkB+wA7Q6sVePXsk9hrz
AwZSoI7gWoGQlUV+6g6EG68N5JfOAVokt9Bbi+LlMyqvcX4KHslLaBUDi5D4vGgSaWDDJAl9ctza
MlrfKLYcCBsFyeOygWwUDibaKdcdBWDID8SFhuEFC4YRPwyJGZKzAyS0BjB446B2IA5POUBuiTgg
I6yD3iK+MwgLUuSJYwEPOeLYr9qzttE7EDYKF3FEgSp5GxNwOGATOepYEDIIFtWwgYcuoG7TDGMT
aMu7YAY1QCwY5sdpqPHIExL3tSEwQKJ3WEYeA4KdLRusPcGEcRQyb7s/C+IarQV0jdZiqEM/zmMx
VvQOMH4lyTrsaJHmnYETgQ4rsgM4djI5zASMEmkl65hth+kRBhFNoMKZdyuiiUUyw9D7thQVxtUx
CIAtZY2a4iLmIpGUFEBI1gn2MIzLoDyommB3iSS3iMhlGJomUfGnYy6LSMcL+1BPUQ0k0x1qoIWI
bRQ8AZEwgINhDRwbhjgwZQnVkiRTVw2BMC0qBGRDxGNbEZWcJSjALCWT0hUOUmUztfnXamXKshui
YQqP+z2VZv0QoIpJisRsRrUmUP8YAcQVxoHKGPQjKXFgJONpJJkSnpKQnDiden9k5hhgFMEbMExC
C6SObKQG15dKIngIFgtJ4kP7WNSpJgTzQUNtih6NaGBGKhg/Ik5CJwIfNCGQUUTW1tGSEqkNBiav
KOHhBGaioW+POYgkcQcxkTQ/SWFUhP7AbzDpexgZFylMpG0UPI2Ev5GlCEDGBFUESPScBk/86Hpr
Ag0cHlJ9BOuosVdpMJAAAYeNH7cQxvfpGMgpJIaPBdqBgflTTLcJ6JiSsaMvjSpQwCQmMj+0C/Fk
kkStCBkUZvCBeWMKeEyKxMKQkUgkEqoBXaX5maLAnHzsUUQ/GKeEkWsVF0OBtddobEHEc2cVd5jC
orgiylFMsJMUmTrHIshRlQgaBWPfNL8XOyW5CHgMamCcHdU8iYRIYKcSWxbHT1LnJDRSFZagBCMi
rK8ylmQ0BLdLJg2Je2cBcfKKRmPqBEDUMkIwLZNAQIIRiIjhEkJZHTNTNTIOMlw0B3SUKzB+AXYA
Oc+FpZEdSJUtuUY65JsNvKej1el6D6OZZN4IJIacgrFLmVJCIBkRLH5Bhi6YVgYtiaQRGNqyBEI7
xHCixt4zBZNCVOqtEvNEQGsbSaiw1FUZfWbUQEhrC0JC12QUSGm0FwwD01pxzXQJM6rRsRfY0pqU
wTB1TdUpTEcRiblwJnpIwCMGsgZCqMJW0DKWqa09sNmZ8Af/Q9FEymICJvp9UwdElRjRQDJj+rRM
MyAoGTFRXcX1VlUKwbAp88RkDPLaQAqxlsmGmLLoeREkviZw2NA5UE1Ul4pMT2qIu6MQpgbnQ5Zt
r8U0NcqIuiJIRBmQc0xJRWfaBUB3lCW82ECiYnRq1DlAlcY3icND5QXKOiC3hiFkUbIBVepyAfk0
rhHGTQSTx2NDWHdF6tNRoDWwQxcQJI4mquRdEK8IkWgGI1ILOEUiORuWVlQN5hthGIkwLGY8mwrN
ZRcMTBUnpFdUB2KtmSlqnmb4ZTsPRJM8L6r0NIUCMS9KRQmv6gRCxBThG0mgOYLkVKZK2cvEKJRk
xQtFEsgnPcosb8mBqDTPnTnGFMgvmgO0iI0nQLKiOuuhYEAabSpu0RRU97LMNUIlj1EEB48N4RbN
BloDO3QBBWiJwk9RqeOJ8lyVJSk1uNOYQ4CnaRoWFbCBoD8A8huTBiwQsalhe8tEM1IYmg+CTLLe
2Xg5CBtvlRr2DCg4bjrFpAEbkTiN1Z0FIHYlcJ2AbGEBD3mgwuKobqBCTwrQcDYJQms3gyFA88f5
TY8GKQmacs1MS+raqGwI67FIPQIK5Mdm09EFxKgMPzUJDyUwfmSTwwZwRLNhFmltPBb1vatWZLY0
2qYoJzGDHAMeJKUQ7C6Mp0sYiSF2LcY5adGNIYi0yEcQydg1ekTDTGldwiFjnockUntSF3DHAQSP
oQiAVD5ozBRmhimxWRCogsKg6DWB0oucbOEAJGIX4WEnRhzJi/gUHSaQg5jjgrNRMBkFMZF4KUJM
mQwdtpQssmINjBfrdPSwHWHbmyxghDPUMKyFZqlJuF9joeEqtV4JyQk2EnIyDWwvk+UhXrSJ/aBW
1PGcgw3URCph+Y2u0IAheicg6hBi0JiSaKAWlakQICtVpca+gHUsuLCg+tHnYMqc4heJEwKGBqUV
OX8l76nMOsPqHqJldDz0xyGAdJaRUxG3jmn9Ep4+6bLVnymjc6FibqKKTpNApQZCqJTBqLZIxLSJ
pjeNqRmYpEmQ4dkozRylkQGQ6iS8iKsFvoVCBJFpmS1AB5W4UCp6WhISEISzplB9QmKxyKIaMjem
Q1gTNHE3qFQko2xAROSsiwh3ynx4BiDqDqRK80YNWzHQZiyfgRRLoV2J/hQ1WaBDcjLLKKPTVHE0
tHCGWL8kWkNHVYFUV4kvglpEZO4T2C/kGJSMVEIDEk15au9gbB3ruoipjcjBAhKxuKNKnVD4Vaey
hTiJBoYpiLUiYa6+yc3RglQpezMTw2oGTGlQ20fDDSkSvgVzn9LB0ES6+iaaE2TiKj38wxfhF504
LsRLGxQYVCvwpWJO7H1chYpWxZkKPC6ghMB0NVgsIq4coChQO5qdApPyDxnzNmRVpfliGil0E3E3
0pISct5oQ8i5IbId6F4beMgDNVw7WmnjAHErGqR2RsAsLpKsR0LTVtKMTPLTqMuF54sm2od4WK6j
w4npFDLJ3rMSgBWMWCnO36hD0MfGnEkbiOoCO5IkLnOZiAXcUDZ2IsDILLlBoBQAt8+geYUy2W4g
uFRy3MVm40CsSeMwbCBHHlQ/KEFcMHAPQJSIZAHAtKOBRoNml8ESGxrVmuSUG7YPFWKuHiwgYsOs
IsxB4YH4O3EcXEBMuEIm4IHOSruAxNc2HSCyCJHvmPyI9q0K66fhaYlExDo9p3MDTXp+gxV1sNoi
TTOUSdUdy1ggqY4SJgo4ELQfWJqEDQRHjISVrGwHPCAJAGJyKB6TqixhHw0MQZNouhapz0MDhuQw
4cmpKjHDWsR8GFJMpZE0UzSkiGzF/Bd6vIUnIHgcg1tBYDFjFDwCOxiwgYhMRZXkBmrsaB2zBFRd
I9FDGWWAAjRVDXLMgMMXVNoF5rCQZjJhIVxB0yB+EOEqRTBYAgmaw0AN4qrTY1NUuxYEcMkkmUR3
YIgLUztEEpS0XpVkZhnZ6K2kF2sMiMsFE6lMkTEgScch0JgnrAKL9ljz5iCMPIjNAg==
	]]>
	<![CDATA[
	IiFlQaXlmaDfSHgFGIaECg9p+jrIVJEoS0kn/qVBPRl81TRE6oATLUOilCys7fRADs8MthUsoMLM
FRcQD7FIURqGctEjFyWWdoGlwOTUD5PXrWJimcTn0MrCaCQp0AbexCpADPuImJBO041UDoLvYb4G
Mf7sZqiESZDHwoS1euQUyOkOOYPQ2B6Vw46ylb9hQ6wJurgW5TOrK8RECw1z64iJyDwxzLxTNdS/
mIEikuRGjZ1BokEokoRItj2JDpVpPM8GYgoQS013YCiUyFZEiYCmp2HVv1pyA3CbdGMyeUNq0iW6
L4lIElH3Y36JJbgsQJHaWia4rTbs0DL4cA0ZDAPKAprudrk7SlDMULB7x/iEirUK1gAxhIH5TzgD
TEqx/2azZEegEoviGAo74MKja1QhoowVoKZCTo1JtixCDJNAMKxNjp2xQIOdp1pAjow2DAUfGom4
tGA5oBACVGhyo8uNbAi0A61EZyLQmDgYyeTMnITTNQmtC10lWek20WxIkVMLNvCQLgqxE2ygbUtY
6G2LgxuDimmtmDNsjdNOUMSZYBGwk7Ho0JNrxFQCn9qIukRFN8tGjqpKkEmht9cSKjpn0QoaQojM
VsjfvGLktLQDxIJb5oQ6r/sCudffaTaxifY93xdJKMHkD5cRZQMxh4CFjxwgqWuQWV8GyUjiYUTZ
G5K7IVYWgAujBAC5fhwgGRGzKtBdlm1jxgvkbD0OaAWpMMXVUGjuJGbfoidHzsvQgDJEVo9EfAnN
KvxG+wA/RIEaHZOINJSnjmVnQVCKkbxSTKm0gCSZTKdBGhuIeTqs1Bzxk6IimUa86DCoIldkepxj
wUgWuEqjk/YEnJW05shBZBK7LvqtN+UDTLGlzoYli79dQIFluxoqiwmifYgnKTLJhUJFCKxgYl4k
URqYf4pBbInWgWPOLSl6EvFMFA8eHWVjQaq0IkFGueQ0w1g3+dCFjUoRmXzjO5Qx5o8jlZnTJOPJ
kk5yYKyxOxBH3dhAPMPUWbaqPW9fIK+OWZLH4Rb78Mx2q0Y+DZPDe6dmTisf9ctupdHE79B89Cp/
11OVVqvdr/TrHXiU+ujWe/12t57qfbb/hRB8yX5hZmb7pDzx1/8HSePI3Q==
	]]>
</i:pgf>
</svg>
