<?xml version="1.0" encoding="utf-8"?>
<!-- Generator: Adobe Illustrator 16.0.0, SVG Export Plug-In . SVG Version: 6.00 Build 0)  -->
<!DOCTYPE svg PUBLIC "-//W3C//DTD SVG 1.1//EN" "http://www.w3.org/Graphics/SVG/1.1/DTD/svg11.dtd">
<svg version="1.1" id="Layer_1" xmlns="http://www.w3.org/2000/svg" xmlns:xlink="http://www.w3.org/1999/xlink" x="0px" y="0px"
	 width="512px" height="512px" viewBox="0 0 512 512" enable-background="new 0 0 512 512" xml:space="preserve">
<g>
	<linearGradient id="SVGID_1_" gradientUnits="userSpaceOnUse" x1="150.4272" y1="500.0781" x2="150.4272" y2="21.0006">
		<stop  offset="0" style="stop-color:#000000"/>
		<stop  offset="1" style="stop-color:#000000"/>
	</linearGradient>
	<path fill="url(#SVGID_1_)" d="M150.427,182.911c31.347,0,56.847-25.5,56.847-56.847s-25.5-56.847-56.847-56.847
		c-31.347,0-56.847,25.5-56.847,56.847S119.081,182.911,150.427,182.911z M150.427,85.459c22.39,0,40.605,18.215,40.605,40.605
		s-18.215,40.605-40.605,40.605c-22.39,0-40.604-18.215-40.604-40.605S128.038,85.459,150.427,85.459z"/>
	<linearGradient id="SVGID_2_" gradientUnits="userSpaceOnUse" x1="256.0005" y1="500.0781" x2="256.0005" y2="21.0006">
		<stop  offset="0" style="stop-color:#000000"/>
		<stop  offset="1" style="stop-color:#000000"/>
	</linearGradient>
	<path fill="url(#SVGID_2_)" d="M501.416,142.306c3.898-4.32,6.335-9.981,6.335-16.242c-0.001-13.432-10.933-24.362-24.364-24.362
		h-40.604c-4.476,0-8.121-3.646-8.121-8.121V46.828c0-13.911-5.416-26.994-15.26-36.836C415.7,6.288,410.778,4.25,405.54,4.25
		c-10.81,0-19.604,8.795-19.604,19.604v29.122c0,27.79-13.806,53.583-36.926,68.996c-4.021,2.68-8.689,4.093-13.514,4.093h-6.407
		v-16.242H256V95.359l-19.621-4.896l10.403-17.331L203.36,29.709l-17.331,10.403l-4.896-19.621h-61.411l-4.897,19.621l-17.33-10.403
		L54.064,73.124l10.403,17.33l-19.612,4.905v35.359C18.713,158.045,4.25,193.688,4.25,231.637v6.927
		c0,28.952,8.486,56.984,24.55,81.088l56.66,84.984v38.146c0,35.82,29.146,64.968,64.968,64.968
		c35.822,0,64.968-29.146,64.968-64.968v-38.146l56.661-84.994c12.807-19.214,20.709-40.953,23.42-63.644h33.613v-16.242h6.204
		l7.666,3.833c3.306,1.657,6.862,2.786,10.492,3.484v173.261l37.827,75.655c3.623,7.251,10.915,11.759,19.021,11.759
		c8.104,0,15.396-4.508,19.021-11.751l37.826-75.663V247.879h16.241c13.433,0,24.363-10.931,24.363-24.363
		c0-6.261-2.444-11.922-6.335-16.242c3.898-4.32,6.335-9.981,6.335-16.242c0-6.261-2.444-11.922-6.335-16.242
		c3.898-4.32,6.335-9.981,6.335-16.242C507.751,152.287,505.307,146.626,501.416,142.306z M61.095,108.044h0.002l19.864-4.962
		l4.077-9.924L74.521,75.642l25.483-25.484l17.525,10.525l9.924-4.077l4.954-19.872h36.041l4.962,19.864l9.924,4.077l17.525-10.525
		l25.483,25.484l-10.525,17.525l4.077,9.924l19.863,4.962v36.041l-19.863,4.962l-4.085,9.907l10.524,17.542L200.85,201.98
		l-17.525-10.525l-9.924,4.077l-4.954,19.864h-36.041l-4.962-19.864l-9.924-4.077L99.995,201.98l-25.484-25.483l10.525-17.542
		l-4.061-9.899l-19.88-4.97V108.044z M150.427,491.508c-26.872,0-48.726-21.854-48.726-48.726h97.452
		C199.153,469.654,177.3,491.508,150.427,491.508z M199.154,426.54h-97.452v-16.241h97.452V426.54z M117.943,280.363h-16.242
		c-8.958,0-16.242-7.285-16.242-16.242c0-8.958,7.285-16.242,16.242-16.242s16.242,7.284,16.242,16.242V280.363z M134.185,394.057
		v-97.451h32.484v97.451H134.185z M280.363,238.564c0,25.727-7.545,50.659-21.821,72.073l-55.612,83.419h-20.019v-97.452h16.242
		c17.915,0,32.484-14.567,32.484-32.482s-14.569-32.484-32.484-32.484s-32.484,14.569-32.484,32.484v16.242h-32.484v-16.242
		c0-17.915-14.569-32.484-32.484-32.484s-32.484,14.569-32.484,32.484s14.569,32.482,32.484,32.482h16.242v97.452H97.925
		l-55.612-83.409c-14.276-21.424-21.821-46.355-21.821-72.083v-6.927c0-27.522,8.616-53.655,24.363-75.558v0.698l19.62,4.897
		l-10.403,17.33l43.423,43.423l17.33-10.403l4.897,19.612h61.411l4.896-19.621l17.331,10.403l43.423-43.423l-10.403-17.331
		L256,156.77v-0.699c15.746,21.911,24.363,48.044,24.363,75.558V238.564z M182.911,280.363v-16.242
		c0-8.958,7.285-16.242,16.242-16.242s16.242,7.284,16.242,16.242c0,8.957-7.284,16.242-16.242,16.242H182.911z M312.848,239.758
		h-16.283c0-0.398,0.041-0.796,0.041-1.193v-6.927c0-37.941-14.455-73.609-40.604-100.927v-4.646h56.847V239.758z M414.789,488.73
		c-1.713,3.427-7.27,3.427-8.974,0l-31.104-62.19h71.171L414.789,488.73z M369.693,410.299v-162.42h32.483v162.42H369.693z
		 M450.903,410.299h-32.484v-162.42h32.484V410.299z M483.386,150.427c4.477,0,8.121,3.646,8.121,8.121
		c0,4.475-3.646,8.121-8.121,8.121h-24.361v16.242h24.361c4.477,0,8.121,3.646,8.121,8.121c0,4.475-3.646,8.121-8.121,8.121h-24.361
		v16.242h24.361c4.477,0,8.121,3.646,8.121,8.121s-3.645,8.121-8.12,8.121h-122.27c-3.76,0-7.527-0.885-10.897-2.575l-11.094-5.546
		h-10.037v-81.209h6.408c8.039,0,15.827-2.363,22.519-6.822c27.652-18.434,44.162-49.278,44.162-82.509V23.854
		c0-2.745,3.81-4.32,5.741-2.38c6.773,6.773,10.5,15.771,10.5,25.354V93.58c0,13.432,10.931,24.363,24.363,24.363h40.604
		c4.477,0,8.121,3.646,8.121,8.121s-3.646,8.121-8.121,8.121h-24.361v16.242H483.386z"/>
</g>
</svg>
