<?xml version="1.0" encoding="utf-8"?>
<!-- Generator: Adobe Illustrator 16.0.0, SVG Export Plug-In . SVG Version: 6.00 Build 0)  -->
<!DOCTYPE svg PUBLIC "-//W3C//DTD SVG 1.1//EN" "http://www.w3.org/Graphics/SVG/1.1/DTD/svg11.dtd">
<svg version="1.1" id="Layer_1" xmlns="http://www.w3.org/2000/svg" xmlns:xlink="http://www.w3.org/1999/xlink" x="0px" y="0px"
	 width="300px" height="300px" viewBox="0 0 300 300" enable-background="new 0 0 300 300" xml:space="preserve">
<linearGradient id="SVGID_1_" gradientUnits="userSpaceOnUse" x1="57.2632" y1="95.0444" x2="57.2632" y2="59.0801" gradientTransform="matrix(8.2581 0 0 8.2581 -322.8869 -486.3792)">
	<stop  offset="0" style="stop-color:#000000"/>
	<stop  offset="1" style="stop-color:#000000"/>
</linearGradient>
<path fill="url(#SVGID_1_)" d="M116.467,164.371c-5.283,0-9.581,4.297-9.581,9.58v12.389l-28.267,28.268
	c-7.9-10.141-20.187-16.705-34.007-16.705c-23.774,0-43.113,19.344-43.113,43.113s19.338,43.113,43.113,43.113
	c23.775,0,43.113-19.344,43.113-43.113c0-6.424-1.452-12.502-3.981-17.988l23.143-23.141v11.223c0,13.59,5.054,26.375,14.184,36.324
	l-5.106,51.066h68.074l-5.106-51.063c9.127-9.955,14.182-22.738,14.182-36.33v-11.223l10.168,10.17
	c1.213,7.711,4.293,15.119,8.992,21.379l19.162,25.547v12.775c0,10.566,8.594,19.16,19.16,19.16c10.567,0,19.161-8.594,19.161-19.16
	V256.98l19.16-25.547c6.181-8.24,9.582-18.447,9.582-28.742c0-26.414-21.489-47.9-47.903-47.9
	c-24.269,0-44.334,18.152-47.438,41.594l-10.045-10.045v-7.598c0-7.926-6.447-14.371-14.371-14.371
	c-1.894,0-3.688,0.387-5.347,1.053c-1.188-4.381-4.358-7.939-8.526-9.598c0.705-1.43,1.963-2.113,2.457-2.32
	c0.698-0.287,3.112-1.059,5.228,1.045l4.553,4.541l20.32-20.326l-4.56-4.546c-2.097-2.098-1.32-4.526-1.037-5.217
	c0.291-0.69,1.459-2.956,4.431-2.956h6.434v-21.968l18.688-18.687c7.898,10.141,20.186,16.702,34.006,16.702
	c23.773,0,43.113-19.342,43.113-43.111s-19.34-43.113-43.113-43.113c-23.772,0-43.113,19.344-43.113,43.113
	c0,6.424,1.451,12.503,3.98,17.986l-20.281,20.283c-2.729-0.158-3.865-2.237-4.143-2.901c-0.289-0.695-1.064-3.119,1.033-5.213
	l4.563-4.55l-20.32-20.326l-4.559,4.546c-2.092,2.098-4.516,1.327-5.221,1.04c-0.689-0.292-2.955-1.461-2.955-4.432v-6.434h-9.58
	V48.919c10.916-2.227,19.16-11.903,19.16-23.467C173.95,12.245,163.206,1.5,149.999,1.5s-23.951,10.745-23.951,23.952
	c0,11.563,8.244,21.241,19.161,23.467v10.064h-9.581v6.434c0,2.971-2.266,4.14-2.956,4.427c-0.694,0.292-3.123,1.063-5.226-1.044
	l-4.551-4.542l-20.32,20.325l4.555,4.546c2.099,2.098,1.322,4.525,1.04,5.217c-0.278,0.67-1.413,2.744-4.144,2.902l-13.6-13.6
	c4.446-7.416,6.879-15.999,6.879-24.665c0-26.413-21.489-47.903-47.903-47.903C22.989,11.081,1.499,32.571,1.499,58.984
	c0,10.294,3.401,20.502,9.58,28.742l19.162,25.547v12.775c0,10.567,8.594,19.162,19.162,19.162c10.567,0,19.161-8.595,19.161-19.162
	v-12.775l16.258-21.682l12.484,12.489v21.968h6.434c2.969,0,4.139,2.266,4.431,2.96c0.287,0.695,1.063,3.119-1.035,5.212
	l-4.56,4.551l20.32,20.326l3.152-3.146v11.084C123.216,165.387,119.973,164.371,116.467,164.371L116.467,164.371z M44.612,274.549
	c-18.486,0-33.533-15.043-33.533-33.533s15.047-33.533,33.533-33.533c18.486,0,33.532,15.043,33.532,33.533
	S63.098,274.549,44.612,274.549z M250.595,279.34c-5.283,0-9.58-4.297-9.58-9.582v-9.582h19.16v9.582
	C260.175,275.043,255.878,279.34,250.595,279.34z M250.595,164.371c21.131,0,38.322,17.193,38.322,38.322
	c0,8.234-2.721,16.402-7.664,22.994l-18.682,24.908H238.62l-18.684-24.908c-4.943-6.592-7.664-14.76-7.664-22.994
	C212.272,181.564,229.466,164.371,250.595,164.371z M255.386,25.452c18.484,0,33.531,15.042,33.531,33.532
	c0,18.491-15.047,33.533-33.531,33.533c-18.486,0-33.531-15.042-33.531-33.533C221.854,40.494,236.899,25.452,255.386,25.452z
	 M135.628,25.452c0-7.923,6.448-14.372,14.371-14.372s14.372,6.448,14.372,14.372c0,7.923-6.449,14.371-14.372,14.371
	S135.628,33.375,135.628,25.452z M126.551,288.918l3.832-38.322h39.228l3.832,38.322H126.551z M178.741,173.951
	c2.645,0,4.791,2.15,4.791,4.791v32.367c0,11.191-4.168,21.721-11.695,29.906H128.16c-7.526-8.186-11.693-18.715-11.693-29.906
	v-37.158c5.284,0,9.581,4.297,9.581,9.582v9.58h9.581v-9.58v-52.694c0-2.64,2.146-4.791,4.791-4.791c2.644,0,4.79,2.15,4.79,4.791
	v38.321v4.791v19.162h9.582v-19.162v-4.791c0-2.639,2.145-4.789,4.789-4.789s4.791,2.15,4.791,4.789v9.582v4.791v9.58h9.58v-9.58
	v-4.791C173.95,176.102,176.095,173.951,178.741,173.951z M135.628,111.678c0-7.923,6.448-14.371,14.371-14.371
	s14.372,6.448,14.372,14.371c0,6.624-4.526,12.158-10.636,13.815c-2.127-5.279-7.285-9.026-13.315-9.026
	c-1.298,0-2.53,0.231-3.722,0.551C136.016,115.333,135.628,113.541,135.628,111.678z M49.403,135.629
	c-5.284,0-9.581-4.297-9.581-9.581v-9.581h19.161v9.581C58.983,131.333,54.687,135.629,49.403,135.629z M61.378,106.889H37.427
	L18.744,81.977c-4.943-6.591-7.665-14.758-7.665-22.992c0-21.13,17.193-38.322,38.323-38.322c21.13,0,38.322,17.192,38.322,38.322
	c0,8.234-2.721,16.401-7.665,22.992L61.378,106.889z M123.14,145.789l-7.248-7.242c2.52-3.9,2.979-8.729,1.126-13.203
	c-1.854-4.474-5.595-7.564-10.132-8.541v-10.246c4.537-0.979,8.282-4.068,10.132-8.543c1.854-4.474,1.394-9.298-1.126-13.201
	l7.243-7.243c3.899,2.515,8.724,2.983,13.208,1.124c4.474-1.853,7.559-5.589,8.536-10.13h10.246
	c0.979,4.536,4.067,8.277,8.537,10.13c4.479,1.854,9.308,1.395,13.207-1.124l7.241,7.243c-2.52,3.898-2.979,8.728-1.125,13.201
	c1.854,4.475,5.597,7.563,10.132,8.543v10.246c-4.535,0.977-8.283,4.067-10.132,8.541c-1.854,4.475-1.395,9.299,1.125,13.203
	l-7.241,7.242c-3.904-2.516-8.729-2.984-13.207-1.125c-4.736,1.964-7.914,6.045-8.681,10.957c-0.063,0.02-0.125,0.039-0.188,0.057
	V135.15c10.916-2.229,19.162-11.899,19.162-23.467c0-13.209-10.746-23.953-23.952-23.953c-13.208,0-23.953,10.744-23.953,23.953
	c0,3.852,0.916,7.553,2.64,10.912c-1.653,2.332-2.645,5.168-2.645,8.243v13.601C125.032,144.784,124.04,145.21,123.14,145.789z
	 M68.564,47.809c0,5.5-2.625,10.75-7.023,14.051l-10.227,7.665c-1.198,0.899-1.911,2.333-1.911,3.831v4.792h-9.581v-4.792
	c0-4.492,2.146-8.79,5.743-11.492l10.228-7.669c1.998-1.5,3.19-3.89,3.19-6.386c0-4.401-3.583-7.985-7.985-7.985h-3.19
	c-4.402,0-7.985,3.584-7.985,7.985v1.597h-9.581v-1.597c0-9.687,7.88-17.565,17.566-17.565h3.19
	C60.684,30.242,68.564,38.122,68.564,47.809z M39.822,87.727h9.581v9.58h-9.581V87.727z M154.79,30.242h-9.582v-9.58h9.582V30.242z
	 M241.015,193.113h-9.58v-1.596c0-9.686,7.881-17.566,17.564-17.566h3.191c9.686,0,17.565,7.881,17.565,17.566
	c0,5.498-2.625,10.75-7.022,14.049l-10.229,7.664c-1.194,0.902-1.91,2.334-1.91,3.834v4.791h-9.579v-4.791
	c0-4.494,2.145-8.791,5.743-11.492l10.228-7.67c1.998-1.498,3.188-3.889,3.188-6.385c0-4.402-3.582-7.984-7.983-7.984h-3.189
	c-4.402,0-7.986,3.582-7.986,7.984V193.113L241.015,193.113z M241.015,231.436h9.58v9.58h-9.58V231.436z M20.661,236.227h9.58v9.58
	h-9.58V236.227z M39.822,236.227h9.581v9.58h-9.581V236.227z M58.983,236.227h9.581v9.58h-9.581V236.227z M241.015,63.775h-9.58
	v-9.581h9.58V63.775z M260.175,63.775h-9.58v-9.581h9.58V63.775z M279.339,63.775h-9.582v-9.581h9.582V63.775z"/>
</svg>
