<svg id="Layer_1" enable-background="new 0 0 1600 1600" height="512" viewBox="0 0 1600 1600" width="512" xmlns="http://www.w3.org/2000/svg"><g><g><g fill="#231f20"><g><path d="m552 1487.9h-496c-13.3 0-24-10.7-24-24v-433.1c0-13.3 10.7-24 24-24h496c13.3 0 24 10.7 24 24v433.1c0 13.2-10.7 24-24 24zm-472-48h448v-385.1h-448z"/><path d="m368.6 1184h-129.2c-13.3 0-24-10.7-24-24v-129.2c0-13.3 10.7-24 24-24h129.2c13.3 0 24 10.7 24 24v129.2c0 13.2-10.7 24-24 24zm-105.2-48h81.2v-81.2h-81.2z"/></g><g><path d="m1048 1487.9h-496c-13.3 0-24-10.7-24-24v-433.1c0-13.3 10.7-24 24-24h496c13.3 0 24 10.7 24 24v433.1c0 13.2-10.7 24-24 24zm-472-48h448v-385.1h-448z"/><path d="m864.6 1184h-129.2c-13.3 0-24-10.7-24-24v-129.2c0-13.3 10.7-24 24-24h129.2c13.3 0 24 10.7 24 24v129.2c0 13.2-10.7 24-24 24zm-105.2-48h81.2v-81.2h-81.2z"/></g><g><path d="m1544 1487.9h-496c-13.3 0-24-10.7-24-24v-433.1c0-13.3 10.7-24 24-24h496c13.3 0 24 10.7 24 24v433.1c0 13.2-10.7 24-24 24zm-472-48h448v-385.1h-448z"/><path d="m1360.6 1184h-129.2c-13.3 0-24-10.7-24-24v-129.2c0-13.3 10.7-24 24-24h129.2c13.3 0 24 10.7 24 24v129.2c0 13.2-10.7 24-24 24zm-105.2-48h81.2v-81.2h-81.2z"/></g></g><g><g><path d="m800 1054.7h-496c-13.3 0-24-10.7-24-24v-131.2c0-13.3 10.7-24 24-24s24 10.7 24 24v107.2h448v-385.1h-88.6c-13.3 0-24-10.7-24-24s10.7-24 24-24h112.6c13.3 0 24 10.7 24 24v433.1c0 13.3-10.7 24-24 24z" fill="#231f20"/></g><g fill="#231f20"><path d="m1296 1054.7h-496c-13.3 0-24-10.7-24-24v-433.1c0-13.3 10.7-24 24-24h496c13.3 0 24 10.7 24 24v433.1c0 13.3-10.7 24-24 24zm-472-48h448v-385.1h-448z"/><path d="m1112.6 750.8h-129.2c-13.3 0-24-10.7-24-24v-129.2c0-13.3 10.7-24 24-24h129.2c13.3 0 24 10.7 24 24v129.2c0 13.3-10.7 24-24 24zm-105.2-48h81.2v-81.2h-81.2z"/></g></g></g><g fill="#231f20"><path d="m552.5 321.2h-264.8c-13.3 0-24-10.7-24-24v-87.2c0-26.1 21.3-47.4 47.4-47.4h38.5c13.3 0 24 10.7 24 24s-10.7 24-24 24h-37.9v62.5h216.8v-62.5h-37.9c-13.3 0-24-10.7-24-24s10.7-24 24-24h38.5c26.1 0 47.4 21.3 47.4 47.4v87.1c0 13.3-10.7 24.1-24 24.1z"/><path d="m687.4 923.5h-534.6c-13.3 0-24-10.7-24-24v-670.2c0-13.3 10.7-24 24-24h134.9c13.3 0 24 10.7 24 24s-10.7 24-24 24h-110.9v622.2h486.6v-622.2h-110.9c-13.3 0-24-10.7-24-24s10.7-24 24-24h134.9c13.3 0 24 10.7 24 24v670.2c0 13.3-10.7 24-24 24z"/><path d="m490.6 244.5h-141c-13.3 0-24-10.7-24-24v-84.4c0-13.3 10.7-24 24-24h141c13.3 0 24 10.7 24 24v84.4c0 13.3-10.7 24-24 24zm-117-48h93v-36.4h-93z"/><g><g><path d="m584.8 438.2h-200.1c-13.3 0-24-10.7-24-24s10.7-24 24-24h200.1c13.3 0 24 10.7 24 24s-10.8 24-24 24z"/><path d="m272.2 447.9c-6.1 0-12.3-2.3-17-7l-16.7-16.7c-9.4-9.4-9.4-24.6 0-33.9 9.3-9.3 24.3-9.4 33.6-.3l21.7-21.7c9.4-9.4 24.6-9.4 33.9 0 9.4 9.4 9.4 24.6 0 33.9l-38.6 38.6c-4.6 4.7-10.8 7.1-16.9 7.1z"/></g><g><path d="m584.8 567.4h-200.1c-13.3 0-24-10.7-24-24s10.7-24 24-24h200.1c13.3 0 24 10.7 24 24s-10.8 24-24 24z"/><path d="m272.2 577.1c-6.4 0-12.5-2.5-17-7l-16.7-16.7c-9.4-9.4-9.4-24.6 0-33.9 9.3-9.3 24.3-9.4 33.6-.3l21.7-21.7c9.4-9.4 24.6-9.4 33.9 0 9.4 9.4 9.4 24.6 0 33.9l-38.6 38.6c-4.5 4.5-10.6 7.1-16.9 7.1z"/></g><g><path d="m584.8 696.6h-200.1c-13.3 0-24-10.7-24-24s10.7-24 24-24h200.1c13.3 0 24 10.7 24 24s-10.8 24-24 24z"/><path d="m272.2 706.3c-6.4 0-12.5-2.5-17-7l-16.7-16.7c-9.4-9.4-9.4-24.6 0-33.9 9.3-9.3 24.3-9.4 33.6-.3l21.7-21.7c9.4-9.4 24.6-9.4 33.9 0 9.4 9.4 9.4 24.6 0 33.9l-38.6 38.6c-4.5 4.5-10.6 7.1-16.9 7.1z"/></g><g><path d="m584.8 825.8h-200.1c-13.3 0-24-10.7-24-24s10.7-24 24-24h200.1c13.3 0 24 10.7 24 24s-10.8 24-24 24z"/><path d="m272.2 835.4c-6.1 0-12.3-2.3-17-7l-16.7-16.7c-9.4-9.4-9.4-24.6 0-33.9 9.3-9.3 24.3-9.4 33.6-.3l21.7-21.7c9.4-9.4 24.6-9.4 33.9 0s9.4 24.6 0 33.9l-38.6 38.6c-4.6 4.8-10.8 7.1-16.9 7.1z"/></g></g></g></g></svg>