<?xml version="1.0" encoding="utf-8"?>
<!-- Generator: Adobe Illustrator 16.0.0, SVG Export Plug-In . SVG Version: 6.00 Build 0)  -->
<!DOCTYPE svg PUBLIC "-//W3C//DTD SVG 1.1//EN" "http://www.w3.org/Graphics/SVG/1.1/DTD/svg11.dtd">
<svg version="1.1" id="Layer_1" xmlns="http://www.w3.org/2000/svg" xmlns:xlink="http://www.w3.org/1999/xlink" x="0px" y="0px"
	 width="300px" height="300px" viewBox="0 0 300 300" enable-background="new 0 0 300 300" xml:space="preserve">
<linearGradient id="SVGID_1_" gradientUnits="userSpaceOnUse" x1="306" y1="-234.6616" x2="306" y2="46.6621" gradientTransform="matrix(1 0 0 -1 -156 56)">
	<stop  offset="0" style="stop-color:#000000"/>
	<stop  offset="1" style="stop-color:#000000"/>
</linearGradient>
<path fill="url(#SVGID_1_)" d="M154.197,271.678c0,2.302-1.879,4.196-4.196,4.196c-2.302,0-4.197-1.895-4.197-4.196
	c0-2.318,1.896-4.199,4.197-4.199C152.318,267.479,154.197,269.359,154.197,271.678z M204.468,255.621v30.862
	c0,2.307-1.87,4.179-4.178,4.179c-2.309,0-4.179-1.872-4.179-4.179v-30.862c0-9.13-10.065-15.011-22.009-18.161l-6.041,20.075
	c-0.41,1.365-1.487,2.425-2.856,2.815c-0.377,0.106-0.761,0.16-1.144,0.16c-1.009,0-1.997-0.364-2.77-1.052l-10.563-9.356
	l-10.563,9.356c-0.774,0.684-1.763,1.05-2.771,1.05c-0.38,0-0.765-0.052-1.141-0.158c-1.371-0.391-2.449-1.45-2.86-2.815
	l-6.135-20.394c-12.352,3.061-23.351,9.03-23.351,18.479v30.862c0,2.307-1.871,4.179-4.179,4.179s-4.179-1.872-4.179-4.179v-30.862
	c0-8.171,4.689-15.225,13.562-20.403c6.464-3.772,15.019-6.481,24.899-7.913v-2.141c-3.351-2.397-6.31-5.625-8.798-9.662
	c-1.325-2.152-2.485-4.527-3.475-7.042h-5.359c-6.504,0-11.794-5.282-11.794-11.776c0-4.415,2.444-8.267,6.045-10.285l-1.922-11.1
	c-1.265-7.263,0.547-14.054,5.239-19.633c8.634-10.268,24.251-13.934,36.001-13.939l0.171-0.004
	c16.95-0.276,32.957-0.538,38.609,8.296c2.723,4.254,2.507,9.836-0.638,16.603c3.043,2.637,5.385,6.407,2.923,15.23l-1.326,4.737
	c3.424,2.066,5.727,5.811,5.727,10.095c0,6.492-5.29,11.776-11.793,11.776h-5.257c-2.444,6.184-6.106,11.656-10.921,15.567v3.499
	c23.261,3.687,37.024,14.045,37.024,28.093V255.621z M159.089,229.499v-0.782c-2.79,0.961-5.821,1.486-9.088,1.486
	c-2.667,0-5.215-0.347-7.633-1.022v0.318l8.36,8.912L159.089,229.499z M187.059,196.684c0-1.895-1.541-3.436-3.436-3.436h-1.795
	c-0.179,2.3-0.501,4.597-0.971,6.854h2.766C185.518,200.103,187.059,198.569,187.059,196.684L187.059,196.684z M116.942,173.871
	l1.821,10.521c0.717-2.13,1.939-4.019,3.644-5.582c8.692-7.973,28.479-6.259,44.375-4.884c2.232,0.194,4.341,0.377,6.282,0.52
	c4.704,0.354,8.431,4.065,8.922,8.656l0.979-3.499c1.446-5.185,0.479-5.985-0.545-6.833c-1.285-1.066-4.701-3.894-2.086-9.295
	c1.385-2.877,2.748-6.772,1.355-8.951c-3.141-4.907-18.828-4.649-31.434-4.444l-0.273,0.004c-12.405,0-24.039,4.304-29.641,10.963
	C117.246,164.727,116.103,169.042,116.942,173.871L116.942,173.871z M118.523,196.145c-0.01-0.077-0.021-0.154-0.031-0.232
	c-0.063-0.475-0.121-0.952-0.172-1.428c-0.018-0.161-0.032-0.323-0.049-0.483c-0.024-0.252-0.055-0.504-0.074-0.753h-1.817
	c-1.895,0-3.437,1.541-3.437,3.436c0,1.854,1.574,3.419,3.437,3.419h2.833C118.932,198.789,118.706,197.466,118.523,196.145
	L118.523,196.145z M150.001,221.848c17.221,0,23.639-20.104,23.639-32.776v-0.044l0.051-4.907c0.004-0.701-0.532-1.286-1.246-1.34
	c-1.985-0.146-4.121-0.331-6.382-0.524c-12.751-1.105-32.021-2.774-38.005,2.716c-1.16,1.063-1.679,2.328-1.679,4.1
	C126.378,201.743,132.792,221.848,150.001,221.848L150.001,221.848z M144.739,244.242l-8.288-8.837
	c-0.316,0.042-0.631,0.084-0.949,0.129l4.011,13.337L144.739,244.242z M165.893,235.74c-0.351-0.053-0.703-0.104-1.055-0.158
	l-8.121,8.66l5.225,4.629L165.893,235.74z M179.764,262.625c-2.309,0-4.179,1.87-4.179,4.179v19.68c0,2.307,1.87,4.179,4.179,4.179
	c2.308,0,4.179-1.872,4.179-4.179v-19.68C183.942,264.495,182.073,262.625,179.764,262.625z M120.253,262.625
	c-2.308,0-4.179,1.87-4.179,4.179v19.68c0,2.307,1.871,4.179,4.179,4.179c2.309,0,4.179-1.872,4.179-4.179v-19.68
	C124.432,264.495,122.563,262.625,120.253,262.625z M150.001,282.27c-2.302,0-4.197,1.878-4.197,4.196
	c0,2.302,1.896,4.196,4.197,4.196c2.317,0,4.196-1.895,4.196-4.196C154.197,284.147,152.318,282.27,150.001,282.27z M71.2,239.307
	c-1.76-1.506-4.415-1.285-5.922,0.476c-1.506,1.76-1.303,4.4,0.457,5.906c1.776,1.504,4.416,1.302,5.922-0.457
	C73.163,243.472,72.96,240.814,71.2,239.307z M55.515,229.781c-1.691,1.591-1.775,4.245-0.186,5.939
	c1.573,1.694,4.229,1.775,5.923,0.204c1.691-1.593,1.775-4.248,0.202-5.938C59.863,228.291,57.207,228.208,55.515,229.781z
	 M46.937,218.782c-1.862,1.388-2.251,4.011-0.863,5.873c1.387,1.862,4.01,2.232,5.871,0.862c1.861-1.388,2.233-4.026,0.863-5.871
	C51.42,217.784,48.78,217.397,46.937,218.782z M45.362,208.393c-1.185-1.997-3.739-2.673-5.754-1.506
	c-1.996,1.169-2.673,3.739-1.506,5.736c1.185,2.013,3.74,2.673,5.754,1.506C45.853,212.964,46.53,210.39,45.362,208.393z
	 M39.203,196.396c-0.947-2.133-3.418-3.079-5.533-2.133c-2.114,0.932-3.079,3.418-2.132,5.534c0.931,2.114,3.418,3.063,5.532,2.132
	C39.186,200.982,40.15,198.512,39.203,196.396z M81.929,247.498c-1.931-1.304-4.535-0.797-5.838,1.115
	c-1.304,1.912-0.796,4.52,1.116,5.821s4.534,0.812,5.821-1.116C84.331,251.406,83.84,248.799,81.929,247.498L81.929,247.498z
	 M38.019,90.54c2.031,1.116,4.586,0.372,5.687-1.658c1.116-2.031,0.371-4.586-1.659-5.702c-2.03-1.1-4.586-0.355-5.686,1.676
	C35.244,86.886,35.988,89.424,38.019,90.54z M45.007,78.458c1.896,1.338,4.502,0.881,5.838-1.015s0.88-4.519-1.016-5.854
	c-1.895-1.336-4.518-0.88-5.854,1.015C42.654,74.499,43.111,77.122,45.007,78.458z M53.281,67.224
	c1.743,1.522,4.399,1.37,5.922-0.373c1.541-1.727,1.371-4.382-0.354-5.922c-1.743-1.54-4.383-1.371-5.923,0.355
	C51.386,63.026,51.556,65.684,53.281,67.224z M68.695,57.257c1.71-1.539,1.846-4.196,0.305-5.923
	c-1.557-1.708-4.213-1.844-5.939-0.286c-1.709,1.539-1.845,4.196-0.287,5.921C64.33,58.679,66.971,58.813,68.695,57.257z
	 M79.187,48.78c1.878-1.354,2.302-3.96,0.948-5.855c-1.354-1.878-3.977-2.301-5.855-0.947c-1.878,1.354-2.301,3.977-0.947,5.855
	C74.687,49.711,77.309,50.133,79.187,48.78L79.187,48.78z M32.418,103.332c2.132,0.88,4.585-0.136,5.482-2.284
	c0.88-2.133-0.152-4.586-2.285-5.466c-2.148-0.896-4.603,0.136-5.482,2.285C29.254,99.999,30.269,102.452,32.418,103.332z
	 M84.837,140.931v12.505c0,1.974-1.381,3.679-3.313,4.088l-5.597,1.186l-1.38,3.331l3.119,4.807
	c1.073,1.654,0.844,3.834-0.551,5.229l-8.833,8.833c-1.395,1.395-3.574,1.625-5.229,0.551l-4.805-3.118l-3.321,1.381l-1.199,5.604
	c-0.412,1.926-2.114,3.303-4.086,3.303H37.156c-1.972,0-3.674-1.377-4.086-3.303l-1.199-5.604l-3.321-1.381l-4.805,3.118
	c-1.654,1.074-3.834,0.844-5.229-0.551l-8.833-8.833c-1.395-1.395-1.625-3.574-0.551-5.229l3.119-4.808l-1.381-3.331l-5.597-1.185
	c-1.932-0.41-3.313-2.114-3.313-4.09V140.93c0-1.974,1.382-3.679,3.313-4.088l5.597-1.186l1.379-3.328l-3.115-4.788
	c-1.076-1.655-0.848-3.838,0.548-5.233l8.832-8.833c1.395-1.395,3.575-1.625,5.229-0.551l4.805,3.118l3.32-1.379l1.199-5.605
	c0.413-1.928,2.115-3.304,4.087-3.304h12.486c1.972,0,3.674,1.377,4.086,3.304l1.199,5.605l3.32,1.379l4.805-3.118
	c1.654-1.074,3.835-0.844,5.229,0.551l8.833,8.833c1.396,1.396,1.625,3.577,0.548,5.233l-3.114,4.788l1.378,3.328l5.597,1.186
	C83.456,137.251,84.837,138.956,84.837,140.931z M76.48,144.317l-4.437-0.94c-1.348-0.286-2.468-1.217-2.995-2.489l-3.063-7.395
	c-0.527-1.272-0.394-2.723,0.358-3.877l2.468-3.794l-4.046-4.047l-3.813,2.474c-1.156,0.749-2.605,0.882-3.877,0.354l-7.377-3.063
	c-1.269-0.527-2.197-1.643-2.484-2.985l-0.951-4.445h-5.729l-0.951,4.445c-0.287,1.343-1.216,2.459-2.483,2.985l-7.378,3.063
	c-1.272,0.527-2.722,0.396-3.876-0.354l-3.813-2.474l-4.047,4.047l2.469,3.794c0.751,1.154,0.884,2.605,0.357,3.877l-3.062,7.395
	c-0.528,1.272-1.648,2.203-2.995,2.489l-4.438,0.94v5.73l4.438,0.939c1.347,0.286,2.467,1.217,2.995,2.49l3.062,7.394
	c0.526,1.271,0.394,2.719-0.355,3.874l-2.474,3.812l4.049,4.05l3.813-2.473c1.155-0.751,2.604-0.884,3.877-0.354l7.378,3.062
	c1.268,0.528,2.196,1.644,2.483,2.985l0.951,4.446h5.729l0.95-4.446c0.287-1.342,1.217-2.457,2.484-2.985l7.377-3.062
	c1.271-0.529,2.722-0.396,3.877,0.354l3.813,2.473l4.049-4.05l-2.474-3.812c-0.748-1.153-0.882-2.604-0.355-3.874l3.062-7.394
	c0.528-1.273,1.648-2.203,2.996-2.49l4.437-0.939v-5.73H76.48z M63.568,147.19c0,11.113-9.048,20.151-20.169,20.151
	c-11.112,0-20.152-9.038-20.152-20.151c0-11.12,9.04-20.168,20.152-20.168C54.521,127.021,63.568,136.069,63.568,147.19z
	 M55.211,147.19c0-6.513-5.298-11.812-11.812-11.812c-6.504,0-11.795,5.299-11.795,11.812c0,6.505,5.291,11.796,11.795,11.796
	C49.913,158.986,55.211,153.695,55.211,147.19z M298.039,147.19c0,22.851-18.589,41.438-41.437,41.438
	c-22.849,0-41.439-18.588-41.439-41.438c0-22.848,18.591-41.438,41.439-41.438C279.45,105.753,298.039,124.342,298.039,147.19
	L298.039,147.19z M289.682,147.19c0-18.24-14.84-33.081-33.079-33.081c-18.24,0-33.08,14.841-33.08,33.081
	c0,18.242,14.84,33.082,33.08,33.082C274.842,180.272,289.682,165.433,289.682,147.19L289.682,147.19z M256.603,136.191
	c2.393,0,4.418,1.558,4.418,3.402c0,2.307,1.87,4.179,4.177,4.179c2.308,0,4.178-1.872,4.178-4.179c0-5.136-3.6-9.503-8.595-11.101
	v-4.433c0-2.309-1.87-4.18-4.178-4.18c-2.309,0-4.179,1.871-4.179,4.18v4.436c-4.985,1.599-8.579,5.963-8.579,11.098
	c0,9.18,7.747,10.81,11.909,11.687c5.088,1.068,5.267,1.523,5.267,3.491c0,1.854-2.025,3.419-4.418,3.419
	c-2.386,0-4.401-1.565-4.401-3.419c0-2.308-1.87-4.178-4.178-4.178c-2.309,0-4.179,1.87-4.179,4.178
	c0,5.141,3.594,9.512,8.579,11.114v4.437c0,2.308,1.87,4.179,4.179,4.179c2.308,0,4.178-1.871,4.178-4.179v-4.435
	c4.995-1.603,8.595-5.974,8.595-11.117c0-9.167-7.74-10.795-11.901-11.67c-5.078-1.068-5.272-1.567-5.272-3.507
	C252.201,137.749,254.217,136.191,256.603,136.191L256.603,136.191z M84.805,43.833c-0.463-0.688-0.709-1.499-0.709-2.33V19.135
	c0-5.402,4.395-9.797,9.796-9.797H206.11c5.411,0,9.812,4.395,9.812,9.797v22.132c0,0.828-0.245,1.637-0.707,2.325l-47.06,70.282
	v14.18c0,2.308-1.87,4.179-4.179,4.179s-4.179-1.871-4.179-4.179v-11.271h-19.596v11.271c0,2.308-1.871,4.179-4.179,4.179
	s-4.179-1.871-4.179-4.179v-14.177L84.805,43.833z M92.452,19.135v18.19h57.549c2.308,0,4.178,1.871,4.178,4.179
	s-1.87,4.179-4.178,4.179H96.113l42.137,62.743h23.497l45.82-68.429V19.135c0-0.78-0.668-1.44-1.457-1.44H93.892
	C93.097,17.694,92.452,18.341,92.452,19.135z M228.818,239.307c-1.777,1.508-1.981,4.165-0.476,5.923
	c1.506,1.761,4.163,1.963,5.924,0.455c1.76-1.504,1.962-4.145,0.456-5.902C233.217,238.021,230.578,237.801,228.818,239.307z
	 M238.564,229.983c-1.591,1.693-1.506,4.349,0.187,5.939c1.691,1.573,4.349,1.488,5.939-0.202c1.573-1.694,1.488-4.349-0.204-5.939
	C242.794,228.208,240.138,228.291,238.564,229.983L238.564,229.983z M253.083,218.782c-1.862-1.385-4.485-0.998-5.872,0.864
	c-1.387,1.845-0.999,4.483,0.846,5.871c1.86,1.37,4.5,1,5.873-0.862C255.314,222.793,254.943,220.17,253.083,218.782z
	 M260.391,206.887c-1.995-1.167-4.567-0.491-5.736,1.506c-1.167,1.997-0.489,4.571,1.508,5.736c1.997,1.167,4.569,0.507,5.736-1.506
	C263.065,210.628,262.388,208.056,260.391,206.887z M266.348,194.266c-2.115-0.948-4.603,0-5.549,2.131
	c-0.932,2.115,0.016,4.584,2.13,5.533c2.134,0.932,4.603-0.016,5.551-2.132C269.411,197.682,268.462,195.195,266.348,194.266z
	 M218.09,247.498c-1.912,1.301-2.419,3.908-1.117,5.82c1.304,1.928,3.908,2.418,5.82,1.116c1.93-1.302,2.419-3.909,1.118-5.821
	C222.609,246.701,220.002,246.196,218.09,247.498z M256.297,88.882c1.115,2.03,3.671,2.774,5.702,1.658
	c2.031-1.117,2.775-3.654,1.658-5.685s-3.671-2.775-5.702-1.676C255.925,84.297,255.18,86.852,256.297,88.882z M255.011,78.459
	c1.896-1.337,2.353-3.96,1.015-5.855c-1.335-1.895-3.959-2.351-5.853-1.015c-1.896,1.337-2.336,3.959-1.017,5.854
	C250.494,79.339,253.115,79.796,255.011,78.459z M246.72,67.224c1.743-1.54,1.896-4.197,0.372-5.939
	c-1.539-1.726-4.196-1.896-5.922-0.355c-1.742,1.54-1.912,4.197-0.373,5.923C242.339,68.594,244.993,68.746,246.72,67.224z
	 M231.305,57.257c1.726,1.557,4.383,1.422,5.94-0.287c1.557-1.726,1.42-4.384-0.306-5.922c-1.708-1.558-4.364-1.422-5.922,0.286
	C229.46,53.061,229.597,55.718,231.305,57.257z M220.813,48.78c1.895,1.354,4.5,0.931,5.855-0.947
	c1.353-1.878,0.931-4.501-0.949-5.855c-1.876-1.354-4.5-0.931-5.853,0.947C218.512,44.82,218.936,47.426,220.813,48.78z
	 M262.118,101.049c0.88,2.148,3.332,3.164,5.482,2.284c2.132-0.88,3.164-3.334,2.284-5.466c-0.897-2.148-3.351-3.181-5.482-2.285
	C262.253,96.463,261.238,98.916,262.118,101.049z M164.23,45.683c2.302,0,4.18-1.878,4.18-4.179s-1.878-4.179-4.18-4.179
	c-2.301,0-4.179,1.878-4.179,4.179S161.93,45.683,164.23,45.683z M178.462,45.683c2.3,0,4.179-1.878,4.179-4.179
	s-1.879-4.179-4.179-4.179c-2.303,0-4.179,1.878-4.179,4.179S176.159,45.683,178.462,45.683z"/>
</svg>
