<?xml version="1.0" encoding="utf-8"?>
<!-- Generator: Adobe Illustrator 16.0.0, SVG Export Plug-In . SVG Version: 6.00 Build 0)  -->
<!DOCTYPE svg PUBLIC "-//W3C//DTD SVG 1.1//EN" "http://www.w3.org/Graphics/SVG/1.1/DTD/svg11.dtd">
<svg version="1.1" id="Layer_1" xmlns="http://www.w3.org/2000/svg" xmlns:xlink="http://www.w3.org/1999/xlink" x="0px" y="0px"
	 width="100px" height="100px" viewBox="0 0 100 100" enable-background="new 0 0 100 100" xml:space="preserve">
<g>
	<g>
		<g>
			<path fill="#224653" d="M87.657,25.345c-1.2-0.001-2.394,0.182-3.539,0.544c0.106-0.863,0.162-1.731,0.166-2.601
				C84.067,10.576,73.588,0.441,60.873,0.654c-9.274,0.157-17.552,5.867-20.994,14.484c-6.654-4.125-15.392-2.077-19.517,4.577
				c-1.343,2.167-2.08,4.655-2.125,7.203c-1.792-1.034-3.826-1.578-5.894-1.573c-6.359,0-11.512,5.154-11.512,11.511
				c0,6.358,5.152,11.512,11.512,11.512c0.906,0,1.646-0.737,1.646-1.646c0-0.907-0.739-1.644-1.646-1.644
				c-4.54-0.073-8.162-3.814-8.09-8.355c0.075-4.541,3.818-8.163,8.356-8.088c2.763,0.044,5.32,1.476,6.804,3.808
				c0.498,0.76,1.517,0.974,2.279,0.476c0.655-0.43,0.918-1.264,0.622-1.992c-0.518-1.249-0.788-2.586-0.794-3.938
				c0.065-5.96,4.941-10.743,10.901-10.689c2.654,0.01,5.218,0.982,7.213,2.736c0.686,0.596,1.722,0.525,2.318-0.159
				c0.162-0.186,0.28-0.406,0.346-0.642C45.312,7.764,56.24,1.715,66.707,4.725c8.314,2.389,14.102,9.916,14.275,18.563
				c-0.008,1.724-0.249,3.439-0.715,5.098c-0.245,0.875,0.269,1.783,1.142,2.024c0.474,0.131,0.983,0.045,1.386-0.236
				c1.422-1.003,3.121-1.542,4.862-1.542c4.539,0,8.22,3.681,8.22,8.223s-3.681,8.223-8.22,8.223c-0.912,0-1.646,0.736-1.646,1.644
				c0,0.909,0.734,1.646,1.646,1.646c6.355,0,11.511-5.154,11.511-11.512C99.168,30.499,94.013,25.345,87.657,25.345z"/>
		</g>
	</g>
	<g>
		<g>
			<path fill="#224653" d="M77.952,63.167H22.037c-2.724,0-4.934,2.21-4.934,4.938v6.577c0,2.726,2.21,4.934,4.934,4.934h55.915
				c2.726,0,4.934-2.208,4.934-4.934v-6.577C82.886,65.377,80.678,63.167,77.952,63.167z M79.596,74.682
				c0,0.908-0.734,1.643-1.644,1.643H22.037c-0.907,0-1.644-0.734-1.644-1.643v-6.577c0-0.91,0.736-1.646,1.644-1.646h55.915
				c0.909,0,1.644,0.736,1.644,1.646V74.682z"/>
		</g>
	</g>
	<g>
		<g>
			<path fill="#224653" d="M73.391,68.205c-1.754,0.011-3.168,1.435-3.168,3.187c0.008,1.765,1.441,3.191,3.207,3.188
				c1.762-0.013,3.176-1.446,3.168-3.208C76.586,69.611,75.152,68.193,73.391,68.205z M73.43,71.496
				c-0.047,0-0.083-0.056-0.083-0.104l0.083-0.102V71.496z"/>
		</g>
	</g>
	<g>
		<g>
			<path fill="#224653" d="M56.244,69.748H24.999c-0.91,0-1.645,0.734-1.645,1.644c0,0.908,0.734,1.645,1.645,1.645h31.245
				c0.908,0,1.643-0.736,1.643-1.645C57.887,70.482,57.152,69.748,56.244,69.748z"/>
		</g>
	</g>
	<g>
		<g>
			<path fill="#224653" d="M66.399,69.748h-4.377c-0.904,0-1.643,0.734-1.643,1.644c0,0.908,0.738,1.645,1.643,1.645h4.377
				c0.908,0,1.643-0.736,1.643-1.645C68.042,70.482,67.308,69.748,66.399,69.748z"/>
		</g>
	</g>
	<g>
		<g>
			<path fill="#224653" d="M77.952,82.905H22.037c-2.724,0-4.934,2.208-4.934,4.934v6.576c0,2.726,2.21,4.934,4.934,4.934h55.915
				c2.726,0,4.934-2.208,4.934-4.934v-6.576C82.886,85.113,80.678,82.905,77.952,82.905z M79.596,94.415
				c0,0.908-0.734,1.646-1.644,1.646H22.037c-0.907,0-1.644-0.737-1.644-1.646v-6.576c0-0.909,0.736-1.647,1.644-1.647h55.915
				c0.909,0,1.644,0.738,1.644,1.647V94.415z"/>
		</g>
	</g>
	<g>
		<g>
			<path fill="#224653" d="M73.391,87.939c-1.754,0.01-3.168,1.434-3.168,3.186c0.008,1.766,1.441,3.191,3.207,3.188
				c1.762-0.012,3.176-1.445,3.168-3.207C76.586,89.346,75.152,87.928,73.391,87.939z M73.43,91.229
				c-0.047,0-0.083-0.054-0.083-0.103l0.083-0.101V91.229z"/>
		</g>
	</g>
	<g>
		<g>
			<path fill="#224653" d="M56.244,89.481H24.999c-0.91,0-1.645,0.735-1.645,1.646c0,0.906,0.734,1.646,1.645,1.646h31.245
				c0.908,0,1.643-0.739,1.643-1.646C57.887,90.217,57.152,89.481,56.244,89.481z"/>
		</g>
	</g>
	<g>
		<g>
			<path fill="#224653" d="M66.399,89.481h-4.377c-0.904,0-1.643,0.735-1.643,1.646c0,0.906,0.738,1.646,1.643,1.646h4.377
				c0.908,0,1.643-0.739,1.643-1.646C68.042,90.217,67.308,89.481,66.399,89.481z"/>
		</g>
	</g>
	<g>
		<g>
			<path fill="#224653" d="M77.952,43.435H22.037c-2.724,0-4.934,2.209-4.934,4.934v6.577c0,2.726,2.21,4.934,4.934,4.934h55.915
				c2.726,0,4.934-2.208,4.934-4.934v-6.577C82.886,45.644,80.678,43.435,77.952,43.435z M79.596,54.945
				c0,0.909-0.734,1.646-1.644,1.646H22.037c-0.907,0-1.644-0.736-1.644-1.646v-6.577c0-0.909,0.736-1.646,1.644-1.646h55.915
				c0.909,0,1.644,0.737,1.644,1.646V54.945z"/>
		</g>
	</g>
	<g>
		<g>
			<path fill="#224653" d="M76.08,51.209c-0.315-1.749-1.99-2.908-3.736-2.59c-0.829,0.15-1.564,0.619-2.05,1.304
				c-0.49,0.691-0.68,1.544-0.529,2.377c0.276,1.529,1.607,2.643,3.164,2.645c0.182,0,0.359-0.014,0.537-0.045
				c0.841-0.139,1.596-0.612,2.085-1.315C76.041,52.897,76.234,52.04,76.08,51.209z M72.846,51.788l0.074-0.131l0.005,0.205
				C72.854,51.862,72.85,51.821,72.846,51.788z"/>
		</g>
	</g>
	<g>
		<g>
			<path fill="#224653" d="M55.916,50.012H24.669c-0.908,0-1.645,0.737-1.645,1.645c0,0.908,0.736,1.644,1.645,1.644h31.247
				c0.908,0,1.644-0.735,1.644-1.644C57.56,50.75,56.824,50.012,55.916,50.012z"/>
		</g>
	</g>
	<g>
		<g>
			<path fill="#224653" d="M65.349,50.012h-4.377c-0.904,0-1.643,0.737-1.643,1.645c0,0.908,0.738,1.644,1.643,1.644h4.377
				c0.908,0,1.643-0.735,1.643-1.644C66.991,50.75,66.257,50.012,65.349,50.012z"/>
		</g>
	</g>
	<g>
		<g>
			<path fill="#224653" d="M42.934,27.472L38,22.538c-0.642-0.642-1.681-0.642-2.322,0l-4.934,4.934
				c-0.632,0.652-0.616,1.694,0.038,2.325c0.638,0.614,1.65,0.614,2.285,0l2.127-2.127v10.832c0,0.908,0.736,1.645,1.643,1.645
				c0.911,0,1.646-0.737,1.646-1.645V27.67l2.129,2.127c0.653,0.63,1.692,0.612,2.322-0.042
				C43.552,29.12,43.552,28.108,42.934,27.472z"/>
		</g>
	</g>
	<g>
		<g>
			<path fill="#224653" d="M69.207,32.405c-0.636-0.615-1.646-0.615-2.282,0l-2.129,2.126V23.7c0-0.908-0.735-1.644-1.644-1.644
				s-1.644,0.736-1.644,1.644v10.831l-2.129-2.126c-0.651-0.632-1.694-0.613-2.326,0.041c-0.616,0.637-0.616,1.647,0,2.285
				l4.938,4.934c0.64,0.642,1.679,0.642,2.322,0l4.938-4.934C69.879,34.077,69.863,33.036,69.207,32.405z"/>
		</g>
	</g>
</g>
</svg>
