<?xml version="1.0" encoding="utf-8"?>
<!-- Generator: Adobe Illustrator 16.0.0, SVG Export Plug-In . SVG Version: 6.00 Build 0)  -->
<!DOCTYPE svg PUBLIC "-//W3C//DTD SVG 1.1//EN" "http://www.w3.org/Graphics/SVG/1.1/DTD/svg11.dtd">
<svg version="1.1" id="Layer_1" xmlns="http://www.w3.org/2000/svg" xmlns:xlink="http://www.w3.org/1999/xlink" x="0px" y="0px"
	 width="100px" height="100px" viewBox="0 0 100 100" enable-background="new 0 0 100 100" xml:space="preserve">
<g>
	<polygon fill="#224653" points="53.158,4.189 91.071,4.189 91.071,19.379 94.23,19.379 94.23,1.03 49.999,1.03 49.999,20.634 
		53.158,20.634 	"/>
	<path fill="#224653" d="M98.972,34.55l-3.82-0.954l2.026-3.369l-2.947-2.948l-3.159-3.162l-2.338-2.34l-3.376,2.024l-0.951-3.814
		H72.461l-0.951,3.815l-3.374-2.024l-4.524,4.526h-7.999h-2.454h-3.16h-1.78h-1.942c0.358-1.533,0.564-3.116,0.564-4.738
		c0-11.323-9.213-20.535-20.537-20.535c-11.324,0-20.537,9.212-20.537,20.58c0,1.757,0.242,3.472,0.667,5.126
		c-3.139,1.061-5.407,4.025-5.407,7.466v37.914c0,4.354,3.544,7.901,7.899,7.901h20.537v3.157h-5.946
		c-1.808,0-3.433,1.005-4.242,2.619L16.825,90.7v8.27h44.233V90.7l-2.455-4.906c-0.807-1.614-2.432-2.619-4.237-2.619H48.42v-3.157
		h20.535c4.354,0,7.9-3.548,7.9-7.901v-11.06h7.551l0.951-3.813l3.376,2.021l8.446-8.446l-2.024-3.373l3.816-0.95V34.55z
		 M60.448,29.464l-0.757,0.759l2.253,3.754l-2.886,1.786l-9.062,0.021l0.006,3.158l20.622-0.045l0.373-1.044
		c1.336-3.723,5.166-5.851,9.092-5.064c3.005,0.604,5.439,3.022,6.065,6.017c0.499,2.399-0.079,4.838-1.587,6.695
		c-1.51,1.855-3.745,2.92-6.133,2.92c-3.343,0-6.337-2.115-7.449-5.266l-0.371-1.054H54.738c-2.613,0-4.74,2.128-4.74,4.74v9.476
		c0,0.873-0.707,1.581-1.579,1.581c-0.873,0-1.579-0.708-1.579-1.581v-3.157c0-2.613-2.127-4.739-4.74-4.739s-4.74,2.126-4.74,4.739
		v3.157c0,0.873-0.706,1.581-1.579,1.581h-6.318c-0.873,0-1.582-0.708-1.582-1.581v-1.721c4.476-0.754,7.9-4.646,7.9-9.335v-4.084
		l5.043-5.044c1.939-1.941,3.443-4.201,4.463-6.669H60.448z M32.623,42.101v3.16c0,3.484-2.833,6.318-6.318,6.318
		c-3.485,0-6.318-2.834-6.318-6.318v-3.16H32.623z M21.564,23.145h-3.161c-1.74,0-3.158-1.416-3.158-3.158s1.418-3.16,3.158-3.16
		c1.743,0,3.161,1.418,3.161,3.16V23.145z M24.725,38.941V26.304h3.158v12.638H24.725z M26.304,4.189
		c9.581,0,17.376,7.795,17.376,17.421c0,4.641-1.808,9.005-5.09,12.288l-5.042,5.043h-2.505V26.304h3.161
		c3.485,0,6.319-2.832,6.319-6.317s-2.833-6.319-6.319-6.319s-6.321,2.834-6.321,6.319v3.158h-3.158v-3.158
		c0-3.485-2.835-6.319-6.321-6.319c-3.482,0-6.318,2.834-6.318,6.319s2.836,6.317,6.318,6.317h3.161v12.638H19.06L14.018,33.9
		c-3.281-3.285-5.09-7.649-5.09-12.335C8.928,11.984,16.724,4.189,26.304,4.189z M31.043,23.145v-3.158
		c0-1.742,1.418-3.16,3.161-3.16c1.742,0,3.158,1.418,3.158,3.16s-1.416,3.158-3.158,3.158H31.043z M22.104,87.207
		c0.27-0.539,0.809-0.873,1.414-0.873h5.946v3.157h-8.502L22.104,87.207z M57.897,92.653v3.159H19.986v-3.159H57.897z
		 M32.623,89.491v-9.474h12.636v9.474H32.623z M54.366,86.334c0.603,0,1.146,0.334,1.413,0.873l1.143,2.284H48.42v-3.157H54.366z
		 M73.695,72.116c0,2.611-2.128,4.737-4.74,4.737H8.928c-2.613,0-4.739-2.126-4.739-4.737v-4.74h18.955v1.58
		c0,2.611,2.127,4.738,4.739,4.738h22.116c2.613,0,4.74-2.127,4.74-4.738v-1.58h18.957V72.116z M26.304,68.956v-1.58h6.318v3.161
		h-4.74C27.011,70.537,26.304,69.829,26.304,68.956z M35.783,70.537v-3.161h6.318v3.161H35.783z M45.259,70.537v-3.161h6.32v1.58
		c0,0.873-0.709,1.581-1.581,1.581H45.259z M73.695,64.219H4.188V34.202c0-2.065,1.362-3.848,3.249-4.481
		c1.016,2.362,2.473,4.538,4.343,6.412l5.044,5.044v4.084c0,4.687,3.424,8.579,7.899,9.335v1.721c0,2.616,2.127,4.74,4.74,4.74
		h6.318c2.612,0,4.74-2.124,4.74-4.74v-3.157c0-0.872,0.707-1.58,1.579-1.58c0.873,0,1.579,0.708,1.579,1.58v3.157
		c0,2.616,2.126,4.74,4.74,4.74c2.612,0,4.738-2.124,4.738-4.74v-9.476c0-0.871,0.707-1.58,1.58-1.58h4.289l2.917,1.804
		l-2.253,3.754l8.446,8.446l3.372-2.021l0.951,3.813h1.234V64.219z M95.811,44.027l-3.08,0.77l-0.843,0.318l-0.732,1.804
		l2.047,3.413l-4.961,4.958l-3.409-2.048l-1.928,0.784l-0.964,3.871h-7.01l-0.77-3.076l-0.32-0.845l-1.803-0.734l-3.414,2.046
		l-4.957-4.959l2.047-3.411l-0.68-1.654l-0.004-0.003h3.409c1.812,3.822,5.697,6.318,9.993,6.318c3.342,0,6.472-1.489,8.588-4.086
		c2.107-2.598,2.921-5.999,2.225-9.333c-0.878-4.215-4.309-7.619-8.533-8.469c-5.108-1.028-10.086,1.491-12.254,6.052l-3.493,0.008
		l0.12-0.095l0.629-1.531l-2.049-3.41l4.959-4.957l3.412,2.047l1.927-0.794l0.968-3.866h7.01l0.964,3.865l1.928,0.794l3.409-2.048
		l4.961,4.957l-2.047,3.409l0.784,1.927l3.871,0.968V44.027z"/>
</g>
</svg>
