<?xml version="1.0" encoding="utf-8"?>
<!-- Generator: Adobe Illustrator 16.0.0, SVG Export Plug-In . SVG Version: 6.00 Build 0)  -->
<!DOCTYPE svg PUBLIC "-//W3C//DTD SVG 1.1//EN" "http://www.w3.org/Graphics/SVG/1.1/DTD/svg11.dtd">
<svg version="1.1" id="Layer_1" xmlns="http://www.w3.org/2000/svg" xmlns:xlink="http://www.w3.org/1999/xlink" x="0px" y="0px"
	 width="100px" height="100px" viewBox="0 0 100 100" enable-background="new 0 0 100 100" xml:space="preserve">
<g>
	<path fill="#000000" d="M76.932,62.676h3.167v28.51h-3.167V62.676z"/>
	<path fill="#000000" d="M76.932,56.338h3.167v3.167h-3.167V56.338z"/>
	<path fill="#000000" d="M83.266,67.428h3.171v3.167h-3.171V67.428z"/>
	<path fill="#000000" d="M99.018,30.959c-0.694-6.283-5.722-11.534-11.957-12.471c-1.312-0.2-2.606-0.188-3.87-0.04
		C82.445,8.646,74.247,0.896,64.259,0.896c-5.468,0-10.646,2.382-14.238,6.448c-3.531-4.034-8.662-6.448-14.276-6.448
		c-9.985,0-18.179,7.747-18.933,17.538c-2.143-0.259-4.248-0.027-6.283,0.718c-5.938,2.17-9.718,7.519-9.632,13.633
		c0.104,7.209,5.653,13.162,12.672,13.955v17.518h3.169V46.833h9.502v25.343h3.169v17.052l-1.711,3.422l2.152,6.455h8.62
		l2.152-6.455l-1.709-3.422V72.176h3.167V38.914c0-4.368-3.554-7.923-7.919-7.923c-4.368,0-7.921,3.556-7.921,7.923V40.5h3.169
		v-1.585c0-2.064,1.328-3.807,3.169-4.462v18.719h3.167V34.452c1.839,0.655,3.169,2.397,3.169,4.462v30.095h-9.504V43.666H15.152
		c-6.028,0-11.002-4.905-11.086-10.925C4,27.993,6.962,23.829,11.618,22.126c1.701-0.624,3.418-0.761,5.208-0.475
		c0.106,1.162,0.308,2.315,0.626,3.438l3.049-0.864c-0.396-1.401-0.597-2.853-0.597-4.32c0-8.735,7.105-15.842,15.84-15.842
		c6.575,0,12.371,3.959,14.76,10.082l2.953-1.15c-0.415-1.063-0.924-2.061-1.499-3.01c3.003-3.712,7.512-5.922,12.301-5.922
		c8.486,0,15.416,6.714,15.805,15.108c-3.198,1.13-5.948,3.371-7.688,6.499l2.771,1.535c2.275-4.097,6.772-6.283,11.442-5.584
		c4.839,0.73,8.739,4.803,9.277,9.689c0.357,3.206-0.624,6.283-2.755,8.661c-2.1,2.347-5.113,3.696-8.261,3.696H73.762v-8.771
		l-5.857-3.905h-3.646V40.5c0,1.746-1.422,3.167-3.169,3.167c-1.746,0-3.169-1.42-3.169-3.167v-9.509h-3.647l-5.855,3.905v12.593
		l6.336,6.338v32.65c-1.026,1.373-1.586,3.025-1.586,4.709c0,4.367,3.554,7.919,7.921,7.919c4.368,0,7.922-3.552,7.922-7.919
		c0-1.684-0.562-3.336-1.586-4.709v-32.65l2.704-2.708l-2.239-2.237l-3.632,3.63V87.63l0.391,0.447
		c0.544,0.624,1.193,1.668,1.193,3.108c0,2.621-2.133,4.752-4.753,4.752c-2.619,0-4.752-2.131-4.752-4.752
		c0-1.44,0.649-2.484,1.193-3.108l0.39-0.447V52.512l-6.335-6.334v-9.587l3.169-2.111v6.02c0,3.492,2.841,6.333,6.335,6.333
		c3.495,0,6.336-2.841,6.336-6.333v-6.02l3.169,2.111v10.242h12.671v17.424h3.171V46.743c3.461-0.388,6.69-2.037,9.037-4.658
		C98.174,39.071,99.465,35.017,99.018,30.959z M37.203,92.893l-1.017,3.045h-4.054l-1.014-3.045l1.46-2.916V72.176h3.167v17.801
		L37.203,92.893z"/>
	<path fill="#000000" d="M73.367,17.189l3.038-0.906c-1.585-5.329-6.58-9.049-12.146-9.049V10.4
		C68.433,10.4,72.181,13.19,73.367,17.189z"/>
	<path fill="#000000" d="M32.578,62.676h3.167v3.167h-3.167V62.676z"/>
	<path fill="#000000" d="M32.578,56.338h3.167v3.167h-3.167V56.338z"/>
	<path fill="#000000" d="M59.507,89.604h3.167v3.167h-3.167V89.604z"/>
	<path fill="#000000" d="M83.266,73.762h3.171v3.167h-3.171V73.762z"/>
	<path fill="#000000" d="M19.904,62.676h3.169v28.51h-3.169V62.676z"/>
	<path fill="#000000" d="M19.904,56.338h3.169v3.167h-3.169V56.338z"/>
	<path fill="#000000" d="M13.569,67.428h3.169v3.167h-3.169V67.428z"/>
	<path fill="#000000" d="M13.569,73.762h3.169v3.167h-3.169V73.762z"/>
</g>
</svg>
