<?xml version="1.0" encoding="utf-8"?>
<!-- Generator: Adobe Illustrator 16.0.0, SVG Export Plug-In . SVG Version: 6.00 Build 0)  -->
<!DOCTYPE svg PUBLIC "-//W3C//DTD SVG 1.1//EN" "http://www.w3.org/Graphics/SVG/1.1/DTD/svg11.dtd">
<svg version="1.1" id="Layer_1" xmlns="http://www.w3.org/2000/svg" xmlns:xlink="http://www.w3.org/1999/xlink" x="0px" y="0px"
	 width="300px" height="300px" viewBox="0 0 300 300" enable-background="new 0 0 300 300" xml:space="preserve">
<g id="setting-management-setting-gear-hand">
	
		<linearGradient id="SVGID_1_" gradientUnits="userSpaceOnUse" x1="38.6875" y1="231.9688" x2="38.6875" y2="271.8109" gradientTransform="matrix(8 0 0 -8 -159.5 2158.5)">
		<stop  offset="0" style="stop-color:#000000"/>
		<stop  offset="1" style="stop-color:#000000"/>
	</linearGradient>
	<path fill="url(#SVGID_1_)" d="M297.205,141.445l-19.699-39.397c-0.813-1.675-2.521-2.73-4.383-2.709h-3.743l-4.924-4.924h8.667
		c2.721,0,4.925-2.205,4.925-4.925V69.791c0-2.72-2.204-4.924-4.925-4.924h-8.667l6.156-6.106c1.92-1.936,1.92-5.059,0-6.994
		L256.675,37.83c-1.936-1.921-5.057-1.921-6.993,0l-6.105,6.155v-8.667c0-2.72-2.206-4.925-4.925-4.925h-19.699
		c-2.719,0-4.925,2.205-4.925,4.925v8.667l-6.106-6.155c-1.936-1.921-5.057-1.921-6.993,0l-13.937,13.937
		c-1.92,1.935-1.92,5.058,0,6.994l6.156,6.106h-8.668c-2.72,0-4.924,2.205-4.924,4.924v19.698c0,2.72,2.204,4.925,4.924,4.925h8.668
		l-4.925,4.924h-28.365V89.145c-0.015-4.149,1.74-8.109,4.825-10.884c18.298-16.258,19.952-44.272,3.694-62.571
		c-4.531-5.099-10.177-9.083-16.498-11.642c-2.516-1.034-5.393,0.167-6.427,2.683c-0.247,0.602-0.373,1.246-0.37,1.896v33.882
		l-9.849,6.599l-9.85-6.599V8.627c0.014-2.72-2.18-4.936-4.9-4.949c-0.65-0.003-1.294,0.122-1.896,0.37
		c-22.689,9.187-33.634,35.027-24.448,57.716c2.56,6.322,6.545,11.968,11.644,16.498c3.085,2.775,4.841,6.734,4.826,10.884v10.193
		h-4.925c-1.862-0.021-3.569,1.034-4.383,2.709l-19.698,39.397c-1.224,2.428-0.247,5.39,2.182,6.614
		c0.683,0.343,1.437,0.524,2.202,0.526h14.774v60.178l-9.849,2.464v-8.471c0-2.721-2.206-4.924-4.925-4.924H46.59
		c-2.72,0-4.925,2.203-4.925,4.924v4.925H7.193c-2.72,0-4.925,2.204-4.925,4.925v68.944c0,2.719,2.205,4.924,4.925,4.924h34.472
		v4.925c0,2.722,2.205,4.925,4.925,4.925h39.397c2.719,0,4.925-2.203,4.925-4.925v-6.795l6.353,3.151
		c4.789,2.385,10.063,3.63,15.413,3.644H186.4c6.055,0.014,12.003-1.584,17.235-4.627l82.734-47.771
		c9.407-5.426,12.635-17.451,7.207-26.86c-3.244-5.623-9.057-9.282-15.529-9.78v-53.775h14.773c2.721-0.008,4.919-2.219,4.91-4.939
		C297.729,142.88,297.549,142.127,297.205,141.445z M41.665,276.625H12.118V217.53h29.547V276.625z M81.063,286.474H51.514v-78.793
		h29.549V286.474z M189.404,84.564v-9.849h11.573c2.171-0.006,4.086-1.422,4.728-3.496c0.216-0.698,0.496-1.375,0.837-2.02
		c0.996-1.907,0.636-4.241-0.886-5.762l-8.225-8.175l6.993-6.992l8.174,8.224c1.521,1.522,3.854,1.881,5.763,0.886
		c0.646-0.341,1.321-0.622,2.019-0.837c2.074-0.642,3.491-2.557,3.497-4.728V40.243h9.849v11.573
		c0.007,2.171,1.423,4.085,3.497,4.728c0.697,0.216,1.374,0.496,2.019,0.837c1.909,0.995,4.242,0.636,5.763-0.886l8.174-8.224
		l6.994,6.992l-8.225,8.175c-1.522,1.521-1.882,3.854-0.886,5.762c0.341,0.646,0.621,1.322,0.837,2.02
		c0.642,2.074,2.557,3.49,4.728,3.496h11.573v9.849h-11.573c-2.171,0.007-4.086,1.422-4.728,3.497
		c-0.216,0.698-0.496,1.374-0.837,2.019c-0.996,1.909-0.637,4.241,0.886,5.762l3.546,3.496h-53.384l3.547-3.496
		c1.521-1.521,1.882-3.853,0.886-5.762c-0.341-0.645-0.621-1.321-0.837-2.019c-0.642-2.075-2.557-3.49-4.728-3.497H189.404z
		 M194.329,125.144l10.392,20.733c0.813,1.674,2.521,2.73,4.382,2.708h59.097v55.551c-0.493,0.246-1.034,0.491-1.527,0.737
		l-48.015,27.726c-2.622-3.929-6.574-6.779-11.129-8.027l-13.199-3.496V125.144z M100.761,45.168
		c-0.026-11.292,5.497-21.877,14.773-28.317v28.317c0.008,1.646,0.84,3.181,2.215,4.087l14.775,9.849
		c1.627,1.132,3.79,1.132,5.417,0l14.773-9.849c1.376-0.906,2.208-2.441,2.216-4.087V16.851
		c15.627,10.876,19.478,32.36,8.603,47.986c-1.541,2.214-3.338,4.241-5.353,6.036c-5.231,4.628-8.21,11.288-8.175,18.271v10.193
		h-9.849V84.564c0-2.72-2.205-4.925-4.924-4.925c-2.719,0-4.925,2.205-4.925,4.925v14.773h-9.849V89.145
		c0.031-6.973-2.927-13.625-8.125-18.271C104.966,64.363,100.751,55,100.761,45.168z M93.964,138.736l14.775-29.547h72.688
		l-14.774,29.547H93.964z M184.479,125.144v93.271l-50.428-13.492c-5.655-1.527-11.606-1.576-17.286-0.148l-6.155,1.527v-57.717
		h59.096c1.862,0.021,3.569-1.034,4.383-2.708L184.479,125.144z M284.992,217.038c2.722,4.692,1.137,10.703-3.547,13.443
		l-82.733,47.769c-3.741,2.166-7.988,3.304-12.312,3.3h-73.722c-3.831,0.008-7.609-0.886-11.031-2.611l-10.735-5.367V221.37
		l28.217-7.041c4.061-1.027,8.317-0.994,12.362,0.099l73.475,19.698c5.242,1.361,8.388,6.713,7.026,11.954
		c-0.667,2.571-2.351,4.761-4.662,6.069c-2.243,1.322-4.927,1.679-7.436,0.986l-58.752-15.76c-2.638-0.708-5.35,0.857-6.057,3.496
		c-0.707,2.639,0.859,5.35,3.497,6.058l58.751,15.711c1.671,0.448,3.392,0.681,5.122,0.688c3.444,0.006,6.83-0.913,9.8-2.66
		c4.547-2.598,7.863-6.906,9.209-11.967c0.547-2.172,0.729-4.417,0.542-6.647l49.591-28.613
		C276.301,210.831,282.227,212.423,284.992,217.038z M212.156,138.736l-14.773-29.547h72.687l14.774,29.547H212.156z"/>
	
		<linearGradient id="SVGID_2_" gradientUnits="userSpaceOnUse" x1="48.5376" y1="231.9727" x2="48.5376" y2="271.8089" gradientTransform="matrix(8 0 0 -8 -159.5 2158.5)">
		<stop  offset="0" style="stop-color:#000000"/>
		<stop  offset="1" style="stop-color:#000000"/>
	</linearGradient>
	<path fill="url(#SVGID_2_)" d="M248.5,79.64c0-10.879-8.819-19.698-19.699-19.698c-10.879,0-19.698,8.819-19.698,19.698
		c0,10.879,8.819,19.698,19.698,19.698C239.681,99.338,248.5,90.519,248.5,79.64z M228.801,89.489c-5.438,0-9.849-4.409-9.849-9.849
		c0-5.439,4.41-9.849,9.849-9.849c5.44,0,9.851,4.41,9.851,9.849C238.651,85.08,234.241,89.489,228.801,89.489z"/>
</g>
</svg>
