<?xml version="1.0" encoding="utf-8"?>
<!-- Generator: Adobe Illustrator 16.0.0, SVG Export Plug-In . SVG Version: 6.00 Build 0)  -->
<!DOCTYPE svg PUBLIC "-//W3C//DTD SVG 1.1//EN" "http://www.w3.org/Graphics/SVG/1.1/DTD/svg11.dtd">
<svg version="1.1" id="Layer_1" xmlns="http://www.w3.org/2000/svg" xmlns:xlink="http://www.w3.org/1999/xlink" x="0px" y="0px"
	 width="512px" height="512px" viewBox="0 0 512 512" enable-background="new 0 0 512 512" xml:space="preserve">
<g>
	<g>
		<g>
			
				<linearGradient id="SVGID_1_" gradientUnits="userSpaceOnUse" x1="134.2637" y1="41.168" x2="134.2637" y2="544.5276" gradientTransform="matrix(1 0 0 -1 244 549)">
				<stop  offset="0" style="stop-color:#000000"/>
				<stop  offset="1" style="stop-color:#000000"/>
			</linearGradient>
			<path fill="url(#SVGID_1_)" d="M500.526,492.552h-13.289V298.526c0-4.404-3.571-7.976-7.974-7.976H330.421
				c-4.403,0-7.974,3.57-7.974,7.976c0,4.4,3.57,7.973,7.974,7.973H471.29v37.21H256c-4.403,0-7.974,3.57-7.974,7.975v74.421
				c0,4.403,3.569,7.974,7.974,7.974h215.29v58.475h-66.447c-4.403,0-7.974,3.57-7.974,7.975c0,4.403,3.57,7.973,7.974,7.973h95.685
				c4.402,0,7.974-3.57,7.974-7.973C508.5,496.122,504.93,492.552,500.526,492.552z M471.29,418.131h-58.476v-34.553
				c0-4.404-3.568-7.976-7.973-7.976s-7.974,3.571-7.974,7.976v34.553h-58.474v-34.553c0-4.404-3.571-7.976-7.974-7.976
				c-4.404,0-7.974,3.571-7.974,7.976v34.553h-58.475v-58.475H471.29V418.131L471.29,418.131z"/>
			
				<linearGradient id="SVGID_2_" gradientUnits="userSpaceOnUse" x1="-30.5269" y1="41.1582" x2="-30.5269" y2="544.5303" gradientTransform="matrix(1 0 0 -1 244 549)">
				<stop  offset="0" style="stop-color:#000000"/>
				<stop  offset="1" style="stop-color:#000000"/>
			</linearGradient>
			<path fill="url(#SVGID_2_)" d="M213.474,157.657c21.985,0,39.868-17.884,39.868-39.869c0-21.984-17.883-39.868-39.868-39.868
				c-21.983,0-39.868,17.884-39.868,39.868C173.605,139.771,191.49,157.657,213.474,157.657z M213.474,93.868
				c13.19,0,23.921,10.73,23.921,23.921s-10.729,23.922-23.921,23.922c-13.19,0-23.921-10.731-23.921-23.922
				S200.283,93.868,213.474,93.868z"/>
			
				<linearGradient id="SVGID_3_" gradientUnits="userSpaceOnUse" x1="-51.7905" y1="41.168" x2="-51.7906" y2="544.5265" gradientTransform="matrix(1 0 0 -1 244 549)">
				<stop  offset="0" style="stop-color:#000000"/>
				<stop  offset="1" style="stop-color:#000000"/>
			</linearGradient>
			<path fill="url(#SVGID_3_)" d="M372.946,492.552H207.619c2.892-5.651,3.878-12.137,2.718-18.52l-13.53-74.421
				c-2.529-13.91-14.626-24.009-28.766-24.009h-7.034c-14.139,0-26.234,10.099-28.765,24.009l-13.532,74.421
				c-1.162,6.383-0.172,12.867,2.718,18.52H40.71V95.678l38.185,7.86c4.313,0.89,8.529-1.888,9.418-6.201
				c0.888-4.313-1.889-8.53-6.201-9.417l-47.767-9.835c-2.346-0.484-4.788,0.114-6.645,1.629c-1.859,1.514-2.938,3.784-2.938,6.181
				v406.658h-13.29c-4.404,0-7.974,3.57-7.974,7.975c0,4.403,3.569,7.974,7.974,7.974h361.474c4.404,0,7.974-3.57,7.974-7.974
				C380.921,496.122,377.352,492.552,372.946,492.552z M191.776,487.778c-2.534,3.033-6.252,4.772-10.204,4.772h-9.075v-45.184
				c0-4.403-3.57-7.974-7.973-7.974c-4.403,0-7.975,3.569-7.975,7.974v45.184h-9.075c-3.951,0-7.67-1.739-10.203-4.772
				c-2.533-3.034-3.579-7.006-2.872-10.895l13.53-74.421c1.15-6.323,6.648-10.912,13.075-10.912h7.035
				c6.428,0,11.926,4.589,13.075,10.912l13.531,74.421C195.354,480.773,194.308,484.742,191.776,487.778z"/>
			
				<linearGradient id="SVGID_4_" gradientUnits="userSpaceOnUse" x1="122.813" y1="41.168" x2="122.813" y2="544.5276" gradientTransform="matrix(1 0 0 -1 244 549)">
				<stop  offset="0" style="stop-color:#000000"/>
				<stop  offset="1" style="stop-color:#000000"/>
			</linearGradient>
			<path fill="url(#SVGID_4_)" d="M337.809,156.843l48.429,9.972v99.817c0,4.402,3.57,7.974,7.974,7.974s7.975-3.571,7.975-7.974
				V160.314c0-3.783-2.659-7.047-6.365-7.811l-54.797-11.281c-4.313-0.891-8.529,1.887-9.418,6.202
				C330.717,151.738,333.494,155.955,337.809,156.843z"/>
			
				<linearGradient id="SVGID_5_" gradientUnits="userSpaceOnUse" x1="-30.5278" y1="41.1689" x2="-30.5279" y2="544.5264" gradientTransform="matrix(1 0 0 -1 244 549)">
				<stop  offset="0" style="stop-color:#000000"/>
				<stop  offset="1" style="stop-color:#000000"/>
			</linearGradient>
			<path fill="url(#SVGID_5_)" d="M113.363,141.66l19.462,3.893c1.132,3.289,2.466,6.507,3.99,9.631l-11.012,16.515
				c-4.648,6.973-3.722,16.333,2.204,22.257l9.297,9.297c5.926,5.926,15.287,6.852,22.258,2.204l16.516-11.01
				c3.125,1.526,6.342,2.856,9.632,3.989l3.892,19.463c1.644,8.216,8.919,14.179,17.297,14.179h13.146
				c8.379,0,15.654-5.963,17.297-14.179l3.893-19.463c3.289-1.131,6.508-2.465,9.632-3.988l16.516,11.01
				c6.974,4.646,16.332,3.723,22.257-2.203l9.298-9.297c5.925-5.925,6.852-15.285,2.202-22.257l-11.01-16.516
				c1.525-3.125,2.857-6.343,3.989-9.631l19.463-3.893c8.217-1.643,14.181-8.917,14.181-17.296v-13.147
				c0-8.38-5.964-15.653-14.181-17.296l-19.46-3.893c-1.135-3.289-2.467-6.507-3.991-9.631l11.012-16.515
				c4.647-6.973,3.722-16.333-2.206-22.257l-9.297-9.297c-5.923-5.925-15.283-6.852-22.257-2.204l-16.516,11.01
				c-3.124-1.526-6.341-2.855-9.632-3.989l-3.892-19.464c-1.643-8.219-8.917-14.183-17.295-14.183H206.9
				c-8.378,0-15.652,5.964-17.297,14.18l-3.892,19.462c-3.291,1.132-6.508,2.466-9.632,3.99L159.564,30.12
				c-6.974-4.649-16.334-3.721-22.257,2.203l-9.298,9.297c-5.924,5.926-6.852,15.285-2.203,22.258l11.01,16.516
				c-1.525,3.124-2.856,6.34-3.989,9.631l-19.463,3.892c-8.217,1.644-14.181,8.917-14.181,17.295v13.148
				C99.185,132.74,105.146,140.015,113.363,141.66z M115.132,111.214c0-0.803,0.571-1.501,1.36-1.659l24.1-4.82
				c2.942-0.588,5.307-2.781,6.114-5.669c1.487-5.315,3.612-10.444,6.317-15.245c1.473-2.617,1.353-5.839-0.313-8.336
				l-13.634-20.452c-0.446-0.668-0.356-1.566,0.211-2.133l9.297-9.297c0.57-0.569,1.465-0.657,2.134-0.211l20.451,13.633
				c2.498,1.666,5.72,1.787,8.337,0.313c4.8-2.703,9.928-4.83,15.244-6.317c2.891-0.809,5.081-3.172,5.671-6.116l4.819-24.099
				c0.158-0.789,0.854-1.36,1.659-1.36h13.146c0.804,0,1.5,0.571,1.659,1.36l4.82,24.099c0.588,2.943,2.779,5.307,5.668,6.116
				c5.315,1.487,10.444,3.612,15.245,6.317c2.617,1.474,5.841,1.353,8.338-0.313l20.449-13.633c0.668-0.447,1.564-0.358,2.135,0.21
				l9.298,9.297c0.566,0.569,0.656,1.465,0.21,2.134l-13.634,20.452c-1.665,2.498-1.786,5.719-0.313,8.336
				c2.704,4.801,4.829,9.928,6.318,15.246c0.809,2.889,3.171,5.08,6.114,5.668l24.1,4.82c0.787,0.158,1.36,0.855,1.36,1.659v13.148
				c0,0.804-0.573,1.501-1.36,1.659l-24.1,4.819c-2.943,0.588-5.307,2.78-6.114,5.67c-1.485,5.313-3.611,10.442-6.316,15.244
				c-1.475,2.616-1.353,5.838,0.313,8.336l13.636,20.452c0.444,0.668,0.354,1.566-0.212,2.133l-9.297,9.297
				c-0.569,0.57-1.467,0.657-2.137,0.211l-20.449-13.633c-2.497-1.666-5.72-1.785-8.335-0.313
				c-4.801,2.703-9.929,4.828-15.246,6.318c-2.891,0.809-5.081,3.172-5.669,6.115l-4.82,24.098
				c-0.157,0.789-0.855,1.361-1.659,1.361H206.9c-0.805,0-1.501-0.572-1.659-1.361l-4.819-24.098
				c-0.589-2.943-2.78-5.307-5.669-6.115c-5.315-1.488-10.445-3.613-15.245-6.318c-1.219-0.687-2.566-1.026-3.914-1.026
				c-1.545,0-3.089,0.45-4.424,1.34l-20.452,13.636c-0.666,0.445-1.565,0.356-2.133-0.213l-9.297-9.297
				c-0.568-0.568-0.657-1.466-0.213-2.135l13.635-20.45c1.666-2.499,1.787-5.72,0.313-8.336c-2.704-4.8-4.83-9.929-6.317-15.246
				c-0.81-2.89-3.172-5.081-6.115-5.67l-24.099-4.819c-0.789-0.158-1.36-0.855-1.36-1.659V111.214L115.132,111.214L115.132,111.214z
				"/>
			
				<linearGradient id="SVGID_6_" gradientUnits="userSpaceOnUse" x1="-14.5806" y1="41.168" x2="-14.5806" y2="544.5277" gradientTransform="matrix(1 0 0 -1 244 549)">
				<stop  offset="0" style="stop-color:#000000"/>
				<stop  offset="1" style="stop-color:#000000"/>
			</linearGradient>
			<path fill="url(#SVGID_6_)" d="M160.315,290.552c-4.403,0-7.975,3.57-7.975,7.976v53.156c0,4.404,3.571,7.974,7.975,7.974
				c4.402,0,7.974-3.57,7.974-7.974v-45.185h130.235c4.403,0,7.974-3.571,7.974-7.973c0-4.404-3.569-7.976-7.974-7.976
				L160.315,290.552L160.315,290.552z"/>
		</g>
	</g>
</g>
</svg>
