<svg enable-background="new 0 0 256 256" viewBox="0 0 256 256" xmlns="http://www.w3.org/2000/svg"><g id="_x34_9_Network_Security"><g><path d="m225.779 122.776c8.118 0 14.725-6.607 14.725-14.728 0-8.118-6.607-14.725-14.725-14.725-6.76 0-12.41 4.603-14.135 10.818h-37.458c.047-.855.107-1.707.107-2.571 0-10.09-3.326-19.397-8.886-26.97h25.942c1.186 0 2.304-.538 3.048-1.461l9.71-12.106c1.878.871 3.949 1.391 6.151 1.391 8.121 0 14.728-6.607 14.728-14.728 0-8.118-6.607-14.725-14.728-14.725-8.118 0-14.725 6.607-14.725 14.725 0 3.084.961 5.943 2.587 8.312l-8.645 10.78h-12.306v-19.173c6.218-1.724 10.822-7.375 10.822-14.136 0-8.118-6.607-14.725-14.725-14.725s-14.725 6.607-14.725 14.725c0 6.758 4.601 12.408 10.815 14.134v19.176h-9.453c-.344 0-.908.031-1.549.168-7.098-6.119-16.072-10.098-25.947-10.937v-24.186c6.215-1.721 10.818-7.358 10.818-14.098 0-8.118-6.607-14.725-14.725-14.725-8.099 0-14.686 6.607-14.686 14.725 0 6.737 4.585 12.371 10.78 14.096v24.188c-9.795.833-18.707 4.756-25.775 10.801-.087-.015-.156-.068-.245-.078-.492-.053-.988-.099-1.48-.099h-9.418v-19.029c6.221-1.723 10.826-7.375 10.826-14.137 0-8.118-6.607-14.725-14.728-14.725-8.118 0-14.725 6.607-14.725 14.725 0 6.758 4.601 12.408 10.815 14.134v19.031h-12.37l-8.667-10.516c1.681-2.393 2.686-5.292 2.686-8.432 0-8.118-6.607-14.725-14.728-14.725-8.118 0-14.725 6.607-14.725 14.725 0 8.121 6.607 14.728 14.725 14.728 2.151 0 4.18-.488 6.023-1.32l9.83 11.929c.74.9 1.846 1.423 3.014 1.423h18.025c.033.001.061.019.095.019s.061-.018.095-.019h7.869c-5.62 7.599-8.986 16.959-8.986 27.115 0 .86.064 1.715.113 2.571h-38.507c-1.725-6.215-7.376-10.818-14.135-10.818-8.118 0-14.725 6.607-14.725 14.725 0 8.121 6.607 14.728 14.725 14.728 6.76 0 12.411-4.604 14.136-10.822h39.631c1.602 6.854 4.734 13.322 9.267 18.814 1.374 1.658 3.827 1.902 5.501.526 1.663-1.373 1.9-3.838.526-5.501-5.623-6.813-8.72-15.415-8.72-24.223 0-20.92 17.017-37.937 37.937-37.937 20.942 0 37.982 17.017 37.982 37.937 0 8.739-2.888 16.956-8.35 23.761-1.35 1.682-1.08 4.143.603 5.493 1.682 1.347 4.139 1.08 5.493-.603 4.366-5.444 7.335-11.644 8.862-18.268h38.555c1.724 6.219 7.375 10.823 14.135 10.823zm0-21.641c3.811 0 6.912 3.101 6.912 6.912 0 3.815-3.101 6.916-6.912 6.916-3.88 0-6.916-3.036-6.916-6.916 0-3.81 3.101-6.912 6.916-6.912zm-15.522-60.351c3.815 0 6.916 3.101 6.916 6.912 0 3.815-3.101 6.916-6.916 6.916-3.811 0-6.912-3.101-6.912-6.916 0-3.811 3.101-6.912 6.912-6.912zm-43.903-7.305c0-3.811 3.101-6.912 6.912-6.912s6.912 3.101 6.912 6.912c0 3.802-3.083 6.893-6.877 6.912-.014 0-.025-.008-.039-.008-.013 0-.024.007-.036.007-3.791-.022-6.872-3.111-6.872-6.911zm-119.57 21.133c-3.811 0-6.912-3.101-6.912-6.916 0-3.811 3.101-6.912 6.912-6.912 3.815 0 6.916 3.101 6.916 6.912 0 3.821-3.127 6.916-6.916 6.916zm36.991-14.217c-3.811 0-6.912-3.101-6.912-6.916 0-3.811 3.101-6.912 6.912-6.912 3.815 0 6.916 3.101 6.916 6.912 0 3.814-3.102 6.916-6.916 6.916zm-53.554 74.568c-3.811 0-6.912-3.101-6.912-6.916 0-3.811 3.101-6.912 6.912-6.912 3.815 0 6.916 3.101 6.916 6.912 0 3.815-3.101 6.916-6.916 6.916zm91.407-97.227c0-3.811 3.082-6.912 6.874-6.912 3.811 0 6.912 3.101 6.912 6.912 0 3.792-3.101 6.878-6.912 6.878-3.792-.001-6.874-3.087-6.874-6.878z"/><path d="m127.598 80.208c-.023 0-.05 0-.076 0-7.951 0-14.434 6.466-14.442 14.458l-.103 81.218-17.074-19.798c-5.212-6.026-14.298-6.777-20.42-1.511-6.046 5.218-6.725 14.377-1.732 20.145.319.45 30.283 42.398 40.016 54.79 5.951 7.572 9.231 11.745 10.364 20.099.263 1.938 1.919 3.38 3.872 3.38h62.061c2.041 0 3.738-1.572 3.895-3.605.652-8.446 3.033-14.728 6.92-22.728 2.937-6.042 4.433-12.527 4.444-19.268l.137-49.701c-.057-7.923-6.542-14.374-14.438-14.377-.023 0-.05 0-.076 0-2.876 0-5.627.835-7.973 2.388-2.368-5.124-7.436-8.375-13.092-8.381-.023 0-.05 0-.076 0-2.93 0-5.665.877-7.95 2.388-2.234-4.857-7.228-8.402-13.134-8.407-.004 0-.008 0-.011 0-2.407 0-4.677.587-6.676 1.629l.008-38.215c.006-7.929-6.384-14.496-14.444-14.504zm21.106 58.902h.008c3.604.008 6.661 2.916 6.653 6.668 0 .393.004 31.674.004 29.728 0 2.155 1.751 3.902 3.906 3.902h.004c2.155 0 3.902-1.751 3.902-3.91l-.018-23.9c.113-3.589 3.046-6.468 6.655-6.468h.038c3.813.008 6.657 3.087 6.649 6.668-.027 6.013.012 23.101.015 23.506.004 2.155 1.751 3.899 3.906 3.899h.008c2.155-.004 3.902-1.755 3.899-3.914l-.029-17.653c.084-3.638 3.003-6.513 6.659-6.513h.034c3.639.004 6.622 2.972 6.653 6.676l-.141 49.571c-.011 5.558-1.24 10.898-3.658 15.869-3.651 7.515-6.206 14.011-7.297 21.938h-55.278c-1.85-8.381-5.939-13.588-11.364-20.492-10.49-13.333-36.843-50.511-40.027-54.79-2.399-2.781-2.087-7 .694-9.399 2.905-2.495 7.056-2.027 9.411.698l23.918 27.74c1.068 1.236 2.792 1.678 4.318 1.11 1.53-.568 2.544-2.026 2.548-3.658l.118-91.712c.008-3.631 2.932-6.653 6.645-6.653h.038c3.811.008 6.66 3.118 6.653 6.687-.01 8.282.035-30.001-.095 80.997-.004 2.155 1.739 3.91 3.899 3.914h.008c2.151 0 3.902-1.743 3.906-3.899l.071-29.893c0-.022.013-.041.013-.064.002-3.67 3.001-6.653 6.674-6.653z"/></g></g><g id="Layer_1"/></svg>