<svg height="512" viewBox="0 0 512 512" width="512" xmlns="http://www.w3.org/2000/svg"><g id="Layer_10" data-name="Layer 10"><path d="m64 80a24 24 0 1 0 24 24 24.027 24.027 0 0 0 -24-24zm0 32a8 8 0 1 1 8-8 8.008 8.008 0 0 1 -8 8z"/><path d="m192 80a24 24 0 1 0 24 24 24.027 24.027 0 0 0 -24-24zm0 32a8 8 0 1 1 8-8 8.008 8.008 0 0 1 -8 8z"/><path d="m104 208a64 64 0 1 0 64 64 64.073 64.073 0 0 0 -64-64zm0 112a48 48 0 1 1 48-48 48.052 48.052 0 0 1 -48 48z"/><path d="m256 208a64.006 64.006 0 0 0 -52.523 100.578 8 8 0 0 0 13.125-9.156 47.935 47.935 0 1 1 18.836 15.961 8 8 0 0 0 -6.876 14.453 64.006 64.006 0 1 0 27.438-121.836z"/><path d="m408 208a64 64 0 1 0 64 64 64.073 64.073 0 0 0 -64-64zm0 112a48 48 0 1 1 48-48 48.052 48.052 0 0 1 -48 48z"/><path d="m144 368a8 8 0 0 0 0-16h-80a8 8 0 0 0 0 16z"/><path d="m40 392a8 8 0 0 0 8 8h112a8 8 0 0 0 0-16h-112a8 8 0 0 0 -8 8z"/><path d="m296 368a8 8 0 0 0 0-16h-80a8 8 0 0 0 0 16z"/><path d="m192 392a8 8 0 0 0 8 8h112a8 8 0 0 0 0-16h-112a8 8 0 0 0 -8 8z"/><path d="m368 352a8 8 0 0 0 0 16h80a8 8 0 0 0 0-16z"/><path d="m352 400h112a8 8 0 0 0 0-16h-112a8 8 0 0 0 0 16z"/><path d="m122.344 250.344-26.344 26.344-10.344-10.344a8 8 0 0 0 -11.312 11.312l16 16a8 8 0 0 0 11.312 0l32-32a8 8 0 0 0 -11.312-11.312z"/><path d="m242.344 293.656a8 8 0 0 0 11.312 0l32-32a8 8 0 0 0 -11.312-11.312l-26.344 26.344-10.344-10.344a8 8 0 0 0 -11.312 11.312z"/><path d="m426.344 250.344-26.344 26.344-10.344-10.344a8 8 0 0 0 -11.312 11.312l16 16a8 8 0 0 0 11.312 0l32-32a8 8 0 0 0 -11.312-11.312z"/><path d="m472 48h-432a32.034 32.034 0 0 0 -32 32v352a32.034 32.034 0 0 0 32 32h368a8 8 0 0 0 0-16h-368a16.019 16.019 0 0 1 -16-16v-272c57.177-.01 406.621 0 464 0v272a16.019 16.019 0 0 1 -16 16h-32a8 8 0 0 0 0 16h32a32.034 32.034 0 0 0 32-32v-352a32.034 32.034 0 0 0 -32-32zm-448 96v-64a16.019 16.019 0 0 1 16-16h432a16.019 16.019 0 0 1 16 16v16h-176a7.993 7.993 0 0 0 -5.2 1.926l-53.752 46.074zm352-32h64v32h-64zm-16 32h-82.372l37.333-32h45.039zm96 0v-32h32v32z"/><path d="m128 80a8 8 0 0 0 0 16 8 8 0 1 1 -8 8 8 8 0 0 0 -16 0 24 24 0 1 0 24-24z"/></g></svg>