<?xml version="1.0" encoding="utf-8"?>
<!-- Generator: Adobe Illustrator 16.0.0, SVG Export Plug-In . SVG Version: 6.00 Build 0)  -->
<!DOCTYPE svg PUBLIC "-//W3C//DTD SVG 1.1//EN" "http://www.w3.org/Graphics/SVG/1.1/DTD/svg11.dtd">
<svg version="1.1" id="Layer_1" xmlns="http://www.w3.org/2000/svg" xmlns:xlink="http://www.w3.org/1999/xlink" x="0px" y="0px"
	 width="300px" height="300px" viewBox="0 0 300 300" enable-background="new 0 0 300 300" xml:space="preserve">
<g>
	
		<linearGradient id="SVGID_1_" gradientUnits="userSpaceOnUse" x1="38.6875" y1="232.6563" x2="38.6875" y2="269.4688" gradientTransform="matrix(8 0 0 -8 -159.5 2158.5)">
		<stop  offset="0" style="stop-color:#3F6DB5"/>
		<stop  offset="1" style="stop-color:#5EC8DA"/>
	</linearGradient>
	<path fill="url(#SVGID_1_)" d="M150.001,188c20.951,0,37.998-17.049,37.998-38c0-20.953-17.047-38-37.998-38
		C129.047,112,112,129.047,112,150C112,170.951,129.047,188,150.001,188z M150.001,121.5c15.718,0,28.498,12.781,28.498,28.5
		c0,15.718-12.78,28.5-28.498,28.5c-15.72,0-28.501-12.781-28.501-28.5C121.5,134.282,134.281,121.5,150.001,121.5z M150.001,169
		c10.479,0,19-8.52,19-19c0-10.479-8.521-19-19-19C139.521,131,131,139.522,131,150C131,160.48,139.521,169,150.001,169z
		 M150.001,140.5c5.237,0,9.499,4.261,9.499,9.5c0,5.24-4.262,9.5-9.499,9.5c-5.24,0-9.502-4.26-9.502-9.5
		C140.499,144.761,144.761,140.5,150.001,140.5z M118.792,206.117l8.304-3.973c0.741,0.33,1.486,0.643,2.236,0.934l3.055,8.672
		h35.222l3.063-8.672c0.746-0.295,1.493-0.604,2.237-0.934l8.302,3.973l24.909-24.908l-3.971-8.305
		c0.329-0.742,0.642-1.486,0.932-2.236l8.67-3.055v-35.221l-8.675-3.064c-0.295-0.745-0.604-1.491-0.93-2.237l3.969-8.303
		l-24.909-24.908l-8.302,3.971c-0.739-0.328-1.486-0.643-2.237-0.931l-3.054-8.668h-35.222l-3.064,8.673
		c-0.745,0.293-1.49,0.603-2.237,0.931l-8.304-3.971l-24.907,24.908l3.972,8.303c-0.329,0.741-0.642,1.487-0.932,2.237l-8.669,3.055
		v35.22l8.674,3.064c0.293,0.746,0.603,1.49,0.931,2.236l-3.971,8.305L118.792,206.117z M97.75,160.887v-21.778l6.611-2.332
		l0.747-2.176c0.622-1.819,1.387-3.653,2.27-5.448l1.012-2.067l-3.03-6.337l15.399-15.398l6.337,3.029l2.065-1.011
		c1.796-0.884,3.629-1.643,5.449-2.27l2.175-0.747l2.327-6.603h21.779l2.332,6.612l2.176,0.747c1.819,0.622,3.652,1.387,5.447,2.27
		l2.067,1.011l6.335-3.03l15.4,15.399l-3.031,6.336l1.014,2.066c0.882,1.796,1.641,3.63,2.27,5.449l0.745,2.176l6.603,2.327v21.777
		l-6.611,2.334l-0.746,2.176c-0.623,1.818-1.388,3.652-2.27,5.447l-1.011,2.066l3.028,6.336l-15.397,15.398l-6.338-3.029
		l-2.067,1.014c-1.795,0.883-3.628,1.643-5.447,2.268l-2.176,0.746l-2.327,6.604h-21.778l-2.332-6.611l-2.177-0.748
		c-1.819-0.619-3.652-1.385-5.447-2.268l-2.066-1.014l-6.337,3.031l-15.399-15.398l3.03-6.338l-1.011-2.066
		c-0.884-1.795-1.644-3.627-2.27-5.447l-0.748-2.176L97.75,160.887z M17,297.25h47.5c7.857,0,14.251-6.393,14.251-14.25v-47.5
		c0-7.855-6.394-14.25-14.251-14.25H17c-7.856,0-14.25,6.395-14.25,14.25V283C2.75,290.857,9.144,297.25,17,297.25z M12.25,235.5
		c0-2.619,2.133-4.748,4.75-4.748h47.5c2.617,0,4.75,2.129,4.75,4.748V283c0,2.619-2.133,4.748-4.75,4.748H17
		c-2.617,0-4.75-2.129-4.75-4.748V235.5z M283,112h-47.499c-7.858,0-14.251,6.393-14.251,14.25v47.499
		c0,7.857,6.393,14.25,14.251,14.25H283c7.855,0,14.25-6.393,14.25-14.25v-47.499C297.25,118.393,290.855,112,283,112z
		 M287.75,173.75c0,2.617-2.134,4.75-4.75,4.75h-47.499c-2.618,0-4.75-2.133-4.75-4.75v-47.499c0-2.619,2.132-4.75,4.75-4.75H283
		c2.616,0,4.75,2.132,4.75,4.75V173.75z M45.499,78.751H93c7.856,0,14.25-6.394,14.25-14.251V17.001
		c0-7.857-6.394-14.251-14.25-14.251H45.499c-7.855,0-14.249,6.394-14.249,14.251V64.5C31.25,72.357,37.644,78.751,45.499,78.751z
		 M40.75,17.001c0-2.619,2.133-4.751,4.749-4.751H93c2.617,0,4.75,2.132,4.75,4.751V64.5c0,2.618-2.133,4.75-4.75,4.75H45.499
		c-2.616,0-4.749-2.132-4.749-4.75V17.001z M31.25,280.217l-12.858-12.859l6.717-6.717l6.142,6.143l25.142-25.141l6.717,6.717
		L31.25,280.217z M59.749,61.717L46.892,48.858l6.717-6.717l6.141,6.143l25.142-25.143l6.717,6.717L59.749,61.717z M274.892,132.392
		l6.716,6.717l-31.859,31.86l-12.857-12.859l6.717-6.717l6.141,6.141L274.892,132.392z M150.001,278.25
		c-18.769,0-36.857-3.963-53.762-11.781l3.985-8.619c15.646,7.234,32.395,10.902,49.776,10.902
		c40.464,0,77.591-20.613,99.402-54.395l-27,6.75l-2.304-9.215l43.201-10.797l5.415,43.32l-9.424,1.178l-3.043-24.359
		C232.551,256.684,193.028,278.25,150.001,278.25L150.001,278.25z M44.432,213.783L5.205,192.16l4.589-8.322l21.147,11.664
		c-6.08-15.131-9.191-30.383-9.191-45.501c0-18.924,4.028-37.154,11.976-54.184l8.611,4.02C34.979,115.596,31.25,132.473,31.25,150
		c0,13.955,2.907,28.087,8.583,42.15l5.795-24.252l9.24,2.209L44.432,213.783z M152.114,49.453L117.686,26.5l34.429-22.951
		l5.267,7.904L141.938,21.75h8.063c47.991,0,91.599,26.458,113.795,69.046l-8.423,4.395c-20.558-39.439-60.938-63.94-105.372-63.94
		h-8.063l15.447,10.298L152.114,49.453z"/>
</g>
</svg>
