<?xml version="1.0" encoding="UTF-8"?>
<svg xmlns="http://www.w3.org/2000/svg" xmlns:xlink="http://www.w3.org/1999/xlink" version="1.1" id="Capa_1" x="0px" y="0px" viewBox="0 0 512.001 512.001" style="enable-background:new 0 0 512.001 512.001;" xml:space="preserve" width="512" height="512">
<g>
	<path style="fill-rule:evenodd;clip-rule:evenodd;fill:none;stroke:#000000;stroke-width:15.0001;stroke-miterlimit:22.9256;" d="&#10;&#9;&#9;M7.5,368.501h497.002 M7.5,113.501h166 M338.5,113.501h166"/>
	<path style="fill-rule:evenodd;clip-rule:evenodd;fill:none;stroke:#000000;stroke-width:15.0001;stroke-miterlimit:22.9256;" d="&#10;&#9;&#9;M312.62,53.502h191.881v330c0,8.25-6.75,15-15,15H22.5c-8.25,0-15-6.75-15-15v-217.5 M7.5,151.001V53.502h191.881"/>
	<path style="fill-rule:evenodd;clip-rule:evenodd;fill:none;stroke:#000000;stroke-width:15.0001;stroke-miterlimit:22.9256;" d="&#10;&#9;&#9;M67.5,83.501h15 M104.999,83.501h15 M30,83.501h15"/>
	
		<line style="fill-rule:evenodd;clip-rule:evenodd;fill:none;stroke:#000000;stroke-width:15.0001;stroke-miterlimit:22.9256;" x1="399.501" y1="83.501" x2="482.001" y2="83.501"/>
	<path style="fill-rule:evenodd;clip-rule:evenodd;fill:none;stroke:#000000;stroke-width:15.0001;stroke-miterlimit:22.9256;" d="&#10;&#9;&#9;M474.501,151.001v-15 M474.501,181.001v-15"/>
	<path style="fill-rule:evenodd;clip-rule:evenodd;fill:none;stroke:#000000;stroke-width:15.0001;stroke-miterlimit:22.9256;" d="&#10;&#9;&#9;M196.001,451c20.625,0,37.5-16.875,37.5-37.5v-15 M316,451c-20.625,0-37.5-16.875-37.5-37.5v-15"/>
	<path style="fill-rule:evenodd;clip-rule:evenodd;fill:none;stroke:#000000;stroke-width:15.0001;stroke-miterlimit:22.9256;" d="&#10;&#9;&#9;M256.134,83.636v-22.5 M256.136,166.135v-22.5"/>
	<path style="fill-rule:evenodd;clip-rule:evenodd;fill:none;stroke:#000000;stroke-width:15.0001;stroke-miterlimit:22.9256;" d="&#10;&#9;&#9;M235.787,136.352c2.633,4.355,7.415,7.283,12.848,7.283h15c8.25,0,15-6.75,15-14.999c0-8.25-6.75-15-15-15h-15.001&#10;&#9;&#9;c-8.249,0-15-6.75-15-15c0-8.25,6.75-15,15-15h15c5.433,0,10.215,2.928,12.848,7.283"/>
	
		<ellipse transform="matrix(0.7071 -0.7071 0.7071 0.7071 -5.2764 214.2632)" style="fill-rule:evenodd;clip-rule:evenodd;fill:none;stroke:#000000;stroke-width:15.0001;stroke-miterlimit:22.9256;" cx="256" cy="113.501" rx="82.5" ry="82.5"/>
	<path style="fill-rule:evenodd;clip-rule:evenodd;fill:none;stroke:#000000;stroke-width:15.0001;stroke-miterlimit:22.9256;" d="&#10;&#9;&#9;M347.185,290.012l10.606-10.607l-53.032-10.607l10.606,53.033l10.606-10.606l20.909,20.909c5.831,5.831,15.379,5.834,21.213,0&#10;&#9;&#9;c5.834-5.834,5.834-15.379,0-21.213L347.185,290.012z"/>
	<path style="fill-rule:evenodd;clip-rule:evenodd;fill:none;stroke:#000000;stroke-width:15.0001;stroke-miterlimit:22.9256;" d="&#10;&#9;&#9;M309.7,293.501L196,293.5c-8.25,0-15-6.75-15-15v-30c0-8.25,6.75-15,15-15l120,0c8.25,0,15,6.75,15,15v25.546"/>
	<path style="fill-rule:evenodd;clip-rule:evenodd;fill:none;stroke:#000000;stroke-width:15.0001;stroke-miterlimit:22.9256;" d="&#10;&#9;&#9;M338.502,481h37.5v-15c0-8.25-6.761-15-15-15H151c-8.239,0-15,6.761-15,15v15h187.502"/>
</g>















</svg>
