<svg enable-background="new 0 0 72 72" height="512" viewBox="0 0 72 72" width="512" xmlns="http://www.w3.org/2000/svg"><g id="Layer_25"><g><path d="m15 36c.553 0 1-.448 1-1s-.447-1-1-1c-5.514 0-10-4.486-10-10 0-4.282 2.728-8.084 6.788-9.463.315-.107.557-.364.644-.685 1.416-5.212 6.172-8.852 11.568-8.852 6.617 0 12 5.383 12 12 0 .687-.066 1.387-.202 2.141-.062.34.058.688.314.919.258.232.617.314.946.219.644-.185 1.297-.279 1.942-.279 3.859 0 7 3.14 7 7 0 .552.447 1 1 1s1-.448 1-1c0-4.962-4.037-9-9-9-.348 0-.695.021-1.044.063.029-.359.044-.712.044-1.063 0-7.72-6.28-14-14-14-6.12 0-11.536 4.014-13.352 9.824-4.595 1.787-7.648 6.214-7.648 11.176 0 6.617 5.383 12 12 12z"/><path d="m66 12h-12c-1.654 0-3 1.346-3 3v18c0 1.654 1.346 3 3 3h12c1.654 0 3-1.346 3-3v-18c0-1.654-1.346-3-3-3zm1 21c0 .551-.448 1-1 1h-12c-.552 0-1-.449-1-1v-18c0-.551.448-1 1-1h12c.552 0 1 .449 1 1z"/><path d="m63 31h-6c-.553 0-1 .448-1 1s.447 1 1 1h6c.553 0 1-.448 1-1s-.447-1-1-1z"/><path d="m28 63h-1v-9c0-2.757-2.243-5-5-5h-10c-2.757 0-5 2.243-5 5v9h-1c-1.654 0-3 1.346-3 3s1.346 3 3 3h22c1.654 0 3-1.346 3-3s-1.346-3-3-3zm-19-9c0-1.654 1.346-3 3-3h10c1.654 0 3 1.346 3 3v9h-1v-8c0-1.654-1.346-3-3-3h-8c-1.654 0-3 1.346-3 3v8h-1zm3 9v-8c0-.551.448-1 1-1h8c.552 0 1 .449 1 1v8zm16 4h-22c-.552 0-1-.449-1-1s.448-1 1-1h22c.552 0 1 .449 1 1s-.448 1-1 1z"/><path d="m64 45h-20c-2.757 0-5 2.243-5 5v14c0 2.757 2.243 5 5 5h20c2.757 0 5-2.243 5-5v-14c0-2.757-2.243-5-5-5zm3 19c0 1.654-1.346 3-3 3h-20c-1.654 0-3-1.346-3-3v-14c0-1.654 1.346-3 3-3h20c1.654 0 3 1.346 3 3z"/><path d="m49.707 51.293c-.391-.391-1.023-.391-1.414 0l-5 5c-.391.391-.391 1.023 0 1.414l5 5c.195.195.451.293.707.293s.512-.098.707-.293c.391-.391.391-1.023 0-1.414l-4.293-4.293 4.293-4.293c.391-.391.391-1.023 0-1.414z"/><path d="m59.707 51.293c-.391-.391-1.023-.391-1.414 0s-.391 1.023 0 1.414l4.293 4.293-4.293 4.293c-.391.391-.391 1.023 0 1.414.195.195.451.293.707.293s.512-.098.707-.293l5-5c.391-.391.391-1.023 0-1.414z"/><path d="m56.371 51.071c-.509-.202-1.095.044-1.3.557l-4 10c-.205.513.045 1.095.558 1.3.121.049.247.072.371.072.396 0 .772-.238.929-.629l4-10c.205-.513-.045-1.094-.558-1.3z"/><path d="m44.184 31h-14.184v-8c0-.552-.447-1-1-1s-1 .448-1 1v9c0 .552.447 1 1 1h15.184c.414 1.161 1.514 2 2.816 2 1.654 0 3-1.346 3-3s-1.346-3-3-3c-1.302 0-2.402.839-2.816 2zm3.816 1c0 .551-.448 1-1 1s-1-.449-1-1 .448-1 1-1 1 .449 1 1z"/><path d="m21 37v-14c0-.552-.447-1-1-1s-1 .448-1 1v13.723l-2.603 4.338c-1.366.28-2.397 1.491-2.397 2.939 0 1.654 1.346 3 3 3s3-1.346 3-3c0-1.101-.602-2.054-1.488-2.576l2.345-3.909c.094-.156.143-.334.143-.515zm-4 8c-.552 0-1-.449-1-1s.448-1 1-1 1 .449 1 1-.448 1-1 1z"/><path d="m25 22c-.553 0-1 .448-1 1v18c0 .552.447 1 1 1h19.184c.414 1.161 1.514 2 2.816 2 1.654 0 3-1.346 3-3s-1.346-3-3-3c-1.302 0-2.402.839-2.816 2h-18.184v-17c0-.552-.447-1-1-1zm22 18c.552 0 1 .449 1 1s-.448 1-1 1-1-.449-1-1 .448-1 1-1z"/></g></g></svg>