<?xml version="1.0" encoding="utf-8"?>
<!-- Generator: Adobe Illustrator 16.0.0, SVG Export Plug-In . SVG Version: 6.00 Build 0)  -->
<!DOCTYPE svg PUBLIC "-//W3C//DTD SVG 1.1//EN" "http://www.w3.org/Graphics/SVG/1.1/DTD/svg11.dtd">
<svg version="1.1" id="Layer_1" xmlns="http://www.w3.org/2000/svg" xmlns:xlink="http://www.w3.org/1999/xlink" x="0px" y="0px"
	 width="300px" height="300px" viewBox="0 0 300 300" enable-background="new 0 0 300 300" xml:space="preserve">
<linearGradient id="SVGID_1_" gradientUnits="userSpaceOnUse" x1="195.0879" y1="-206.1377" x2="426.0128" y2="24.7872" gradientTransform="matrix(1 0 0 -1 -156 55)">
	<stop  offset="0" style="stop-color:#3F6DB5"/>
	<stop  offset="1" style="stop-color:#5EC8DA"/>
</linearGradient>
<path fill="url(#SVGID_1_)" d="M190.816,98.565c0-2.717-2.224-4.941-4.94-4.941h-33.965c-2.717,0-4.941,2.224-4.941,4.941
	c0,4.94-4.014,9.016-9.016,9.016s-9.016-4.014-9.016-9.016c0-2.717-2.224-4.941-4.941-4.941h-21.676V69.911
	c8.028-2.162,13.957-9.51,13.957-18.218c0-8.708-5.929-16.056-13.957-18.217v-23.22c0-2.717-2.223-4.94-4.94-4.94
	c-1.977,0-4.015,0.061-5.99,0.185C44.828,8.341,7.342,45.641,4.192,92.204c-0.124,2.1-0.185,4.262-0.185,6.299
	c-0.062,28.778,12.906,55.518,35.509,73.365c11.796,9.387,18.835,24.394,18.835,40.203v14.142
	c-6.175,2.162-10.684,8.028-10.684,14.945c0,4.261,1.729,8.152,4.446,10.993c-2.717,2.84-4.446,6.73-4.446,10.991
	c0,8.769,7.163,15.934,15.933,15.934h2.347c0.062,10.127,8.274,18.341,18.464,18.341h26.185c10.128,0,18.403-8.214,18.464-18.341
	h2.285c8.77,0,15.933-7.165,15.933-15.934c0-4.261-1.729-8.151-4.446-10.991c2.717-2.841,4.446-6.732,4.446-10.993
	c0-6.917-4.508-12.783-10.684-14.945v-14.204c0-15.686,7.35-30.691,20.132-41.19c21.738-17.848,34.212-44.155,34.212-72.253H190.816
	z M14.073,92.883c2.779-41.623,36.312-74.97,77.997-77.564h0.433v22.479c0,2.718,2.223,4.94,4.94,4.94
	c4.94,0,9.016,4.015,9.016,9.017s-4.014,9.017-9.016,9.017c-2.718,0-4.94,2.223-4.94,4.939v27.976H74.717
	c-2.162-8.028-9.51-13.957-18.218-13.957c-8.707,0-16.055,5.929-18.217,13.957H14.011C14.011,93.377,14.011,93.13,14.073,92.883z
	 M45.63,164.211c-18.897-14.944-30.26-36.869-31.619-60.706h28.532c2.717,0,4.94-2.223,4.94-4.94c0-4.941,4.014-9.017,9.016-9.017
	c5.003,0,9.017,4.015,9.017,9.017c0,2.717,2.223,4.94,4.941,4.94h22.047v26.308c-8.028,2.162-13.958,9.511-13.958,18.156
	c0,8.708,5.929,16.055,13.958,18.217v59.224h-24.27v-13.216C68.233,193.113,59.958,175.637,45.63,164.211z M110.535,287.66H84.351
	c-4.694,0-8.522-3.767-8.585-8.461h43.353C119.058,283.894,115.229,287.66,110.535,287.66z M131.285,269.318H63.601
	c-3.335,0-6.052-2.717-6.052-6.052c0-3.334,2.717-6.052,6.052-6.052h67.684c3.335,0,6.052,2.718,6.052,6.052
	C137.336,266.602,134.62,269.318,131.285,269.318z M137.336,241.282c0,3.333-2.717,6.052-6.052,6.052H63.601
	c-3.335,0-6.052-2.719-6.052-6.052c0-3.274,2.655-5.989,5.928-6.053h67.931C134.682,235.353,137.336,238.008,137.336,241.282z
	 M150.366,163.284c-15.067,12.353-23.713,30.198-23.713,48.85v13.276h-24.27v-63.484c0-2.718-2.223-4.939-4.94-4.939
	c-4.94,0-9.017-4.016-9.017-9.017c0-4.941,4.014-8.955,9.017-8.955c2.717,0,4.94-2.223,4.94-4.94v-30.569h17.353
	c2.162,8.028,9.51,13.957,18.218,13.957c8.707,0,16.057-5.929,18.218-13.957h24.642
	C179.453,126.787,168.585,148.402,150.366,163.284L150.366,163.284z M295.985,137.286c0.247-25.566-5.743-51.318-17.168-74.539
	c-4.261-23.899-17.414-44.896-37.177-59.223c-1.049-0.741-2.347-1.112-3.704-0.865c-1.298,0.186-2.471,0.926-3.212,1.977
	l-16.118,22.293c-1.605,2.224-1.111,5.312,1.111,6.855c1.977,1.42,3.212,3.52,3.582,5.867s-0.185,4.754-1.605,6.731
	c-1.421,1.915-3.459,3.211-5.867,3.582c-2.347,0.371-4.755-0.185-6.729-1.605c-1.052-0.741-2.409-1.05-3.645-0.865
	c-1.298,0.186-2.471,0.926-3.212,1.976l-19.267,26.617c-1.606,2.222-1.112,5.311,1.111,6.916l18.094,13.092
	c-2.964,7.781-0.433,16.859,6.607,21.984c3.335,2.41,7.287,3.458,11.116,3.458c-4.262,7.905-9.016,17.107-14.019,27.173
	c-7.596,9.326-12.844,20.441-15.191,32.05c-2.842,14.08-1.05,26.494,1.791,36.005c-2.162,0.122-4.2,0.679-6.114,1.852
	c-2.841,1.792-4.755,4.57-5.496,7.78l-3.458,15.378c-1.545,6.731,2.717,13.401,9.448,14.945l69.043,15.624
	c0.926,0.186,1.852,0.31,2.778,0.31c5.681,0,10.868-3.953,12.166-9.758l3.458-15.377c1.543-6.731-2.717-13.402-9.449-14.945
	l-0.308-0.062C277.769,213.862,295.553,180.761,295.985,137.286L295.985,137.286z M214.47,110.175
	c-4.015-2.903-4.94-8.584-2.039-12.598c1.606-2.223,1.112-5.311-1.111-6.917l-17.477-12.66l13.895-19.144
	c3.027,1.173,6.36,1.481,9.696,0.988c5.002-0.803,9.325-3.52,12.288-7.534c2.966-4.076,4.139-9.079,3.397-14.02
	c-0.556-3.334-1.915-6.36-3.952-8.892l10.684-14.76c15.5,12.66,25.875,30.26,29.333,50.022c0,1.42-0.061,2.841-0.123,4.323
	c-0.063,1.605-0.185,3.211-0.31,4.878c-0.122,1.359-0.247,2.779-0.369,4.199l-0.186,1.854c-0.187,1.42-0.371,2.84-0.556,4.261
	c0,0.062,0,0.185-0.062,0.247l-0.371,2.47c-0.062,0.186-0.062,0.494-0.124,0.679c-0.062,0.124-0.062,0.309-0.123,0.432
	c-0.123,0.618-0.186,1.297-0.309,1.977l-0.124,0.865c-0.062,0.185-0.062,0.432-0.123,0.803l-0.494,2.223
	c-0.063,0.186-0.123,0.433-0.123,0.618c-0.063,0.247-0.124,0.556-0.187,0.865c-1.852-2.532-4.261-4.632-7.224-6.175
	c-0.434-0.186-1.607-0.68-3.397-1.112c-2.718-0.556-5.434-0.556-8.152,0.062c-4.075,0.988-7.78,3.521-11.054,7.596
	c-0.494,0.679-1.111,1.42-1.729,2.285c-0.185,0.247-0.37,0.556-0.555,0.803c-0.433,0.679-0.927,1.297-1.42,2.099
	c-0.247,0.371-0.494,0.803-0.741,1.174c-0.494,0.741-0.928,1.482-1.421,2.284c-0.247,0.433-0.556,0.927-0.865,1.359
	c-0.309,0.556-0.679,1.049-0.987,1.667c-0.309,0.247-0.618,0.556-0.864,0.927C224.164,112.151,218.482,113.078,214.47,110.175
	L214.47,110.175z M264.613,245.419l-3.457,15.378c-0.31,1.42-1.729,2.283-3.15,1.976l-69.042-15.624
	c-1.421-0.309-2.284-1.729-1.976-3.149l3.458-15.378c0.124-0.679,0.557-1.233,1.173-1.667c0.432-0.247,0.928-0.433,1.422-0.433
	c0.184,0,0.369,0,0.555,0.063l5.187,1.173c0.062,0,0.062,0,0.125,0.063l56.073,12.66h0.063l7.656,1.729
	C264.059,242.64,264.922,244.062,264.613,245.419L264.613,245.419z M254.055,230.228L203.6,218.802
	c-3.334-8.646-6.235-21.305-3.272-36.002c2.038-10.251,6.731-20.009,13.463-28.161c0.247-0.309,0.433-0.617,0.616-0.988
	c7.905-15.994,15.379-30.197,21.121-39.955c4.262-7.288,6.732-10.684,7.782-11.981c1.852-2.285,3.766-3.706,5.619-4.138
	c1.235-0.309,2.531-0.247,3.766,0c0.741,0.185,1.299,0.371,1.299,0.371c4.692,2.347,6.793,8.028,4.879,12.845
	c-0.125,0.185-0.187,0.494-0.311,0.741c-2.223,5.372-4.446,10.622-6.545,15.748c-6.793,14.575-6.793,14.575-6.793,15.871
	c0,0.31,0.061,0.681,0.123,0.99c0.063,0.184,0.124,0.431,0.185,0.617c0.063,0.123,0.063,0.186,0.125,0.309
	c0.062,0.247,0.185,0.432,0.308,0.618c0.062,0.061,0.062,0.123,0.124,0.247c0.37,0.555,0.804,0.988,1.358,1.359
	c0.062,0.06,0.123,0.06,0.185,0.123c0.187,0.123,0.433,0.246,0.681,0.37c0.062,0.063,0.185,0.063,0.308,0.063
	c0.185,0.061,0.434,0.123,0.618,0.184c0.31,0.063,0.617,0.124,0.988,0.124c3.21,0,3.582,0,11.055-15.501
	c0-0.062,0.245-0.555,0.308-0.617c2.285-4.632,4.323-9.141,6.114-13.401c0.494-1.051,0.865-2.039,1.174-2.841l0.185-0.433
	c0.185-0.433,0.37-0.864,0.432-1.172c0.31-0.68,0.557-1.298,0.741-1.853c0.618-1.482,1.112-2.841,1.545-4.076
	c0-0.062,0.061-0.124,0.061-0.124c0.494-1.359,0.988-2.656,1.298-3.829c0.679-2.038,1.173-3.767,1.605-5.188
	c0.247-0.864,0.433-1.667,0.617-2.346c0-0.124,0.124-0.432,0.124-0.556c0.062-0.247,0.124-0.556,0.185-0.679l0.371-1.667
	c0.123-0.432,0.186-0.926,0.308-1.543l0.125-0.556c0.122-0.679,0.247-1.358,0.371-1.976c0.061-0.309,0.123-0.617,0.185-0.926
	c0.061-0.371,0.123-0.741,0.123-0.865l0.124-0.618c0.123-0.617,0.185-1.173,0.247-1.667c0-0.061,0-0.124,0-0.185l0.061-0.494
	c4.941,14.142,8.894,31.927,8.708,52.245C285.674,180.761,266.652,213.368,254.055,230.228L254.055,230.228z"/>
</svg>
