<svg xmlns="http://www.w3.org/2000/svg" version="1.1" xmlns:xlink="http://www.w3.org/1999/xlink" width="512" height="512" x="0" y="0" viewBox="0 0 64 64" style="enable-background:new 0 0 512 512" xml:space="preserve" class=""><g><path d="M32 9a1 1 0 0 1-1-1V4a1 1 0 0 1 2 0v4a1 1 0 0 1-1 1ZM22 11.68a1 1 0 0 1-.867-.5l-2-3.464a1 1 0 1 1 1.732-1l2 3.464a1 1 0 0 1-.865 1.5ZM14.679 19a.992.992 0 0 1-.5-.134l-3.465-2a1 1 0 0 1 1-1.732l3.465 2a1 1 0 0 1-.5 1.866ZM12 29H8a1 1 0 0 1 0-2h4a1 1 0 0 1 0 2ZM11.216 41a1 1 0 0 1-.5-1.866l3.465-2a1 1 0 1 1 1 1.732l-3.465 2a.992.992 0 0 1-.5.134ZM52.784 41a.992.992 0 0 1-.5-.134l-3.465-2a1 1 0 1 1 1-1.732l3.465 2a1 1 0 0 1-.5 1.866ZM56 29h-4a1 1 0 0 1 0-2h4a1 1 0 0 1 0 2Z" fill="#224653" opacity="1" data-original="#000000" class=""></path><path d="M48 27h-5a4 4 0 0 0-8 0h-2v-3.184a1 1 0 0 0-1.333-.942 2 2 0 1 1 0-3.748A1 1 0 0 0 33 18.184V12a1 1 0 0 0-1-1 17 17 0 0 0-7 32.485V45h-1a3 3 0 0 0-3 3v2a3 3 0 0 0 3 3h1v3a5.006 5.006 0 0 0 5 5h4a5.006 5.006 0 0 0 5-5v-3h1a3 3 0 0 0 3-3v-2a3 3 0 0 0-3-3h-1v-1.515A16.925 16.925 0 0 0 49 28a1 1 0 0 0-1-1ZM31 13.033V17a4 4 0 0 0 0 8v2h-3.184a1 1 0 0 0-.942 1.334 2 2 0 1 1-3.748 0A1 1 0 0 0 22.184 27h-5.151A15.023 15.023 0 0 1 31 13.033ZM26.375 41.9A14.933 14.933 0 0 1 17.037 29H21a4 4 0 0 0 8 0h2v3.184a1 1 0 0 0 1.333.942 2 2 0 1 1 0 3.748 1 1 0 0 0-1.333.942V45h-4v-2.174a1 1 0 0 0-.625-.926ZM37 56a3 3 0 0 1-3 3h-4a3 3 0 0 1-3-3v-3h2v3a1 1 0 0 0 2 0v-3h2v3a1 1 0 0 0 2 0v-3h2Zm3-9a1 1 0 0 1 1 1v2a1 1 0 0 1-1 1H24a1 1 0 0 1-1-1v-2a1 1 0 0 1 1-1Zm-2.375-5.1a1 1 0 0 0-.625.927V45h-4v-6a4 4 0 0 0 0-8v-2h3.184a1 1 0 0 0 .942-1.334 2 2 0 1 1 3.748 0A1 1 0 0 0 41.816 29h5.151a14.937 14.937 0 0 1-9.342 12.9Z" fill="#224653" opacity="1" data-original="#000000" class=""></path><path d="M40 3a1 1 0 0 0-1 1v5a4 4 0 0 0 0 8v3a1 1 0 0 0 1 1h4.184a1 1 0 0 0 .942-1.334 2 2 0 1 1 3.748 0A1 1 0 0 0 49.816 21H56a1 1 0 0 0 1-1A17.019 17.019 0 0 0 40 3Zm11 16a4 4 0 0 0-8 0h-2v-3.184a1 1 0 0 0-1.333-.942 2 2 0 1 1 0-3.748A1 1 0 0 0 41 10.184V5.033A15.023 15.023 0 0 1 54.967 19Z" fill="#224653" opacity="1" data-original="#000000" class=""></path></g></svg>