<?xml version="1.0" encoding="utf-8"?>
<!-- Generator: Adobe Illustrator 16.0.0, SVG Export Plug-In . SVG Version: 6.00 Build 0)  -->
<!DOCTYPE svg PUBLIC "-//W3C//DTD SVG 1.1//EN" "http://www.w3.org/Graphics/SVG/1.1/DTD/svg11.dtd">
<svg version="1.1" id="Layer_1" xmlns="http://www.w3.org/2000/svg" xmlns:xlink="http://www.w3.org/1999/xlink" x="0px" y="0px"
	 width="300px" height="300px" viewBox="0 0 300 300" enable-background="new 0 0 300 300" xml:space="preserve">
<linearGradient id="SVGID_1_" gradientUnits="userSpaceOnUse" x1="305.999" y1="52.8198" x2="305.999" y2="-242.8208" gradientTransform="matrix(1 0 0 -1 -156 55)">
	<stop  offset="0" style="stop-color:#3F6DB5"/>
	<stop  offset="1" style="stop-color:#5EC8DA"/>
</linearGradient>
<path fill="url(#SVGID_1_)" d="M293.364,117.015c1.39-5.206-1.633-10.509-6.868-12.065l-2.503-0.756l1.842-6.856
	c0.287-1.069,0.137-2.208-0.415-3.167c-0.555-0.958-1.466-1.659-2.534-1.945l-5.068-1.356l2.132-7.932
	c0.781-2.924,0.372-5.982-1.151-8.61c-1.52-2.622-3.966-4.493-6.864-5.262c-1.681-0.454-3.406-0.501-5.072-0.181V36.748
	c0-6.949-5.659-12.604-12.615-12.604h-46.831v-2.197c0-2.305-1.868-4.172-4.173-4.172h-26.926
	c-1.922-8.902-9.864-15.595-19.343-15.595c-9.488,0-17.438,6.693-19.36,15.595h-26.91c-2.304,0-4.172,1.868-4.172,4.172v2.198
	H59.699c-6.965,0-12.631,5.653-12.631,12.603v95.326c-22.444,3.958-39.551,23.56-39.551,47.087v31.088
	c0,1.445,0.749,2.791,1.978,3.551c5.56,3.436,9.352,7.941,11.403,13.559v0.549H21.1c2.729,8.02,1.978,18.268-2.217,30.885h-3.507
	c-2.305,0-4.172,1.869-4.172,4.172v8.01h-0.733c-2.305,0-4.172,1.869-4.172,4.174v18.5c0,2.305,1.868,4.172,4.172,4.172h243.775
	c6.956,0,12.615-5.66,12.615-12.621V160.496c1.315-0.412,2.4-1.461,2.784-2.893l12.182-45.348l2.272,0.687
	c0.892,0.265,1.42,1.108,1.203,1.914l-9.059,33.731c-1.975,7.155-0.839,10.286,0.983,13.925c0.731,1.463,2.205,2.307,3.735,2.307
	c0.627,0,1.265-0.145,1.863-0.441c2.061-1.033,2.896-3.541,1.863-5.6c-1.151-2.301-1.676-3.35-0.395-8L293.364,117.015z
	 M267.491,77.419c0.696-0.4,1.499-0.507,2.282-0.296c0.762,0.202,1.402,0.695,1.804,1.386c0.404,0.698,0.514,1.505,0.312,2.267
	l-2.132,7.933l-3.608-0.966l-2.187-0.586l2.13-7.913c0.002-0.004,0.003-0.009,0.004-0.013
	C266.3,78.466,266.794,77.823,267.491,77.419L267.491,77.419z M254.246,32.49c2.354,0,4.27,1.911,4.27,4.259v38.933
	c-0.187,0.454-0.355,0.918-0.484,1.4l-2.131,7.919l-5.074-1.359c-0.849-0.226-1.703-0.174-2.473,0.099v-36.94
	c0-2.305-1.867-4.173-4.172-4.173h-36.768V32.49H254.246z M114.876,26.12h26.464c2.305,0,4.172-1.868,4.172-4.172
	c0-6.299,5.143-11.423,11.461-11.423c6.309,0,11.441,5.124,11.441,11.423c0,2.304,1.868,4.172,4.172,4.172h26.482v22.862h-84.193
	V26.12z M203.241,57.327c2.305,0,4.173-1.868,4.173-4.172v-2.181h32.595v56.865l-10.481,39.019
	c-0.286,1.068-0.137,2.208,0.417,3.167c0.552,0.958,1.465,1.659,2.534,1.944l0.705,0.189l-18.983,70.66
	c-0.17,0.637-0.188,1.305-0.052,1.945l5.329,25.211c0.324,1.535,1.482,2.76,2.999,3.166c0.358,0.096,0.722,0.143,1.082,0.143
	c1.166,0,2.298-0.49,3.103-1.381l13.347-14.836v33.908h-129.49h-0.733v-8.01c0-2.305-1.869-4.172-4.172-4.172h-2.426
	c-1.428-22.621-14.395-33.367-24.936-42.09c-7.57-6.268-13.771-11.4-15.346-19.516h12.038c1.926,9.084,10.007,15.918,19.656,15.918
	c11.079,0,20.092-9.012,20.092-20.09c0-0.994-0.357-1.961-1.007-2.719l-26.761-31.141l6.667-6.66
	c1.626-1.624,1.632-4.255,0.017-5.887c-5.32-5.374-12.156-9.53-19.686-12.143V50.973h32.612v2.181c0,2.304,1.868,4.172,4.172,4.172
	L203.241,57.327L203.241,57.327z M237.505,226.131c-5.311,0.35-10.095-0.934-14.509-3.887l18.246-67.914l14.506,3.877
	L237.505,226.131z M231.351,234.215l-5.406,6.008l-1.67-7.906C226.555,233.236,228.915,233.869,231.351,234.215L231.351,234.215z
	 M55.412,36.748c0-2.348,1.922-4.258,4.286-4.258h46.833v10.139H69.748c-2.304,0-4.172,1.868-4.172,4.173v85.475
	c-3.335-0.614-6.741-0.945-10.156-0.945c-0.002,0-0.004,0-0.007,0V36.748z M15.86,207.998v-28.836
	c0-21.771,17.746-39.485,39.559-39.485c10.762,0,21.37,3.688,29.17,10.014l-3.533,3.528c-6.869-5.386-16.153-8.522-25.638-8.522
	c-19.036,0-34.522,15.46-34.522,34.466v33C19.386,210.674,17.708,209.285,15.86,207.998L15.86,207.998z M29.242,225.781v-46.619
	c0-14.402,11.742-26.121,26.177-26.121c8.667,0,17.378,3.354,22.771,8.756l28.068,32.664c-0.714,5.797-5.671,10.301-11.659,10.301
	c-6.477,0-11.746-5.268-11.746-11.746c0-2.303-1.868-4.17-4.172-4.17H57.296c-6.478,0-11.747-5.262-11.747-11.727
	c0-2.305-1.868-4.172-4.172-4.172c-2.305,0-4.172,1.867-4.172,4.172c0,10.092,7.495,18.467,17.216,19.865
	c1.555,12.109,10.16,19.234,18.509,26.146c10.114,8.369,20.548,17.008,21.9,35.662H27.641
	C31.574,245.824,32.099,234.799,29.242,225.781L29.242,225.781z M19.549,267.139h81.891v3.836H19.549V267.139z M106.346,289.475
	H14.642v-10.156h91.704V289.475z M254.246,289.475H114.69v-10.156h129.491c2.305,0,4.172-1.867,4.172-4.172v-57.242l10.163-37.832
	v105.127C258.517,287.557,256.601,289.475,254.246,289.475L254.246,289.475z M262.667,151.414l-23.997-6.425l14.024-52.208
	l11.508,3.081l7.42,1.991c0.02,0.005,0.039,0.007,0.06,0.012l5.01,1.341L262.667,151.414z M102.997,119.74
	c0,8.533,6.956,15.476,15.507,15.476c8.542,0,15.49-6.942,15.49-15.476c0-8.534-6.949-15.475-15.49-15.475
	C109.953,104.265,102.997,111.207,102.997,119.74z M118.502,112.609c3.94,0,7.146,3.198,7.146,7.131
	c0,3.932-3.206,7.131-7.146,7.131c-3.949,0-7.162-3.199-7.162-7.131C111.34,115.808,114.554,112.609,118.502,112.609z
	 M198.563,162.984l5.046-5.039c1.63-1.627,4.272-1.625,5.9,0.004c1.628,1.631,1.627,4.273-0.004,5.9l-5.038,5.031l5.038,5.031
	c1.629,1.627,1.632,4.27,0.004,5.9c-0.815,0.814-1.884,1.223-2.953,1.223c-1.067,0-2.133-0.406-2.947-1.219l-5.046-5.041
	l-5.045,5.041c-0.813,0.813-1.88,1.219-2.948,1.219c-1.066,0-2.137-0.408-2.951-1.223c-1.628-1.631-1.627-4.273,0.004-5.9
	l5.038-5.031l-5.038-5.031c-1.63-1.627-1.632-4.27-0.004-5.9c1.628-1.629,4.271-1.631,5.899-0.004L198.563,162.984z
	 M125.106,200.756c-6.52,1.826-11.317,7.813-11.317,14.9c0,8.543,6.949,15.492,15.49,15.492c8.542,0,15.49-6.949,15.49-15.492
	c0-7.088-4.797-13.074-11.317-14.9V182.98c0-12.951,10.552-23.484,23.522-23.484c17.562,0,31.849-14.28,31.849-31.832v-21.642
	l2.24,2.539c1.524,1.727,4.162,1.892,5.89,0.368c1.729-1.525,1.894-4.162,0.367-5.89l-9.542-10.813
	c-0.791-0.898-1.931-1.411-3.128-1.411h-0.001c-1.198,0-2.339,0.515-3.13,1.414l-9.523,10.814c-1.524,1.729-1.355,4.365,0.372,5.889
	c0.794,0.698,1.775,1.042,2.757,1.042c1.156,0,2.307-0.479,3.132-1.415l2.221-2.521v21.627c0,12.95-10.543,23.486-23.503,23.486
	c-17.572,0-31.867,14.279-31.867,31.83L125.106,200.756z M136.424,215.656c0,3.941-3.205,7.148-7.144,7.148
	c-3.941,0-7.146-3.207-7.146-7.148c0-3.932,3.205-7.129,7.146-7.129C133.219,208.527,136.424,211.725,136.424,215.656z
	 M182.286,196.105l-5.038,5.031l5.038,5.029c1.63,1.629,1.632,4.271,0.004,5.9c-0.815,0.814-1.884,1.225-2.952,1.225
	c-1.067,0-2.133-0.408-2.949-1.221l-5.044-5.037l-5.046,5.037c-0.813,0.813-1.881,1.221-2.947,1.221
	c-1.068,0-2.137-0.41-2.952-1.225c-1.628-1.629-1.627-4.271,0.004-5.9l5.037-5.029l-5.037-5.031c-1.63-1.629-1.632-4.271-0.004-5.9
	c1.629-1.633,4.271-1.633,5.899-0.004l5.046,5.037l5.044-5.037c1.63-1.629,4.273-1.629,5.901,0.004
	C183.918,191.834,183.916,194.475,182.286,196.105L182.286,196.105z"/>
</svg>
