<svg id="_x33_0" enable-background="new 0 0 64 64" height="512" viewBox="0 0 64 64" width="512" xmlns="http://www.w3.org/2000/svg"><g><path d="m26 11h-2v1c0 .552-.448 1-1 1s-1-.448-1-1v-1h-2v1c0 1.654 1.346 3 3 3s3-1.346 3-3z"/><path d="m54.351 51.45-.548-.109c-.465-.093-.803-.505-.803-.981v-3.892l1.965-1.637c2.541-2.118 4.003-5.221 4.03-8.524 2.417-1.147 4.005-3.587 4.005-6.307 0-3.859-3.141-7-7-7-2.03 0-3.949.891-5.272 2.405-.94-.256-1.924-.405-2.944-.405h-8.784c-1.474 0-2.75.81-3.444 2h-5.556v-4.531l1.965-1.637c2.564-2.138 4.035-5.278 4.035-8.616 0-6.185-5.031-11.216-11.216-11.216h-8.784c-2.206 0-4 1.794-4 4s1.794 4 4 4v2.172c0 1.534-.622 3.036-1.707 4.121l-.707.707 2.414 2.414v2.586c0 2.206 1.794 4 4 4h2v2h-6c-3.859 0-7-3.141-7-7v-3.586l.879-.879c.723-.722 1.121-1.684 1.121-2.707 0-2.11-1.718-3.828-3.828-3.828h-3.172c-1.654 0-3 1.346-3 3v10c0 7.935 6.193 14.45 14 14.967v26.033h48v-1c0-5.11-3.637-9.547-8.649-10.55zm-32.351-7.45v-4c0-.552.448-1 1-1h3.172c1.008 0 1.828.82 1.828 1.828 0 .481-.195.953-.535 1.293l-1.465 1.465v.414c0 4.963 4.037 9 9 9v4c-7.168 0-13-5.832-13-13zm.697-15 1.733 1.155-1.993 1.993-1.05-3.148zm3.303 2.414.783.783-.401.803h-.764l-.401-.803zm-.166 3.586h.332l.37 2.037c-.122-.012-.239-.037-.364-.037h-.702zm9.166 24h4v2h-12v-4.333c2.319 1.469 5.057 2.333 8 2.333zm4-4v2h-2v-4h6.17c.559 2.944 1.797 5.665 3.628 8h-5.798v-6zm7.606 2h4.788c-.638 1.268-1.441 2.451-2.394 3.529-.953-1.078-1.756-2.26-2.394-3.529zm5.98-18-1.586 1.586v9.774c0 1.195.718 2.25 1.772 2.727-.142.651-.318 1.29-.535 1.913h-6.474c-.252-.725-.45-1.472-.601-2.235 1.079-.455 1.838-1.523 1.838-2.765v-1h2v-2h-6c-1.103 0-2-.897-2-2h2c2.206 0 4-1.794 4-4h-2c0 1.103-.897 2-2 2h-2v-1.414l-1.632-1.632c1.046-1.361 1.632-3.057 1.632-4.782v-2.172h9c.552 0 1 .448 1 1v3h1c.552 0 1 .448 1 1 0 .378-.147.732-.414 1zm3.414-14c2.757 0 5 2.243 5 5 0 1.683-.854 3.214-2.202 4.13-.66-3.488-2.938-6.402-6.023-7.943.893-.755 2.032-1.187 3.225-1.187zm-17 2h8.784c5.082 0 9.216 4.134 9.216 9.216 0 2.742-1.209 5.323-3.315 7.079l-.685.57v-2.451l1-1c.645-.645 1-1.502 1-2.414 0-1.304-.836-2.416-2-2.829v-1.171c0-1.654-1.346-3-3-3h-11c-1.103 0-2-.897-2-2s.897-2 2-2zm0 6v2.172c0 1.534-.622 3.036-1.707 4.121l-.707.707 2.414 2.414v2.586c0 2.206 1.794 4 4 4h2v1c0 .552-.448 1-1 1h-9c-3.725 0-6.779-2.924-6.988-6.598l.867-.867c.723-.722 1.121-1.684 1.121-2.707 0-1.117-.489-2.114-1.254-2.814l-.702-3.864.231-.462 2.163 2.163 2.282-6.851h2.28c0 2.206 1.794 4 4 4zm-8.387-4-1.05 3.148-1.993-1.993 1.733-1.155zm-16.613-24c0-1.103.897-2 2-2h8.784c5.082 0 9.216 4.134 9.216 9.216 0 2.742-1.209 5.323-3.315 7.079l-.685.57v-2.451l1-1c.645-.645 1-1.502 1-2.414 0-1.304-.836-2.416-2-2.829v-1.171c0-1.654-1.346-3-3-3h-11c-1.103 0-2-.897-2-2zm12 20v-2h-6c-1.103 0-2-.897-2-2h2c2.206 0 4-1.794 4-4h-2c0 1.103-.897 2-2 2h-2v-1.414l-1.632-1.632c1.046-1.361 1.632-3.057 1.632-4.782v-2.172h9c.552 0 1 .448 1 1v3h1c.552 0 1 .448 1 1 0 .378-.147.732-.414 1l-1.586 1.586v10.879l-2 1.333-2-1.333v-2.465zm-22-14h3.172c1.008 0 1.828.82 1.828 1.828 0 .481-.195.953-.535 1.293l-.879.879h-4.586v-3c0-.552.448-1 1-1zm-1 11v-5h4v3c0 4.963 4.037 9 9 9h3.28l2.283 6.852 2.163-2.163.231.462-.519 2.849h-.438c-1.654 0-3 1.346-3 3v4c0 2.528.634 4.908 1.743 7h-4.743v-16h-1c-7.168 0-13-5.832-13-13zm14 31h6.028c.587.779 1.247 1.498 1.972 2.149v5.851h-8zm34.202 8c1.697-2.165 2.887-4.664 3.499-7.377 3.367.992 5.841 3.903 6.242 7.377z"/><path d="m47 36c0 .552-.448 1-1 1s-1-.448-1-1v-1h-2v1c0 1.654 1.346 3 3 3s3-1.346 3-3v-1h-2z"/><path d="m46 20.838c0 1.192.97 2.162 2.162 2.162.932 0 1.757-.595 2.051-1.479l5.175-15.521h-3.911l2-5h-8.197l-3.667 11h4.387zm-1.612-10.838 2.333-7h3.803l-2 5h4.089l-4.296 12.889c-.051.151-.317.109-.317-.051v-10.838z"/></g></svg>