<?xml version="1.0" encoding="UTF-8" standalone="no"?>
<!-- Created with Inkscape (http://www.inkscape.org/) -->

<svg version="1.1" id="svg1413" xml:space="preserve" width="70" height="70" viewBox="0 0 682.66669 682.66669" xmlns="http://www.w3.org/2000/svg" xmlns:svg="http://www.w3.org/2000/svg">
    <defs id="defs1417">
        <clipPath clipPathUnits="userSpaceOnUse" id="clipPath1427">
            <path d="M 0,512 H 512 V 0 H 0 Z" id="path1425" />
        </clipPath>
    </defs>
    <g id="g1419" transform="matrix(1.3333333,0,0,-1.3333333,0,682.66667)">
        <g id="g1421">
            <g id="g1423" clip-path="url(#clipPath1427)">
                <g id="g1429" transform="translate(272.1626,443.8903)">
                    <path d="M 0,0 H -264.663" style="fill:none;stroke:#000000;stroke-width:15;stroke-linecap:round;stroke-linejoin:round;stroke-miterlimit:10;stroke-dasharray:none;stroke-opacity:1" id="path1431" />
                </g>
                <g id="g1433" transform="translate(7.5,358.5)">
                    <path d="m 0,0 v -331 c 0,-11.05 8.95,-20 20,-20 h 179.15" style="fill:none;stroke:#000000;stroke-width:15;stroke-linecap:round;stroke-linejoin:round;stroke-miterlimit:10;stroke-dasharray:none;stroke-opacity:1" id="path1435" />
                </g>
                <g id="g1437" transform="translate(272.16,237.82)">
                    <path d="m 0,0 v 206.07 40.61 c 0,11.05 -8.95,20 -20,20 h -224.66 c -11.05,0 -20,-8.95 -20,-20 v -40.61 -50.39" style="fill:none;stroke:#000000;stroke-width:15;stroke-linecap:round;stroke-linejoin:round;stroke-miterlimit:10;stroke-dasharray:none;stroke-opacity:1" id="path1439" />
                </g>
                <g id="g1441" transform="translate(148.5,409.5447)">
                    <path d="M 0,0 H -108.675 V -171.728 H 91.337 V 0 H 35.031" style="fill:none;stroke:#000000;stroke-width:15;stroke-linecap:round;stroke-linejoin:round;stroke-miterlimit:10;stroke-dasharray:none;stroke-opacity:1" id="path1443" />
                </g>
                <g id="g1445" transform="translate(39.8252,205.4919)">
                    <path d="M 0,0 H 74.752" style="fill:none;stroke:#000000;stroke-width:15;stroke-linecap:round;stroke-linejoin:round;stroke-miterlimit:10;stroke-dasharray:none;stroke-opacity:1" id="path1447" />
                </g>
                <g id="g1449" transform="translate(39.8252,165.0854)">
                    <path d="M 0,0 H 74.752" style="fill:none;stroke:#000000;stroke-width:15;stroke-linecap:round;stroke-linejoin:round;stroke-miterlimit:10;stroke-dasharray:none;stroke-opacity:1" id="path1451" />
                </g>
                <g id="g1453" transform="translate(39.8252,124.6789)">
                    <path d="M 0,0 H 74.752" style="fill:none;stroke:#000000;stroke-width:15;stroke-linecap:round;stroke-linejoin:round;stroke-miterlimit:10;stroke-dasharray:none;stroke-opacity:1" id="path1455" />
                </g>
                <g id="g1457" transform="translate(39.8252,474.1951)">
                    <path d="M 0,0 H 20.203" style="fill:none;stroke:#000000;stroke-width:15;stroke-linecap:round;stroke-linejoin:round;stroke-miterlimit:10;stroke-dasharray:none;stroke-opacity:1" id="path1459" />
                </g>
                <g id="g1461" transform="translate(39.8252,409.5447)">
                    <path d="M 0,0 200.012,-171.728" style="fill:none;stroke:#000000;stroke-width:15;stroke-linecap:round;stroke-linejoin:round;stroke-miterlimit:10;stroke-dasharray:none;stroke-opacity:1" id="path1463" />
                </g>
                <g id="g1465" transform="translate(239.8374,409.5447)">
                    <path d="M 0,0 -200.012,-171.728" style="fill:none;stroke:#000000;stroke-width:15;stroke-linecap:round;stroke-linejoin:round;stroke-miterlimit:10;stroke-dasharray:none;stroke-opacity:1" id="path1467" />
                </g>
                <g id="g1469" transform="translate(303.5625,7.5)">
                    <path d="m 0,0 h 38.756 c 15.752,0 31.261,3.877 45.16,11.29 l 50.805,27.096 V 163.141 L 83.068,213.36 c -11.151,10.841 -17.442,25.731 -17.442,41.284 v 42.25 c 0,15.687 -12.299,28.947 -27.98,29.377 -16.27,0.446 -29.599,-12.609 -29.599,-28.778 v -67.176 h -124.156 c -15.687,0 -28.948,-12.299 -29.378,-27.98 -0.446,-16.27 12.61,-29.599 28.779,-29.599 h -18.594 c -15.687,0 -28.948,-12.3 -29.378,-27.981 -0.446,-16.269 12.61,-29.598 28.779,-29.598 h 19.193 c -16.169,0 -29.225,-13.33 -28.779,-29.599 0.43,-15.681 13.691,-27.981 29.378,-27.981 h 18.594 c -16.169,0 -29.225,-13.329 -28.779,-29.598 C -125.864,12.299 -112.603,0 -96.916,0 h 61.853" style="fill:none;stroke:#000000;stroke-width:15;stroke-linecap:round;stroke-linejoin:round;stroke-miterlimit:10;stroke-dasharray:none;stroke-opacity:1" id="path1471" />
                </g>
                <g id="g1473" transform="translate(186.8544,180.2378)">
                    <path d="M 0,0 H 23.032" style="fill:none;stroke:#000000;stroke-width:15;stroke-linecap:round;stroke-linejoin:round;stroke-miterlimit:10;stroke-dasharray:none;stroke-opacity:1" id="path1475" />
                </g>
                <g id="g1477" transform="translate(186.8544,122.6585)">
                    <path d="M 0,0 H 23.032" style="fill:none;stroke:#000000;stroke-width:15;stroke-linecap:round;stroke-linejoin:round;stroke-miterlimit:10;stroke-dasharray:none;stroke-opacity:1" id="path1479" />
                </g>
                <path d="M 438.284,7.5 H 504.5 v 197.689 h -66.216 z" style="fill:none;stroke:#000000;stroke-width:15;stroke-linecap:round;stroke-linejoin:round;stroke-miterlimit:10;stroke-dasharray:none;stroke-opacity:1" id="path1481" />
            </g>
        </g>
    </g>
</svg>
