<?xml version="1.0" encoding="utf-8"?>
<!-- Generator: Adobe Illustrator 16.0.0, SVG Export Plug-In . SVG Version: 6.00 Build 0)  -->
<!DOCTYPE svg PUBLIC "-//W3C//DTD SVG 1.1//EN" "http://www.w3.org/Graphics/SVG/1.1/DTD/svg11.dtd">
<svg version="1.1" id="Layer_1" xmlns="http://www.w3.org/2000/svg" xmlns:xlink="http://www.w3.org/1999/xlink" x="0px" y="0px"
	 width="100px" height="100px" viewBox="0 0 100 100" enable-background="new 0 0 100 100" xml:space="preserve">
<g>
	<g>
		<path fill="#7600EA" d="M52.854,63.041c0,1.493-1.211,2.704-2.705,2.704h-21.64c-1.493,0-2.704-1.211-2.704-2.704
			s1.211-2.704,2.704-2.704h21.64C51.643,60.337,52.854,61.548,52.854,63.041z"/>
		<path fill="#7600EA" d="M52.854,52.258c0,1.493-1.211,2.704-2.705,2.704h-21.64c-1.493,0-2.704-1.211-2.704-2.704
			s1.211-2.704,2.704-2.704h21.64C51.643,49.554,52.854,50.765,52.854,52.258z"/>
		<path fill="#7600EA" d="M52.854,75.169c0,1.493-1.211,2.704-2.705,2.704h-9.546c-1.493,0-2.704-1.211-2.704-2.704
			c0-1.494,1.211-2.705,2.704-2.705h9.546C51.643,72.464,52.854,73.675,52.854,75.169z"/>
		<path fill="#7600EA" d="M53.811,41.826c-1.494,0-2.704-1.211-2.704-2.705c0-1.493,1.21-2.705,2.704-2.705h11.596
			c1.494,0,2.705,1.211,2.705,2.705c0,1.494-1.211,2.705-2.705,2.705H53.811z"/>
		<path fill="#7600EA" d="M68.111,26.992c0,1.494-1.211,2.705-2.705,2.705H53.811c-1.494,0-2.704-1.211-2.704-2.705
			c0-1.493,1.21-2.704,2.704-2.704h11.596C66.9,24.289,68.111,25.499,68.111,26.992z"/>
		<g>
			<path fill="#7600EA" d="M96.906,59.499c0.018-0.415-0.084-0.824-0.293-1.181c-0.063-0.128-0.135-0.251-0.182-0.316L90.596,47.91
				c-0.596-1.029-1.705-1.668-2.893-1.668h-20.09c-1.189,0-2.299,0.641-2.895,1.674L58.795,58.2
				c-0.098,0.163-0.172,0.341-0.197,0.447c-0.125,0.342-0.189,0.699-0.189,1.062v26.58c0,2.136,1.738,3.874,3.873,3.874h30.754
				c2.137,0,3.875-1.738,3.875-3.874V59.612C96.91,59.574,96.908,59.537,96.906,59.499z M64.799,56.64l3.441-5.972h7.246v5.972
				H64.799z M79.916,56.64v-5.972h7.162l3.455,5.972H79.916z M92.482,61.065v24.673h-29.65V61.065H92.482z"/>
			<path fill="#7600EA" d="M74.443,78.141c0.416,0.421,0.973,0.653,1.566,0.653s1.15-0.231,1.566-0.648l6.363-6.361
				c0.854-0.862,0.854-2.264-0.006-3.131c-0.836-0.829-2.287-0.833-3.127,0.002l-4.797,4.797l-1.414-1.417
				c-0.836-0.835-2.299-0.831-3.127-0.002c-0.42,0.419-0.652,0.977-0.652,1.569c0.002,0.592,0.234,1.146,0.65,1.56L74.443,78.141z"
				/>
		</g>
		<g>
			<path fill="#7600EA" d="M41.675,16.946c-0.841,0-1.185-0.604-1.291-0.865c-0.109-0.261-0.295-0.931,0.301-1.525
				c0.739-0.741,1.149-1.726,1.149-2.773s-0.41-2.034-1.149-2.774l-2.624-2.623c-0.741-0.741-1.726-1.15-2.774-1.15
				c-1.048,0-2.032,0.409-2.773,1.149c-0.596,0.596-1.265,0.409-1.525,0.302c-0.261-0.108-0.865-0.45-0.865-1.292
				c0-2.164-1.761-3.923-3.924-3.923h-3.709c-2.163,0-3.924,1.76-3.924,3.923c0,0.842-0.605,1.184-0.865,1.292
				c-0.261,0.107-0.932,0.293-1.525-0.302c-1.531-1.529-4.019-1.529-5.55,0L8.003,9.006c-0.741,0.741-1.149,1.728-1.149,2.775
				c0,1.047,0.408,2.032,1.149,2.772c0.596,0.596,0.408,1.266,0.302,1.525c-0.109,0.262-0.45,0.866-1.293,0.866
				c-2.163,0-3.922,1.761-3.922,3.924v3.709c0,2.163,1.759,3.923,3.922,3.923c0.843,0,1.184,0.606,1.293,0.866
				c0.106,0.261,0.294,0.931-0.302,1.525c-1.529,1.529-1.529,4.019,0,5.548l2.624,2.624c1.529,1.529,4.019,1.529,5.548,0
				c0.598-0.597,1.267-0.412,1.525-0.304c0.262,0.107,0.865,0.449,0.865,1.295c0,2.163,1.761,3.922,3.924,3.922h3.709
				c2.163,0,3.924-1.759,3.924-3.922c0-0.843,0.604-1.185,0.865-1.292c0.261-0.108,0.93-0.295,1.525,0.3
				c0.741,0.741,1.726,1.149,2.773,1.149c1.049,0,2.033-0.408,2.774-1.148l2.624-2.624c1.529-1.529,1.529-4.019,0-5.548
				c-0.596-0.595-0.41-1.265-0.301-1.525c0.106-0.26,0.45-0.866,1.291-0.866c2.163,0,3.922-1.76,3.922-3.923V20.87
				C45.599,18.707,43.838,16.946,41.675,16.946z M40.189,23.256c-2.136,0.475-3.938,1.956-4.804,4.043
				c-0.863,2.084-0.636,4.409,0.54,6.254l-0.754,0.752c-1.846-1.175-4.169-1.4-6.253-0.538c-2.085,0.863-3.568,2.667-4.043,4.804
				h-1.063c-0.475-2.139-1.957-3.942-4.041-4.807c-2.085-0.862-4.409-0.636-6.256,0.54l-0.751-0.752
				c1.173-1.845,1.399-4.169,0.535-6.253c-0.861-2.087-2.666-3.568-4.801-4.043v-1.063c2.135-0.474,3.939-1.957,4.801-4.042
				c0.864-2.085,0.638-4.409-0.535-6.255l0.751-0.752c1.845,1.174,4.169,1.401,6.254,0.537c2.086-0.864,3.568-2.667,4.043-4.803
				h1.063c0.475,2.135,1.958,3.938,4.043,4.803c2.084,0.864,4.407,0.637,6.253-0.537l0.754,0.752
				c-1.176,1.846-1.403,4.169-0.54,6.255c0.865,2.085,2.668,3.568,4.804,4.042V23.256z"/>
			<path fill="#7600EA" d="M24.345,13.427c-5.127,0-9.298,4.171-9.298,9.297c0,5.127,4.171,9.298,9.298,9.298
				c5.126,0,9.297-4.171,9.297-9.298C33.642,17.598,29.471,13.427,24.345,13.427z M24.345,26.613c-2.146,0-3.891-1.743-3.891-3.889
				c0-2.144,1.745-3.889,3.891-3.889c2.145,0,3.887,1.745,3.887,3.889C28.231,24.87,26.489,26.613,24.345,26.613z"/>
		</g>
		<path fill="#7600EA" d="M77.512,93.121H35.526V79.515c0-1.494-1.21-2.706-2.702-2.706H19.107V50.286h-5.408v29.228
			c0,0.719,0.287,1.41,0.799,1.918l16.418,16.313c0.508,0.503,1.193,0.786,1.908,0.786h44.688c1.492,0,2.703-1.211,2.703-2.705
			S79.004,93.121,77.512,93.121z M30.119,89.327l-7.155-7.109h7.155V89.327z"/>
		<path fill="#7600EA" d="M77.512,11.992H51.106v5.41h23.698v23.403c0,1.495,1.213,2.705,2.707,2.705
			c1.492,0,2.703-1.21,2.703-2.705V14.696C80.215,13.203,79.004,11.992,77.512,11.992z"/>
	</g>
	<ellipse opacity="0.6" fill="#29ABE2" enable-background="new    " cx="80.215" cy="11.992" rx="12.125" ry="8.198"/>
</g>
</svg>
