<?xml version="1.0" encoding="utf-8"?>
<!-- Generator: Adobe Illustrator 16.0.0, SVG Export Plug-In . SVG Version: 6.00 Build 0)  -->
<!DOCTYPE svg PUBLIC "-//W3C//DTD SVG 1.1//EN" "http://www.w3.org/Graphics/SVG/1.1/DTD/svg11.dtd">
<svg version="1.1" id="Layer_1" xmlns="http://www.w3.org/2000/svg" xmlns:xlink="http://www.w3.org/1999/xlink" x="0px" y="0px"
	 width="100px" height="100px" viewBox="0 0 100 100" enable-background="new 0 0 100 100" xml:space="preserve">
<g>
	<path fill="#7600EA" d="M70.904,55.733h-0.95V49.43c0-7.042-5.729-12.771-12.772-12.771c-3.881,0-7.039,3.158-7.039,7.039v8.498
		l-3.459,4.119l-2.13,1.036v-0.788c0-6.968-4.825-12.816-11.305-14.419c4.479-3.234,7.41-8.485,7.41-14.419
		c0-9.811-7.982-17.792-17.793-17.792c-9.811,0-17.792,7.981-17.792,17.792c0,5.935,2.931,11.185,7.41,14.419
		C6.004,43.748,1.18,49.595,1.18,56.563V73.95l3,3h21.395v15.254l3,3h12.202l5.71,3.397l1.534,0.422h22.884
		c6.987,0,12.672-5.685,12.672-12.672V68.405C83.576,61.418,77.892,55.733,70.904,55.733z M22.865,15.932
		c6.502,0,11.793,5.29,11.793,11.792c0,6.502-5.291,11.792-11.793,11.792c-6.502,0-11.792-5.29-11.792-11.792
		C11.073,21.222,16.363,15.932,22.865,15.932z M7.18,70.95V56.563c0-4.891,3.979-8.869,8.869-8.869h13.635
		c4.891,0,8.869,3.979,8.869,8.869v2.559h-9.979l-3,3v8.829H7.18z M31.574,65.121h7.027v24.083h-7.027V65.121z M77.576,86.352
		c0,3.679-2.993,6.672-6.672,6.672H48.846l-4.244-2.525v-26.5l5.279-2.566l0.985-0.769l4.573-5.445l0.703-1.93v-9.591
		c0-0.573,0.466-1.039,1.039-1.039c3.734,0,6.772,3.038,6.772,6.771v9.304l3,3h3.95c3.679,0,6.672,2.993,6.672,6.672V86.352z"/>
	<path fill="#7600EA" d="M57.329,27.008h5.426c2.101-4.45,5.709-8.058,10.16-10.159v-5.425c-4.451-2.104-8.06-5.712-10.16-10.161
		h-5.426c-2.101,4.45-5.709,8.059-10.159,10.16l0,5.426C51.62,18.95,55.229,22.558,57.329,27.008z M60.042,8.364
		c1.624,2.2,3.572,4.147,5.772,5.771c-2.2,1.624-4.148,3.572-5.772,5.771c-1.624-2.2-3.571-4.147-5.771-5.771
		C56.471,12.512,58.418,10.564,60.042,8.364z"/>
	<path fill="#7600EA" d="M88.374,21.811h-5.426c-2.101,4.449-5.708,8.058-10.159,10.161v5.425c4.45,2.101,8.059,5.709,10.159,10.159
		h5.426c2.101-4.449,5.709-8.057,10.16-10.159v-5.426C94.083,29.869,90.475,26.26,88.374,21.811z M85.661,40.455
		c-1.624-2.2-3.571-4.147-5.771-5.771c2.2-1.625,4.147-3.572,5.771-5.771c1.624,2.2,3.571,4.147,5.771,5.772
		C89.232,36.307,87.285,38.255,85.661,40.455z"/>
</g>
<circle opacity="0.6" fill="#00A99D" enable-background="new    " cx="83.576" cy="78.841" r="9.733"/>
</svg>
