<?xml version="1.0" encoding="utf-8"?>
<!-- Generator: Adobe Illustrator 16.0.0, SVG Export Plug-In . SVG Version: 6.00 Build 0)  -->
<!DOCTYPE svg PUBLIC "-//W3C//DTD SVG 1.1//EN" "http://www.w3.org/Graphics/SVG/1.1/DTD/svg11.dtd">
<svg version="1.1" id="Layer_1" xmlns="http://www.w3.org/2000/svg" xmlns:xlink="http://www.w3.org/1999/xlink" x="0px" y="0px"
	 width="100px" height="100px" viewBox="0 0 100 100" enable-background="new 0 0 100 100" xml:space="preserve">
<g>
	<path fill="#7600EA" d="M69.509,75.157c0-1.237-1.007-2.244-2.244-2.244s-2.244,1.008-2.244,2.244c0,2.095,1.44,3.854,3.382,4.353
		v0.607c0,1.237,1.007,2.244,2.244,2.244s2.244-1.008,2.244-2.244V79.51c1.941-0.498,3.383-2.258,3.383-4.353v-2.256
		c0-2.48-2.019-4.499-4.499-4.499l-2.266-0.009l0.01-2.266l2.266,0.01c0,1.238,1.007,2.245,2.245,2.245
		c1.236,0,2.244-1.008,2.244-2.245c0-2.095-1.441-3.854-3.383-4.353v-0.607c0-1.237-1.007-2.245-2.244-2.245
		s-2.244,1.008-2.244,2.245v0.607c-1.941,0.499-3.382,2.258-3.382,4.353v2.256c0,2.48,2.018,4.499,4.498,4.499l2.266,0.009
		l-0.01,2.266L69.509,75.157z"/>
	<path fill="#7600EA" d="M94.68,62.751l-2.914-0.364c-0.108-0.277-0.224-0.554-0.344-0.826l1.809-2.313
		c1.088-1.394,0.965-3.382-0.287-4.631l-6.269-6.258c-1.249-1.247-3.229-1.369-4.623-0.285l-2.313,1.802
		c-0.274-0.121-0.553-0.236-0.829-0.345l-0.362-2.912c-0.219-1.752-1.708-3.068-3.474-3.068h-8.851
		c-1.767,0-3.256,1.316-3.474,3.068l-0.36,2.913c-0.279,0.109-0.555,0.223-0.828,0.343l-2.316-1.803
		c-1.393-1.083-3.373-0.961-4.622,0.285l-5.526,5.517H38.162c-1.461-4.282-5.515-7.374-10.286-7.374s-8.824,3.092-10.286,7.374
		H5.753c-1.933,0-3.5,1.566-3.5,3.5s1.567,3.5,3.5,3.5H17.59c1.461,4.281,5.515,7.375,10.286,7.375s8.824-3.094,10.286-7.375h11.176
		l0.535,0.686c-0.12,0.273-0.234,0.549-0.344,0.827l-2.914,0.364c-1.751,0.218-3.066,1.707-3.066,3.473v8.851
		c0,1.766,1.315,3.255,3.066,3.473l2.914,0.364c0.109,0.277,0.224,0.554,0.343,0.826l-1.807,2.313
		c-1.089,1.396-0.966,3.382,0.286,4.632l6.269,6.258c1.249,1.246,3.231,1.369,4.622,0.285l2.316-1.804
		c0.273,0.121,0.551,0.235,0.827,0.345l0.362,2.912c0.219,1.752,1.708,3.067,3.475,3.067h8.848c1.767,0,3.256-1.315,3.475-3.067
		l0.362-2.912c0.278-0.109,0.554-0.225,0.827-0.345l2.315,1.804c1.394,1.084,3.374,0.961,4.623-0.285l6.269-6.258
		c1.252-1.25,1.375-3.236,0.287-4.632l-1.809-2.313c0.12-0.272,0.234-0.549,0.344-0.826l2.914-0.364
		c1.752-0.218,3.066-1.707,3.066-3.473v-8.851C97.746,64.458,96.432,62.969,94.68,62.751z M27.876,61.249
		c-2.136,0-3.875-1.738-3.875-3.875c0-2.136,1.738-3.874,3.875-3.874c2.137,0,3.875,1.738,3.875,3.874
		C31.751,59.511,30.013,61.249,27.876,61.249z M90.746,71.982l-2.037,0.254c-1.407,0.176-2.568,1.184-2.943,2.552
		c-0.347,1.274-0.851,2.487-1.496,3.606c-0.713,1.234-0.605,2.779,0.271,3.903l1.264,1.618l-1.89,1.887l-1.618-1.26
		c-1.119-0.871-2.65-0.98-3.881-0.279c-1.148,0.652-2.371,1.159-3.633,1.504c-1.367,0.375-2.374,1.537-2.551,2.943l-0.252,2.034
		h-2.666l-0.252-2.034c-0.177-1.409-1.188-2.574-2.559-2.945c-1.24-0.336-2.461-0.843-3.626-1.504
		c-1.229-0.699-2.762-0.589-3.878,0.281l-1.62,1.26l-1.89-1.887l1.264-1.618c0.877-1.124,0.985-2.668,0.273-3.903
		c-0.648-1.123-1.153-2.336-1.5-3.606c-0.373-1.368-1.535-2.376-2.942-2.552l-2.036-0.254v-2.668l2.036-0.256
		c1.407-0.175,2.569-1.184,2.942-2.552c0.348-1.271,0.852-2.485,1.498-3.606c0.714-1.234,0.605-2.779-0.271-3.903L55.49,57.38
		l1.89-1.887l1.62,1.26c1.118,0.871,2.65,0.981,3.881,0.279c1.146-0.652,2.368-1.158,3.631-1.505
		c1.368-0.373,2.375-1.536,2.551-2.943l0.252-2.033h2.666l0.252,2.033c0.177,1.411,1.188,2.576,2.561,2.947
		c1.239,0.335,2.459,0.841,3.624,1.503c1.229,0.696,2.761,0.589,3.88-0.281l1.618-1.26l1.89,1.887l-1.263,1.617
		c-0.878,1.123-0.985,2.667-0.274,3.901c0.647,1.125,1.151,2.338,1.498,3.608c0.375,1.368,1.536,2.377,2.943,2.552l2.037,0.256
		V71.982z"/>
	<path fill="#7600EA" d="M5.753,16.628H17.59c1.461,4.282,5.515,7.375,10.286,7.375s8.824-3.092,10.286-7.375h32.486
		c1.933,0,3.5-1.567,3.5-3.5s-1.567-3.5-3.5-3.5H38.162c-1.461-4.282-5.515-7.374-10.286-7.374S19.052,5.346,17.59,9.628H5.753
		c-1.933,0-3.5,1.567-3.5,3.5S3.82,16.628,5.753,16.628z M27.876,9.254c2.136,0,3.875,1.738,3.875,3.874
		c0,2.136-1.738,3.875-3.875,3.875c-2.137,0-3.875-1.738-3.875-3.875C24.001,10.991,25.74,9.254,27.876,9.254z"/>
	<path fill="#7600EA" d="M5.753,38.751h32.486c1.461,4.282,5.515,7.375,10.286,7.375s8.825-3.092,10.286-7.375h11.838
		c1.934,0,3.5-1.567,3.5-3.5s-1.566-3.5-3.5-3.5H58.811c-1.461-4.282-5.515-7.375-10.286-7.375s-8.824,3.092-10.286,7.375H5.753
		c-1.933,0-3.5,1.567-3.5,3.5S3.82,38.751,5.753,38.751z M48.525,31.377c2.136,0,3.875,1.738,3.875,3.875
		c0,2.137-1.738,3.875-3.875,3.875c-2.137,0-3.875-1.738-3.875-3.875C44.65,33.115,46.389,31.377,48.525,31.377z"/>
</g>
<g opacity="0.6">
	<path fill="#FCEE21" d="M78.184,40.616c0-1.551,1.016-2.186,2.355-1.408l16.211,9.383c1.342,0.775,1.32,2.044-0.021,2.818
		l-16.18,9.385c-1.342,0.772-2.365,0.14-2.365-1.41V40.616z"/>
</g>
</svg>
