<?xml version="1.0" encoding="utf-8"?>
<!-- Generator: Adobe Illustrator 16.0.0, SVG Export Plug-In . SVG Version: 6.00 Build 0)  -->
<!DOCTYPE svg PUBLIC "-//W3C//DTD SVG 1.1//EN" "http://www.w3.org/Graphics/SVG/1.1/DTD/svg11.dtd">
<svg version="1.1" id="Layer_1" xmlns="http://www.w3.org/2000/svg" xmlns:xlink="http://www.w3.org/1999/xlink" x="0px" y="0px"
	 width="100px" height="100px" viewBox="0 0 100 100" enable-background="new 0 0 100 100" xml:space="preserve">
<g>
	<g>
		<g>
			<path fill="#7600EA" d="M28.824,73.654h-2.971c-1.657,0-3,1.343-3,3s1.343,3,3,3h2.971c1.657,0,3-1.343,3-3
				S30.481,73.654,28.824,73.654z"/>
			<path fill="#7600EA" d="M53.58,73.654H37.519c-1.657,0-3,1.343-3,3s1.343,3,3,3H53.58c1.657,0,3-1.343,3-3
				S55.237,73.654,53.58,73.654z"/>
			<path fill="#7600EA" d="M28.824,47.989h-2.971c-1.657,0-3,1.343-3,3s1.343,3,3,3h2.971c1.657,0,3-1.343,3-3
				S30.481,47.989,28.824,47.989z"/>
			<path fill="#7600EA" d="M14.83,74.399c-0.55,0.56-0.87,1.34-0.87,2.12c0,0.79,0.32,1.57,0.88,2.13
				c0.561,0.55,1.33,0.88,2.12,0.88s1.561-0.33,2.12-0.88c0.56-0.56,0.88-1.34,0.88-2.13c0-0.78-0.32-1.561-0.88-2.12
				C17.97,73.289,15.95,73.289,14.83,74.399z"/>
			<path fill="#7600EA" d="M14.83,48.869c-0.55,0.561-0.87,1.33-0.87,2.12s0.32,1.561,0.87,2.12c0.56,0.561,1.34,0.88,2.13,0.88
				s1.561-0.319,2.12-0.88c0.56-0.56,0.88-1.33,0.88-2.12s-0.32-1.56-0.88-2.12C17.96,47.75,15.96,47.75,14.83,48.869z"/>
			<path fill="#7600EA" d="M88.183,27.026c-1.255-7.823-6.422-14.418-13.857-17.505c-1.526-0.634-3.286,0.09-3.921,1.62
				c-0.636,1.53,0.09,3.286,1.62,3.921c5.878,2.44,9.964,8.111,10.411,14.447c0.093,1.316,1.034,2.417,2.32,2.713
				c3.569,0.819,6.062,3.953,6.062,7.619c0,4.313-3.509,7.82-7.821,7.82h-1.033c-0.735,0-1.445,0.271-1.995,0.76l-4.749,4.229
				v-1.988c0-1.657-1.343-3-3-3H63.53H45.592c-0.001,0-0.002,0-0.003,0c-0.339,0-0.673-0.021-1.004-0.051
				c-0.109-0.01-0.219-0.022-0.327-0.036c-0.229-0.027-0.456-0.063-0.681-0.104c-0.114-0.021-0.229-0.039-0.342-0.063
				c-0.29-0.063-0.576-0.136-0.857-0.221c-0.14-0.042-0.276-0.092-0.414-0.14c-0.164-0.056-0.327-0.114-0.487-0.179
				c-0.145-0.057-0.288-0.115-0.43-0.179c-0.175-0.078-0.347-0.162-0.517-0.249c-0.149-0.076-0.297-0.152-0.442-0.234
				c-0.22-0.124-0.436-0.254-0.645-0.393c-0.096-0.063-0.188-0.129-0.282-0.194c-0.19-0.134-0.377-0.273-0.559-0.419
				c-0.067-0.053-0.136-0.105-0.201-0.16c-0.516-0.433-0.992-0.908-1.423-1.425c-0.023-0.029-0.047-0.058-0.07-0.087
				c-0.209-0.257-0.409-0.521-0.597-0.797c-0.005-0.008-0.011-0.015-0.016-0.022c-1.206-1.788-1.912-3.94-1.912-6.254
				c0-6.18,5.027-11.207,11.207-11.207c0.482,0,0.97,0.031,1.446,0.093c1.296,0.164,2.558-0.528,3.107-1.718
				c1.789-3.874,4.943-6.912,8.881-8.552c1.53-0.638,2.253-2.394,1.616-3.924c-0.638-1.53-2.396-2.251-3.923-1.615
				c-4.684,1.951-8.547,5.36-11.059,9.716c-0.023,0-0.046,0-0.069,0c-9.487,0-17.207,7.719-17.207,17.207
				c0,0.998,0.104,1.972,0.268,2.924H10.248c-3.896,0-7.065,3.171-7.065,7.067v8.827c0,3.656,2.791,6.672,6.355,7.029v2.777
				c-3.564,0.357-6.355,3.374-6.355,7.03v8.827c0,3.896,3.17,7.066,7.066,7.066h49.215c3.896,0,7.066-3.17,7.066-7.066v-8.827
				c0-3.759-2.951-6.832-6.657-7.046v-2.746c3.705-0.214,6.657-3.287,6.657-7.045v-1.612h2.688v5.677
				c0,1.182,0.694,2.254,1.772,2.737c0.394,0.177,0.812,0.263,1.227,0.263c0.723,0,1.436-0.261,1.996-0.76l8.892-7.917
				c7.571-0.059,13.712-6.235,13.712-13.82C96.817,34.103,93.359,29.102,88.183,27.026z M53.873,62.34v2.705H15.538V62.34H53.873z
				 M60.53,72.111v8.827c0,0.588-0.479,1.066-1.066,1.066H10.249c-0.588,0-1.066-0.479-1.066-1.066v-8.827
				c0-0.588,0.479-1.066,1.066-1.066h2.289h44.335h2.591C60.052,71.045,60.53,71.523,60.53,72.111z M60.53,55.274
				c0,0.588-0.478,1.065-1.065,1.065h-2.582c-0.003,0-0.007-0.001-0.01-0.001H12.538c-0.004,0-0.007,0.001-0.01,0.001h-2.28
				c-0.588,0-1.065-0.478-1.065-1.065v-8.827c0-0.589,0.478-1.067,1.065-1.067h20.629c0.141,0.231,0.292,0.454,0.442,0.677
				c0.004,0.007,0.008,0.013,0.012,0.019c0.308,0.454,0.635,0.892,0.981,1.312c0.007,0.008,0.014,0.016,0.021,0.023
				c0.328,0.396,0.673,0.774,1.033,1.138c0.034,0.034,0.067,0.069,0.103,0.104c0.357,0.354,0.729,0.693,1.116,1.015
				c0.074,0.063,0.151,0.12,0.228,0.181c0.308,0.247,0.623,0.483,0.946,0.708c0.114,0.08,0.226,0.162,0.342,0.239
				c0.367,0.242,0.743,0.472,1.128,0.686c0.164,0.092,0.333,0.176,0.5,0.263c0.265,0.136,0.531,0.265,0.803,0.387
				c0.178,0.08,0.354,0.164,0.534,0.239c0.391,0.16,0.787,0.304,1.188,0.436c0.187,0.061,0.376,0.115,0.564,0.17
				c0.326,0.095,0.655,0.179,0.988,0.255c0.141,0.031,0.28,0.069,0.423,0.098c0.464,0.094,0.936,0.161,1.409,0.216
				c0.138,0.016,0.276,0.029,0.415,0.041c0.508,0.046,1.02,0.078,1.535,0.078c0.001,0,0.002,0,0.002,0h0.001H60.53V55.274z"/>
			<path fill="#7600EA" d="M65.53,13.779c0.789,0,1.569-0.319,2.119-0.88c0.561-0.56,0.881-1.33,0.881-2.12s-0.32-1.569-0.881-2.13
				c-1.109-1.109-3.13-1.109-4.239,0c-0.561,0.561-0.88,1.34-0.88,2.13s0.319,1.561,0.88,2.12
				C63.97,13.46,64.75,13.779,65.53,13.779z"/>
		</g>
		<path opacity="0.6" fill="#00FFFF" enable-background="new    " d="M67.881,91.214c-1.294,1.291-3.408,1.291-4.702,0l-9.051-9.051
			c-1.292-1.293-1.292-3.408,0-4.703l9.051-9.051c1.294-1.291,3.408-1.291,4.702,0l9.051,9.051c1.292,1.295,1.292,3.41,0,4.703
			L67.881,91.214z"/>
	</g>
	<g>
		<path fill="#7600EA" d="M49.47,36.847v3.382h-1.978V30.63h3.745c0.721,0,1.354,0.132,1.901,0.396
			c0.548,0.264,0.969,0.638,1.263,1.124c0.295,0.486,0.442,1.039,0.442,1.658c0,0.94-0.322,1.682-0.967,2.225
			c-0.644,0.543-1.534,0.814-2.673,0.814H49.47z M49.47,35.245h1.767c0.522,0,0.922-0.123,1.196-0.369s0.412-0.598,0.412-1.055
			c0-0.471-0.139-0.851-0.415-1.141c-0.277-0.29-0.659-0.439-1.147-0.448H49.47V35.245z"/>
		<path fill="#7600EA" d="M60.137,40.229c-0.088-0.171-0.151-0.384-0.19-0.64c-0.462,0.514-1.062,0.771-1.8,0.771
			c-0.699,0-1.278-0.202-1.737-0.606c-0.46-0.404-0.689-0.914-0.689-1.529c0-0.756,0.28-1.336,0.841-1.741s1.37-0.608,2.43-0.613
			h0.877v-0.409c0-0.33-0.085-0.594-0.254-0.792c-0.17-0.198-0.437-0.296-0.801-0.296c-0.321,0-0.573,0.077-0.756,0.23
			c-0.182,0.154-0.273,0.365-0.273,0.633h-1.905c0-0.413,0.128-0.795,0.383-1.147s0.615-0.627,1.081-0.827
			c0.466-0.2,0.989-0.3,1.569-0.3c0.879,0,1.576,0.221,2.093,0.663c0.517,0.442,0.774,1.063,0.774,1.863v3.092
			c0.005,0.677,0.1,1.188,0.284,1.536v0.112H60.137z M58.562,38.904c0.281,0,0.54-0.063,0.778-0.188
			c0.237-0.125,0.413-0.293,0.527-0.504v-1.227h-0.713c-0.953,0-1.461,0.33-1.522,0.989l-0.007,0.112
			c0,0.237,0.084,0.433,0.251,0.587S58.271,38.904,58.562,38.904z"/>
		<path fill="#7600EA" d="M67.376,40.229c-0.088-0.171-0.151-0.384-0.191-0.64c-0.462,0.514-1.062,0.771-1.8,0.771
			c-0.699,0-1.277-0.202-1.737-0.606c-0.459-0.404-0.688-0.914-0.688-1.529c0-0.756,0.28-1.336,0.84-1.741
			c0.561-0.404,1.371-0.608,2.43-0.613h0.877v-0.409c0-0.33-0.085-0.594-0.254-0.792s-0.437-0.296-0.801-0.296
			c-0.321,0-0.572,0.077-0.755,0.23s-0.273,0.365-0.273,0.633h-1.905c0-0.413,0.127-0.795,0.382-1.147s0.615-0.627,1.081-0.827
			c0.467-0.2,0.989-0.3,1.569-0.3c0.879,0,1.577,0.221,2.093,0.663c0.517,0.442,0.775,1.063,0.775,1.863v3.092
			c0.004,0.677,0.099,1.188,0.283,1.536v0.112H67.376z M65.8,38.904c0.281,0,0.541-0.063,0.778-0.188
			c0.237-0.125,0.413-0.293,0.527-0.504v-1.227h-0.712c-0.954,0-1.462,0.33-1.522,0.989l-0.007,0.112
			c0,0.237,0.083,0.433,0.25,0.587S65.51,38.904,65.8,38.904z"/>
		<path fill="#7600EA" d="M75.584,37.711c0-0.374-0.133-0.661-0.396-0.86c-0.264-0.2-0.738-0.411-1.424-0.633
			c-0.686-0.222-1.229-0.44-1.628-0.656c-1.09-0.589-1.635-1.382-1.635-2.38c0-0.519,0.146-0.981,0.438-1.388
			c0.292-0.407,0.712-0.724,1.259-0.953s1.161-0.343,1.843-0.343c0.686,0,1.296,0.124,1.832,0.373
			c0.537,0.248,0.953,0.599,1.25,1.051s0.445,0.967,0.445,1.542H75.59c0-0.439-0.139-0.781-0.415-1.025
			c-0.277-0.244-0.666-0.366-1.167-0.366c-0.483,0-0.859,0.102-1.127,0.307c-0.269,0.204-0.402,0.473-0.402,0.808
			c0,0.312,0.157,0.573,0.471,0.784c0.314,0.211,0.777,0.409,1.389,0.593c1.125,0.338,1.944,0.758,2.459,1.259
			c0.514,0.501,0.771,1.125,0.771,1.872c0,0.831-0.314,1.482-0.943,1.955c-0.629,0.472-1.475,0.708-2.538,0.708
			c-0.738,0-1.411-0.135-2.018-0.405c-0.606-0.271-1.069-0.641-1.388-1.111s-0.478-1.016-0.478-1.635h1.984
			c0,1.06,0.633,1.589,1.898,1.589c0.471,0,0.837-0.095,1.101-0.287S75.584,38.054,75.584,37.711z"/>
	</g>
</g>
</svg>
