<?xml version="1.0" encoding="utf-8"?>
<!-- Generator: Adobe Illustrator 16.0.0, SVG Export Plug-In . SVG Version: 6.00 Build 0)  -->
<!DOCTYPE svg PUBLIC "-//W3C//DTD SVG 1.1//EN" "http://www.w3.org/Graphics/SVG/1.1/DTD/svg11.dtd">
<svg version="1.1" id="Layer_1" xmlns="http://www.w3.org/2000/svg" xmlns:xlink="http://www.w3.org/1999/xlink" x="0px" y="0px"
	 width="100px" height="100px" viewBox="0 0 100 100" enable-background="new 0 0 100 100" xml:space="preserve">
<g>
	<g>
		<path fill="#7600EA" d="M91.12,41.004c1.336,0.734,1.686,1.899,1.657,3.359c-0.064,3.307-0.011,6.616-0.022,9.924
			c-0.008,2.182-0.787,2.967-2.955,2.975c-3.416,0.014-6.834,0.005-10.249-0.002c-0.363-0.001-0.731-0.02-1.086-0.079
			c-1.116-0.188-1.9-1.087-1.92-2.174c-0.02-1.117,0.79-2.149,1.962-2.231c1.627-0.112,3.268-0.073,4.902-0.091
			c0.79-0.01,1.583-0.002,2.69-0.002c-0.455-0.479-0.684-0.774-0.966-1.014c-6.845-5.839-14.625-7.679-23.158-4.75
			c-8.519,2.924-13.622,9.08-15.406,17.923c-0.25,1.237-0.321,2.519-0.402,3.785c-0.088,1.34-0.575,2.171-1.571,2.464
			c-1.148,0.338-2.029-0.067-2.797-1.286c-0.053-0.084-0.152-0.137-0.229-0.207c0-0.945,0-1.892,0-2.836
			c0.074-0.237,0.187-0.471,0.213-0.713c1.262-11.366,8.905-20.616,19.808-23.833c1.937-0.571,3.968-0.816,5.955-1.212
			c1.312,0,2.62,0,3.929,0c0.279,0.071,0.553,0.181,0.835,0.209c5.563,0.56,10.492,2.649,14.836,6.152
			c0.269,0.216,0.556,0.404,1.03,0.745c0-1.395,0.056-2.58-0.014-3.757c-0.087-1.457,0.31-2.622,1.648-3.349
			C90.246,41.004,90.685,41.004,91.12,41.004z"/>
		<path fill="#7600EA" d="M50.845,89.739c0,1.493,0.011,2.743,0,3.996c-0.02,2.015-0.813,3.089-2.277,3.098
			c-1.467,0.014-2.29-1.063-2.298-3.069c-0.014-3.382-0.015-6.765-0.001-10.144c0.01-2.21,0.764-2.983,2.937-2.991
			c3.563-0.017,7.127,0,10.69,0.006c1.013,0.002,1.998,0.284,2.291,1.306c0.198,0.681,0.187,1.696-0.198,2.207
			c-0.424,0.561-1.37,0.943-2.118,1.005c-1.809,0.142-3.633,0.053-5.452,0.056c-0.391,0-0.781,0-1.488,0
			c0.455,0.479,0.689,0.775,0.969,1.013c6.848,5.846,14.636,7.671,23.17,4.744c8.482-2.91,13.562-9.053,15.369-17.843
			c0.271-1.309,0.332-2.665,0.422-4.004c0.098-1.483,0.921-2.411,2.243-2.42c1.359-0.011,2.327,0.979,2.3,2.486
			c-0.109,6.224-1.984,11.862-5.811,16.791c-9.683,12.479-27.396,14.496-39.697,4.557C51.626,90.314,51.342,90.113,50.845,89.739z"
			/>
	</g>
	<path fill="#7600EA" d="M58.775,37.491V18.764c0-1.725-1.396-3.121-3.12-3.121H18.203c-1.725,0-3.121,1.396-3.121,3.121v18.727
		c0,1.725,1.396,3.121,3.121,3.121h37.453C57.38,40.611,58.775,39.215,58.775,37.491z M52.534,34.37h-31.21V21.886h31.21V34.37z"/>
	<path fill="#7600EA" d="M38.168,90.548H11.961c-1.723,0-3.122-1.398-3.122-3.12V12.522c0-1.723,1.399-3.122,3.122-3.122h49.937
		c1.721,0,3.121,1.399,3.121,3.122V34.37c0,1.725,1.396,3.121,3.121,3.121c1.725,0,3.121-1.396,3.121-3.121V12.522
		c0-5.163-4.2-9.363-9.363-9.363H11.961c-5.163,0-9.363,4.2-9.363,9.363v74.905c0,5.163,4.2,9.362,9.363,9.362h26.208
		c1.725,0,3.121-1.396,3.121-3.121S39.893,90.548,38.168,90.548z"/>
	<path fill="#7600EA" d="M33.808,49.975h-3.122c-1.725,0-3.121,1.396-3.121,3.121c0,1.725,1.396,3.121,3.121,3.121h3.122
		c1.725,0,3.121-1.396,3.121-3.121C36.929,51.37,35.533,49.975,33.808,49.975z"/>
	<path fill="#7600EA" d="M21.324,49.975h-3.122c-1.725,0-3.121,1.396-3.121,3.121c0,1.725,1.396,3.121,3.121,3.121h3.122
		c1.725,0,3.121-1.396,3.121-3.121C24.445,51.37,23.049,49.975,21.324,49.975z"/>
	<path fill="#7600EA" d="M33.808,59.337h-3.122c-1.725,0-3.121,1.397-3.121,3.121c0,1.726,1.396,3.122,3.121,3.122h3.122
		c1.725,0,3.121-1.396,3.121-3.122C36.929,60.734,35.533,59.337,33.808,59.337z"/>
	<path fill="#7600EA" d="M21.324,59.337h-3.122c-1.725,0-3.121,1.397-3.121,3.121c0,1.726,1.396,3.122,3.121,3.122h3.122
		c1.725,0,3.121-1.396,3.121-3.122C24.445,60.734,23.049,59.337,21.324,59.337z"/>
	<path fill="#7600EA" d="M33.808,68.701h-3.122c-1.725,0-3.121,1.396-3.121,3.121c0,1.725,1.396,3.12,3.121,3.12h3.122
		c1.725,0,3.121-1.396,3.121-3.12C36.929,70.097,35.533,68.701,33.808,68.701z"/>
	<path fill="#7600EA" d="M33.808,78.063h-3.122c-1.725,0-3.121,1.396-3.121,3.121c0,1.726,1.396,3.122,3.121,3.122h3.122
		c1.725,0,3.121-1.396,3.121-3.122C36.929,79.46,35.533,78.063,33.808,78.063z"/>
	<path fill="#7600EA" d="M21.324,68.701h-3.122c-1.725,0-3.121,1.396-3.121,3.121c0,1.725,1.396,3.12,3.121,3.12h3.122
		c1.725,0,3.121-1.396,3.121-3.12C24.445,70.097,23.049,68.701,21.324,68.701z"/>
	<path fill="#7600EA" d="M21.324,78.063h-3.122c-1.725,0-3.121,1.396-3.121,3.121c0,1.726,1.396,3.122,3.121,3.122h3.122
		c1.725,0,3.121-1.396,3.121-3.122C24.445,79.46,23.049,78.063,21.324,78.063z"/>
</g>
<g opacity="0.6">
	<path fill="#662D91" d="M82.017,98.055c-0.798,0-1.77-0.57-2.158-1.268l-4.532-8.116c-0.389-0.697-0.389-1.838,0-2.535l4.532-8.116
		c0.389-0.697,1.36-1.268,2.158-1.268h8.989c0.798,0,1.77,0.57,2.158,1.268l4.532,8.116c0.389,0.697,0.389,1.838,0,2.535
		l-4.532,8.116c-0.389,0.697-1.36,1.268-2.158,1.268H82.017z"/>
</g>
</svg>
