<?xml version="1.0" encoding="utf-8"?>
<!-- Generator: Adobe Illustrator 16.0.0, SVG Export Plug-In . SVG Version: 6.00 Build 0)  -->
<!DOCTYPE svg PUBLIC "-//W3C//DTD SVG 1.1//EN" "http://www.w3.org/Graphics/SVG/1.1/DTD/svg11.dtd">
<svg version="1.1" id="Layer_1" xmlns="http://www.w3.org/2000/svg" xmlns:xlink="http://www.w3.org/1999/xlink" x="0px" y="0px"
	 width="100px" height="100px" viewBox="0 0 100 100" enable-background="new 0 0 100 100" xml:space="preserve">
<g>
	<path fill="#7600EA" d="M25.972,78.88c0-1.712-1.393-3.105-3.105-3.105s-3.105,1.394-3.105,3.105c0,2.897,1.993,5.331,4.678,6.021
		v0.839c0,1.712,1.393,3.105,3.105,3.105s3.105-1.394,3.105-3.105v-0.839c2.685-0.69,4.678-3.124,4.678-6.021v-3.12
		c0-3.432-2.792-6.224-6.224-6.224l-3.132-0.013l0.014-3.132l3.132,0.013c0,1.712,1.393,3.105,3.105,3.105s3.105-1.394,3.105-3.105
		c0-2.897-1.993-5.331-4.678-6.021v-0.84c0-1.712-1.393-3.105-3.105-3.105s-3.105,1.394-3.105,3.105v0.84
		c-2.685,0.69-4.678,3.124-4.678,6.021v3.119c0,3.432,2.792,6.224,6.224,6.224l3.132,0.013l-0.014,3.133L25.972,78.88z"/>
	<path fill="#7600EA" d="M98.009,23.561c-0.003-0.187-0.018-0.373-0.054-0.555c0,0,0,0,0-0.001
		c-0.035-0.175-0.091-0.345-0.155-0.512c-0.021-0.055-0.047-0.107-0.071-0.161c-0.054-0.117-0.114-0.229-0.182-0.339
		c-0.03-0.049-0.059-0.099-0.092-0.146c-0.104-0.149-0.219-0.293-0.351-0.426l-7.484-7.484L78.395,2.708
		c-0.01-0.01-0.021-0.016-0.031-0.026c-0.117-0.114-0.243-0.216-0.376-0.309c-0.071-0.051-0.147-0.094-0.223-0.139
		c-0.068-0.04-0.137-0.077-0.208-0.111c-0.098-0.048-0.197-0.093-0.3-0.13c-0.038-0.014-0.077-0.023-0.116-0.035
		c-0.204-0.065-0.415-0.108-0.632-0.13c-0.066-0.007-0.133-0.017-0.199-0.02c-0.038-0.001-0.073-0.011-0.111-0.011H33.159
		c-4.808,0-8.719,3.911-8.719,8.719v36.76C11.807,48.815,1.986,59.6,1.986,72.642c0,14.094,11.466,25.561,25.56,25.561h61.75
		c4.808,0,8.719-3.912,8.719-8.72V23.616C98.015,23.597,98.01,23.579,98.009,23.561z M89.296,91.991H44.218
		c4.696-4.053,7.905-9.778,8.692-16.244h28.9c1.712,0,3.105-1.394,3.105-3.105s-1.394-3.105-3.105-3.105h-28.9
		c-0.472-3.876-1.813-7.486-3.826-10.63h32.727c1.712,0,3.105-1.394,3.105-3.105s-1.394-3.105-3.105-3.105H43.501
		c-3.614-2.896-8.026-4.831-12.851-5.418v-36.76c0-1.383,1.125-2.509,2.509-2.509h39.933v15.607c0,1.712,1.394,3.105,3.105,3.105
		h15.606v62.762C91.804,90.866,90.679,91.991,89.296,91.991z M46.895,72.642c0,10.669-8.68,19.35-19.35,19.35
		s-19.35-8.681-19.35-19.35s8.68-19.35,19.35-19.35S46.895,61.973,46.895,72.642z M87.413,20.511h-8.11V12.4l4.055,4.055
		L87.413,20.511z"/>
	<path fill="#7600EA" d="M81.811,35.855H40.644c-1.712,0-3.105,1.393-3.105,3.105s1.393,3.105,3.105,3.105h41.167
		c1.712,0,3.105-1.393,3.105-3.105S83.522,35.855,81.811,35.855z"/>
</g>
<ellipse opacity="0.6" fill="#FF00FF" enable-background="new    " cx="27.545" cy="19.651" rx="9.732" ry="6.311"/>
</svg>
