<?xml version="1.0" encoding="utf-8"?>
<!-- Generator: Adobe Illustrator 16.0.0, SVG Export Plug-In . SVG Version: 6.00 Build 0)  -->
<!DOCTYPE svg PUBLIC "-//W3C//DTD SVG 1.1//EN" "http://www.w3.org/Graphics/SVG/1.1/DTD/svg11.dtd">
<svg version="1.1" id="svg9" xmlns:svg="http://www.w3.org/2000/svg"
	 xmlns="http://www.w3.org/2000/svg" xmlns:xlink="http://www.w3.org/1999/xlink" x="0px" y="0px" width="100px" height="100px"
	 viewBox="0 0 100 100" enable-background="new 0 0 100 100" xml:space="preserve">
<ellipse opacity="0.6" fill="#0071BC" enable-background="new    " cx="16.145" cy="17.878" rx="9.43" ry="6.115"/>
<g id="g1091" transform="translate(256,216)">
	<path id="path1093" fill="#7600EA" d="M-205.666-158.25c-4.09,0-7.417-3.327-7.417-7.417c0-4.089,3.327-7.416,7.417-7.416
		c4.089,0,7.416,3.327,7.416,7.416C-198.25-161.577-201.577-158.25-205.666-158.25"/>
</g>
<path fill="#7600EA" d="M95.18,60.17l-9.862-5.694c0.161-1.374,0.243-2.761,0.243-4.142c0-1.381-0.082-2.767-0.243-4.141
	l9.862-5.694c1.33-0.768,1.786-2.469,1.018-3.799L85.073,17.432c-0.767-1.329-2.466-1.785-3.799-1.018l-9.863,5.694
	c-2.227-1.667-4.627-3.056-7.172-4.149V6.578c0-1.536-1.245-2.781-2.781-2.781H39.209c-1.536,0-2.781,1.245-2.781,2.781v11.38
	c-2.545,1.093-4.946,2.482-7.172,4.149l-9.863-5.694c-1.33-0.768-3.031-0.313-3.799,1.018L4.47,36.699
	c-0.768,1.33-0.312,3.031,1.018,3.799l9.861,5.694c-0.161,1.375-0.243,2.761-0.243,4.142c0,1.381,0.082,2.768,0.243,4.142
	L5.488,60.17c-1.33,0.768-1.786,2.469-1.018,3.799l11.124,19.268c0.369,0.639,0.977,1.104,1.689,1.296
	c0.71,0.19,1.472,0.09,2.11-0.278l9.863-5.694c2.227,1.667,4.628,3.056,7.172,4.149v11.38c0,1.536,1.245,2.781,2.781,2.781h22.249
	c1.536,0,2.781-1.245,2.781-2.781v-11.38c2.544-1.094,4.945-2.483,7.172-4.149l9.863,5.694c0.64,0.369,1.4,0.47,2.11,0.278
	c0.713-0.191,1.32-0.657,1.688-1.296l11.124-19.268C96.966,62.639,96.51,60.938,95.18,60.17z M81.647,78.047l-9.091-5.249
	c-1.012-0.585-2.282-0.473-3.178,0.277c-2.656,2.227-5.642,3.954-8.875,5.135c-1.097,0.4-1.827,1.444-1.827,2.612v10.485H41.991
	V80.822c0-1.168-0.73-2.212-1.828-2.612c-3.233-1.181-6.219-2.908-8.875-5.135c-0.896-0.75-2.166-0.862-3.178-0.277l-9.09,5.249
	l-8.343-14.451l9.085-5.246c1.011-0.583,1.549-1.736,1.349-2.886c-0.294-1.688-0.443-3.413-0.443-5.13
	c0-1.716,0.149-3.442,0.443-5.13c0.2-1.15-0.338-2.302-1.349-2.886l-9.085-5.246l8.343-14.451l9.09,5.249
	c1.013,0.583,2.282,0.473,3.178-0.278c2.655-2.227,5.641-3.954,8.874-5.133c1.098-0.401,1.828-1.444,1.828-2.613V9.359h16.686
	v10.486c0,1.168,0.73,2.212,1.828,2.612c3.232,1.18,6.219,2.907,8.874,5.134c0.895,0.75,2.164,0.861,3.178,0.277l9.091-5.249
	l8.343,14.451l-9.086,5.246c-1.011,0.584-1.55,1.736-1.35,2.886c0.295,1.688,0.443,3.414,0.443,5.13c0,1.717-0.148,3.443-0.443,5.13
	c-0.2,1.149,0.339,2.303,1.35,2.886l9.086,5.246L81.647,78.047z"/>
<path fill="#7600EA" d="M47.925,51.725c0.515,0.893,1.45,1.391,2.411,1.391c0.472,0,0.95-0.12,1.388-0.373l15.254-8.806
	c1.33-0.768,1.786-2.469,1.018-3.799c-0.768-1.33-2.466-1.785-3.799-1.018l-15.254,8.807C47.613,48.693,47.158,50.395,47.925,51.725
	z"/>
<path fill="#7600EA" d="M67.255,55.965c-1.361-0.706-3.041-0.178-3.751,1.185c-2.571,4.945-7.617,8.017-13.17,8.017
	c-8.179,0-14.833-6.653-14.833-14.833c0-8.179,6.654-14.832,14.833-14.832c1.536,0,2.781-1.245,2.781-2.781
	s-1.245-2.781-2.781-2.781c-11.246,0-20.395,9.149-20.395,20.395s9.149,20.395,20.395,20.395c7.636,0,14.573-4.22,18.105-11.013
	C69.147,58.353,68.617,56.674,67.255,55.965z"/>
</svg>
