<?xml version="1.0" encoding="utf-8"?>
<!-- Generator: Adobe Illustrator 16.0.0, SVG Export Plug-In . SVG Version: 6.00 Build 0)  -->
<!DOCTYPE svg PUBLIC "-//W3C//DTD SVG 1.1//EN" "http://www.w3.org/Graphics/SVG/1.1/DTD/svg11.dtd">
<svg version="1.1" id="Layer_1" xmlns="http://www.w3.org/2000/svg" xmlns:xlink="http://www.w3.org/1999/xlink" x="0px" y="0px"
	 width="100px" height="100px" viewBox="0 0 100 100" enable-background="new 0 0 100 100" xml:space="preserve">
<g>
	<path fill="#7600EA" d="M92.709,42.578l-8.896-16.844l-6.834-0.868c-0.707-0.09-1.421-0.091-2.13-0.034
		c0.056-0.708,0.053-1.422-0.038-2.134l-0.867-6.834L57.098,6.969l-6.034-6.034L36.45,15.549l5.581,5.581l0.177,7.477l5.72,5.72
		c1.566,1.567,3.652,2.43,5.872,2.43c2.152,0,4.179-0.811,5.728-2.288l2.039,2.039l3.64,3.641c-1.477,1.549-2.287,3.575-2.287,5.727
		c0,2.22,0.863,4.306,2.43,5.873l5.72,5.72l7.478,0.178l5.581,5.581l14.614-14.614L92.709,42.578z M68.841,43.782l7.158,7.159
		l4.284-4.283c3.236-3.238,3.236-8.506-0.001-11.746l-2.32-2.316l-3.629,3.63l2.318,2.318c1.235,1.236,1.236,3.248,0.001,4.484
		l-0.653,0.652l-8.181-8.18l3.973-3.972c0.032-0.032,0.059-0.069,0.09-0.102c1.17-1.111,2.822-1.677,4.451-1.466l4.187,0.531
		l8.012,15.169l2.951,2.952l-7.354,7.354l-3.403-3.405l-7.478-0.177l-4.267-4.266C67.792,46.93,67.746,45.025,68.841,43.782z
		 M56.649,23.025c1.195-1.194,3.288-1.196,4.483,0l2.318,2.319l3.631-3.631l-2.318-2.319c-1.566-1.566-3.652-2.428-5.872-2.428
		c-2.221,0-4.306,0.862-5.872,2.429l-4.283,4.283l7.158,7.158c-1.206,1.061-3.188,1.008-4.336-0.139l-4.265-4.267l-0.178-7.477
		l-3.404-3.405l7.353-7.354l2.953,2.952l15.169,8.011l0.531,4.188c0.206,1.618-0.344,3.269-1.466,4.45
		c-0.032,0.032-0.07,0.059-0.103,0.091l-3.971,3.972l-8.181-8.181L56.649,23.025z"/>
	<path fill="#7600EA" d="M65.665,91.555H53.87V72.011c0-1.665-1.354-3.02-3.02-3.02c-1.665,0-3.019,1.354-3.019,3.02v19.544H36.228
		V57.889c0-1.664-1.354-3.019-3.019-3.019s-3.019,1.354-3.019,3.019v33.666H18.587V40.237c0-1.665-1.354-3.019-3.019-3.019
		s-3.019,1.354-3.019,3.019v51.317H5.722c-1.665,0-3.019,1.354-3.019,3.02c0,1.664,1.354,3.019,3.019,3.019l27.487,0.001
		l32.456-0.001c1.664,0,3.019-1.354,3.019-3.019C68.684,92.909,67.329,91.555,65.665,91.555z"/>
	<path fill="#7600EA" d="M73.278,61.341c-1.665,0-3.02,1.354-3.02,3.019v3.099l-42.711-42.71c-0.569-0.57-1.325-0.884-2.175-0.884
		c0,0-0.001,0-0.002,0H5.722c-1.665,0-3.019,1.354-3.019,3.019s1.354,3.019,3.019,3.019h18.44L65.99,71.728h-3.1
		c-1.664,0-3.019,1.354-3.019,3.02c0,1.664,1.354,3.019,3.019,3.019h10.388c0.949,0,1.823-0.433,2.398-1.186
		c0.125-0.164,0.232-0.337,0.317-0.513c0.201-0.412,0.303-0.856,0.303-1.32V64.359C76.297,62.695,74.942,61.341,73.278,61.341z"/>
</g>
<path opacity="0.6" fill="#ED1E79" enable-background="new    " d="M21.688,14.137c1.828,0.003,3.321,1.497,3.325,3.326v12.8
	c-0.002,1.827-1.497,3.323-3.325,3.326h-12.8c-1.829-0.003-3.323-1.497-3.326-3.326v-12.8c0.003-1.829,1.499-3.324,3.326-3.326
	H21.688z"/>
</svg>
