<?xml version="1.0" encoding="utf-8"?>
<!-- Generator: Adobe Illustrator 16.0.0, SVG Export Plug-In . SVG Version: 6.00 Build 0)  -->
<!DOCTYPE svg PUBLIC "-//W3C//DTD SVG 1.1//EN" "http://www.w3.org/Graphics/SVG/1.1/DTD/svg11.dtd">
<svg version="1.1" id="Layer_1" xmlns="http://www.w3.org/2000/svg" xmlns:xlink="http://www.w3.org/1999/xlink" x="0px" y="0px"
	 width="100px" height="100px" viewBox="0 0 100 100" enable-background="new 0 0 100 100" xml:space="preserve">
<rect x="45.798" y="48" fill="#7600EA" width="2.801" height="4"/>
<rect x="51.4" y="48" fill="#7600EA" width="2.802" height="4"/>
<path fill="#7600EA" d="M78.67,49.476c4.33,0,7.854-3.523,7.854-7.854V30.117h7.088c2.786,0,5.053-2.266,5.053-5.051V6.389
	c0-2.786-2.267-5.052-5.053-5.052h-2.957v4.5h2.957c0.305,0,0.553,0.248,0.553,0.552v18.677c0,0.304-0.248,0.551-0.553,0.551H74.936
	c-0.305,0-0.553-0.247-0.553-0.551V6.389c0-0.305,0.248-0.552,0.553-0.552h13.416v-4.5H74.936c-2.786,0-5.053,2.267-5.053,5.052
	v18.677c0,2.785,2.267,5.051,5.053,5.051h7.088v11.505c0,1.85-1.504,3.354-3.354,3.354h-2.89l0.253-0.228L72.19,35.47l-0.068-0.163
	l-5.183,0.265l-2.511-2.51l0.266-5.185l-9.441-3.91l-3.479,3.852h-3.548l-3.478-3.852l-9.441,3.91l0.265,5.185l-2.51,2.51
	l-5.185-0.265l-3.911,9.441l0.252,0.228H21.33c-1.85,0-3.354-1.504-3.354-3.353V30.117h7.089c2.785,0,5.051-2.266,5.051-5.051V6.389
	c0-2.786-2.266-5.052-5.051-5.052H21.08v4.5h3.985c0.304,0,0.551,0.248,0.551,0.552v18.677c0,0.304-0.247,0.551-0.551,0.551H6.389
	c-0.305,0-0.552-0.247-0.552-0.551V6.389c0-0.305,0.248-0.552,0.552-0.552h12.39v-4.5H6.389c-2.786,0-5.052,2.267-5.052,5.052
	v18.677c0,2.785,2.267,5.051,5.052,5.051h7.088v11.505c0,4.33,3.523,7.853,7.854,7.853h6.489v1.08h-6.489
	c-4.331,0-7.854,3.523-7.854,7.854v11.475H6.389c-2.786,0-5.052,2.267-5.052,5.053v18.676c0,2.786,2.267,5.053,5.052,5.053h12.39
	v-4.5h-7.984l10.643-7.363l4.179,4.156v2.656c0,0.305-0.247,0.552-0.551,0.552h-3.985v4.5h3.985c2.785,0,5.051-2.267,5.051-5.052
	V74.936c0-2.786-2.266-5.053-5.051-5.053h-7.089V58.408c0-1.85,1.504-3.354,3.354-3.354h2.854l-0.217,0.196l3.91,9.443l5.185-0.267
	l2.51,2.511l-0.265,5.183l9.441,3.91l3.478-3.852h3.548l3.479,3.852l9.278-3.842l0.163-0.068l-0.266-5.184l2.51-2.51l5.184,0.267
	l3.911-9.443l-0.218-0.196h2.854c1.85,0,3.354,1.504,3.354,3.354v11.475h-7.088c-2.786,0-5.053,2.267-5.053,5.053v18.676
	c0,2.786,2.267,5.053,5.053,5.053h13.416v-4.5H74.936c-0.305,0-0.553-0.248-0.553-0.553V74.936c0-0.305,0.248-0.553,0.553-0.553
	h18.676c0.305,0,0.553,0.248,0.553,0.553v18.676c0,0.305-0.248,0.553-0.553,0.553h-2.957v4.5h2.957c2.786,0,5.053-2.267,5.053-5.053
	V74.936c0-2.786-2.267-5.053-5.053-5.053h-7.088V58.408c0-4.33-3.523-7.854-7.854-7.854h-6.488v-1.08L78.67,49.476z M59.833,65.171
	l0.205,4.01l-3.572,1.479l-2.69-2.979h-7.549l-2.69,2.979l-3.573-1.479l0.205-4.01l-5.338-5.338l-4.009,0.205l-1.48-3.572
	l1.562-1.411h7.5l1.371,2.104c-0.548,0.829-0.837,1.782-0.837,2.767c0,2.786,2.267,5.053,5.052,5.053s5.052-2.267,5.052-5.053
	c0-2.785-2.266-5.051-5.052-5.051c-0.105,0-0.207,0.013-0.309,0.026c-0.001,0.001-0.003,0.001-0.005,0.001l-2.833-4.348H32.32
	v-1.079h9.333l4.867-6.229l0.009,0.001c0.147,0.02,0.294,0.04,0.446,0.04c2.786,0,5.052-2.266,5.052-5.051
	c0-2.786-2.267-5.052-5.052-5.052s-5.052,2.266-5.052,5.052c0,0.931,0.257,1.836,0.745,2.631l-3.211,4.108h-8.524l-1.595-1.44
	l1.48-3.573l4.01,0.205l5.338-5.338l-0.205-4.009l3.573-1.48l2.69,2.979h7.549l2.69-2.979l3.572,1.48l-0.205,4.009l5.338,5.338
	l4.01-0.205l1.479,3.573l-1.595,1.44h-5.435l-1.472-1.79c0.217-0.575,0.327-1.171,0.327-1.774c0-2.785-2.267-5.051-5.053-5.051
	c-2.785,0-5.052,2.266-5.052,5.051c0,2.786,2.267,5.052,5.052,5.052c0.449,0,0.912-0.073,1.41-0.223l2.661,3.235h6.175v1.079h-8.193
	l-3.217,5.46c-0.077-0.011-0.155-0.02-0.236-0.02c-2.786,0-5.053,2.267-5.053,5.052c0,2.786,2.267,5.053,5.053,5.053
	c2.785,0,5.052-2.267,5.052-5.053c0-1.007-0.307-1.982-0.887-2.833l1.86-3.159h7.042l1.562,1.411l-1.479,3.572l-4.01-0.205
	L59.833,65.171z M43.435,59.926c0-0.304,0.248-0.551,0.552-0.551c0.305,0,0.552,0.247,0.552,0.551c0,0.305-0.248,0.553-0.552,0.553
	C43.683,60.479,43.435,60.23,43.435,59.926z M46.976,38.788c-0.305,0-0.552-0.247-0.552-0.551s0.248-0.552,0.552-0.552
	c0.304,0,0.552,0.248,0.552,0.552S47.28,38.788,46.976,38.788z M57.986,41.411c0,0.304-0.247,0.552-0.551,0.552
	c-0.305,0-0.553-0.248-0.553-0.552s0.248-0.551,0.553-0.551C57.739,40.86,57.986,41.107,57.986,41.411z M56.031,60.495
	c0.305,0,0.552,0.247,0.552,0.552S56.336,61.6,56.031,61.6s-0.553-0.248-0.553-0.553S55.727,60.495,56.031,60.495z M25.617,84.608
	l-3.659-3.642L5.837,92.123V74.936c0-0.305,0.248-0.553,0.552-0.553h18.677c0.304,0,0.551,0.248,0.551,0.553V84.608z"/>
<path fill="#7600EA" d="M79.939,22.731l11.676-7.004L79.939,8.722V22.731z M83.007,14.139l2.646,1.588l-2.646,1.588V14.139z"/>
<path fill="#7600EA" d="M11.898,84.905c2.647,0,4.802-2.154,4.802-4.802c0-2.648-2.154-4.803-4.802-4.803s-4.802,2.154-4.802,4.803
	C7.096,82.751,9.251,84.905,11.898,84.905z M11.898,79.302c0.442,0,0.802,0.359,0.802,0.802c0,0.443-0.36,0.803-0.802,0.803
	s-0.802-0.359-0.802-0.803C11.096,79.661,11.457,79.302,11.898,79.302z"/>
<path fill="#7600EA" d="M82.513,83.476c-0.198-0.034-0.399-0.063-0.608-0.063c-2.009,0-3.645,1.636-3.645,3.646
	c0,2.01,1.636,3.645,3.645,3.645c2.011,0,3.645-1.635,3.645-3.645v-6.181h2.736v-3.036h-5.772V83.476z M81.906,87.667
	c-0.336,0-0.609-0.272-0.609-0.609c0-0.336,0.272-0.607,0.609-0.607c0.334,0,0.607,0.271,0.607,0.607
	C82.514,87.395,82.24,87.667,81.906,87.667z"/>
<rect x="10.4" y="9.76" fill="#7600EA" width="10.653" height="3.259"/>
<rect x="10.4" y="14.097" fill="#7600EA" width="10.653" height="3.259"/>
<rect x="10.4" y="18.435" fill="#7600EA" width="7.609" height="3.259"/>
<rect x="7.097" y="53.759" opacity="0.6" fill="#FF00FF" enable-background="new    " width="12.603" height="12.603"/>
</svg>
