<?xml version="1.0" encoding="utf-8"?>
<!-- Generator: Adobe Illustrator 16.0.0, SVG Export Plug-In . SVG Version: 6.00 Build 0)  -->
<!DOCTYPE svg PUBLIC "-//W3C//DTD SVG 1.1//EN" "http://www.w3.org/Graphics/SVG/1.1/DTD/svg11.dtd">
<svg version="1.1" id="Layer_1" xmlns="http://www.w3.org/2000/svg" xmlns:xlink="http://www.w3.org/1999/xlink" x="0px" y="0px"
	 width="100px" height="100px" viewBox="0 0 100 100" enable-background="new 0 0 100 100" xml:space="preserve">
<g>
	<g>
		<path fill="#7600EA" d="M50.011,27.539c6.806,0,12.343-5.537,12.343-12.342c0-6.806-5.537-12.342-12.343-12.342
			S37.668,8.392,37.668,15.197C37.668,22.002,43.205,27.539,50.011,27.539z M50.011,10.138c2.79,0,5.06,2.27,5.06,5.06
			c0,2.79-2.27,5.059-5.06,5.059s-5.06-2.27-5.06-5.059C44.951,12.407,47.221,10.138,50.011,10.138z"/>
		<path fill="#7600EA" d="M15.208,2.855c-6.805,0-12.342,5.537-12.342,12.342c0,6.805,5.537,12.342,12.342,12.342
			s12.342-5.537,12.342-12.342C27.549,8.392,22.013,2.855,15.208,2.855z M15.208,20.256c-2.79,0-5.06-2.27-5.06-5.059
			c0-2.79,2.27-5.06,5.06-5.06c2.79,0,5.06,2.27,5.06,5.06C20.267,17.987,17.997,20.256,15.208,20.256z"/>
		<path fill="#7600EA" d="M15.208,37.658C8.402,37.658,2.866,43.195,2.866,50c0,6.805,5.537,12.343,12.342,12.343
			S27.549,56.805,27.549,50C27.549,43.195,22.013,37.658,15.208,37.658z M15.208,55.06c-2.79,0-5.06-2.27-5.06-5.06
			s2.27-5.059,5.06-5.059c2.79,0,5.06,2.269,5.06,5.059S17.997,55.06,15.208,55.06z"/>
		<path fill="#7600EA" d="M15.208,72.46c-6.805,0-12.342,5.538-12.342,12.343c0,6.806,5.537,12.343,12.342,12.343
			s12.342-5.537,12.342-12.343C27.549,77.998,22.013,72.46,15.208,72.46z M15.208,89.861c-2.79,0-5.06-2.269-5.06-5.059
			s2.27-5.059,5.06-5.059c2.79,0,5.06,2.269,5.06,5.059S17.997,89.861,15.208,89.861z"/>
		<path fill="#7600EA" d="M84.813,27.539c6.805,0,12.342-5.537,12.342-12.342c0-6.806-5.537-12.342-12.342-12.342
			c-6.806,0-12.342,5.537-12.342,12.342C72.472,22.002,78.008,27.539,84.813,27.539z M84.813,10.138c2.789,0,5.06,2.27,5.06,5.06
			c0,2.79-2.271,5.059-5.06,5.059c-2.79,0-5.06-2.27-5.06-5.059C79.754,12.407,82.023,10.138,84.813,10.138z"/>
		<path fill="#7600EA" d="M67.561,37.274c-16.482,0-29.892,13.409-29.892,29.891c0,8.116,3.198,15.708,8.94,21.31l0.102,0.108
			c0.301,0.293,0.608,0.58,0.934,0.87l1.279,1.079c0.119,0.098,0.24,0.192,0.353,0.279l1.134,0.837
			c0.081,0.058,0.163,0.113,0.229,0.156c0.149,0.104,0.3,0.205,0.435,0.294l0.659,0.425c0.195,0.123,0.396,0.244,0.596,0.362
			l0.105,0.064c3.791,2.228,7.936,3.564,12.305,3.973l0.124,0.011c0.235,0.02,0.472,0.04,0.718,0.057l0.207,0.013
			c0.129,0.008,0.259,0.017,0.366,0.019l1.407,0.035l1.971-0.066c0.252-0.017,0.505-0.037,0.826-0.065
			c4.387-0.406,8.537-1.745,12.334-3.979l0.097-0.057c0.202-0.12,0.402-0.242,0.601-0.366l1.975-1.347l3.134-2.68
			c5.774-5.67,8.955-13.245,8.955-21.332C97.452,50.683,84.042,37.274,67.561,37.274z M67.607,43.036l0.02,0.933
			c0.338,0.002,0.686,0.021,1.037,0.062c3.107,0.346,5.912,2.328,7.348,5.132c-1.529,0.598-3.804-0.005-6.729-1.765
			c-2.011-1.211-3.951-2.047-5.797-2.499c1.276-0.607,2.685-0.93,4.121-0.93V43.036L67.607,43.036z M83.603,51.453
			c-0.05-0.411-0.115-0.82-0.196-1.227c4.648,4.358,7.351,10.496,7.351,16.939c0,2.407-0.363,4.762-1.082,7.021
			c-2.61-3.262-6.499-5.257-10.808-5.514C82.418,64.632,84.365,57.816,83.603,51.453z M51.718,50.223
			c-0.212,1.05-0.318,2.123-0.318,3.213c0,5.997,1.889,11.692,4.938,15.232c-4.343,0.236-8.265,2.236-10.893,5.52
			c-0.719-2.262-1.083-4.617-1.083-7.022C44.363,60.721,47.067,54.581,51.718,50.223z M72.055,65.591
			c-1.832,0.691-3.016,2.384-3.016,4.312v0.59c0,0.986,0.312,1.974,0.872,2.799l-1.727,2.592h-1.246L65.21,73.29
			c0.559-0.825,0.87-1.812,0.87-2.798V69.91c0-1.913-1.19-3.642-2.963-4.301c-2.678-0.99-5.025-6.68-5.025-12.171
			c0.001-0.509,0.042-1.014,0.12-1.506c0.053-0.045,0.12-0.1,0.202-0.159c1.584-1.146,4.061-0.663,7.418,1.357
			c4.104,2.471,7.899,3.39,11.161,2.694C76.576,60.443,74.487,64.678,72.055,65.591z M53.081,80.711c-1.271,0-2.38,0.714-2.946,1.76
			c-0.327-0.37-0.641-0.752-0.942-1.142c0.907-3.549,4.145-5.992,8.016-5.992h1.32l2.925,4.389l-2.935,8.806
			c-0.716-0.304-1.416-0.642-2.091-1.012v-3.462C56.429,82.213,54.927,80.711,53.081,80.711z M67.56,82.577l2.545,7.632
			c-0.716,0.08-1.373,0.127-2,0.146c-0.359,0.011-0.729,0.011-1.084,0c-0.636-0.019-1.292-0.066-2.005-0.146L67.56,82.577z
			 M76.593,75.337h1.322c3.871,0,7.108,2.443,8.014,5.992c-0.3,0.389-0.614,0.771-0.942,1.143c-0.565-1.047-1.674-1.761-2.946-1.761
			c-1.846,0-3.347,1.502-3.347,3.347v3.462c-0.679,0.372-1.379,0.71-2.092,1.012l-2.935-8.807L76.593,75.337z"/>
	</g>
	<g opacity="0.6">
		<path fill="#FCEE21" d="M78.436,78.316c0-1.55,1.014-2.185,2.355-1.408l16.211,9.383c1.342,0.775,1.32,2.044-0.021,2.818
			l-16.18,9.385c-1.342,0.774-2.365,0.14-2.365-1.41V78.316z"/>
	</g>
</g>
</svg>
