<?xml version="1.0" encoding="utf-8"?>
<!-- Generator: Adobe Illustrator 16.0.0, SVG Export Plug-In . SVG Version: 6.00 Build 0)  -->
<!DOCTYPE svg PUBLIC "-//W3C//DTD SVG 1.1//EN" "http://www.w3.org/Graphics/SVG/1.1/DTD/svg11.dtd">
<svg version="1.1" id="Layer_1" xmlns="http://www.w3.org/2000/svg" xmlns:xlink="http://www.w3.org/1999/xlink" x="0px" y="0px"
	 width="100px" height="100px" viewBox="0 0 100 100" enable-background="new 0 0 100 100" xml:space="preserve">
<g>
	<path fill="#7600EA" d="M96.594,51.456c0,10.738-8.736,19.475-19.475,19.475h-8.918v-7.28h8.918
		c6.725,0,12.194-5.471,12.194-12.194c0-6.725-5.47-12.194-12.194-12.194h-5.097v-6.37c0-12.244-9.961-22.205-22.205-22.205
		c-11.427,0-20.922,8.558-22.087,19.907l-0.31,3.016L24.4,33.851C16.71,34.466,10.687,41,10.687,48.726
		c0,7.613,5.731,14.023,13.104,14.925h8.008v7.28h-8.008C12.396,70.002,3.406,60.356,3.406,48.726
		c0-5.618,2.103-10.979,5.921-15.096c3.125-3.37,7.166-5.659,11.592-6.61c1.239-6.123,4.402-11.711,9.084-15.962
		c5.433-4.934,12.47-7.651,19.814-7.651c15.995,0,29.055,12.801,29.475,28.695C89.012,33.187,96.594,41.452,96.594,51.456z
		 M68.201,48.362c0,5.741-2.743,11.143-7.281,14.556v24.236l-9.203,9.439h-3.644l-8.994-9.467V62.918
		c-4.537-3.413-7.28-8.814-7.28-14.556c0-10.036,8.165-18.201,18.201-18.201S68.201,38.326,68.201,48.362z M60.92,48.362
		c0-6.022-4.898-10.921-10.92-10.921S39.08,42.34,39.08,48.362c0,3.883,2.094,7.507,5.463,9.457l1.817,1.052v10.107l5.005,5.27
		l-5.005,4.755v5.217l3.58,3.769l3.7-3.796V58.871l1.816-1.052C58.826,55.869,60.92,52.245,60.92,48.362z M50,41.082
		c-2.011,0-3.64,1.63-3.64,3.64c0,2.011,1.629,3.641,3.64,3.641s3.64-1.63,3.64-3.641C53.64,42.711,52.011,41.082,50,41.082z"/>
</g>
<path opacity="0.6" fill="#FCEE21" enable-background="new    " d="M79.536,8.273c1.828,0.003,3.322,1.497,3.325,3.326v12.8
	c-0.001,1.827-1.497,3.323-3.325,3.326h-12.8c-1.829-0.003-3.323-1.497-3.326-3.326v-12.8c0.003-1.829,1.499-3.324,3.326-3.326
	H79.536z"/>
</svg>
