<?xml version="1.0" encoding="utf-8"?>
<!-- Generator: Adobe Illustrator 16.0.0, SVG Export Plug-In . SVG Version: 6.00 Build 0)  -->
<!DOCTYPE svg PUBLIC "-//W3C//DTD SVG 1.1//EN" "http://www.w3.org/Graphics/SVG/1.1/DTD/svg11.dtd">
<svg version="1.1" id="Layer_1" xmlns="http://www.w3.org/2000/svg" xmlns:xlink="http://www.w3.org/1999/xlink" x="0px" y="0px"
	 width="43.934px" height="40px" viewBox="0 0 43.934 40" enable-background="new 0 0 43.934 40" xml:space="preserve">
<g>
	<path fill="#0077FF" d="M21.967,3.909c2.481,0,4.959,0.586,7.185,1.697l-1.237,1.71l6.164,0.641l-2.526-5.661L30.24,4.104
		c-2.551-1.33-5.407-2.031-8.274-2.031c-9.882,0-17.922,8.039-17.922,17.92c0,3.347,0.93,6.613,2.689,9.446
		c0.169,0.272,0.461,0.436,0.782,0.436c0.171,0,0.339-0.049,0.484-0.141c0.429-0.267,0.562-0.834,0.295-1.266
		c-1.579-2.538-2.413-5.469-2.413-8.477C5.884,11.124,13.1,3.909,21.967,3.909z"/>
	<path fill="#0077FF" d="M37.779,11.549c-0.233-0.433-0.809-0.611-1.245-0.377c-0.445,0.239-0.614,0.796-0.376,1.243
		c1.239,2.313,1.894,4.933,1.894,7.577c0,8.869-7.215,16.084-16.084,16.084c-1.81,0-3.61-0.314-5.355-0.936l1.012-1.837
		l-6.197,0.124l3.204,5.305l1.083-1.966c2.031,0.761,4.133,1.146,6.252,1.146c9.883,0,17.923-8.04,17.923-17.923
		C39.889,17.05,39.159,14.131,37.779,11.549z"/>
</g>
<g>
	<path fill="#0077FF" d="M32.167,17.15c-1.644-4.125-5.736-6.897-10.184-6.897c-0.371,0-0.747,0.02-1.119,0.06
		c-1.845,0.195-3.52,0.798-4.977,1.79c-2.587,1.759-4.185,4.201-4.748,7.259c-0.048,0.266-0.083,0.537-0.115,0.8l-0.057,0.474v1.463
		l0.503-0.015c0.041-0.003,0.08-0.005,0.12-0.005h4.542v-1.643h-3.494c0.35-3.128,1.804-5.504,4.325-7.062
		c3.309-2.048,6.792-2.029,10.09,0.053c2.474,1.565,3.898,3.926,4.237,7.019H27.92l1.351-1.349c0.015-0.015,0.034-0.028,0.073-0.055
		l0.391-0.292l-1.27-1.31l-0.309,0.434c-0.021,0.033-0.035,0.054-0.044,0.062l-2.025,2.026c-0.876,0.876-1.755,1.755-2.649,2.642
		c-1.057-0.574-2.161-0.531-3.148,0.125c-1.026,0.688-1.48,1.711-1.313,2.955c0.159,1.188,1.05,2.187,2.216,2.487
		c0.259,0.066,0.52,0.1,0.776,0.1c0.964,0,1.851-0.448,2.434-1.229c0.712-0.96,0.78-2.26,0.182-3.265
		c0.905-0.902,1.809-1.805,2.713-2.708l0.506-0.505v1.504h4.774l0.35-0.087l0.03-0.329c0.002-0.034,0.005-0.067,0.006-0.103
		C32.99,20.024,32.722,18.544,32.167,17.15z M23.359,25.254c-0.035,0.762-0.639,1.381-1.342,1.381l-0.062-0.002
		c-0.394-0.018-0.771-0.194-1.035-0.483c-0.239-0.26-0.362-0.587-0.346-0.921c0.035-0.762,0.64-1.382,1.349-1.383l0.057,0.002
		C22.762,23.886,23.394,24.529,23.359,25.254z"/>
	<path fill="#0077FF" d="M26.933,16.75l0.254,0.267l1.198-1.095l-0.255-0.278c-1.619-1.755-3.808-2.722-6.162-2.722
		c-2.379,0-4.625,0.997-6.162,2.735l-0.245,0.277l1.186,1.083L17,16.75c1.381-1.455,3.055-2.192,4.976-2.192
		C23.889,14.561,25.557,15.298,26.933,16.75z"/>
</g>
</svg>
