<?xml version="1.0" encoding="utf-8"?>
<!-- Generator: Adobe Illustrator 16.0.0, SVG Export Plug-In . SVG Version: 6.00 Build 0)  -->
<!DOCTYPE svg PUBLIC "-//W3C//DTD SVG 1.1//EN" "http://www.w3.org/Graphics/SVG/1.1/DTD/svg11.dtd">
<svg version="1.1" id="Layer_1" xmlns="http://www.w3.org/2000/svg" xmlns:xlink="http://www.w3.org/1999/xlink" x="0px" y="0px"
	 width="40px" height="40px" viewBox="0 0 40 40" enable-background="new 0 0 40 40" xml:space="preserve">
<g>
	<path fill-rule="evenodd" clip-rule="evenodd" fill="#0077FF" d="M20.301,1.416c0.627,0.289,0.85,0.784,0.807,1.459
		c-0.037,0.577-0.004,1.159-0.009,1.738c-0.007,0.672-0.468,1.156-1.089,1.156c-0.621,0-1.081-0.485-1.087-1.156
		c-0.005-0.58,0.028-1.161-0.009-1.738c-0.043-0.676,0.179-1.171,0.806-1.459C19.914,1.416,20.108,1.416,20.301,1.416z"/>
	<path fill-rule="evenodd" clip-rule="evenodd" fill="#0077FF" d="M16.015,27.551c0-0.517,0.02-0.977-0.005-1.435
		c-0.036-0.651-0.377-1.128-0.918-1.479c-1.378-0.896-2.445-2.074-3.191-3.542c-2.743-5.392,0.604-12.015,6.575-13.01
		c5.061-0.843,9.833,2.582,10.504,7.651c0.483,3.661-0.851,6.623-3.872,8.765c-0.766,0.543-1.184,1.174-1.107,2.118
		c0.024,0.297,0.004,0.598,0.004,0.931c0.602,0,1.167-0.002,1.731,0c4.04,0.012,7.411,2.677,8.225,6.628
		c0.229,1.109,0.17,2.283,0.189,3.428c0.008,0.525-0.47,0.931-1,0.974c-0.108,0.009-0.218,0.004-0.326,0.004
		c-8.54,0-17.08,0-25.619,0c-0.952,0-1.341-0.393-1.35-1.336c-0.012-1.355-0.012-2.703,0.435-4.015
		c1.136-3.342,4.282-5.643,7.812-5.681C14.727,27.545,15.353,27.551,16.015,27.551z M19.974,17.643
		c0.078-0.045,0.103-0.053,0.119-0.069c0.413-0.409,0.822-0.821,1.235-1.229c0.521-0.514,1.188-0.545,1.64-0.081
		c0.443,0.455,0.41,1.105-0.092,1.615c-0.509,0.518-1.02,1.033-1.542,1.537c-0.17,0.164-0.239,0.331-0.237,0.568
		c0.01,1.669,0.005,3.338,0.005,5.007c0,0.117,0,0.234,0,0.381c0.241,0,0.446,0.017,0.646-0.008c0.08-0.011,0.195-0.1,0.216-0.174
		c0.304-1.098,1.025-1.841,1.931-2.491c2.406-1.731,3.396-4.097,2.868-7.019c-0.685-3.785-4.531-6.258-8.281-5.382
		c-3.849,0.898-6.183,4.814-5.11,8.579c0.469,1.648,1.422,2.948,2.849,3.893c0.778,0.515,1.383,1.163,1.713,2.048
		c0.218,0.585,0.221,0.584,0.856,0.553c0.034-0.002,0.067-0.016,0.121-0.028c0.004-0.059,0.013-0.116,0.013-0.174
		c0.001-1.766,0.005-3.531-0.007-5.297c-0.001-0.135-0.087-0.297-0.184-0.398c-0.485-0.506-0.987-0.997-1.482-1.493
		c-0.594-0.595-0.665-1.233-0.19-1.717c0.476-0.486,1.13-0.426,1.717,0.163C19.175,16.825,19.57,17.232,19.974,17.643z
		 M31.976,36.389c0.155-3.114-1.737-5.723-4.66-6.477c-1.096-0.283-2.212-0.16-3.321-0.174c-0.071-0.001-0.177,0.135-0.214,0.228
		c-0.651,1.65-2.093,2.67-3.784,2.664c-1.673-0.005-3.124-1.028-3.741-2.662c-0.076-0.203-0.173-0.248-0.367-0.244
		c-0.568,0.011-1.137,0-1.705,0.004c-2.845,0.021-5.289,1.943-5.973,4.706c-0.16,0.643-0.228,1.297-0.151,1.955
		C16.045,36.389,23.999,36.389,31.976,36.389z M18.197,27.563c0,0.38-0.005,0.728,0.001,1.076c0.018,0.954,0.719,1.722,1.645,1.807
		c0.939,0.087,1.808-0.559,1.948-1.509c0.065-0.444,0.012-0.906,0.012-1.374C20.605,27.563,19.426,27.563,18.197,27.563z"/>
	<path fill-rule="evenodd" clip-rule="evenodd" fill="#0077FF" d="M6.359,9.966C6.354,8.977,7.16,8.423,7.878,8.78
		c0.71,0.354,1.395,0.767,2.066,1.191c0.491,0.311,0.604,0.958,0.312,1.442c-0.293,0.483-0.909,0.676-1.422,0.401
		c-0.668-0.358-1.324-0.744-1.974-1.135C6.528,10.48,6.363,10.164,6.359,9.966z"/>
	<path fill-rule="evenodd" clip-rule="evenodd" fill="#0077FF" d="M33.663,9.917c-0.008,0.262-0.185,0.577-0.531,0.783
		c-0.622,0.369-1.245,0.737-1.879,1.085c-0.562,0.309-1.211,0.123-1.505-0.406c-0.29-0.522-0.121-1.148,0.42-1.473
		c0.62-0.373,1.244-0.739,1.88-1.083C32.806,8.414,33.67,8.931,33.663,9.917z"/>
	<path fill-rule="evenodd" clip-rule="evenodd" fill="#0077FF" d="M12.747,3.369c0.406,0.002,0.727,0.175,0.934,0.521
		c0.377,0.631,0.749,1.266,1.101,1.911c0.298,0.547,0.114,1.183-0.399,1.478c-0.515,0.297-1.154,0.137-1.479-0.399
		c-0.381-0.628-0.755-1.262-1.099-1.912C11.409,4.222,11.922,3.373,12.747,3.369z"/>
	<path fill-rule="evenodd" clip-rule="evenodd" fill="#0077FF" d="M27.284,3.37c0.792,0.008,1.323,0.822,0.96,1.54
		c-0.353,0.698-0.755,1.373-1.173,2.035c-0.313,0.496-0.95,0.617-1.438,0.329c-0.488-0.288-0.692-0.903-0.42-1.416
		c0.362-0.681,0.756-1.345,1.155-2.005C26.569,3.522,26.893,3.368,27.284,3.37z"/>
</g>
</svg>
