<?xml version="1.0" encoding="utf-8"?>
<!-- Generator: Adobe Illustrator 16.0.0, SVG Export Plug-In . SVG Version: 6.00 Build 0)  -->
<!DOCTYPE svg PUBLIC "-//W3C//DTD SVG 1.1//EN" "http://www.w3.org/Graphics/SVG/1.1/DTD/svg11.dtd">
<svg version="1.1" id="Layer_1" xmlns="http://www.w3.org/2000/svg" xmlns:xlink="http://www.w3.org/1999/xlink" x="0px" y="0px"
	 width="40px" height="40px" viewBox="0 0 40 40" enable-background="new 0 0 40 40" xml:space="preserve">
<g>
	<path fill-rule="evenodd" clip-rule="evenodd" fill="#0077FF" d="M38.358,25.097c-0.06,0.087-0.112,0.181-0.182,0.259
		c-0.2,0.23-0.46,0.306-0.745,0.217c-0.318-0.1-0.485-0.345-0.5-0.673c-0.017-0.346-0.007-0.693-0.008-1.039
		c-0.005-1.357-0.827-2.185-2.192-2.188c-1.805-0.006-3.609-0.007-5.413,0c-2.218,0.008-4.077-0.798-5.549-2.457
		c-1.082-1.22-1.654-2.664-1.756-4.292c-0.013-0.215-0.006-0.43-0.015-0.645c-0.021-0.448-0.26-0.722-0.63-0.727
		c-0.379-0.006-0.653,0.286-0.646,0.747c0.007,0.488,0.008,0.986,0.096,1.463c0.623,3.414,2.576,5.698,5.868,6.816
		c0.707,0.24,0.829,0.379,0.829,1.128c0,1.983,0,3.967,0,5.951c0,0.141,0,0.28,0,0.438c2.244,0,4.447,0,6.69,0
		c0-0.146,0-0.273,0-0.4c0-1.793,0-3.586,0.001-5.379c0-0.13,0.001-0.264,0.025-0.392c0.071-0.382,0.367-0.63,0.718-0.618
		c0.371,0.013,0.66,0.297,0.683,0.697c0.018,0.31,0.008,0.621,0.008,0.932c0,1.876,0,3.753,0,5.63
		c-0.001,0.674-0.121,0.832-0.797,1.014c0,0.12,0,0.25,0,0.379c0,1.852,0.002,3.705-0.002,5.557c-0.001,0.5-0.282,0.826-0.697,0.839
		c-0.425,0.014-0.723-0.325-0.734-0.838c-0.002-0.083-0.001-0.168-0.001-0.251c0-1.757,0-3.513,0-5.27c0-0.131,0-0.262,0-0.419
		c-1.691,0-3.366,0-5.08,0c0,0.141,0,0.27,0,0.397c0,1.853,0.006,3.704-0.002,5.558c-0.003,0.659-0.567,1.021-1.079,0.709
		c-0.307-0.187-0.353-0.489-0.353-0.81c0-1.817,0-3.633,0-5.449c0-0.131,0-0.261,0-0.383c-0.736-0.238-0.814-0.346-0.814-1.105
		c0-2.093-0.004-4.184,0.004-6.274c0.001-0.217-0.041-0.34-0.269-0.423c-2.067-0.747-3.704-2.047-4.914-3.881
		c-0.037-0.056-0.082-0.106-0.186-0.24c0,0.214,0,0.339,0,0.464c0,2.294,0.001,4.589-0.001,6.883c0,0.536-0.229,0.843-0.645,0.879
		c-0.454,0.04-0.775-0.262-0.786-0.769c-0.012-0.609-0.003-1.22-0.003-1.828c-0.001-1.84,0-3.681,0-5.613
		c-0.108,0.136-0.171,0.206-0.223,0.283c-1.19,1.77-2.773,3.044-4.776,3.782c-0.273,0.101-0.376,0.229-0.374,0.533
		c0.016,2.066,0.008,4.135,0.008,6.202c0,0.762-0.08,0.872-0.814,1.106c0,0.385,0,0.777,0,1.171c0,1.529,0.001,3.06-0.003,4.589
		c0,0.165-0.013,0.336-0.055,0.495c-0.082,0.31-0.394,0.521-0.703,0.499c-0.316-0.021-0.598-0.258-0.652-0.57
		c-0.024-0.14-0.021-0.285-0.021-0.428c-0.001-1.793-0.001-3.586-0.001-5.379c0-0.128,0-0.257,0-0.405c-1.703,0-3.37,0-5.08,0
		c0,0.135,0,0.261,0,0.389c0,1.852,0.004,3.704-0.002,5.557c-0.002,0.628-0.504,1.007-1.009,0.769
		c-0.334-0.158-0.425-0.455-0.425-0.803c0.004-1.613,0.002-3.227,0.002-4.84c0-0.346,0-0.691,0-1.032
		c-0.758-0.295-0.797-0.354-0.797-1.186c0-2.032-0.001-4.064,0-6.095c0-0.144-0.004-0.289,0.018-0.43
		c0.054-0.331,0.344-0.579,0.67-0.592c0.317-0.011,0.609,0.195,0.691,0.514c0.042,0.159,0.052,0.33,0.052,0.495
		c0.003,1.793,0.002,3.586,0.002,5.379c0,0.127,0,0.255,0,0.401c2.242,0,4.447,0,6.691,0c0-0.156,0-0.296,0-0.436
		c0-1.997-0.001-3.993,0-5.988c0-0.701,0.129-0.875,0.793-1.081c3.63-1.123,6.021-4.38,6.002-8.182
		c-0.001-0.164-0.019-0.339-0.081-0.487c-0.105-0.253-0.319-0.387-0.601-0.364c-0.276,0.022-0.482,0.168-0.542,0.441
		c-0.049,0.218-0.051,0.449-0.059,0.674c-0.093,3.39-2.464,6.217-5.782,6.86c-0.524,0.102-1.067,0.129-1.602,0.134
		c-1.745,0.015-3.49,0.005-5.234,0.006c-1.508,0-2.301,0.793-2.301,2.295c-0.001,2.522-0.001,5.044,0,7.565
		c0,0.766,0.161,0.971,0.892,1.141c0.462,0.107,0.677,0.385,0.623,0.806c-0.05,0.383-0.352,0.608-0.798,0.595
		c-0.909-0.027-1.736-0.648-2.019-1.513c-0.04-0.122-0.088-0.243-0.133-0.363c0-2.965,0-5.929,0-8.893
		c0.021-0.067,0.051-0.133,0.061-0.202c0.222-1.479,1.508-2.692,3.009-2.815c0.539-0.044,1.08-0.052,1.634-0.077
		c-1.009-1.773-0.511-3.985,0.764-4.934c1.1-0.819,2.735-0.885,3.889-0.098c1.168,0.797,1.996,2.671,0.984,4.904
		c0.036,0.005,0.071,0.016,0.102,0.012c0.083-0.013,0.166-0.027,0.247-0.049c1.198-0.333,2.195-0.978,2.974-1.948
		c0.878-1.095,1.271-2.353,1.265-3.754c-0.005-1.364,0.962-2.304,2.246-2.222c0.147,0.01,0.294,0.039,0.467,0.063
		c0-0.161,0-0.291,0-0.421c0-3.034,0.007-6.068-0.008-9.102c-0.002-0.449,0.116-0.787,0.51-1.011c0.144,0,0.287,0,0.43,0
		c0.418,0.165,0.833,0.338,1.254,0.492c2.174,0.792,4.349,1.58,6.525,2.364c0.345,0.125,0.587,0.323,0.605,0.71
		c0.018,0.336-0.192,0.58-0.615,0.739c-0.1,0.038-0.2,0.076-0.301,0.112c-2.209,0.8-4.416,1.603-6.629,2.393
		c-0.248,0.088-0.354,0.195-0.346,0.476c0.023,0.74,0.009,1.481,0.009,2.222c0,0.34,0,0.68,0,1.042
		c0.709-0.168,1.328-0.083,1.88,0.334c0.624,0.473,0.837,1.125,0.84,1.883c0.007,2.15,0.927,3.813,2.731,4.976
		c0.56,0.361,1.171,0.615,1.91,0.723c-0.517-0.838-0.567-1.701-0.469-2.577c0.143-1.256,0.817-2.166,1.962-2.662
		c1.145-0.496,2.271-0.363,3.283,0.39c1.105,0.824,1.445,1.987,1.306,3.296c-0.06,0.563-0.28,1.109-0.43,1.675
		c0.309,0,0.666-0.003,1.023,0c1.206,0.012,2.245,0.421,2.924,1.439c0.32,0.48,0.459,1.082,0.68,1.628
		C38.358,23.9,38.358,24.499,38.358,25.097z M10.988,18.12c-0.001-1.015-0.448-1.717-1.264-1.988
		c-0.919-0.306-1.904,0.121-2.306,0.997c-0.469,1.025-0.113,2.367,0.779,2.851c0.224,0.122,0.486,0.199,0.741,0.235
		C9.89,20.35,11.074,19.61,10.988,18.12z M29.012,18.129c0,1.178,0.663,2.011,1.668,2.091c0.856,0.068,1.617-0.38,1.928-1.137
		c0.356-0.868,0.149-2.058-0.507-2.578c-0.269-0.212-0.618-0.373-0.953-0.439C30.112,15.864,28.93,16.667,29.012,18.129z
		 M20.731,7.056c1.677-0.609,3.312-1.203,4.946-1.796c-0.005-0.026-0.012-0.053-0.017-0.079c-1.634-0.59-3.267-1.181-4.93-1.782
		C20.731,4.632,20.731,5.812,20.731,7.056z"/>
	<path fill-rule="evenodd" clip-rule="evenodd" fill="#0077FF" d="M38.358,32.196c-0.211,0.706-0.549,1.33-1.259,1.638
		c-0.309,0.134-0.658,0.204-0.994,0.232c-0.382,0.031-0.666-0.255-0.701-0.616c-0.037-0.381,0.165-0.663,0.546-0.761
		c0.863-0.223,0.974-0.364,0.974-1.25c0-0.215,0-0.43,0-0.645c0.001-0.537,0.148-0.808,0.502-0.925
		c0.349-0.117,0.618,0.017,0.933,0.461C38.358,30.953,38.358,31.574,38.358,32.196z"/>
	<path fill-rule="evenodd" clip-rule="evenodd" fill="#0077FF" d="M38.358,27.965c-0.047,0.067-0.093,0.135-0.14,0.201
		c-0.198,0.273-0.47,0.368-0.785,0.272c-0.317-0.096-0.497-0.34-0.497-0.668c0-0.324,0.166-0.571,0.491-0.67
		c0.336-0.103,0.607,0,0.806,0.291c0.046,0.068,0.083,0.143,0.125,0.214C38.358,27.726,38.358,27.845,38.358,27.965z"/>
	<path fill-rule="evenodd" clip-rule="evenodd" fill="#0077FF" d="M9.833,36.072c0,0.489,0.007,0.979-0.002,1.469
		c-0.008,0.486-0.274,0.792-0.683,0.81c-0.41,0.02-0.735-0.301-0.743-0.792c-0.015-0.992-0.016-1.984,0.001-2.976
		c0.009-0.477,0.318-0.775,0.725-0.771c0.41,0.006,0.69,0.311,0.7,0.79C9.841,35.091,9.833,35.582,9.833,36.072z"/>
	<path fill-rule="evenodd" clip-rule="evenodd" fill="#0077FF" d="M30.167,36.089c0-0.489-0.007-0.979,0.002-1.47
		c0.01-0.489,0.271-0.79,0.684-0.805c0.423-0.016,0.734,0.288,0.743,0.786c0.016,0.992,0.017,1.983-0.002,2.976
		c-0.008,0.473-0.325,0.783-0.723,0.776c-0.407-0.005-0.69-0.316-0.701-0.793C30.16,37.069,30.168,36.579,30.167,36.089z"/>
	<path fill-rule="evenodd" clip-rule="evenodd" fill="#0077FF" d="M20.029,29.099c0.384,0.015,0.7,0.354,0.682,0.731
		c-0.02,0.384-0.356,0.689-0.74,0.674c-0.383-0.015-0.7-0.356-0.681-0.732C19.31,29.386,19.64,29.085,20.029,29.099z"/>
</g>
</svg>
