<?xml version="1.0" encoding="utf-8"?>
<!-- Generator: Adobe Illustrator 16.0.0, SVG Export Plug-In . SVG Version: 6.00 Build 0)  -->
<!DOCTYPE svg PUBLIC "-//W3C//DTD SVG 1.1//EN" "http://www.w3.org/Graphics/SVG/1.1/DTD/svg11.dtd">
<svg version="1.1" id="Layer_1" xmlns="http://www.w3.org/2000/svg" xmlns:xlink="http://www.w3.org/1999/xlink" x="0px" y="0px"
	 width="40px" height="40px" viewBox="0 0 40 40" enable-background="new 0 0 40 40" xml:space="preserve">
<g>
	<path fill="#0077FF" d="M37.346,31.941c-0.023-1.686-1.063-3.16-2.65-3.756c-0.285-0.107-0.585-0.175-0.875-0.24
		c-0.075-0.018-0.15-0.034-0.226-0.052c1.281-2.034,1.134-3.978-0.414-5.354c-0.7-0.622-1.607-0.966-2.553-0.966
		c-0.907,0-1.788,0.319-2.479,0.899c-1.596,1.337-1.766,3.26-0.486,5.43c-0.142,0.015-0.287,0.031-0.427,0.078
		c-0.221,0.074-0.38-0.006-0.608-0.146c-0.538-0.334-1.069-0.649-1.642-0.838c-0.411-0.135-0.847-0.191-1.268-0.246
		c-0.103-0.014-0.204-0.026-0.305-0.041c0.885-0.978,1.337-2.136,1.309-3.363c-0.029-1.273-0.582-2.532-1.479-3.368
		c-0.881-0.821-2.034-1.272-3.246-1.272c-1.121,0-2.202,0.396-3.044,1.116c-0.953,0.813-1.502,1.85-1.634,3.079
		c-0.153,1.436,0.295,2.726,1.333,3.84h-0.002c-1.297,0-2.465,0.413-3.47,1.229c-0.039,0.032-0.103,0.057-0.157,0.057
		c0,0-0.001,0-0.002,0c-0.203-0.027-0.404-0.067-0.608-0.108l-0.053-0.011c1.644-2.192,0.682-4.388-0.396-5.35
		c-0.71-0.633-1.627-0.981-2.584-0.981c-0.895,0-1.764,0.312-2.448,0.877c-0.72,0.597-1.17,1.365-1.338,2.286
		c-0.208,1.146,0.064,2.187,0.834,3.175c-2.361,0.335-3.771,1.964-3.771,4.365v3.48c0,0.085-0.004,0.171-0.007,0.258
		c-0.01,0.219-0.02,0.444,0.03,0.662c0.052,0.231,0.25,0.486,0.449,0.58c0.055,0.025,0.121,0.039,0.198,0.039
		c0.149,0,0.366-0.056,0.485-0.176c0.169-0.166,0.232-0.462,0.234-0.664c0.01-0.895,0.009-1.789,0.008-2.685
		c0-0.553,0-1.105,0.001-1.658c0.006-1.63,1.192-2.817,2.82-2.823c0.673-0.002,1.347-0.003,2.021-0.003l2.93,0.002
		c0.068,0,0.137,0.005,0.22,0.011c-0.766,1.207-0.808,2.521-0.783,3.768c0.016,0.771,0.012,1.555,0.008,2.313
		c-0.002,0.34-0.003,0.681-0.003,1.022l-0.001,0.075c-0.002,0.074-0.003,0.151,0.01,0.231c0.066,0.38,0.313,0.602,0.698,0.607
		c0.355,0,0.602-0.214,0.678-0.587c0.018-0.09,0.016-0.179,0.014-0.265l-0.001-0.082c0-0.451-0.002-0.903-0.005-1.354
		c-0.005-0.99-0.012-2.015,0.014-3.02c0.041-1.615,0.814-2.801,2.299-3.525c0.624-0.306,1.282-0.348,1.9-0.348
		c0.173,0,0.347,0.004,0.521,0.007c0.125,0.003,0.25,0.006,0.353,0.003c0.022,0.012,0.075,0.077,0.099,0.137l0.057,0.141
		c0.136,0.331,0.277,0.674,0.376,1.02c0.08,0.281,0.106,0.537,0.075,0.74c-0.228,1.473-0.481,2.946-0.742,4.452
		c-0.061,0.347,0.015,0.61,0.239,0.83c0.242,0.239,0.482,0.48,0.723,0.722c0.291,0.292,0.583,0.585,0.877,0.873
		c0.186,0.183,0.366,0.271,0.55,0.271c0.187,0,0.371-0.092,0.561-0.278c0.288-0.282,0.573-0.567,0.858-0.854
		c0.239-0.239,0.478-0.479,0.719-0.717c0.231-0.227,0.316-0.496,0.259-0.824c-0.084-0.495-0.165-0.991-0.246-1.487
		c-0.146-0.893-0.297-1.814-0.467-2.72c-0.093-0.484-0.047-0.898,0.143-1.306c0.061-0.128,0.103-0.272,0.144-0.413
		c0.067-0.228,0.137-0.462,0.27-0.553c0.078-0.053,0.192-0.078,0.361-0.078c0.108,0,0.223,0.01,0.336,0.02
		c0.12,0.01,0.239,0.02,0.351,0.02c2.381,0.003,4.047,1.671,4.052,4.057c0.002,0.917,0.001,1.834,0.001,2.751l-0.001,1.446
		c-0.001,0.062-0.001,0.123,0.001,0.186c0.019,0.434,0.292,0.731,0.7,0.742c0.402,0,0.694-0.317,0.694-0.755l0.003-0.836
		c0.004-1.303,0.008-2.648-0.013-3.974c-0.011-0.766-0.229-1.521-0.667-2.314l-0.085-0.156l3.46-0.001l1.603,0.001
		c1.74,0.003,2.912,1.173,2.916,2.91c0.001,0.597,0,1.192,0,1.789c0,0.851-0.001,1.702,0.002,2.553
		c0.001,0.458,0.274,0.772,0.699,0.783c0.415,0,0.694-0.317,0.695-0.791l0.003-1.052C37.358,34.323,37.363,33.122,37.346,31.941z
		 M30.637,22.853l0.014,0.124c1.347,0.008,2.438,1.117,2.434,2.473c-0.007,1.347-1.111,2.442-2.465,2.442
		c-0.651,0-1.266-0.256-1.73-0.722s-0.721-1.081-0.72-1.733c0.001-1.356,1.108-2.46,2.468-2.46V22.853L30.637,22.853z
		 M20.003,19.982l0.016,0.124c1.827,0.008,3.309,1.503,3.303,3.333c-0.005,1.822-1.489,3.305-3.331,3.305c0,0,0,0,0,0
		c-0.888-0.006-1.72-0.357-2.343-0.989c-0.627-0.636-0.969-1.481-0.961-2.381c0.015-1.802,1.503-3.268,3.317-3.268V19.982
		L20.003,19.982z M20.675,28.249c-0.095,0.262-0.185,0.509-0.283,0.742c-0.014,0.016-0.075,0.042-0.124,0.046
		c-0.158,0.014-0.281,0.024-0.378,0.024c-0.246,0-0.268-0.027-0.471-0.572c-0.038-0.101-0.073-0.203-0.111-0.315l-0.005-0.016h1.405
		L20.675,28.249z M19.671,30.857l0.078-0.406h0.521c0.107,0.621,0.214,1.241,0.32,1.86l0.105,0.642
		c0.079,0.48,0.158,0.961,0.245,1.44c0.037,0.208,0.002,0.327-0.136,0.456c-0.205,0.19-0.396,0.399-0.599,0.621
		c-0.066,0.073-0.135,0.147-0.206,0.225l-0.19-0.202c-0.252-0.267-0.484-0.513-0.708-0.767c-0.032-0.036-0.054-0.128-0.044-0.187
		C19.257,33.312,19.464,32.085,19.671,30.857z M9.393,22.853l0.009,0.124c1.348,0.004,2.442,1.11,2.439,2.467
		c-0.003,1.348-1.105,2.446-2.462,2.448c-1.352,0-2.452-1.098-2.453-2.447c0-0.66,0.256-1.279,0.722-1.745s1.085-0.723,1.745-0.723
		V22.853L9.393,22.853z"/>
	<path fill="#0077FF" d="M14.927,8.602c0.472,0.463,0.944,0.926,1.425,1.381c0.144,0.136,0.183,0.255,0.147,0.454
		c-0.077,0.429-0.15,0.859-0.223,1.289c-0.095,0.559-0.19,1.117-0.293,1.674c-0.048,0.26-0.062,0.588,0.261,0.828
		c0.119,0.088,0.249,0.133,0.386,0.133c0.18,0,0.346-0.076,0.484-0.149c0.346-0.184,0.694-0.366,1.042-0.548
		c0.541-0.283,1.083-0.566,1.619-0.859c0.177-0.097,0.283-0.097,0.474,0.006c0.543,0.295,1.092,0.582,1.64,0.869
		c0.352,0.184,0.702,0.368,1.053,0.554c0.161,0.086,0.305,0.128,0.438,0.128c0.143,0,0.277-0.048,0.399-0.143
		c0.313-0.242,0.295-0.57,0.254-0.795c-0.092-0.503-0.178-1.007-0.265-1.511c-0.082-0.485-0.165-0.969-0.253-1.453
		c-0.039-0.215,0.001-0.342,0.153-0.485c0.649-0.612,1.327-1.273,2.134-2.08c0.114-0.115,0.197-0.254,0.264-0.366
		c0.024-0.04,0.046-0.077,0.066-0.107l0.027-0.04l-0.007-0.048c-0.067-0.46-0.282-0.7-0.677-0.756
		c-0.394-0.056-0.787-0.114-1.181-0.171c-0.599-0.087-1.198-0.174-1.798-0.258c-0.252-0.034-0.381-0.086-0.481-0.304
		c-0.257-0.56-0.536-1.119-0.806-1.66c-0.163-0.326-0.325-0.652-0.484-0.98c-0.123-0.251-0.315-0.539-0.728-0.539
		c-0.399,0.004-0.587,0.281-0.718,0.551c-0.169,0.349-0.341,0.696-0.513,1.042c-0.258,0.52-0.515,1.04-0.762,1.564
		c-0.098,0.208-0.211,0.292-0.432,0.322c-0.506,0.068-1.012,0.143-1.517,0.217c-0.475,0.07-0.951,0.14-1.426,0.205
		c-0.28,0.038-0.584,0.125-0.713,0.491c-0.129,0.366,0.067,0.623,0.275,0.825C14.437,8.122,14.682,8.362,14.927,8.602z
		 M22.057,10.227c0.102,0.546,0.195,1.095,0.292,1.662l0.085,0.496c-0.142-0.074-0.281-0.146-0.419-0.218
		c-0.508-0.263-0.987-0.511-1.462-0.776c-0.19-0.106-0.369-0.158-0.547-0.158s-0.357,0.052-0.547,0.159
		c-0.479,0.27-0.964,0.52-1.478,0.785c-0.133,0.068-0.267,0.138-0.403,0.208c0.026-0.158,0.052-0.314,0.077-0.469
		c0.091-0.558,0.177-1.085,0.283-1.614c0.084-0.42-0.014-0.742-0.32-1.044c-0.388-0.382-0.766-0.789-1.132-1.183
		c-0.1-0.108-0.201-0.216-0.301-0.324c0.126-0.019,0.253-0.039,0.381-0.059c0.495-0.077,1.007-0.157,1.519-0.21
		c0.506-0.053,0.822-0.279,1.023-0.733c0.207-0.467,0.437-0.924,0.681-1.408c0.071-0.14,0.143-0.282,0.215-0.428
		c0.075,0.15,0.149,0.296,0.222,0.44c0.254,0.502,0.494,0.976,0.71,1.46c0.182,0.401,0.464,0.604,0.917,0.659
		c0.523,0.063,1.044,0.14,1.596,0.221c0.157,0.023,0.317,0.047,0.48,0.071c-0.031,0.035-0.06,0.067-0.09,0.097l-0.368,0.36
		c-0.371,0.365-0.742,0.73-1.123,1.085C22.08,9.558,21.987,9.85,22.057,10.227z"/>
	<path fill="#0077FF" d="M5.119,13.935c0.319,0.313,0.639,0.625,0.962,0.934c0.123,0.117,0.149,0.196,0.12,0.352
		c-0.111,0.576-0.206,1.154-0.298,1.713l-0.102,0.619c-0.011,0.258,0.062,0.483,0.206,0.634c0.202,0.21,0.529,0.25,0.838,0.095
		c0.624-0.314,1.299-0.669,2.065-1.084c0.15-0.081,0.231-0.082,0.371-0.004c0.391,0.216,0.788,0.424,1.184,0.631
		c0.239,0.125,0.478,0.25,0.716,0.377c0.177,0.095,0.352,0.18,0.544,0.18c0.137,0,0.268-0.045,0.39-0.134
		c0.355-0.259,0.292-0.633,0.245-0.906l-0.078-0.467c-0.089-0.543-0.182-1.104-0.292-1.654c-0.031-0.152-0.004-0.231,0.12-0.35
		l0.18-0.17c0.48-0.456,0.976-0.927,1.436-1.419c0.162-0.172,0.268-0.475,0.253-0.72c-0.011-0.172-0.109-0.472-0.649-0.546
		c-0.844-0.116-1.551-0.219-2.263-0.344c-0.101-0.018-0.233-0.109-0.278-0.193c-0.339-0.641-0.649-1.277-0.989-1.982
		C9.636,9.148,9.405,8.98,9.096,8.98c-0.309,0-0.54,0.169-0.706,0.515c-0.148,0.309-0.301,0.616-0.453,0.922
		c-0.167,0.335-0.333,0.67-0.494,1.007c-0.086,0.182-0.17,0.247-0.346,0.268c-0.441,0.052-0.887,0.12-1.317,0.185
		c-0.294,0.044-0.589,0.089-0.884,0.129c-0.242,0.033-0.577,0.124-0.695,0.524c-0.104,0.348,0.086,0.593,0.286,0.787
		C4.698,13.522,4.909,13.729,5.119,13.935z M10.626,15.57c0.064,0.208,0.095,0.427,0.13,0.681c0.007,0.049,0.014,0.098,0.021,0.148
		c-0.079-0.041-0.157-0.08-0.233-0.119c-0.319-0.164-0.621-0.317-0.912-0.485c-0.372-0.214-0.703-0.214-1.064-0.002
		c-0.297,0.173-0.607,0.332-0.934,0.5c-0.072,0.037-0.144,0.074-0.218,0.112c0.015-0.087,0.029-0.174,0.042-0.259
		c0.059-0.358,0.113-0.694,0.181-1.029c0.082-0.409-0.024-0.731-0.332-1.012c-0.246-0.225-0.476-0.468-0.719-0.726
		c-0.055-0.059-0.11-0.117-0.167-0.176c0.073-0.012,0.146-0.023,0.218-0.035c0.37-0.06,0.719-0.116,1.077-0.156
		c0.372-0.041,0.62-0.221,0.781-0.566c0.149-0.319,0.307-0.634,0.478-0.973l0.121-0.242l0.134,0.269
		c0.168,0.337,0.324,0.649,0.472,0.964c0.156,0.333,0.396,0.506,0.755,0.546c0.352,0.041,0.708,0.096,1.084,0.155
		c0.09,0.014,0.182,0.028,0.276,0.043c-0.031,0.032-0.062,0.064-0.092,0.096c-0.169,0.179-0.33,0.347-0.509,0.479
		C10.59,14.242,10.396,14.828,10.626,15.57z"/>
	<path fill="#0077FF" d="M26.023,12.511c-0.133,0.409,0.144,0.675,0.292,0.819c0.199,0.192,0.396,0.387,0.595,0.581
		c0.323,0.317,0.646,0.634,0.976,0.945c0.131,0.124,0.161,0.213,0.129,0.381c-0.107,0.552-0.198,1.106-0.286,1.642
		c-0.037,0.228-0.074,0.453-0.113,0.69c-0.008,0.251,0.066,0.469,0.209,0.615c0.205,0.212,0.539,0.25,0.854,0.089
		c0.303-0.153,0.604-0.312,0.904-0.471c0.386-0.204,0.771-0.407,1.163-0.601c0.082-0.042,0.255-0.042,0.334-0.003
		c0.386,0.191,0.767,0.393,1.147,0.594c0.305,0.161,0.609,0.323,0.917,0.479c0.14,0.071,0.277,0.107,0.411,0.107
		c0.182,0,0.346-0.07,0.463-0.197c0.141-0.152,0.206-0.377,0.186-0.632c-0.006-0.076-0.016-0.151-0.028-0.227l-0.097-0.554
		c-0.09-0.512-0.183-1.041-0.257-1.563c-0.014-0.094,0.038-0.249,0.105-0.319c0.231-0.238,0.471-0.47,0.71-0.702
		c0.306-0.296,0.622-0.603,0.919-0.92c0.153-0.166,0.252-0.47,0.235-0.723c-0.02-0.285-0.241-0.472-0.625-0.527
		c-0.739-0.103-1.504-0.21-2.263-0.346c-0.11-0.02-0.256-0.12-0.304-0.21c-0.334-0.625-0.639-1.253-0.974-1.95
		c-0.108-0.228-0.301-0.53-0.735-0.53c-0.399,0.011-0.587,0.308-0.692,0.53c-0.146,0.302-0.294,0.601-0.442,0.901
		c-0.164,0.332-0.329,0.663-0.488,0.997c-0.081,0.172-0.161,0.264-0.372,0.288c-0.451,0.05-0.906,0.12-1.347,0.187
		c-0.273,0.042-0.546,0.083-0.819,0.121C26.467,12.04,26.147,12.13,26.023,12.511z M32.384,15.219
		c0.065,0.298,0.114,0.602,0.166,0.924c0.014,0.084,0.028,0.17,0.042,0.257c-0.063-0.032-0.127-0.063-0.188-0.094
		c-0.273-0.136-0.532-0.264-0.77-0.415c-0.511-0.325-0.951-0.325-1.427-0.006c-0.234,0.157-0.498,0.287-0.777,0.424
		c-0.063,0.031-0.128,0.063-0.194,0.096c0.011-0.071,0.021-0.142,0.032-0.211c0.048-0.317,0.094-0.618,0.163-0.908
		c0.128-0.545,0.006-0.937-0.396-1.271c-0.229-0.191-0.439-0.411-0.662-0.644c-0.052-0.054-0.104-0.11-0.158-0.166
		c0.086-0.014,0.171-0.027,0.255-0.041c0.372-0.059,0.724-0.115,1.079-0.156c0.359-0.041,0.6-0.214,0.756-0.544
		c0.151-0.322,0.311-0.64,0.482-0.983l0.122-0.245l0.003,0.005c0.08,0.154,0.152,0.292,0.223,0.431l0.085,0.167
		c0.083,0.162,0.17,0.33,0.237,0.5c0.174,0.434,0.473,0.652,0.941,0.688c0.32,0.024,0.635,0.078,0.968,0.134
		c0.072,0.012,0.145,0.024,0.217,0.036c-0.05,0.053-0.099,0.107-0.147,0.16c-0.227,0.247-0.439,0.479-0.678,0.688
		C32.396,14.363,32.277,14.735,32.384,15.219z"/>
	<path fill="#0077FF" d="M6.923,33.275c-0.005-0.471-0.283-0.786-0.717-0.786h0c-0.409,0.012-0.675,0.319-0.677,0.783
		c-0.004,1.09-0.004,2.177,0,3.267c0.002,0.471,0.281,0.787,0.693,0.787h0.024c0.407-0.013,0.673-0.32,0.678-0.784
		c0.004-0.385,0.003-0.771,0.002-1.156l-0.001-0.495l0.001-0.484C6.927,34.029,6.927,33.652,6.923,33.275z M6.221,37.197
		L6.221,37.197v0.004V37.197z"/>
	<path fill="#0077FF" d="M14.82,32.489C14.82,32.489,14.82,32.489,14.82,32.489c-0.409,0.011-0.676,0.317-0.681,0.781
		c-0.003,0.373-0.002,0.746-0.002,1.118l0.001,0.497l-0.001,0.509c0,0.381-0.001,0.762,0.002,1.143
		c0.005,0.473,0.284,0.789,0.694,0.789h0.022c0.404-0.011,0.678-0.325,0.679-0.782c0.005-1.089,0.005-2.178,0-3.267
		C15.534,32.806,15.255,32.489,14.82,32.489z M14.833,37.198C14.833,37.198,14.833,37.198,14.833,37.198v0.003V37.198z"/>
	<path fill="#0077FF" d="M25.171,32.489c-0.42,0-0.693,0.315-0.696,0.803c-0.004,0.376-0.003,0.753-0.003,1.129l0.001,0.451
		l-0.001,0.471c0,0.394-0.001,0.787,0.003,1.18c0.002,0.488,0.276,0.804,0.697,0.804c0.422,0,0.696-0.315,0.698-0.805
		c0.003-1.076,0.003-2.152,0-3.229C25.868,32.805,25.594,32.489,25.171,32.489z"/>
	<path fill="#0077FF" d="M34.481,33.284c-0.005-0.483-0.277-0.795-0.707-0.795c-0.41,0.005-0.687,0.316-0.688,0.775
		c-0.004,1.1-0.005,2.201,0.001,3.302c0.002,0.447,0.288,0.76,0.694,0.76h0.012c0.407-0.007,0.683-0.318,0.688-0.774
		c0.005-0.381,0.004-0.761,0.003-1.142l-0.001-0.475l0.001-0.517C34.484,34.041,34.485,33.662,34.481,33.284z M33.781,37.199
		L33.781,37.199v0.002V37.199z"/>
</g>
</svg>
