<?xml version="1.0" encoding="utf-8"?>
<!-- Generator: Adobe Illustrator 16.0.0, SVG Export Plug-In . SVG Version: 6.00 Build 0)  -->
<!DOCTYPE svg PUBLIC "-//W3C//DTD SVG 1.1//EN" "http://www.w3.org/Graphics/SVG/1.1/DTD/svg11.dtd">
<svg version="1.1" id="Layer_1" xmlns="http://www.w3.org/2000/svg" xmlns:xlink="http://www.w3.org/1999/xlink" x="0px" y="0px"
	 width="40px" height="40px" viewBox="0 0 40 40" enable-background="new 0 0 40 40" xml:space="preserve">
<g>
	<path fill="#0077FF" d="M2.282,7.437c0.089,0,0.185-0.017,0.286-0.05c0.534-0.182,0.6-0.636,0.598-1.012
		C3.16,5.634,3.161,4.894,3.162,4.15l0.001-0.986l3.208,0.001l0.138-0.001c0.546-0.015,0.937-0.382,0.928-0.873
		C7.428,1.806,7.042,1.452,6.52,1.449L5.719,1.448L4.202,1.449c-0.561,0-1.121-0.002-1.705-0.008c-0.483,0-0.817,0.185-1.023,0.565
		l-0.03,4.845l0.047,0.068C1.622,7.101,1.866,7.437,2.282,7.437z"/>
	<path fill="#0077FF" d="M6.467,36.839c-0.405-0.002-0.811-0.002-1.216-0.002l-2.088,0.001v-1.095
		c0.001-0.742,0.001-1.484-0.002-2.228c-0.001-0.594-0.439-1.036-0.936-0.931C2.02,32.632,1.858,32.77,1.692,32.91
		c-0.047,0.039-0.094,0.079-0.143,0.113l-0.105,0.075v4.847l0.036,0.059c0.224,0.373,0.527,0.555,0.927,0.555h0.008
		c0.606-0.004,1.213-0.006,1.821-0.006l1.514,0.002l0.737-0.002c0.551-0.003,0.942-0.351,0.951-0.846
		c0.003-0.23-0.076-0.435-0.229-0.59C7.031,36.938,6.768,36.84,6.467,36.839z"/>
	<path fill="#0077FF" d="M36.049,30.67c-0.274-1.415-1.498-2.37-3.045-2.376c-0.855-0.005-1.707-0.006-2.561-0.006l-3.67,0.002
		c0.314-0.756,0.245-1.621-0.197-2.352c-0.506-0.837-1.386-1.317-2.416-1.317l-0.076,0.001c-0.961,0.023-1.922,0.015-2.885-0.005
		c-0.139-0.002-0.312-0.063-0.42-0.148c-0.732-0.578-1.659-0.896-2.608-0.896c-0.949,0-1.874,0.319-2.607,0.898
		c-0.107,0.086-0.279,0.146-0.417,0.147c-1.724,0.008-3.446,0.008-5.169,0.008l-2.586,0.001c-0.751,0-1.071,0.318-1.071,1.064
		c-0.001,3.121-0.001,6.242,0,9.365c0,0.744,0.321,1.062,1.072,1.063l4.251,0.001l0.231,0.003c0.21,0,0.587,0,0.848-0.305
		l1.393,0.534c1.078,0.414,2.14,0.822,3.199,1.234c0.956,0.374,1.927,0.563,2.886,0.563c0.782,0,1.573-0.126,2.352-0.373
		c1.702-0.541,3.405-1.085,5.106-1.629l2.708-0.863c1.302-0.413,2.475-0.787,3.639-1.173C35.528,33.608,36.349,32.225,36.049,30.67z
		 M18.157,25.279c0.622,0,1.214,0.234,1.667,0.659c0.303,0.286,0.632,0.413,1.068,0.413c1.106-0.014,2.214-0.017,3.316-0.002
		c0.361,0.005,0.676,0.158,0.863,0.418c0.173,0.243,0.216,0.556,0.119,0.857c-0.13,0.402-0.479,0.649-0.936,0.66
		c-0.254,0.007-0.508,0.009-0.762,0.009l-1.057-0.004l-1.198,0.001c-0.804,0-1.607,0-2.411,0.002c-0.139,0-0.312,0-0.481,0.037
		c-0.394,0.087-0.644,0.396-0.652,0.805c-0.008,0.432,0.245,0.755,0.66,0.843c0.154,0.033,0.305,0.036,0.459,0.036l4.746,0.001
		c3.096,0.001,6.191,0.001,9.288,0.005c0.227,0,0.466,0.005,0.673,0.063c0.498,0.141,0.857,0.614,0.874,1.151
		c0.018,0.541-0.308,1.021-0.81,1.193c-0.805,0.28-1.633,0.544-2.435,0.799l-0.781,0.25c-0.878,0.28-1.757,0.561-2.636,0.84
		l-0.652,0.208c-1.636,0.522-3.271,1.044-4.904,1.573c-1.438,0.468-2.873,0.426-4.268-0.124c-1.374-0.541-2.888-1.123-4.767-1.831
		c-0.202-0.075-0.221-0.119-0.22-0.292c0.011-1.746,0.01-3.49,0.009-5.234l0.001-2.269h1.431c0.101,0,0.201-0.002,0.304-0.004
		c0.216-0.005,0.429-0.008,0.649,0.008c0.496,0.017,0.887-0.121,1.27-0.47C17.011,25.493,17.57,25.279,18.157,25.279z
		 M11.185,26.372v8.013H8.059v-8.013H11.185z"/>
	<path fill="#0077FF" d="M16.419,22.688c0.397,0.002,0.794,0.002,1.191,0.002l2.383-0.002l1.191,0.002l2.383-0.002
		c2.621-0.008,4.604-1.991,4.613-4.614c0.001-0.322,0.001-0.643,0-0.964v-0.481c-0.002-0.721-0.004-1.442,0.004-2.164
		c0.018-2.24-0.778-4.167-2.367-5.727c-0.311-0.306-0.617-0.613-0.925-0.921l-0.131-0.131c-0.415-0.417-0.829-0.833-1.251-1.243
		c-0.081-0.08-0.095-0.109-0.051-0.236c0.29-0.843,0.569-1.69,0.849-2.537l0.104-0.31c0.13-0.396,0.11-0.716-0.057-0.95
		c-0.168-0.232-0.462-0.35-0.873-0.35c-2.323-0.004-4.646-0.002-6.971,0c-0.416,0.001-0.711,0.12-0.879,0.353
		c-0.168,0.232-0.188,0.549-0.058,0.942l0.139,0.421c0.258,0.783,0.526,1.593,0.807,2.392c0.053,0.151,0.04,0.203-0.082,0.322
		c-0.846,0.822-1.658,1.641-2.408,2.402c-1.474,1.494-2.22,3.33-2.219,5.456v1.799c0,0.64,0,1.28,0.001,1.919
		C11.82,20.689,13.799,22.677,16.419,22.688z M22.336,4.174C22.166,4.685,22,5.185,21.825,5.681
		c-0.018,0.014-0.05,0.031-0.059,0.034c-1.18,0.014-2.361,0.013-3.528,0c-0.014-0.003-0.047-0.021-0.064-0.034
		c-0.189-0.533-0.366-1.07-0.548-1.622l-0.083-0.251h4.912L22.336,4.174z M18.049,7.45c1.296-0.014,2.594-0.014,3.889,0.001
		c0.079,0,0.196,0.051,0.257,0.111c0.788,0.771,1.717,1.686,2.625,2.621c1.057,1.087,1.608,2.416,1.639,3.95
		c0.025,1.312,0.017,2.639,0.005,3.995c-0.018,1.636-1.225,2.83-2.869,2.838c-0.443,0.004-0.885,0.004-1.327,0.004l-2.281-0.003
		l-2.176,0.003c-0.451,0-0.901-0.002-1.36-0.004c-1.708-0.005-2.907-1.197-2.915-2.9l-0.001-0.158
		c-0.006-1.08-0.013-2.423,0.002-3.697c0.02-1.569,0.57-2.922,1.636-4.021c0.911-0.941,1.845-1.861,2.646-2.647
		C17.871,7.494,17.978,7.451,18.049,7.45z"/>
	<path fill="#0077FF" d="M33.485,3.162c0.467,0.003,0.935,0.003,1.4,0.003l1.95-0.001v0.965c-0.001,0.795-0.001,1.59,0.003,2.386
		c0.001,0.529,0.344,0.909,0.836,0.923h0.021c0.494,0,0.854-0.391,0.855-0.93c0.006-1.382,0.006-2.764,0-4.147
		c-0.003-0.569-0.347-0.91-0.917-0.914c-1.385-0.005-2.764-0.005-4.148,0c-0.278,0.001-0.525,0.101-0.695,0.279
		c-0.156,0.162-0.236,0.376-0.228,0.604C32.577,2.818,32.957,3.16,33.485,3.162z"/>
	<path fill="#0077FF" d="M38.548,33.41c-0.004-0.464-0.378-0.836-0.856-0.848c-0.454,0-0.82,0.363-0.853,0.846
		c-0.006,0.092-0.005,0.184-0.004,0.275l0.001,3.154l-1.995-0.001c-0.454,0-0.908,0-1.363,0.003
		c-0.523,0.003-0.908,0.358-0.915,0.843c-0.005,0.227,0.08,0.441,0.239,0.604c0.17,0.171,0.404,0.266,0.657,0.266
		c0.756,0.005,1.514,0.007,2.268,0.007c0.636,0,1.27-0.002,1.917-0.004c0.536-0.006,0.899-0.349,0.904-0.854
		C38.559,36.326,38.559,34.923,38.548,33.41z"/>
	<path fill="#0077FF" d="M8.832,28.52c0.011,0.012,0.021,0.024,0.039,0.048c0.064,0.08,0.161,0.201,0.325,0.215
		c0.153,0.009,0.308,0.012,0.463,0.012h0l0.804-0.005v-1.647l-0.215-0.033c-0.33-0.046-0.543-0.065-0.711-0.065
		c-0.287,0-0.472,0.061-0.598,0.195C8.749,27.44,8.73,27.729,8.76,28.29C8.757,28.328,8.75,28.432,8.832,28.52z"/>
	<path fill="#0077FF" d="M19.065,15.005l0.21,0.103c0.306,0.147,0.622,0.299,0.917,0.472c0.072,0.042,0.133,0.133,0.139,0.145
		c-0.008,0.037-0.076,0.124-0.105,0.136c-0.125,0.046-0.314,0.053-0.441,0.016c-0.122-0.035-0.243-0.097-0.38-0.17
		c-0.108-0.057-0.221-0.116-0.342-0.163c-0.384-0.146-0.853,0.035-1.041,0.399c-0.197,0.377-0.092,0.833,0.247,1.083
		c0.159,0.118,0.308,0.196,0.455,0.24c0.372,0.109,0.49,0.294,0.422,0.659c-0.026,0.142-0.003,0.281,0.013,0.372
		c0.071,0.425,0.411,0.728,0.829,0.734H20c0.421,0,0.771-0.303,0.834-0.72c0.031-0.213,0.039-0.436,0.023-0.663
		c-0.013-0.14,0.013-0.182,0.147-0.245c0.7-0.329,1.069-0.909,1.068-1.677c-0.001-0.73-0.36-1.302-1.038-1.654
		c-0.129-0.068-0.262-0.133-0.394-0.198l-0.079-0.039c-0.229-0.111-0.488-0.238-0.725-0.374c-0.088-0.052-0.161-0.151-0.168-0.158
		c0.01-0.037,0.091-0.134,0.142-0.154c0.094-0.036,0.274-0.04,0.394-0.004c0.116,0.035,0.232,0.097,0.357,0.164
		c0.109,0.058,0.219,0.115,0.333,0.161c0.482,0.191,1.164-0.068,1.183-0.911l0.002-0.097l-0.063-0.073
		c-0.012-0.013-0.023-0.033-0.05-0.074c-0.085-0.13-0.212-0.328-0.421-0.409c-0.713-0.272-0.797-0.575-0.703-1
		c0.015-0.054,0.01-0.099,0.006-0.138c-0.069-0.46-0.403-0.762-0.852-0.769c-0.461,0-0.803,0.321-0.85,0.801
		c-0.008,0.094-0.006,0.191-0.004,0.289c0.003,0.105,0.005,0.205-0.012,0.288c-0.02,0.097-0.075,0.187-0.096,0.201
		c-0.742,0.383-1.116,0.962-1.113,1.724C17.927,14.065,18.312,14.639,19.065,15.005z"/>
</g>
</svg>
