<?xml version="1.0" encoding="utf-8"?>
<!-- Generator: Adobe Illustrator 16.0.0, SVG Export Plug-In . SVG Version: 6.00 Build 0)  -->
<!DOCTYPE svg PUBLIC "-//W3C//DTD SVG 1.1//EN" "http://www.w3.org/Graphics/SVG/1.1/DTD/svg11.dtd">
<svg version="1.1" id="Layer_1" xmlns="http://www.w3.org/2000/svg" xmlns:xlink="http://www.w3.org/1999/xlink" x="0px" y="0px"
	 width="40px" height="40px" viewBox="0 0 40 40" enable-background="new 0 0 40 40" xml:space="preserve">
<g>
	<path fill="#0077FF" d="M38.791,11.636h-0.125c-0.213,0-0.422,0.003-0.627,0.006c-0.437,0.007-0.861,0.012-1.285-0.012
		c-0.266-0.015-0.531-0.027-0.798-0.041c-0.942-0.045-1.916-0.092-2.854-0.238c-1.636-0.255-3.222-0.908-4.849-1.994
		c-0.336-0.225-0.574-0.218-0.875,0.011c-0.258,0.198-0.555,0.362-0.842,0.521l-0.104,0.057c-1.048,0.582-2.128,1.004-3.299,1.289
		l-0.001-0.165c-0.001-0.248-0.003-0.483,0.006-0.719c0.006-0.183-0.03-0.4-0.358-0.457c-0.407-0.071-0.737-0.151-1.04-0.25
		C21.637,9.61,21.514,9.5,21.467,9.398c-0.23-0.491-0.442-1-0.631-1.512c-0.037-0.103-0.026-0.269,0.023-0.361
		c0.15-0.281,0.321-0.551,0.486-0.812c0.063-0.1,0.125-0.198,0.185-0.294l0.052-0.084l-3.379-3.382l-0.084,0.052
		c-0.05,0.031-0.104,0.061-0.16,0.091c-0.13,0.072-0.279,0.154-0.405,0.264c-0.489,0.427-0.916,0.456-1.45,0.104
		c-0.17-0.112-0.375-0.172-0.573-0.23c-0.234-0.069-0.456-0.134-0.571-0.271c-0.147-0.176-0.192-0.451-0.24-0.742
		c-0.027-0.165-0.056-0.336-0.104-0.495c-0.048-0.154-0.255-0.313-0.41-0.314c-1.354-0.015-2.703-0.006-4.069-0.014
		c-0.258,0-0.389,0.111-0.437,0.37c-0.077,0.407-0.163,0.76-0.264,1.08C9.412,2.923,9.318,3.023,9.231,3.062
		C8.687,3.31,8.18,3.52,7.68,3.706C7.592,3.74,7.435,3.729,7.354,3.686C7.069,3.532,6.793,3.359,6.526,3.192
		C6.427,3.131,6.33,3.07,6.234,3.011L6.15,2.959L2.771,6.353l0.052,0.084c0.06,0.098,0.123,0.197,0.186,0.298
		c0.166,0.263,0.337,0.536,0.49,0.818C3.542,7.631,3.546,7.781,3.508,7.88C3.31,8.41,3.097,8.919,2.875,9.393
		C2.827,9.498,2.706,9.609,2.606,9.642C2.423,9.702,2.229,9.746,2.04,9.789C1.864,9.828,1.689,9.867,1.518,9.919
		c-0.134,0.042-0.3,0.227-0.301,0.384c-0.015,1.442-0.014,2.785,0.001,4.104c0.001,0.163,0.178,0.357,0.322,0.403
		c0.182,0.058,0.369,0.101,0.55,0.142c0.179,0.041,0.364,0.083,0.539,0.139c0.09,0.029,0.2,0.131,0.244,0.227
		c0.223,0.483,0.441,1.004,0.648,1.549c0.033,0.087,0.028,0.225-0.01,0.294c-0.161,0.292-0.342,0.581-0.502,0.835l-0.224,0.36
		l3.394,3.396l0.084-0.052c0.041-0.025,0.087-0.05,0.135-0.076c0.124-0.067,0.264-0.144,0.384-0.252
		c0.482-0.432,0.922-0.46,1.484-0.098c0.166,0.106,0.363,0.168,0.554,0.229c0.236,0.073,0.459,0.144,0.579,0.286
		c0.142,0.167,0.184,0.435,0.228,0.717c0.025,0.162,0.052,0.33,0.099,0.485c0.043,0.145,0.237,0.322,0.402,0.324
		c1.368,0.016,2.735,0.016,4.104,0c0.159-0.002,0.344-0.185,0.392-0.335c0.058-0.185,0.102-0.374,0.144-0.558
		c0.041-0.177,0.083-0.359,0.137-0.533c0.026-0.084,0.117-0.186,0.199-0.222c0.284-0.129,0.572-0.248,0.861-0.366
		c0.231-0.095,0.463-0.189,0.692-0.29c0.083-0.036,0.15-0.055,0.202-0.055c0.044,0,0.125,0,0.162,0.248
		c0.354,2.444,1.251,4.682,2.665,6.651c0.114,0.16,0.135,0.287,0.08,0.483c-0.371,1.325-0.731,2.653-1.092,3.98l-0.198,0.729
		c-0.149,0.55-0.297,1.1-0.45,1.669l-0.25,0.932l0.937-0.232c0.646-0.158,1.257-0.308,1.869-0.479
		c0.21-0.056,0.282-0.078,0.425,0.166c0.452,0.778,0.924,1.561,1.38,2.317l0.451,0.75c0.042,0.068,0.088,0.134,0.145,0.214
		l0.236,0.338l0.079-0.236c0.546-1.63,1.076-3.22,1.607-4.812l0.357-1.068c0.064,0.03,0.128,0.06,0.19,0.088
		c0.2,0.094,0.389,0.182,0.585,0.257c0.283,0.106,0.515,0.199,0.711,0.277c1.073,0.43,1.11,0.426,2.209-0.014
		c0.204-0.082,0.446-0.179,0.742-0.291c0.195-0.074,0.379-0.16,0.574-0.252c0.042-0.02,0.084-0.039,0.127-0.059l2.059,6.161
		l0.14-0.232c0.204-0.34,0.404-0.672,0.602-0.998c0.495-0.818,0.963-1.592,1.419-2.381c0.121-0.21,0.203-0.25,0.312-0.25
		c0.053,0,0.115,0.011,0.191,0.032c0.584,0.165,1.164,0.306,1.777,0.454c0.253,0.061,0.508,0.122,0.766,0.187l0.198,0.05
		l-0.087-0.379c-0.021-0.099-0.04-0.184-0.063-0.27l-0.426-1.565c-0.456-1.677-0.912-3.354-1.381-5.026
		c-0.064-0.235-0.033-0.396,0.122-0.615c1.609-2.288,2.516-4.772,2.692-7.386c0.071-1.066,0.07-2.154,0.069-3.206
		c-0.001-0.35-0.001-0.7,0.001-1.05c0.008-1.011,0.006-2.022,0.004-3.053L38.791,11.636z M18.313,15.021
		c0.002-0.535,0.004-1.069,0.004-1.603v-0.39c0.283,0.001,0.562,0.005,0.838,0.01c0.312,0.005,0.619,0.01,0.924,0.01
		c0.424,0,0.774-0.01,1.102-0.032c2.206-0.146,4.348-0.831,6.365-2.037c0.231-0.138,0.337-0.136,0.543-0.012
		c2.283,1.372,4.816,2.086,7.529,2.122c0.357,0.004,0.714,0.005,1.071,0.006l0.637,0.006c0.004,0.047,0.008,0.096,0.008,0.145
		l0.004,1.652c0.004,1.468,0.008,2.986-0.008,4.479c-0.059,5.65-3.854,10.831-9.228,12.598c-0.164,0.053-0.387,0.053-0.526,0.004
		c-4.903-1.783-7.938-5.283-9.021-10.403c-0.182-0.86-0.211-1.752-0.229-2.667C18.303,17.613,18.309,16.295,18.313,15.021z
		 M16.864,13.043c0.001,0.879,0.002,1.758-0.009,2.637c-0.001,0.145-0.063,0.32-0.149,0.426c-1.115,1.368-2.775,2.152-4.555,2.152
		c-0.788,0-1.554-0.156-2.275-0.462c-2.345-0.997-3.852-3.505-3.583-5.964C6.59,9.129,8.538,7.007,11.14,6.554
		c0.338-0.059,0.682-0.089,1.022-0.089c2.853,0,5.297,2.039,5.812,4.849c0.018,0.096,0.026,0.193,0.036,0.3l0.002,0.02h-1.149
		L16.864,13.043z M13.622,20.92c-0.044,0.237-0.103,0.471-0.165,0.717c-0.018,0.071-0.036,0.144-0.054,0.217H10.94l-0.054-0.217
		c-0.06-0.242-0.121-0.486-0.17-0.73c-0.055-0.278-0.208-0.389-0.421-0.469c-0.8-0.303-1.635-0.648-2.482-1.027
		c-0.201-0.089-0.435-0.134-0.663,0.026c-0.203,0.142-0.415,0.269-0.62,0.392c-0.05,0.03-0.099,0.059-0.147,0.088L4.625,18.15
		c0.029-0.046,0.059-0.094,0.09-0.144c0.134-0.213,0.286-0.456,0.418-0.708c0.069-0.133,0.09-0.367,0.003-0.515
		c-0.489-0.824-0.836-1.662-1.063-2.561c-0.043-0.17-0.24-0.33-0.398-0.381c-0.252-0.081-0.507-0.137-0.777-0.197
		c-0.074-0.016-0.149-0.033-0.225-0.05v-2.458c0.071-0.018,0.142-0.036,0.213-0.054c0.238-0.061,0.485-0.124,0.728-0.169
		c0.287-0.054,0.396-0.206,0.488-0.45c0.312-0.832,0.653-1.654,1.014-2.445c0.111-0.244,0.144-0.445-0.034-0.695
		C4.948,7.131,4.83,6.932,4.715,6.738C4.686,6.689,4.657,6.64,4.629,6.593L6.4,4.822C6.444,4.85,6.489,4.878,6.535,4.908
		C6.743,5.04,6.978,5.188,7.223,5.319c0.081,0.043,0.191,0.068,0.295,0.068c0.061,0,0.148-0.009,0.22-0.051
		c0.86-0.507,1.709-0.858,2.595-1.072c0.161-0.039,0.312-0.229,0.358-0.383c0.08-0.259,0.14-0.528,0.198-0.788
		c0.017-0.074,0.033-0.148,0.05-0.222h2.463c0.016,0.071,0.032,0.141,0.047,0.211c0.058,0.264,0.118,0.537,0.202,0.798
		c0.049,0.152,0.211,0.344,0.39,0.39c0.883,0.225,1.733,0.576,2.527,1.046c0.137,0.08,0.395,0.082,0.545,0.004
		c0.243-0.123,0.469-0.267,0.688-0.405c0.057-0.036,0.112-0.071,0.167-0.105l1.761,1.754c-0.031,0.05-0.063,0.101-0.097,0.152
		c-0.141,0.221-0.286,0.448-0.413,0.694c-0.073,0.144-0.097,0.393-0.007,0.545c0.492,0.838,0.838,1.676,1.056,2.563
		c0.04,0.162,0.226,0.32,0.375,0.366c0.262,0.081,0.523,0.139,0.801,0.2c0.072,0.016,0.145,0.032,0.218,0.049v0.408l-2.154,0.123
		c-0.461-3.062-2.085-5.145-4.829-6.192c-1.9-0.727-3.864-0.622-5.752,0.306c-1.827,0.897-3.167,2.463-3.772,4.409
		c-0.606,1.947-0.392,3.997,0.603,5.771c1.301,2.322,3.773,3.764,6.451,3.764c1.681,0,3.277-0.569,4.633-1.648v1.214l-0.042,0.019
		c-0.09,0.042-0.181,0.083-0.273,0.122l-0.611,0.257c-0.601,0.254-1.223,0.517-1.843,0.749
		C13.833,20.521,13.675,20.634,13.622,20.92z M20.964,29.455c0.119,0.108,0.236,0.217,0.354,0.324
		c0.388,0.355,0.754,0.691,1.144,1.015c0.242,0.201,0.502,0.385,0.753,0.563c0.195,0.138,0.391,0.275,0.58,0.423
		c0.066,0.052,0.13,0.172,0.129,0.204c-0.31,0.967-0.64,1.944-0.96,2.89l-0.148,0.438l-0.229-0.379
		c-0.277-0.459-0.555-0.916-0.82-1.379c-0.082-0.142-0.194-0.287-0.412-0.287c-0.062,0-0.13,0.012-0.208,0.035
		c-0.324,0.099-0.661,0.178-1.017,0.261c-0.099,0.023-0.199,0.047-0.302,0.072L20.964,29.455z M33.839,33.631
		c-0.241,0.439-0.502,0.867-0.777,1.318c-0.073,0.12-0.147,0.241-0.223,0.365c-0.01-0.022-0.018-0.044-0.025-0.066l-0.105-0.314
		c-0.319-0.95-0.639-1.901-0.945-2.857c-0.026-0.078-0.006-0.214,0.018-0.24c0.229-0.181,0.468-0.351,0.705-0.521
		c0.288-0.205,0.585-0.418,0.864-0.646c0.351-0.287,0.676-0.595,1.021-0.921c0.104-0.099,0.21-0.199,0.318-0.3
		c0.38,1.392,0.752,2.759,1.14,4.182c-0.1-0.023-0.196-0.046-0.291-0.068c-0.325-0.076-0.632-0.147-0.929-0.24
		C34.146,33.178,33.956,33.417,33.839,33.631z"/>
	<path fill="#0077FF" d="M27.535,30.965c0.086,0.031,0.187,0.048,0.291,0.048c0.104,0,0.204-0.017,0.29-0.047
		c4.805-1.703,8.201-6.447,8.261-11.536c0.014-1.188,0.01-2.396,0.007-3.564l-0.003-1.403c0-0.069-0.01-0.139-0.02-0.212
		l-0.025-0.205h-0.519c-2.682-0.001-5.234-0.64-7.587-1.899c-0.297-0.158-0.508-0.159-0.805,0.001
		c-1.759,0.95-3.623,1.542-5.54,1.761c-0.559,0.063-1.11,0.097-1.694,0.134c-0.265,0.017-0.532,0.033-0.804,0.053l-0.116,0.008
		l-0.001,1.907c-0.002,1.076-0.003,2.152,0.003,3.229C19.306,24.467,22.626,29.179,27.535,30.965z M34.932,17.031
		c0.016,1.112,0.032,2.263-0.106,3.371c-0.528,4.239-2.834,7.287-6.854,9.059c-0.074,0.033-0.229,0.028-0.321-0.013
		c-3.829-1.683-6.095-4.54-6.737-8.492c-0.202-1.249-0.213-2.546-0.223-3.8c-0.005-0.528-0.009-1.072-0.028-1.603
		c0.322-0.051,0.637-0.098,0.944-0.144c0.751-0.113,1.461-0.219,2.169-0.36c1.194-0.238,2.406-0.663,3.813-1.335
		c0.122-0.059,0.319-0.074,0.404-0.032c2.114,1.03,4.363,1.63,6.685,1.785c0.077,0.004,0.152,0.014,0.228,0.023l0.019,0.002
		c0,0,0,0.001,0,0.001C34.917,16.005,34.924,16.527,34.932,17.031z"/>
	<path fill="#0077FF" d="M12.157,8.627c-0.993,0.003-1.929,0.396-2.634,1.106c-0.706,0.71-1.092,1.649-1.089,2.645
		c0.005,2.053,1.683,3.723,3.739,3.723h0.012c2.058-0.007,3.728-1.69,3.723-3.751C15.901,10.297,14.224,8.627,12.157,8.627z
		 M9.888,12.341c0.009-1.244,1.031-2.258,2.277-2.261l0.003-0.125l0,0v0.125c0.609,0,1.183,0.238,1.615,0.671
		c0.432,0.433,0.67,1.006,0.669,1.616c-0.001,1.256-1.027,2.279-2.295,2.279c-0.606-0.003-1.177-0.244-1.606-0.679
		C10.119,13.53,9.884,12.953,9.888,12.341z M12.173,15.975L12.173,15.975L12.173,15.975L12.173,15.975z"/>
	<path fill="#0077FF" d="M26.565,20.985c-0.348-0.381-0.683-0.75-0.974-1.07l-0.088-0.097l-2.781,2.779l0.088,0.089
		c1.24,1.239,2.513,2.513,3.714,3.716l0.089,0.089l0.089-0.089c2.443-2.444,4.92-4.921,7.394-7.394l0.089-0.088l-2.782-2.781
		L26.565,20.985z M26.646,24.441l-1.892-1.884l0.752-0.685l1.063,1.168l4.832-4.838l0.743,0.742
		c-1.118,1.116-2.232,2.231-3.338,3.337L26.646,24.441z"/>
	<polygon fill="#0077FF" points="23.14,17.652 24.494,17.373 24.178,15.98 21.716,16.397 21.716,19.766 23.14,19.688 	"/>
	<polygon fill="#0077FF" points="26.967,16.61 26.456,15.257 25.096,15.72 25.516,17.108 	"/>
</g>
</svg>
