<?xml version="1.0" encoding="utf-8"?>
<!-- Generator: Adobe Illustrator 16.0.0, SVG Export Plug-In . SVG Version: 6.00 Build 0)  -->
<!DOCTYPE svg PUBLIC "-//W3C//DTD SVG 1.1//EN" "http://www.w3.org/Graphics/SVG/1.1/DTD/svg11.dtd">
<svg version="1.1" id="Layer_1" xmlns="http://www.w3.org/2000/svg" xmlns:xlink="http://www.w3.org/1999/xlink" x="0px" y="0px"
	 width="40px" height="40px" viewBox="0 0 40 40" enable-background="new 0 0 40 40" xml:space="preserve">
<g>
	<path fill="#0077FF" d="M17.593,24.126c-0.688,0.958-0.611,2.205,0.192,3.104c0.447,0.497,1.092,0.782,1.768,0.782
		c0.465,0,0.927-0.133,1.335-0.383c0.444-0.268,0.774-0.666,0.979-1.185c0.26-0.658,0.229-1.311-0.097-1.989
		c1.401-1.398,2.799-2.796,4.188-4.188l0.178-0.178l-1.123-1.11l-4.367,4.367C19.566,22.838,18.274,23.18,17.593,24.126z
		 M19.583,24.461l0.002,0.249c0.469,0.002,0.84,0.373,0.843,0.843c0.001,0.23-0.086,0.446-0.245,0.605
		c-0.159,0.16-0.373,0.248-0.606,0.248c0,0,0,0,0,0c-0.471-0.002-0.841-0.373-0.843-0.845c-0.001-0.229,0.085-0.442,0.244-0.603
		c0.16-0.16,0.375-0.249,0.605-0.249V24.461L19.583,24.461z"/>
	<path fill="#0077FF" d="M12.629,25.771l0.008-0.217c0.093-2.54,1.17-4.495,3.201-5.811c2.018-1.306,4.25-1.473,6.642-0.5
		l0.22,0.089l0.682-1.462l-0.244-0.099c-3.026-1.229-5.871-0.964-8.405,0.781c-2.356,1.622-3.601,3.977-3.697,6.999l-0.008,0.258
		h1.221h0.002c0.039-0.001,0.078-0.005,0.163-0.015L12.629,25.771z"/>
	<path fill="#0077FF" d="M37.98,18.079c-0.012-0.035-0.024-0.07-0.029-0.105c-0.435-3.439-2.923-6.13-6.341-6.857
		c-0.089-0.019-0.106-0.034-0.108-0.035c0,0-0.013-0.019-0.019-0.089c-0.138-1.815-0.787-3.476-1.932-4.934
		c-1.734-2.209-4.35-3.477-7.177-3.477c-2.579,0-4.947,1.041-6.668,2.931c-0.455,0.498-0.838,1.064-1.209,1.611
		c-0.147,0.216-0.294,0.433-0.445,0.646c-0.064-0.009-0.154-0.032-0.272-0.061c-0.616-0.149-1.228-0.149-1.799-0.004
		c-1.708,0.434-2.764,1.523-3.139,3.237c-0.02,0.089-0.021,0.097-0.135,0.116c-3.454,0.59-6.054,3.208-6.624,6.668
		c-0.607,3.689,1.583,7.434,5.094,8.711c0.185,0.068,0.384,0.13,0.594,0.188l0.005,0.038c0.039,0.313,0.077,0.627,0.132,0.937
		c0.517,2.878,1.932,5.285,4.206,7.154c1.782,1.465,3.891,2.342,6.271,2.607l0.305,0.034l1.588,0.022l0.42-0.054
		c0.311-0.039,0.621-0.077,0.927-0.133c2.87-0.514,5.271-1.922,7.138-4.188c1.462-1.771,2.34-3.866,2.613-6.228
		c2.96-0.578,5.025-2.287,6.129-5.099c0.174-0.44,0.273-0.907,0.37-1.359c0.043-0.203,0.086-0.406,0.144-0.667v-1.458L37.98,18.079z
		 M5.088,23.152c-1.499-1.691-1.951-4.027-1.21-6.247c0.74-2.214,2.499-3.805,4.706-4.255c0.331-0.068,0.667-0.112,1.009-0.156
		c0.162-0.021,0.324-0.042,0.488-0.066l0.225-0.033l-0.012-0.227C10.23,10.885,10.669,10,11.637,9.464
		c0.966-0.535,1.923-0.435,3.034,0.313l0.261,0.175l0.241-0.63c1.174-3.068,3.35-4.797,6.465-5.14
		c2.668-0.294,4.939,0.669,6.711,2.846c1.105,1.358,1.653,2.993,1.629,4.859c-0.006,0.403,0.186,0.608,0.586,0.627
		c0.228,0.011,0.472,0.046,0.748,0.106c2.818,0.613,4.73,2.707,5.114,5.599c0.39,2.926-1.42,5.848-4.208,6.796
		c-0.251,0.085-0.516,0.146-0.779,0.213l-0.001-0.385l-0.051-0.401c-0.038-0.31-0.076-0.619-0.131-0.926
		c-0.515-2.876-1.931-5.284-4.207-7.156c-1.782-1.464-3.892-2.341-6.269-2.605l-0.52-0.058l-1.393,0.002l-0.391,0.049
		c-0.314,0.039-0.629,0.078-0.939,0.134c-2.869,0.514-5.271,1.923-7.14,4.189c-1.472,1.785-2.353,3.9-2.618,6.286l-0.057,0.519
		v0.099C6.733,24.607,5.845,24.005,5.088,23.152z M19.553,15.302v-0.249c0,0,0,0,0,0l0.035,0.249
		c5.658,0.019,10.255,4.62,10.247,10.257c-0.006,5.646-4.604,10.246-10.266,10.254c-2.733,0-5.311-1.08-7.261-3.04
		c-1.939-1.951-2.999-4.518-2.984-7.228C9.358,19.897,13.946,15.302,19.553,15.302z"/>
</g>
</svg>
