<?xml version="1.0" encoding="utf-8"?>
<!-- Generator: Adobe Illustrator 16.0.0, SVG Export Plug-In . SVG Version: 6.00 Build 0)  -->
<!DOCTYPE svg PUBLIC "-//W3C//DTD SVG 1.1//EN" "http://www.w3.org/Graphics/SVG/1.1/DTD/svg11.dtd">
<svg version="1.1" id="Layer_1" xmlns="http://www.w3.org/2000/svg" xmlns:xlink="http://www.w3.org/1999/xlink" x="0px" y="0px"
	 width="40px" height="40px" viewBox="0 0 40 40" enable-background="new 0 0 40 40" xml:space="preserve">
<g>
	<path fill="#0077FF" d="M30.361,11.82l-1.121-1.122c-0.516-0.516-1.029-1.032-1.549-1.542c-0.2-0.196-0.426-0.3-0.648-0.3
		c-0.361,0-0.652,0.269-0.76,0.7c-0.01,0.037-0.016,0.074-0.022,0.111c-0.005,0.026-0.009,0.052-0.015,0.078
		c-0.24,1.007-1.165,1.738-2.2,1.738c-0.14,0-0.28-0.014-0.416-0.042c-1.083-0.22-1.846-1.126-1.854-2.205
		c-0.01-1.095,0.711-1.985,1.836-2.267c0.283-0.071,0.576-0.287,0.712-0.524c0.245-0.427-0.138-0.805-0.28-0.946
		c-0.68-0.676-1.357-1.354-2.035-2.032c-0.537-0.539-1.076-1.077-1.616-1.615c-0.482-0.48-0.869-0.479-1.357,0.006
		c-0.786,0.782-1.572,1.564-2.351,2.354c-0.194,0.196-0.378,0.402-0.57,0.615l-0.107,0.118c-1.014-2.001-2.343-2.813-4.214-2.567
		C10.22,2.582,8.874,3.873,8.589,5.445c-0.337,1.866,0.409,3.179,2.491,4.36c-0.034,0.036-0.067,0.071-0.103,0.106l-2.891,2.893
		c-0.542,0.542-0.539,0.911,0.01,1.46l2.863,2.869c0.041,0.041,0.08,0.082,0.121,0.125c-1.608,0.656-2.463,1.816-2.542,3.45
		c-0.079,1.621,0.665,2.856,2.212,3.676l-0.386,1.112c-0.348,1.003-0.692,1.996-1.043,2.984c-0.296,0.836-0.28,1.655,0.05,2.437
		c0.581,1.378,1.167,2.752,1.753,4.127l0.097,0.229c0.049,0.115,0.1,0.229,0.15,0.345c0.307,0.692,0.597,1.349,0.518,2.114
		c-0.018,0.185,0.042,0.363,0.168,0.504c0.147,0.162,0.371,0.261,0.602,0.262c0.42,0,0.754-0.314,0.779-0.734
		c0.034-0.576,0.03-1.257-0.254-1.918c-0.415-0.967-0.829-1.936-1.242-2.902c-0.371-0.869-0.741-1.737-1.114-2.605
		c-0.183-0.428-0.198-0.849-0.045-1.286l0.488-1.399c0.316-0.902,0.632-1.805,0.939-2.711c0.06-0.174,0.104-0.207,0.296-0.217
		c1.549-0.097,2.68-0.857,3.36-2.266c0.044-0.093,0.083-0.188,0.126-0.303c0.069,0.087,0.139,0.169,0.227,0.232
		c0.418,0.313,0.581,0.699,0.563,1.334c-0.035,1.225-0.028,2.469-0.022,3.674c0.002,0.483,0.005,0.969,0.005,1.453
		c0,0.346,0.059,0.604,0.179,0.783c0.134,0.2,0.337,0.303,0.611,0.303c0.52-0.002,0.784-0.369,0.784-1.094v-2.56
		c0-1.873-0.001-3.746,0.001-5.619c0.001-0.793,0.461-1.445,1.171-1.66c0.164-0.05,0.331-0.075,0.497-0.075
		c0.918,0,1.643,0.735,1.648,1.673c0.012,2.103,0.021,4.551-0.004,6.991c-0.012,1.214,0.24,2.286,0.771,3.278
		c0.514,0.96,0.633,1.949,0.354,2.941c-0.146,0.531-0.392,1.094-0.723,1.668c-0.419,0.726-0.423,1.463-0.387,2.283
		c0.02,0.418,0.352,0.732,0.775,0.732h0.009c0.405-0.004,0.726-0.305,0.774-0.734c0.004-0.043,0.01-0.096,0.002-0.154
		c-0.086-0.621,0.069-1.229,0.487-1.91c0.058-0.094,0.104-0.195,0.149-0.297l0.061-0.131c0.545-1.15,0.694-2.314,0.443-3.461
		c-0.098-0.451-0.27-0.886-0.438-1.305c-0.07-0.182-0.144-0.361-0.209-0.545l-0.354-0.973l0.002,0.003
		c0.791,0.612,1.695,0.93,2.721,0.942c1.146,0,2.018-0.865,2.027-2.015c0.008-0.815,0.006-1.631,0.005-2.442l-0.002-0.896
		c1.737-0.656,2.694-1.869,2.772-3.513c0.08-1.698-0.73-2.913-2.549-3.805c0.041-0.043,0.081-0.085,0.122-0.126l1.123-1.124
		c0.599-0.599,1.198-1.197,1.796-1.797c0.475-0.479,0.477-0.884,0.008-1.358C31.055,12.51,30.708,12.166,30.361,11.82z
		 M23.249,22.511c0.004-0.092,0.09-0.215,0.19-0.356c0,0,0-0.002,0.002-0.002c0.586,1.44,1.605,2.279,3.106,2.552l0.002,0.823
		c0.002,0.816,0.005,1.627-0.008,2.435c-0.006,0.349-0.328,0.401-0.535,0.401c-1.456-0.021-2.723-1.274-2.766-2.735
		C23.212,24.57,23.214,23.521,23.249,22.511z M24.813,20.703c0.028-0.302,0.015-0.729-0.438-0.95
		c-0.115-0.056-0.23-0.084-0.346-0.084c-0.232,0-0.453,0.118-0.672,0.36c-0.049,0.054-0.096,0.109-0.148,0.172
		c-0.146-0.898-0.507-1.565-1.118-2.079c-0.729-0.616-1.586-0.869-2.519-0.741c-1.645,0.224-2.561,1.322-2.793,3.354
		c-0.225-0.224-0.436-0.431-0.648-0.648c-0.193-0.197-0.413-0.42-0.734-0.42c-0.102,0-0.207,0.023-0.314,0.069
		c-0.491,0.211-0.475,0.645-0.46,1.007c0.025,0.664-0.203,1.281-0.643,1.736c-0.423,0.44-0.999,0.684-1.636,0.684
		c-0.616-0.005-1.191-0.255-1.621-0.705c-0.434-0.455-0.658-1.049-0.633-1.674c0.048-1.186,1.055-2.156,2.277-2.162
		c0.112,0,0.225,0.005,0.337,0.013c0.372,0.024,0.646-0.126,0.796-0.441c0.108-0.227,0.164-0.571-0.189-0.928l-3.7-3.708
		c-0.016-0.016-0.031-0.033-0.048-0.055l0.121-0.108c0.17-0.151,0.339-0.301,0.499-0.46c0.583-0.577,1.163-1.157,1.743-1.737
		l1.261-1.259c0.216-0.215,0.543-0.541,0.332-1.026c-0.188-0.433-0.557-0.483-0.818-0.483c-0.06,0-0.122,0.003-0.186,0.007
		c-1.208,0.086-2.219-0.759-2.402-1.989C9.948,5.35,10.694,4.28,11.81,4.008c0.19-0.046,0.383-0.069,0.574-0.069
		c0.974,0,1.824,0.609,2.115,1.516c0.079,0.245,0.115,0.538,0.115,0.921c-0.001,0.323-0.003,0.765,0.479,0.961
		c0.1,0.041,0.2,0.062,0.297,0.062c0.31,0,0.539-0.204,0.729-0.396c0.581-0.584,1.163-1.166,1.745-1.748
		c0.544-0.544,1.089-1.088,1.631-1.633c0.062-0.062,0.113-0.128,0.16-0.192l2.449,2.445c-1.568,1.014-2.188,2.468-1.789,4.219
		c0.365,1.607,1.471,2.634,3.115,2.893c1.66,0.261,3.002-0.381,3.973-1.899c0.018,0.016,0.033,0.032,0.051,0.049l2.393,2.384
		c-0.059,0.063-0.115,0.123-0.172,0.18l-0.652,0.655c-0.914,0.919-1.83,1.838-2.748,2.753c-0.238,0.236-0.563,0.56-0.359,1.054
		c0.174,0.417,0.525,0.471,0.813,0.471c0.063,0,0.129-0.002,0.194-0.005l0.104-0.002c1.304,0,2.295,0.965,2.305,2.246
		c0.006,0.611-0.229,1.188-0.655,1.62c-0.429,0.432-1,0.67-1.61,0.67l-0.065-0.001c-0.626-0.018-1.201-0.286-1.621-0.758
		C24.958,21.932,24.757,21.328,24.813,20.703z M22.445,38.322L22.445,38.322L22.445,38.322L22.445,38.322z"/>
	<path fill="#0077FF" d="M5.816,14.647c0.544-0.001,0.898-0.309,0.9-0.782c0.002-0.474-0.349-0.784-0.895-0.788
		c-0.205-0.002-0.411-0.002-0.616-0.002L4.1,13.077L3,13.074c-0.207,0-0.414,0-0.621,0.002c-0.543,0.004-0.896,0.311-0.899,0.782
		c-0.001,0.236,0.086,0.436,0.252,0.579c0.159,0.136,0.381,0.209,0.643,0.209c0.574,0.002,1.147,0.003,1.721,0.003
		C4.669,14.65,5.243,14.649,5.816,14.647z"/>
	<path fill="#0077FF" d="M37.621,13.077c-1.146-0.004-2.292-0.004-3.439,0c-0.546,0.001-0.896,0.31-0.896,0.785
		c0,0.473,0.352,0.781,0.896,0.785c0.233,0.002,0.469,0.003,0.702,0.003l0.979-0.001l1.025,0.001c0.244,0,0.489,0,0.733-0.003
		c0.547-0.004,0.899-0.313,0.896-0.786C38.52,13.387,38.166,13.079,37.621,13.077z"/>
	<path fill="#0077FF" d="M6.599,20.114c-0.133,0-0.262,0.035-0.385,0.103c-1.105,0.618-2.217,1.27-3.173,1.83
		c-0.394,0.232-0.522,0.665-0.313,1.053c0.14,0.26,0.392,0.416,0.673,0.416c0.142,0,0.283-0.039,0.418-0.115
		c0.869-0.49,2.011-1.142,3.138-1.817C7.12,21.484,7.221,21.32,7.295,21.2c0.021-0.034,0.04-0.065,0.058-0.089l0.039-0.049L7.39,21
		C7.378,20.495,7.038,20.114,6.599,20.114z"/>
	<path fill="#0077FF" d="M37.244,22.365c-0.09-0.115-0.212-0.271-0.383-0.375c-0.911-0.547-1.853-1.081-2.762-1.598l-0.213-0.121
		c-0.469-0.268-0.931-0.17-1.164,0.229c-0.238,0.406-0.089,0.85,0.381,1.126c0.399,0.235,0.804,0.468,1.207,0.7l0.888,0.515
		c0.325,0.191,0.649,0.384,0.983,0.56c0.129,0.067,0.264,0.103,0.397,0.103c0.2,0,0.39-0.078,0.53-0.222
		c0.17-0.17,0.261-0.42,0.258-0.705v-0.068l-0.049-0.05C37.298,22.436,37.273,22.4,37.244,22.365z"/>
	<path fill="#0077FF" d="M3.148,5.749c0.801,0.464,1.604,0.926,2.407,1.387l0.176,0.104C5.915,7.348,6.105,7.46,6.309,7.547
		c0.094,0.04,0.191,0.06,0.289,0.06c0.445,0,0.781-0.397,0.781-0.924V6.615l-0.045-0.05C7.313,6.542,7.289,6.51,7.261,6.474
		C7.172,6.356,7.05,6.194,6.878,6.091C6.009,5.57,5.115,5.061,4.25,4.569L3.909,4.375c-0.467-0.267-0.93-0.174-1.166,0.223
		C2.633,4.783,2.602,4.98,2.65,5.167C2.709,5.393,2.881,5.594,3.148,5.749z"/>
	<path fill="#0077FF" d="M33.087,7.525c0.05,0.034,0.101,0.066,0.142,0.101l0.08,0.066l0.098-0.039
		c0.066-0.027,0.127-0.049,0.182-0.069c0.117-0.043,0.211-0.079,0.295-0.127c1.004-0.572,2.008-1.146,3.004-1.728
		c0.246-0.144,0.406-0.337,0.463-0.559c0.049-0.191,0.018-0.39-0.094-0.573c-0.232-0.396-0.695-0.489-1.166-0.22
		c-0.99,0.566-1.98,1.138-2.969,1.71l-0.048,0.026c-0.104,0.056-0.231,0.125-0.269,0.257l-0.025,0.084
		c-0.065,0.217-0.139,0.463-0.065,0.682C32.771,7.315,32.939,7.426,33.087,7.525z"/>
</g>
</svg>
