<?xml version="1.0" encoding="utf-8"?>
<!-- Generator: Adobe Illustrator 16.0.0, SVG Export Plug-In . SVG Version: 6.00 Build 0)  -->
<!DOCTYPE svg PUBLIC "-//W3C//DTD SVG 1.1//EN" "http://www.w3.org/Graphics/SVG/1.1/DTD/svg11.dtd">
<svg version="1.1" id="Layer_1" xmlns="http://www.w3.org/2000/svg" xmlns:xlink="http://www.w3.org/1999/xlink" x="0px" y="0px"
	 width="40px" height="40px" viewBox="1.483 -0.768 40 40" enable-background="new 1.483 -0.768 40 40" xml:space="preserve">
<g id="Group_489" transform="translate(-13922.022 -1275)">
	<path id="Path_854" fill="#1B76FF" d="M13930.538,1290.253h25.934c0.488,0,0.886-0.396,0.886-0.885v-6.189
		c0-0.489-0.397-0.885-0.886-0.885h-25.934c-0.487,0-0.884,0.396-0.884,0.884v6.189c0,0.489,0.396,0.884,0.884,0.884V1290.253z
		 M13931.422,1284.063h24.166v4.423h-24.166V1284.063z"/>
	<path id="Path_855" fill="#1B76FF" d="M13956.472,1292.463h-6.038c-0.489,0-0.885,0.396-0.885,0.884v12.378
		c0,0.488,0.396,0.886,0.885,0.886l0,0h6.038c0.49,0,0.886-0.397,0.886-0.886l0,0v-12.378c0-0.488-0.396-0.884-0.884-0.884
		C13956.474,1292.463,13956.474,1292.463,13956.472,1292.463z M13955.588,1304.842h-4.271v-10.61h4.275L13955.588,1304.842z"/>
	<path id="Path_856" fill="#1B76FF" d="M13930.538,1306.612h15.96c0.488,0,0.883-0.396,0.883-0.884v-12.38
		c0.002-0.489-0.394-0.884-0.882-0.885c-0.001,0-0.001,0-0.001,0h-15.96c-0.488,0-0.885,0.396-0.886,0.884v12.383
		c0,0.488,0.397,0.886,0.886,0.886l0,0V1306.612z M13931.422,1294.233h14.192v10.611h-14.192V1294.233z"/>
	<path id="Path_857" fill="#1B76FF" d="M13961.778,1278.757c0-0.488-0.396-0.884-0.884-0.884h-34.777
		c-0.488,0-0.884,0.396-0.884,0.884v30.947c0,0.489,0.396,0.886,0.884,0.886l0,0h34.777c0.488,0,0.884-0.396,0.884-0.886V1278.757z
		 M13960.011,1308.821h-33.01v-29.178h33.008L13960.011,1308.821z"/>
</g>
</svg>
