<?xml version="1.0" encoding="utf-8"?>
<!-- Generator: Adobe Illustrator 16.0.0, SVG Export Plug-In . SVG Version: 6.00 Build 0)  -->
<!DOCTYPE svg PUBLIC "-//W3C//DTD SVG 1.1//EN" "http://www.w3.org/Graphics/SVG/1.1/DTD/svg11.dtd">
<svg version="1.1" id="Layer_1" xmlns="http://www.w3.org/2000/svg" xmlns:xlink="http://www.w3.org/1999/xlink" x="0px" y="0px"
	 width="40px" height="40px" viewBox="0 0 40 40" enable-background="new 0 0 40 40" xml:space="preserve">
<g>
	<path fill="#0077FF" d="M36.796,19.818l-0.588-0.001l0.429-0.439c0.437-0.451,0.439-0.829,0.012-1.264
		c-0.557-0.568-1.067-1.079-1.563-1.56c-0.412-0.402-0.798-0.403-1.214,0.002c-0.134,0.13-0.259,0.268-0.384,0.406
		c-0.029,0.032-0.059,0.065-0.089,0.097l0.001-0.08c0-0.178,0.001-0.355-0.002-0.532c-0.008-0.68-0.273-0.948-0.947-0.956
		l-0.898-0.011v-2.652c0-3.509-0.001-7.018,0.005-10.526c0.002-0.296-0.048-0.721-0.494-0.989l-0.03-0.018H2.853L2.794,1.309
		C2.443,1.493,2.28,1.792,2.281,2.249c0.006,11.796,0.006,23.592,0,35.389c-0.001,0.456,0.162,0.755,0.514,0.938l28.238,0.015
		l0.029-0.018c0.447-0.266,0.497-0.691,0.495-0.987c-0.007-2.332-0.006-4.663-0.005-6.995v-2.494l0.589,0.003
		c0.133,0,0.264-0.001,0.394-0.004c0.569-0.011,0.843-0.282,0.861-0.853c0.007-0.196,0.005-0.395,0.004-0.592l-0.002-0.192
		l0.008-0.005c0.028,0.036,0.056,0.073,0.083,0.109c0.122,0.163,0.249,0.332,0.396,0.48c0.382,0.384,0.795,0.385,1.186,0.008
		c0.564-0.548,1.107-1.09,1.614-1.612c0.377-0.389,0.375-0.775-0.008-1.185c-0.132-0.141-0.267-0.281-0.401-0.422l-0.063-0.066
		l0.298,0.001c0.113,0,0.226,0,0.338-0.002c0.597-0.008,0.864-0.277,0.867-0.874c0.005-0.725,0.004-1.447,0-2.171
		C37.713,20.084,37.446,19.823,36.796,19.818z M34.632,23.351c-0.026,0.075-0.052,0.15-0.079,0.222
		c-0.19,0.51,0.118,0.794,0.366,1.023c0.088,0.081,0.172,0.158,0.238,0.242l-0.72,0.658c-0.282-0.313-0.585-0.574-1.042-0.574
		c-0.193,0-0.398,0.047-0.627,0.143c-0.856,0.355-0.887,0.941-0.86,1.526h-0.974c0.005-0.584,0.007-1.188-0.854-1.528
		c-0.23-0.092-0.436-0.136-0.627-0.136c-0.473,0-0.787,0.277-1.06,0.587l-0.701-0.681c0.48-0.424,0.816-0.868,0.461-1.701
		c-0.321-0.755-0.812-0.857-1.249-0.857c-0.087,0-0.177,0.005-0.271,0.013v-0.981c0.072,0.003,0.143,0.006,0.212,0.006
		c0.504,0,1.013-0.106,1.319-0.875c0.33-0.831-0.006-1.27-0.453-1.656c0.236-0.229,0.463-0.448,0.706-0.683
		c0.292,0.319,0.587,0.568,1.034,0.568c0.191,0,0.396-0.046,0.621-0.142c0.828-0.346,0.897-0.892,0.849-1.522h0.979
		c0.01,0.099,0.011,0.203,0.011,0.304c0.003,0.413,0.006,0.88,0.643,1.108c0.138,0.05,0.256,0.095,0.358,0.134
		c0.739,0.283,0.79,0.25,1.469-0.387l0.087-0.082l0.614,0.698c-0.039,0.051-0.082,0.103-0.127,0.157
		c-0.178,0.215-0.38,0.459-0.424,0.745c-0.045,0.3,0.103,0.613,0.246,0.916c0.036,0.077,0.072,0.153,0.104,0.229
		c0.22,0.509,0.625,0.496,0.988,0.481c0.12-0.004,0.245-0.005,0.336,0.004v0.914c-0.087,0.015-0.176,0.026-0.265,0.037
		c-0.301,0.039-0.611,0.078-0.838,0.25C34.858,22.694,34.743,23.027,34.632,23.351z M30.072,15.261c0,0.201,0,0.268-0.179,0.322
		c-0.29,0.086-0.442,0.344-0.451,0.766c-0.003,0.181-0.002,0.361-0.001,0.562v0.074l-0.962-0.816V2.806h1.591v0.25
		C30.07,7.118,30.07,11.181,30.072,15.261z M26.968,34.26c0.002,0.835,0.004,1.671,0.004,2.506v0.324H3.789V2.802h23.173v0.002
		c0.005,0.075,0.01,0.149,0.01,0.224v1.759c0,4.093,0,8.185,0.005,12.279c0.002,0.211-0.054,0.343-0.198,0.47
		c-0.211,0.188-0.411,0.396-0.598,0.593c-0.398,0.421-0.398,0.806-0.001,1.211c0.144,0.147,0.302,0.281,0.454,0.411
		c0.026,0.022,0.052,0.044,0.078,0.066l-0.417-0.001c-0.101,0-0.202,0-0.304,0.002c-0.579,0.01-0.853,0.281-0.86,0.853
		c-0.012,0.734-0.012,1.49-0.001,2.247c0.009,0.567,0.282,0.837,0.861,0.848c0.162,0.003,0.323,0.004,0.485,0.004l0.168,0.004
		c-0.146,0.146-0.282,0.285-0.417,0.423c-0.258,0.263-0.371,0.491-0.356,0.718c0.014,0.211,0.139,0.407,0.385,0.602
		c0.624,0.491,0.745,1.077,0.735,1.806C26.958,29.635,26.963,31.986,26.968,34.26z M28.452,27.605
		c-0.001-0.191,0.016-0.262,0.219-0.366c0.245-0.125,0.443-0.32,0.652-0.526c0.037-0.036,0.074-0.073,0.111-0.109
		c0.01,0.111,0.006,0.229,0.003,0.344c-0.011,0.438-0.023,0.931,0.62,1.139v8.994h-1.603v-2.299
		C28.456,32.39,28.456,29.998,28.452,27.605z"/>
	<path fill="#0077FF" d="M25.185,27.85c-0.115-0.004-0.23-0.005-0.346-0.005l-0.455,0.002c0.026-0.021,0.054-0.043,0.081-0.064
		c0.138-0.109,0.28-0.224,0.411-0.352c0.243-0.239,0.356-0.449,0.357-0.659c0.001-0.217-0.111-0.427-0.365-0.683
		c-0.485-0.488-0.971-0.975-1.46-1.457c-0.488-0.48-0.827-0.479-1.319-0.001L21.7,25.006c-0.027-0.182-0.031-0.354-0.034-0.532
		l-0.003-0.12c-0.016-0.544-0.299-0.825-0.841-0.835c-0.748-0.011-1.496-0.01-2.245,0c-0.556,0.008-0.847,0.297-0.865,0.858
		c-0.005,0.198-0.004,0.397-0.003,0.597l0,0.088l-0.047-0.05c-0.123-0.132-0.246-0.264-0.374-0.391
		c-0.469-0.464-0.829-0.469-1.293-0.011c-0.506,0.5-1.009,1.003-1.51,1.51c-0.454,0.459-0.454,0.821,0.001,1.291
		c0.129,0.133,0.26,0.264,0.391,0.395l0.007,0.007c-0.19,0.026-0.368,0.03-0.541,0.033l-0.117,0.002
		c-0.665,0.018-0.816,0.43-0.827,0.772c-0.021,0.787-0.021,1.592-0.001,2.392c0.011,0.497,0.294,0.768,0.818,0.781
		c0.109,0.003,0.218,0.003,0.328,0.003l0.487-0.002l0,0.001c-0.036,0.028-0.072,0.056-0.108,0.083
		c-0.152,0.116-0.309,0.235-0.449,0.374c-0.227,0.224-0.331,0.424-0.33,0.629c0.001,0.203,0.107,0.404,0.333,0.633
		c0.491,0.498,0.987,0.992,1.484,1.484c0.503,0.499,0.841,0.501,1.348,0.002l0.371-0.365c0.026,0.182,0.027,0.345,0.029,0.516
		l0,0.046c0.009,0.647,0.291,0.926,0.945,0.929c0.349,0.001,0.699,0.002,1.049,0.002c0.35,0,0.7-0.001,1.049-0.003
		c0.629-0.004,0.901-0.278,0.91-0.915c0.003-0.186,0.002-0.371,0.002-0.556l-0.001-0.101c0.029,0.032,0.058,0.063,0.086,0.096
		c0.119,0.132,0.238,0.264,0.365,0.389c0.453,0.443,0.813,0.443,1.265,0c0.508-0.497,1.01-1,1.512-1.507
		c0.455-0.461,0.451-0.843-0.012-1.319c-0.134-0.136-0.267-0.272-0.395-0.405l0.116-0.002c0.193-0.002,0.387-0.004,0.58-0.011
		c0.512-0.016,0.797-0.298,0.804-0.794c0.01-0.782,0.01-1.573,0-2.354C25.979,28.147,25.694,27.864,25.185,27.85z M22.961,31.156
		c-0.34,0.861,0.019,1.321,0.462,1.698c-0.231,0.233-0.452,0.458-0.688,0.699c-0.278-0.318-0.599-0.602-1.072-0.602
		c-0.194,0-0.401,0.046-0.634,0.143c-0.851,0.35-0.88,0.938-0.853,1.525h-0.975c0.011-0.589,0.008-1.192-0.856-1.532
		c-0.229-0.091-0.433-0.135-0.624-0.135c-0.482,0-0.798,0.29-1.07,0.615l-0.694-0.701c0.43-0.405,0.849-0.837,0.476-1.685
		c-0.27-0.616-0.648-0.88-1.265-0.88c-0.079,0-0.165,0.005-0.26,0.013v-0.981c0.075,0.004,0.149,0.006,0.222,0.006
		c0.492,0,0.99-0.106,1.301-0.876c0.332-0.819,0.012-1.251-0.448-1.658l0.711-0.676c0.276,0.308,0.575,0.564,1.026,0.564
		c0.191,0,0.394-0.046,0.62-0.14c0.818-0.338,0.894-0.868,0.854-1.525h0.98c-0.033,0.639,0.049,1.19,0.885,1.533
		c0.221,0.091,0.417,0.135,0.603,0.135c0.474-0.001,0.781-0.291,1.064-0.601l0.68,0.717c-0.058,0.069-0.132,0.136-0.209,0.206
		c-0.264,0.238-0.593,0.536-0.354,1.084c0.035,0.081,0.068,0.167,0.102,0.254c0.114,0.301,0.233,0.611,0.472,0.789
		c0.214,0.159,0.504,0.182,0.811,0.206c0.092,0.008,0.186,0.015,0.278,0.026v0.923l-0.116-0.001
		C23.815,30.301,23.273,30.366,22.961,31.156z"/>
	<rect x="5.389" y="13.037" fill="#0077FF" width="19.964" height="1.453"/>
	<rect x="9.703" y="17.987" fill="#0077FF" width="15.645" height="1.438"/>
	<rect x="10.932" y="8.12" fill="#0077FF" width="14.422" height="1.437"/>
	<rect x="5.394" y="5.644" fill="#0077FF" width="12.547" height="1.447"/>
	<rect x="5.39" y="15.507" fill="#0077FF" width="12.555" height="1.445"/>
	<rect x="5.385" y="10.574" fill="#0077FF" width="11.313" height="1.439"/>
	<rect x="5.382" y="20.467" fill="#0077FF" width="9.464" height="1.435"/>
	<rect x="17.735" y="10.575" fill="#0077FF" width="7.621" height="1.445"/>
	<rect x="18.957" y="5.651" fill="#0077FF" width="6.394" height="1.437"/>
	<rect x="18.956" y="15.519" fill="#0077FF" width="6.396" height="1.427"/>
	<rect x="5.386" y="8.119" fill="#0077FF" width="4.531" height="1.434"/>
	<rect x="5.394" y="17.994" fill="#0077FF" width="3.285" height="1.436"/>
	<path fill="#0077FF" d="M31.404,18.588c-0.847,0.008-1.679,0.367-2.283,0.987c-0.6,0.616-0.923,1.411-0.91,2.24
		c0.026,1.755,1.465,3.183,3.208,3.183h0.022c0.86-0.006,1.668-0.35,2.274-0.968c0.6-0.61,0.923-1.41,0.913-2.253
		C34.606,20.019,33.173,18.588,31.404,18.588z M31.423,20.07v-0.124l0,0l0.011,0.124c0.944,0.006,1.711,0.78,1.708,1.728
		c-0.002,0.96-0.754,1.713-1.716,1.715c-0.468,0-0.908-0.186-1.239-0.523c-0.324-0.33-0.498-0.762-0.489-1.214
		C29.715,20.835,30.488,20.07,31.423,20.07z M31.419,24.87L31.419,24.87v0.002V24.87z"/>
	<path fill="#0077FF" d="M19.686,26.616c-1.759,0-3.196,1.435-3.205,3.197c-0.004,0.843,0.328,1.644,0.934,2.254
		c0.611,0.614,1.417,0.954,2.269,0.956h0.008c1.757,0,3.195-1.433,3.203-3.193c0.005-0.851-0.327-1.654-0.933-2.263
		C21.355,26.958,20.553,26.621,19.686,26.616z M19.687,28.1l0.008-0.124l0,0V28.1c0.939,0,1.709,0.767,1.715,1.709
		c0.007,0.946-0.754,1.724-1.711,1.732c-0.465,0-0.903-0.183-1.234-0.515c-0.325-0.326-0.504-0.755-0.502-1.208
		C17.966,28.89,18.755,28.103,19.687,28.1z M19.692,32.897L19.692,32.897L19.692,32.897L19.692,32.897z"/>
</g>
</svg>
