<?xml version="1.0" encoding="utf-8"?>
<!-- Generator: Adobe Illustrator 16.0.0, SVG Export Plug-In . SVG Version: 6.00 Build 0)  -->
<!DOCTYPE svg PUBLIC "-//W3C//DTD SVG 1.1//EN" "http://www.w3.org/Graphics/SVG/1.1/DTD/svg11.dtd">
<svg version="1.1" id="Layer_1" xmlns="http://www.w3.org/2000/svg" xmlns:xlink="http://www.w3.org/1999/xlink" x="0px" y="0px"
	 width="43.934px" height="40px" viewBox="0 0 43.934 40" enable-background="new 0 0 43.934 40" xml:space="preserve">
<g>
	<path fill="#1B76FF" d="M40.178,11.096c-0.236-0.039-0.471-0.083-0.704-0.125c-0.529-0.098-1.076-0.199-1.622-0.245
		c-0.812-0.067-1.146-0.312-1.289-0.979c-0.046-0.214-0.055-0.275,0.026-0.388c0.446-0.619,0.883-1.247,1.312-1.862l0.573-0.823
		l-3.17-3.212l-0.17,0.122c-0.182,0.13-0.366,0.258-0.552,0.386c-0.437,0.301-0.887,0.612-1.3,0.964
		c-0.653,0.558-1.047,0.611-1.602,0.26c-0.226-0.142-0.285-0.199-0.311-0.361C31.277,4.24,31.173,3.65,31.07,3.06l-0.165-0.952
		c-0.027-0.173-0.085-0.535-0.558-0.535c-0.577,0.004-1.154,0.005-1.735,0.005l-2.293-0.001l-0.032,0.205
		c-0.041,0.247-0.087,0.492-0.134,0.735c-0.104,0.548-0.21,1.116-0.25,1.682c-0.049,0.698-0.292,1.017-0.896,1.173
		c-0.118,0.03-0.216,0.054-0.294,0.054c-0.061,0-0.13-0.012-0.239-0.094c-0.589-0.442-1.188-0.866-1.785-1.287l-0.831-0.589
		l-3.179,3.182l0.117,0.168c0.137,0.196,0.27,0.395,0.402,0.592c0.3,0.448,0.609,0.912,0.962,1.334
		c0.474,0.569,0.53,0.965,0.216,1.514c-0.149,0.26-0.253,0.34-0.488,0.375c-0.688,0.106-1.378,0.22-2.077,0.336l-1.01,0.167v4.506
		l0.202,0.036c0.264,0.046,0.523,0.096,0.783,0.146c0.576,0.111,1.174,0.225,1.768,0.292c0.511,0.057,0.745,0.235,0.925,0.708
		c0.158,0.408,0.131,0.617-0.117,0.931c-0.408,0.515-0.779,1.049-1.14,1.566c-0.145,0.208-0.286,0.411-0.425,0.606l-0.12,0.167
		l3.174,3.214l0.642-0.45c0.671-0.471,1.35-0.947,2.029-1.416c0.122-0.082,0.193-0.102,0.201-0.103
		c0.796,0.157,1.01,0.384,1.141,1.205c0.099,0.61,0.202,1.221,0.311,1.838l0.146,0.849l1.767,0.002c0.771,0,1.537-0.004,2.297-0.016
		c0.244,0,0.469-0.296,0.51-0.494l0.058-0.281c0.139-0.688,0.282-1.402,0.362-2.117c0.051-0.446,0.203-0.638,0.652-0.815
		c0.428-0.169,0.634-0.146,0.977,0.117c0.528,0.405,1.075,0.778,1.604,1.142c0.203,0.139,0.403,0.275,0.598,0.411l0.167,0.116
		l3.211-3.179l-0.121-0.169c-0.141-0.195-0.276-0.394-0.416-0.594c-0.328-0.479-0.671-0.973-1.061-1.426
		c-0.411-0.478-0.455-0.831-0.167-1.348c0.146-0.266,0.23-0.354,0.475-0.39c0.722-0.11,1.438-0.242,2.16-0.374l0.991-0.18V11.13
		L40.178,11.096z M35.018,15.293c-0.041,0.153-0.081,0.307-0.14,0.442c-0.224,0.51-0.411,0.889-0.611,1.227
		c-0.159,0.27-0.266,0.574,0.037,0.968c0.368,0.478,0.717,0.971,1.064,1.461c0.125,0.178,0.251,0.355,0.377,0.531
		c-0.286,0.33-0.479,0.542-0.599,0.542c-0.131,0-0.382-0.177-0.765-0.446l-0.428-0.298c-0.302-0.208-0.603-0.417-0.896-0.634
		c-0.258-0.193-0.477-0.217-0.796-0.067c-0.758,0.351-1.524,0.674-2.28,0.961c-0.282,0.109-0.483,0.258-0.54,0.635
		c-0.122,0.792-0.267,1.587-0.426,2.354c-0.014,0.034-0.081,0.1-0.107,0.109c-0.128,0.018-0.259,0.021-0.393,0.021l-0.271-0.004
		c-0.035-0.002-0.071-0.003-0.108-0.003l-0.093-0.54c-0.107-0.609-0.213-1.212-0.297-1.816c-0.059-0.417-0.247-0.637-0.673-0.784
		c-0.749-0.261-1.495-0.595-2.195-0.916c-0.267-0.12-0.495-0.141-0.749,0.045c-0.33,0.241-0.667,0.475-1.003,0.709
		c-0.325,0.226-0.65,0.452-0.971,0.685c-0.091,0.066-0.121,0.07-0.12,0.07c0,0-0.023-0.007-0.074-0.062
		c-0.151-0.164-0.317-0.313-0.497-0.472l-0.065-0.059c0.106-0.15,0.211-0.3,0.315-0.448c0.349-0.498,0.679-0.969,1.037-1.423
		c0.346-0.44,0.287-0.778,0.079-1.18c-0.286-0.554-0.548-1.198-0.825-2.028c-0.129-0.386-0.336-0.567-0.715-0.626
		c-0.323-0.051-0.646-0.109-0.967-0.167c-0.399-0.072-0.799-0.144-1.197-0.202c-0.252-0.037-0.25-0.058-0.229-0.221
		c0.026-0.204,0.021-0.405,0.015-0.617c-0.001-0.029-0.002-0.059-0.002-0.089c0.166-0.03,0.33-0.061,0.493-0.091
		c0.528-0.1,1.026-0.194,1.534-0.239c0.658-0.059,0.987-0.34,1.172-1.003c0.168-0.604,0.468-1.195,0.757-1.767l0.057-0.111
		c0.137-0.271,0.181-0.516-0.049-0.833c-0.372-0.52-0.736-1.046-1.106-1.582l-0.323-0.467l0.607-0.626l0.442,0.313
		c0.514,0.363,1.021,0.722,1.519,1.098c0.324,0.246,0.562,0.274,0.987,0.063c0.62-0.31,1.302-0.592,2.025-0.838
		c0.354-0.12,0.675-0.274,0.737-0.835c0.065-0.587,0.171-1.178,0.271-1.749c0.032-0.186,0.064-0.37,0.097-0.553
		c0.206-0.016,0.372-0.028,0.506-0.028c0.355,0,0.362,0,0.524,0.888c0.034,0.188,0.065,0.375,0.098,0.564
		c0.062,0.364,0.122,0.727,0.203,1.084c0.047,0.216,0.243,0.451,0.457,0.546c0.771,0.347,1.589,0.689,2.426,1.019
		c0.199,0.079,0.501,0.044,0.675-0.076c0.555-0.38,1.099-0.773,1.651-1.173l0.414-0.298l0.599,0.654l-0.26,0.375
		c-0.375,0.542-0.761,1.099-1.158,1.647c-0.224,0.309-0.185,0.554-0.058,0.827c0.192,0.418,0.369,0.845,0.545,1.271
		c0.14,0.34,0.28,0.68,0.429,1.016c0.086,0.195,0.303,0.427,0.535,0.472c0.678,0.131,1.357,0.243,2.05,0.355l0.461,0.076v0.873
		l-1.268,0.235c-0.14,0.025-0.286,0.038-0.435,0.051c-0.381,0.034-0.773,0.069-1.067,0.295
		C35.199,14.606,35.107,14.955,35.018,15.293z"/>
	<path fill="#1B76FF" d="M10.07,30.432c-0.146-1.156-0.303-2.312-0.46-3.467c-0.116-0.859-0.233-1.721-0.347-2.582
		c-0.05-0.374-0.225-0.613-0.567-0.775c-0.924-0.437-1.859-0.912-2.664-1.323c-0.224-0.114-0.345-0.2-0.36-0.255
		c-0.017-0.057,0.043-0.202,0.179-0.434l0.823-1.417c0.784-1.35,1.568-2.699,2.344-4.053c0.14-0.242,0.206-0.522,0.257-0.765
		c0.1-0.463,0.186-0.93,0.271-1.397c0.17-0.923,0.347-1.877,0.622-2.778c1.118-3.65,3.499-5.973,7.077-6.906
		c0.301-0.079,0.605-0.137,0.912-0.196c0.237-0.046,0.477-0.092,0.714-0.147c0.588-0.138,0.943-0.633,0.866-1.202
		c-0.072-0.536-0.519-0.91-1.085-0.91l-0.088,0.003c-0.186,0.013-0.37,0.048-0.593,0.091c-3.563,0.679-6.188,2.266-8.024,4.851
		c-1.258,1.773-2.049,3.862-2.566,6.772c-0.033,0.187-0.055,0.376-0.076,0.565c-0.054,0.478-0.105,0.929-0.352,1.34
		c-0.733,1.222-1.444,2.457-2.156,3.691l-0.872,1.508c-0.373,0.646-0.472,1.354-0.278,2c0.191,0.639,0.658,1.17,1.313,1.494
		l0.494,0.245c0.527,0.261,1.057,0.521,1.571,0.802c0.081,0.045,0.18,0.184,0.191,0.271c0.115,0.775,0.22,1.555,0.325,2.331
		c0.146,1.079,0.292,2.159,0.463,3.235c0.32,2.023,1.494,3.379,3.396,3.916c0.561,0.158,1.154,0.168,1.729,0.176
		c0.197,0.003,0.393,0.005,0.587,0.014c0.216,0.01,0.433,0.014,0.652,0.014l0.771-0.006v3.278h2.095V33l-4.29-0.002
		C11.278,32.998,10.283,32.109,10.07,30.432z"/>
	<path fill="#1B76FF" d="M34.149,24.624c-0.514-0.347-1.143-0.21-1.517,0.33c-1.033,1.496-1.738,2.979-2.153,4.535
		c-0.582,2.18-0.525,4.421-0.473,6.589c0.018,0.699,0.034,1.4,0.031,2.104l-0.001,0.246h2.111v-0.244c0-0.531-0.005-1.06-0.01-1.584
		c-0.011-1.248-0.021-2.43,0.027-3.631c0.043-0.982,0.189-2.017,0.439-3.07c0.279-1.174,0.831-2.328,1.79-3.741
		c0.192-0.285,0.265-0.589,0.206-0.878C34.55,25.016,34.389,24.783,34.149,24.624z"/>
	<path fill="#1B76FF" d="M28.673,9.03h-0.069c-2.382,0-4.354,1.928-4.399,4.298c-0.021,1.158,0.416,2.26,1.23,3.103
		c0.83,0.857,1.942,1.337,3.134,1.354h0.058c2.353,0,4.297-1.942,4.334-4.329c0.018-1.155-0.421-2.254-1.234-3.095
		C30.91,9.52,29.827,9.048,28.673,9.03z M26.351,13.386c0.006-1.237,0.99-2.206,2.241-2.206v-0.244l0,0l0.012,0.244
		c0.609,0.003,1.176,0.239,1.596,0.666c0.413,0.42,0.638,0.979,0.63,1.573c-0.015,1.224-1.018,2.219-2.258,2.219h-0.001
		C27.322,15.625,26.346,14.637,26.351,13.386z M28.624,17.535L28.624,17.535l0.001,0.005L28.624,17.535z"/>
</g>
</svg>
