<?xml version="1.0" encoding="utf-8"?>
<!-- Generator: Adobe Illustrator 16.0.0, SVG Export Plug-In . SVG Version: 6.00 Build 0)  -->
<!DOCTYPE svg PUBLIC "-//W3C//DTD SVG 1.1//EN" "http://www.w3.org/Graphics/SVG/1.1/DTD/svg11.dtd">
<svg version="1.1" id="Layer_1" xmlns="http://www.w3.org/2000/svg" xmlns:xlink="http://www.w3.org/1999/xlink" x="0px" y="0px"
	 width="43.934px" height="40px" viewBox="0 0 43.934 40" enable-background="new 0 0 43.934 40" xml:space="preserve">
<g>
	<path fill-rule="evenodd" clip-rule="evenodd" fill="#1B76FF" d="M40.492,33.099c0,1.544,0,3.087,0,4.631
		c-0.172,0.358-0.438,0.623-0.796,0.796c-4.052,0-8.104,0-12.157,0c-0.625-0.288-0.838-0.782-0.805-1.456
		c0.038-0.79,0.009-1.582,0.009-2.359c-2.689-0.864-2.689-0.864-4.797-3.128c-1.149,1.697-2.732,2.739-4.756,3.104
		c0,0.818-0.029,1.603,0.009,2.383c0.032,0.674-0.181,1.167-0.805,1.456c-4.053,0-8.105,0-12.157,0
		c-0.357-0.173-0.623-0.438-0.796-0.796c0-1.544,0-3.087,0-4.631c0.022-0.08,0.053-0.159,0.065-0.241
		c0.142-0.938,0.511-1.778,1.093-2.523s1.322-1.292,2.216-1.685c-0.639-0.912-0.93-1.904-0.82-2.986
		c0.111-1.096,0.577-2.027,1.392-2.779c1.383-1.275,3.451-1.513,5.065-0.58c0.841,0.486,1.465,1.169,1.848,2.063
		c0.561,1.31,0.45,2.599-0.206,3.884c0.656,0,1.258,0.002,1.86-0.001c0.442-0.002,0.583-0.143,0.585-0.583
		c0.003-0.892,0-1.783,0.002-2.676c0.002-0.735,0.225-1.401,0.681-1.978c0.192-0.243,0.539-0.415,0.622-0.681
		c0.083-0.264-0.116-0.602-0.123-0.909c-0.021-0.915-0.045-1.834-0.001-2.748c0.051-1.095-0.388-1.91-1.203-2.61
		c-4.785-4.111-3.341-11.936,2.6-14.075c0.661-0.238,1.369-0.348,2.055-0.516c0.531,0,1.062,0,1.592,0
		C22.842,1.497,22.919,1.531,23,1.541c4.793,0.563,8.136,5.254,7.107,9.974c-0.4,1.84-1.309,3.382-2.742,4.6
		c-0.777,0.66-1.191,1.449-1.148,2.488c0.036,0.842,0.02,1.688,0.002,2.531c-0.007,0.334-0.093,0.665-0.114,0.999
		c-0.007,0.116,0.035,0.278,0.117,0.351c0.799,0.707,1.186,1.586,1.175,2.651c-0.009,0.855,0.001,1.711-0.004,2.567
		c-0.002,0.273,0.085,0.518,0.371,0.53c0.678,0.03,1.357,0.01,2.051,0.01c-0.938-2.518-0.481-4.448,1.329-5.728
		c1.574-1.111,3.768-1.019,5.241,0.223c0.773,0.65,1.277,1.472,1.483,2.46c0.259,1.244-0.022,2.388-0.738,3.446
		c0.141,0.071,0.258,0.129,0.374,0.189c1.202,0.624,2.082,1.554,2.582,2.812C40.271,32.109,40.36,32.612,40.492,33.099z
		 M23.053,17.383c0.391,0,0.726,0,1.085,0c0.263-1.326,1.091-2.259,2.055-3.144c2.149-1.974,2.54-5.225,0.989-7.7
		C25.613,4.034,22.513,3,19.755,4.061c-4.3,1.653-5.312,7.3-1.849,10.34c0.631,0.555,1.202,1.152,1.539,1.934
		c0.146,0.339,0.26,0.693,0.386,1.034c0.346,0,0.689,0,1.051,0c0-1.856,0.003-3.687-0.007-5.518c0-0.111-0.088-0.243-0.173-0.33
		c-0.538-0.553-1.088-1.094-1.631-1.642c-0.291-0.293-0.426-0.643-0.325-1.054c0.206-0.837,1.185-1.118,1.824-0.51
		c0.469,0.445,0.907,0.924,1.384,1.412c0.469-0.471,0.891-0.899,1.316-1.322c0.522-0.518,1.179-0.556,1.635-0.1
		c0.456,0.455,0.42,1.111-0.098,1.636c-0.517,0.523-1.047,1.033-1.552,1.567c-0.109,0.115-0.191,0.307-0.193,0.464
		c-0.014,1.519-0.008,3.038-0.008,4.556C23.053,16.805,23.053,17.079,23.053,17.383z M38.322,36.34c0-0.849,0.001-1.656,0-2.464
		c-0.002-2.071-1.377-3.453-3.44-3.455c-2.315-0.002-4.631,0.003-6.946-0.001c-1.592-0.003-2.704-1.12-2.71-2.713
		c-0.004-0.893,0.004-1.785-0.004-2.678c-0.004-0.559-0.342-1.017-0.868-1.088c-0.421-0.057-0.854-0.011-1.3-0.011
		c0,1.246-0.001,2.463,0,3.68c0.001,2.845,1.923,4.852,4.77,4.981c0.639,0.029,1.081,0.472,1.089,1.114
		c0.01,0.748,0.003,1.496,0.003,2.243c0,0.128,0,0.256,0,0.391C32.069,36.34,35.176,36.34,38.322,36.34z M15.02,36.337
		c0-0.831,0-1.637,0-2.441c0.001-0.885,0.385-1.281,1.264-1.306c2.25-0.064,4.276-1.802,4.511-4.038
		c0.149-1.42,0.066-2.864,0.086-4.298c0.002-0.105,0-0.21,0-0.347c-0.348,0-0.66-0.001-0.97,0.001
		c-0.752,0.005-1.196,0.441-1.2,1.186c-0.004,0.845,0,1.688,0,2.532c-0.002,1.708-1.095,2.794-2.812,2.794
		c-2.339,0.002-4.68-0.007-7.019,0.004c-1.628,0.008-2.999,1.117-3.193,2.728c-0.125,1.042-0.024,2.11-0.024,3.186
		C8.753,36.337,11.86,36.337,15.02,36.337z M12.486,26.071c-0.003-1.19-0.979-2.161-2.168-2.163c-1.191,0-2.167,0.97-2.171,2.159
		c-0.004,1.206,0.981,2.188,2.186,2.182C11.519,28.241,12.489,27.261,12.486,26.071z M35.788,26.094
		c0.006-1.191-0.958-2.175-2.146-2.186c-1.193-0.01-2.179,0.949-2.193,2.137c-0.015,1.208,0.96,2.201,2.163,2.204
		C34.801,28.251,35.781,27.281,35.788,26.094z M19.883,19.581c0,0.605-0.007,1.18,0.003,1.755c0.004,0.255,0.15,0.399,0.413,0.399
		c1.12,0.001,2.239,0.013,3.357-0.015c0.133-0.004,0.366-0.211,0.374-0.335c0.04-0.595,0.018-1.194,0.018-1.805
		C22.651,19.581,21.294,19.581,19.883,19.581z"/>
	<path fill-rule="evenodd" clip-rule="evenodd" fill="#1B76FF" d="M9.301,16.668c-0.542-0.001-0.958-0.309-1.098-0.763
		c-0.143-0.457,0.003-0.948,0.417-1.204c0.664-0.411,1.34-0.805,2.028-1.172c0.495-0.264,1.1-0.065,1.387,0.403
		c0.282,0.459,0.211,1.098-0.242,1.393c-0.702,0.459-1.446,0.855-2.179,1.267C9.504,16.653,9.361,16.654,9.301,16.668z"/>
	<path fill-rule="evenodd" clip-rule="evenodd" fill="#1B76FF" d="M12.194,5.015c0.006,0.87-0.832,1.413-1.553,1.042
		c-0.683-0.352-1.347-0.745-2-1.15C8.144,4.599,8.01,3.978,8.286,3.479C8.56,2.987,9.175,2.764,9.687,3.033
		c0.702,0.369,1.383,0.776,2.059,1.19C12.052,4.41,12.178,4.728,12.194,5.015z"/>
	<path fill-rule="evenodd" clip-rule="evenodd" fill="#1B76FF" d="M9.308,8.711c0.361,0,0.722-0.009,1.082,0.002
		c0.615,0.018,1.08,0.488,1.082,1.079c0.002,0.591-0.461,1.074-1.075,1.085c-0.733,0.014-1.467,0.015-2.2,0
		c-0.608-0.013-1.072-0.507-1.064-1.096C7.14,9.208,7.599,8.736,8.19,8.714C8.562,8.701,8.935,8.711,9.308,8.711z"/>
	<path fill-rule="evenodd" clip-rule="evenodd" fill="#1B76FF" d="M32.821,13.375c0.201,0.072,0.415,0.12,0.6,0.221
		c0.589,0.325,1.171,0.664,1.749,1.007c0.599,0.355,0.786,0.998,0.463,1.539c-0.315,0.527-0.952,0.67-1.543,0.337
		c-0.606-0.343-1.214-0.686-1.811-1.045c-0.444-0.267-0.628-0.741-0.501-1.207C31.906,13.752,32.323,13.425,32.821,13.375z"/>
	<path fill-rule="evenodd" clip-rule="evenodd" fill="#1B76FF" d="M35.785,4.077c-0.019,0.332-0.186,0.654-0.531,0.859
		c-0.63,0.375-1.262,0.748-1.905,1.097c-0.548,0.296-1.179,0.105-1.469-0.41c-0.294-0.521-0.131-1.146,0.406-1.47
		c0.617-0.373,1.24-0.736,1.873-1.081C34.913,2.665,35.787,3.175,35.785,4.077z"/>
	<path fill-rule="evenodd" clip-rule="evenodd" fill="#1B76FF" d="M34.631,10.881c-0.36,0-0.722,0.009-1.082-0.001
		c-0.615-0.018-1.082-0.485-1.088-1.074c-0.005-0.604,0.471-1.083,1.105-1.092c0.709-0.01,1.419-0.01,2.128,0
		c0.638,0.009,1.111,0.486,1.106,1.091c-0.005,0.605-0.479,1.064-1.123,1.076C35.329,10.887,34.981,10.881,34.631,10.881z"/>
</g>
</svg>
