<svg width="70" height="70" viewBox="0 0 70 70" fill="none" xmlns="http://www.w3.org/2000/svg">
<g clip-path="url(#clip0_1_631)">
<path d="M66.8555 58.4473L52.582 56.8203L46.8535 70L33.4824 46.8398L53.4844 35.2871L66.8555 58.4473Z" fill="#B0B8FF"/>
<path d="M36.4492 45.1309L50.5176 36.9961L60.498 54.2773L50.4492 53.1289L46.416 62.4121L36.4492 45.1309Z" fill="#E6E8FF"/>
<path d="M3.14453 58.4473L17.418 56.8203L23.1465 70L36.5176 46.8398L16.5156 35.2871L3.14453 58.4473Z" fill="#B0B8FF"/>
<path d="M33.5508 45.1309L19.4824 36.9961L9.50195 54.2773L19.5508 53.1289L23.5703 62.4121L33.5508 45.1309Z" fill="#E6E8FF"/>
<path d="M37.8574 1.32617C38.9238 2.59766 40.7148 3.00781 42.2461 2.32422C44.3516 1.38086 46.8125 2.55664 47.3867 4.79883C47.7969 6.41211 49.2324 7.56055 50.9004 7.60156C53.2109 7.65625 54.9199 9.78906 54.4551 12.0586C54.1269 13.6855 54.9199 15.3535 56.4101 16.1055C58.4746 17.1582 59.0762 19.8242 57.6816 21.6699C56.6699 22.9961 56.6699 24.8281 57.6816 26.168C59.0762 28.0137 58.4746 30.666 56.4101 31.7324C54.9199 32.498 54.1269 34.1523 54.4551 35.7793C54.9062 38.0488 53.2109 40.1816 50.9004 40.2363C49.2324 40.2773 47.7969 41.4258 47.3867 43.0391C46.8125 45.2812 44.3516 46.457 42.2461 45.5137C40.7285 44.8301 38.9375 45.2402 37.8574 46.5117C36.3672 48.2891 33.6465 48.2891 32.1562 46.5117C31.0898 45.2402 29.2988 44.8301 27.7676 45.5137C25.6621 46.4707 23.2012 45.2812 22.6269 43.0391C22.2168 41.4258 20.7812 40.2773 19.1133 40.2363C16.8027 40.1816 15.0937 38.0488 15.5586 35.7793C15.8867 34.1523 15.0937 32.4844 13.6035 31.7324C11.5391 30.6797 10.9375 28.0137 12.332 26.168C13.3301 24.8418 13.3301 23.0098 12.332 21.6699C10.9375 19.8242 11.5391 17.1719 13.6035 16.1055C15.0801 15.3398 15.8867 13.6855 15.5586 12.0586C15.1074 9.78906 16.8027 7.65625 19.1133 7.60156C20.7812 7.56055 22.2168 6.41211 22.6269 4.79883C23.2012 2.55664 25.6621 1.38086 27.7676 2.32422C29.2852 3.00781 31.0762 2.59766 32.1562 1.32617C33.6328 -0.4375 36.3672 -0.4375 37.8574 1.32617Z" fill="#0119FF"/>
<path d="M35 41.3574C44.6272 41.3574 52.4316 33.553 52.4316 23.9258C52.4316 14.2986 44.6272 6.49414 35 6.49414C25.3728 6.49414 17.5684 14.2986 17.5684 23.9258C17.5684 33.553 25.3728 41.3574 35 41.3574Z" fill="#E6E8FF"/>
<path d="M28.1504 35.4375V32.1973L32.2383 31.6914V17.1445L28.1094 17.1035V14.041L37.7617 12.4277V31.6914L41.8633 32.1973V35.4375H28.1504Z" fill="#5565FF"/>
</g>
<defs>
<clipPath id="clip0_1_631">
<rect width="70" height="70" fill="white"/>
</clipPath>
</defs>
</svg>
