<svg width="90" height="90" viewBox="0 0 90 90" fill="none" xmlns="http://www.w3.org/2000/svg">
<path fill-rule="evenodd" clip-rule="evenodd" d="M88.3301 12.7798V82.4936C88.3301 85.7037 85.7036 88.33 82.4936 88.33H7.50621C4.29627 88.33 1.66992 85.7037 1.66992 82.4936V12.7798H88.3301Z" fill="#8A95FF"/>
<path fill-rule="evenodd" clip-rule="evenodd" d="M10.7185 24.6262H79.2814C79.8617 24.6262 80.3361 25.1007 80.3361 25.6809V79.2815C80.3361 79.8618 79.8617 80.3362 79.2814 80.3362H10.7185C10.1384 80.3362 9.66394 79.8618 9.66394 79.2815V25.6809C9.66394 25.1007 10.1384 24.6262 10.7185 24.6262Z" fill="#B0B8FF"/>
<path fill-rule="evenodd" clip-rule="evenodd" d="M82.4936 1.66992H7.50621C4.29609 1.66992 1.66992 4.29627 1.66992 7.50639V16.6322H88.3301V7.50639C88.3301 4.29627 85.7037 1.66992 82.4936 1.66992Z" fill="#010E8C"/>
<path fill-rule="evenodd" clip-rule="evenodd" d="M9.78363 11.5387C11.0985 11.5387 12.1711 10.4661 12.1711 9.15124C12.1711 7.83604 11.0985 6.76343 9.78363 6.76343C8.46861 6.76343 7.39581 7.83604 7.39581 9.15124C7.39581 10.4661 8.46861 11.5387 9.78363 11.5387Z" fill="#B0B8FF"/>
<path fill-rule="evenodd" clip-rule="evenodd" d="M17.5128 11.5387C18.8278 11.5387 19.9004 10.4661 19.9004 9.15124C19.9004 7.83604 18.8278 6.76343 17.5128 6.76343C16.1977 6.76343 15.1251 7.83604 15.1251 9.15124C15.1251 10.4661 16.1976 11.5387 17.5128 11.5387Z" fill="#B0B8FF"/>
<path fill-rule="evenodd" clip-rule="evenodd" d="M25.2418 11.5387C26.5569 11.5387 27.6296 10.4661 27.6296 9.15124C27.6296 7.83604 26.5569 6.76343 25.2418 6.76343C23.927 6.76343 22.8544 7.83604 22.8544 9.15124C22.8544 10.4661 23.9268 11.5387 25.2418 11.5387Z" fill="#B0B8FF"/>
<path fill-rule="evenodd" clip-rule="evenodd" d="M79.773 7.65723C80.5983 7.65723 81.2672 8.32607 81.2672 9.15137C81.2672 9.97631 80.5983 10.6455 79.773 10.6455H54.3716C53.5466 10.6455 52.8774 9.97631 52.8774 9.15137C52.8774 8.32607 53.5466 7.65723 54.3716 7.65723H79.773Z" fill="#010E8C"/>
<path fill-rule="evenodd" clip-rule="evenodd" d="M43.7869 63.7911C43.5366 64.728 42.5745 65.2842 41.6376 65.0338C40.7011 64.7835 40.1447 63.8217 40.395 62.8846L46.2129 41.1714C46.4632 40.2348 47.4254 39.6783 48.3621 39.9286C49.2989 40.1789 49.8552 41.1411 49.6049 42.0779L43.7869 63.7911ZM35.9511 59.5939C36.6375 60.2806 36.6375 61.3929 35.9511 62.0797C35.2647 62.7659 34.152 62.7659 33.4656 62.0797L25.11 53.7239C24.4235 53.0377 24.4235 51.925 25.11 51.2385L33.4656 42.8828C34.1518 42.1965 35.2645 42.1965 35.9511 42.8828C36.6375 43.5694 36.6375 44.6821 35.9511 45.3685L28.8383 52.4815L35.9511 59.5939ZM56.5342 62.0797C55.848 62.7659 54.7349 62.7659 54.0485 62.0797C53.3622 61.3931 53.3622 60.2807 54.0485 59.5939L61.1611 52.4813L54.0485 45.3683C53.3622 44.6821 53.3622 43.5694 54.0485 42.8826C54.7347 42.1963 55.8478 42.1963 56.5342 42.8826L64.8896 51.2384C65.5759 51.9246 65.5759 53.0373 64.8896 53.7237L56.5342 62.0797Z" fill="#0119FF"/>
</svg>
