<svg width="90" height="90" viewBox="0 0 90 90" fill="none" xmlns="http://www.w3.org/2000/svg">
<path fill-rule="evenodd" clip-rule="evenodd" d="M78.9505 7.59881C81.1809 7.59881 83 9.24166 83 11.2558V84.6733C83 86.6875 81.1809 88.3302 78.9505 88.3302H10.9037C8.67305 88.3302 6.85413 86.6875 6.85413 84.6733V11.2556C6.85413 9.24148 8.67305 7.59863 10.9037 7.59863L78.9505 7.59881Z" fill="#8A95FF"/>
<path fill-rule="evenodd" clip-rule="evenodd" d="M13.4525 14.9639V80.9653C13.4525 81.7398 14.1523 82.3716 15.0098 82.3716H66.0641C66.493 82.3716 66.8621 82.2336 67.1651 81.9597L75.9452 74.0315C76.2483 73.7576 76.4011 73.4245 76.4011 73.0372V14.9639C76.4011 14.1894 75.7015 13.5576 74.8438 13.5576H15.0098C14.1523 13.5576 13.4525 14.1894 13.4525 14.9639Z" fill="#B0B8FF"/>
<path fill-rule="evenodd" clip-rule="evenodd" d="M66.7096 74.3228V82.2496C66.8751 82.1814 67.0271 82.0847 67.1655 81.9597L75.9455 74.0315C76.084 73.9065 76.1912 73.769 76.2664 73.6196H67.4882C67.0594 73.6196 66.7096 73.9355 66.7096 74.3228Z" fill="#010E8C"/>
<path fill-rule="evenodd" clip-rule="evenodd" d="M30.0848 7.59885H38.3612C38.3612 4.33775 41.316 1.66992 44.927 1.66992C48.538 1.66992 51.4928 4.33793 51.4928 7.59885H59.7692C60.6273 7.59885 61.3269 8.23043 61.3269 9.00527V15.0036C61.3269 15.7779 60.6273 16.4099 59.7692 16.4099H30.0848C29.2271 16.4099 28.5275 15.7779 28.5275 15.0036V9.00527C28.5275 8.23043 29.2271 7.59885 30.0848 7.59885Z" fill="#010E8C"/>
<path fill-rule="evenodd" clip-rule="evenodd" d="M54.1468 72.7173C55.0605 72.7173 55.8014 73.3863 55.8014 74.2114C55.8014 75.0365 55.0605 75.7055 54.1468 75.7055H41.8056C40.8916 75.7055 40.151 75.0365 40.151 74.2114C40.151 73.3863 40.8916 72.7173 41.8056 72.7173H54.1468ZM54.1468 29.8409C55.0605 29.8409 55.8014 30.5101 55.8014 31.335C55.8014 32.1601 55.0605 32.8291 54.1468 32.8291H41.8056C40.8916 32.8291 40.151 32.1601 40.151 31.335C40.151 30.5101 40.8916 29.8409 41.8056 29.8409H54.1468ZM66.4884 23.5737C67.4019 23.5737 68.143 24.2428 68.143 25.0679C68.143 25.8928 67.4019 26.562 66.4884 26.562H41.8054C40.8914 26.562 40.1508 25.8928 40.1508 25.0679C40.1508 24.2428 40.8914 23.5737 41.8054 23.5737H66.4884ZM54.1468 44.1329C55.0605 44.1329 55.8014 44.802 55.8014 45.6271C55.8014 46.452 55.0605 47.1212 54.1468 47.1212H41.8056C40.8916 47.1212 40.151 46.452 40.151 45.6271C40.151 44.802 40.8916 44.1329 41.8056 44.1329H54.1468ZM66.4884 37.8658C67.4019 37.8658 68.143 38.5348 68.143 39.3599C68.143 40.1851 67.4019 40.8541 66.4884 40.8541H41.8054C40.8914 40.8541 40.1508 40.1851 40.1508 39.3599C40.1508 38.5348 40.8914 37.8658 41.8054 37.8658H66.4884ZM54.1468 58.4252C55.0605 58.4252 55.8014 59.094 55.8014 59.9193C55.8014 60.7443 55.0605 61.4135 54.1468 61.4135H41.8056C40.8916 61.4135 40.151 60.7443 40.151 59.9193C40.151 59.094 40.8916 58.4252 41.8056 58.4252H54.1468ZM66.4884 52.1579C67.4019 52.1579 68.143 52.8271 68.143 53.652C68.143 54.4773 67.4019 55.1462 66.4884 55.1462H41.8054C40.8914 55.1462 40.1508 54.4773 40.1508 53.652C40.1508 52.8271 40.8914 52.1579 41.8054 52.1579H66.4884ZM66.4884 66.4499C67.4019 66.4499 68.143 67.1191 68.143 67.9441C68.143 68.7692 67.4019 69.4382 66.4884 69.4382H41.8054C40.8914 69.4382 40.1508 68.7692 40.1508 67.9441C40.1508 67.1191 40.8914 66.4499 41.8054 66.4499H66.4884Z" fill="#8A95FF"/>
<path fill-rule="evenodd" clip-rule="evenodd" d="M24.3333 66.6323H32.6217C33.0505 66.6323 33.4003 66.9482 33.4003 67.3354V74.8199C33.4003 75.2071 33.0505 75.523 32.6217 75.523H24.3333C23.9045 75.523 23.5547 75.2071 23.5547 74.8199V67.3354C23.5547 66.9482 23.9045 66.6323 24.3333 66.6323Z" fill="#8A95FF"/>
<path fill-rule="evenodd" clip-rule="evenodd" d="M31.7066 24.4327C32.2293 23.858 33.0791 23.8554 33.6045 24.4272C34.1299 24.9989 34.1324 25.9286 33.6097 26.5033L28.2715 32.3982C27.7525 32.9694 26.9106 32.9756 26.3843 32.4154L26.3841 32.4156L23.4064 29.2401C22.8752 28.6746 22.8633 27.745 23.3801 27.1638C23.8971 26.5827 24.7467 26.5697 25.278 27.1351L27.3036 29.2951L31.7066 24.4327ZM31.7066 52.6019C32.2293 52.0269 33.0791 52.0243 33.6045 52.5962C34.1299 53.168 34.1324 54.0977 33.6097 54.6725L28.2715 60.5672C27.7525 61.1383 26.9106 61.1444 26.3843 60.5843L26.3841 60.5845L23.4064 57.4089C22.8752 56.8435 22.8633 55.914 23.3801 55.3326C23.8971 54.7514 24.7467 54.7385 25.278 55.304L27.3036 57.4642L31.7066 52.6019ZM31.7066 38.5173C32.2293 37.9425 33.0791 37.9398 33.6045 38.5116C34.1299 39.0834 34.1324 40.0131 33.6097 40.5879L28.2715 46.4826C27.7525 47.0538 26.9106 47.0602 26.3843 46.4998L26.3841 46.5L23.4064 43.3245C22.8752 42.7589 22.8633 41.8296 23.3801 41.2482C23.8971 40.6671 24.7467 40.6541 25.278 41.2197L27.3036 43.3796L31.7066 38.5173Z" fill="#0119FF"/>
</svg>
