<svg width="90" height="90" viewBox="0 0 90 90" fill="none" xmlns="http://www.w3.org/2000/svg">
<path fill-rule="evenodd" clip-rule="evenodd" d="M84.2524 30.8411H28.6784C26.3358 30.8411 24.4256 32.7516 24.4256 35.0943V69.9172C24.4256 72.2601 26.3358 74.1706 28.6784 74.1706H60.2822L78.2908 87.1011V74.1706H84.2522C86.595 74.1706 88.5058 72.2601 88.5058 69.9172V35.0944C88.5059 32.7518 86.5952 30.8411 84.2524 30.8411Z" fill="#010E8C"/>
<path fill-rule="evenodd" clip-rule="evenodd" d="M5.74751 2.89868H61.3208C63.6636 2.89868 65.574 4.80907 65.574 7.15188V41.975C65.574 44.3177 63.6636 46.2282 61.3208 46.2282H29.7174L11.7091 59.1587V46.2282H5.74751C3.40452 46.2282 1.49396 44.3177 1.49396 41.975V7.15188C1.49396 4.80907 3.40452 2.89868 5.74751 2.89868Z" fill="#8A95FF"/>
<path fill-rule="evenodd" clip-rule="evenodd" d="M14.1776 36.8026C13.4008 36.8026 12.7713 36.1731 12.7713 35.3965C12.7713 34.6197 13.4008 33.9902 14.1776 33.9902H52.8909C53.6675 33.9902 54.297 34.6197 54.297 35.3965C54.297 36.1731 53.6675 36.8026 52.8909 36.8026H14.1776ZM14.1776 25.9695C13.4008 25.9695 12.7713 25.34 12.7713 24.5633C12.7713 23.7867 13.4008 23.157 14.1776 23.157H52.8909C53.6675 23.157 54.297 23.7867 54.297 24.5633C54.297 25.34 53.6675 25.9695 52.8909 25.9695H14.1776ZM14.1776 15.1365C13.4008 15.1365 12.7713 14.5068 12.7713 13.7302C12.7713 12.9536 13.4008 12.324 14.1776 12.324H52.8909C53.6675 12.324 54.297 12.9536 54.297 13.7302C54.297 14.5068 53.6675 15.1365 52.8909 15.1365H14.1776Z" fill="#0119FF"/>
</svg>
