<svg width="64" height="64" viewBox="0 0 64 64" fill="none" xmlns="http://www.w3.org/2000/svg">
<path d="M56.7204 10.8464C56.6891 10.4664 56.3779 10.1701 55.9966 10.1589C46.8929 9.86264 38.9741 7.13014 32.4616 2.03389C32.1904 1.82139 31.8091 1.82139 31.5379 2.03389C25.0241 7.13014 17.1054 9.86264 8.0016 10.1589C7.62035 10.1714 7.3091 10.4676 7.27785 10.8464C6.0916 25.2526 7.91285 36.4926 12.8466 45.2114C16.8591 52.3026 22.8391 57.6526 31.6654 62.0464C31.7704 62.0989 31.8854 62.1251 31.9991 62.1251C32.1129 62.1251 32.2279 62.0989 32.3329 62.0464C41.1591 57.6526 47.1379 52.3039 51.1516 45.2114C56.0841 36.4926 57.9066 25.2514 56.7204 10.8464ZM31.9991 60.5364C19.8004 54.3851 6.32035 43.1951 8.72035 11.6314C17.6566 11.2251 25.4829 8.51514 31.9991 3.57139C38.5166 8.51514 46.3416 11.2239 55.2779 11.6314C57.6779 43.1951 44.1979 54.3851 31.9991 60.5364ZM51.1179 15.0301C44.2054 14.1914 37.9091 11.9651 32.4066 8.41139C32.1591 8.25139 31.8404 8.25139 31.5929 8.41139C26.0904 11.9651 19.7941 14.1914 12.8816 15.0301C12.5154 15.0751 12.2366 15.3789 12.2229 15.7464C11.8029 26.9401 13.4979 35.7351 17.4016 42.6351C20.5416 48.1851 25.0654 52.4701 31.6366 56.1214C31.7504 56.1839 31.8754 56.2164 32.0004 56.2164C32.1254 56.2164 32.2516 56.1851 32.3641 56.1214C38.9354 52.4701 43.4591 48.1851 46.5991 42.6351C50.5029 35.7351 52.1966 26.9401 51.7779 15.7464C51.7629 15.3776 51.4829 15.0739 51.1179 15.0301ZM45.2929 41.8964C42.3529 47.0926 38.1216 51.1401 31.9991 54.6064C25.8766 51.1401 21.6454 47.0926 18.7054 41.8964C15.0154 35.3751 13.3766 27.0426 13.6991 16.4376C20.4216 15.5364 26.5729 13.3501 31.9991 9.93139C37.4254 13.3501 43.5766 15.5364 50.2991 16.4376C50.6216 27.0426 48.9829 35.3751 45.2929 41.8964ZM39.6916 25.8676H39.0954V24.8789C39.0954 21.0126 35.9504 17.8676 32.0841 17.8676C28.2179 17.8676 25.0729 21.0126 25.0729 24.8789V25.8676H24.4766C23.3229 25.8676 22.3841 26.8064 22.3841 27.9601V40.8489C22.3841 42.0026 23.3229 42.9414 24.4766 42.9414H39.6929C40.8466 42.9414 41.7854 42.0026 41.7854 40.8489V27.9601C41.7841 26.8064 40.8454 25.8676 39.6916 25.8676ZM26.5716 24.8789C26.5716 21.8401 29.0441 19.3676 32.0829 19.3676C35.1216 19.3676 37.5941 21.8401 37.5941 24.8789V25.8676H36.0941V24.8789C36.0941 22.6664 34.2941 20.8676 32.0829 20.8676C29.8704 20.8676 28.0716 22.6676 28.0716 24.8789V25.8676H26.5716V24.8789ZM34.5954 25.8676H29.5729V24.8789C29.5729 23.4939 30.6991 22.3676 32.0841 22.3676C33.4691 22.3676 34.5954 23.4939 34.5954 24.8789V25.8676ZM40.2841 40.8489C40.2841 41.1751 40.0179 41.4414 39.6916 41.4414H24.4754C24.1491 41.4414 23.8829 41.1751 23.8829 40.8489V27.9601C23.8829 27.6339 24.1491 27.3676 24.4754 27.3676H39.6916C40.0179 27.3676 40.2841 27.6339 40.2841 27.9601V40.8489ZM31.9991 29.5901C30.4216 29.5901 29.1366 30.8739 29.1366 32.4526C29.1366 33.7714 30.0329 34.8839 31.2479 35.2139V37.8989C31.2479 38.3126 31.5841 38.6489 31.9979 38.6489C32.4116 38.6489 32.7479 38.3126 32.7479 37.8989V35.2139C33.9629 34.8839 34.8604 33.7714 34.8604 32.4526C34.8616 30.8739 33.5766 29.5901 31.9991 29.5901ZM31.9991 33.8139C31.2479 33.8139 30.6366 33.2026 30.6366 32.4514C30.6366 31.7001 31.2479 31.0889 31.9991 31.0889C32.7504 31.0889 33.3616 31.7001 33.3616 32.4514C33.3616 33.2026 32.7504 33.8139 31.9991 33.8139Z" fill="#0119FF"/>
</svg>
