<svg width="64" height="64" viewBox="0 0 64 64" fill="none" xmlns="http://www.w3.org/2000/svg">
<path d="M54.4387 41.4375L52.6962 41.3838C52.4962 40.7163 52.2287 40.0713 51.8975 39.4562L53.0925 38.185C53.4437 37.8113 53.4337 37.235 53.0725 36.8737L50.2937 34.095C49.9312 33.7325 49.355 33.7238 48.9825 34.075L47.7112 35.2687C47.0975 34.9375 46.4525 34.67 45.7837 34.47L45.73 32.7275C45.7137 32.215 45.3 31.8137 44.7875 31.8137H43.5725V6.20625C43.5725 3.8175 41.6287 1.875 39.2412 1.875H12.98C10.5912 1.875 8.64874 3.8175 8.64874 6.20625V57.7925C8.64874 60.1813 10.5925 62.1237 12.98 62.1237H39.2412C41.63 62.1237 43.5725 60.18 43.5725 57.7925V56.8725H44.7875C45.3 56.8725 45.7137 56.4713 45.73 55.9588L45.7825 54.2175C46.4512 54.0175 47.0975 53.75 47.7112 53.4175L48.9812 54.6113C49.355 54.9625 49.9312 54.9538 50.2937 54.5913L53.0725 51.8125C53.435 51.45 53.4437 50.875 53.0925 50.5L51.8987 49.2287C52.23 48.615 52.4975 47.9688 52.6975 47.3013L54.44 47.2475C54.9525 47.2325 55.3537 46.8187 55.3537 46.305V42.3763C55.3512 41.8675 54.95 41.4525 54.4387 41.4375ZM32.4375 3.375L31.005 6.43C30.8762 6.705 30.6287 6.86125 30.325 6.86125H21.895C21.5925 6.86125 21.3437 6.70375 21.2162 6.43L19.7837 3.375H32.4375ZM12.98 3.375H18.1262L19.8575 7.06625C20.2325 7.865 21.0125 8.36125 21.895 8.36125H30.325C31.2075 8.36125 31.9875 7.865 32.3625 7.06625L34.0937 3.375H39.24C40.8012 3.375 42.0712 4.645 42.0712 6.20625V31.8137H40.8562C40.3437 31.8137 39.93 32.215 39.9137 32.7275L39.86 34.47C39.1912 34.67 38.545 34.9375 37.9312 35.27L36.6625 34.0762C36.2887 33.7237 35.7125 33.7325 35.35 34.0962L32.5725 36.8737C32.21 37.2362 32.2012 37.8125 32.5525 38.1862L33.7475 39.455C33.415 40.07 33.1475 40.7163 32.9475 41.3862L31.2062 41.4388C30.6937 41.4538 30.2925 41.8687 30.2925 42.3812V46.31C30.2925 46.8225 30.6937 47.2362 31.2062 47.2525L32.9475 47.305C33.1475 47.9738 33.4162 48.62 33.7475 49.2363L32.5525 50.505C32.2012 50.8787 32.21 51.455 32.5725 51.8175L33.3762 52.6213H10.1487V6.20625C10.1487 4.645 11.4187 3.375 12.98 3.375ZM42.0725 57.7938C42.0725 59.355 40.8025 60.625 39.2412 60.625H12.98C11.4187 60.625 10.1487 59.355 10.1487 57.7938V54.1188H34.8775L35.3525 54.5938C35.715 54.9562 36.2912 54.965 36.665 54.6138L37.9337 53.4188C38.5487 53.7513 39.1962 54.0187 39.865 54.2188L39.9175 55.96C39.9325 56.4725 40.3475 56.8737 40.86 56.8737H42.075V57.7938H42.0725ZM53.8512 45.7687L52.24 45.8187C51.8162 45.8312 51.46 46.1162 51.355 46.5275C51.1487 47.3375 50.8262 48.1138 50.3987 48.8338C50.1825 49.1988 50.2325 49.6512 50.5225 49.96L51.6275 51.1362L49.6137 53.15L48.4375 52.045C48.1287 51.7537 47.6762 51.705 47.3112 51.9212C46.59 52.3488 45.8137 52.6712 45.0025 52.8775C44.5912 52.9825 44.3062 53.3375 44.2937 53.7625L44.245 55.3737H41.3987L41.35 53.7625C41.3375 53.3375 41.0525 52.9825 40.6412 52.8775C39.83 52.6712 39.0525 52.3487 38.3312 51.92C37.9662 51.7025 37.5125 51.7525 37.2037 52.0438L36.03 53.1488L34.0175 51.1362L35.1225 49.9625C35.4137 49.6525 35.4637 49.2 35.2462 48.835C34.8175 48.1138 34.495 47.3363 34.2887 46.525C34.1837 46.1138 33.8275 45.8275 33.4037 45.8162L31.7925 45.7675V42.92L33.4037 42.8713C33.8275 42.8587 34.1837 42.5737 34.2887 42.1625C34.4962 41.35 34.8175 40.5737 35.2462 39.8525C35.4625 39.4875 35.4125 39.035 35.1225 38.725L34.0175 37.5513L36.03 35.5387L37.2037 36.6437C37.5125 36.935 37.965 36.985 38.3312 36.7687C39.0525 36.34 39.8287 36.0187 40.6387 35.8112C41.05 35.7062 41.335 35.3513 41.3487 34.9275L41.3987 33.315H44.2475L44.2975 34.9275C44.3112 35.3513 44.5962 35.7062 45.0062 35.8112C45.8162 36.0187 46.5925 36.34 47.3125 36.7675C47.6775 36.9838 48.13 36.9338 48.4387 36.6437L49.615 35.5387L51.6287 37.5525L50.5237 38.7287C50.2337 39.0375 50.1837 39.4912 50.4 39.855C50.8275 40.575 51.1487 41.3512 51.3562 42.1613C51.4612 42.5725 51.8162 42.8575 52.24 42.87L53.8525 42.92V45.7687H53.8512ZM44.4062 38.4325C41.1475 37.56 37.785 39.5 36.9112 42.76C36.0375 46.02 37.9787 49.3813 41.2387 50.255C41.7662 50.3963 42.3012 50.4663 42.8325 50.4663C43.8925 50.4663 44.94 50.1887 45.8825 49.6437C47.2975 48.8262 48.3112 47.5063 48.7337 45.9275C49.6062 42.6688 47.665 39.3062 44.4062 38.4325ZM47.285 45.54C46.965 46.7325 46.2012 47.7275 45.1325 48.345C44.0637 48.9625 42.8187 49.1263 41.6275 48.8063C39.1675 48.1475 37.7012 45.6087 38.3612 43.1488C38.9137 41.0875 40.785 39.7238 42.825 39.7238C43.22 39.7238 43.6212 39.775 44.02 39.8812C46.4787 40.5412 47.9437 43.0788 47.285 45.54ZM30.375 57.635C30.375 58.0487 30.0387 58.385 29.625 58.385H22.5962C22.1825 58.385 21.8462 58.0487 21.8462 57.635C21.8462 57.2212 22.1825 56.885 22.5962 56.885H29.625C30.0387 56.885 30.375 57.22 30.375 57.635ZM31.2812 30.02L35.3837 26.015L31.2812 22.01C30.985 21.7213 30.9787 21.2463 31.2687 20.95C31.5575 20.6538 32.0325 20.6475 32.3287 20.9375L36.9812 25.4788C37.1262 25.62 37.2075 25.8137 37.2075 26.015C37.2075 26.2162 37.1262 26.41 36.9812 26.5513L32.3287 31.0925C32.1825 31.235 31.9937 31.3062 31.805 31.3062C31.61 31.3062 31.415 31.2313 31.2687 31.08C30.9787 30.7838 30.985 30.31 31.2812 30.02ZM15.2387 26.5513C15.0937 26.41 15.0125 26.2162 15.0125 26.015C15.0125 25.8137 15.0937 25.62 15.2387 25.4788L19.8912 20.9375C20.1875 20.6475 20.6625 20.6538 20.9512 20.95C21.24 21.2463 21.235 21.7213 20.9387 22.01L16.8362 26.015L20.9387 30.02C21.235 30.3088 21.2412 30.7838 20.9512 31.08C20.8037 31.23 20.61 31.3062 20.415 31.3062C20.2262 31.3062 20.0375 31.235 19.8912 31.0925L15.2387 26.5513ZM24.4362 34.0238L27.8387 17.7013C27.9237 17.2963 28.3212 17.035 28.7262 17.12C29.1312 17.205 29.3925 17.6012 29.3075 18.0075L25.905 34.33C25.8312 34.6838 25.5187 34.9275 25.1712 34.9275C25.12 34.9275 25.0687 34.9225 25.0175 34.9113C24.6125 34.8263 24.3512 34.4287 24.4362 34.0238Z" fill="#0119FF"/>
</svg>
