<svg width="64" height="64" viewBox="0 0 64 64" fill="none" xmlns="http://www.w3.org/2000/svg">
<path d="M59.785 6.75073H4.215C2.925 6.75073 1.875 7.80073 1.875 9.09073V54.9107C1.875 56.2007 2.925 57.2507 4.215 57.2507H59.785C61.075 57.2507 62.125 56.2007 62.125 54.9107V9.09073C62.125 7.80073 61.075 6.75073 59.785 6.75073ZM4.215 8.25073H59.785C60.2475 8.25073 60.625 8.62698 60.625 9.09073V17.6682H3.375V9.09073C3.375 8.62698 3.75125 8.25073 4.215 8.25073ZM59.785 55.7507H4.215C3.7525 55.7507 3.375 55.3745 3.375 54.9107V19.1682H60.625V54.9107C60.625 55.3745 60.2487 55.7507 59.785 55.7507ZM5.09625 12.9595C5.09625 12.5457 5.4325 12.2095 5.84625 12.2095H11.5875C12.0012 12.2095 12.3375 12.5457 12.3375 12.9595C12.3375 13.3732 12.0012 13.7095 11.5875 13.7095H5.84625C5.43125 13.7095 5.09625 13.3732 5.09625 12.9595ZM28.8725 39.947L33.68 22.412C33.79 22.012 34.2025 21.7782 34.6012 21.887C35.0013 21.997 35.2363 22.4095 35.1263 22.8082L30.3188 40.3432C30.2275 40.6757 29.925 40.8957 29.5963 40.8957C29.53 40.8957 29.4637 40.887 29.3975 40.8682C28.9987 40.7595 28.7638 40.347 28.8725 39.947ZM38 35.222L41.8438 31.3782L38 27.5345C37.7075 27.242 37.7075 26.767 38 26.4745C38.2925 26.182 38.7675 26.182 39.0612 26.4745L43.435 30.8482C43.5763 30.9882 43.655 31.1795 43.655 31.3782C43.655 31.577 43.5763 31.7682 43.435 31.9082L39.0612 36.282C38.915 36.4282 38.7225 36.502 38.5312 36.502C38.3387 36.502 38.1475 36.4282 38.0013 36.282C37.7063 35.9895 37.7062 35.5145 38 35.222ZM20.5662 31.9082C20.2738 31.6157 20.2738 31.1407 20.5662 30.8482L24.94 26.4745C25.2325 26.182 25.7075 26.182 26 26.4745C26.2925 26.767 26.2925 27.242 26 27.5345L22.1562 31.3782L26 35.222C26.2925 35.5145 26.2925 35.9895 26 36.282C25.8538 36.4282 25.6612 36.502 25.47 36.502C25.2787 36.502 25.0863 36.4282 24.94 36.282L20.5662 31.9082ZM53.3063 44.402C53.3063 44.8157 52.97 45.152 52.5563 45.152H11.4438C11.03 45.152 10.6938 44.8157 10.6938 44.402C10.6938 43.9882 11.03 43.652 11.4438 43.652H52.555C52.97 43.652 53.3063 43.987 53.3063 44.402ZM10.6938 48.3545C10.6938 47.9407 11.03 47.6045 11.4438 47.6045H21.585C21.9987 47.6045 22.335 47.9407 22.335 48.3545C22.335 48.7682 21.9987 49.1045 21.585 49.1045H11.4438C11.03 49.1045 10.6938 48.7695 10.6938 48.3545ZM32.5175 49.1045C32.1038 49.1045 31.7675 48.7682 31.7675 48.3545C31.7675 47.9407 32.1038 47.6045 32.5175 47.6045H38.25C38.6637 47.6045 39 47.9407 39 48.3545C39 48.7682 38.6637 49.1045 38.25 49.1045H32.5175ZM53.3063 48.3545C53.3063 48.7682 52.97 49.1045 52.5563 49.1045H40.5013C40.0875 49.1045 39.7513 48.7682 39.7513 48.3545C39.7513 47.9407 40.0875 47.6045 40.5013 47.6045H52.5563C52.97 47.6045 53.3063 47.9407 53.3063 48.3545ZM23.8363 49.1045C23.4225 49.1045 23.0863 48.7682 23.0863 48.3545C23.0863 47.9407 23.4225 47.6045 23.8363 47.6045H29.5688C29.9825 47.6045 30.3188 47.9407 30.3188 48.3545C30.3188 48.7682 29.9825 49.1045 29.5688 49.1045H23.8363ZM53.3063 52.3082C53.3063 52.722 52.97 53.0582 52.5563 53.0582H11.4438C11.03 53.0582 10.6938 52.722 10.6938 52.3082C10.6938 51.8945 11.03 51.5582 11.4438 51.5582H52.555C52.97 51.5582 53.3063 51.8945 53.3063 52.3082ZM14.64 12.9595C14.64 12.5457 14.9763 12.2095 15.39 12.2095H21.1313C21.545 12.2095 21.8813 12.5457 21.8813 12.9595C21.8813 13.3732 21.545 13.7095 21.1313 13.7095H15.39C14.9763 13.7095 14.64 13.3732 14.64 12.9595ZM24.1838 12.9595C24.1838 12.5457 24.52 12.2095 24.9338 12.2095H30.675C31.0887 12.2095 31.425 12.5457 31.425 12.9595C31.425 13.3732 31.0887 13.7095 30.675 13.7095H24.9338C24.52 13.7095 24.1838 13.3732 24.1838 12.9595Z" fill="#0119FF"/>
</svg>
