<svg width="64" height="64" viewBox="0 0 64 64" fill="none" xmlns="http://www.w3.org/2000/svg">
<path d="M59.53 3.10498H4.47C3.03875 3.10498 1.875 4.26873 1.875 5.69998V47.73C1.875 49.1612 3.03875 50.325 4.47 50.325H25.1725V54.4037L22.2563 55.9187C22.17 55.9637 22.0837 56.0075 21.9988 56.05C21.1863 56.4612 20.0725 57.0237 20.0725 58.3637C20.0725 59.7587 21.2075 60.8937 22.6025 60.8937H41.3988C42.7938 60.8937 43.9287 59.7587 43.9287 58.3637C43.9287 57.0225 42.815 56.46 42.0025 56.05C41.9162 56.0062 41.8312 55.9637 41.745 55.9187L38.8288 54.4037V50.325H59.5312C60.9625 50.325 62.1263 49.1612 62.1263 47.73V5.69998C62.125 4.26873 60.9613 3.10498 59.53 3.10498ZM4.47 4.60498H59.53C60.1337 4.60498 60.625 5.09623 60.625 5.69998V11.905H3.375V5.69998C3.375 5.09623 3.86625 4.60498 4.47 4.60498ZM3.375 29.8112V13.405H13.6175V29.81H3.375V29.8112ZM13.6175 31.3112V41.1875H3.375V31.3112H13.6175ZM15.1175 30.5612V13.405H48.8838V21.6075V30.56C48.8838 30.9737 49.22 31.31 49.6338 31.31H60.625V41.1862H15.1175V30.5612ZM50.3825 29.8112V22.3587H60.625V29.8112H50.3825ZM50.3825 20.8587V13.4062H60.625V20.8587H50.3825ZM37.7313 55.525L41.0525 57.25C41.1438 57.2975 41.235 57.3437 41.325 57.3887C42.1663 57.8137 42.4275 58.0037 42.4275 58.3637C42.4275 58.9312 41.965 59.3937 41.3975 59.3937H22.6025C22.035 59.3937 21.5725 58.9312 21.5725 58.3637C21.5725 58.0037 21.8337 57.8137 22.675 57.3887C22.7662 57.3425 22.8575 57.2962 22.9475 57.25L26.2687 55.525C26.5175 55.3962 26.6725 55.14 26.6725 54.86V50.325H37.3262V54.86C37.3275 55.14 37.4825 55.3962 37.7313 55.525ZM59.53 48.825H4.47C3.86625 48.825 3.375 48.3337 3.375 47.73V42.6862H60.625V47.73C60.625 48.3337 60.1337 48.825 59.53 48.825ZM58.2012 17.1312C58.2012 17.545 57.865 17.8812 57.4512 17.8812H53.5575C53.1437 17.8812 52.8075 17.545 52.8075 17.1312C52.8075 16.7175 53.1437 16.3812 53.5575 16.3812H57.4512C57.865 16.3812 58.2012 16.7175 58.2012 17.1312ZM58.2012 26.085C58.2012 26.4987 57.865 26.835 57.4512 26.835H53.5575C53.1437 26.835 52.8075 26.4987 52.8075 26.085C52.8075 25.6712 53.1437 25.335 53.5575 25.335H57.4512C57.865 25.335 58.2012 25.67 58.2012 26.085ZM11.1925 18.0487C11.1925 18.4625 10.8562 18.7987 10.4425 18.7987H6.54875C6.135 18.7987 5.79875 18.4625 5.79875 18.0487C5.79875 17.635 6.135 17.2987 6.54875 17.2987H10.4425C10.8575 17.2987 11.1925 17.6337 11.1925 18.0487ZM11.1925 25.1675C11.1925 25.5812 10.8562 25.9175 10.4425 25.9175H6.54875C6.135 25.9175 5.79875 25.5812 5.79875 25.1675C5.79875 24.7537 6.135 24.4175 6.54875 24.4175H10.4425C10.8575 24.4175 11.1925 24.7537 11.1925 25.1675ZM36.7762 22.1212C36.7375 22.095 36.6963 22.075 36.6538 22.0575V22.0562L28.395 18.56C28.2075 18.4812 27.9975 18.4812 27.81 18.56L19.5513 22.0562V22.0575C19.5088 22.075 19.4675 22.0962 19.4287 22.1212C19.2188 22.26 19.0925 22.495 19.0925 22.7462V31.845C19.0925 32.1462 19.2725 32.4187 19.55 32.5362L27.8088 36.0325V36.0312C27.9013 36.07 28.0013 36.0925 28.1 36.0925C28.1987 36.0925 28.2987 36.0725 28.3925 36.0337L36.6512 32.5375C36.9287 32.42 37.1087 32.1475 37.1087 31.8462V22.7475C37.1125 22.495 36.9862 22.26 36.7762 22.1212ZM28.1025 20.065L34.4375 22.7462L28.1025 25.4275L21.7675 22.7462L28.1025 20.065ZM20.5938 23.8787L27.3525 26.74V34.21L20.5938 31.3487V23.8787ZM35.6125 31.3487L28.8538 34.21V26.74L35.6125 23.8787V31.3487ZM42.7388 22.075V32.5162L43.6263 31.6287C43.9188 31.3362 44.3937 31.3362 44.6875 31.6287C44.98 31.9212 44.98 32.3962 44.6875 32.6887L42.52 34.8562C42.3787 34.9975 42.1888 35.0762 41.99 35.0762C41.7913 35.0762 41.6 34.9975 41.46 34.8562L39.2925 32.6887C39 32.3962 39 31.9212 39.2925 31.6287C39.585 31.3362 40.06 31.3362 40.3537 31.6287L41.2412 32.5162V22.075L40.3537 22.9625C40.0612 23.255 39.5863 23.255 39.2925 22.9625C39 22.67 39 22.195 39.2925 21.9012L41.46 19.7337C41.6 19.5937 41.7913 19.5137 41.99 19.5137C42.1888 19.5137 42.38 19.5925 42.52 19.7337L44.6875 21.9012C44.98 22.1937 44.98 22.6687 44.6875 22.9625C44.5412 23.1087 44.3488 23.1825 44.1575 23.1825C43.9663 23.1825 43.7738 23.1087 43.6275 22.9625L42.7388 22.075Z" fill="#0119FF"/>
</svg>
