<svg width="64" height="64" viewBox="0 0 64 64" fill="none" xmlns="http://www.w3.org/2000/svg">
<path d="M60.255 29.4863C59.185 28.0588 57.7075 26.9501 56.0525 26.3201C55.9875 24.7226 54.8538 23.3951 53.3488 23.0351C52.7413 17.9576 50.33 13.2626 46.5175 9.7613C42.5325 6.1013 37.3763 4.0863 31.9988 4.0863C26.6213 4.0863 21.4663 6.1013 17.4813 9.76005C13.6725 13.2576 11.2625 17.9463 10.6512 23.0163C9.0975 23.3501 7.9225 24.7088 7.86875 26.3476C4.2625 27.7463 1.875 31.1901 1.875 35.0876C1.875 38.9851 4.2625 42.4288 7.87 43.8263C7.93125 45.7176 9.48875 47.2363 11.3938 47.2363C13.3387 47.2363 14.92 45.6538 14.92 43.7101V26.4651C14.92 24.7851 13.7387 23.3763 12.1637 23.0238C13.4412 13.1876 22.0138 5.5863 32 5.5863C41.9813 5.5863 50.5488 13.1788 51.8338 23.0076C50.2213 23.3313 49.0037 24.7588 49.0037 26.4651V43.7101C49.0037 45.4813 50.3175 46.9513 52.0213 47.1988C51.99 53.8413 45.8275 55.0138 38.2487 55.5863C37.885 54.0263 36.4837 52.8601 34.815 52.8601H28.9688C27.0238 52.8601 25.4425 54.4426 25.4425 56.3863C25.4425 58.3313 27.025 59.9126 28.9688 59.9126H34.815C36.5187 59.9126 37.945 58.6976 38.2713 57.0888C41.8325 56.8238 45.76 56.3863 48.6475 54.9951C51.945 53.4063 53.5438 50.8163 53.5213 47.0938C54.9412 46.6776 55.9912 45.3913 56.0537 43.8551C57.7087 43.2251 59.1862 42.1163 60.2562 40.6888C61.4787 39.0563 62.1263 37.1201 62.1263 35.0876C62.125 33.0551 61.4788 31.1176 60.255 29.4863ZM3.375 35.0876C3.375 32.0151 5.14375 29.2776 7.8675 27.9813V42.1938C5.14375 40.8976 3.375 38.1601 3.375 35.0876ZM13.4213 26.4651V43.7101C13.4213 44.8276 12.5125 45.7363 11.395 45.7363C10.2775 45.7363 9.36875 44.8276 9.36875 43.7101V26.4651C9.36875 25.3476 10.2775 24.4388 11.395 24.4388C12.5125 24.4388 13.4213 25.3476 13.4213 26.4651ZM34.8138 58.4138H28.9675C27.85 58.4138 26.9412 57.5051 26.9412 56.3876C26.9412 55.2701 27.85 54.3613 28.9675 54.3613H34.8138C35.9313 54.3613 36.84 55.2701 36.84 56.3876C36.84 57.5051 35.9313 58.4138 34.8138 58.4138ZM54.5563 43.7101C54.5563 44.8276 53.6475 45.7363 52.53 45.7363C51.4125 45.7363 50.5037 44.8276 50.5037 43.7101V26.4651C50.5037 25.3476 51.4125 24.4388 52.53 24.4388C53.6475 24.4388 54.5563 25.3476 54.5563 26.4651V43.7101ZM56.0563 42.2263V27.9488C58.79 29.2288 60.625 32.0313 60.625 35.0876C60.625 38.1438 58.79 40.9463 56.0563 42.2263ZM28.18 42.8176L28.705 45.2588C28.85 45.9326 29.4325 46.4026 30.1213 46.4026H33.8812C34.57 46.4026 35.1525 45.9326 35.2975 45.2588L35.8225 42.8176C36.2037 42.6826 36.5812 42.5263 36.9487 42.3501L39.0462 43.7063C39.625 44.0801 40.37 44.0013 40.8563 43.5138L43.515 40.8551C44.0025 40.3676 44.0812 39.6238 43.7075 39.0451L42.3512 36.9476C42.5262 36.5813 42.6838 36.2026 42.8187 35.8213L45.26 35.2976C45.9338 35.1526 46.4038 34.5701 46.4038 33.8813V30.1213C46.4038 29.4326 45.9338 28.8501 45.26 28.7051L42.8187 28.1801C42.6838 27.7988 42.5275 27.4201 42.3512 27.0538L43.7075 24.9563C44.0812 24.3776 44.0025 23.6338 43.515 23.1463L40.8563 20.4876C40.3688 20.0001 39.625 19.9213 39.0462 20.2951L36.9487 21.6513C36.5825 21.4763 36.2037 21.3188 35.8225 21.1838L35.2975 18.7426C35.1525 18.0688 34.57 17.5988 33.8812 17.5988H30.1213C29.4325 17.5988 28.85 18.0688 28.705 18.7426L28.18 21.1838C27.7987 21.3188 27.4212 21.4751 27.0537 21.6513L24.9562 20.2951C24.3775 19.9213 23.6337 20.0001 23.1462 20.4876L20.4875 23.1463C20 23.6338 19.9212 24.3776 20.295 24.9563L21.6513 27.0538C21.4763 27.4201 21.3188 27.7988 21.1838 28.1801L18.7425 28.7051C18.0688 28.8501 17.5987 29.4326 17.5987 30.1213V33.8813C17.5987 34.5701 18.0688 35.1526 18.7425 35.2976L21.1838 35.8213C21.3188 36.2026 21.4763 36.5813 21.6513 36.9476L20.295 39.0451C19.9212 39.6238 20 40.3676 20.4875 40.8551L23.1462 43.5138C23.6337 44.0013 24.3775 44.0801 24.9562 43.7063L27.0537 42.3501C27.42 42.5251 27.7975 42.6826 28.18 42.8176ZM26.2638 41.0751L24.1763 42.4238L21.5763 39.8238L22.925 37.7363C23.2013 37.3088 23.2337 36.7801 23.0138 36.3213C22.8538 35.9888 22.71 35.6438 22.5888 35.2963C22.42 34.8163 22.0238 34.4663 21.5263 34.3601L19.0975 33.8388V30.1626L21.5263 29.6413C22.0238 29.5351 22.4213 29.1851 22.5888 28.7051C22.71 28.3588 22.8538 28.0138 23.0138 27.6801C23.235 27.2213 23.2025 26.6926 22.925 26.2651L21.5763 24.1776L24.1763 21.5776L26.2638 22.9263C26.6912 23.2026 27.22 23.2351 27.6787 23.0151C28.0125 22.8538 28.3563 22.7113 28.7038 22.5901C29.1838 22.4213 29.5338 22.0251 29.6413 21.5276L30.1625 19.0988H33.8387L34.36 21.5276C34.4663 22.0251 34.8175 22.4226 35.2962 22.5901C35.6425 22.7113 35.9875 22.8551 36.3213 23.0151C36.78 23.2363 37.3088 23.2026 37.7363 22.9263L39.8237 21.5776L42.4238 24.1776L41.075 26.2651C40.7988 26.6926 40.765 27.2213 40.9863 27.6801C41.1463 28.0126 41.29 28.3576 41.4113 28.7051C41.58 29.1851 41.9762 29.5351 42.4738 29.6413L44.9025 30.1626V33.8388L42.4738 34.3601C41.9762 34.4676 41.58 34.8176 41.4113 35.2976C41.29 35.6438 41.1463 35.9888 40.9863 36.3226C40.765 36.7813 40.7975 37.3101 41.0737 37.7376L42.4225 39.8251L39.8225 42.4251L37.735 41.0763C37.3075 40.8001 36.7788 40.7676 36.32 40.9888C35.9862 41.1501 35.6425 41.2926 35.295 41.4138C34.815 41.5826 34.465 41.9788 34.3587 42.4763L33.8375 44.9051H30.1612L29.64 42.4763C29.5337 41.9788 29.1825 41.5813 28.7038 41.4138C28.3575 41.2926 28.0125 41.1488 27.6787 40.9888C27.22 40.7651 26.6912 40.7988 26.2638 41.0751ZM39.8737 32.0001C39.8737 27.6588 36.3413 24.1263 32 24.1263C27.6588 24.1263 24.1262 27.6576 24.1262 32.0001C24.1262 36.3426 27.6588 39.8738 32 39.8738C36.3413 39.8738 39.8737 36.3413 39.8737 32.0001ZM25.6262 32.0001C25.6262 28.4863 28.485 25.6263 32 25.6263C35.515 25.6263 38.3737 28.4851 38.3737 32.0001C38.3737 35.5151 35.515 38.3738 32 38.3738C28.485 38.3738 25.6262 35.5138 25.6262 32.0001Z" fill="white"/>
</svg>
