<svg width="52" height="52" viewBox="0 0 52 52" fill="none" xmlns="http://www.w3.org/2000/svg">
<path fill-rule="evenodd" clip-rule="evenodd" d="M12.4387 38.2404C15.8843 38.2404 18.6947 35.4302 18.6947 31.9846C18.6947 28.5387 15.8843 25.7285 12.4387 25.7285C8.99275 25.7285 6.18262 28.5387 6.18262 31.9846C6.18262 35.4303 8.99275 38.2404 12.4387 38.2404Z" fill="#010E8C"/>
<path fill-rule="evenodd" clip-rule="evenodd" d="M24.0134 50.8312C24.0134 44.4648 18.8047 39.256 12.4384 39.256C6.07202 39.256 0.863281 44.4649 0.863281 50.8312H24.0134Z" fill="#B0B8FF"/>
<path fill-rule="evenodd" clip-rule="evenodd" d="M39.5617 38.2404C43.0074 38.2404 45.8175 35.4302 45.8175 31.9846C45.8175 28.5387 43.0074 25.7285 39.5617 25.7285C36.116 25.7285 33.3057 28.5387 33.3057 31.9846C33.3058 35.4303 36.116 38.2404 39.5617 38.2404Z" fill="#0119FF"/>
<path fill-rule="evenodd" clip-rule="evenodd" d="M51.1365 50.8312C51.1365 44.4648 45.9279 39.256 39.5615 39.256C33.1952 39.256 27.9863 44.4648 27.9863 50.8312H51.1365Z" fill="#8A95FF"/>
<path fill-rule="evenodd" clip-rule="evenodd" d="M39.4975 4.83752H20.3872C19.5816 4.83752 18.9248 5.49453 18.9248 6.30002V18.2748C18.9248 19.0804 19.5817 19.7374 20.3872 19.7374H31.255L37.4475 24.1837V19.7374H39.4976C40.3032 19.7374 40.9602 19.0803 40.9602 18.2748V6.30002C40.9602 5.49453 40.3031 4.83752 39.4975 4.83752Z" fill="#010E8C"/>
<path fill-rule="evenodd" clip-rule="evenodd" d="M12.5017 1.16882H31.6118C32.4176 1.16882 33.0746 1.82583 33.0746 2.63142V14.6062C33.0746 15.4117 32.4175 16.0687 31.6118 16.0687H20.7444L14.5517 20.515V16.0687H12.5016C11.696 16.0687 11.0391 15.4116 11.0391 14.6062V2.63142C11.0391 1.82583 11.6961 1.16882 12.5017 1.16882Z" fill="#8A95FF"/>
<path fill-rule="evenodd" clip-rule="evenodd" d="M26.3457 3.92501C26.9089 3.36175 27.8224 3.36175 28.3856 3.92501C28.949 4.48838 28.949 5.40163 28.3856 5.965L21.0382 13.3124C20.4003 13.9505 19.3462 13.8502 18.8343 13.1168L15.6175 9.06895C15.1227 8.44658 15.2261 7.54074 15.8486 7.04593C16.471 6.55111 17.3768 6.65451 17.8716 7.27698L20.1397 10.1311L26.3457 3.92501Z" fill="#0119FF"/>
</svg>
