<svg width="52" height="52" viewBox="0 0 52 52" fill="none" xmlns="http://www.w3.org/2000/svg">
<path fill-rule="evenodd" clip-rule="evenodd" d="M46.3668 38.8488V44.5823V44.5887H46.3636C46.3615 45.9223 45.8186 47.1321 44.9439 48.0073C44.0653 48.8865 42.855 49.432 41.5234 49.432H41.517V49.4288L29.6475 49.4098V47.7911L41.517 47.8101V47.807H41.5234C42.4102 47.807 43.2138 47.4462 43.7949 46.8647C44.3802 46.2791 44.7436 45.4734 44.7449 44.5887H44.7418V44.5823V38.8488H46.3668Z" fill="#B0B8FF"/>
<path fill-rule="evenodd" clip-rule="evenodd" d="M25.9996 1.82263C37.7223 1.82263 47.3135 11.414 47.3135 23.1365V32.2123H43.4542V23.1365C43.4542 13.5365 35.5995 5.68201 25.9996 5.68201C16.3996 5.68201 8.54492 13.5365 8.54492 23.1365V32.2123H4.68555V23.1365C4.68555 11.414 14.2768 1.82263 25.9996 1.82263Z" fill="#B0B8FF"/>
<path fill-rule="evenodd" clip-rule="evenodd" d="M44.066 25.6195H47.0426C49.1168 25.6195 50.814 27.3166 50.814 29.3908V37.1087C50.814 39.1829 49.1168 40.88 47.0426 40.88H44.066C43.5806 40.88 43.1836 40.483 43.1836 39.9976V26.5017C43.1836 26.0165 43.5806 25.6195 44.066 25.6195Z" fill="#010E8C"/>
<path fill-rule="evenodd" clip-rule="evenodd" d="M7.93346 25.6195H4.95687C2.88266 25.6195 1.18555 27.3166 1.18555 29.3908V37.1087C1.18555 39.1829 2.88266 40.88 4.95687 40.88H7.93356C8.41893 40.88 8.81594 40.483 8.81594 39.9976V26.5017C8.81584 26.0165 8.41883 25.6195 7.93346 25.6195Z" fill="#010E8C"/>
<path fill-rule="evenodd" clip-rule="evenodd" d="M14.0742 4.35988C17.6275 2.09117 21.7817 0.863281 25.9993 0.863281C30.2169 0.863281 34.371 2.09127 37.9243 4.35988L34.8377 9.2037C32.1731 7.50242 29.1592 6.63081 25.9993 6.63081C22.8395 6.63081 19.8254 7.50242 17.1609 9.2037L14.0742 4.35988Z" fill="#8A95FF"/>
<path fill-rule="evenodd" clip-rule="evenodd" d="M23.6176 46.1025H28.3808C29.7652 46.1025 30.8978 47.2351 30.8978 48.6196C30.8978 50.0041 29.7652 51.1367 28.3808 51.1367H23.6176C22.2332 51.1367 21.1006 50.0041 21.1006 48.6196C21.1006 47.2351 22.2331 46.1025 23.6176 46.1025Z" fill="#0119FF"/>
<path fill-rule="evenodd" clip-rule="evenodd" d="M37.7096 21.7056H21.1311C20.4323 21.7056 19.8623 22.2755 19.8623 22.9744V33.3627C19.8623 34.0616 20.4323 34.6315 21.1311 34.6315H30.559L35.9311 38.4889V34.6315H37.7097C38.4085 34.6315 38.9785 34.0616 38.9785 33.3627V22.9744C38.9784 22.2755 38.4084 21.7056 37.7096 21.7056Z" fill="#010E8C"/>
<path fill-rule="evenodd" clip-rule="evenodd" d="M14.2905 18.5229H30.869C31.5678 18.5229 32.1377 19.0929 32.1377 19.7918V30.18C32.1377 30.8789 31.5678 31.4488 30.869 31.4488H21.4411L16.069 35.3062V31.4488H14.2904C13.5915 31.4488 13.0215 30.8789 13.0215 30.18V19.7918C13.0216 19.0929 13.5916 18.5229 14.2905 18.5229Z" fill="#8A95FF"/>
<path fill-rule="evenodd" clip-rule="evenodd" d="M16.8057 29.0301C16.357 29.0301 15.9932 28.6663 15.9932 28.2176C15.9932 27.7689 16.357 27.4051 16.8057 27.4051H28.3544C28.8031 27.4051 29.1669 27.7689 29.1669 28.2176C29.1669 28.6663 28.8031 29.0301 28.3544 29.0301H16.8057ZM16.8057 25.7984C16.357 25.7984 15.9932 25.4346 15.9932 24.9859C15.9932 24.5372 16.357 24.1734 16.8057 24.1734H28.3544C28.8031 24.1734 29.1669 24.5372 29.1669 24.9859C29.1669 25.4346 28.8031 25.7984 28.3544 25.7984H16.8057ZM16.8057 22.5667C16.357 22.5667 15.9932 22.2029 15.9932 21.7542C15.9932 21.3054 16.357 20.9417 16.8057 20.9417H28.3544C28.8031 20.9417 29.1669 21.3054 29.1669 21.7542C29.1669 22.2029 28.8031 22.5667 28.3544 22.5667H16.8057Z" fill="#0119FF"/>
</svg>
