<?xml version="1.0" encoding="utf-8"?>
<!-- Generator: Adobe Illustrator 16.0.0, SVG Export Plug-In . SVG Version: 6.00 Build 0)  -->
<!DOCTYPE svg PUBLIC "-//W3C//DTD SVG 1.1//EN" "http://www.w3.org/Graphics/SVG/1.1/DTD/svg11.dtd">
<svg version="1.1" id="Layer_1" xmlns="http://www.w3.org/2000/svg" xmlns:xlink="http://www.w3.org/1999/xlink" x="0px" y="0px"
	 width="40px" height="40px" viewBox="0 0 40 40" enable-background="new 0 0 40 40" xml:space="preserve">
<g>
	<path fill="#0077FF" d="M38.509,35.71c-0.023-2.157-1.295-3.962-3.316-4.71c-0.313-0.117-0.627-0.228-0.955-0.344l-0.369-0.131
		c0.678-0.632,1.059-1.316,1.159-2.088c0.078-0.599,0.093-1.263,0.046-2.029c-0.107-1.812-1.551-3.289-3.357-3.437
		c-0.104-0.008-0.207-0.013-0.31-0.013c-1.768,0-3.29,1.226-3.62,2.912c-0.126,0.639-0.109,1.309-0.094,1.957l0.004,0.178
		c0.021,0.877,0.382,1.678,1.074,2.382c0.048,0.05,0.101,0.09,0.164,0.135l-0.131,0.047c-0.281,0.103-0.527,0.191-0.775,0.269
		c-1.136,0.353-2.006,0.923-2.66,1.741c-0.04,0.05-0.109,0.088-0.136,0.088c-0.85,0.005-1.7,0.006-2.566,0.006h-1.192v-1.217
		c-0.004-2.443-1.272-4.234-3.572-5.044l-1.075-0.382c0.693-0.655,1.08-1.376,1.18-2.198c0.068-0.565,0.055-1.144,0.041-1.703
		l-0.001-0.035c-0.041-1.914-1.428-3.399-3.373-3.611c-1.812-0.196-3.519,1.053-3.916,2.823c-0.117,0.53-0.121,1.088-0.124,1.627
		l-0.002,0.252c-0.013,1.106,0.392,2.053,1.204,2.813c0.012,0.011,0.024,0.023,0.036,0.036l-1.006,0.356
		c-2.411,0.84-3.634,2.555-3.636,5.098v1.186H2.466c-0.773,0-0.973,0.196-0.973,0.957v3.913c0,0.77,0.196,0.969,0.955,0.969h35.145
		c0.712,0,0.918-0.209,0.918-0.934l0.001-0.533C38.513,36.6,38.514,36.154,38.509,35.71z M30.558,31.479l0.15,0.002
		c0.14,0.002,0.278,0.005,0.411-0.011c0.172-0.02,0.348-0.029,0.523-0.029c1.19,0,2.244,0.437,3.496,1.007
		c1.21,0.551,1.909,1.604,2.022,3.05c0.033,0.395,0.025,0.79,0.017,1.208c-0.003,0.149-0.006,0.3-0.007,0.453H25.598
		c0.004-0.217,0-0.432-0.004-0.646c-0.011-0.639-0.021-1.242,0.163-1.84c0.355-1.146,1.085-1.942,2.17-2.369
		c0.769-0.303,1.527-0.566,2.253-0.782C30.304,31.484,30.44,31.479,30.558,31.479z M29.018,27.081l-0.022-0.003
		c0.007-0.084,0.012-0.169,0.017-0.253c0.015-0.25,0.03-0.509,0.087-0.745c0.267-1.105,1.344-1.883,2.495-1.777
		c1.191,0.114,2.115,1.081,2.151,2.277c0.018,0.612,0.036,1.245-0.094,1.828c-0.234,1.065-1.345,1.849-2.485,1.725
		c-1.197-0.137-2.099-1.09-2.144-2.268c-0.006-0.15-0.004-0.3-0.002-0.448c0.001-0.076,0.002-0.152,0.002-0.228L29.018,27.081z
		 M16.742,22.807c-0.006,0.083-0.01,0.167-0.015,0.251c-0.013,0.248-0.027,0.506-0.078,0.744c-0.234,1.095-1.177,1.831-2.346,1.831
		c-0.048,0-0.095-0.002-0.144-0.004c-1.099-0.058-2.045-0.957-2.154-2.047c-0.056-0.571-0.057-1.141-0.003-1.691
		c0.116-1.17,1.131-2.087,2.311-2.087c0.042,0,0.084,0.001,0.126,0.003c1.267,0.069,2.247,1.062,2.278,2.31
		c0.003,0.14,0.002,0.279,0.001,0.418l-0.001,0.188L16.742,22.807z M15.843,27.088c-0.516,0.894-0.997,1.729-1.497,2.597
		l-1.495-2.589C13.819,26.914,14.763,26.91,15.843,27.088z M13.386,30.698c0.108,0.19,0.216,0.381,0.329,0.566
		c0.17,0.279,0.395,0.433,0.634,0.433c0.244,0,0.47-0.158,0.637-0.446c0.448-0.771,0.893-1.545,1.338-2.319l0.72-1.251
		c0.021-0.035,0.043-0.07,0.073-0.114c2.351,0.679,3.25,2.206,2.991,5.082H8.522c0.011-0.22,0.017-0.439,0.022-0.659
		c0.014-0.575,0.027-1.118,0.145-1.646c0.32-1.427,1.265-2.337,2.888-2.781l1.67,2.893L13.386,30.698z M24.555,34.038
		c-0.303,0.814-0.299,1.649-0.294,2.458c0.001,0.221,0.002,0.44-0.003,0.661H2.846v-3.119H24.555z"/>
	<path fill="#0077FF" d="M4.128,16.032c0.358,0.089,0.746,0.176,1.106,0.125c0.789-0.106,1.387,0.141,1.995,0.833
		c0.505,0.58,1.066,1.125,1.608,1.652c0.266,0.259,0.532,0.517,0.792,0.78c0.155,0.157,0.368,0.371,0.657,0.371
		c0.084,0,0.172-0.019,0.26-0.055c0.411-0.168,0.406-0.559,0.402-0.843c-0.003-0.61-0.003-1.221-0.002-1.831l0-0.869h4.905
		c0.002,0.034,0.005,0.065,0.002,0.099c-0.061,0.973,0.292,1.943,0.966,2.661c0.723,0.77,1.742,1.185,2.867,1.137
		c0.436-0.015,0.903-0.022,1.429-0.022c0.62,0,1.24,0.01,1.86,0.021l0.332,0.005c0.144,0.003,0.332,0.083,0.438,0.187
		c0.528,0.507,1.055,1.036,1.563,1.547l0.574,0.576c0.108,0.108,0.216,0.219,0.322,0.328c0.25,0.257,0.508,0.522,0.785,0.759
		c0.128,0.109,0.344,0.187,0.523,0.187c0.068,0,0.129-0.012,0.182-0.034c0.202-0.09,0.323-0.35,0.425-0.569
		c0.05-0.104,0.039-0.225,0.03-0.33c-0.003-0.038-0.007-0.075-0.007-0.111v-2.547l4.501,0l2.071,0
		c2.268-0.003,3.792-1.522,3.794-3.781V9.195c-0.002-2.294-1.49-3.779-3.792-3.783c-0.709-0.001-1.418-0.001-2.127-0.001
		l-2.899,0.001v0.125l-0.043-0.125c-0.132,0-0.252,0.002-0.376,0.025c-0.305,0.061-0.486,0.27-0.511,0.588
		c-0.025,0.325,0.127,0.565,0.416,0.661c0.158,0.054,0.333,0.062,0.498,0.062l0.999,0l2.07-0.001c0.699,0,1.399,0.001,2.1,0.005
		c1.393,0.008,2.329,0.949,2.331,2.342c0.006,2.441,0.004,4.882-0.004,7.324c0,0.258-0.036,0.514-0.104,0.742
		c-0.282,0.974-1.127,1.581-2.203,1.583c-0.845,0.002-1.688,0.002-2.532,0.002l-4.649-0.001c-0.647,0.002-0.878,0.229-0.882,0.87
		c-0.004,0.321-0.003,0.642-0.003,0.962c0,0.266,0.001,0.532-0.001,0.8c0,0.021-0.002,0.04-0.005,0.062
		c-0.215-0.217-0.428-0.431-0.639-0.642c-0.565-0.567-1.115-1.119-1.657-1.679c-0.253-0.261-0.529-0.378-0.916-0.378
		c-1.412,0.01-2.822,0.02-4.233-0.005c-1.198-0.02-2.144-0.962-2.153-2.145c-0.023-2.521-0.023-5.106-0.001-7.682
		c0.01-1.163,0.957-2.108,2.154-2.153c0.162-0.006,0.323-0.008,0.485-0.008l4.691,0.002l2.142,0c0.706,0,0.859-0.359,0.863-0.66
		c0.003-0.192-0.052-0.347-0.162-0.46c-0.142-0.144-0.363-0.215-0.679-0.218c-0.251-0.001-0.504-0.001-0.756-0.001h-1.785V5.32
		c0.001-0.124,0.002-0.232-0.001-0.341c-0.046-1.91-1.604-3.469-3.475-3.476C15.442,1.482,10.213,1.487,4.982,1.5
		c-1.59,0.006-2.993,1.114-3.336,2.636c-0.137,0.6-0.136,1.233-0.135,1.847l0,0.354c0,0.158,0.055,0.297,0.159,0.402
		C1.787,6.855,1.957,6.92,2.178,6.92c0,0,0.001,0,0.002,0c0.372-0.012,0.61-0.238,0.637-0.604C2.834,6.083,2.831,5.85,2.829,5.623
		l-0.002-0.25c0-1.644,0.898-2.549,2.528-2.549l15.063,0c0.088,0,0.176,0.001,0.262,0.005c0.672,0.04,1.29,0.374,1.696,0.916
		c0.364,0.487,0.511,1.089,0.406,1.666L20.72,5.409c-0.388,0-0.775,0-1.162,0.003c-2.176,0.019-3.698,1.551-3.703,3.727
		c-0.002,1.205-0.001,2.41,0,3.615l0,2.087h-5.306c-0.743,0-0.935,0.196-0.935,0.951l-0.002,1.687c0,0.013,0,0.025-0.001,0.038
		l-0.494-0.493c-0.616-0.613-1.197-1.192-1.774-1.79c-0.287-0.297-0.599-0.423-0.984-0.397c-0.262,0.017-0.525,0.013-0.788,0.008
		c-0.118-0.001-0.235-0.003-0.353-0.003c-1.449-0.006-2.388-0.948-2.391-2.401c-0.001-0.557-0.001-1.114-0.001-1.671
		c0-0.628,0.001-1.256-0.001-1.884C2.823,8.429,2.566,8.132,2.158,8.127c-0.389,0-0.662,0.307-0.663,0.746l-0.003,0.92
		c-0.004,0.97-0.009,1.972,0.012,2.96C1.535,14.277,2.638,15.655,4.128,16.032z"/>
</g>
</svg>
