<?xml version="1.0" encoding="utf-8"?>
<!-- Generator: Adobe Illustrator 16.0.0, SVG Export Plug-In . SVG Version: 6.00 Build 0)  -->
<!DOCTYPE svg PUBLIC "-//W3C//DTD SVG 1.1//EN" "http://www.w3.org/Graphics/SVG/1.1/DTD/svg11.dtd">
<svg version="1.1" id="Layer_1" xmlns="http://www.w3.org/2000/svg" xmlns:xlink="http://www.w3.org/1999/xlink" x="0px" y="0px"
	 width="40px" height="40px" viewBox="0 0 40 40" enable-background="new 0 0 40 40" xml:space="preserve">
<g>
	<g>
		<path fill="#0077FF" d="M2.401,38.354C2.09,38.21,1.996,37.964,2,37.629c0.009-0.65,0.006-1.292,0.218-1.92
			c0.564-1.667,2.123-2.806,3.884-2.823c0.305-0.003,0.61,0,0.958,0c-0.02-0.312-0.012-0.617-0.062-0.914
			c-0.046-0.276-0.272-0.438-0.495-0.589c-0.831-0.563-1.409-1.32-1.739-2.269c-0.897-2.585,0.793-5.432,3.49-5.876
			c2.52-0.415,4.868,1.262,5.214,3.784c0.247,1.806-0.412,3.272-1.898,4.337c-0.389,0.277-0.61,0.591-0.568,1.075
			c0.012,0.142,0.001,0.286,0.001,0.451c0.316,0,0.619-0.003,0.924,0c0.811,0.008,1.565,0.222,2.237,0.677
			c1.198,0.814,1.824,1.952,1.875,3.4c0.008,0.223-0.011,0.445,0.005,0.666c0.026,0.335-0.089,0.581-0.398,0.725
			C11.229,38.354,6.816,38.354,2.401,38.354z M9.563,31.805c0.091,0,0.155,0,0.22,0c0.031,0,0.067,0.011,0.09-0.002
			c0.045-0.024,0.108-0.056,0.118-0.096c0.154-0.536,0.503-0.903,0.949-1.222c1.196-0.855,1.693-2.026,1.43-3.474
			c-0.35-1.941-2.333-3.166-4.233-2.646c-1.924,0.528-3.001,2.569-2.338,4.434c0.263,0.736,0.728,1.314,1.381,1.742
			c0.379,0.246,0.659,0.571,0.817,0.995c0.103,0.274,0.103,0.274,0.393,0.268c0.028,0,0.055-0.007,0.083-0.01
			c0.005-0.028,0.011-0.046,0.011-0.063c0.001-0.887,0.002-1.774-0.002-2.661c-0.001-0.062-0.04-0.136-0.084-0.183
			c-0.267-0.275-0.542-0.543-0.812-0.815c-0.149-0.151-0.218-0.33-0.159-0.54c0.116-0.422,0.6-0.538,0.926-0.219
			c0.223,0.215,0.436,0.441,0.669,0.679c0.228-0.23,0.437-0.444,0.648-0.654c0.261-0.258,0.585-0.278,0.813-0.054
			c0.229,0.225,0.212,0.553-0.043,0.813c-0.248,0.252-0.497,0.504-0.751,0.749c-0.089,0.086-0.128,0.172-0.126,0.297
			c0.007,0.521,0.002,1.043,0.002,1.564C9.563,31.064,9.563,31.424,9.563,31.805z M3.097,37.263c3.958,0,7.906,0,11.852,0
			c0.135-1.437-0.837-2.809-2.245-3.192c-0.561-0.153-1.131-0.095-1.698-0.102c-0.038,0-0.095,0.062-0.112,0.105
			c-0.333,0.83-1.034,1.329-1.871,1.329s-1.541-0.502-1.873-1.328c-0.02-0.048-0.094-0.105-0.145-0.106
			c-0.336-0.009-0.672-0.012-1.007-0.001C4.306,34.024,2.949,35.561,3.097,37.263z M9.934,32.896c-0.623,0-1.212,0-1.81,0
			c0,0.192-0.004,0.37,0,0.55c0.013,0.451,0.355,0.821,0.8,0.873c0.449,0.051,0.879-0.245,0.968-0.698
			C9.937,33.391,9.921,33.147,9.934,32.896z"/>
		<path fill="#0077FF" d="M9.166,19.931c0.312,0.143,0.421,0.389,0.4,0.724c-0.018,0.286-0.001,0.574-0.005,0.861
			c-0.002,0.332-0.23,0.572-0.538,0.572s-0.535-0.24-0.539-0.572c-0.003-0.288,0.014-0.576-0.005-0.862
			c-0.021-0.334,0.089-0.58,0.399-0.723C8.975,19.931,9.071,19.931,9.166,19.931z"/>
		<path fill="#0077FF" d="M2.799,23.511c0.099,0.036,0.204,0.063,0.296,0.112c0.288,0.159,0.572,0.324,0.854,0.491
			c0.301,0.179,0.398,0.492,0.243,0.763c-0.156,0.27-0.478,0.343-0.779,0.172c-0.302-0.171-0.604-0.341-0.9-0.521
			c-0.222-0.135-0.309-0.386-0.235-0.622C2.347,23.685,2.558,23.531,2.799,23.511z"/>
		<path fill="#0077FF" d="M15.79,24.168c-0.002,0.099-0.083,0.256-0.248,0.355c-0.316,0.19-0.637,0.378-0.962,0.554
			c-0.271,0.147-0.586,0.05-0.729-0.206c-0.144-0.258-0.062-0.569,0.206-0.73c0.308-0.185,0.617-0.366,0.932-0.537
			C15.363,23.4,15.792,23.655,15.79,24.168z"/>
		<path fill="#0077FF" d="M5.417,20.899c0.202,0,0.362,0.082,0.465,0.254c0.191,0.317,0.379,0.638,0.554,0.963
			c0.141,0.264,0.048,0.572-0.199,0.718c-0.254,0.15-0.574,0.073-0.735-0.19c-0.189-0.312-0.374-0.626-0.545-0.948
			C4.759,21.326,5.009,20.903,5.417,20.899z"/>
		<path fill="#0077FF" d="M12.62,20.899c0.395,0,0.665,0.4,0.487,0.756c-0.175,0.353-0.379,0.691-0.591,1.023
			c-0.152,0.238-0.46,0.296-0.7,0.16c-0.244-0.138-0.353-0.446-0.218-0.699c0.181-0.342,0.379-0.677,0.582-1.009
			C12.277,20.975,12.433,20.901,12.62,20.899z"/>
	</g>
	<path fill-rule="evenodd" clip-rule="evenodd" fill="#0077FF" d="M32.974,21.203c0.428,0,0.803,0,1.221,0c0,0.141,0,0.262,0,0.385
		c0,2.25,0.002,9.023-0.001,11.271c-0.003,1.93-1.299,3.221-3.23,3.225c-1.549,0.002-12.199,0-13.775,0c0-0.404,0-0.789,0-1.221
		c0.137,0,0.271,0,0.407,0c1.436,0,11.974,0.002,13.409,0c1.214-0.002,1.968-0.76,1.97-1.979c0.002-2.236,0-8.996,0-11.232
		C32.974,21.514,32.974,21.375,32.974,21.203z"/>
	<path fill-rule="evenodd" clip-rule="evenodd" fill="#0077FF" d="M27.935,21.785c0.008,1.348-1.091,2.451-2.438,2.451
		c-1.332,0.002-2.429-1.08-2.441-2.408c-0.014-1.352,1.074-2.463,2.418-2.471C26.825,19.35,27.927,20.438,27.935,21.785z
		 M26.714,21.811c0.004-0.668-0.531-1.219-1.197-1.23c-0.68-0.012-1.243,0.543-1.239,1.225c0.003,0.664,0.549,1.207,1.216,1.211
		C26.153,23.02,26.709,22.469,26.714,21.811z"/>
	<path fill-rule="evenodd" clip-rule="evenodd" fill="#0077FF" d="M35.272,12.715c-0.408-0.068-0.828-0.068-1.243-0.1
		c0.364-3.806-3.69-6.165-6.773-4.065c-0.036-0.026-0.08-0.052-0.115-0.085c-0.562-0.541-1.191-0.965-1.883-1.291
		c-0.031-0.017-0.062-0.026-0.093-0.042c-0.219-0.1-0.442-0.192-0.674-0.272c-0.019-0.006-0.036-0.021-0.055-0.034
		c-0.616-0.208-1.188-0.29-1.651-0.302c-3.952,0.168-6.307,2.185-7.079,6.089c-0.438,0.038-0.898,0.042-1.344,0.124
		c-0.309,0.058-0.597,0.164-0.869,0.302c-1.227,0.705-1.714,1.656-1.903,2.381c-0.547,2.41,1.129,4.54,3.619,4.547
		c1.474,0.004,2.947,0,4.422,0c0.224,0,0.447,0,0.578,0l-0.209,2.441c-0.033,0.645-0.039,1.277,0.875,1.27
		c-0.074,0.141-0.113,0.217-0.155,0.293c-0.228,0.406-0.202,0.609,0.132,0.947c0.438,0.443,0.881,0.881,1.32,1.32
		c0.602,0.602,0.611,0.604,1.414,0.205c0.053,0.729,0.496,0.898,1.074,0.855c0.059-0.012,0.973-0.166,1.562-0.016
		c0.65,0.098,1.116-0.096,1.192-0.846c0.658,0.357,0.823,0.369,1.144,0.057c0.556-0.541,1.099-1.094,1.646-1.643
		c0.249-0.25,0.271-0.531,0.096-0.832c-0.054-0.092-0.099-0.189-0.149-0.287c0.836-0.311,0.836-0.311,0.836-1.184
		c0-0.547,0.022-1.094-0.01-1.639c-0.018-0.316-0.124-0.627-0.191-0.945c1.266,0,2.624,0.021,3.982-0.006
		c1.862-0.037,3.414-1.549,3.531-3.396C38.418,14.681,37.119,13.019,35.272,12.715z M29.746,22.51
		c-0.347,0.225-0.905,0.074-1.124,0.563c-0.228,0.51,0.271,0.803,0.407,1.301c-0.282,0.262-0.593,0.561-0.919,0.838
		c-0.061,0.053-0.207,0.053-0.288,0.02c-0.174-0.076-0.325-0.199-0.495-0.283c-0.395-0.193-0.772-0.031-0.904,0.391
		c-0.072,0.23-0.121,0.467-0.184,0.713c-0.485,0-0.966,0-1.479,0c-0.056-0.207-0.112-0.422-0.173-0.637
		c-0.148-0.521-0.52-0.682-0.988-0.43c-0.623,0.336-0.619,0.33-1.129-0.166c-0.172-0.168-0.37-0.307-0.526-0.434
		c0.642-1.406,0.642-1.406-0.718-1.869c0-0.229,0-0.469,0-0.707c0-0.24,0-0.48,0-0.742c0.23-0.063,0.449-0.115,0.664-0.178
		c0.518-0.152,0.67-0.525,0.414-0.996c-0.331-0.613-0.328-0.611,0.152-1.1c0.169-0.172,0.322-0.358,0.498-0.557
		c0.262,0.151,0.474,0.283,0.695,0.397c0.414,0.212,0.788,0.052,0.925-0.397c0.069-0.227,0.12-0.459,0.181-0.696
		c0.502,0,0.981,0,1.457,0c0.497,1.353,0.497,1.353,1.844,0.71c0.107,0.129,0.206,0.262,0.318,0.383
		c0.199,0.213,0.518,0.391,0.576,0.635c0.049,0.205-0.205,0.479-0.318,0.725c-0.171,0.379-0.006,0.75,0.396,0.877
		c0.229,0.07,0.467,0.119,0.718,0.18C29.746,21.533,29.746,22.012,29.746,22.51z M34.731,18.74c-1.436,0.023-2.872,0.012-4.307,0
		c-0.132-0.002-0.29-0.082-0.39-0.176c-0.415-0.393-0.813-0.805-1.217-1.209c-0.603-0.602-0.616-0.604-1.401-0.207
		c-0.038-0.127-0.068-0.223-0.094-0.32c-0.096-0.355-0.325-0.525-0.695-0.521c-0.736,0.004-1.474-0.002-2.21,0.002
		c-0.469,0.002-0.63,0.129-0.761,0.578c-0.025,0.084-0.058,0.166-0.092,0.264c-0.091-0.047-0.168-0.088-0.244-0.129
		c-0.408-0.226-0.607-0.201-0.947,0.136c-0.461,0.456-0.908,0.925-1.382,1.367c-0.124,0.115-0.321,0.212-0.485,0.214
		c-1.779,0.016-3.559,0.016-5.337,0.008c-1.407-0.008-2.488-1.082-2.484-2.448s1.088-2.419,2.502-2.431c0.318-0.002,0.636,0,0.954,0
		c0.603-0.002,0.797-0.19,0.816-0.789c0.088-2.568,1.943-4.762,4.479-5.211c1.985-0.352,3.688,0.242,5.074,1.713
		c0.56,0.592,0.694,0.611,1.315,0.103c1.027-0.844,2.475-0.929,3.59-0.209c1.114,0.72,1.632,2.063,1.29,3.356
		c-0.204,0.775-0.006,1.028,0.791,1.039c0.558,0.008,1.127-0.025,1.669,0.074c1.204,0.221,2.011,1.348,1.912,2.566
		C36.981,17.729,35.962,18.721,34.731,18.74z"/>
	<path fill-rule="evenodd" clip-rule="evenodd" fill="#0077FF" d="M11.2,13.859c-1.92,0.008-3.842,0.011-5.763,0.006
		c-1.435-0.004-2.52-1.072-2.512-2.457c0.008-1.363,1.092-2.411,2.51-2.422c0.33-0.002,0.66,0.002,0.991,0
		c0.548-0.004,0.741-0.207,0.772-0.758c0.123-2.155,1.123-3.771,3.049-4.754c2.205-1.127,4.836-0.61,6.508,1.227
		c0.548,0.601,0.679,0.601,1.315,0.102c0.921-0.722,1.944-0.904,3.043-0.478c0.657,0.255,1.123,0.678,1.451,1.219
		c0.062-0.004,0.115-0.017,0.178-0.019c0.337,0.008,0.664,0.043,0.985,0.098l0.239-0.011c-0.626-1.594-2.147-2.702-3.917-2.725
		c-0.93-0.012-1.768,0.278-2.537,0.796c-2.051-1.882-4.401-2.549-7.045-1.621C7.813,2.995,6.387,4.993,5.985,7.688
		C5.367,7.781,4.758,7.798,4.2,7.975C2.531,8.5,1.47,10.233,1.733,11.896c0.295,1.851,1.748,3.163,3.571,3.186
		c1.702,0.02,3.405,0.004,5.108,0.006c0.078,0,0.157,0,0.236,0C10.755,14.712,10.928,14.29,11.2,13.859z"/>
</g>
</svg>
