<?xml version="1.0" encoding="utf-8"?>
<!-- Generator: Adobe Illustrator 16.0.0, SVG Export Plug-In . SVG Version: 6.00 Build 0)  -->
<!DOCTYPE svg PUBLIC "-//W3C//DTD SVG 1.1//EN" "http://www.w3.org/Graphics/SVG/1.1/DTD/svg11.dtd">
<svg version="1.1" id="Layer_1" xmlns="http://www.w3.org/2000/svg" xmlns:xlink="http://www.w3.org/1999/xlink" x="0px" y="0px"
	 width="40px" height="40px" viewBox="0 0 40 40" enable-background="new 0 0 40 40" xml:space="preserve">
<g>
	<path fill="#0077FF" d="M23.244,39.098h-6.488c-0.333,0-0.606-0.273-0.606-0.606v-3.153c-1.516-0.363-2.94-0.97-4.273-1.758
		l-2.214,2.214c-0.241,0.241-0.636,0.241-0.849,0l-4.638-4.578c-0.242-0.243-0.242-0.606,0-0.849l2.213-2.213
		c-0.788-1.334-1.394-2.758-1.758-4.274H1.509c-0.334,0-0.606-0.272-0.606-0.606v-6.517c0-0.334,0.272-0.606,0.606-0.606h3.152
		c0.364-1.516,0.97-2.94,1.759-4.274L4.207,9.663c-0.242-0.243-0.242-0.606,0-0.849l4.577-4.638
		c0.122-0.122,0.273-0.183,0.425-0.183s0.303,0.061,0.424,0.183l2.214,2.213c1.333-0.788,2.758-1.395,4.273-1.759V1.509
		c0-0.333,0.273-0.606,0.606-0.606h6.518c0.332,0,0.605,0.273,0.605,0.606v3.183c1.516,0.364,2.941,0.971,4.273,1.759l2.213-2.243
		c0.121-0.121,0.273-0.183,0.426-0.183c0.15,0,0.303,0.062,0.424,0.183l4.639,4.577c0.242,0.242,0.242,0.606,0,0.849l-2.213,2.213
		c0.787,1.334,1.393,2.758,1.758,4.274h3.121c0.334,0,0.607,0.272,0.607,0.605v6.519c0,0.332-0.273,0.606-0.607,0.606h-3.152
		c-0.363,1.515-0.969,2.939-1.758,4.272l2.213,2.214c0.242,0.242,0.242,0.606,0,0.849l-4.576,4.638
		c-0.123,0.122-0.273,0.183-0.426,0.183c-0.15,0-0.303-0.061-0.424-0.183l-2.213-2.213c-1.334,0.789-2.758,1.395-4.275,1.758v3.123
		C23.85,38.824,23.576,39.098,23.244,39.098L23.244,39.098z M17.363,37.885h5.305v-3.031c0-0.272,0.211-0.546,0.484-0.606
		c1.697-0.363,3.305-1.031,4.76-1.971c0.242-0.151,0.545-0.121,0.758,0.091l2.121,2.122l3.729-3.729l-2.121-2.122
		c-0.213-0.212-0.244-0.516-0.092-0.758c0.939-1.455,1.607-3.062,1.971-4.759c0.061-0.272,0.303-0.484,0.605-0.484h3.033v-5.275
		h-3.033c-0.271,0-0.545-0.212-0.605-0.484c-0.363-1.698-1.031-3.305-1.971-4.76c-0.152-0.242-0.121-0.545,0.092-0.758l2.121-2.122
		l-3.729-3.759L28.67,7.632c-0.213,0.212-0.516,0.242-0.758,0.091c-1.486-0.939-3.063-1.576-4.789-1.97
		c-0.273-0.061-0.486-0.304-0.486-0.606V2.114h-5.274v3.032c0,0.272-0.212,0.546-0.485,0.606c-1.697,0.363-3.304,1.03-4.759,1.97
		c-0.242,0.151-0.546,0.121-0.758-0.091L9.239,5.51L5.48,9.208l2.122,2.122c0.212,0.212,0.242,0.516,0.091,0.758
		c-0.939,1.455-1.606,3.062-1.97,4.76c-0.062,0.272-0.304,0.484-0.607,0.484H2.115v5.306h3.032c0.272,0,0.546,0.212,0.605,0.484
		c0.364,1.697,1.031,3.304,1.971,4.759c0.151,0.242,0.121,0.546-0.091,0.758L5.51,30.761l3.729,3.729l2.122-2.122
		c0.212-0.212,0.516-0.242,0.758-0.091c1.455,0.939,3.062,1.607,4.759,1.971c0.273,0.061,0.485,0.304,0.485,0.606V37.885z"/>
	<path fill="#0077FF" d="M20,32.944c-7.124,0-12.943-5.79-12.943-12.944c0-7.153,5.819-12.943,12.943-12.943
		c7.123,0,12.943,5.79,12.943,12.943C32.943,27.154,27.123,32.944,20,32.944z M20,8.27C13.543,8.27,8.269,13.514,8.269,20
		c0,6.487,5.244,11.731,11.731,11.731c6.486,0,11.73-5.244,11.73-11.731C31.73,13.514,26.457,8.27,20,8.27z"/>
	<path fill="#0077FF" d="M26.244,20.606c-0.334,0-0.605-0.272-0.605-0.606c0-3.092-2.516-5.607-5.609-5.607
		c-0.272,0-0.575,0.029-0.849,0.061c-0.333,0.061-0.636-0.183-0.697-0.516c-0.061-0.333,0.182-0.637,0.516-0.697
		c0.333-0.061,0.697-0.091,1.03-0.091c3.759,0,6.822,3.062,6.822,6.82C26.852,20.334,26.578,20.606,26.244,20.606L26.244,20.606z"/>
	<path fill="#0077FF" d="M20,26.851c-3.759,0-6.821-3.061-6.821-6.819c0-1.819,0.697-3.547,2.001-4.82
		c0.242-0.242,0.606-0.242,0.849,0c0.243,0.242,0.243,0.606,0,0.849c-1.061,1.061-1.637,2.485-1.637,3.972
		c0,3.092,2.516,5.607,5.608,5.607c0.544,0,1.091-0.091,1.636-0.242c0.334-0.092,0.666,0.091,0.758,0.394
		c0.092,0.334-0.092,0.667-0.395,0.758C21.334,26.73,20.697,26.851,20,26.851L20,26.851z"/>
	<path fill="#0077FF" d="M25.031,29.063h-1.818c-0.273,0-0.516-0.182-0.576-0.484l-1.031-4.518h-0.393
		c-0.334,0-0.607-0.271-0.607-0.605v-1.485c0-0.939,0.758-1.698,1.697-1.698h3.154c0.697,0,1.332-0.272,1.818-0.758l0.455-0.425
		c0.182-0.151,0.424-0.212,0.666-0.121c0.213,0.092,0.363,0.303,0.363,0.546v5.215c0,0.241-0.15,0.454-0.363,0.545
		s-0.484,0.061-0.666-0.121l-0.426-0.424c-0.484-0.456-1.121-0.728-1.787-0.728h-1.213l1.363,4.183
		c0.061,0.182,0.031,0.395-0.09,0.546C25.396,28.973,25.213,29.063,25.031,29.063L25.031,29.063z M23.697,27.852h0.486l-1.365-4.184
		c-0.061-0.182-0.029-0.395,0.092-0.546s0.303-0.242,0.484-0.242h2.063c0.727,0,1.424,0.213,2.029,0.606V20.91
		c-0.605,0.394-1.332,0.605-2.092,0.605h-3.121c-0.273,0-0.486,0.213-0.486,0.485v0.879h0.273c0.273,0,0.516,0.182,0.576,0.484
		L23.697,27.852z"/>
	<path fill="#0077FF" d="M28.67,23.517c-0.516,0-0.971-0.424-0.971-0.97s0.424-0.971,0.971-0.971c0.545,0,0.969,0.425,0.969,0.971
		S29.215,23.517,28.67,23.517z M28.67,22.305c-0.152,0-0.242,0.121-0.242,0.242c0,0.151,0.121,0.242,0.242,0.242
		s0.242-0.122,0.242-0.242C28.943,22.426,28.82,22.305,28.67,22.305z"/>
	<path fill="#0077FF" d="M16.21,17.605C16.18,17.605,16.18,17.605,16.21,17.605c-0.363,0-0.606-0.304-0.606-0.637l0.03-1.212
		l-1.363-0.031c-0.334,0-0.606-0.303-0.576-0.636c0-0.334,0.304-0.606,0.637-0.576l1.971,0.061c0.333,0,0.605,0.303,0.575,0.637
		l-0.061,1.818C16.787,17.333,16.514,17.605,16.21,17.605z"/>
	<path fill="#0077FF" d="M20,20.606h-1.88c-0.333,0-0.605-0.272-0.605-0.606s0.272-0.605,0.605-0.605h1.273v-3.426
		c0-0.334,0.272-0.606,0.606-0.606c0.333,0,0.607,0.272,0.607,0.606V20c0,0.151-0.063,0.303-0.183,0.425
		C20.333,20.547,20.182,20.606,20,20.606z"/>
</g>
</svg>
