<?xml version="1.0" encoding="utf-8"?>
<!-- Generator: Adobe Illustrator 16.0.0, SVG Export Plug-In . SVG Version: 6.00 Build 0)  -->
<!DOCTYPE svg PUBLIC "-//W3C//DTD SVG 1.1//EN" "http://www.w3.org/Graphics/SVG/1.1/DTD/svg11.dtd">
<svg version="1.1" id="Layer_1" xmlns="http://www.w3.org/2000/svg" xmlns:xlink="http://www.w3.org/1999/xlink" x="0px" y="0px"
	 width="40px" height="40px" viewBox="0 0 40 40" enable-background="new 0 0 40 40" xml:space="preserve">
<g>
	<path fill="#0077FF" d="M36.324,13.723h-8.163c-0.345,0-0.627,0.281-0.627,0.628v2.511c0,0.167,0.066,0.326,0.184,0.444
		s0.277,0.184,0.443,0.184h1.885c0.449,0,0.862,0.239,1.087,0.628c0.225,0.388,0.225,0.867,0,1.256s-0.638,0.628-1.087,0.628h-1.885
		c-0.345,0-0.627,0.281-0.627,0.628v3.14h-9.418c-0.346,0-0.628,0.28-0.628,0.627v8.162c0,0.666,0.265,1.306,0.735,1.776
		s1.11,0.734,1.776,0.734h16.324c0.666,0,1.305-0.264,1.775-0.734s0.736-1.11,0.736-1.776V16.235c0-0.666-0.266-1.305-0.736-1.776
		C37.629,13.988,36.99,13.723,36.324,13.723z M30.046,21.257c0.896,0,1.726-0.479,2.175-1.255c0.448-0.777,0.448-1.734,0-2.512
		c-0.449-0.777-1.278-1.255-2.175-1.255H28.79v-1.256h7.534c0.333,0,0.651,0.132,0.889,0.367c0.234,0.236,0.367,0.556,0.367,0.889
		v7.535h-2.512c-0.347,0-0.628,0.28-0.628,0.627v1.884c0,0.448-0.239,0.863-0.628,1.088c-0.388,0.224-0.867,0.224-1.255,0
		c-0.39-0.225-0.629-0.64-0.629-1.088v-1.884c0-0.166-0.065-0.326-0.184-0.443c-0.117-0.118-0.277-0.184-0.443-0.184H28.79v-2.513
		H30.046z M27.534,33.814H20c-0.333,0-0.653-0.133-0.888-0.368c-0.236-0.235-0.368-0.555-0.368-0.888v-7.535h8.79v1.257h-1.256
		c-0.897,0-1.727,0.479-2.175,1.256c-0.449,0.776-0.449,1.734,0,2.511c0.448,0.777,1.277,1.257,2.175,1.257h1.256V33.814z
		 M37.58,32.559c0,0.333-0.133,0.652-0.367,0.888c-0.237,0.235-0.556,0.368-0.889,0.368H28.79v-3.14
		c0-0.166-0.066-0.326-0.184-0.444c-0.118-0.117-0.278-0.184-0.445-0.184h-1.883c-0.449,0-0.863-0.239-1.088-0.627
		c-0.224-0.39-0.224-0.868,0-1.257c0.225-0.388,0.639-0.627,1.088-0.627h1.883c0.167,0,0.327-0.066,0.445-0.185
		c0.117-0.117,0.184-0.276,0.184-0.443v-1.885h1.883v1.257c0,0.897,0.479,1.727,1.256,2.175s1.734,0.448,2.512,0
		s1.255-1.277,1.255-2.175v-1.257h1.885V32.559z"/>
	<path fill="#0077FF" d="M1.793,38.837h6.906c0.166,0,0.325-0.065,0.442-0.184c0.119-0.118,0.185-0.277,0.185-0.444
		c0.001-0.571-0.154-1.133-0.451-1.622c-0.296-0.488-0.72-0.887-1.228-1.15l0.3-0.6c0.909-1.827,1.205-3.898,0.844-5.906
		l-0.466-2.562c-0.032-0.177,0.016-0.36,0.131-0.498c0.116-0.139,0.287-0.219,0.467-0.219c0.293-0.001,0.545,0.21,0.599,0.498
		l0.854,4.691c0.138,0.763,0.207,1.535,0.207,2.31v5.058c0,0.167,0.065,0.326,0.184,0.444s0.278,0.184,0.444,0.184h6.906
		c0.166,0,0.326-0.065,0.444-0.184c0.117-0.118,0.184-0.277,0.184-0.444c0-0.122-0.007-0.244-0.021-0.364
		c-0.108-0.946-0.692-1.77-1.548-2.186c-0.7-0.356-1.512-0.43-2.264-0.2l0.418-2.091l0,0c0.183-0.914,0.274-1.845,0.275-2.777v-5.62
		l-0.733-8.408l4.356-2.079c0.395-0.176,0.733-0.457,0.979-0.813c0.244-0.356,0.387-0.773,0.409-1.204h6.289
		c0.167,0,0.326-0.066,0.444-0.184c0.117-0.118,0.184-0.277,0.184-0.444V8.7h1.256c0.896,0,1.727-0.479,2.176-1.255
		c0.448-0.777,0.448-1.734,0-2.512c-0.449-0.777-1.279-1.255-2.176-1.255h-1.256V1.794c0-0.167-0.066-0.327-0.184-0.444
		c-0.118-0.118-0.277-0.184-0.444-0.184h-8.162c-0.666,0-1.304,0.265-1.775,0.736c-0.471,0.471-0.736,1.11-0.736,1.776v7.032
		l-2.597,1.256c-0.392-0.516-0.875-0.953-1.43-1.288c1.339-0.671,2.309-1.904,2.645-3.364c0.337-1.459,0.004-2.992-0.907-4.181
		c-0.91-1.188-2.304-1.909-3.801-1.965C8.646,1.111,7.203,1.726,6.207,2.844C5.21,3.962,4.765,5.466,4.991,6.947
		c0.227,1.48,1.102,2.782,2.388,3.551c-1.314,0.641-2.284,1.821-2.659,3.235l-2.501,7.876c-0.708,2.225-0.564,4.633,0.402,6.758
		c1.026,2.245,0.979,4.835-0.131,7.042L1.229,37.93c-0.097,0.193-0.086,0.426,0.029,0.61C1.372,38.725,1.574,38.837,1.793,38.837
		L1.793,38.837z M18.715,13.338l-0.019,0.008l-8.46,4.036c-0.334,0.159-0.725,0.135-1.037-0.061c-0.312-0.197-0.5-0.54-0.501-0.909
		c0.001-0.201,0.058-0.399,0.165-0.57c0.107-0.171,0.261-0.309,0.441-0.397l8.529-4.119v0c0.339-0.151,0.731-0.119,1.041,0.087
		c0.313,0.201,0.5,0.548,0.497,0.919c0,0.213-0.063,0.422-0.18,0.601C19.076,13.112,18.91,13.252,18.715,13.338L18.715,13.338z
		 M18.744,2.422h7.534v1.883c0,0.167,0.066,0.326,0.184,0.444c0.119,0.118,0.278,0.184,0.444,0.184h1.884
		c0.448,0,0.863,0.239,1.087,0.628c0.225,0.389,0.225,0.867,0,1.256c-0.224,0.388-0.639,0.628-1.087,0.628h-1.884
		c-0.348,0-0.628,0.281-0.628,0.627v3.14h-5.934c-0.267-0.494-0.702-0.875-1.227-1.075c-0.523-0.2-1.102-0.206-1.63-0.017V3.677
		c0-0.333,0.133-0.652,0.368-0.888S18.411,2.422,18.744,2.422L18.744,2.422z M6.188,6.189c0-1,0.396-1.957,1.104-2.664
		c0.706-0.706,1.664-1.103,2.663-1.103c1,0,1.958,0.397,2.664,1.103c0.706,0.707,1.104,1.665,1.104,2.664s-0.397,1.957-1.104,2.664
		s-1.664,1.104-2.664,1.104C8.955,9.955,7.998,9.558,7.292,8.852S6.188,7.188,6.188,6.189L6.188,6.189z M3.613,35.97
		c1.278-2.546,1.334-5.533,0.15-8.123c-0.84-1.843-0.964-3.931-0.35-5.859l2.511-7.91c0.251-0.941,0.849-1.752,1.674-2.271
		c0.824-0.519,1.814-0.706,2.771-0.524c0.82,0.164,1.562,0.601,2.102,1.24l-3.711,1.792c-0.394,0.191-0.726,0.49-0.958,0.861
		c-0.234,0.371-0.357,0.799-0.36,1.237c-0.002,0.801,0.408,1.547,1.086,1.974c0.677,0.427,1.526,0.476,2.249,0.129l2.887-1.376
		l0.686,7.884v5.566c-0.001,0.851-0.085,1.697-0.252,2.531l-0.669,3.344l0,0c-0.048,0.241,0.049,0.489,0.248,0.634
		c0.2,0.144,0.466,0.157,0.68,0.035l0.555-0.316c0.522-0.298,1.16-0.312,1.695-0.037c0.344,0.166,0.614,0.45,0.764,0.801h-5.531
		V33.15c0-0.849-0.078-1.697-0.229-2.533l-0.853-4.69c-0.085-0.49-0.361-0.926-0.77-1.211c-0.407-0.285-0.911-0.395-1.4-0.306
		c-0.488,0.089-0.922,0.369-1.203,0.779s-0.387,0.915-0.294,1.403l0.467,2.562c0.313,1.741,0.056,3.537-0.732,5.121l-0.609,1.218
		c-0.088,0.171-0.092,0.373-0.011,0.548c0.081,0.174,0.236,0.301,0.423,0.347c0.618,0.146,1.121,0.595,1.336,1.193H2.809
		L3.613,35.97z"/>
	<path fill="#0077FF" d="M20.627,19.741l-2.066-2.067l-0.888,0.889l4.396,4.395h-0.002c0.246,0.245,0.644,0.245,0.889,0l4.396-4.395
		l-0.888-0.889l-2.068,2.067v-3.506h-1.256v4.763l-0.627,0.627l-0.628-0.627v-2.252h-1.257V19.741z"/>
	<path fill="#0077FF" d="M20.627,16.235h1.257v1.255h-1.257V16.235z"/>
	<path fill="#0077FF" d="M20.627,13.723h1.257v1.256h-1.257V13.723z"/>
	<path fill="#0077FF" d="M23.139,13.723h1.256v1.256h-1.256V13.723z"/>
</g>
</svg>
