<?xml version="1.0" encoding="utf-8"?>
<!-- Generator: Adobe Illustrator 16.0.0, SVG Export Plug-In . SVG Version: 6.00 Build 0)  -->
<!DOCTYPE svg PUBLIC "-//W3C//DTD SVG 1.1//EN" "http://www.w3.org/Graphics/SVG/1.1/DTD/svg11.dtd">
<svg version="1.1" id="Layer_1" xmlns="http://www.w3.org/2000/svg" xmlns:xlink="http://www.w3.org/1999/xlink" x="0px" y="0px"
	 width="40px" height="40px" viewBox="0 0 40 40" enable-background="new 0 0 40 40" xml:space="preserve">
<g>
	<path fill="#0077FF" d="M22.273,13.504v1.299c0.359,0,0.649,0.29,0.649,0.649s-0.29,0.65-0.649,0.65V17.4
		c0.696,0,1.339-0.371,1.688-0.974c0.348-0.603,0.348-1.346,0-1.949C23.612,13.875,22.97,13.504,22.273,13.504z"/>
	<path fill="#0077FF" d="M32.666,6.359h1.299c0-0.517-0.205-1.013-0.57-1.378c-0.365-0.366-0.861-0.571-1.379-0.571V3.111h-1.299
		v1.299c-0.695,0-1.339,0.371-1.688,0.974c-0.348,0.603-0.348,1.346,0,1.949c0.349,0.603,0.992,0.974,1.688,0.974v1.299
		c-0.358,0-0.649-0.291-0.649-0.649h-1.299c0,0.517,0.205,1.013,0.571,1.378c0.365,0.365,0.861,0.57,1.377,0.57v1.299h1.299v-1.299
		c0.696,0,1.34-0.371,1.688-0.974c0.348-0.603,0.348-1.346,0-1.948c-0.349-0.603-0.992-0.975-1.688-0.975V5.709
		c0.173,0,0.338,0.069,0.46,0.19C32.597,6.021,32.666,6.187,32.666,6.359z M32.666,8.957c0,0.172-0.069,0.338-0.19,0.459
		c-0.122,0.122-0.287,0.19-0.46,0.19V8.308c0.173,0,0.338,0.068,0.46,0.19C32.597,8.62,32.666,8.785,32.666,8.957z M30.717,7.008
		c-0.358,0-0.649-0.291-0.649-0.649c0-0.359,0.291-0.65,0.649-0.65V7.008z"/>
	<path fill="#0077FF" d="M31.367,0.514c-1.665,0.001-3.277,0.584-4.559,1.648c-1.28,1.064-2.149,2.542-2.457,4.178
		c-3.629-1.864-7.968-1.699-11.445,0.433c-3.478,2.133-5.592,5.925-5.577,10.004c0.016,4.081,2.156,7.857,5.649,9.963
		c0.941,0.592,1.51,1.629,1.501,2.741v6.105c0.001,0.344,0.138,0.674,0.381,0.917c0.244,0.243,0.574,0.381,0.918,0.382h0.064
		c0.2,0.986,0.848,1.824,1.751,2.269s1.961,0.444,2.864,0c0.904-0.444,1.55-1.282,1.75-2.269h0.065
		c0.345-0.001,0.674-0.139,0.917-0.382c0.244-0.243,0.381-0.573,0.382-0.917v-6.105c-0.015-1.104,0.547-2.135,1.48-2.722
		c3.526-2.1,5.68-5.906,5.664-10.009c-0.002-0.67-0.062-1.34-0.175-2c0.273,0.034,0.549,0.051,0.825,0.052
		c2.552,0,4.91-1.362,6.187-3.573c1.276-2.21,1.276-4.934,0-7.145C36.277,1.874,33.919,0.513,31.367,0.514L31.367,0.514z
		 M19.025,38.186c-0.401-0.002-0.792-0.128-1.121-0.361c-0.327-0.231-0.575-0.56-0.71-0.938h3.663
		c-0.135,0.379-0.383,0.707-0.711,0.938C19.819,38.058,19.428,38.184,19.025,38.186L19.025,38.186z M22.273,35.587h-6.495v-1.299
		h6.495V35.587z M22.273,32.989h-6.495V31.69h6.495V32.989z M24.378,25.644c-1.319,0.828-2.115,2.28-2.104,3.838v0.91h-1.299v-4.255
		l2.377-2.078c0.142-0.123,0.223-0.3,0.221-0.487v-1.624h-1.299v1.332l-2.377,2.078c-0.142,0.122-0.223,0.3-0.221,0.487v4.547h-1.3
		v-4.547c0.002-0.188-0.079-0.365-0.221-0.487l-2.377-2.078v-1.332h-1.299v1.624c-0.002,0.188,0.079,0.364,0.221,0.487l2.377,2.078
		v4.255h-1.299v-0.91c0.008-1.564-0.796-3.022-2.124-3.852c-3.149-1.909-5.052-5.344-4.999-9.026
		c0.053-3.683,2.052-7.062,5.255-8.879c3.203-1.819,7.129-1.804,10.318,0.038c0.023,1.49,0.511,2.935,1.395,4.134
		c0.884,1.199,2.119,2.092,3.535,2.556c0.486,2.132,0.286,4.362-0.572,6.372C27.728,22.835,26.254,24.521,24.378,25.644
		L24.378,25.644z M31.367,13.504c-1.551,0-3.038-0.616-4.134-1.713c-1.097-1.096-1.712-2.583-1.712-4.133
		c0-1.55,0.615-3.037,1.712-4.133c1.096-1.096,2.583-1.712,4.134-1.712c1.55,0,3.036,0.616,4.133,1.712s1.713,2.583,1.713,4.133
		c-0.003,1.55-0.619,3.035-1.716,4.131C34.401,12.884,32.916,13.501,31.367,13.504L31.367,13.504z"/>
	<path fill="#0077FF" d="M26.677,15.751c0.218-0.704,0.186-1.461-0.091-2.144c-0.213-0.536-0.563-1.007-1.019-1.363
		c-0.454-0.356-0.995-0.585-1.566-0.663c-0.423-0.061-0.854-0.023-1.26,0.11c-0.329-1.06-1.096-1.929-2.105-2.387
		c-1.011-0.458-2.17-0.462-3.184-0.011c-1.015,0.451-1.786,1.314-2.122,2.373c-0.278-0.073-0.563-0.11-0.852-0.11
		c-1.028-0.005-1.997,0.48-2.61,1.306s-0.796,1.894-0.494,2.876c-0.472,0.236-0.861,0.611-1.115,1.074
		c-0.255,0.462-0.361,0.992-0.307,1.518c0.084,0.645,0.4,1.237,0.892,1.665c0.49,0.427,1.121,0.659,1.771,0.654h12.822
		c0.328,0.002,0.654-0.058,0.962-0.176c0.454-0.161,0.854-0.447,1.156-0.825c0.3-0.378,0.489-0.833,0.545-1.312
		c0.062-0.525-0.042-1.057-0.297-1.521C27.547,16.352,27.154,15.98,26.677,15.751L26.677,15.751z M25.937,19.258L25.937,19.258
		c-0.16,0.061-0.329,0.091-0.5,0.091h-5.112c-0.464,0-0.893-0.248-1.125-0.649c-0.231-0.402-0.231-0.897,0-1.299
		c0.232-0.402,0.661-0.649,1.125-0.649v-1.299c-0.688,0-1.35,0.274-1.837,0.761C18,16.7,17.727,17.361,17.727,18.05
		c0.002,0.458,0.128,0.906,0.364,1.299h-1.78c0.217-0.596,0.129-1.26-0.236-1.778s-0.961-0.824-1.596-0.82v1.299
		c0.359,0,0.65,0.29,0.65,0.649c0,0.358-0.291,0.649-0.65,0.649h-1.863c-0.331,0.007-0.653-0.107-0.906-0.319
		c-0.254-0.213-0.421-0.511-0.472-0.837c-0.033-0.339,0.067-0.679,0.278-0.946c0.213-0.266,0.521-0.44,0.858-0.483
		c0.374-0.061,0.754,0.057,1.026,0.318l0.857-0.975l0,0c-0.443-0.386-1.004-0.613-1.591-0.643c-0.087-0.211-0.134-0.436-0.137-0.663
		c0.002-0.517,0.207-1.012,0.572-1.376c0.365-0.365,0.859-0.572,1.376-0.573c0.351-0.002,0.694,0.092,0.994,0.273
		c0.229,0.141,0.423,0.329,0.571,0.552c-0.174,0.349-0.265,0.733-0.266,1.124h1.299c0.001-0.344,0.139-0.674,0.382-0.917
		s0.573-0.38,0.917-0.381v-1.299c-0.521-0.001-1.032,0.158-1.461,0.455c-0.125-0.141-0.263-0.271-0.41-0.39
		c0.134-0.57,0.454-1.078,0.912-1.443c0.457-0.365,1.023-0.566,1.608-0.57c0.554-0.003,1.093,0.172,1.538,0.5
		c0.446,0.328,0.774,0.791,0.937,1.319c0.104,0.318,0.326,0.584,0.623,0.74c0.296,0.157,0.641,0.192,0.962,0.098
		c0.244-0.061,0.497-0.076,0.747-0.045c0.342,0.047,0.665,0.185,0.937,0.398s0.481,0.495,0.609,0.816
		c0.169,0.409,0.188,0.865,0.052,1.286c-0.088,0.29-0.068,0.603,0.054,0.881c0.123,0.277,0.341,0.502,0.615,0.633
		c0.31,0.149,0.546,0.417,0.656,0.742c0.111,0.325,0.087,0.681-0.067,0.988S26.264,19.152,25.937,19.258L25.937,19.258z"/>
	<path fill="#0077FF" d="M18.376,2.462h1.3v1.299h-1.3V2.462z"/>
	<path fill="#0077FF" d="M15.419,2.909l1.271-0.27L16.96,3.91l-1.271,0.271L15.419,2.909z"/>
	<path fill="#0077FF" d="M12.62,3.962l1.188-0.529l0.527,1.186l-1.186,0.529L12.62,3.962z"/>
	<path fill="#0077FF" d="M10.102,5.574l1.051-0.765l0.764,1.05l-1.051,0.764L10.102,5.574z"/>
	<path fill="#0077FF" d="M7.972,7.673l0.87-0.965l0.965,0.87L8.938,8.542L7.972,7.673z"/>
	<path fill="#0077FF" d="M6.326,10.17l0.65-1.125l1.125,0.65l-0.65,1.125L6.326,10.17z"/>
	<path fill="#0077FF" d="M5.235,12.953l0.401-1.235l1.235,0.401l-0.401,1.235L5.235,12.953z"/>
	<path fill="#0077FF" d="M4.747,15.904l0.136-1.292l1.292,0.135l-0.136,1.292L4.747,15.904z"/>
	<path fill="#0077FF" d="M4.747,17.599l1.292-0.135l0.136,1.292l-1.292,0.136L4.747,17.599z"/>
	<path fill="#0077FF" d="M5.235,20.548l1.235-0.4l0.401,1.235l-1.235,0.401L5.235,20.548z"/>
	<path fill="#0077FF" d="M6.326,23.333l1.125-0.649l0.65,1.125l-1.125,0.65L6.326,23.333z"/>
	<path fill="#0077FF" d="M7.972,25.83l0.966-0.87l0.869,0.966l-0.965,0.869L7.972,25.83z"/>
	<path fill="#0077FF" d="M10.102,27.93l0.763-1.051l1.051,0.764l-0.763,1.051L10.102,27.93z"/>
	<path fill="#0077FF" d="M12.62,29.542l0.529-1.188l1.187,0.528l-0.528,1.188L12.62,29.542z"/>
	<path fill="#0077FF" d="M23.716,28.883l1.187-0.528l0.528,1.186l-1.187,0.529L23.716,28.883z"/>
	<path fill="#0077FF" d="M26.136,27.644l1.051-0.765l0.764,1.05l-1.051,0.765L26.136,27.644z"/>
	<path fill="#0077FF" d="M28.245,25.926l0.869-0.965l0.966,0.869l-0.869,0.965L28.245,25.926z"/>
	<path fill="#0077FF" d="M29.951,23.81l0.649-1.125l1.125,0.649l-0.649,1.126L29.951,23.81z"/>
	<path fill="#0077FF" d="M31.18,21.384l0.4-1.235l1.236,0.401l-0.401,1.235L31.18,21.384z"/>
	<path fill="#0077FF" d="M31.877,18.755l0.136-1.292l1.292,0.136l-0.137,1.292L31.877,18.755z"/>
	<path fill="#0077FF" d="M21.091,3.91l0.271-1.271l1.271,0.271L22.361,4.18L21.091,3.91z"/>
	<path fill="#0077FF" d="M5.386,7.658c0-0.517,0.205-1.013,0.571-1.378c0.365-0.365,0.861-0.571,1.377-0.571
		c0.359,0,0.65-0.291,0.65-0.649s-0.291-0.649-0.65-0.649c-0.516,0-1.012-0.206-1.377-0.571C5.591,3.475,5.386,2.979,5.386,2.462
		c0-0.359-0.29-0.649-0.649-0.649c-0.358,0-0.649,0.291-0.649,0.649c0,0.517-0.205,1.013-0.57,1.378S2.655,4.411,2.139,4.411
		c-0.358,0-0.649,0.291-0.649,0.649S1.78,5.709,2.139,5.709c0.517,0,1.013,0.206,1.378,0.571s0.57,0.861,0.57,1.378
		c0,0.358,0.291,0.649,0.649,0.649C5.096,8.308,5.386,8.017,5.386,7.658z M4.736,5.709C4.552,5.463,4.333,5.245,4.087,5.06
		c0.246-0.185,0.465-0.404,0.649-0.649C4.922,4.656,5.141,4.875,5.386,5.06C5.141,5.245,4.922,5.463,4.736,5.709z"/>
</g>
</svg>
