<?xml version="1.0" encoding="utf-8"?>
<!-- Generator: Adobe Illustrator 16.0.0, SVG Export Plug-In . SVG Version: 6.00 Build 0)  -->
<!DOCTYPE svg PUBLIC "-//W3C//DTD SVG 1.1//EN" "http://www.w3.org/Graphics/SVG/1.1/DTD/svg11.dtd">
<svg version="1.1" id="Layer_1" xmlns="http://www.w3.org/2000/svg" xmlns:xlink="http://www.w3.org/1999/xlink" x="0px" y="0px"
	 width="40px" height="40px" viewBox="0 0 40 40" enable-background="new 0 0 40 40" xml:space="preserve">
<g>
	<path fill="#0077FF" d="M25.982,25.002l-2.373-2.373l-1.428,0.715l-0.504-1.515h-3.355l-0.504,1.515l-1.428-0.715l-2.373,2.373
		l0.715,1.428l-1.515,0.504v3.354l1.514,0.504l-0.714,1.428l2.373,2.371l1.428-0.712l0.504,1.514h3.355l0.504-1.514l1.426,0.714
		l2.373-2.373l-0.715-1.426l1.516-0.506v-3.354l-1.514-0.505L25.982,25.002z M25.549,27.823V29.4l-1.416,0.471l-0.104,0.274
		c-0.029,0.079-0.061,0.156-0.094,0.233l-0.121,0.266l0.666,1.334l-1.115,1.114l-1.332-0.665l-0.268,0.119
		c-0.076,0.033-0.152,0.063-0.232,0.096l-0.273,0.103l-0.471,1.414H19.21l-0.472-1.415l-0.272-0.104
		c-0.08-0.03-0.157-0.062-0.233-0.096l-0.268-0.119l-1.332,0.666l-1.115-1.115l0.666-1.333l-0.12-0.267
		c-0.033-0.076-0.064-0.154-0.094-0.233l-0.104-0.272L14.452,29.4v-1.579l1.415-0.472l0.104-0.271
		c0.03-0.081,0.062-0.157,0.095-0.233l0.12-0.268l-0.666-1.334l1.115-1.114l1.333,0.665l0.266-0.119
		c0.077-0.033,0.154-0.063,0.233-0.095l0.273-0.103l0.472-1.415h1.578l0.471,1.415l0.273,0.104c0.08,0.031,0.158,0.062,0.234,0.096
		l0.266,0.119l1.334-0.666l1.115,1.115l-0.668,1.333l0.121,0.267c0.033,0.076,0.064,0.154,0.094,0.233l0.105,0.273L25.549,27.823z"
		/>
	<path fill="#0077FF" d="M20,25.529c-1.7,0-3.083,1.381-3.083,3.082c0,1.699,1.383,3.081,3.083,3.081
		c1.699,0,3.082-1.382,3.082-3.081C23.082,26.91,21.699,25.529,20,25.529z M20,30.46c-1.021,0-1.85-0.829-1.85-1.849
		c0-1.021,0.829-1.85,1.85-1.85c1.019,0,1.849,0.829,1.849,1.85C21.85,29.631,21.02,30.46,20,30.46z"/>
	<path fill="#0077FF" d="M39.111,19.839c0-1.277-0.803-2.438-2-2.888l-2.932-1.098v-0.522c0.467-0.418,0.826-0.953,1.033-1.559
		c1.16-0.199,2.049-1.206,2.049-2.423V8.365c0-1.38-0.848-2.607-2.127-3.099L34.66,4.791c-0.941-0.94-2.189-1.458-3.52-1.458
		c-2.744,0-4.977,2.232-4.977,4.976v3.039c0,1.218,0.889,2.225,2.051,2.424c0.207,0.605,0.566,1.14,1.033,1.559v0.522l-1.961,0.735
		c-0.254-0.948-0.945-1.747-1.889-2.102l-2.932-1.099v-0.522c0.467-0.418,0.826-0.953,1.031-1.559
		c1.162-0.199,2.051-1.206,2.051-2.423V6.416c0-3.06-2.49-5.549-5.548-5.549c-3.06,0-5.549,2.489-5.549,5.549v2.466
		c0,1.217,0.888,2.225,2.05,2.424c0.206,0.605,0.565,1.139,1.032,1.558v0.522l-2.933,1.099c-0.943,0.355-1.636,1.154-1.889,2.102
		l-1.961-0.734v-0.522c0.468-0.418,0.827-0.953,1.033-1.559c1.162-0.199,2.051-1.206,2.051-2.423V8.882
		c0-3.06-2.49-5.549-5.55-5.549S2.738,5.823,2.738,8.882v2.466c0,1.217,0.889,2.225,2.05,2.423c0.206,0.605,0.565,1.14,1.033,1.559
		v0.522l-2.933,1.1c-1.196,0.448-2,1.609-2,2.887v3.224H9.52v1.178c0,6.557,4.124,12.509,10.263,14.811L20,39.133l0.216-0.082
		c6.139-2.302,10.264-8.254,10.264-14.811v-1.178h8.631V19.839z M31.715,17.719l-1.234-1.644v-0.011
		c0.387,0.138,0.801,0.216,1.234,0.216c0.432,0,0.846-0.079,1.232-0.216v0.011L31.715,17.719z M31.715,15.047
		c-1.361,0-2.467-1.106-2.467-2.466v-2.466h4.932v2.466C34.18,13.941,33.074,15.047,31.715,15.047z M35.412,12.41v-2.123
		c0.367,0.214,0.617,0.607,0.617,1.062C36.029,11.803,35.779,12.196,35.412,12.41z M31.141,4.566c1,0,1.939,0.39,2.646,1.096
		l0.676,0.676l0.139,0.045c0.854,0.285,1.428,1.081,1.428,1.981v0.859c-0.365-0.212-0.781-0.343-1.232-0.343h-6.166
		c-0.451,0-0.869,0.13-1.232,0.343V8.309C27.398,6.246,29.078,4.566,31.141,4.566L31.141,4.566z M27.398,11.348
		c0-0.455,0.25-0.848,0.615-1.062v2.123C27.648,12.196,27.398,11.802,27.398,11.348z M22.904,14.867l-0.752,2.255l-1.289-0.966
		l1.201-1.603L22.904,14.867z M20,15.252l-1.233-1.643v-0.011c0.387,0.137,0.801,0.216,1.233,0.216c0.432,0,0.845-0.079,1.232-0.216
		v0.011L20,15.252z M20,12.581c-1.36,0-2.467-1.106-2.467-2.465v-2.51C18.429,7.508,19.291,7.174,20,6.621
		c0.708,0.554,1.57,0.888,2.466,0.985v2.51C22.467,11.475,21.359,12.581,20,12.581z M23.699,9.944V7.821
		c0.367,0.213,0.615,0.607,0.615,1.062C24.314,9.337,24.066,9.729,23.699,9.944z M20,2.1c2.378,0,4.314,1.937,4.314,4.315v0.342
		c-0.363-0.211-0.781-0.342-1.232-0.342h-0.105c-0.945,0-1.873-0.383-2.541-1.053L20,4.927l-0.437,0.437
		c-0.669,0.668-1.595,1.052-2.541,1.052h-0.105c-0.452,0-0.869,0.131-1.233,0.342V6.416C15.684,4.037,17.621,2.1,20,2.1L20,2.1z
		 M15.684,8.882c0-0.455,0.25-0.848,0.617-1.062v2.123C15.934,9.729,15.684,9.335,15.684,8.882z M17.935,14.553l1.202,1.604
		l-1.289,0.966l-0.753-2.255L17.935,14.553z M13.835,17.372c0-0.768,0.481-1.463,1.199-1.732l0.906-0.339l1.278,3.835L20,17.05
		l2.781,2.085l1.277-3.835l0.906,0.339c0.717,0.27,1.199,0.966,1.199,1.732v1.99H13.835V17.372z M8.286,15.047
		c-1.359,0-2.466-1.106-2.466-2.466v-2.466h4.932v2.466C10.751,13.941,9.646,15.047,8.286,15.047z M11.985,12.409v-2.123
		c0.367,0.214,0.616,0.607,0.616,1.062C12.601,11.802,12.352,12.195,11.985,12.409z M8.286,4.566c2.38,0,4.315,1.936,4.315,4.315
		v0.343c-0.363-0.212-0.781-0.343-1.232-0.343H5.204c-0.451,0-0.868,0.13-1.233,0.343V8.881C3.97,6.502,5.907,4.566,8.286,4.566z
		 M3.97,11.347c0-0.454,0.25-0.848,0.617-1.062v2.123C4.22,12.195,3.97,11.802,3.97,11.347z M8.286,16.28
		c0.433,0,0.847-0.079,1.234-0.216v0.216c0,0.68-0.554,1.233-1.234,1.233c-0.68,0-1.232-0.553-1.232-1.233v-0.216
		C7.44,16.201,7.854,16.28,8.286,16.28z M4.587,21.828v-2.466H3.354v2.466H2.122v-1.991c0-0.766,0.482-1.462,1.199-1.732
		l2.653-0.995c0.344,0.952,1.246,1.635,2.312,1.635c1.066,0,1.969-0.683,2.313-1.633l2.003,0.751v1.499H9.519v2.466H4.587z
		 M29.248,24.239c0,5.969-3.707,11.393-9.248,13.574c-5.541-2.181-9.249-7.605-9.249-13.574v-3.644h18.497V24.239z M37.879,21.828
		h-1.232v-2.466h-1.234v2.466H30.48v-2.466h-3.082v-1.499l2.25-0.844l2.066,2.754l2.064-2.754l2.898,1.087
		c0.719,0.269,1.201,0.965,1.201,1.731V21.828z"/>
</g>
</svg>
