<?xml version="1.0" encoding="utf-8"?>
<!-- Generator: Adobe Illustrator 16.0.0, SVG Export Plug-In . SVG Version: 6.00 Build 0)  -->
<!DOCTYPE svg PUBLIC "-//W3C//DTD SVG 1.1//EN" "http://www.w3.org/Graphics/SVG/1.1/DTD/svg11.dtd" [
	<!ENTITY ns_extend "http://ns.adobe.com/Extensibility/1.0/">
	<!ENTITY ns_ai "http://ns.adobe.com/AdobeIllustrator/10.0/">
	<!ENTITY ns_graphs "http://ns.adobe.com/Graphs/1.0/">
	<!ENTITY ns_vars "http://ns.adobe.com/Variables/1.0/">
	<!ENTITY ns_imrep "http://ns.adobe.com/ImageReplacement/1.0/">
	<!ENTITY ns_sfw "http://ns.adobe.com/SaveForWeb/1.0/">
	<!ENTITY ns_custom "http://ns.adobe.com/GenericCustomNamespace/1.0/">
	<!ENTITY ns_adobe_xpath "http://ns.adobe.com/XPath/1.0/">
]>
<svg version="1.1" id="Layer_1" xmlns:x="&ns_extend;" xmlns:i="&ns_ai;" xmlns:graph="&ns_graphs;"
	 xmlns="http://www.w3.org/2000/svg" xmlns:xlink="http://www.w3.org/1999/xlink" x="0px" y="0px" width="40px" height="40px"
	 viewBox="0 0 40 40" enable-background="new 0 0 40 40" xml:space="preserve">
<switch>
	<foreignObject requiredExtensions="&ns_ai;" x="0" y="0" width="1" height="1">
		<i:pgfRef  xlink:href="#adobe_illustrator_pgf">
		</i:pgfRef>
	</foreignObject>
	<g i:extraneous="self">
		<g>
			<path fill-rule="evenodd" clip-rule="evenodd" fill="#224653" d="M37.74,13.283c-0.16,0.194-0.302,0.405-0.479,0.583
				c-1.426,1.434-2.858,2.859-4.281,4.293c-0.193,0.195-0.368,0.414-0.521,0.643c-1.053,1.586-2.097,3.178-3.154,4.787
				c0.174,0.2,0.358,0.389,0.519,0.598c0.553,0.731,0.67,1.546,0.325,2.385c-0.351,0.851-1.009,1.357-1.938,1.478
				c-0.175,0.023-0.313,0.021-0.353,0.271c-0.2,1.322-0.925,2.021-2.237,2.204c-0.054,0.008-0.108,0.021-0.161,0.033
				c-0.119,1.393-0.97,2.308-2.465,2.457c-0.049,0.766-0.337,1.417-0.956,1.908c-0.839,0.666-2.129,0.688-2.949-0.008
				c-0.509-0.431-0.97-0.917-1.477-1.401c-0.755,0.808-1.663,1.166-2.74,0.792c-1.064-0.37-1.569-1.189-1.642-2.28
				c-1.406-0.108-2.326-0.986-2.458-2.395c-0.4-0.132-0.813-0.214-1.173-0.397c-0.738-0.379-1.147-1.021-1.23-1.846
				c-0.025-0.241-0.111-0.294-0.333-0.319c-0.931-0.099-1.591-0.609-1.95-1.454c-0.354-0.835-0.261-1.664,0.307-2.383
				c0.327-0.415,0.715-0.786,1.102-1.148c0.187-0.176,0.219-0.341,0.168-0.574c-0.153-0.711-0.278-1.428-0.438-2.136
				c-0.035-0.156-0.138-0.316-0.252-0.432c-1.399-1.41-2.808-2.811-4.207-4.22c-0.185-0.186-0.339-0.402-0.507-0.604
				c0-0.116,0-0.23,0-0.346c0.131-0.173,0.245-0.364,0.398-0.517c2.485-2.493,4.975-4.982,7.465-7.471
				c0.513-0.513,0.828-0.513,1.343,0.002c1.437,1.436,2.871,2.875,4.315,4.303c0.128,0.126,0.322,0.23,0.5,0.258
				c1.333,0.205,2.669,0.395,4.007,0.573c0.182,0.023,0.392-0.013,0.565-0.082c0.91-0.36,1.817-0.732,2.715-1.121
				c0.226-0.098,0.446-0.245,0.619-0.417c1.429-1.412,2.845-2.836,4.266-4.256c0.625-0.624,0.884-0.622,1.517,0.012
				c2.439,2.441,4.881,4.881,7.318,7.325c0.168,0.169,0.302,0.373,0.452,0.561C37.74,13.052,37.74,13.167,37.74,13.283z
				 M18.63,32.522c0.028,0.035,0.054,0.073,0.087,0.104c0.366,0.368,0.727,0.744,1.104,1.101c0.443,0.42,1.054,0.422,1.465,0.023
				c0.416-0.407,0.42-1.036-0.004-1.489c-0.213-0.229-0.445-0.438-0.658-0.666c-0.315-0.339-0.336-0.736-0.064-1.021
				c0.279-0.292,0.699-0.276,1.047,0.049c0.227,0.214,0.437,0.445,0.666,0.656c0.446,0.412,1.06,0.414,1.465,0.018
				c0.414-0.405,0.414-1.036-0.006-1.491c-0.205-0.221-0.429-0.423-0.635-0.639c-0.331-0.349-0.36-0.762-0.08-1.048
				c0.29-0.298,0.688-0.278,1.045,0.061c0.217,0.206,0.421,0.428,0.639,0.633c0.466,0.436,1.069,0.445,1.492,0.033
				c0.418-0.411,0.416-1.024-0.012-1.491c-0.166-0.178-0.343-0.345-0.515-0.517c-0.453-0.455-0.521-0.841-0.2-1.168
				c0.313-0.323,0.734-0.259,1.17,0.177c0.164,0.164,0.323,0.331,0.49,0.491c0.47,0.451,1.095,0.473,1.518,0.055
				c0.42-0.415,0.412-1.054-0.043-1.513c-1.694-1.704-3.394-3.401-5.102-5.091c-0.079-0.079-0.274-0.122-0.379-0.083
				c-1.638,0.596-3.103,0.318-4.416-0.822c-0.472-0.41-0.777-0.386-1.229,0.064c-0.5,0.496-0.99,1.002-1.496,1.493
				c-0.947,0.917-2.289,1.03-3.239,0.282c-1.217-0.957-1.298-2.586-0.169-3.728c1.258-1.273,2.529-2.533,3.795-3.797
				c0.456-0.455,0.868-0.965,1.521-1.159c0.008-0.002,0.007-0.037,0.011-0.063c-0.596-0.085-1.188-0.18-1.783-0.249
				c-0.114-0.013-0.274,0.042-0.355,0.124c-2.341,2.33-4.675,4.665-7.008,7.004c-0.072,0.073-0.156,0.199-0.141,0.283
				c0.1,0.587,0.226,1.169,0.34,1.741c0.062,0.008,0.085,0.019,0.105,0.014c1.666-0.367,2.829,0.428,3.139,2.132
				c0.017,0.089,0.165,0.21,0.263,0.222c1.052,0.128,1.86,0.808,2.119,1.816c0.051,0.196,0.07,0.403,0.103,0.6
				c1.49,0.161,2.296,0.985,2.45,2.441C19.691,28.712,20.301,30.517,18.63,32.522z M31.249,18.11
				c-0.051-0.06-0.076-0.098-0.109-0.13c-2.277-2.278-4.558-4.553-6.829-6.836c-0.146-0.147-0.26-0.128-0.421-0.061
				c-1.885,0.781-3.772,1.557-5.657,2.336c-0.104,0.044-0.218,0.092-0.296,0.169c-1.498,1.491-2.992,2.984-4.481,4.483
				c-0.239,0.241-0.345,0.546-0.284,0.889c0.07,0.396,0.297,0.678,0.674,0.812c0.405,0.144,0.778,0.054,1.086-0.247
				c0.544-0.533,1.083-1.072,1.619-1.614c0.511-0.515,1.117-0.758,1.846-0.674c0.544,0.063,0.95,0.378,1.352,0.717
				c0.955,0.802,2.202,0.909,3.246,0.249c0.345-0.219,0.629-0.537,0.938-0.813c0.339-0.305,0.741-0.333,1.024-0.065
				c0.294,0.279,0.282,0.698-0.047,1.044c-0.133,0.141-0.296,0.252-0.429,0.361c1.311,1.309,2.566,2.562,3.84,3.833
				C29.285,21.096,30.26,19.614,31.249,18.11z M28.263,7.27c0.366,0.362,0.751,0.743,1.135,1.126
				c0.736,0.734,1.476,1.464,2.202,2.207c0.317,0.324,0.333,0.705,0.08,0.996c-0.236,0.271-0.623,0.308-0.937,0.08
				c-0.104-0.075-0.193-0.167-0.282-0.256c-0.867-0.866-1.733-1.729-2.596-2.598c-0.2-0.204-0.384-0.426-0.527-0.586
				c-0.693,0.693-1.334,1.333-1.928,1.926c2.245,2.246,4.519,4.519,6.771,6.771c1.258-1.258,2.549-2.545,3.818-3.812
				c-2.267-2.263-4.541-4.537-6.822-6.817C28.899,6.599,28.6,6.915,28.263,7.27z M12.688,9.013
				c-0.064,0.089-0.126,0.203-0.215,0.292c-0.984,0.991-1.972,1.979-2.962,2.964c-0.114,0.113-0.234,0.229-0.373,0.305
				c-0.288,0.157-0.568,0.099-0.792-0.13c-0.222-0.229-0.273-0.51-0.108-0.794c0.079-0.137,0.194-0.258,0.307-0.371
				c0.985-0.991,1.974-1.977,2.961-2.965c0.085-0.085,0.165-0.177,0.219-0.236c-0.322-0.338-0.623-0.653-0.899-0.943
				C8.545,9.411,6.27,11.684,4.033,13.92c1.262,1.261,2.549,2.545,3.795,3.79c2.245-2.245,4.518-4.519,6.781-6.781
				C14.006,10.327,13.378,9.7,12.688,9.013z M10.829,23.341c-0.034-0.577-0.23-0.899-0.626-1.075
				c-0.425-0.19-0.821-0.105-1.149,0.21c-0.492,0.472-0.975,0.952-1.446,1.443c-0.438,0.457-0.44,1.072-0.027,1.491
				c0.404,0.409,1.039,0.409,1.49-0.023c0.483-0.464,0.966-0.931,1.414-1.425C10.666,23.759,10.757,23.475,10.829,23.341z
				 M18.185,30.679c-0.046-0.564-0.236-0.89-0.635-1.063c-0.425-0.185-0.821-0.104-1.15,0.213c-0.491,0.471-0.975,0.951-1.445,1.442
				c-0.432,0.451-0.431,1.084-0.022,1.491c0.408,0.407,1.039,0.405,1.491-0.029c0.484-0.461,0.965-0.929,1.414-1.425
				C18.019,31.106,18.108,30.822,18.185,30.679z M9.729,26.983c0.013,0.572,0.206,0.894,0.597,1.078
				c0.421,0.199,0.82,0.129,1.151-0.187c0.509-0.487,1.009-0.983,1.495-1.493c0.417-0.438,0.399-1.056-0.012-1.461
				c-0.393-0.387-1.018-0.404-1.438-0.007c-0.519,0.492-1.029,0.996-1.514,1.521C9.849,26.611,9.783,26.872,9.729,26.983z
				 M15.718,28.289c-0.009-0.594-0.196-0.92-0.585-1.109c-0.418-0.202-0.82-0.14-1.153,0.176c-0.494,0.469-0.974,0.951-1.449,1.44
				c-0.46,0.475-0.474,1.09-0.052,1.515c0.419,0.419,1.05,0.407,1.516-0.047c0.465-0.449,0.932-0.897,1.366-1.376
				C15.545,28.687,15.648,28.412,15.718,28.289z"/>
			<path fill-rule="evenodd" clip-rule="evenodd" fill="#224653" d="M33.808,13.107c-0.002,0.375-0.308,0.68-0.684,0.679
				c-0.374-0.001-0.682-0.309-0.68-0.682c0-0.373,0.308-0.68,0.684-0.679C33.502,12.426,33.808,12.731,33.808,13.107z"/>
			<path fill-rule="evenodd" clip-rule="evenodd" fill="#224653" d="M6.879,14.607c-0.378,0.004-0.684-0.297-0.687-0.674
				c-0.002-0.371,0.308-0.69,0.674-0.694c0.365-0.004,0.683,0.313,0.687,0.681C7.558,14.296,7.254,14.604,6.879,14.607z"/>
		</g>
	</g>
</switch>
<i:pgf  id="adobe_illustrator_pgf">
	<![CDATA[
	eJzdvWd3KrnSKPx+3mvxH8ARjIHOwdkmOOecDYZts40BE+bMPB/ub79VkjrSEZjnnvXOrPE0anVJ
KpUqqqT51NllbrveqTVyYp5LJn7Nzxd7jeqg01tJkuLkfqs17A96WJS+yCR5Jc9hre197ZXVvGn0
+s1Oe4W8o28r+H167yyTTGfw91Vz0GpASfO9035973x/NweDRj036OTeAXjnu9HL9//6yJjNA7hS
dQBf8AW5IHCCkJRWRCF5dkxqVNt/Vfv95v/ge0XURCzc6Qzb9Wb7Y6fz90pSEfikqMlJRdaSEq/g
+73mRaPvrpRXFU7EmnlOFUSoruYFiYPGeDmvC4qGH5Y678PvRntw1uu8N/r9YqfV6fVXksV/qu3k
cfUD3lSh2va+/Fppthow8O/qIMkLBA/b+7zwujNstuonw+9aA3CiaAIpF18JoOs+QABg+EzK1df9
byi6bAwG0E9oh6DzYnfH3jyUkn/TjxeNjyaZHEDYc8aA3Ot0v6u9L/ha4fW8DAPk8ogMfJYEeGYV
rxrf3RagmaJDJK85UtV6NqrC2Eg1URTxFfynSzL8VXXFrGShqvFXs/GfleRJp91gyNnuDS7pjEkA
l/5lry6GrUbvut0cYIdJmU6xc9ypN1rwhQWi0qoSpJB/eesvq3FV7X00BjDRndZwQEhSM1uBGTiq
/tPAueNZI6fdRvuqc0O6qnBSUhIVmLkkr8L/dZlPCgqBLsH/RNlslLf+MtAIB6EY8FWcszOYxtNe
86PZXjE6qL7u9pp1a25VIanRP2QQec32n278x/oKI4cl0zY6D3RVPLZRCZc/vsRWy+16EZYXTEKf
rAqgjzaQTqvzwd5aP8g7ADHssmGQgleYs7Nes42AE79O6Dvt9aw1hJe7vc6wu9/+3Un8SlPucNN4
Bw4AE1tPntb+wA9Y8YSCk1e96jvAgN9mnXy12c2EAIRx9hpJ+ha+JT/h/7/x/1G+LzV+wxK0ANDS
cvuvRqvTtQE2S6rtevK22utGAX7WqrarvSR5YcI+av4Fb6qAMgu6VRYJLFBNF5BEPiJ1XE0EVLC9
itRUdfCZ3Gk12vW+CZ3+dHWeFkYBefnPd63Tava/TYD2EvM5Yu8GjV77tE272Rv2P5NXnU7LQgSt
wF5Zk9wb0G/+axoxK3s1AC//e4EXq61W86NX7X42373ge7w3G/L5NhIVvROse7XofGU2NvrFf1M7
BhGV601gfj7LOrDO5X+qg/dPYC+1XrXXbISsRZze3812HTp6OWwOGtZ8db67qPYkLz+rXSzGmhVb
TQuu/AoCwi4AcrlQ0aDTdyjeB/+0GiB1Coftzn/a5FdyBXr2CCy5OmwNnjPJwkn1u5FchjqXTVA9
GmYlLnmKfywRyyfvqlhyAX/yqsyBQsflFVA2NJE8gEoooHTkeEVin91t4we88esf/HUAT3+g7D9J
nkseJx+fuWQ9AS8BLGmjDl2hrHs18StZgJ7iAxkWoMI2qHDsnFVbII4bdBhntej9dmtxBAN3/4OY
c6t3Z+/w347VG7PNeJN0BEAdEzM6ZFplTJrgOfqS8n4E9f8Z5QDMXerXAuu0oVSCPYCK9mvBKEC6
wZ/Nd0RPtfcPLeCShX14mUYteBtsiW0iGzNIdVB7u9er/uPzJfLJWqfaqyd5IFVQSN9B/7wcQK8+
kmmkXAZE41UeNF/2v8JFo9o660DX8V0yTbRZqvix+kaPSs0+qNv/HINqzt7w9GtYk9sXrIhq6VRj
t0BfNFpXnQsKlTZz1uk3sffktWB8zJsqfvSPeaszO8DcQH/rG4hgBGIb+6rxPxNZBKMGeu+Oj04A
aT4Ihq/+/m61oUIOOF+vWRsOGn2vmflfATOlVmz13j/B0us1jHkX2Lwbr/HP4J+ugcr0Qrv/+le1
118FajPIzF73r2praFbGF32fim37/Bg1l///hKo2GJJRsNTqvH816pHQZFSdJuGOP8Bakzgm+CiD
BJoBs40uyggDtVefJlFMjhQ+GCnRUNGs1lqNSCsjykz/PyeE+Exh5a/obAHr/ncQPI6T+v7+C9jf
v0qiK/0q6rqov8A6jE6p/xvrBjr039af/w4EfTcG1TrM2BQ6o0/cmdk6U3kjLQBb7WXPxS0qhtrZ
rdYNCcgZ2t93tW9TT2lZv9sZuOtVW01jKanGYq93m3lWJrGi906rZ/Vtez+5PRx0khfVPli+zf9p
uKGCkcAnjQEkv9ogpDvDQfKD2sRBdZv9DvqykzV0XBHHo7u2nuyCBdxL9pvfwxaxqVzkglWqhg3w
jh5oFzPDCmCOtfvdKszv+z/Qr2Y92bfGIQuSoPlCSwrQu2Hkuh+9hklEoZV7pi6jyLIo+1fl7X0I
rWvvQ2hlqw8kLGNWNSw2Gri5tNDFO6byrNfoN3p/NZJXjb8HxClSrTVbzcE/5lTmZI4bMbhsHlB0
r7+CuVPFH5VWp9O7qbab/U8gB/KBYcBJIjHgRF7xMOBG4DU/Pgfo+W0UG61W+e+BtbQMy87/k5tm
v0kHcTmoDiwLUudJ7ETysiD9oV11uo5xUDCaFBPMTmcActcBSWEmrR4ZkidmVV2Ogdmjxu+4iLWM
6/12vfH3ZeO9067H/KjS7PXDGiLEEzCDft+ZQ5rGxJvAJpp3E8rotKsqH2PaEZDnrNuXMZf8TSNV
wGi7xoLu/NXoddG70w/54r3V7AI7QX3pb2AnH8CjzU84zmQojm96RJbk/iJRpmStCkN9N0Xn43Gj
3hx+J62Y4POob4dwH9OtREJiyYoJn7ClQdJmQPEyZ0hQ5IPHjf6nKdGIXLE1xz4ROccnp8NBF8Ra
yEe2AY/076ja/hhinO2s0zVFY5o4gDj8h3qByKNNa7i82SXh4Z3O33f3xkdcnqOfGA+uDzC06fiA
xvlttb629yvDVsvoItsQAG8N6WUO3pOVnHar7xabR8dsGClevldbxmxIciDwSvW9sd3+aIWtXAxA
h0LEJeAGKGvBo3MwNsm/MqIZsFlq9gc2Cg6Ajp1xApc1VQpiaLs2aS4KqqIGVd6x1ITQuhem5Pef
alLROdWCIvB+HcbR2fsra7rGB9TdcWo1ATWjdBbrOfsaMq7fv/sNkx/60g8KumJnaM6Y6AsVa9o0
pXgsH0WO4d41UO0/1j0Mznfaew2kVpfG6657ZRkuQURBCN8+e3alXbEx72p70EyCKVHthyxPAtE2
x5yPBAFrodVsN5L9Qa/z1ehHrD0AjdPgbpIPG2R804GmsMq3zfrg00N99hydRZerOFXvnV69Ufew
4ZKFk87A+d5YGNB0+bvWqFPBkhl5Wem0B0eddy/j5wg+MXz6+6Vg+WkTnEISbLogYemceTQAccq3
ccotK82uDxCIRVQEikwRuHAqAu66p2wSL32n3FHtyppr1TJnaB2KtwLdsZLccegSvKvuqVupCUcW
nyyfXcbAFtYOQxeFGRFftHI4wpz1fDBGK0VEGYMYoAjqyXbH0hSTzTZRBDFSZUbvQlaBheuC5e4r
/OnU8l3QlMBu/3B3bKQeNl1ttUKq9b+a3RoM9MvFtNz1eg0YTr+BXeyFVAUbumXZCelRJdX9gWF9
xxmW8Y3NP8osb8T4QaeGmwmSiOWIGHcE9wM6jKNrEEh2Ndqjt/1BK1+nIEmnTbyFYAS/Yx/YvGFR
PurWv3GbYTt6v7r16OCpi9v6xGv6u90eqxfQAazEOmDIE2BDTKK7K/7HJnZU3bfap12UcX61mrid
L98ChShazUGnG95DWrVnaz+gn7RyjZivBuqB7oA11ZO1f5KlHojRXvBcIJi2g82ONvXuRp1/rXDM
UWAdu1oYAM5db2T6STXiegzhI/VGv/nRtgt4IYgp1HBrUBhMUrPzuzliQ3nzmX6tOfiudqOzMufE
jI691cvjGg2p8t5pAxkM0FcdNCCsakoZYOLvBhNXBc/qvXoe9GPc5u1hmbtr/gYx/Nnp/Y9hX/hU
67L9F4GEQRr+yAcTI6tkhPV4zrdaH01mE1poxb9CRtp/77be/wlgWLTSe3vE1eauNGi2HO56n1HC
lLWq3QjoYBWDBtD9+P7KN9oYcQpkzFitj9uhotEyqU85uW2xRPkIVsEAUySMzuQF2ZMZYl2QAqiV
uRiVd+dhgOEjfO91umF1UIFqgnIQVq9n27EW2i6GDWrVXj9oSq1hAI8Ml0KO2gP7uMIq22WR4lud
5FW4ehKhtk0mhle298RrZf1uD/L1VghHpJW6vd+ddiA7xHr9Yc1cpaLXbPVhuH81WkET2s/Xmqgm
BtdpNz6qtu14PrVQ7wfLqB9CQ1gR5FI7BFqLR3hVy+XiTQz9fP+zCnp6IwhbWKsxQP9BG/pnzZEn
PFc11Usa/N3NOz3WIufVLlTr9dzuYeKG9qr6MVLVpyITmTbvhxe9WRWpUyWkKojA4FbR51N1GrQ+
NTvd9yCOQ2r0g6af1KgPgw30AOYM34coJ2CA9SOIElLt97D9HkQztBLzDph0EyI/yEfVdtuM0Htb
waRaqJXx/m3XtNLFDpik9WTldPdiW9STT+n9y9MkLyiSmhNWBI6TnjIhdt836IR2zdFLGYVKaLg5
4klelYxw0vv3P0GGt61mZ/AZanhTZdVrxYRJDIdBEoGvO+p72ngO8MN+o9R538Gf3vb6tvGl3WK3
e3FkK2h01vy70Tpr9H433gd29mGEpKhLa7dXraOqS5KiaFgrMJBFvzpCHxGmneBXJHY/8pWzLeoL
it0Y/SxCayYOLm92sQZNfnF7nOAl7kU5bPTclhJzlNp83XaId6ZpYwd19vHbs3WaYemiQXhTuiqN
tlpuw0KyuKJkvSGb8u3Od+vVWa/x3uw7HLoGBVxW/2ocD1uDZrfV2Hb5fsxqI8GDdnVkq81Inc/O
f/aadbcoYIi7BH2CpiZ6oIRkpaAXqN+t2h2FgX3ebrUuG+hBsrvIR7xRttQNV9YAUg9NJ0B6MF4m
fhXwhb0IvVzbl8X9fU0uNZCrEcjZDflNzW7e1ApcIXucy25+DkR8EqS18xXRfHFuPpEXq+Lm1WCn
9Fvf/dqbvVivln5z9xvmWyG7fqF8pjLi3noqV1i8gGZS2Y2vtVTm5EFPLX824d3b73wqO1y5TC0f
35VSOe5Y4Arr92nSvpwqZs6lvtA/ht6VvqTN07cNcUcTNeVB+X5Yy71VOuqtyNWtt9zea6MIzfR6
G+u17eXuycHWod7f0PbWbvOVzoN0U+49PXClh8r9VWV9e/2dX9pW26wZcS7e4BBpdHy9npRavnnZ
T+W0nJbKvucvcVwalpVTy691OZVpfrVSmcFOEweXsQ9OWr7gCtLlhdk0HTobzdt8C5rBql02I+v3
EkXtTqd/Qp/Yl0d96EcJWrj7Ut1VsJ+9p+qjlBePtGF2Yze1YOE1X+hru9CMMLx/q0HJbourL9yX
7HBX+3e950zpGLvq6CCgGz7OPkgzwsoSfMYTbJ7aWn2+VkpWq9CMq2H5XPzq+bX61g==
	]]>
	<![CDATA[
	e/4ZXPu0WqwpF9Wc4NUqkkBfu+X9hrsn6fPbX96trs0s9BfnOl2vVnvDt/xcujZ38URaZXNja5ir
cJtrPq0qs3Pa6m/du1Xp/omrXO2ce7UKzfRnKt2V+dPm8YXXcLnd2c6Rb6uLB0fSsR+Gr3tP78IB
toopUqNInrkV5+XBInwpdUamdmVug7V6trjomlfpSt1tkVZhkdXKVqtkea72n3vPNzVC+5nRVlde
5ev6R8Gz1Zfc1Ylvq2rh9+UiaRWacTUMUwtrtb+S7Xu3eqa+SHefR8terfYXN+55r1ahGWhY/sws
7jR2vYaLU3vPVXTuxLPVmcqHOnfxLZx6tcpVnp8rpFXCod3DVWbnv9rHRb9Wq9zu8tuNd6u73PZi
I63eu1o1eFpvMLu8yYZ7n0u7Fs/mibT+RFstP31VHK0+rHFHao7HVpdGWt1rdMiShWagYbXrHu7R
40PVp1VlVv2qV178Wi1xx0vPuqtVbIY2vP+zsvWnd3Lh2erl6qLo2+ph41LkfFp9zHGXr5kZbMZz
uId7jZPHh0zas9WbxfaHb6uXn+eMFVutkmZYw7vczWF3zbvVI3H+urK1tu7davdgxrfVm9fdmQHV
BTyHe8rdbh6WvFs93ii/vpw/P3u2+nz6te9qlTbDGv5zL9crPq0+adxzv5XzbvXkT/f7VNdEz1Zf
93PIoX2H25u/zKZ8Wr2/5srN7wPPVrWT3Exq6zlXhlZXfkirKNYsDjV8VV9ZqzUx41o8mYej6hJp
VVjcSO85x3rEvS2tbGOryyOS5/XPDzSzwB+8XkHD6z03X+x3FtZZq4PNrGusKRD+Gdrqzj2/72SK
y73+9UYKW82TVnE0dg61nzOGWxy4Ws2u7s0otNVN/jDnaFX+XO5KJ2+kVXFupXjobHWOCIJqrY0N
c+7h9rYbHYOMD1Jubiz/Wdlhra6c510Ynuk03q6ovGtUXxW3yiHvXS+8dFasCq639+f8943f20/U
yYZebw1BAIy4tODzOczDQrY4z97+aaiut4rGvxo9739p7rftz5k7Y3l6VVDP9leefN9qwtLFm//b
z+rLovXWjTRldltYeHj3/fwo294U/N/WTn+ver2lSFNmT2fea3s+n2t7C3tr13369vfij+4Cfp1t
rv5hb/mZFffb2sFl20SaR4WbUtbQPz3e3s7XCin/t0+llXXr7SjS3uZf1Dnfz/8Mzrp7vm+/boSd
c6+3BtK+vyobL36fw4DPV2XftweCtHHn+/a9Xbs8CkDaQmph/2nJ9215+7jW8H17IGzO8AFI204J
c5kVn8/lPa68vmSMeiW96nqbvTrvb7K3xfzayPLcu3rbXdr2qkAW79LcpqEqe73dfNg6tb8F481m
PBZzS0Wi2Sw+Fi37zW68VV7lAONNGMyheVxM5Q70ezCP/1zhnzyWVVLLpYsi/rkFtqfPEVWdGYyU
2bAGqxc7BhPtzQiL62c5Jhz4ebvA2JgVcbEffFNjCIw326oqHGvtRbA074aEQ4M9BG3+XjMbnC00
12sZ4HMzZbSHcg7WbW81uyZ8nPu0qszOXndbjw5dwGoYJfCDb6sgkv7wvq1yld8nl16tGusGRei7
13Cx1bq9VelyztaqdrJzaWu1vrAwa7Xan/1sXNh1AdGF5I2fue9Ho9XdlqPVzL1vq4DhdcGrVUNV
J6aFOVzRhWQ0LV58Wr1/9h/rTKUvOXUB53CJaeHbKpoWn96trqXyXq1Sa400fLToi2Sip/i2ikrK
lWNeG7rRPnkySACUsOJD/Tu4Kq33Mvxuh9ZTZn9eynenDmbjU1X+ZNTHWMcOjPppO2tzYFkr+C39
7XQNgTSoDHuEzwBiLrcMDm19WWjOrixbfza66foVcwkQ9xbgdaObWevavE0IYEPfm/tDOrGh7z6W
gINVy9i0aBqFti5slOfZn+XjDmuBKNdGC1Z3YHDrXVrF4VkjDHCn8NkozZt/LlyGB3ORnZr1S9jM
rn3AbwebRqevz+DnApp7wyUDQdQicHn2zqklvWBDowv73IE8P0/+IGXehvXpS9/36hM0w7r1OlwE
Cj5eFhY3uX3LveNybhLEC8/DnUML8d5Yxz+s71KHeaDcg0RfQSrCCMmf0Dm8RBM3fBpnzREu+Y4Q
deJr3zkkBnu0acQ57LgINRRfDBRROUah8Us7fyph0KLQ/GrO0gUmpq/dp59g1COziYp90JgexlxB
Li4A+BJ2HvSDMfHl5EIZiwsZugD06KXsnF9x3BkpP+337DgEeKbB7qDgBcKIfND3UjYx7NOd5fIy
/cPQZzqIR4n3PudcnnYm7r08ifPPc3D37uVpzkicwYmbN1fHwbgmc7N7uIA9v/DpTCkbZVyNs/wC
I4ERmi/TZm46Ew8JrcU7WyfMxehiNm+ZBejgXclnqpa7fHVucS+MDn0QQ5phuOF8cVP47GTXDQoy
CZp4j7zRzLtAWT6baNCcC3BpVA2oVrxWH3VCxl2A1Zm7YeBszvLL1/wy/nk0RsNiFSPkAWwyXT70
nVVjSvEPTKnl/R4lkGoFm3GxRDu003OzW7a+wWgGu54d29it9b2GiQQNFba4xuC6MKKdBUxLdnRa
6ru+Qo+sGx9G5E3aX1rfV0nwVSUt6emYZNBxHgeBkso9yX4zvIs42XMpty5JFVmpqu86ubZbTJFm
gIItWRzQrcHmgU+fTi9Yd3z65PBy0G7563rm9EWaQ33ObRGMaBvBFoFjDtvBih6dQ7TWokzj7tn3
JBRhF9II7bI9LfpySBfG0yaAdh9s5MREWojCFxNpr72pIc3O3cZBWtextUHtjVi3gw03P3KItTia
814ca/HCj6ft3H2moho+3stzsDkzveW5c/czF8GcZhbBRdYWGPZA0CZ/eBQVQV7dwS0jO/czCxMi
aKNvSmp/Dm0pGt5K4144ewjpCWkGOhPdCvTvSQA/YHMTBS1OrTNeT5jKsRfOAFzGY9ZHjn7soc/7
0UUvNmvNy36k0VHLPX5hgRSe+7W8zQ8OT/tI+OVgZ4q7Bbp5YQR9oCJGcX/Y2AiuEmMDjHNC94k6
EsNq9u/TbKhfIDIreB7Mh7hk7JQWzAr247AC9widfgEY5GJ8xHtj3aE9eMsbF/H6afp/9jGseBth
hDiasGksDfjyc383uudj1HQ3jEJYBZ/i1PA1stK9vRyR8OWx2H0pghK0A1/OxS7O6V8F52I/cC92
TzPO4Yvyc6YA8c5M6nQ4sBy5toiHs0eRbY7vA6dy7+9Mcfhy/Qa3OMngmCA4wI0Sx6FWc5AjZJM/
GDolteiSnqG+ENJpIIYfYcwh2Qn6YETQjuEk+j7AGPO9CzFeYi0UN2HeQRdTALPfR+tEBCkREGRj
Cg6XhFPN3hqy/Wl2TRuIIYr/MVzNPrTUbN91EwF9K+fzwd2x5KLp6/QTjeLmtboYThYhcpGtm0O3
aBxrcBnfweHcRONQhyPmdAxytxF099AtC8caUsopA/29g4GsYPN6Xo7PCpzbrhluXt0u/rHUXMCO
KfmCCTqamovxrkX7jhAcF5Rl3EbhuAuwCN3JR3GVm0ah98DvLt2hzPHEH1XVAdq0vLQIanQJxubQ
uHgihDhc9OraEm9Mnq8YjEr4BIplaZpbRsYE5LEUvaAw5TYA0ARxDgsK+gViy0JfaM4oo7/KESnO
gXkMy2mnJloku2l9V5ARXo3oJyuSXbLxxY+37YnQhHzMSKEvNv80lojPxgehPkHzQO7W/8qMcLf+
V9ZmRk2kXhQBN1s/YXMTrubdXU/C3dzOe4A2Ne52bXG3CRQodGhH5W7BXAAmbwrcjZKA05U2LqBg
7mZxgXBAU4jiEkABEaXlnbQZCCp4riDnpLnsbBqTtoWVbBFIb92F7SMz9jqCRTTiVccyZyh3/B1d
GFKPxI9QYyOqurc2W4QVfxrMJiNzXKS08tNNamKd3+jY/UxAFDeiYXl3M6bF7ZobnDzXnqlx2ANC
cWj9DidkPECBuypcUHw3wBBAo5b3ON1ZST8EB4sD9XU3tCC/l+f+tCD5CCPMuuUjlOWCV5BhFEaR
j9WZC889B/GMwrvb6Wj/FJRTOPpTWhT5eBvVAKcc2pdQnn7ia/8jvA9mzmhmYkDBwjGiWCOAImr/
gWKNAJpY+0coXsLR8gvEk49PP0HrcUQ4MkdXoHx8HY06Y1mcjYZkbnzl40o64i4va2uH9/jpNrjX
XsC02LHpox/Y19Kd1yJ3WdLR1/ldLCWYzY3vOr+LtM5DmbiBtEiLPdwAhdnMey13321wPtoOoPSm
EI0sIjiISbcikoX3InOKKbINrpjPjUiqYt6/07HMOGHnrj4M2KUaZWucs2P+EQRiFMZYZ2RjyxS3
9iK08PBPlNgPgoJmxLnVw6Mp0HIxr0bzQ/sFFpwT+hrFDqCg/C3p+8Cdvg6yiNQnwR1hj7nJlq5g
S8BtyMdtT8PD4gIkda//kcq1z1/pkS+5bfEFk/jKUdP5zCn1zOUjQnoa6XzBuXzQzHTS+UZadeTy
MdY5eTpfcC4fjmYq6Xx0zfnl8hmGx8TpfMG5fAmWujhxOp9nq2YuX8IrdXGcdL7gXL6EccrIpOl8
wbl8CSsLb7J0vuBcPsLTppHO5+ZWzg3YPnHP+Ol8o7LNvvuZOlP8kpHOFithdrbdqvPPRCLNBG+i
cXQroE9Bm7Mo6wSlMVLeVqUfuKPK3yE1EpAsuXXjUFT5KcaPJUv8m7sfxkSVyyE1uqee4smitIAU
tyUH3XrsY1uvpYMz0mikEFMC/zRupkNVXru8RuybiMSwmos1Qnv8ZjTtzuno8kN8eJ8K7sDKOIhn
fQp1dAV1yzd/z4ARnrxHKS2cbsvundyx/YTUYF8eRN1iEry/xNfXPOIgjuBuLsffX5LwyF69z81O
nHbnteFyvLS7OPtLfM0oTLubwLNlJsoVgiyCGLjx319is1KcBO1jqJR9E8Ui2jxd17aEN3406FMT
fsLIPSKHrlbiG8feU1oTPfdpmk7IWHmv1Zljdw5ksKONkoCfDwDwFRAYj+BoMxyNppDe+NK6Lo8K
fH49pXScBD0Q0E8dC8tHcyWj+epituSLyDmFwzAJFSensBacfzPr8HH558jNBO28j3BqhqNPn7N+
fdqyZ3pFyqoK2XkfZ1tCfdfp9fTQEyPPYc/yevprnTGghZkgZXoGcTRoYSk6QR1zhVcRWpgdEn2Y
lk92GkgLTlyNi7Sw0xrCkOZK39m5u88591Ht+abvRFVzzawI9BZHXPaecj84by9hHpgRAuNrJqQT
b8ILj3/evBa5fa/63tTswY89pzvY83Qe0x70hRHGKEYAuJnNx17wUS726Y6RsjeSsRI+S69cVIvI
lwtgsl1Ub4QfSr2MPF/b0x8jYem6XjEdL4sAhhS64h1eg4AUghVyYPKFE2mYBxXHFPXPNXKhPpCg
Q1KgghP1HAwoYZ6o7JVd1x/4yvhYeto+Gc2U1v6ffdfa99TToqEqoi/IpYSP7ofGDA==
	]]>
	<![CDATA[
	tsJ06MCyG82dkBG75dEnIUKf7BuVg1LhYnlvgpP9pCmhKjwXN6hbTu9NftR7833g673xozQf783B
mN4bF7PhD+em470R51byC5G8HBG8NwdT2ZwEMNJTyF/cPfsOiLBHz4cL997QbXBh+XATe29I6Fv/
kaaBm4DsoMRIRn7QJhpMGHSuvYgbVUwh7UqN3bwacE5F+jAsNTZIkU7YD8wQN6+zsxNSRPfQy/3j
2gAT0aoBoRMpmdV0/wQJaRjcSnriwRFN2M4FxiBUTGPz90VZQ8JmwlL8Jj72rHtItvPE2KPrN1Wp
4A2B0bYoIm4mSWZ1mFGHgZ7T0Dw/917AM1tA1iJoLA4PXYyZmTdi30TYST5GZp5/NGqqmXmkmUnz
Y8Mz86LmeEyYmWfleDiS88bOXfHJzPPaOxgOKPbe3FFVnabTTTkzLwLrnEZmnqUOjp8nEiEzLxH5
zJSJMvO85uZPY2namXkJ52H0RvrSxHEhllA3hcR/lHdRo0u20LefmxOhTbr10iYIbjqRtl6GJZ6J
Xgj3CHoFqQbF0T0X46XKE0DLk6rURdcGCVf+TUxA00kow+0RvtZ1rPNViZ6GeX7+DrS4W6xRIVty
LUamp4VMRsT1eONrZyech2eFJlSNGe31ckIitGlthb7vksU4oaqOCI9iUIap6sWpHHXMUhdLIflg
UZYRQPFfRo7d3eGAomz6Dzudpxh83nGszeau844NR1ccaE6HdmZ51OWFKXAOs9sRLI61Uws9hpFx
GMjTYh+cHJgkW5159cxsHSNJtjpT83QsjOyBCjZtbqeUJPv0M40kWYQylSRZzFubSpIsApo8SRah
jCTJ+h10HZ5GdjtihTu2QBDWGbqFybkecx7r8S7YDRZja+8kSXmeYm36SXn+czPVpLyEdeZ9FAN/
3KQ8H6RNOykvqu05YVJe4lfkbk2SlDe6yWLMpLxgjdEWJsLsK//gTLzT74uuPRcjgZX4KX6edpMr
4kM2XIYGfRBapHPG/PYdOrzqCG0il6YdaY7zkwOiUeGRCZJLF+WEuFkj7ukjLmr9oBhQdFlBDQ/S
rSffM3yibHe1u4s+6T16yz47U9g8kBtEN04/d1s31dfSbH1YruhzWy+Vq42z8lZhsFisXG2q9+Qe
+NJDube1vadcHRR38u/F4k7hEK9duOwawmm+NeK5ZS4qZ1JYQALcWurR/zI77XzlzOWEdKbdrb6f
Htv91rZW5c+l+bVUxy/t7i4o2a8/U6kX7AvFlXZ3teOf7Ic3kVf9Wn0LTvbbzem2Vt0XvK1k+2ar
7rQ7vJ3bvPDRnoeWoPcUpoPS7vi8b6vZtdVvv2Q/ZXb2Rxk++Sf73T8GJcB9ByX7da6uvFpNGPcU
HjU+637Jfo2gxMbzO/9WyyePu3ZrzY3kuba4+urX6vkIQcG6Ze2TJ0buK14k4F11NRJI6ekouB5p
hqVfntGqTJgeKR5aqrGCK8OWW8AGnQa3Zd/aG/Geg2x7ZHP+2UIneB8IyyOIksgT6bx6m4Ml8E6v
n+BuRe6T8+T68B1dsa/X81KMmfSc5vV6XhKSxaRDzpePiirfnZgx99mUIty24lA9g+/CG/NmPS9Q
hECdms24xBB60QrRbEYH6dmtkNsVgvpk1wVKcTdtBvTJ5XCeZN3sNkIuY7L21TqSL6aT2OfVxZFQ
xOSJfV5ZfU5VfSqJfV7+MUMXmGJin1dWny3oNa3EvoC45zQT+3xZ53QT+yZzd0dO7POyTbwIesLE
PofiwLL6XFxgGol9Xll9nsxmssQ+L+va3KI4vcQ+r6w+K4o7tcQ+pjE6svrMrb3TS+zzyuqz+Wym
ldjnNcPU3T3VxD6f8Oq0E/u8+mS4hqaY2Oc1h/atVlNK7PPK6gtRoMZJ7PMClfgVE1p4Yl/UYPGE
iX1uUEj4U0NasLIYF2kREvtiIG2SxD6vrD4WwptmYp9XVl/C+wLBSRL7vAB4ZKxMmthnQ4wZbPHN
WBk/sc9Lr078cp+oNnFin1dWn2s7zzQS+7xmyYp4TC2xzz5gI6svou3pi5GI+T8BgfxxE/u8hpRw
n+AfK7HP2acAGzERkCTrtBE9Yrd/9qOeORVmRu2HXeMZLSMMkfbc/wlb9vYpCLvFz0flmPYtftHv
igi9xS9q8twgu+jaczsuqkqDYG3D4xCggOvtnKkRcftkWgRRLvCLmm86elfvyAb/yKgK1Qrcx7QF
dMt/e0a8PpF1E+w09eKfTpNpkz/ou5zs4pzedesCo3uborjN4lz+F8ChD6Z2/vn3wQjSxt71GHj5
X3Qvx0SX/1nrJuj+v8ipUn6X/8XcDz3u5X8J1zEG3vf/xfPTeVz+5+VMiba7Jdblf6b0DLz/zx1+
Cr/8L/LZdt3DiV154uY1P++SN2NvczyMkNxk7YEK0ci7h5Ns/zcIGsa3npk4p893e2Oc3d0kp2+8
vKaEK610fuKs3EOvbSEj0jMSbnBzY9gKdmxS89twiQiKlIQTLaWJUtrsojurCY+CDd7VGylgtHv2
PWLfjJmoFrIBPc5WK4AWae9ztK1WAC3KJvLgPe2EC04nETPuFZwWpbkBTZzoS6AwGRjAOiMC8t+h
Fe8OyWncw5kw7pCcarbvpXsfBpGeUDyt4w0RlIfeZ4Ui4iW8QH+jMDbXBRu+uwOvImLTbmx6qBU2
R1dmadTyx7zA8Q8vGEnBmkJijPtYZ6+zHyJnUQC0o+CEjDiXO8K7swgB57CbDU3lPjFZImbUFIpE
8E1LCGjSC4YRSmIaxxjQO/aCNHzblvhwQM71GOemPrfhQRZKQBZF7BSKrEECzvV4M5316Lr3z+Ug
jpeoFv3eP6MZ//U4lXv/WMTD/+q/OOvR/96/OKr6BPf+uWzP0av/xlpGI/f+JSa4QDCGxe2nqptX
/wU4PGPc+5egVyD5n4geAs2duOFz71/odp6I2b63wVunIvO0p59JlB83pQG0aWX7Pv2MXHsw5oV0
ke+XD/AOYr7j8RSS5gFKfgo7ugigECPL9A6GAprIvjJZ58iunbGz7+ktgoE7IeNn36+kl0fW40ra
nTHttXcw0nq8i5VI5e22c2amvfiqmZETqUyXKozU/7q0WAErBOX2/IwiLeoZ7ggtyvIM8HU6kdaO
cPxdNNvzLmouVVAi1WvPV/LSZuLl3d7FT6RKkKxvf6XR4+hHkq8VU2N07CB2JspNvpXPwCa5C296
ebf3vhEfS0+Lnnd7H/9ULX+vOkKbxmWY5gWCU8q7LeYLvgEgK10hPO92ZGuHL1mM9Gl0Ow/p1hQu
w2TuIpyJI5WMxgsPhk6IuXd761elL764Uzi4Lc02Di5Lm9nLq/XOW1aBp90zmmd491SpC4sbMyUq
iIg72IE044cjJfBk88LeqiMzrz97c39m92w5r6ZbKT7euzLzErbcKP+UwN7wbYX3bZWrcEt+WYjK
7Jx6kXl2mLjOvLEn//THmUpX9G91d/bh2tUqFQTG1XT7tfyH39V0mYAcuTPZPzOvv6gu9Oy7u0VX
0mUmvfnY8smRywRew1d1ZyHSzbAmkg/XznxaVWbnpZPSm19m3mtAq7tzinPduO//O5998GlV23Ok
erpbvXC1yvZymGR8eOPfarl8XXFO7Ry+XTafWErocGm94KrHkDZaVSxyEUByb0sr2xHqIdJWOoOy
JThh4PeSex+EGe/xEKbFAPvKfrBZxA2agFc54wwnlaLuzkxEuNZtPTi/asSZ4pF/xCyCUsyNW/59
KnpunEvYDpqJml/Vj79/3UezGfEDR9u45ZmqhaI+6obLEFRdhmxwS0RPj4uwcStyelzIZtAoVGWA
skfNwnYQhyUARtwDZhoeAd0a2QYWv0+kGcwBjLMNLKhP3s7lcdZNJ2APGOuO1wUbLtZVftpYcrKu
8sS+acPEBeD7EeKOIfltvrzaUm6jxgLvcyFbbLxsZD9mMwW39EvZMgLG96fFOvQuwJ9Wnkb8+6VM
PNJO1jlWCmk3wum6NFgcgptxrRpPgi5FNJ2jbEVxR2oT7Ga/qRx0XZmmJV2txPch+8YIMPcvQP+K
5TCoVjxiBHHPS3K6X6SfkZMhvrSe20E8dp4djOsu8Ji28JMsHHmJYfqc5wx7boCp74Zm30fNptJT
ttTFKEcx+OfZBR33GkVVd3TLP0kgQlKiw6UKWP2am1JuqTM0ScNEY+clhl8ARkElbNfsBEELvgY6
tGMJK0kWoY3eBD3uMEfjnhNBC8smioW0kAhoTKSFREBjDfNIevJH2kgWs6/FG+uiQbu8GSMlMWo+
onN5xk5JHO2Edz6iU1WPnZIYEMWO6IeOlJIYNR/RNApjw4h10aD3VqvIKYlR8xGNdeMrarzlQtyL
Bj2lZ/SUxKj5iFEs6YCUxKj5iGEhvOCUxC3andFxuS8rZDshHSkP/8JlheEEHZI8Fu2ywkTYgRnT
uayQMZv9f/myQtdm2H/rskIfS3ralxXGctuNf1lhwn0a3L9zWaFTrP1rlxV6K1BRUaUE6NWkOxFO
tYp34WHMU63GvfDQzq1Gbzv02pky1oWHwVskTQ496YWHgYNLT2EP1MGUTrWKdOFh+KlWU7nwMPi2
w0SMfM8J0jDcG5XHvvDQS5u3bju0xwgmuvDQhj6P2w4T4ySUxd8T6eeBin3hYfBth4mJ7/dkFx5O
6OuMeuFhcAIgbWYKFx4GpwlE3AwbfuFh5HzPyS48dCyLkYwdb4Ie48JDK4nQS/IF6mlxLjwMnk1P
+2acCw/9dlLR2w6jxAgiXXgYLP4ib7sOu/Awxj2FE2fk+952mPDIWxvrwsNgKB47usa78NALisXJ
g4NeMS48jMA6p3HhYXB2DHPeT37hYfAuBTuzQWhjX3g4gk3HbYfBc2ML9YRdeBh826HLWou5xfs6
ql6fCEuPm06+qSE9p5Zy4X3bYXwu4HPhYbBqMGJGjXvhoQeU5VASiH/hYTCUwFSSOBceBt92GBQp
jJdy0Qi67ZDytClceBh826Fh30x84WHc9Lip5X/bbzuMzNPCLjycUFWPeuFhpHsKJ7/wMPi2w+gm
bsiFhzHvKRz3wkMnFPdxhT6JMfEvPPRyvsU7BCjShYfBZjdpZhoXHgbfdhhm4kZP1Q+87TBhu+h5
ogsP4x03NfaFh67kSFdILDFmLu7IhYfj5uLGvPAwAAo/cz/xji7jwkMfPzjbqGNsgJn4wsNIp8RP
fuFhsBvMyWwmuPDQK43NMsa8xNpYFx4GW/dso/LkFx4GW/cjy3PcCw+9kBZ1w2WMCw+j2p4TXngY
bYvixBcejmiMjtsOrWYmvPDQnFzP2w5tG2Amu/AwOEnXiuJOeOFhcMTHjrSJLjx0dsztzxxfs3Fd
eBgcmUiEHGkU+cLD4NsOE/SsockvPDT65J2kyyLs8U92KXjIigdfWUH3QJ1eRzmZdWP3c+R0SFLm
Hws19vsnRu+Q9MijdFEVRYvl8tpY79oYMFPlWFtpl1h7y3cs3HCF04ZizvSJw2A96g==
	]]>
	<![CDATA[
	93pC/zMFYuYglX08meMKd18qrYJZXam54439PJdupwrvj11J7H0e4Nbejdazfn69lM59ZxZ3fna4
vY+T7dmf4Y6SeqrWRXh625rTVoflhePTnwv55+v+UZXz0rt2XLnLH+Z7KfloV3rbufi63qxfHiu3
n1eNE/nnJt34PXe7nZFKf2auLtAP/bXSWrvrNDbT7Z9X9We+t9VWTlK3J5uLc2J6V5n//bi/nxl+
zj5KnafGCplfkmq6cX11eZPKZ1+2UsLHz012TVzc4io7hztc5ff7AberLFz0em96utfXbnHd9Gdf
lFpfrj2emXmJV9n1Qu42Lx7pM0YC3p9Cr//UwRv49FnvALIj33X14ehV334/7yLLvOxac4PXbQ7f
+Pml7a2jAy98EYzAgAcLvZ44lwoc62e6utg4m715uNqYa/cKODcLgvQxnG3VU3VMbz0w0lVTw+Wu
dIIb4o7bJEMytV25uprn5hp1KDvrOLX5rmsZweDOipY71vBDU+lpuwAUWJwXMjaU+eKw9FBp3JH7
RYvPuxd3ykmxPrNVGKwdbBX69dWKPvt1Vr7dEl8Ac+2N3dbN3RM0s72npGoA6ObHgEuvGE3z2S8V
cyvvX7ZWj1I9Mq7t785Rf/vw9vY1W76528MnGPBZK4+pxMvU9t+Q73vEtOIKgzRubngdmJZ0Qc4v
Gk98mvicAS1qG36qSyQdGXjPfhd+ri+TnyDWHnvws5g3PqsUKmXhWAO4e1y2tDw/rKT39vf55cXP
V2jG6Ophxv5OH1TNF1n7i6Psu/kiZ3/xojbMFwX7i27xw94Mb3u3u/ODmQ0nS/ay63TNqHyybH/x
IdXNF3ly9SO/N7fFoYSY4/dyFZHqAic8tSAKu9cCYgSwVB3oxWa1wHMFoBjMwVxmODzbzxlLYLjE
ONPZUZ5UIdvv4ecFJzz3azz8qePPO4GGiWaXxM0rIFtsXcjM5TNsBu/3yTxAM0V+lbV6f5onzYg7
mqitNl4yv4ufSuV0p6XNajZjxLzN0nBCjgh66wrd+4tCfJBe8Ix1AyCvOQukcr2+Uty+Xlh9K36q
h93tq+32LYoEXdh5XHqpvGYeD4XM+13TmJEr0aJv0Jy7O2zotaNlsgRw3cC7KlBw/huKL+gCQE9J
hj5VZ25y5AkQf7lEn3YexD0UOvfC83BtnzyJc/r3AAB8yFglx1bf1zWosjO7fIKcq64tkncAfDtN
n6pzxXXWo6+qYC7KGrRwvWm8+JCMhfIgm6OpiZvXFdzo9wYvlIdcqVBdw7lZ+WgvXlfWytKfkQTi
3btzZuLSPwuOgIJwtGanyMFjAbuINLe9RJ/KTwdZ8pQgB2aYPR98iKQYlLBs2dUj5eF7r1X6Pd+/
2lrbvJO2D+84EAnyswyL4TxNqFRcaM4vlN+/fnSn0KfJF5anFxBql9TVHy1IUg8WUpm1EymVKyze
oMwupeZK2hqT3htfm/jiILX800W3Hb6Dkm2xnlo+vttLLf3M9mzifWO9g1pEAZE2m2aWETBRxslO
G0t0uZkEQugbt5XlcMlyBEACD8y4LVcJjaKjBTnqXhoTIb9RT0RX2t4SbQv9XkIp95gl/NNkkzmi
JxEmirrYHWPTu4dGfBR4asJ1Gpxpocr73AgJkBcbUhp3w+e5ejq9wqZ0Y4UMJM2XX+qPpMfIYnOU
u7LR8Msf64XSwVqHg/qVvEm8z7AUvlo7rZl2hc/N7X+azDFDJgjncIffPZrJsxHubmVxho+JZgdE
tgUj3K3kkLtx1GC/QK55VODk2iFKyhOKUH5PObKA01niay/zOZdi6tREFxzS+HXgsG+8BHJxJ88J
5dud+5Pt5S63BXrKSaW0mZUPtpc7Wxly4TdI3reTnbfj26Je1t6Xy72XFZto3t6THzkQ3N1PKggu
uw5lYXYRZxCPWTz4ZqcgVF5tV4VTtjfbLRZ3vhbbT6W8uthfbei9r+3LYepT/dm7OCpXq4v58kN9
5tM4XwBUL21I1dL5znPRZVBEb3Xl6GJrpdxo7nyl0+flvbMmv/WzXdgu7X83kXVWSi1+h604qdQE
TF8MUEs+oergxnAhNWbTq4dzpafS7u46Utr2VUn8CR6za8AIsmBZPy6FyDhLokAOZciTJUgojZ6n
QvjXbL+cbT58bl/d3PZiNy0AK+T3vZpOWCdZ2Ft3NH0rlPL5tdvK6+CZ31o9+LpwIT4E65urGwuj
G2D+Fyht6aM/kiTBWKewSI+/YGeAHLeRL+boouQycxrH9UvtndOzredKSZbftq9W/6RL+4/KATSd
nkE9bW2zkjcX5Y/dgnldKsefbi+EI0HHxPlgMS/tbX8D17qUog6d6gLRRx8+dE9yY16OyKMfc+g0
hPekO+yhmx8rfhKXp15zpWH185bw1K3fV93Vcu+5hkJabtVe5uDd2elWoTeY23k7ES7BFJI3Kvrc
Rb34fDC7tzr82FjeyUu9G2Fxc2k3Lh3MIk+bYNlHJsEEPZTB2frcHLDan6cVsVh63b4qvjzFWPZ4
WM54zGYKfM611SoyuuMMGMgNmsm1cxrYDfPtUq+3uXLuO/BJRo0k4Bw4MLbuXNRlF3XNQTMTc/kI
LJ5wgbiSPb5YTxhXUkxZwLhobhKxFmPAlHWOg+5YA4ZmvMbsRW6TjBqlZ5SBwxIbXV8TU5qlyI2n
xdkWGbGzKes0vb/OsCn5crl0IaB1d5LKPqS3UtmWVEktv9YP8Odiavnzz3Mq+56Ht+czq6mcljtN
LXav54gpiJYhPAmVSzQKwR7csBmFmV5vObWceltEy/DGZlCQ/QKNs/Us+tgYxy0/VX5MC3IV8xO2
is3KQm/rZvHuZ6uz17uvvC7v4clJ26cfa0eAG2mu9Pu8f0G8nv3U82KJzcP6wyxRG8TtXqrkHHXk
pglPeyt/bbV/Cm/QhYv7qDpG4XO+sxy1VUIC9obPS78XurPI4GvQ/vtrjFbbPadaYVOq6LaEyVTK
CEoVWgRjM/josg2aGdWrdhbHm2l/hCOlTaBN/gsK1CRilfoFpqBUBGsUVKzFNCMiSXRH04QE4vLb
iQ12YbBgN96Iy2ui2WeoRydkNOy72481aiNMFF/KpJZeWl1zuaVHsE58RtWfgscOYoeHUUllTh50
FCZb+GcHBccJ/bm0OLuGEuUIBdERipVDfJFH8XOJPyvonVxJLd+8cP+SvPFkBah1Rme/0W1aF+/F
dTMe+43VNPWneXH+m8bWzeH6PizFq1T5TTn9JNI2iqj935Y3lqgzzKixvCfRB8yYzdm/7LjxljfA
5W/mSqPeE29BH5HShPfXpa3Vp8/XUv7irVf8vd6uRZ7uiJqVaUnHEbnxKd3cQTwVt5lv02SX6oRL
PALNIbOJs87GHHA8njYRpcVZZ2MuMn+eFnmmoyyy2JQ23iIjzMZjnWF4j2x0c4l828aP3uaHuvJ8
dqxv7ynKFvxZ29l5O5k9IT/1sjYUduUhf1m+3blEn81WYbB5uL0nX+dLD5WbS/jJVVYWOqWV0mxd
4abjLHTHCKbgqPdSeVjyxTQ9GtONEcTStjxiBJOas2Na0tPQsKGZmLrmWEYOjRFMwWkb3P64ntuY
hG/zp3mo21MzcoggCAhYTN40mXpsZkqWxr/quQ217yx/2pe+NJY/bbGXyh3od9ReActFJbaMlyGD
9s34tsx25fWrtVTZblX/BAsdoqrDYic/AFC20hu+HanmlpH8WOS+mC42U4+ZUM+thW5rO2Qu0yuu
jM9slM2Lpaftq+s/L5EYPHmqvKbgaXU5anjEMxo1MubIA15a2F+dQKyNPeBMjQx4XJ4Wc8BUrE1h
koMHTLjANCY5eMDUWpvCJAcPGPdATWWSx/UOjk/VHjMcJ+g1wTKmlDaFSQ4eMK4b/0lmPjEh6rZn
R2ezbcvmSZj5nuYJ/jRozr7M2s+0IFx7JHPcvYfUbjSsF/5kWSoJUXi4xoxcsNoiZXjhzblhivay
9q4SGGubl5bGxO0/LeedAD6ZFgVTRewboX/tuIeIZgrM2oTvwoNwYDP76Db5tdOyqZafjwIYzjqY
TWphb2HPvv9RuqS36SAJZrIbyycCXoWAWwT3sviUN8sKZhkHT5c/uJ27RzZcclw6/2BJ4wTLkCSD
XJpfS70ZW+LXhSzbDS9/pmtzF08wadIubs53StT0t0HB5L4iPUW6n11b/b4wV/A9Y52z9N1q6/rE
bhLjdkg6NzuZw6xxN9Lec37mz7Uh0fO4E/GsM3ppknEfhIE0UT39YpkKwpC3SDu7+n56jDs3Z0iP
nNdILdmQ8NgTa7ZrrEwkZIoP9ReCBCQB0iM7HsgR7BQPL3Y8CB/nJh4e7EiA7tiRMNj4cSHBIGg7
HqprJxYexMcWr9kOOH7u1/L2Vm3XSAUgIWE7xiBvrYK7VKdQpnjo7dw/RiOGraFB38OUhYSU1H9c
YMptyrg6zI8Y6NFSFJFPfgTlD4CqHJftSWDQK7oDAdAQXjCM+26ElREE4OnHMqPGHchrLwKA4OW5
W+tPOJDGwGKd4w7k05+0XAAMsTYKo5WKCsOHUd1YdPXCkBZ3nZ/dd2IxChzNCIyn7mTM5uzVza1M
pEWekbNaz7sTdgAPLgDO2NrGWaMfOiNLczYYm8WfjgPA58CLvnE00QfyNRxzkVku1bNOKhwZQWvk
rDdjALj/tgBwe8f37y6k3T+ZFHRv6y9Xed5zpGTev0agkjsXpbm6dV/7mYwB3TfcVGJRWlRqvf8M
p5KRTriR9uVJKDEG0h56YZNQWuSB9MZlQBal3Q9nJlv7D7OzEYS00H+yYKQWbz4v7TBqtYkYEBHS
tcZPGDJCOvHpw4CMTjB5E4SM2ld/MrKotQc2X+d4TKz2E4UBeQtpNMowpQjVx98rad3mxUs/Lkno
truj2xKWj+9OqdZL8oqMdMY7TMJRRi0CrjHY0ogeaqb5vNhyIKtz3080925x/V6myVA7d68k4zBn
JJM+9fFnwUif2ls0n8jBzcSca/S/UPu25UGRtKhl9rOYJ0lTefPLgpkP92TP7tuQ0lY6kpXXROZm
Y2XJeseXX1bWjI+2lq0XwuLm0Ybxwp7cJDwPX7aMF0ecLevJbJ80s7tC8gcz9qyq3a2shT5707uV
nPUCcHjdowlPNL9s95TDaFyWnuNs5jphjKD2Mm8mxJ5nifHE17o8mkfnOXMa54TFjTTmCp5TDwH/
rhTRoDvn8AaDHv++d0p+shyq94dH3sgarWQxWHx8+SVChSs6D0JGWTFTXq/y9iBh63K+vKxnXrZW
uZs5e0SPOSwuzJQ1+9FiAKVgGh4TAuJsUPjCbH8te73aUzaupZNt9bmeZoJgR8g8XKaoDVy4f7Qy
L9/EubW1N5ZHOqx/GcO8taX8CqW9daTD2zxFR+lhn6c0X3o/pdSPHqhS61pgxcPHFxryLGeqr+xJ
+JARhkxhvD5sIciHPN4u1hFeW0c0gVh4HV4w4G+ZOzPd7UEg3cEdXaRHb6v1P+Y7yQ==
	]]>
	<![CDATA[
	liRqjebtNlU0HeoXO638x9L22fvvo9LhfurSys8wjw8tmgdPLSR+2Q+0MjxAO+L8cN9Mrn4ukIGI
C8K1xNI6Vx9l9lSqmgm5zyKrd/O97eoOCeEVr54rpdbM+/bF1dNiuZbbIum9a+SKBbYeBl2FpkRS
R0jlVY6Vpkm9gwGZmtNJ0yRcIChTczppmswJ6Z+pOZ00TcrTAjI1x07T3P4/G4lfqiwLSU3WhWTh
Ythq9E57zY9mO7mc+LWa+FXY3uf563a9U+k1GleNvwelzvvwu9EeJFeShe3L4v6+Jpca7516I0lv
UpPfVJP35RiVMLeh/dARhz+R0OFO6be++7U3e7FeLf3m7jfcobCMuLeOoTDcU4+7+NboDsDlzya8
e/udT2WHK5coW0upHHcsYEzL84Qpm2P4Qfl+WMu9VTrqrcjVXZsgiM6ysV7bXu6eHGwd6v0NbW/t
Nl/pPEg35d7TA1d6qNxfVda319/JyQGuBOqA7Gkzt9lxaH5oAnUhtZzZ2qK509nzmRO6k94ze9rM
zzZ2mGQZG5mzH0FQeX01aOOsY6ygyy4Q7cdGliSSUUH0NUOPNKBp9lw6XyA/cYGm2dOfBlEdyMVT
dHku/qAffi/Lfq6kc2x5kp9HEoPx+3plwEQBrD6b4mBLh99QMzatAQcAzRjv1rO2d7bE+I1izqY4
2FL6N/YL9nW4+rFtvDjlLUXASuPbXV+yKQ429O0Wl20vbE3v7ueRky8By3giSfsZWKV/QLPcveDJ
T3HzOgU/z7aW7OcgvJKTQ6G4QnS3JVjkjR1ClBhpQPfikcZXZ05hfs9OC/Q8ip27nzn4ec3T0yfo
OQhnj6KpNQD+Z9dmyekTdCslnrRwf2Th5s1oxn5yQOhBBibfHDnIALdSQi/bxSmCdERVMgfaua6h
67eytdi4Ku3X11PGaRV3vEHGV4JNZ8i0XmcNfaMqmUOv2omsdkpPmmCngNSuC+aJG4XaHcfXjvYz
8ATaGZVotRdhQ98XYL5qVdF4qksEBpvfr4scPY8Cz0iDn3eGEP165IynF95OAjW76vtVF22HUryk
xFemTBz/zLPRfH0rsU78wNGQNW39cR8iMrizxNQ7o5fBC8fv8ltpeKryxlPdUtzemQAa/JEcoUbW
I3lwU1nKbKyqN7mZ48rb8bxOVZiF177KHexmURd7VpjihGdUBMe52BFzRyt2f7n39oml58oQt33f
4WbvMnDI2zuUGmnGRIcrZ8hd94Cxbl6lMs3WRirXPn9CxqqjhTdnPy6b7Zeg8wayhbJT4ziRJUPl
ueyyKtUf5HjkFB8pbZ3iY2oqi9RUBNaZtVgnKjo21nnfydMDfBa3Us9UKwI7DE9DOVsmx58UmneD
PFUWm8srWXIYF/C08oHXeXBgJZ0cjpIAvruGZtTeCKslSwFYrNHpw2Wm1lzzOJpD0DvVm73i29d2
3cFij/DwCEMXcR/vg4d8fZxmyRk/xggxjvq0zUgQGCstw+NeKTslTBQ0sD9UZ9rLVTAedILmng34
3uYFMr3zpUhnlNlPNZPd5OPkUQk82MOgQhKUya5flutGHPN9YTSOeXhrRXCE4lVNcgVCZ3+U4bEB
4G3edTIaOX2rdvYTHMdMpdbvjRiNVyBUurdvgl2QOxWnC4sUi/uPFoxLCsNYYtRAYnRQeV0UMt87
KmrzaX735YNDVSbDyqo/S6zsayaLWqmMc2MYQ3UH9lEnwYGzsB6NMn4ubd0uVSNEGamVZPplyPL0
CrC1rk/8oozp+NE199aWfGeyCAZYmgYStkQLCdAMDf4yPEgFCw/Yoy9blBG5AMNDqX9pIuHJjoTh
46mJhDsLCYynLUfAg7h1nk4zPFQ3Tx1IWAnx2YUH5zb5g/4kIWdy+5ThyB4v5LxIN5KEh2sJ0vxg
2IgyRsjXAoD6XMblyI4Nw4y/sykIWhZsbkZgVGd2s5MMxE6WAMB3eQbCIDcERxyIbV+DA8Z4QXgL
ANroBRdd0T0n0UmLXo4Wmzbtmk3aTp5x1zkFYKNNBwDHPrpgGBZ5js1s0nbytMOIOiNpO22OArCi
zfZ+uGFY5Ok/I5srX20DwJKLrsgpqTbyHIe00hFo04g2+8KwyDMAm0Ey0ME6ub3SZc2Acd92Vs1Y
JMhVrnbM/t4/u+tFpLSAcWXslBYXuYzSMn6UFnXJZCxK86ISi9KCBuJihLGpJOOitLEGYlGaL7mH
UVrGj9IidyKakE4tlp7OGQyh/+KEsRSVC9qF9J0bhkmeY3bCJaTHQcaSnTZDycJbSC8Fk2c4E1ua
QEgT5yZYrQUaHHSd0Jw70B/wYI8HNKLBsD7NLBNjH+3WesI485Xaeev3kstLOR0XJY4m0Es5HRcl
8f4HeSmn46JEZ0qgl3I6LkpkNoFeyum4KMlogryU03FRJn7NB7sUp+OiTFhpfN5eyum4KC13t4+X
cjouSsIFgryU03FR4mginEs8qYuSjCbISzmRixLN45FjShYZ/2KHDWcMn+BZhyHy7itrbNB46VOu
1Zw5WzADK32Dz+SpCcSWmyyxpEQ5wyJ/8kqW35v7s0F5sLkPAz664eguDbyWADct5Ekck999yT/Q
TRve90TuccalYFbo2Xh3SHe18Mtc+808s3uJeQKL813W6Y0twhTSDM3AxEwPYN55+DfqAkZU1MXO
DjYNJ+D6kjHCk6w9KvpCvAEnObp9Yre7goLoxPJENtip3MDG0KtuArfYmXGGfB+jnxhLwhjna7ld
t8c3oXgeii4bg2GXVJFfdxofzfZR9Z9GL/GLT9J/OfgX/6p6khe0pCDL8EPG0qNa4lea1E7ymeQR
Hj35WtjuDUrN90Gz0672/kmukLK746Pr/VJyJUlrv0Lt1WQa+sS9QnV4lSGh1Vfs6WviF5fcxj93
/0n8AnN0aYg/QOvh8qomCgr0JS9LsiDTrsG/eUmBf1To5V0V6xov7v7BXwfw9AfK/pPkueRx8vGZ
S9YTUPUi8UuR1bwgcUJS4uCBV8XkNy3kNI4nhZwg6ElFVvK6qMlQouQ1XpBJiarwKilRRElMFvFD
OS+Ksg6Fcl7gAKwii3mdE0UoEfOqKktQIuQljUNQQl6UePahkBc0lSeFvKTIpBrPC/ghn9cFVYUS
eFDIb0XXVPoZB9BV7D1HayuSntcUaE/UtbwsQDOKpOWhORVKYAy8wJMPoVBXdZkUqjyvkw95ReJJ
iSyIEikRBUkgJSIvycl3/BDgqwhMzssabU/XyWcS4ENTSAn8J0EJDF3QVeMzQdc0UsipOk+6pQDu
oETIyyrpukq7giUwuzz9UM3LosrTQkARqQaDk2iJyLESWaclvMYrdIRqnsd4v6hzeQ3fKpIC9SWF
lPAKTo4k53kBGhI1GAXMDv1QznMKwsdCRVdJNY4XVVoiK9h5CV5xOi2R2ORDoSbxMEYNUC/DgyIB
BgDlUKICjSgICvqsKzwpkTSVfQiFEjyLGkwGECGpRjsPJZzKIXJ4IHn4DWhH9JHPYDlwBDr0hheh
W6Kel3ieJyWaDohQROgKvKMfaopOPoRCTmPAeRVrQfcE8h3MPSfqpITnJZWUwLzRfooKwzMU8hpi
XpTpTCF4TcBJFKW8qAKtkDq6wj4UgYA4WigrCsyFKCBRUszAxyopUYHcCPYkVaGTKIKyLygCRSks
P0WEpc4pIkG8pODKhBJBlSQ6z0A/5DsBqRTL+DysQqglYHWelSAgKOA5HDIUCEi35DMtL9LFA2tM
UrGaCjMuUfIjcFQATKhWRASJhEaxUMLBQKEoy/QzVdYpuUuIaywBOqYfSqLI2gPWwSk6KZRFAavJ
QE84PlhOHIDHAllTdVKg4cojDQJ3EcmYZSAYQSXVREFlq5fQHpRoOk6EDoxN5WSjQQEJDAsVjfQU
u6DrhF9wMDekRNcVhZQAOevGEHlNpIVAAioZkMDLGikhYyV1FJkU6LooGN8BiSJqdCBWQCSC1zRF
JSxLEjidlKiCQjkbLwB9vTPU6LxOCgVNFkg1WdNoiSTJGimRVIl+CMuSDREWqyqrhJPqKo8finmF
NIikKWAXYC4VVSFcWtV4ykqhECZKJoW6oiJ4ZLwa5fBk8FiiKpxISoCWBfqhrVBGrmIvUHhc9fYS
QuTsO7JGsVDnyHigCxysciJ2dPIh8gGNSSdJZyOUgDhF/BBwKgl0LngRJLPEw8hEntK7gsKDB64s
cJRqYKXwImKGR/IR6dqRZECRowTmnn3IA8MmqxD4E5FhvAhzATOLCxoQAnPBwyAkSSCcQEBUSjzA
ZCwYuQOPshXKBE1XSC2Fk0gBT8hPJDMg0hIcKekoMh9RIwPUZcLYgBRlIqVhyArpATxoGk9KkDOQ
9hjDJmVID8giedUo0VGIQokoizIpAZWBCTXkASLtPCcoOmXAKqeTEiBonfByIhawREVRTT4EhOgi
raZpEmX5Mo80CZjhyJKGEkUDXoIlAicphpDheUUgM6bgA0onwgIQ85xEBLdKR4+zI6G0YYJbVnHc
vEIZGYp3OhVYQCWyRLCAn0k6JVLUHThdIFPIcUjdMqwGmVNI12UcGNFoKEo1WIcSxSkqPijykAJ1
4CxJqhzpGilRcWHaVShZocRtL5MkzVVLBGIa1bzgu9+odJaoiAJWoBP5QCTzNyuUNSo0dEmQCF1Q
toQlhF9CicArGilB+fpOv5NxaWOZzEk6qaVLIq0FKq1O6EkUOCaDVcEkKFURqRQUZYESlKhKrIBT
SIGqyVSYqhKbI5xoJvZ5WaHSG3QxKvZJdfodEczQYVGjHZXYVBAZqCgabQ8VSiwBlkVLUNHDAjJi
1k8QxwqRioJkLg+VajZEzcLvgMnQOrogaYYKIYpEunAUbaRfQGC0BAeBfQfZLZMPNVUxRiiKAoWu
IEsl6gktYDoZsDyVp18JvKEFCjjTVEMiHcYSTSSaB9NSyZISmYQXOMFcZ6DrUp1M4VQpaZVgP0VC
9/ghKhlQouiiZHzICTKtpvMof7BFDrU0kPE8XXmggOpEQaajYiqZoBBdETQBoupgiShTJZMDW4B+
B9NLSgCJuvEh07ZhYasqGxAnUhVCQfIlPEIhPYUPeZ0pgWgfoBKISiwv0gHpGtNZqDYHGiavE50W
e6XIhtqpELELNIbrE1gLUWhIgcRTNRdkKQUEBgmjNRBqHFOaOaiSpCWqZO86fIjsk2g7kmTqxzLR
hlHbITqfhFYPU2MkTaclVBVA0ct0Mkky1HvJQDwTZFhCJCdRqyWNKjuCoebCeMDsI8oOL7P2FIoG
kPWoHJGui+xDBesU6QiZzSFBtwiJgMIg0wJR4GmBgowBu2T2E4WvRMen8swsYUhQNMZyeUmg/eYB
dxSfwGQMWKAS02qyLFFbidkboGOBbkVKFF7njYkAdi8SnUwURIoG0DF5ojRx1IYDXYawXA67xOhM
54k2hIxEo0sJzCiFlMCaol+RVkgdnfE0WOCEqojJqOOSB14h8wqtBvoUFbeEZImtyQ==
	]]>
	<![CDATA[
	G0wG8CBSC5UTmI0AWBBpCYfdBANBV0WmkEnQ4XdqNRCoWAjjpFaDrom0C4AgidoRyOWxhGihpEFA
pIgsGdDAi0R9ADLEGaCIYXYErH6N6pdoBjCrgcMZIOMGy5WqNRKKc7S5FU4jH4LmTe1ypD3DTBGI
ES4hMJ1YM6Da8kRH40SJ9l0DkqBSS9ctw0gg+h2KRIIbpuihLCWMBLFFVEYskUyNBW1ZWktCxYgW
iFQGg77HviMaDNrzvNEcsDCRlCkcQQOQOqfLpITYhETTojoUlDD9DxYu/a0JdCSg8rEagkqVMQGN
egJXYuxFREKjSrDIK1RFpJUYe0KrSZCJQwOtJlgX79SUAk4vMN0ceYKg0XVF9XdkoFiHI8PnqWHJ
PmRD4VAQk1qiSH8DweukAPQalcy5wmuCYbrJPC+wQo52SxYlWk3GVUdKZJnV4Rg7Q/sRNWQsBHsB
EQO90URKUzyRuSK6XCS6RCXAlUFlKo8+AFy3WB9LNFmjJWC1UlBUsqiEN79TIuM4QrEqEeREl+YJ
21UQLxKhOmLCIJsgHot3uhp4gZZReYcFEspl5IIiz0pA6lP2KcqGDg6KBOW6ikp6iesRdRHgZ5pE
lhVyQY06XqBUMXQK3hAaRC2kWganUQ1CE5n65dDSqAqHbilcPmS16RxPfWoolQlBCFSXJyWqQKtR
/owlIvFxCdR5xTRekdgyuCp1xsY5ZhRxqkgFqsZzVKkXZeblQA1BkZiFQJwaKHdljtoVkiZTLULU
dGpKSbxqWgNESyTLgHhtRKQplS56jbIPZIak76gNM8lB3CgaK0SnFZZQa4AjbhT6oSTS5aTzlp0E
RgQ1PcEkphQA4pYtMgFXAS5DqoczPxhbmypqbcRrqJEljCyfp15DTRMoo1NUZkjLdInhZ5JA1yaI
dQocRBsVHQp6D5AVSjK10lWwvw3SVelC55g3BmmS8nFFResH+y3yVAbpqmzycV1VqACQOYIEVCEk
SgscFQAwpXRqYOY1S3IQMw6xwON6JZYhGS92DzUUKID5o1WAzwqGf0uS0MzEQsoNQbuUFOoU0Ki7
CTVljXphZckgGc6SeyBMFKLGMsMTWICoGh48iU6EoBuKO6qxGiVlmbjUgLKo91YgSxF/g2Ku0LHw
vE3nYwOUDAVPFekAJfQrYgmdB5HyIkOTkmkPNB1nHQtEnbYmqRotoaY3Uga6Bth3AqqYxKWsEz+j
RL1YlFw43VI6CQpUwdTAdOpklhSRelJBbuuEQwpURdJQn0KeRtzkbN1SywgqScQ2A8uUeIoImZFZ
cDMKxj9Q5UL+SRwOqNN/U3jEVEOTWVM0qk4RTRRLJA2NWjSGdWJrC5RiitT3DKSrEQNcBOlImhVV
6nSAOeeJa50oZsgHCABmM0s88x0QNoMFdA6RN6L9CSXMv4DWGE+XFzrlJVFi/AORCiWyTDxc6D1D
JgwlxFDDEkCdZnzIU/anUarGEk5iMlrXDH+7QjQZUIFUVTG868QkIQ4TIkIAEYJAEAGo5tCth05y
UI0JFhRV1kwnuUJdE6BH05ml008QSEgSlA00EYlvSWHOMtS30R7AD2XkHMQq4JgnRBc0pswb3h8R
LSfTKy9TFYN4EYi7gnrZQLPiFYpURePpUpEVZlPLgsEj0TQQqAOD0AZxzxGJL1MFBwaqsvAIkg+Z
CZ0KFjI3MvVb6Ty69DAMgbYOul143fDkg8jRUTHhRTqtpuaOJYT1jZAoI10ROTGlNeLf/2ZlyCaR
/jByQZVPnrmENIkpCioBBxSls9lBrVUjwDjqPsASomnjgKi9LsDUg9VGFU10/TFliHFFWDNoAWAJ
EAuVacwjrlGGRhw7KGKY8iVKhAJheOg0Jlob1ZNxjaOdQbzdTJEFS5d5slH0SbRFqMVTh7cqUNKV
FeTx6BQXmXqpGfEdhIbaD6VwoiciDxGo3OY5pvBxkkRpXhCY+oUDR+uAIIdnvkuO1xkKdYpUjiPO
TDop78w2AMOJkrNKlBjecPUJdIVgiYDqGuErgmH+YKiN+Vhh5gXSnoIOCuJTU0kcBShdkClRgOKg
GpNBe48eQXRgo4tapTOm8bJOHNSyKFClQNY43vDywoqUyLogTgJ0d4OqQZcAJ8o0qADfUX1J1Q20
kGgafkYroVaK0QmyMDgkBhTbnCYxzsabMRqQ7XQB8yqJrAgY6qMlKpqfI8Rt0DwOm3gcWMztm+nV
OolR4LSjEwznR9cUFmogpIRBAYGWkIAGG4FAHSEaYp/aCaCA0lADMVmoJo8OKAQlGB9qdFVhi6Dm
q4wGWcc4EmNETznHlG3Z0Nsw1qDotBAXKi1QqWpNNRaBRYSpy4HpJwLG8MgQJeYkEth6c5TIKse8
F+jWMWhXFlkUVUVFEadNVGj8BmQl9eCDdqHTnooab7rwSWgGnY08pUFBVqg1QRxdo5NhTBKJ+FCP
IBHW36xQJBYDZ4ThiL+WlhDzBktANRNpgA193Ew1o84OnrIHYoEK1JFIBRUayrpOS4gCakQEOBaU
ZZoZSAlBpu4+EqkgOqTMOgogZUOHJIF49BOqKjN/iBsCS4gdRJVPgTqDCaNhH2oSRz29Inoaqa8B
Y2Aac0Sj+i1g1A+/UxhDQysJI+vEPyto1LkBzFilrlidELTK/F4a0weYESDzzM9KjCmCZI4FlKlf
bWQu2Bwh6Qsa9ZvJONHfrFAilq1AY80kmCmyoKQi0AJNkAUWEtcsw1ZSWOhS1OkCVCTmduR0yq+I
Zk4ByYZZS2wjGuEkBirIJqOEDIQEhFTSJdQfjaiNQAOUxAFGIomEgbBFw1PbE20/nS0slTnAiDRU
aDQTpBY1pCWJZyUaY9LEpUP3Hci6sRpkjhCdzFyyuGh0gfWBqBe4sDiV+vyIm5OtP1HSaDCWzClB
sibSEC6sa7r+nHNhrCNQhnmN+mkFXCDfrJDTKWo1jvmJgGDp5zxRAoESFZEEl0XqLWJWvcBLNFAs
Y33qDhDphxL1eZHtIg4fLBpsmiIyV61MMStzrITXRaZkiDwNZpPQKxN/wI6o95ssLlIik8gxR319
VBfRqSOd13SzRbrrAtcp0QzQkSHobOVqAo0KSrpMQREfPjMadbrnggaccZUKCvO/iyI1GkFjYFF3
njlvEX8oNYnzG/GBJYAp5rAmXt+RqaBTtHSNm35KVP8TOZWqM1CJridSKFPFh+PRsSGzyCzh/TIu
BYkVsCgC7s6RWZFENVQSf2L7g1iBJLKGZGou2wvp1hgCh2lONHQmUGqjJRJdSDJ6iASrzDEMBsg9
MIOBKBiJoEqDZgwY9QaOp+4FRu3oQJc1qjrjDNMS4s9gOzSIfMNCjhbq6LglkDiqYwsksIUN0uA6
urwYUWNAX+QlVihRRYXZMQBJUplAlZkjxOQEpFCl7hLB2C1AHKp0QGzDgnOIdOgw53oynUne3ZKN
YxeJXzly5geGRTWJijuQS7xVcJT4lT7JJJcSJBSvoONMM5QXoyCnYtdsNTFoqQLRmzWNAndN2jpI
IVgbnNW6WWDVPNphW+/K7TrZHJfL4b68s+pH46pXbbZwJ95Hv/pXI1lttzuD6qDRhVfJj16jP+j0
Gsn+Z+c/WIIfmR/Mz5dPK4lf/xehZort
	]]>
</i:pgf>
</svg>
