<svg viewBox="0 19.5 77 21" fill="none" xmlns="http://www.w3.org/2000/svg" role="img" aria-labelledby="site-logo-title">
    <title id="site-logo-title">Conga</title>
    <path d="M10.762 31.2605C9.98865 31.5653 9.1072 31.7173 8.11676 31.7173C6.81238 31.7173 5.77955 31.358 5.01864 30.6393C4.25755 29.9211 3.877 28.9284 3.877 27.6614V26.931C3.877 25.5672 4.16066 24.5135 4.72855 23.7706C5.29587 23.0276 6.08743 22.6561 7.1019 22.6561C8.11638 22.6561 8.78078 22.8999 9.23985 23.3868C9.69837 23.8742 9.92828 24.6171 9.92828 25.6154V26.3462H13.8057V25.6154C13.8057 23.6916 13.2378 22.2237 12.1026 21.2128C10.9668 20.2025 9.33617 19.6965 7.21052 19.6965C2.40345 19.6965 0 22.2665 0 27.4057C0 29.9148 0.693916 31.8268 2.08345 33.1421C3.47223 34.4576 5.42303 35.1153 7.93566 35.1153C9.31271 35.1153 10.5929 34.9198 11.7769 34.5305C12.9602 34.1409 13.9387 33.6414 14.7119 33.0323L13.3712 29.9268C12.4048 30.5116 11.5351 30.956 10.762 31.2605Z" fill="#846bf8"></path>
    <path d="M22.7187 19.6965C20.1576 19.6965 18.2916 20.3422 17.1201 21.633C15.9482 22.9241 15.3627 24.848 15.3627 27.4057C15.3627 32.5454 17.8144 35.1153 22.7189 35.1153C27.6234 35.1153 30.3285 32.5454 30.3285 27.4057C30.3285 24.7997 29.7061 22.8633 28.4621 21.5965C27.2177 20.33 25.3034 19.6967 22.7187 19.6967V19.6965ZM26.2699 27.7713C26.2699 29.1842 26.0218 30.2682 25.5269 31.0228C25.0315 31.778 24.0956 32.1554 22.7187 32.1554C21.5103 32.1554 20.6406 31.7902 20.1096 31.0594C19.578 30.3287 19.3123 29.2325 19.3123 27.7713V27.0039C19.3123 24.1054 20.4477 22.6559 22.7187 22.6559C23.9745 22.6559 24.8805 23.0092 25.4365 23.7154C25.9919 24.4223 26.2699 25.5183 26.2699 27.0039V27.7713Z" fill="#846bf8"></path>
    <path d="M76.0948 32.1554C75.8048 32.1554 75.5749 32.0707 75.4061 31.8997C75.237 31.7297 75.1524 31.4859 75.1524 31.169V24.4462C75.1524 22.8144 74.6089 21.6145 73.5219 20.8471C72.4348 20.0802 70.9609 19.6965 69.1011 19.6965C67.3374 19.6965 65.8399 20.0499 64.6078 20.7561C63.3757 21.463 62.7597 22.5464 62.7597 24.0075V24.4826H66.5283V24.1905C66.5283 23.5818 66.7514 23.1554 67.1987 22.9114C67.6455 22.6683 68.2794 22.5462 69.1011 22.5462C69.9227 22.5462 70.52 22.7166 70.8948 23.0575C71.2691 23.3993 71.4565 23.947 71.4565 24.7019V25.802C69.7835 25.8232 68.3214 25.9316 67.0719 26.127C65.6707 26.346 64.4929 26.8213 63.5388 27.5517C62.5841 28.2825 62.1074 29.3668 62.1074 30.8038C62.1074 32.2407 62.536 33.2583 63.3938 34.0007C64.251 34.744 65.3806 35.1152 66.7818 35.1152C68.7625 35.1152 70.3811 34.4575 71.6376 33.1419H71.8187C72.0599 33.7757 72.4346 34.2626 72.9421 34.6036C73.4495 34.9444 74.041 35.1153 74.7177 35.1153C75.2006 35.1153 75.5872 35.0842 75.8771 35.0238C76.167 34.9625 76.5413 34.8227 77.0006 34.6036V32.1554H76.0948ZM70.4418 31.3151C69.7653 31.8999 68.9436 32.192 67.9778 32.192C66.6488 32.192 65.9846 31.6687 65.9846 30.6212C65.9846 29.8904 66.2984 29.3483 66.9268 28.9949C67.5549 28.6423 68.2794 28.4286 69.1011 28.3556C69.7668 28.2964 70.5519 28.2611 71.4565 28.2499V29.0133C71.4565 29.9633 71.1179 30.7305 70.4418 31.3149V31.3151Z" fill="#846bf8"></path>
    <path d="M40.2221 19.6967C39.2557 19.6967 38.386 19.8974 37.6132 20.2995C36.8396 20.7011 36.2119 21.2922 35.7288 22.0713H35.5477L35.2939 20.1714H32.0688V34.7864H35.9101V26.8215C35.9101 25.628 36.1875 24.6719 36.7435 23.9532C37.2989 23.235 38.0236 22.8751 38.9176 22.8751C39.7385 22.8751 40.361 23.1005 40.784 23.5509C41.2063 24.0022 41.4181 24.6654 41.4181 25.5424V34.7862H45.1866V24.8845C45.1866 23.1306 44.7577 21.828 43.9002 20.9751C43.0426 20.123 41.8168 19.6965 40.2223 19.6965L40.2221 19.6967Z" fill="#846bf8"></path>
    <path d="M60.6418 32.8316C59.8809 32.0886 58.8964 31.7171 57.6887 31.7171H52.217C51.8546 31.7171 51.5524 31.6441 51.3111 31.4981C51.0693 31.3516 50.9488 31.1207 50.9488 30.8038C50.9488 30.4868 51.0814 30.2438 51.3475 30.073C51.6132 29.903 51.9273 29.8173 52.2897 29.8173H54.464C56.179 29.8173 57.5134 29.4336 58.4681 28.6662C59.422 27.8988 60.1042 26.8091 60.5154 25.3962C61.1679 23.1306 61.7475 21.3895 62.2549 20.1712H58.6312L58.2849 21.3773H58.1065C57.7664 20.9224 57.2712 20.5387 56.6203 20.2262C55.883 19.8732 54.9715 19.6965 53.8843 19.6965C52.0724 19.6965 50.5442 20.1108 49.3002 20.9386C48.0558 21.7669 47.434 23.0337 47.434 24.7385C47.434 25.6154 47.6334 26.3954 48.0319 27.077C48.4303 27.7591 48.9921 28.3073 49.7169 28.7213C48.8954 28.9648 48.2312 29.3367 47.7239 29.8354C47.2165 30.335 46.9628 30.9499 46.9628 31.6807C46.9628 33.7515 48.3879 34.7862 51.2389 34.7862H56.3481C56.8791 34.7862 57.2903 34.9142 57.5802 35.1699C57.87 35.4256 58.0151 35.7484 58.0151 36.1384C58.0151 36.5284 57.8637 36.8444 57.5621 37.0884C57.2597 37.3315 56.8067 37.4536 56.2032 37.4536H53.5218V40.3035H56.3481C57.9182 40.3035 59.2163 39.8892 60.2437 39.0614C61.2701 38.2331 61.7837 37.1249 61.7837 35.7362C61.7837 34.5431 61.4031 33.5748 60.642 32.8318L60.6418 32.8316ZM52.0539 22.857C52.5251 22.4065 53.1955 22.1808 54.0651 22.1808C54.9346 22.1808 55.6109 22.413 56.0942 22.8751C56.5773 23.3382 56.819 23.9594 56.819 24.7385C56.819 26.4683 55.9006 27.3327 54.0651 27.3327C53.1709 27.3327 52.4944 27.1316 52.0357 26.7299C51.5766 26.3277 51.3473 25.6645 51.3473 24.7385C51.3473 23.9346 51.5827 23.3079 52.0537 22.857H52.0539Z" fill="#846bf8"></path>
</svg>