<svg xmlns="http://www.w3.org/2000/svg" width="45.901" height="33.911" viewBox="0 0 45.901 33.911">
  <g id="Group_490" data-name="Group 490" transform="translate(-6004.223 -5461.062)">
    <path id="Path_860" data-name="Path 860" d="M178.578,210.562h3.331a1.132,1.132,0,0,0,.848-1.393,1.1,1.1,0,0,0-.848-.848h-3.331a1.132,1.132,0,0,0-.848,1.393A1.1,1.1,0,0,0,178.578,210.562Z" transform="translate(5830.853 5261.945)" fill="#1b76ff"/>
    <path id="Path_861" data-name="Path 861" d="M178.578,252.562h1.393a1.132,1.132,0,0,0,.848-1.393,1.1,1.1,0,0,0-.848-.848h-1.393a1.132,1.132,0,0,0-.848,1.393A1.1,1.1,0,0,0,178.578,252.562Z" transform="translate(5830.853 5224.487)" fill="#1b76ff"/>
    <path id="Path_862" data-name="Path 862" d="M178.578,294.562h1.393a1.132,1.132,0,0,0,.848-1.393,1.1,1.1,0,0,0-.848-.848h-1.393a1.132,1.132,0,0,0-.848,1.393A1.1,1.1,0,0,0,178.578,294.562Z" transform="translate(5830.853 5187.029)" fill="#1b76ff"/>
    <path id="Path_863" data-name="Path 863" d="M181.908,333.76h-3.331a1.132,1.132,0,0,0-.848,1.393,1.1,1.1,0,0,0,.848.848h3.331a1.132,1.132,0,0,0,.848-1.393A1.1,1.1,0,0,0,181.908,333.76Z" transform="translate(5830.854 5150.071)" fill="#1b76ff"/>
    <path id="Path_864" data-name="Path 864" d="M475.135,210.5a1.086,1.086,0,0,0,1.211-.848,1.17,1.17,0,0,0-1.151-1.393h-3.573a1.27,1.27,0,0,0-1.393.848,1.153,1.153,0,0,0,.969,1.393h3.936Z" transform="translate(5569.964 5262.008)" fill="#1b76ff"/>
    <path id="Path_865" data-name="Path 865" d="M489.559,250.32a1.339,1.339,0,0,0-1.393.848,1.227,1.227,0,0,0,.969,1.393h1.7a1.339,1.339,0,0,0,1.393-.848,1.193,1.193,0,0,0-1.029-1.393h-1.635Z" transform="translate(5553.965 5224.488)" fill="#1b76ff"/>
    <path id="Path_866" data-name="Path 866" d="M489.56,292.258a1.232,1.232,0,0,0-1.393.848A1.193,1.193,0,0,0,489.2,294.5h1.7a1.339,1.339,0,0,0,1.393-.848,1.153,1.153,0,0,0-.969-1.393H489.56Z" transform="translate(5553.964 5187.092)" fill="#1b76ff"/>
    <path id="Path_867" data-name="Path 867" d="M474.97,333.7h-3.331a1.139,1.139,0,1,0-.363,2.24h3.634c.727,0,1.211-.242,1.393-.848a1.153,1.153,0,0,0-.969-1.393Z" transform="translate(5569.947 5150.133)" fill="#1b76ff"/>
    <path id="Path_868" data-name="Path 868" d="M182.505,128.044H174.33V124.35a1.191,1.191,0,0,0-1.151-1.151H162.885a1.191,1.191,0,0,0-1.151,1.151v2.059h-2.12V124.35a1.181,1.181,0,0,0-1.09-1.151H148.231a1.191,1.191,0,0,0-1.151,1.151v3.694H138.9a1.191,1.191,0,0,0-1.151,1.151V155.96a1.191,1.191,0,0,0,1.151,1.151h19.62a1.191,1.191,0,0,0,1.151-1.151v-1.514h2.12v1.514a1.181,1.181,0,0,0,1.09,1.151H182.5a1.191,1.191,0,0,0,1.151-1.151V129.134a1.18,1.18,0,0,0-1.15-1.09Zm-36.031,26.766h-2.362v-2.12h2.362Zm2.241,0V151.6a1.181,1.181,0,0,0-1.09-1.151h-4.6a1.191,1.191,0,0,0-1.151,1.151v3.27h-1.817V130.284h8.175a1.191,1.191,0,0,0,1.151-1.151V125.5h7.994v4.239a10.826,10.826,0,0,0-1.938.787l-1.574-1.574a1.133,1.133,0,0,0-1.574,0l-3.149,3.088a1.133,1.133,0,0,0,0,1.574l1.574,1.574a10.623,10.623,0,0,0-.727,1.938h-2.18a1.191,1.191,0,0,0-1.151,1.151v4.36a1.191,1.191,0,0,0,1.151,1.151h2.18a10.826,10.826,0,0,0,.787,1.938L149.2,147.3a1.133,1.133,0,0,0,0,1.574l3.088,3.088a1.133,1.133,0,0,0,1.574,0l1.574-1.574a10.826,10.826,0,0,0,1.938.787v3.694Zm13.019-2.6h-2.12v-1.938a1.1,1.1,0,0,0-.908-1.09,9.182,9.182,0,0,1-2.846-1.211,1.2,1.2,0,0,0-1.393.182l-1.332,1.332-1.514-1.453,1.332-1.332a1.2,1.2,0,0,0,.182-1.393,9.181,9.181,0,0,1-1.211-2.846,1.1,1.1,0,0,0-1.09-.908h-1.877v-2.18H150.9a1.1,1.1,0,0,0,1.09-.908,9.182,9.182,0,0,1,1.211-2.846,1.1,1.1,0,0,0-.121-1.393l-1.453-1.333,1.514-1.514,1.332,1.332a1.2,1.2,0,0,0,1.393.182,9.18,9.18,0,0,1,2.846-1.211,1.1,1.1,0,0,0,.908-1.09v-1.938h2.12v1.938a1.1,1.1,0,0,0,.908,1.09,9.182,9.182,0,0,1,2.846,1.211,1.2,1.2,0,0,0,1.393-.182l1.332-1.332,1.574,1.514-1.332,1.332a1.2,1.2,0,0,0-.182,1.393,9.18,9.18,0,0,1,1.211,2.846,1.1,1.1,0,0,0,1.09.908h1.938v2.12h-2a1.1,1.1,0,0,0-1.09.908,9.182,9.182,0,0,1-1.211,2.846,1.1,1.1,0,0,0,.121,1.393l1.453,1.393-1.514,1.514-1.332-1.332a1.2,1.2,0,0,0-1.393-.182,9.181,9.181,0,0,1-2.846,1.211,1.1,1.1,0,0,0-.908,1.09Zm15.5,2.6h-2.3v-2.12H177.3Zm4.118,0h-1.817V151.6a1.191,1.191,0,0,0-1.151-1.151h-4.6a1.191,1.191,0,0,0-1.151,1.151v3.27h-8.6v-3.694a10.828,10.828,0,0,0,1.938-.787l1.574,1.574a1.133,1.133,0,0,0,1.574,0l3.149-3.088a1.133,1.133,0,0,0,0-1.574l-1.574-1.574a10.825,10.825,0,0,0,.787-1.938h2.18a1.191,1.191,0,0,0,1.151-1.151v-4.42a1.151,1.151,0,0,0-1.211-1.09h-2.18a10.826,10.826,0,0,0-.787-1.938l1.574-1.574a1.133,1.133,0,0,0,0-1.574l-3.088-3.088a1.133,1.133,0,0,0-1.574,0l-1.574,1.574a10.825,10.825,0,0,0-1.938-.787V125.5h8.054v3.694a1.191,1.191,0,0,0,1.151,1.151h8.114Z" transform="translate(5866.469 5337.863)" fill="#1b76ff"/>
    <path id="Path_869" data-name="Path 869" d="M307.65,291.23a1.191,1.191,0,0,0-1.151-1.151h-9.2a1.116,1.116,0,0,0-1.09,1.211c0,.121.06.242.06.363a5.822,5.822,0,0,0,2.483,2.907l.545.182a1.239,1.239,0,0,0,1.09-1.211,1.125,1.125,0,0,0-.545-.908l-.424-.3H306.5a1.18,1.18,0,0,0,1.151-1.09Z" transform="translate(5725.155 5189.028)" fill="#1b76ff"/>
    <path id="Path_870" data-name="Path 870" d="M295.2,235.115h9.265a1.19,1.19,0,0,0,1.09-1.211.548.548,0,0,0-.06-.3,6.456,6.456,0,0,0-2.422-2.967,1.213,1.213,0,0,0-1.635-.06,1.151,1.151,0,0,0-.06,1.635,3.386,3.386,0,0,0,.485.3l.484.363H295.2a1.153,1.153,0,0,0-.545,2.24.839.839,0,0,0,.545,0Z" transform="translate(5727.309 5242.358)" fill="#1b76ff"/>
  </g>
</svg>
