<svg xmlns="http://www.w3.org/2000/svg" width="42.966" height="38.464" viewBox="0 0 42.966 38.464">
  <g id="Group_489" data-name="Group 489" transform="translate(-13922.022 -1275)">
    <path id="Path_854" data-name="Path 854" d="M175.587,138.156h30.49a1.04,1.04,0,0,0,1.04-1.04v-7.277a1.04,1.04,0,0,0-1.04-1.04h-30.49a1.04,1.04,0,0,0-1.04,1.039v7.277a1.04,1.04,0,0,0,1.04,1.04Zm1.039-7.277h28.411v5.2H176.626Z" transform="translate(13752.673 1151.398)" fill="#1b76ff"/>
    <path id="Path_855" data-name="Path 855" d="M434.695,257.6h-7.1a1.04,1.04,0,0,0-1.04,1.039v14.554a1.04,1.04,0,0,0,1.04,1.04h7.1a1.04,1.04,0,0,0,1.04-1.04V258.639a1.039,1.039,0,0,0-1.04-1.039Zm-1.04,14.554h-5.021V259.679h5.026Z" transform="translate(13524.056 1034.553)" fill="#1b76ff"/>
    <path id="Path_856" data-name="Path 856" d="M175.583,274.235h18.764a1.04,1.04,0,0,0,1.04-1.039V258.641a1.039,1.039,0,0,0-1.04-1.04H175.583a1.04,1.04,0,0,0-1.04,1.039V273.2a1.04,1.04,0,0,0,1.04,1.04Zm1.04-14.554h16.685v12.475H176.622Z" transform="translate(13752.676 1034.552)" fill="#1b76ff"/>
    <path id="Path_857" data-name="Path 857" d="M161.52,73.84a1.04,1.04,0,0,0-1.04-1.039H119.594a1.04,1.04,0,0,0-1.04,1.039v36.385a1.04,1.04,0,0,0,1.04,1.04H160.48a1.04,1.04,0,0,0,1.04-1.04Zm-2.079,35.346H120.633V74.88H159.44Z" transform="translate(13803.469 1202.199)" fill="#1b76ff"/>
  </g>
</svg>
