<svg xmlns="http://www.w3.org/2000/svg" width="36.755" height="36.755" viewBox="0 0 36.755 36.755">
  <path id="Path_926" data-name="Path 926" d="M133.179,44.8a3.266,3.266,0,0,0-.875,6.413V56.4a6.837,6.837,0,0,0-4.581,2.666l-6.016-3.487V53.169a2.592,2.592,0,0,0,1.395-1.149,2.622,2.622,0,1,0-3.582.957,2.571,2.571,0,0,0,.437.205v2.885a.875.875,0,0,0,.438.752l6.454,3.747A6.841,6.841,0,0,0,126.4,62.3h-5.182a3.268,3.268,0,1,0,0,1.75H126.4a6.821,6.821,0,0,0,.451,1.723l-6.454,3.747a.876.876,0,0,0-.438.752v2.9a2.573,2.573,0,0,0-.437.205,2.622,2.622,0,1,0,3.582.957,2.592,2.592,0,0,0-1.395-1.149v-2.42l6.016-3.473a6.837,6.837,0,0,0,4.581,2.666v5.182a3.268,3.268,0,1,0,1.75,0V69.961a6.837,6.837,0,0,0,4.581-2.666l6.016,3.473v2.42a2.592,2.592,0,0,0-1.395,1.149,2.622,2.622,0,1,0,3.582-.957,2.572,2.572,0,0,0-.437-.205v-2.9a.876.876,0,0,0-.438-.752l-6.454-3.747a6.821,6.821,0,0,0,.451-1.723h5.182a3.268,3.268,0,1,0,0-1.75h-5.182a6.841,6.841,0,0,0-.451-1.737l6.454-3.747a.875.875,0,0,0,.438-.752V53.183a2.571,2.571,0,0,0,.437-.205,2.622,2.622,0,1,0-3.582-.957,2.592,2.592,0,0,0,1.395,1.149v2.407l-6.016,3.487a6.837,6.837,0,0,0-4.581-2.666V51.214a3.266,3.266,0,0,0-.875-6.413Zm0,1.75a1.511,1.511,0,1,1-1.518,1.518A1.507,1.507,0,0,1,133.179,46.551Zm-12.416,3.282a.9.9,0,0,1,.506.123.858.858,0,0,1,.328,1.19.869.869,0,0,1-1.2.314.853.853,0,0,1-.314-1.189.844.844,0,0,1,.684-.438Zm24.653,0a.907.907,0,1,1-.328.123A.9.9,0,0,1,145.417,49.833Zm-12.238,8.246a5.089,5.089,0,0,1,4.4,2.516.866.866,0,0,0,.055.1c.01.018.017.037.027.055l.014.013a5.1,5.1,0,1,1-8.97-.041.856.856,0,0,0,.082-.15,5.092,5.092,0,0,1,4.389-2.488Zm-15.11,3.582a1.518,1.518,0,1,1-1.518,1.518A1.5,1.5,0,0,1,118.069,61.661Zm30.219,0a1.518,1.518,0,1,1-1.5,1.518A1.507,1.507,0,0,1,148.288,61.661ZM120.722,74.773a.881.881,0,0,1,.875.438.876.876,0,1,1-1.2-.314.9.9,0,0,1,.328-.123Zm24.735,0a.9.9,0,0,1,.506.123.87.87,0,1,1-1.2.314.866.866,0,0,1,.7-.438Zm-12.279,2.01a1.511,1.511,0,1,1-1.518,1.5A1.5,1.5,0,0,1,133.178,76.784Z" transform="translate(-114.802 -44.801)" fill="#1b76ff"/>
</svg>
