<svg xmlns="http://www.w3.org/2000/svg" width="45.431" height="33.735" viewBox="0 0 45.431 33.735">
  <path id="Path_1030" data-name="Path 1030" d="M47.057,31.968a1.125,1.125,0,0,1,1.119,1.009l.006.115v16.7l4.576,1.386a2.392,2.392,0,0,1,1.576,1.547l.046.161a2.4,2.4,0,0,1-.492,2.134l-.109.118-1.348,1.444,2.282,2.3.015.016a2.172,2.172,0,0,1,.079,3.285l-.124.112-2.6,2.7a2.377,2.377,0,0,1-3.256.119L48.7,65l-2.279-2.3-1.486,1.371a2.378,2.378,0,0,1-3.923-.845l-.053-.159L37.176,50.342a2.4,2.4,0,0,1,.6-2.376,2.373,2.373,0,0,1,2.208-.648l.169.045,5.782,1.75V40.686H12.337V59.614H33.817a1.125,1.125,0,0,1,.115,2.243l-.115.006h-22.6a1.124,1.124,0,0,1-1.119-1.009l-.006-.115V33.092A1.124,1.124,0,0,1,11.1,31.973l.115-.006ZM39.369,49.551a.153.153,0,0,0-.043.11l.007.042,3.782,12.721a.139.139,0,0,0,.091.1.137.137,0,0,0,.117-.029l.048-.041,2.321-2.143a1.124,1.124,0,0,1,1.473-.045l.089.08L50.3,63.416a.127.127,0,0,0,.091.038.137.137,0,0,0,.061-.015l.02-.014L53.1,60.7l.1-.088.022-.019-.026-.03-.039-.044-.05-.054L50.072,57.4a1.125,1.125,0,0,1-.1-1.467l.077-.091,2.11-2.26a.156.156,0,0,0,.039-.145.15.15,0,0,0-.053-.082l-.042-.021L39.5,49.515a.124.124,0,0,0-.127.036ZM53.228,60.585l-.007,0c.02.025.032.038.038.045l.007-.064C53.262,60.563,53.252,60.567,53.228,60.585ZM30.694,45.514a1.124,1.124,0,0,1,1.124,1.124v7.9a1.124,1.124,0,0,1-1.124,1.125H17.447a1.125,1.125,0,0,1-1.125-1.125v-7.9a1.124,1.124,0,0,1,1.125-1.124Zm-1.125,2.249h-11v5.65h11ZM45.933,34.216H12.338v4.221H45.933Z" transform="translate(-10.088 -31.967)" fill="#1b76ff"/>
</svg>
