<?xml version="1.0" encoding="utf-8"?>
<!-- Generator: Adobe Illustrator 16.0.0, SVG Export Plug-In . SVG Version: 6.00 Build 0)  -->
<!DOCTYPE svg PUBLIC "-//W3C//DTD SVG 1.1//EN" "http://www.w3.org/Graphics/SVG/1.1/DTD/svg11.dtd">
<svg version="1.1" id="Layer_1" xmlns="http://www.w3.org/2000/svg" xmlns:xlink="http://www.w3.org/1999/xlink" x="0px" y="0px"
	 width="43.934px" height="40px" viewBox="-3.59 -1.623 43.934 40" enable-background="new -3.59 -1.623 43.934 40"
	 xml:space="preserve">
<path id="Path_926" fill="#1B76FF" d="M18.375-0.001c-1.804-0.001-3.267,1.461-3.268,3.265c0,1.468,0.979,2.756,2.393,3.148v5.187
	c-1.823,0.236-3.475,1.197-4.581,2.666l-6.016-3.487v-2.41c0.588-0.204,1.083-0.611,1.395-1.149
	c0.725-1.253,0.297-2.857-0.957-3.582C6.088,2.911,4.484,3.339,3.759,4.593C3.034,5.847,3.462,7.45,4.716,8.175l0,0
	C4.855,8.257,5.002,8.326,5.153,8.38v2.885c0.002,0.311,0.169,0.597,0.438,0.752l6.454,3.747c-0.225,0.556-0.376,1.139-0.449,1.734
	H6.415c-0.483-1.739-2.285-2.757-4.023-2.274c-1.739,0.483-2.757,2.285-2.274,4.023c0.483,1.739,2.285,2.758,4.024,2.272
	c1.104-0.307,1.967-1.168,2.273-2.272h5.182c0.074,0.592,0.226,1.172,0.451,1.724l-6.454,3.747
	c-0.269,0.154-0.436,0.441-0.438,0.753v2.899c-0.152,0.054-0.298,0.123-0.438,0.205c-1.254,0.725-1.683,2.327-0.958,3.582
	c0.725,1.254,2.329,1.682,3.582,0.957c1.254-0.726,1.683-2.328,0.958-3.582l0,0c-0.312-0.539-0.807-0.946-1.395-1.15v-2.42
	l6.016-3.473c1.106,1.469,2.758,2.43,4.581,2.665v5.183c-1.739,0.483-2.757,2.285-2.273,4.024c0.483,1.738,2.285,2.757,4.023,2.272
	c1.738-0.483,2.756-2.284,2.272-4.022c-0.307-1.104-1.17-1.967-2.272-2.274V25.16c1.822-0.237,3.476-1.198,4.58-2.666l6.017,3.473
	v2.42c-0.588,0.203-1.082,0.611-1.396,1.148c-0.726,1.254-0.297,2.857,0.957,3.583s2.856,0.296,3.582-0.957s0.297-2.856-0.956-3.583
	c-0.001,0-0.001,0-0.001,0c-0.14-0.082-0.285-0.15-0.437-0.205v-2.898c-0.004-0.312-0.17-0.598-0.438-0.752l-6.453-3.748
	c0.226-0.553,0.376-1.131,0.451-1.723h5.182c0.482,1.738,2.285,2.756,4.023,2.273c1.737-0.483,2.757-2.285,2.272-4.023
	c-0.482-1.739-2.285-2.757-4.022-2.273c-1.104,0.307-1.968,1.169-2.273,2.273h-5.182c-0.074-0.596-0.226-1.18-0.451-1.737
	l6.453-3.747c0.271-0.155,0.437-0.441,0.438-0.752V8.381c0.15-0.054,0.297-0.123,0.437-0.205c1.254-0.725,1.683-2.329,0.958-3.582
	c-0.727-1.254-2.329-1.683-3.583-0.958c-1.253,0.725-1.683,2.329-0.957,3.582l0,0c0.313,0.538,0.808,0.946,1.396,1.149v2.407
	l-6.017,3.487c-1.104-1.469-2.758-2.43-4.58-2.666V6.413c1.738-0.482,2.756-2.283,2.272-4.021C21.133,0.978,19.844-0.001,18.377,0
	L18.375-0.001z M18.375,1.749c0.834,0.004,1.508,0.684,1.504,1.518s-0.684,1.508-1.518,1.504c-0.829-0.004-1.5-0.675-1.504-1.504
	c-0.005-0.833,0.665-1.512,1.497-1.517C18.361,1.75,18.369,1.75,18.375,1.749L18.375,1.749z M5.959,5.031
	c0.177-0.01,0.353,0.033,0.506,0.123c0.416,0.227,0.57,0.748,0.343,1.164C6.804,6.326,6.799,6.335,6.793,6.343
	C6.555,6.76,6.024,6.904,5.607,6.666C5.603,6.663,5.598,6.66,5.594,6.658c-0.412-0.229-0.56-0.749-0.331-1.16
	c0.005-0.01,0.011-0.02,0.017-0.029C5.417,5.215,5.676,5.05,5.963,5.031H5.959z M30.611,5.031c0.494-0.082,0.962,0.252,1.043,0.746
	c0.082,0.494-0.252,0.961-0.745,1.043c-0.494,0.082-0.961-0.252-1.043-0.746c-0.062-0.363,0.104-0.727,0.418-0.92
	c0.102-0.062,0.213-0.103,0.33-0.122L30.611,5.031z M18.375,13.276c1.811-0.003,3.484,0.955,4.398,2.516
	c0.017,0.035,0.035,0.068,0.056,0.1c0.01,0.018,0.019,0.037,0.026,0.055l0.015,0.013c1.33,2.483,0.396,5.573-2.088,6.901
	c-2.483,1.33-5.574,0.396-6.903-2.088c-0.813-1.519-0.805-3.344,0.022-4.854c0.032-0.047,0.06-0.097,0.082-0.15
	c0.92-1.547,2.589-2.493,4.389-2.488L18.375,13.276z M3.265,16.858c0.838,0,1.518,0.68,1.518,1.518s-0.68,1.519-1.518,1.519
	c-0.838,0-1.518-0.681-1.518-1.519l0,0c-0.01-0.828,0.654-1.507,1.483-1.517C3.241,16.859,3.253,16.859,3.265,16.858L3.265,16.858z
	 M33.482,16.858c0.838-0.01,1.525,0.662,1.537,1.5c0.01,0.837-0.662,1.526-1.5,1.537c-0.84,0.01-1.526-0.662-1.537-1.5
	c0-0.006,0-0.012,0-0.018c-0.006-0.832,0.664-1.511,1.498-1.517C33.48,16.859,33.482,16.859,33.482,16.858L33.482,16.858z
	 M5.918,29.971c0.354-0.044,0.699,0.129,0.875,0.438c0.244,0.417,0.103,0.952-0.315,1.196S5.524,31.71,5.28,31.292
	c-0.243-0.418-0.103-0.953,0.313-1.196c0.1-0.063,0.211-0.104,0.328-0.123L5.918,29.971z M30.652,29.971
	c0.179-0.01,0.354,0.032,0.507,0.122c0.413,0.246,0.549,0.781,0.303,1.193c-0.246,0.413-0.78,0.548-1.192,0.302
	c-0.408-0.242-0.545-0.77-0.31-1.181c0.146-0.255,0.407-0.421,0.699-0.438L30.652,29.971z M18.375,31.98
	c0.834,0.004,1.507,0.685,1.503,1.52c-0.004,0.834-0.685,1.508-1.517,1.504c-0.834-0.004-1.508-0.684-1.504-1.52
	c0,0,0-0.002,0-0.004c0-0.828,0.672-1.498,1.501-1.498C18.363,31.982,18.369,31.982,18.375,31.98L18.375,31.98z"/>
</svg>
