<?xml version="1.0" encoding="utf-8"?>
<!-- Generator: Adobe Illustrator 16.0.0, SVG Export Plug-In . SVG Version: 6.00 Build 0)  -->
<!DOCTYPE svg PUBLIC "-//W3C//DTD SVG 1.1//EN" "http://www.w3.org/Graphics/SVG/1.1/DTD/svg11.dtd">
<svg version="1.1" id="Layer_1" xmlns="http://www.w3.org/2000/svg" xmlns:xlink="http://www.w3.org/1999/xlink" x="0px" y="0px"
	 width="40px" height="40px" viewBox="1.483 -0.768 40 40" enable-background="new 1.483 -0.768 40 40" xml:space="preserve">
<g id="Group_489" transform="translate(-13922.022 -1275)">
	<path id="Path_854" fill="#1B76FF" d="M13930.76,1290.321h25.491c0.48,0,0.871-0.389,0.871-0.869v-6.084
		c0-0.48-0.391-0.87-0.871-0.87h-25.491c-0.48,0-0.869,0.389-0.869,0.869v6.084
		C13929.891,1289.931,13930.279,1290.32,13930.76,1290.321L13930.76,1290.321z M13931.629,1284.236h23.754v4.348h-23.754V1284.236z"
		/>
	<path id="Path_855" fill="#1B76FF" d="M13956.252,1292.494h-5.936c-0.48,0-0.87,0.389-0.87,0.869v12.168
		c0,0.48,0.389,0.87,0.869,0.87c0.001,0,0.001,0,0.001,0h5.936c0.481,0,0.87-0.39,0.87-0.87l0,0v-12.168
		C13957.122,1292.883,13956.733,1292.494,13956.252,1292.494C13956.253,1292.494,13956.253,1292.494,13956.252,1292.494z
		 M13955.383,1304.662h-4.199v-10.43h4.203L13955.383,1304.662z"/>
	<path id="Path_856" fill="#1B76FF" d="M13930.759,1306.401h15.688c0.48,0,0.869-0.389,0.869-0.869v-12.168
		c0.002-0.479-0.387-0.869-0.867-0.87c-0.001,0-0.002,0-0.002,0h-15.688c-0.479,0-0.869,0.389-0.87,0.869v12.173
		c0,0.479,0.391,0.87,0.87,0.87l0,0V1306.401z M13931.629,1294.233h13.949v10.43h-13.951L13931.629,1294.233z"/>
	<path id="Path_857" fill="#1B76FF" d="M13961.468,1279.021c-0.001-0.48-0.39-0.869-0.869-0.869h-34.185
		c-0.479,0-0.869,0.389-0.869,0.869v30.42c0,0.48,0.389,0.87,0.869,0.87l0,0h34.185c0.479,0,0.869-0.39,0.869-0.87V1279.021z
		 M13959.729,1308.573h-32.446v-28.682h32.445L13959.729,1308.573z"/>
</g>
</svg>
