<?xml version="1.0" encoding="utf-8"?>
<!-- Generator: Adobe Illustrator 16.0.0, SVG Export Plug-In . SVG Version: 6.00 Build 0)  -->
<!DOCTYPE svg PUBLIC "-//W3C//DTD SVG 1.1//EN" "http://www.w3.org/Graphics/SVG/1.1/DTD/svg11.dtd">
<svg version="1.1" id="Layer_1" xmlns="http://www.w3.org/2000/svg" xmlns:xlink="http://www.w3.org/1999/xlink" x="0px" y="0px"
	 width="40px" height="40px" viewBox="0 0 40 40" enable-background="new 0 0 40 40" xml:space="preserve">
<g>
	<path fill="#0077FF" d="M24.722,1.696c0.264,0.059,0.532,0.111,0.793,0.181c2.35,0.612,4.038,2.59,4.27,4.992
		c0.226,2.35-1.094,4.629-3.287,5.649c-0.212,0.101-0.298,0.205-0.296,0.449c0.017,0.965,0.007,1.929,0.007,2.895
		c0,0.089,0.016,0.178,0.017,0.219c0.406-0.196,0.787-0.448,1.212-0.567c0.766-0.219,1.465,0.007,2.051,0.534
		c0.46,0.415,0.892,0.858,1.322,1.307c0.301,0.312,0.294,0.745,0.02,1.024c-0.289,0.291-0.726,0.285-1.054-0.031
		c-0.405-0.388-0.788-0.798-1.194-1.183c-0.439-0.413-0.998-0.373-1.34,0.078c-0.261,0.345-0.243,0.756,0.073,1.105
		c0.292,0.317,0.606,0.607,0.902,0.917c0.354,0.367,0.379,0.765,0.078,1.077c-0.309,0.321-0.731,0.299-1.104-0.065
		c-0.602-0.594-1.191-1.199-1.797-1.79c-0.419-0.408-0.866-0.435-1.241-0.101c-0.406,0.357-0.416,0.885,0.006,1.321
		c0.526,0.548,1.075,1.081,1.611,1.621c0.083,0.081,0.173,0.166,0.251,0.256c0.286,0.324,0.286,0.75,0.008,1.025
		C25.744,22.89,25.311,22.892,25,22.59c-0.464-0.444-0.911-0.906-1.365-1.36c-0.499-0.497-0.985-1.006-1.498-1.486
		c-0.479-0.448-1.122-0.342-1.411,0.208c-0.184,0.349-0.121,0.706,0.231,1.067c0.614,0.634,1.241,1.254,1.865,1.876
		c0.294,0.296,0.594,0.586,0.884,0.885c0.355,0.369,0.379,0.765,0.074,1.077c-0.303,0.313-0.734,0.294-1.099-0.07
		c-2.185-2.182-4.365-4.364-6.547-6.547c-0.228-0.227-0.449-0.461-0.687-0.678c-0.417-0.376-0.884-0.382-1.243-0.027
		c-0.367,0.36-0.365,0.809,0.003,1.242c0.053,0.063,0.111,0.123,0.171,0.183c2.699,2.693,5.399,5.385,8.097,8.08
		c0.218,0.217,0.44,0.438,0.616,0.691c0.453,0.645,0.192,1.33-0.577,1.499c-0.321,0.073-0.663,0.076-0.991,0.072
		c-0.907-0.017-1.812-0.063-2.716-0.079c-0.916-0.016-1.367,0.642-1.044,1.505c0.214,0.567,0.644,0.881,1.229,0.962
		c1.037,0.146,2.077,0.264,3.116,0.396c2.009,0.25,4.018,0.517,6.025,0.751c0.48,0.058,0.974,0.061,1.459,0.028
		c0.584-0.038,1.091-0.272,1.515-0.704c1.185-1.209,2.353-2.435,3.592-3.586c1.703-1.587,1.339-3.779,0.124-5.15
		c-0.167-0.186-0.354-0.354-0.517-0.542c-0.248-0.302-0.223-0.717,0.04-0.974c0.256-0.253,0.662-0.292,0.941-0.052
		c1.868,1.608,2.535,4.083,1.59,6.118c-0.232,0.496-0.568,0.972-0.951,1.367c-1.296,1.347-2.624,2.665-3.961,3.976
		c-0.95,0.93-2.154,1.102-3.415,1.009c-0.771-0.056-1.533-0.172-2.309-0.262c-0.044,0.416-0.05,0.811-0.13,1.191
		c-0.325,1.558-1.513,2.693-3.092,2.985c-0.056,0.011-0.107,0.04-0.16,0.062c-2.479,0-4.959,0-7.438,0
		c-0.033-0.028-0.066-0.062-0.103-0.084c-0.297-0.2-0.444-0.463-0.345-0.824c0.095-0.34,0.351-0.524,0.755-0.524
		c2.156-0.002,4.313,0,6.471-0.002c1.698-0.001,2.776-1.27,2.527-2.981c-0.098-0.021-0.2-0.052-0.305-0.065
		c-1.807-0.224-3.613-0.45-5.422-0.669c-0.876-0.104-1.634-0.437-2.169-1.163c-0.146-0.196-0.289-0.265-0.526-0.265
		c-3.932,0.006-7.865,0.003-11.795,0.005c-0.116,0-0.231,0.01-0.377,0.02c0,0.855-0.001,1.688,0,2.52
		c0.001,1.61,0.993,2.598,2.611,2.6c0.821,0,1.644-0.004,2.465,0.001c0.379,0.005,0.632,0.194,0.723,0.52
		c0.094,0.346-0.031,0.605-0.313,0.806c-0.046,0.033-0.086,0.073-0.13,0.108c-1.145,0-2.287,0-3.432,0
		c-0.022-0.01-0.042-0.026-0.064-0.031c-2.266-0.554-3.297-1.868-3.297-4.205c0-7.42,0-14.839,0-22.26
		c0-2.085-0.01-4.17,0.003-6.254c0.01-1.318,0.567-2.364,1.625-3.145c0.541-0.399,1.17-0.562,1.806-0.713
		C12.328,1.696,18.522,1.696,24.722,1.696z M21.161,27.788c-0.044-0.049-0.103-0.119-0.165-0.184
		c-2.536-2.535-5.073-5.07-7.609-7.606c-0.11-0.108-0.22-0.219-0.318-0.338c-0.861-1.032-0.746-2.417,0.272-3.281
		c0.886-0.755,2.137-0.746,3.026,0.084c0.922,0.863,1.797,1.775,2.691,2.666c0.091,0.09,0.186,0.175,0.295,0.276
		c0.752-1.251,1.785-1.69,3.177-1.168c0.432-0.956,1.177-1.472,2.208-1.542c0-1.233,0-2.43,0-3.637
		c-2.638,0.103-4.684-0.894-5.806-3.306c-1.13-2.426-0.561-4.631,1.279-6.582c-0.153-0.009-0.269-0.021-0.383-0.021
		c-4.374,0-8.747-0.001-13.119,0c-1.586,0-2.575,0.999-2.575,2.599c-0.002,8.042,0,16.087,0,24.129c0,0.126,0,0.254,0,0.393
		c4.051,0,8.06,0,12.07,0c0.018-0.153,0.033-0.28,0.053-0.413c0.162-1.093,0.866-1.842,1.953-2.035
		c0.277-0.052,0.569-0.031,0.854-0.034C19.763,27.786,20.46,27.788,21.161,27.788z M19.829,7.393
		c0.009,2.332,1.93,4.236,4.271,4.231c2.352-0.004,4.277-1.937,4.265-4.278c-0.012-2.317-1.955-4.224-4.295-4.213
		C21.731,3.144,19.818,5.063,19.829,7.393z"/>
	<path fill="#0077FF" d="M12.208,38.301c-0.063-0.049-0.126-0.099-0.188-0.147c-0.35-0.281-0.387-0.75-0.089-1.063
		c0.285-0.302,0.762-0.302,1.048-0.002c0.297,0.309,0.26,0.783-0.083,1.064c-0.063,0.048-0.125,0.099-0.188,0.147
		C12.542,38.301,12.376,38.301,12.208,38.301z"/>
	<path fill="#0077FF" d="M32.572,20.863c-0.403-0.011-0.717-0.343-0.705-0.743c0.012-0.388,0.326-0.693,0.716-0.693
		c0.413,0.001,0.739,0.348,0.718,0.763C33.283,20.579,32.965,20.873,32.572,20.863z"/>
	<path fill="#0077FF" d="M14.426,35.012c-0.547,0-1.093,0.004-1.641,0c-0.506-0.003-0.836-0.293-0.833-0.725
		c0.006-0.418,0.327-0.709,0.811-0.711c1.129-0.002,2.259-0.002,3.388,0c0.491,0.005,0.793,0.288,0.789,0.723
		c-0.002,0.434-0.306,0.708-0.802,0.713C15.566,35.016,14.997,35.012,14.426,35.012z"/>
	<path fill="#0077FF" d="M13.172,12.129c0-0.344-0.015-0.69,0.002-1.033c0.022-0.442,0.319-0.74,0.714-0.742
		c0.393-0.002,0.707,0.291,0.719,0.732c0.021,0.711,0.021,1.426,0,2.139c-0.013,0.445-0.321,0.721-0.728,0.715
		c-0.403-0.007-0.684-0.288-0.704-0.741C13.157,12.843,13.17,12.485,13.172,12.129z"/>
	<path fill="#0077FF" d="M11.819,20.129c-0.059,0.102-0.134,0.311-0.271,0.457c-0.456,0.483-0.932,0.951-1.408,1.416
		c-0.354,0.346-0.771,0.353-1.073,0.041c-0.294-0.299-0.282-0.709,0.049-1.049c0.481-0.495,0.969-0.979,1.462-1.464
		c0.232-0.228,0.513-0.296,0.818-0.158C11.671,19.497,11.801,19.726,11.819,20.129z"/>
	<path fill="#0077FF" d="M16.62,15.218c-0.184-0.144-0.42-0.263-0.56-0.453c-0.172-0.235-0.145-0.544,0.06-0.76
		c0.53-0.561,1.074-1.109,1.638-1.638c0.271-0.256,0.679-0.217,0.939,0.031c0.275,0.263,0.328,0.677,0.058,0.965
		c-0.528,0.562-1.083,1.101-1.64,1.635C17.013,15.094,16.842,15.121,16.62,15.218z"/>
	<path fill="#0077FF" d="M8.819,17.945c-0.355,0-0.714,0.011-1.068-0.003c-0.438-0.019-0.73-0.317-0.727-0.717
		c0.003-0.387,0.283-0.698,0.7-0.711c0.723-0.021,1.448-0.022,2.173-0.001c0.431,0.012,0.727,0.347,0.713,0.739
		c-0.013,0.382-0.304,0.67-0.722,0.688C9.534,17.956,9.178,17.945,8.819,17.945z"/>
	<path fill="#0077FF" d="M11.103,15.179c-0.253-0.137-0.455-0.196-0.592-0.324c-0.502-0.472-0.986-0.964-1.468-1.459
		c-0.331-0.342-0.337-0.742-0.039-1.045c0.294-0.297,0.716-0.295,1.047,0.027c0.495,0.479,0.979,0.972,1.464,1.461
		c0.229,0.232,0.333,0.531,0.165,0.81C11.554,14.856,11.311,14.996,11.103,15.179z"/>
	<path fill="#0077FF" d="M23.412,7.566c0.768-0.646,1.503-1.27,2.237-1.889c0.264-0.221,0.557-0.278,0.859-0.108
		c0.278,0.153,0.419,0.413,0.346,0.718c-0.041,0.182-0.16,0.377-0.302,0.501c-0.881,0.768-1.768,1.515-2.665,2.262
		c-0.408,0.341-0.772,0.316-1.128-0.067c-0.414-0.443-0.823-0.894-1.224-1.348c-0.313-0.349-0.3-0.767,0.012-1.048
		c0.302-0.276,0.726-0.245,1.046,0.084c0.145,0.145,0.277,0.297,0.413,0.446C23.134,7.259,23.262,7.399,23.412,7.566z"/>
</g>
</svg>
