<?xml version="1.0" encoding="utf-8"?>
<!-- Generator: Adobe Illustrator 16.0.0, SVG Export Plug-In . SVG Version: 6.00 Build 0)  -->
<!DOCTYPE svg PUBLIC "-//W3C//DTD SVG 1.1//EN" "http://www.w3.org/Graphics/SVG/1.1/DTD/svg11.dtd">
<svg version="1.1" id="Layer_1" xmlns="http://www.w3.org/2000/svg" xmlns:xlink="http://www.w3.org/1999/xlink" x="0px" y="0px"
	 width="40px" height="40px" viewBox="2.95 -3.044 40 40" enable-background="new 2.95 -3.044 40 40" xml:space="preserve">
<g id="Group_490" transform="translate(-6004.223 -5461.062)">
	<path id="Path_860" fill="#1B76FF" d="M6013.333,5473.719h2.598c0.476-0.106,0.776-0.579,0.669-1.055
		c-0.002-0.011-0.004-0.021-0.007-0.032c-0.07-0.332-0.33-0.591-0.662-0.662h-2.598c-0.476,0.106-0.776,0.579-0.669,1.054
		c0.002,0.011,0.005,0.022,0.007,0.033C6012.742,5473.39,6013.001,5473.648,6013.333,5473.719z"/>
	<path id="Path_861" fill="#1B76FF" d="M6013.333,5477.262h1.086c0.477-0.106,0.776-0.579,0.67-1.055
		c-0.002-0.011-0.005-0.021-0.008-0.032c-0.07-0.332-0.329-0.591-0.662-0.662h-1.086c-0.476,0.106-0.776,0.579-0.669,1.055
		c0.002,0.011,0.005,0.021,0.007,0.032C6012.742,5476.933,6013.001,5477.191,6013.333,5477.262z"/>
	<path id="Path_862" fill="#1B76FF" d="M6013.333,5480.806h1.086c0.477-0.106,0.776-0.579,0.67-1.055
		c-0.002-0.012-0.005-0.022-0.008-0.033c-0.07-0.331-0.329-0.591-0.662-0.661h-1.086c-0.476,0.106-0.776,0.579-0.669,1.055
		c0.002,0.011,0.005,0.021,0.007,0.031C6012.742,5480.475,6013.001,5480.734,6013.333,5480.806z"/>
	<path id="Path_863" fill="#1B76FF" d="M6015.931,5482.552h-2.598c-0.476,0.106-0.776,0.578-0.669,1.055
		c0.002,0.011,0.005,0.021,0.007,0.032c0.071,0.332,0.33,0.592,0.662,0.662h2.598c0.476-0.106,0.776-0.579,0.669-1.054
		c-0.002-0.012-0.004-0.022-0.007-0.033C6016.522,5482.883,6016.263,5482.623,6015.931,5482.552z"/>
	<path id="Path_864" fill="#1B76FF" d="M6041.156,5473.72c0.439,0.061,0.851-0.228,0.944-0.662c0.097-0.495-0.228-0.974-0.722-1.07
		c-0.059-0.011-0.118-0.017-0.177-0.017h-2.787c-0.475-0.072-0.932,0.207-1.086,0.662c-0.108,0.484,0.196,0.965,0.683,1.073
		c0.023,0.005,0.049,0.01,0.072,0.013H6041.156L6041.156,5473.72z"/>
	<path id="Path_865" fill="#1B76FF" d="M6039.927,5475.514c-0.47-0.051-0.916,0.221-1.086,0.662
		c-0.08,0.506,0.253,0.985,0.755,1.087h1.326c0.472,0.051,0.917-0.221,1.088-0.662c0.089-0.506-0.248-0.989-0.754-1.079
		c-0.017-0.003-0.032-0.005-0.049-0.008h-1.275H6039.927z"/>
	<path id="Path_866" fill="#1B76FF" d="M6039.927,5479.057c-0.478-0.086-0.942,0.199-1.086,0.661
		c-0.091,0.506,0.246,0.989,0.753,1.081c0.017,0.002,0.034,0.005,0.052,0.007h1.327c0.47,0.052,0.916-0.221,1.086-0.661
		c0.108-0.485-0.197-0.966-0.682-1.074c-0.024-0.005-0.05-0.009-0.074-0.013L6039.927,5479.057L6039.927,5479.057z"/>
	<path id="Path_867" fill="#1B76FF" d="M6041.014,5482.554h-2.599c-0.476-0.121-0.959,0.167-1.079,0.643
		c-0.121,0.476,0.166,0.959,0.643,1.08c0.051,0.013,0.102,0.021,0.153,0.024h2.836c0.565,0,0.944-0.188,1.085-0.661
		c0.109-0.484-0.196-0.965-0.683-1.073c-0.023-0.006-0.048-0.01-0.072-0.013H6041.014z"/>
	<path id="Path_868" fill="#1B76FF" d="M6044.179,5468.57h-6.377v-2.881c-0.017-0.489-0.409-0.882-0.898-0.897h-8.03
		c-0.488,0.016-0.88,0.408-0.896,0.897v1.606h-1.654v-1.606c-0.011-0.473-0.378-0.861-0.851-0.897h-8.029
		c-0.489,0.016-0.881,0.408-0.897,0.897v2.881h-6.381c-0.489,0.016-0.882,0.409-0.897,0.898v20.878
		c0.016,0.488,0.408,0.881,0.897,0.897h15.305c0.489-0.017,0.882-0.409,0.898-0.897v-1.181h1.653v1.181
		c0.011,0.474,0.378,0.862,0.851,0.897h15.304c0.489-0.017,0.882-0.409,0.897-0.897v-20.926c-0.036-0.471-0.423-0.839-0.896-0.85
		H6044.179z M6016.072,5489.45h-1.843v-1.654h1.843V5489.45z M6017.821,5489.45v-2.504c-0.011-0.475-0.379-0.862-0.851-0.897h-3.589
		c-0.489,0.015-0.881,0.408-0.897,0.897v2.55h-1.418v-19.178h6.377c0.489-0.016,0.882-0.409,0.898-0.898v-2.833h6.236v3.307
		c-0.523,0.155-1.029,0.36-1.512,0.614l-1.228-1.228c-0.343-0.33-0.886-0.33-1.228,0l-2.457,2.409c-0.33,0.343-0.33,0.885,0,1.229
		l1.229,1.227c-0.238,0.484-0.428,0.991-0.568,1.512h-1.7c-0.489,0.017-0.881,0.409-0.897,0.898v3.401
		c0.016,0.489,0.408,0.881,0.897,0.897h1.7c0.156,0.522,0.361,1.029,0.615,1.512l-1.229,1.228c-0.332,0.343-0.332,0.886,0,1.229
		l2.409,2.408c0.342,0.33,0.885,0.33,1.227,0l1.229-1.228c0.482,0.253,0.989,0.458,1.512,0.614v2.882L6017.821,5489.45z
		 M6027.977,5487.421h-1.654v-1.512c0.002-0.418-0.297-0.776-0.708-0.85c-0.788-0.188-1.539-0.507-2.221-0.945
		c-0.355-0.191-0.792-0.134-1.086,0.143l-1.039,1.039l-1.181-1.134l1.039-1.039c0.277-0.294,0.334-0.731,0.142-1.086
		c-0.438-0.682-0.757-1.433-0.945-2.221c-0.073-0.411-0.432-0.711-0.85-0.708h-1.464v-1.701h1.515
		c0.418,0.002,0.778-0.297,0.851-0.708c0.187-0.789,0.506-1.539,0.945-2.22c0.232-0.338,0.192-0.794-0.095-1.086l-1.133-1.04
		l1.181-1.181l1.039,1.039c0.294,0.277,0.732,0.334,1.087,0.142c0.681-0.438,1.432-0.757,2.22-0.944
		c0.412-0.073,0.711-0.433,0.708-0.851v-1.511h1.654v1.511c-0.004,0.418,0.296,0.777,0.707,0.851
		c0.789,0.187,1.539,0.506,2.221,0.944c0.355,0.192,0.792,0.135,1.087-0.142l1.038-1.039l1.229,1.181l-1.039,1.039
		c-0.276,0.293-0.334,0.732-0.143,1.087c0.438,0.681,0.758,1.431,0.945,2.22c0.073,0.412,0.433,0.711,0.851,0.708h1.512v1.654
		h-1.562c-0.418-0.004-0.776,0.295-0.85,0.707c-0.188,0.789-0.507,1.539-0.944,2.221c-0.232,0.338-0.192,0.793,0.094,1.087
		l1.135,1.086l-1.182,1.181l-1.039-1.039c-0.294-0.276-0.732-0.334-1.087-0.142c-0.681,0.438-1.432,0.758-2.22,0.944
		c-0.412,0.073-0.711,0.433-0.708,0.851L6027.977,5487.421z M6040.066,5489.45h-1.794v-1.654h1.846L6040.066,5489.45z
		 M6043.279,5489.45h-1.417v-2.504c-0.017-0.489-0.409-0.883-0.898-0.897h-3.588c-0.489,0.015-0.882,0.408-0.898,0.897v2.55h-6.708
		v-2.881c0.522-0.155,1.028-0.361,1.512-0.614l1.228,1.229c0.343,0.33,0.885,0.33,1.229,0l2.456-2.409
		c0.33-0.343,0.33-0.886,0-1.229l-1.229-1.228c0.254-0.482,0.459-0.988,0.614-1.512h1.7c0.49-0.017,0.882-0.409,0.897-0.897v-3.448
		c-0.024-0.495-0.447-0.876-0.942-0.85c0,0,0,0-0.001,0h-1.701c-0.155-0.523-0.361-1.029-0.613-1.512l1.228-1.228
		c0.33-0.342,0.33-0.885,0-1.228l-2.408-2.409c-0.344-0.331-0.886-0.331-1.229,0l-1.228,1.228c-0.483-0.252-0.989-0.458-1.512-0.613
		v-3.308h6.282v2.881c0.016,0.489,0.409,0.882,0.897,0.898h6.33L6043.279,5489.45z"/>
	<path id="Path_869" fill="#1B76FF" d="M6031.565,5479.765c-0.017-0.488-0.408-0.882-0.897-0.896h-7.177
		c-0.48,0.009-0.863,0.406-0.853,0.887c0,0.019,0.001,0.037,0.003,0.058c0,0.095,0.046,0.189,0.046,0.282
		c0.372,0.953,1.055,1.752,1.938,2.268l0.425,0.143c0.48-0.058,0.842-0.462,0.85-0.945c-0.014-0.292-0.174-0.557-0.425-0.708
		l-0.331-0.232h5.524c0.474-0.012,0.862-0.379,0.897-0.852V5479.765z"/>
	<path id="Path_870" fill="#1B76FF" d="M6023.535,5477.593h7.227c0.488-0.042,0.861-0.455,0.85-0.945
		c0.007-0.081-0.009-0.162-0.046-0.233c-0.382-0.945-1.04-1.752-1.89-2.315c-0.35-0.343-0.902-0.363-1.275-0.047
		c-0.365,0.336-0.39,0.904-0.053,1.269c0.002,0.002,0.004,0.004,0.006,0.007c0.119,0.089,0.246,0.167,0.378,0.234l0.378,0.283
		h-5.575c-0.485-0.106-0.965,0.201-1.071,0.687c-0.102,0.469,0.182,0.937,0.645,1.061
		C6023.247,5477.64,6023.396,5477.64,6023.535,5477.593L6023.535,5477.593z"/>
</g>
</svg>
