<svg xmlns="http://www.w3.org/2000/svg" version="1.1" xmlns:xlink="http://www.w3.org/1999/xlink" xmlns:svgjs="http://svgjs.com/svgjs" width="512" height="512" x="0" y="0" viewBox="0 0 512 512" style="enable-background:new 0 0 512 512" xml:space="preserve" class=""><g><path d="M435.549 175v-34.104a3 3 0 0 1 3-3h16.163c2.551 0 3.938-2.982 2.294-4.933L412.23 79.815a3 3 0 0 0-4.589 0l-44.777 53.149c-1.644 1.951-.257 4.933 2.294 4.933h16.163a3 3 0 0 1 3 3v78.828c21.605 14.775 39.303 34.839 51.227 58.333V210M263.843 66.649h16.163a3 3 0 0 1 3 3v123.515c4.415-.376 8.879-.578 13.391-.578 13.05 0 25.721 1.612 37.836 4.632V69.649a3 3 0 0 1 3-3h16.163c2.551 0 3.938-2.982 2.294-4.933L310.914 8.567a3 3 0 0 0-4.589 0l-44.777 53.149c-1.643 1.951-.256 4.933 2.295 4.933zM142.261 324.646a157.156 157.156 0 0 0-1.821 23.897c0 86.133 69.825 155.958 155.958 155.958 79.198 0 144.602-59.036 154.621-135.5" style="stroke-width:15;stroke-linecap:round;stroke-linejoin:round;stroke-miterlimit:10;" fill="none" stroke="#224653" stroke-width="15" stroke-linecap="round" stroke-linejoin="round" stroke-miterlimit="10" data-original="#000000" opacity="1"></path><path d="M451.675 334c-7.336-79.313-74.049-141.415-155.277-141.415a156.497 156.497 0 0 0-33.531 3.626M188.122 322.334A111.248 111.248 0 0 0 185 348.543" style="stroke-width:15;stroke-linecap:round;stroke-linejoin:round;stroke-miterlimit:10;" fill="none" stroke="#224653" stroke-width="15" stroke-linecap="round" stroke-linejoin="round" stroke-miterlimit="10" data-original="#000000" opacity="1"></path><path d="M407.796 348.542c0-61.426-49.973-111.398-111.398-111.398a111.044 111.044 0 0 0-32.967 4.98M229.669 437.687a110.879 110.879 0 0 0 48.162 20.677M389.223 410.039a111.1 111.1 0 0 0 13.653-28.82M314.964 458.364c18.139-3.057 34.801-10.501 48.851-21.218M189.911 381.219a110.963 110.963 0 0 0 14.143 29.569M277.462 366.339l-11.277 11.278M381.715 262.087l-67.52 67.52" style="stroke-width:15;stroke-linecap:round;stroke-linejoin:round;stroke-miterlimit:10;" fill="none" stroke="#224653" stroke-width="15" stroke-linecap="round" stroke-linejoin="round" stroke-miterlimit="10" data-original="#000000" opacity="1"></path><circle cx="296.398" cy="348.543" r="25.993" style="stroke-width:15;stroke-linecap:round;stroke-linejoin:round;stroke-miterlimit:10;" fill="none" stroke="#224653" stroke-width="15" stroke-linecap="round" stroke-linejoin="round" stroke-miterlimit="10" data-original="#000000" opacity="1"></circle><path d="M177.372 116.185a106.391 106.391 0 0 0-17.401-1.434c-58.371 0-105.69 47.319-105.69 105.69 0 47.668 31.56 87.96 74.922 101.135M143.228 324.806a106.46 106.46 0 0 0 16.743 1.325c24.527 0 47.101-8.357 65.035-22.376M248.671 277.923c10.745-16.546 16.99-36.283 16.99-57.482 0-47.405-31.211-87.521-74.204-100.92" style="stroke-width:15;stroke-linecap:round;stroke-linejoin:round;stroke-miterlimit:10;" fill="none" stroke="#224653" stroke-width="15" stroke-linecap="round" stroke-linejoin="round" stroke-miterlimit="10" data-original="#000000" opacity="1"></path><path d="M215.536 209.09h-40.044c-3.127 0-5.425-2.934-4.675-5.97l23.326-94.473c1.274-5.158-5.518-8.275-8.598-3.946L100.51 224.208c-2.268 3.188.011 7.607 3.924 7.607h40.409c3.118 0 5.414 2.919 4.68 5.95l-22.901 94.465c-1.252 5.164 5.553 8.252 8.615 3.909l84.234-119.459c2.249-3.19-.032-7.59-3.935-7.59z" style="stroke-width:15;stroke-linecap:round;stroke-linejoin:round;stroke-miterlimit:10;" fill="none" stroke="#224653" stroke-width="15" stroke-linecap="round" stroke-linejoin="round" stroke-miterlimit="10" data-original="#000000" opacity="1"></path></g></svg>