<?xml version="1.0" encoding="utf-8"?>
<!-- Generator: Adobe Illustrator 16.0.0, SVG Export Plug-In . SVG Version: 6.00 Build 0)  -->
<!DOCTYPE svg PUBLIC "-//W3C//DTD SVG 1.1//EN" "http://www.w3.org/Graphics/SVG/1.1/DTD/svg11.dtd">
<svg version="1.1" id="Layer_1" xmlns="http://www.w3.org/2000/svg" xmlns:xlink="http://www.w3.org/1999/xlink" x="0px" y="0px"
	 width="612px" height="792px" viewBox="0 0 612 792" enable-background="new 0 0 612 792" xml:space="preserve">
<path fill="#FFFFFF" d="M62.959,267.709c7.459-7.478,19.569-7.494,27.047-0.034c0.011,0.011,0.023,0.023,0.034,0.034L306,483.707
	l215.959-215.998c7.479-7.478,19.604-7.478,27.082,0c7.478,7.478,7.478,19.603,0,27.081L319.54,524.29
	c-7.459,7.479-19.568,7.494-27.046,0.034c-0.011-0.011-0.023-0.022-0.034-0.034l-229.5-229.5
	c-7.478-7.459-7.494-19.569-0.034-27.047C62.937,267.732,62.948,267.721,62.959,267.709z"/>
</svg>
