<?xml version="1.0" encoding="utf-8"?>
<!-- Generator: Adobe Illustrator 16.0.0, SVG Export Plug-In . SVG Version: 6.00 Build 0)  -->
<!DOCTYPE svg PUBLIC "-//W3C//DTD SVG 1.1//EN" "http://www.w3.org/Graphics/SVG/1.1/DTD/svg11.dtd">
<svg version="1.1" id="Layer_1" xmlns="http://www.w3.org/2000/svg" xmlns:xlink="http://www.w3.org/1999/xlink" x="0px" y="0px"
	 width="1000px" height="1000px" viewBox="0 0 1000 1000" enable-background="new 0 0 1000 1000" xml:space="preserve">
<g>
	<path fill="#FFFFFF" d="M297.548,981.834c3.055,1.121,6.218,1.674,9.354,1.674c7.688,0,15.197-3.313,20.411-9.354l78.646-91.392
		l88.593,92.466c5.068,5.271,12.035,8.267,19.349,8.285h0.108c7.267,0,14.232-2.926,19.302-8.143l90.661-93.15l82.334,92.292
		c5.008,5.608,12.124,8.875,19.614,9.003c7.6,0.524,14.735-2.869,19.927-8.287l89.538-93.383l87.717,93.192
		c7.578,8.042,19.302,10.676,29.539,6.593c10.28-4.081,17.022-14.008,17.022-25.035l-0.007-856.307c0-2.593-0.483-5.028-1.17-7.383
		c-6.635-43.228-43.984-76.468-89.057-76.468L243.652,16.43h-0.041c-49.719,0.062-90.159,40.479-90.159,90.179v533.419
		c-6.389,8.189-18.105,19.784-31.037,20.661c-16.294,1.047-32.989-15.28-44.188-29.188c-9.314-11.572-26.289-13.443-37.868-4.082
		c-11.573,9.334-13.396,26.287-4.062,37.866c25.854,32.094,53.611,48.543,82.559,49.196c0.395,0.02,0.749,0.108,1.123,0.108h0.504
		c0.041,0,0.088,0.021,0.15,0.021c0.087,0,0.19-0.021,0.265-0.021h159.076v242.003c-0.006,11.268,6.988,21.327,17.56,25.239
		L297.548,981.834z M915.768,106.613V888.69l-60.617-64.415c-5.067-5.381-12.104-8.436-19.485-8.478h-0.129
		c-7.334,0-14.361,2.993-19.431,8.309l-89.016,92.816l-82.186-92.128c-4.959-5.572-12.035-8.832-19.504-8.981
		c-7.228-0.373-14.677,2.764-19.881,8.124l-91.368,93.887l-89.804-93.718c-5.253-5.491-12.478-8.164-20.159-8.287
		c-7.6,0.19-14.735,3.6-19.702,9.354l-50.644,58.845V687.87c0-0.089,0.021-0.149,0.021-0.218c0-0.088-0.021-0.149-0.021-0.219
		V107.025c0-0.149,0.041-0.266,0.041-0.415c0-0.292-0.041-0.544-0.041-0.837v-5.49c0-2.483-0.463-4.857-1.096-7.137
		c-1.191-7.993-3.388-15.682-6.572-22.859h553.222c20.052,0.007,36.364,16.288,36.364,36.317L915.768,106.613z M204.142,660.724
		c1.973-3.824,3.164-8.014,3.164-12.327V106.617c0-20.029,16.321-36.322,36.386-36.322c19.878,0,36.043,16.076,36.281,35.907V660.73
		L204.142,660.724z"/>
	<path fill="#FFFFFF" d="M526.141,564.932h0.354v27.549c0,14.884,12.057,26.947,26.92,26.947c14.887,0,26.95-12.056,26.95-26.947
		l-0.007-27.902c44.233-3.47,79.171-40.48,79.171-85.561v-40.274c0-26.229-16.245-50.345-46.957-69.721
		c-1.469-0.945-3.033-1.734-4.674-2.367l-6.571-2.531c-0.396-0.17-0.729-0.415-1.122-0.564l-19.854-7.62l0.007-119.481
		c14.45,3.144,25.302,16.015,25.302,31.446v18.736c0,14.865,12.057,26.921,26.922,26.921c14.886,0,26.947-12.056,26.947-26.921
		l0.008-18.736c0-45.155-34.941-82.227-79.172-85.724V156.53c0-14.886-12.057-26.948-26.947-26.948
		c-14.866,0-26.922,12.056-26.922,26.948v25.282h-0.354c-47.439,0-86.008,38.631-86.008,86.076v40.147
		c0,26.314,15.443,49.46,45.9,68.831c1.531,0.966,3.144,1.782,4.811,2.408l35.649,13.668v118.113h-0.354
		c-17.729,0-32.153-14.384-32.153-32.059v-18.817c0-14.886-12.056-26.948-26.947-26.948c-14.866,0-26.921,12.055-26.921,26.948
		v18.817C440.125,526.392,478.708,564.932,526.141,564.932L526.141,564.932z M605.666,479.021c0,15.348-10.866,28.157-25.302,31.272
		v-96.547l5.552,2.137c13.62,9.09,19.764,17.92,19.764,22.858l-0.006,40.275L605.666,479.021z M493.981,267.913
		c0-17.77,14.422-32.222,32.151-32.222h0.354v99.515l-4.505-1.735c-0.266-0.108-0.543-0.129-0.816-0.218l-8.396-3.225
		c-11.993-7.994-18.796-15.947-18.796-21.981L493.981,267.913z"/>
	<path fill="#FFFFFF" d="M438.414,714.577h397.499c14.886,0,26.947-12.058,26.947-26.924c0-14.886-12.056-26.946-26.947-26.946
		H438.414c-14.865,0-26.922,12.055-26.922,26.946C411.492,702.521,423.549,714.577,438.414,714.577z"/>
	<path fill="#FFFFFF" d="M714.259,286.492H835.91c14.885,0,26.947-12.056,26.947-26.948c0-14.865-12.057-26.921-26.947-26.921
		H714.259c-14.866,0-26.922,12.056-26.922,26.921C687.337,274.437,699.393,286.492,714.259,286.492L714.259,286.492z"/>
	<path fill="#FFFFFF" d="M714.259,452.108H835.91c14.885,0,26.947-12.057,26.947-26.923c0-14.886-12.057-26.947-26.947-26.947
		H714.259c-14.866,0-26.922,12.056-26.922,26.947C687.337,440.046,699.393,452.108,714.259,452.108L714.259,452.108z"/>
</g>
</svg>
