<?xml version="1.0" encoding="utf-8"?>
<!-- Generator: Adobe Illustrator 16.0.0, SVG Export Plug-In . SVG Version: 6.00 Build 0)  -->
<!DOCTYPE svg PUBLIC "-//W3C//DTD SVG 1.1//EN" "http://www.w3.org/Graphics/SVG/1.1/DTD/svg11.dtd">
<svg version="1.1" id="Layer_1" xmlns="http://www.w3.org/2000/svg" xmlns:xlink="http://www.w3.org/1999/xlink" x="0px" y="0px"
	 width="1000px" height="1000px" viewBox="0 0 1000 1000" enable-background="new 0 0 1000 1000" xml:space="preserve">
<path fill="#1B76FF" d="M20.448,606.438l28.63,88.153c7.034,21.608,30.227,33.436,51.847,26.447l28.32-9.195
	c15.297,26.688,33.422,51.651,54.065,74.454l-17.424,23.964c-6.437,8.85-9.091,19.884-7.378,30.677
	c1.712,10.804,7.643,20.471,16.481,26.895l74.994,54.502h0.011c18.39,13.344,44.112,9.263,57.49-9.115l17.458-24.02h-0.013
	c28.057,12.652,57.41,22.205,87.534,28.503v29.604c0,22.744,18.424,41.182,41.169,41.191h92.684c10.931,0,21.4-4.345,29.125-12.068
	c7.724-7.723,12.066-18.192,12.066-29.123v-29.604c30.125-6.298,59.479-15.851,87.534-28.503l17.424,23.997
	c6.424,8.839,16.103,14.77,26.883,16.47c10.792,1.714,21.825-0.931,30.663-7.355l74.95-54.457
	c8.851-6.414,14.792-16.08,16.504-26.884c1.726-10.791-0.919-21.835-7.345-30.676l-17.458-23.996
	c20.644-22.803,38.771-47.767,54.065-74.456l28.317,9.195c21.631,7.011,44.859-4.84,51.886-26.471l28.63-88.133
	c3.379-10.389,2.493-21.697-2.472-31.447c-4.966-9.735-13.597-17.104-23.998-20.48l-28.319-9.161
	c3.333-30.583,3.333-61.432,0-92.013l28.319-9.16c10.392-3.39,19.011-10.757,23.963-20.493c4.953-9.747,5.841-21.056,2.448-31.437
	l-28.631-88.155c-7.045-21.596-30.238-33.408-51.846-26.412l-28.32,9.161c-15.298-26.688-33.421-51.652-54.063-74.455l17.424-23.964
	c6.437-8.85,9.092-19.883,7.379-30.675c-1.713-10.805-7.644-20.47-16.48-26.895l-74.973-54.502
	c-18.4-13.343-44.122-9.263-57.489,9.115l-17.458,24.021c-28.056-12.654-57.41-22.205-87.534-28.503V51.373
	c0-10.931-4.344-21.4-12.066-29.125c-7.725-7.724-18.194-12.068-29.125-12.068h-92.685c-22.744,0-41.191,18.447-41.191,41.192
	v29.604c-30.122,6.299-59.479,15.85-87.534,28.503l-17.424-23.998c-6.425-8.838-16.103-14.769-26.883-16.47
	c-10.792-1.713-21.826,0.93-30.665,7.355l-74.948,54.459c-8.85,6.413-14.792,16.079-16.508,26.883
	c-1.724,10.792,0.919,21.837,7.345,30.676l17.458,23.998c-20.639,22.803-38.768,47.764-54.064,74.455l-28.32-9.16
	c-10.387-3.388-21.711-2.506-31.446,2.459c-9.735,4.954-17.102,13.585-20.481,23.976l-28.526,88.131
	c-3.391,10.378-2.505,21.688,2.448,31.437c4.954,9.735,13.574,17.104,23.964,20.493l28.32,9.16c-3.333,30.584-3.333,61.432,0,92.013
	l-28.32,9.161c-10.39,3.392-19.01,10.758-23.964,20.492C17.942,584.746,17.057,596.056,20.448,606.438L20.448,606.438z
	 M99.12,591.68v0.013c18.814-6.229,30.583-24.906,28.066-44.572c-4.126-31.744-4.126-63.892,0-95.636
	c2.494-19.643-9.286-38.295-28.09-44.491l-26.515-8.597l22.297-68.558l26.539,8.597c18.883,6.126,39.445-2.092,48.916-19.539
	c15.39-28.009,34.273-53.961,56.18-77.235c13.654-14.367,15.136-36.435,3.528-52.502l-16.424-22.573l58.341-42.376l16.378,22.573
	h-0.012c11.7,16.057,33.192,21.47,51.1,12.873c28.883-13.712,59.409-23.666,90.833-29.573c19.504-3.598,33.688-20.585,33.722-40.422
	V61.674h72.087v27.859c0.046,19.837,14.24,36.836,33.756,40.411c31.399,5.918,61.893,15.861,90.755,29.561
	c17.907,8.574,39.376,3.161,51.074-12.872l16.4-22.573l58.34,42.375l-16.425,22.573c-11.607,16.068-10.125,38.124,3.529,52.49
	c21.918,23.32,40.79,49.33,56.168,77.397c9.54,17.378,30.044,25.55,48.916,19.516l26.572-8.597l22.297,68.535l-26.538,8.62
	c-18.826,6.219-30.583,24.906-28.066,44.561c4.115,31.757,4.115,63.902,0,95.646c-2.494,19.644,9.275,38.299,28.09,44.492
	l26.516,8.597l-22.297,68.584l-26.724-8.598c-18.883-6.068-39.409,2.127-48.915,19.539c-15.39,28.055-34.262,54.053-56.18,77.362
	c-13.654,14.378-15.137,36.434-3.528,52.501l16.425,22.571l-58.342,42.376l-16.377-22.571h0.012
	c-11.7-16.058-33.192-21.471-51.101-12.872c-28.883,13.724-59.406,23.664-90.832,29.584c-19.504,3.586-33.685,20.572-33.722,40.409
	v27.86h-71.936v-27.86c-0.046-19.837-14.229-36.838-33.759-40.409c-31.412-5.92-61.926-15.851-90.798-29.563
	c-17.917-8.503-39.341-3.102-51.073,12.874l-16.401,22.573l-58.34-42.4l16.423-22.571c11.609-16.067,10.126-38.123-3.528-52.501
	c-21.917-23.311-40.787-49.321-56.167-77.39c-9.517-17.399-30.044-25.593-48.916-19.516l-26.539,8.62l-22.228-68.56L99.12,591.68z"
	/>
<path fill="#1B76FF" d="M500,834.023c88.764,0,173.895-35.263,236.66-98.027s98.027-147.896,98.027-236.66
	s-35.263-173.895-98.027-236.661C673.895,199.91,588.764,164.648,500,164.648s-173.896,35.262-236.66,98.027
	c-62.766,62.766-98.027,147.896-98.027,236.661c0.104,88.729,35.399,173.802,98.142,236.545
	C326.197,798.626,411.268,833.92,500,834.023z M591.396,767.086c-59.191,20.563-123.604,20.563-182.791,0v-61.789
	c0-21.331,17.285-38.617,38.617-38.617h105.556c21.332,0,38.618,17.286,38.618,38.617V767.086z M454.946,544.368
	c0.011-11.954,4.758-23.401,13.205-31.85c8.46-8.447,19.919-13.183,31.855-13.183c11.953,0,23.412,4.757,31.86,13.207
	c8.436,8.446,13.183,19.906,13.183,31.858c0,11.941-4.747,23.399-13.194,31.849c-8.459,8.447-19.905,13.194-31.858,13.194
	c-11.942-0.013-23.4-4.771-31.846-13.205c-8.438-8.448-13.194-19.907-13.205-31.85V544.368L454.946,544.368z M499.997,216.153
	c83.5-0.069,162.77,36.745,216.581,100.599c53.824,63.845,76.682,148.207,62.464,230.502
	c-14.218,82.28-64.053,154.077-136.162,196.182v-38.123c-0.067-21.931-8.148-43.078-22.723-59.468
	c-14.574-16.391-34.617-26.896-56.397-29.539c19.769-17.377,31.572-42.075,32.688-68.37c1.126-26.297-8.541-51.907-26.745-70.905
	c-18.218-19.01-43.388-29.742-69.708-29.742c-26.316,0-51.49,10.735-69.705,29.742c-18.205,18.999-27.871,44.605-26.745,70.905
	c1.115,26.297,12.919,50.996,32.688,68.37c-21.779,2.645-41.827,13.148-56.397,29.539c-14.577,16.39-22.656,37.537-22.726,59.468
	v38.122c-72.109-42.104-121.941-113.899-136.159-196.181c-14.218-82.296,8.643-166.657,62.464-230.502
	C337.227,252.898,416.497,216.081,499.997,216.153L499.997,216.153z"/>
<path fill="#1B76FF" d="M438.515,358.783l-5.689,33.262c-1.645,9.654,2.333,19.401,10.264,25.147
	c7.919,5.758,18.424,6.517,27.089,1.954l29.814-15.678l29.858,15.678h0.013c8.666,4.573,19.192,3.826,27.125-1.932
	c7.941-5.758,11.919-15.539,10.252-25.205l-5.713-33.239l24.147-23.527c7.021-6.838,9.55-17.068,6.517-26.389
	c-3.022-9.321-11.079-16.125-20.779-17.527l-33.469-4.839l-14.932-30.25c-4.825-8.172-13.597-13.183-23.078-13.183
	c-9.493,0-18.263,5.011-23.09,13.183l-14.906,30.228l-33.47,4.839c-9.631,1.437-17.631,8.206-20.652,17.47
	c-3.022,9.264-0.564,19.435,6.366,26.297L438.515,358.783z M500.017,325.024c3.219,4.505,7.805,7.85,13.079,9.528
	c-3.287,4.471-5.035,9.896-4.987,15.448c-2.621-0.874-5.356-1.311-8.114-1.311c-2.747-0.011-5.471,0.437-8.081,1.311
	c0-5.575-1.804-11-5.148-15.448c5.368-1.632,10.069-4.976,13.355-9.528H500.017z"/>
</svg>
