<?xml version="1.0" encoding="utf-8"?>
<!-- Generator: Adobe Illustrator 16.0.0, SVG Export Plug-In . SVG Version: 6.00 Build 0)  -->
<!DOCTYPE svg PUBLIC "-//W3C//DTD SVG 1.1//EN" "http://www.w3.org/Graphics/SVG/1.1/DTD/svg11.dtd">
<svg version="1.1" id="Layer_1" xmlns="http://www.w3.org/2000/svg" xmlns:xlink="http://www.w3.org/1999/xlink" x="0px" y="0px"
	 width="1000px" height="1000px" viewBox="0 0 1000 1000" enable-background="new 0 0 1000 1000" xml:space="preserve">
<g>
	<path fill="#FFFFFF" d="M141.875,7.583c-11.194,0-22.379,11.194-22.379,22.381v940.073c0,11.718,10.664,22.381,22.379,22.381
		h716.247c11.717,0,22.381-10.663,22.381-22.381V276.174c0.047-5.957-2.404-11.897-6.644-16.089l-246.21-246.21
		c-4.169-4.028-9.945-6.339-15.737-6.292H141.875z M164.257,52.345h425.271v223.827c0,12.365,10.022,22.389,22.381,22.389h223.826
		v649.098h-671.48L164.257,52.345z M634.293,83.821l169.97,169.97h-169.97V83.821L634.293,83.821z M471.669,388.085
		c-10.765,0.227-17.854,6.542-21.335,16.089l-11.194,38.822c-5.27,1.92-10.375,4.27-15.387,6.643l-35.324-19.586
		c-8.431-4.854-20.024-3.349-26.934,3.498l-39.514,39.868c-6.801,6.776-8.447,18.15-3.85,26.581l19.586,34.974
		c-2.498,5.23-4.645,10.57-6.644,16.089l-38.823,10.845c-9.274,2.716-16.175,12.021-16.089,21.686V639.9
		c-0.086,9.655,6.815,18.97,16.089,21.688l38.823,11.194c1.959,5.37,4.216,10.632,6.644,15.736l-19.586,34.974
		c-4.598,8.43-2.951,19.804,3.85,26.581l39.514,39.866c6.823,6.955,18.431,8.609,26.934,3.849l34.972-19.587
		c5.198,2.475,10.608,4.66,16.089,6.644l10.843,38.471c2.561,9.29,11.702,16.331,21.337,16.439h56.659
		c9.634-0.108,18.773-7.149,21.335-16.439l10.844-38.471c5.479-1.982,10.891-4.169,16.089-6.644l34.974,19.587
		c8.501,4.771,20.104,3.106,26.935-3.849l39.514-39.866c6.801-6.775,8.447-18.149,3.85-26.581l-19.586-34.973
		c2.428-5.105,4.69-10.367,6.644-15.737l38.821-11.194c9.272-2.717,16.177-12.021,16.091-21.688V583.59
		c0.086-9.654-6.817-18.97-16.091-21.686l-38.821-10.844c-1.999-5.52-4.146-10.858-6.644-16.09l19.586-34.974
		c4.599-8.431,2.951-19.805-3.85-26.581l-39.514-39.868c-6.909-6.846-18.502-8.353-26.935-3.498l-35.324,19.586
		c-5.012-2.373-10.117-4.723-15.387-6.643l-11.194-38.822c-2.686-9.157-11.787-16.026-21.335-16.089h-56.66V388.085z
		 M488.804,432.847h22.382l9.445,32.521c2.077,7.284,8.104,13.31,15.387,15.387c10.844,2.99,21.43,7.424,31.122,12.943
		c6.604,3.653,15.082,3.653,21.688,0l29.728-16.44l16.089,15.738l-16.783,29.728c-3.678,6.744-3.536,15.409,0.352,22.027
		c5.52,9.703,9.953,19.93,12.943,30.773c1.975,7.407,8.023,13.599,15.386,15.736l32.521,9.446v22.381l-32.521,9.095
		c-7.369,2.14-13.411,8.329-15.386,15.737c-2.99,10.844-7.425,21.086-12.943,30.772c-3.888,6.629-4.021,15.285-0.352,22.027
		l16.783,29.729l-16.089,15.736l-29.728-16.439c-6.604-3.653-15.082-3.653-21.688,0c-9.694,5.52-20.278,9.954-31.122,12.942
		c-7.282,2.077-13.31,8.104-15.387,15.388l-9.445,32.873h-22.382l-9.444-32.873c-2.076-7.283-8.104-13.311-15.388-15.388
		c-10.843-2.988-21.431-7.424-31.124-12.942c-6.604-3.653-15.082-3.653-21.687,0l-29.728,16.439l-16.089-15.736l16.784-29.729
		c3.677-6.744,3.537-15.409-0.351-22.027c-5.52-9.694-9.953-19.93-12.943-30.772c-1.975-7.408-8.025-13.599-15.386-15.737
		l-32.522-9.095v-22.381l32.522-9.446c7.369-2.139,13.411-8.329,15.386-15.736c2.99-10.845,7.424-21.078,12.943-30.773
		c3.888-6.628,4.02-15.285,0.351-22.027l-16.784-29.728l16.089-15.738l29.728,16.44c6.604,3.653,15.082,3.653,21.687,0
		c9.695-5.52,20.281-9.953,31.124-12.943c7.283-2.077,13.312-8.103,15.388-15.387L488.804,432.847z M499.999,522.38
		c-49.181,0-89.533,40.353-89.533,89.532s40.351,89.532,89.533,89.532c49.181,0,89.532-40.353,89.532-89.532
		S549.18,522.38,499.999,522.38z M499.999,567.142c24.988,0,44.76,19.774,44.76,44.762c0,24.986-19.772,44.76-44.76,44.76
		c-24.989,0-44.763-19.773-44.763-44.76C455.236,586.916,475.01,567.142,499.999,567.142z"/>
</g>
<path fill="#FFFFFF" stroke="#FFFFFF" stroke-width="2" stroke-miterlimit="10" d="M328.699,266.078
	c0-10.303-8.39-18.699-18.699-18.699c-31.504,0-57.122-25.619-57.122-57.121c0-24.758,15.83-45.875,37.91-53.799v-19.908
	c0-10.609,8.611-19.221,19.219-19.221c10.61,0,19.221,8.611,19.221,19.221v19.908c22.062,7.906,37.902,29.043,37.902,53.783
	c0,10.609-8.611,19.221-19.221,19.221c-10.607,0-19.219-8.611-19.219-19.221c0-10.303-8.39-18.697-18.7-18.697
	c-10.302,0-18.682,8.387-18.682,18.697c0,10.303,8.38,18.682,18.682,18.682c31.502,0,57.131,25.625,57.131,57.131
	c0,24.756-15.832,45.875-37.902,53.783v27.217c0,10.607-8.61,19.221-19.22,19.221c-10.608,0-19.221-8.613-19.221-19.221v-27.217
	c-22.062-7.906-37.91-29.027-37.91-53.783c0-10.609,8.611-19.221,19.22-19.221s19.221,8.611,19.221,19.221
	c0,10.301,8.38,18.682,18.682,18.682c10.318,0.033,18.708-8.348,18.708-18.656V266.078z"/>
</svg>
