<?xml version="1.0" encoding="utf-8"?>
<!-- Generator: Adobe Illustrator 16.0.0, SVG Export Plug-In . SVG Version: 6.00 Build 0)  -->
<!DOCTYPE svg PUBLIC "-//W3C//DTD SVG 1.1//EN" "http://www.w3.org/Graphics/SVG/1.1/DTD/svg11.dtd">
<svg version="1.1" id="Layer_1" xmlns="http://www.w3.org/2000/svg" xmlns:xlink="http://www.w3.org/1999/xlink" x="0px" y="0px"
	 width="1000px" height="1000px" viewBox="0 0 1000 1000" enable-background="new 0 0 1000 1000" xml:space="preserve">
<g>
	<path fill="#FFFFFF" stroke="#FFFFFF" stroke-width="2" stroke-miterlimit="10" d="M957.052,659.154L831.42,363.593
		c-4.749-11.181-13.593-19.834-24.906-24.411c-11.296-4.556-23.687-4.45-34.858,0.291l-57.296,24.358
		c-23.124,9.83-33.94,36.625-24.104,59.75l0.804,1.89c-50.973,18.118-81.961,25.403-156.23,14.86
		c-22.496-3.199-54.429,4.849-99.352,25.203c-1.882-0.438-3.846-0.604-5.867-0.463c-30.441,2.379-51.701-6.102-98.224-24.675
		c-7.565-3.018-15.747-6.281-24.656-9.771l3.009-7.053c4.749-11.182,4.848-23.557,0.289-34.86
		c-4.559-11.296-13.229-20.148-24.393-24.889l-57.296-24.359c-11.181-4.749-23.555-4.85-34.859-0.289
		c-11.314,4.558-20.149,13.229-24.906,24.391L42.934,659.15c-9.82,23.123,0.979,49.928,24.103,59.75l57.296,24.356
		c5.793,2.461,11.818,3.621,17.762,3.621c13.328,0,26.174-5.875,34.868-16.152c0.804,0.523,1.574,1.021,2.279,1.468
		c9.308,5.991,9.308,5.991,11.794,8.61c1.84,1.939,4.741,4.974,9.83,9.896l-9.805,16.981c-6.764,11.711-8.546,25.39-5.031,38.509
		c3.514,13.118,11.909,24.067,23.621,30.83l3.422,1.973c7.75,4.477,16.197,6.672,24.567,6.789c0.265,1.5,0.597,3.008,0.993,4.5
		c3.516,13.121,11.911,24.067,23.623,30.83l3.405,1.965c10.262,5.926,22.022,8.021,33.608,6.1
		c3.988,10.607,11.529,19.957,22.088,26.06l3.424,1.973c13.708,7.914,30.26,7.119,44.706,1.094
		c4.275,7.068,10.344,13.179,17.978,17.597l3.422,1.971c7.982,4.609,16.693,6.789,25.296,6.789c8.835,0,17.57-2.313,25.254-6.688
		l24.542,17.919c22.369,16.327,42.334,24.541,59.663,24.541c7.526,0,14.563-1.55,21.069-4.658
		c12.342-5.894,21.791-17.463,27.262-32.646c5.835,1.633,11.703,2.471,17.479,2.471c9.118,0,18.02-2.063,26.175-6.231
		c16.26-8.322,27.433-23.65,31.751-42.654c13.154-0.008,26.515-3.506,37.845-10.551c16.602-10.318,26.58-26.223,29.023-45.295
		c0.397,0.01,0.788,0.051,1.179,0.051c3.355,0,6.753-0.266,10.146-0.789c17.097-2.668,32.09-11.785,42.252-25.692
		c13.02-17.818,15.54-40.146,8.752-59.539c6.239-2.306,12.54-5.105,18.674-8.769c8.486-5.057,16.243-11.432,23.632-18.233
		c4.973,6.92,11.792,12.356,19.932,15.631c5.528,2.229,11.32,3.348,17.1,3.348c6.022,0,12.053-1.209,17.762-3.639l57.296-24.359
		c11.164-4.748,19.833-13.592,24.394-24.889c4.542-11.287,4.45-23.668-0.308-34.834L957.052,659.154z M139.362,707.896
		l-57.296-24.357c-3.556-1.516-5.287-5.793-3.771-9.348l125.65-295.562c0.995-2.33,2.877-3.373,3.904-3.797
		c0.605-0.24,1.566-0.529,2.727-0.529c0.82,0,1.748,0.148,2.719,0.555l57.297,24.357c2.328,0.994,3.373,2.875,3.795,3.903
		c0.414,1.028,0.969,3.116-0.024,5.444L148.711,704.125c-1.508,3.549-5.784,5.289-9.346,3.771H139.362z M251.926,797.508
		c-1.053,1.104-1.998,2.338-2.785,3.713c-3.348,5.795-11.056,7.857-16.842,4.511l-3.422-1.974c-2.826-1.625-4.85-4.293-5.711-7.492
		c-0.861-3.198-0.439-6.522,1.201-9.35l32.722-56.691c1.626-2.825,4.294-4.848,7.493-5.711c1.078-0.289,2.18-0.438,3.266-0.438
		c2.121,0,4.211,0.547,6.074,1.625l3.424,1.971c2.826,1.625,4.85,4.295,5.71,7.492c0.862,3.199,0.44,6.523-1.202,9.35
		c-1.018,1.773-1.731,3.64-2.146,5.529c-1.201,1.598-2.304,3.281-3.323,5.031L251.926,797.508z M332.139,795.08l-25.965,44.979
		c-1.732,1.437-3.249,3.193-4.434,5.248c-1.625,2.826-4.293,4.849-7.493,5.711c-3.198,0.861-6.522,0.438-9.349-1.202l-3.406-1.964
		c-2.826-1.625-4.85-4.293-5.711-7.493c-0.861-3.199-0.439-6.521,1.203-9.349l32.736-56.69c1.625-2.826,4.293-4.851,7.494-5.711
		c1.076-0.289,2.179-0.439,3.264-0.439c2.123,0,4.212,0.547,6.076,1.625l3.424,1.973c5.783,3.349,7.857,11.056,4.509,16.843
		c-1.22,2.069-1.981,4.268-2.347,6.473h-0.001V795.08z M393.579,822.746c-0.787,1.367-1.394,2.785-1.815,4.242l-22.853,39.602
		c-1.657,2.877-3.009,5.844-4.052,8.877c-2.064,2.646-5.9,5.719-10.875,7.617c-5.091,1.932-8.752,1.574-9.979,0.871l-3.424-1.973
		c-5.785-3.351-7.857-11.058-4.509-16.843l32.74-56.69c2.255-3.904,6.498-6.109,10.8-6.109c2.071,0,4.16,0.506,6.043,1.6
		l3.422,1.974C394.847,809.252,396.91,816.969,393.579,822.746L393.579,822.746z M419.463,905.809
		c-3.217,0.863-6.522,0.441-9.35-1.184l-3.422-1.973c-5.785-3.351-7.857-11.058-4.511-16.843l32.738-56.692
		c1.625-2.826,4.293-4.851,7.492-5.709c1.078-0.291,2.181-0.441,3.267-0.441c2.12,0,4.21,0.547,6.075,1.625l3.422,1.974
		c2.826,1.625,4.851,4.293,5.711,7.491c0.862,3.199,0.439,6.523-1.201,9.351l-32.737,56.69c-1.633,2.826-4.285,4.855-7.484,5.709
		V905.809z M738.768,791.805c-4.095,5.613-10.186,9.302-17.131,10.379c-6.944,1.076-13.874-0.58-19.469-4.684l-76.518-55.879
		c-8.568-6.258-20.597-4.394-26.852,4.186c-6.258,8.57-4.393,20.597,4.188,26.854l75.265,54.975
		c1.075,11.861-2.702,20.572-11.313,25.935c-10.089,6.266-25.04,6.424-33.354,0.364l-65.436-47.797
		c-8.568-6.258-20.596-4.393-26.854,4.187c-6.258,8.569-4.393,20.596,4.187,26.854l65.449,47.797
		c0.475,0.342,0.973,0.631,1.46,0.963c-1.49,9.017-5.817,15.979-12.225,19.263c-7.916,4.035-18.408,2.021-28.783-5.556
		l-44.742-32.672c-8.568-6.258-20.596-4.393-26.852,4.187c-6.257,8.569-4.392,20.598,4.186,26.854l35.604,26.011
		c-1.814,8.545-5.313,15.2-9.373,17.131c-5.634,2.692-19.511-0.158-41.514-16.222l-22.246-16.244l26.565-46.016
		c6.765-11.711,8.545-25.389,5.031-38.508c-3.515-13.119-11.91-24.068-23.621-30.83L471,791.357
		c-11.711-6.763-25.389-8.543-38.506-5.029c-2.445,0.654-4.824,1.475-7.104,2.469c-4.293-6.58-10.087-12.1-17.073-16.129
		l-3.423-1.971c-10.559-6.103-22.428-7.965-33.625-6.109c-4.118-10.998-11.818-20.125-22.079-26.059l-3.425-1.974
		c-7.592-4.393-16.012-6.68-24.573-6.787c-0.266-1.5-0.597-3.008-0.994-4.5c-3.515-13.12-11.91-24.067-23.604-30.83l-3.423-1.973
		c-11.711-6.764-25.387-8.545-38.506-5.031c-13.119,3.515-24.07,11.91-30.832,23.621l-3.043,5.271
		c-0.729-0.754-1.334-1.394-1.881-1.966c-5.66-5.942-7.153-6.911-18.83-14.43c-1.733-1.119-3.772-2.428-6.102-3.928l97.734-229.915
		c9.217,3.596,17.663,6.97,25.462,10.087c26.895,10.732,47.151,18.805,66.462,23.413c-4.003,4.667-7.807,9.63-11.661,14.687
		l-1.683,2.205c-8.172,10.666-23.488,30.326-34.105,42.013c-1.965,2.172-3.756,4.037-5.369,5.719
		c-7.104,7.434-13.825,14.439-16.659,27.119c-3.31,14.795-0.979,36.252,11.677,50.84c10.824,12.49,29.647,19.935,50.368,19.935
		h0.166c17.894-0.033,31.934-6.201,48.791-16.13c2.91-1.707,6.001-3.598,9.268-5.586c13.85-8.455,31.072-18.973,47.613-23.521
		c58.914-16.221,148.597,56.397,207.939,104.463c15.616,12.646,30.386,24.6,43.142,33.922c11.603,8.469,14.157,24.889,5.651,36.551
		H738.768z M777.539,713.143c-7.188,4.293-15.302,7.029-23.92,9.449c-11.553-8.561-25.141-19.543-39.499-31.18
		c-69.365-56.17-164.38-133.115-242.328-111.65c-21.748,5.992-41.54,18.068-57.444,27.775c-3.084,1.883-6.001,3.664-8.745,5.289
		c-15.474,9.115-22.028,10.789-29.363,10.797h-0.084c-9.009,0-17.97-2.801-21.325-6.68c-3.216-3.711-4.343-12.177-3.198-17.265
		c0.414-1.864,1.003-2.768,6.912-8.934c1.814-1.889,3.83-4.004,6.042-6.439c11.569-12.723,27.633-33.346,36.177-44.502l1.708-2.246
		c9.434-12.342,16.245-21.252,25.071-25.67c61.896-30.854,89.578-35.229,101.869-33.507c84.167,11.951,121.547,2.229,176.705-17.471
		L803.9,690.931c-9.011,8.9-17.64,17.023-26.356,22.211L777.539,713.143L777.539,713.143z M921.693,679.635
		c-0.422,1.027-1.467,2.924-3.795,3.902l-57.295,24.359c-2.331,0.993-4.41,0.438-5.446,0.024c-1.028-0.414-2.91-1.467-3.905-3.797
		L725.62,408.563c-1.518-3.556,0.216-7.832,3.771-9.35l57.297-24.356c2.329-0.994,4.409-0.439,5.444-0.025
		c1.029,0.415,2.91,1.467,3.905,3.797L921.67,674.189C922.656,676.518,922.108,678.598,921.693,679.635L921.693,679.635z
		 M772.094,420.122c-7.104,3.017-12.598,8.619-15.481,15.771c-2.886,7.154-2.812,15.002,0.206,22.105
		c3.017,7.095,8.619,12.598,15.771,15.482c3.489,1.408,7.152,2.112,10.8,2.112c3.828,0,7.667-0.777,11.298-2.313
		c7.096-3.018,12.599-8.62,15.48-15.771c2.885-7.153,2.81-15.002-0.207-22.104c-6.215-14.671-23.214-21.52-37.87-15.284
		L772.094,420.122L772.094,420.122z M787.128,455.488l-7.484-17.597L787.128,455.488c-4.849,2.063-10.478-0.208-12.54-5.057
		c-0.978-2.313-1.003-4.982-0.074-7.311c0.943-2.329,2.811-4.236,5.113-5.214c2.313-0.979,4.98-1.003,7.311-0.059
		c2.337,0.945,4.234,2.811,5.222,5.132C794.246,447.796,791.976,453.424,787.128,455.488z M227.871,420.122
		c-7.094-3.021-14.951-3.083-22.104-0.207c-7.152,2.885-12.756,8.386-15.772,15.482c-3.017,7.095-3.091,14.951-0.208,22.104
		c2.885,7.154,8.389,12.756,15.482,15.773c3.639,1.549,7.468,2.313,11.297,2.313c3.664,0,7.311-0.705,10.8-2.113
		c7.152-2.885,12.755-8.389,15.772-15.481c3.017-7.099,3.092-14.955,0.207-22.107C240.47,428.74,234.974,423.138,227.871,420.122
		L227.871,420.122L227.871,420.122z M225.369,450.431c-0.979,2.313-2.885,4.187-5.223,5.13c-2.328,0.945-4.996,0.92-7.309-0.073
		c-4.85-2.064-7.121-7.686-5.057-12.54c0.979-2.313,2.884-4.187,5.221-5.131c1.145-0.466,2.354-0.688,3.582-0.688
		c1.275,0,2.561,0.256,3.736,0.754c2.313,0.979,4.188,2.885,5.131,5.222C226.38,445.449,226.354,448.118,225.369,450.431
		L225.369,450.431z M518.66,235.029c0-10.302-8.389-18.698-18.698-18.698c-31.504,0-57.122-25.619-57.122-57.122
		c0-24.757,15.83-45.875,37.91-53.799V85.502c0-10.608,8.611-19.22,19.219-19.22c10.61,0,19.221,8.611,19.221,19.22v19.908
		c22.063,7.907,37.902,29.044,37.902,53.784c0,10.608-8.611,19.22-19.221,19.22c-10.607,0-19.219-8.611-19.219-19.22
		c0-10.303-8.39-18.698-18.699-18.698c-10.302,0-18.683,8.388-18.683,18.698c0,10.302,8.381,18.682,18.683,18.682
		c31.503,0,57.131,25.625,57.131,57.131c0,24.756-15.831,45.875-37.902,53.783v27.216c0,10.608-8.61,19.221-19.22,19.221
		s-19.221-8.612-19.221-19.221V288.79c-22.063-7.906-37.91-29.027-37.91-53.783c0-10.609,8.611-19.221,19.22-19.221
		c10.609,0,19.221,8.611,19.221,19.221c0,10.301,8.381,18.681,18.683,18.681c10.319,0.034,18.707-8.347,18.707-18.656
		L518.66,235.029L518.66,235.029z M499.978,381.994c99.915,0,181.214-81.287,181.214-181.21
		c0-99.924-81.299-181.212-181.214-181.212c-99.912,0-181.21,81.288-181.21,181.212
		C318.768,300.698,400.049,381.994,499.978,381.994z M499.978,58.002c78.725,0,142.781,64.051,142.781,142.78
		c0,78.721-64.058,142.772-142.78,142.772c-78.721,0-142.78-64.054-142.78-142.772C357.197,122.053,421.242,58.002,499.978,58.002z"
		/>
</g>
</svg>
