<?xml version="1.0" encoding="utf-8"?>
<!-- Generator: Adobe Illustrator 16.0.0, SVG Export Plug-In . SVG Version: 6.00 Build 0)  -->
<!DOCTYPE svg PUBLIC "-//W3C//DTD SVG 1.1//EN" "http://www.w3.org/Graphics/SVG/1.1/DTD/svg11.dtd">
<svg version="1.1" id="Layer_1" xmlns="http://www.w3.org/2000/svg" xmlns:xlink="http://www.w3.org/1999/xlink" x="0px" y="0px"
	 width="1000px" height="1000px" viewBox="0 0 1000 1000" enable-background="new 0 0 1000 1000" xml:space="preserve">
<g>
	<path fill="#1B76FF" d="M911.607,412.383c-10.779-50.349-30.699-98.298-58.773-141.461c14.359-23.14,17.457-51.543,8.416-77.23
		c-9.047-25.69-29.244-45.897-54.941-54.935c-25.688-9.047-54.09-5.951-77.231,8.409c-43.162-28.073-91.113-47.995-141.461-58.772
		c-6.287-26.482-24.222-48.707-48.777-60.446c-24.559-11.74-53.116-11.74-77.675,0c-24.559,11.74-42.49,33.964-48.778,60.446
		c-50.351,10.778-98.298,30.699-141.462,58.772c-23.141-14.359-51.544-17.456-77.232-8.409
		c-25.688,9.04-45.895,29.245-54.934,54.935c-9.039,25.688-5.951,54.09,8.408,77.23c-28.072,43.164-47.993,91.107-58.771,141.461
		c-26.48,6.287-48.705,24.224-60.445,48.779c-11.739,24.557-11.739,53.114,0,77.675c11.74,24.56,33.965,42.489,60.445,48.778
		c10.778,50.349,30.699,98.298,58.771,141.462c-14.359,23.142-17.455,51.544-8.408,77.231c9.039,25.688,29.246,45.896,54.934,54.936
		c25.688,9.037,54.092,5.95,77.232-8.409c43.164,28.071,91.107,47.993,141.462,58.771c6.288,26.479,24.221,48.706,48.778,60.445
		c24.559,11.739,53.115,11.739,77.675,0c24.558-11.739,42.49-33.966,48.777-60.445c50.35-10.778,98.299-30.691,141.461-58.771
		c23.143,14.359,51.545,17.456,77.231,8.416c25.689-9.047,45.896-29.246,54.937-54.94c9.047-25.688,5.949-54.092-8.41-77.232
		c28.074-43.164,47.994-91.107,58.773-141.462c26.479-6.288,48.705-24.222,60.442-48.78c11.74-24.556,11.74-53.113,0-77.673
		C960.313,436.604,938.088,418.672,911.607,412.383L911.607,412.383z M712.502,712.509c-11.887,11.965-20.17,27.037-23.91,43.486
		c-3.733,16.442-2.781,33.613,2.767,49.541c-33.966,21.329-71.246,36.841-110.316,45.895c-9.854-20.434-27.065-36.399-48.184-44.682
		c-21.125-8.286-44.587-8.286-65.711,0c-21.116,8.283-38.33,24.248-48.185,44.682c-39.071-9.054-76.351-24.563-110.313-45.895
		c7.506-21.337,6.661-44.735-2.378-65.479c-9.031-20.741-25.585-37.293-46.328-46.333c-20.743-9.031-44.142-9.883-65.485-2.37
		c-21.322-33.964-36.834-71.254-45.888-110.314c20.435-9.854,36.4-27.067,44.685-48.186c8.283-21.123,8.283-44.589,0-65.713
		c-8.284-21.114-24.25-38.328-44.685-48.182c9.054-39.064,24.565-76.351,45.896-110.315c15.914,5.665,33.112,6.685,49.592,2.942
		c16.473-3.75,31.543-12.106,43.444-24.096c11.887-11.967,20.171-27.04,23.913-43.488c3.734-16.443,2.78-33.612-2.767-49.542
		c33.964-21.329,71.253-36.84,110.313-45.895c9.854,20.434,27.067,36.4,48.184,44.684c21.123,8.284,44.587,8.284,65.712,0
		c21.116-8.284,38.33-24.25,48.184-44.684c39.072,9.054,76.35,24.565,110.314,45.895c-5.548,15.93-6.5,33.099-2.759,49.549
		c3.734,16.45,12.025,31.521,23.912,43.488c11.9,11.989,26.97,20.346,43.443,24.088c16.473,3.742,33.672,2.722,49.584-2.942
		c21.33,33.964,36.84,71.252,45.896,110.315c-20.434,9.854-36.399,27.066-44.684,48.182c-8.285,21.124-8.285,44.589,0,65.714
		c8.283,21.116,24.25,38.329,44.684,48.185c-9.055,39.063-24.563,76.352-45.896,110.315c-15.93-5.548-33.1-6.5-49.549-2.767
		c-16.451,3.742-31.521,12.033-43.486,23.918V712.509z M797.512,202.478c5.636,5.635,8.806,13.281,8.806,21.249
		c0,7.976-3.162,15.621-8.798,21.256c-5.635,5.635-13.28,8.805-21.247,8.805c-7.976,0-15.621-3.162-21.257-8.797
		c-5.633-5.635-8.805-13.28-8.805-21.249c0-7.976,3.162-15.621,8.797-21.256c5.644-5.627,13.281-8.783,21.25-8.783
		C784.227,193.695,791.871,196.857,797.512,202.478z M500,79.25c7.968,0,15.615,3.17,21.248,8.805
		c5.635,5.635,8.805,13.281,8.805,21.247c0,7.968-3.17,15.614-8.805,21.249c-5.635,5.635-13.281,8.805-21.248,8.805
		c-7.968,0-15.613-3.17-21.248-8.805c-5.634-5.635-8.805-13.281-8.805-21.249c0.007-7.968,3.176-15.606,8.812-21.242
		c5.636-5.635,13.273-8.805,21.243-8.812L500,79.25z M202.488,202.487c5.636-5.635,13.28-8.805,21.249-8.805
		c7.976,0,15.621,3.162,21.256,8.797c5.633,5.635,8.805,13.28,8.805,21.247c0,7.976-3.162,15.621-8.797,21.256
		c-5.635,5.635-13.281,8.805-21.249,8.805c-7.976,0-15.621-3.162-21.256-8.797c-5.628-5.642-8.783-13.28-8.79-21.249
		C193.706,215.773,196.868,208.127,202.488,202.487z M109.313,469.944c7.969,0,15.614,3.17,21.248,8.805
		c5.635,5.635,8.805,13.281,8.805,21.249c0,7.967-3.17,15.615-8.805,21.248c-5.636,5.633-13.281,8.805-21.248,8.805
		c-7.966,0-15.613-3.17-21.246-8.805c-5.635-5.635-8.805-13.28-8.805-21.248c0.007-7.968,3.177-15.606,8.812-21.243
		c5.636-5.635,13.273-8.805,21.241-8.813L109.313,469.944z M202.496,797.511c-5.636-5.635-8.806-13.28-8.806-21.248
		c0-7.977,3.163-15.622,8.798-21.257c5.636-5.633,13.28-8.805,21.249-8.805c7.976,0,15.621,3.162,21.256,8.798
		c5.635,5.635,8.805,13.28,8.805,21.248c0,7.977-3.162,15.621-8.797,21.257c-5.643,5.628-13.281,8.782-21.249,8.782
		C215.784,806.294,208.137,803.132,202.496,797.511z M500.008,920.739c-7.969,0-15.613-3.17-21.247-8.806
		c-5.636-5.636-8.805-13.28-8.805-21.246c0-7.97,3.169-15.614,8.805-21.25c5.636-5.633,13.28-8.805,21.247-8.805
		c7.968,0,15.613,3.17,21.25,8.805c5.633,5.636,8.805,13.28,8.805,21.25c-0.008,7.968-3.178,15.605-8.813,21.24
		c-5.635,5.636-13.273,8.806-21.244,8.813L500.008,920.739z M797.52,797.502c-5.635,5.635-13.28,8.805-21.247,8.805
		c-7.976,0-15.621-3.162-21.257-8.798c-5.633-5.635-8.805-13.28-8.805-21.246c0-7.977,3.162-15.622,8.797-21.257
		c5.638-5.633,13.281-8.805,21.25-8.805c7.976,0,15.621,3.162,21.254,8.798c5.627,5.642,8.791,13.28,8.791,21.248
		C806.303,784.216,803.146,791.861,797.52,797.502L797.52,797.502z M890.695,530.044c-7.97,0-15.613-3.169-21.248-8.805
		s-8.806-13.28-8.806-21.249c0-7.967,3.169-15.614,8.806-21.248c5.635-5.633,13.278-8.805,21.248-8.805
		c7.967,0,15.612,3.17,21.246,8.805c5.637,5.636,8.807,13.281,8.807,21.248c-0.008,7.968-3.178,15.605-8.813,21.244
		c-5.635,5.637-13.272,8.805-21.241,8.812L890.695,530.044z"/>
	<path fill="#1B76FF" d="M710.379,499.991c-0.498-22.775-10.037-44.42-26.51-60.166c16.436-15.717,25.975-37.312,26.51-60.049
		c0-68.53-90.438-120.214-210.375-120.214c-119.936,0-210.375,51.684-210.375,120.214c0.535,22.738,10.074,44.333,26.51,60.049
		c-16.875,15.438-26.495,37.252-26.51,60.129c-0.015,22.873,9.582,44.7,26.443,60.152c-16.436,15.73-25.944,37.354-26.443,60.1
		c0,68.53,90.439,120.215,210.375,120.215s210.375-51.685,210.375-120.215c-0.498-22.753-10.016-44.376-26.451-60.107
		C700.363,544.367,709.881,522.744,710.379,499.991z M500.004,319.669c91.73,0,150.268,35.601,150.268,60.107
		c0,24.507-58.537,60.107-150.268,60.107c-91.729,0-150.268-35.601-150.268-60.107C349.737,355.27,408.274,319.669,500.004,319.669z
		 M500.004,499.991c45.5,0.813,90.66-7.902,132.585-25.586c9.392,5.496,15.863,14.857,17.683,25.586
		c0,10.625-11.388,23.259-30.597,33.876c-37.164,18.343-78.244,27.346-119.671,26.229c-41.478,1.108-82.604-7.917-119.803-26.304
		c-19.078-10.544-30.465-23.179-30.465-33.803c1.818-10.729,8.291-20.09,17.683-25.586
		C409.344,492.088,454.506,500.805,500.004,499.991L500.004,499.991z M500.004,680.313c-91.729,0-150.268-35.601-150.268-60.106
		c1.834-10.757,8.342-20.148,17.771-25.644c41.911,17.639,87.028,26.369,132.497,25.644c45.47,0.733,90.591-7.997,132.511-25.637
		c9.422,5.495,15.931,14.88,17.756,25.637C650.271,644.712,591.734,680.313,500.004,680.313z"/>
</g>
</svg>
