<svg xmlns="http://www.w3.org/2000/svg" version="1.1" xmlns:xlink="http://www.w3.org/1999/xlink" xmlns:svgjs="http://svgjs.com/svgjs" width="512" height="512" x="0" y="0" viewBox="0 0 682.667 682.667" style="enable-background:new 0 0 512 512" xml:space="preserve"><g><defs><clipPath id="a" clipPathUnits="userSpaceOnUse"><path d="M0 512h512V0H0Z" fill="#545454" data-original="#000000" opacity="1"></path></clipPath></defs><g clip-path="url(#a)" transform="matrix(1.33333 0 0 -1.33333 0 682.667)"><path d="M0 0c6.76-6.34 3.452-17.394-3.023-23.875-7.303-7.312-19.026-7.026-26.584.027l-18.027 16.85" style="stroke-width:20.176;stroke-linecap:round;stroke-linejoin:round;stroke-miterlimit:10;stroke-dasharray:none;stroke-opacity:1" transform="translate(274.875 39.249)" fill="none" stroke="#545454" stroke-width="20.176" stroke-linecap="round" stroke-linejoin="round" stroke-miterlimit="10" stroke-dasharray="none" stroke-opacity="" data-original="#000000" opacity="1"></path><path d="M0 0c1.883 1.713 3.766 3.056 5.647 4.026 17.971 9.595 33.659-12.537 19.824-24.96L12.094-32.959C-7.245-50.322-28.21-25.446-12.722-11.481" style="stroke-width:20.176;stroke-linecap:round;stroke-linejoin:round;stroke-miterlimit:10;stroke-dasharray:none;stroke-opacity:1" transform="translate(211.182 61.64)" fill="none" stroke="#545454" stroke-width="20.176" stroke-linecap="round" stroke-linejoin="round" stroke-miterlimit="10" stroke-dasharray="none" stroke-opacity="" data-original="#000000" opacity="1"></path><path d="m0 0 70.967-63.116c28.523-25.361-1.825-55.378-26.556-28.275" style="stroke-width:20.176;stroke-linecap:round;stroke-linejoin:round;stroke-miterlimit:10;stroke-dasharray:none;stroke-opacity:1" transform="translate(292.446 174.964)" fill="none" stroke="#545454" stroke-width="20.176" stroke-linecap="round" stroke-linejoin="round" stroke-miterlimit="10" stroke-dasharray="none" stroke-opacity="" data-original="#000000" opacity="1"></path><path d="m0 0 38.08-37.643c7.359-7.253 7.302-19.305 0-26.617-7.302-7.311-20.338-7.425-27.497.03L8.7-62.289" style="stroke-width:20.176;stroke-linecap:round;stroke-linejoin:round;stroke-miterlimit:10;stroke-dasharray:none;stroke-opacity:1" transform="translate(298.778 121.216)" fill="none" stroke="#545454" stroke-width="20.176" stroke-linecap="round" stroke-linejoin="round" stroke-miterlimit="10" stroke-dasharray="none" stroke-opacity="" data-original="#000000" opacity="1"></path><path d="m0 0 27.839-27.874c13.178-13.224-5.248-45.61-30.093-22.276l-11.922 11.223" style="stroke-width:20.176;stroke-linecap:round;stroke-linejoin:round;stroke-miterlimit:10;stroke-dasharray:none;stroke-opacity:1" transform="translate(279.896 86.8)" fill="none" stroke="#545454" stroke-width="20.176" stroke-linecap="round" stroke-linejoin="round" stroke-miterlimit="10" stroke-dasharray="none" stroke-opacity="" data-original="#000000" opacity="1"></path><path d="m0 0-82.205 105.3c-6.361 8.169-18.312 9.711-26.556 3.455l-53.796-41.01c-8.242-6.283-9.783-18.08-3.394-26.247l82.177-105.299c6.389-8.169 18.341-9.711 26.556-3.428l53.824 40.983C4.85-19.963 6.361-8.168 0 0Z" style="stroke-width:20.176;stroke-linecap:round;stroke-linejoin:round;stroke-miterlimit:10;stroke-dasharray:none;stroke-opacity:1" transform="translate(493.566 216.918)" fill="none" stroke="#545454" stroke-width="20.176" stroke-linecap="round" stroke-linejoin="round" stroke-miterlimit="10" stroke-dasharray="none" stroke-opacity="" data-original="#000000" opacity="1"></path><path d="M0 0c-11.781-21.876-14.946-25.017-42.215-46.58m-70.967 63.116-20.452 18.622-32.774-16.251c-27.525-12.165-57.931 21.906-14.09 50.35l31.69 20.564c21.877 14.222 44.383 13.595 70.738 10.224" style="stroke-width:20.176;stroke-linecap:round;stroke-linejoin:round;stroke-miterlimit:10;stroke-dasharray:none;stroke-opacity:1" transform="translate(405.628 158.428)" fill="none" stroke="#545454" stroke-width="20.176" stroke-linecap="round" stroke-linejoin="round" stroke-miterlimit="10" stroke-dasharray="none" stroke-opacity="" data-original="#000000" opacity="1"></path><path d="m0 0 16.829-23.048M152.374 98.587l-67.231 10.282" style="stroke-width:20.176;stroke-linecap:round;stroke-linejoin:round;stroke-miterlimit:10;stroke-dasharray:none;stroke-opacity:1" transform="translate(100.282 146.977)" fill="none" stroke="#545454" stroke-width="20.176" stroke-linecap="round" stroke-linejoin="round" stroke-miterlimit="10" stroke-dasharray="none" stroke-opacity="" data-original="#000000" opacity="1"></path><path d="M0 0c21.536 19.021 44.525-9.796 27.669-24.647l-31.89-28.047c-17.342-15.308-39.819 11.91-25.301 25.905 2.653 2.541 1.084 1.112 1.684 1.655C-27.211-24.591 0 0 0 0Z" style="stroke-width:20.176;stroke-linecap:round;stroke-linejoin:round;stroke-miterlimit:10;stroke-dasharray:none;stroke-opacity:1" transform="translate(172.532 124.558)" fill="none" stroke="#545454" stroke-width="20.176" stroke-linecap="round" stroke-linejoin="round" stroke-miterlimit="10" stroke-dasharray="none" stroke-opacity="" data-original="#000000" opacity="1"></path><path d="m0 0 34.057 30.273c21.507 19.078 44.04-9.168 27.382-24.218L55.421.629 23.817-27.874C5.99-43.982-16.629-14.766 0 0Z" style="stroke-width:20.176;stroke-linecap:round;stroke-linejoin:round;stroke-miterlimit:10;stroke-dasharray:none;stroke-opacity:1" transform="translate(117.11 123.929)" fill="none" stroke="#545454" stroke-width="20.176" stroke-linecap="round" stroke-linejoin="round" stroke-miterlimit="10" stroke-dasharray="none" stroke-opacity="" data-original="#000000" opacity="1"></path><path d="M0 0c21.507 19.05 43.699-8.797 27.041-23.848l-29.437-26.56c-16.885-15.25-42.243 11.109-23.189 27.903l3.366 2.942" style="stroke-width:20.176;stroke-linecap:round;stroke-linejoin:round;stroke-miterlimit:10;stroke-dasharray:none;stroke-opacity:1" transform="translate(198.09 98.054)" fill="none" stroke="#545454" stroke-width="20.176" stroke-linecap="round" stroke-linejoin="round" stroke-miterlimit="10" stroke-dasharray="none" stroke-opacity="" data-original="#000000" opacity="1"></path><path d="M0 0c0-37.612 20.965-70.343 51.828-87.077a98.552 98.552 0 0 1 46.95-11.854c54.566 0 98.805 44.297 98.805 98.931 0 39.499-23.161 73.627-56.619 89.448-12.778 6.055-27.097 9.453-42.186 9.453C44.211 98.901 0 54.606 0 0Z" style="stroke-width:20.176;stroke-linecap:round;stroke-linejoin:round;stroke-miterlimit:10;stroke-dasharray:none;stroke-opacity:1" transform="translate(149.77 403.099)" fill="none" stroke="#545454" stroke-width="20.176" stroke-linecap="round" stroke-linejoin="round" stroke-miterlimit="10" stroke-dasharray="none" stroke-opacity="" data-original="#000000" opacity="1"></path><path d="M0 0c0-7.797-2.253-14.051-6.759-18.765-4.479-4.712-9.955-7.825-16.345-9.309v-14.195c0-4.854-4.135-8.853-9.013-8.853-4.85 0-8.814 3.999-8.814 8.853v14.109c-3.994.886-7.587 2.371-10.811 4.426-3.308 2.114-5.619 3.97-6.903 5.571l-1.968 2.541C-68.77-4.941-55.307 6.482-47.492-1.742c.97-1 1.969-2.2 3.109-3.485 3.281-3.656 8.073-4.227 11.981-4.227 7.387 0 11.095 3.057 11.095 9.168 0 2.199-1.398 3.884-4.193 5.084-2.795 1.227-6.19 2.284-10.211 3.256-3.994.942-7.987 2.227-11.98 3.827-4.021 1.598-7.416 4.342-10.212 8.253-2.795 3.913-4.192 8.853-4.192 14.881 0 5.996 1.91 11.365 5.676 16.221 3.736 4.769 9.127 7.996 15.63 9.282v12.108c0 4.856 3.994 8.853 8.843 8.853 4.877 0 8.842-3.997 8.842-8.853V60.375c2.795-.6 5.362-1.429 7.644-2.542 2.311-1.114 3.908-2 4.821-2.713l1.341-1.2c11.608-8.711.399-24.133-9.613-15.708-6.788 5.713-22.191 6.997-22.191-3.512 0-2.2 1.027-3.97 3.081-5.342 2.053-1.34 4.563-2.254 7.558-2.684 3.023-.456 6.304-1.2 9.898-2.256 3.623-1.056 6.903-2.283 9.926-3.684 2.995-1.399 5.505-3.883 7.559-7.425C-1.026 9.738 0 5.312 0 0" style="fill-opacity:1;fill-rule:nonzero;stroke:none" transform="translate(280.123 388.477)" fill="#545454" data-original="#000000" opacity="1"></path><path d="m0 0 .114.143" style="stroke-width:20.176;stroke-linecap:round;stroke-linejoin:round;stroke-miterlimit:10;stroke-dasharray:none;stroke-opacity:1" transform="translate(56.727 261.957)" fill="none" stroke="#545454" stroke-width="20.176" stroke-linecap="round" stroke-linejoin="round" stroke-miterlimit="10" stroke-dasharray="none" stroke-opacity="" data-original="#000000" opacity="1"></path><path d="m0 0 19.596 25.104c6.389 8.168 18.341 9.71 26.555 3.428l53.826-40.983c8.241-6.284 9.754-18.079 3.394-26.248L21.165-143.997c-6.361-8.168-18.312-9.71-26.556-3.456l-53.796 41.012c-8.243 6.283-9.784 18.078-3.394 26.246l13.977 17.906" style="stroke-width:20.176;stroke-linecap:round;stroke-linejoin:round;stroke-miterlimit:10;stroke-dasharray:none;stroke-opacity:1" transform="translate(81.028 293.087)" fill="none" stroke="#545454" stroke-width="20.176" stroke-linecap="round" stroke-linejoin="round" stroke-miterlimit="10" stroke-dasharray="none" stroke-opacity="" data-original="#000000" opacity="1"></path></g></g></svg>