<?xml version="1.0" encoding="utf-8"?>
<!-- Generator: Adobe Illustrator 16.0.0, SVG Export Plug-In . SVG Version: 6.00 Build 0)  -->
<!DOCTYPE svg PUBLIC "-//W3C//DTD SVG 1.1//EN" "http://www.w3.org/Graphics/SVG/1.1/DTD/svg11.dtd">
<svg version="1.1" id="Layer_1" xmlns="http://www.w3.org/2000/svg" xmlns:xlink="http://www.w3.org/1999/xlink" x="0px" y="0px"
	 width="1000px" height="1000px" viewBox="0 0 1000 1000" enable-background="new 0 0 1000 1000" xml:space="preserve">
<path fill="#1B76FF" d="M101.063,108.344c-43.319,0-79.079,35.758-79.079,79.079v625.154c0,43.321,35.76,79.079,79.079,79.079
	h797.875c43.319,0,79.077-35.758,79.077-79.079V187.423c0-43.321-35.758-79.079-79.077-79.079H101.063z M101.063,164.577h797.875
	c13.141,0,22.791,9.705,22.791,22.846v92.972H78.226v-92.972c0-13.141,9.705-22.846,22.846-22.846H101.063L101.063,164.577z
	 M149.445,191.761c-7.492-0.031-14.686,2.934-19.989,8.237c-5.295,5.296-8.261,12.497-8.229,19.989
	c0.023,7.461,3.013,14.6,8.309,19.848c5.295,5.257,12.458,8.19,19.91,8.159h43.384c7.461,0.031,14.623-2.902,19.92-8.159
	c5.294-5.248,8.285-12.387,8.314-19.848c0.023-7.492-2.94-14.693-8.237-19.989c-5.304-5.304-12.497-8.269-19.997-8.237H149.445z
	 M275.807,191.761c-7.453,0.031-14.592,3.021-19.849,8.315c-5.248,5.288-8.183,12.45-8.15,19.911
	c0.055,15.439,12.56,27.944,27.997,28.005h43.603c15.447-0.063,27.952-12.567,28.015-28.005c0.023-7.461-2.91-14.623-8.158-19.911
	c-5.257-5.295-12.396-8.284-19.855-8.315H275.807z M78.218,336.628h843.506v475.955c0,13.141-9.648,22.792-22.792,22.792H101.06
	c-13.141,0-22.846-9.649-22.846-22.792L78.218,336.628z M278.11,417.793h0.008c-7.46,0.031-14.6,3.021-19.855,8.316
	c-5.248,5.287-8.183,12.449-8.151,19.909c0.056,15.439,12.561,27.944,28.007,28.006h46.074l50.248,175.183
	c0.165,0.519,0.354,1.028,0.549,1.538c0.087,0.235,0.181,0.479,0.274,0.714c4.229,11.124,15.007,18.389,26.908,18.122H617.89
	c12.034-0.023,22.726-7.712,26.577-19.11l47.723-140.914c2.918-8.582,1.528-18.043-3.742-25.409
	c-5.272-7.374-13.776-11.761-22.836-11.769h-283.42l-9.83-34.267c-3.468-12.02-14.458-20.294-26.963-20.317L278.11,417.793z
	 M398.376,528.612h228.008l-28.664,84.681H422.701L398.376,528.612z M442.75,689.845c-18.954,0.981-34.872,17.048-34.872,36.521
	c0,20.099,16.93,36.299,36.687,36.299c19.752,0,36.52-16.2,36.52-36.299c0-20.101-16.766-36.521-36.52-36.521
	c-0.619,0-1.2-0.03-1.813,0H442.75z M571.744,689.845c-18.953,0.981-34.816,17.048-34.816,36.521
	c0,20.099,16.931,36.299,36.687,36.299c19.754,0,36.52-16.2,36.52-36.299c0-20.101-16.766-36.521-36.52-36.521
	c-0.619,0-1.255-0.03-1.867,0H571.744z"/>
</svg>
