<svg xmlns="http://www.w3.org/2000/svg" version="1.1" xmlns:xlink="http://www.w3.org/1999/xlink" xmlns:svgjs="http://svgjs.com/svgjs" width="512" height="512" x="0" y="0" viewBox="0 0 512 512" style="enable-background:new 0 0 512 512" xml:space="preserve" class=""><g><path d="m423.696 307.95-90.154 52.511c-4.52 2.632-9.116 4.491-13.913 5.6 1.777-2.851 3.17-6.075 4.126-9.645 4.608-17.201-5.615-35.16-23.275-40.885a8.017 8.017 0 0 0-1.047-.263c-25.911-4.673-51.485-13.919-72.034-21.348-7.139-2.581-13.881-5.019-19.614-6.877-23.079-7.488-43.946 1.782-61.313 11.836l-67.074 38.834-6.324-11.174c-2.791-4.933-7.35-8.486-12.836-10.007-5.484-1.521-11.223-.821-16.156 1.971L18.787 332.82c-4.934 2.792-8.488 7.35-10.009 12.836s-.82 11.224 1.972 16.156l74.367 131.402c2.791 4.932 7.35 8.486 12.836 10.007 1.897.526 3.824.786 5.738.786 3.62 0 7.191-.931 10.418-2.757l25.296-14.316c4.933-2.792 8.486-7.35 10.007-12.836s.82-11.224-1.972-16.156l-7.667-13.548 15.29-8.828 115.47 30.94c6.521 1.749 12.923 2.621 19.187 2.621 12.488 0 24.426-3.469 35.661-10.386l163.61-100.744c14.914-9.182 19.646-32.325 9.926-48.553-4.719-7.878-24.086-31.273-75.221-1.494zM133.994 469.824a5.233 5.233 0 0 1-2.47 3.185l-25.296 14.316c-2.485 1.409-5.777.498-7.188-1.992L24.674 353.932a5.234 5.234 0 0 1-.477-4.002 5.229 5.229 0 0 1 2.47-3.185l25.295-14.316a5.185 5.185 0 0 1 2.562-.674c.479 0 .963.065 1.44.198a5.236 5.236 0 0 1 3.186 2.469l74.367 131.402a5.23 5.23 0 0 1 .477 4zm346.608-125.451-163.61 100.744c-12.974 7.988-27.212 9.985-42.317 5.935l-118.671-31.798a8.014 8.014 0 0 0-6.07.799l-18.041 10.416-44.614-78.83 67.21-38.913c15.034-8.706 31.301-15.998 48.359-10.464 5.48 1.777 11.797 4.061 19.11 6.705 20.966 7.58 47.022 17 74.057 21.942 9.421 3.292 14.689 12.393 12.285 21.366-3.164 11.806-13.004 13.272-20.824 12.374-13.28-2.731-25.9-6.332-39.252-10.145-6.331-1.809-12.879-3.678-19.608-5.481-4.264-1.141-8.654 1.39-9.798 5.657a8 8 0 0 0 5.657 9.798c6.603 1.769 13.086 3.621 19.355 5.411 13.761 3.93 26.759 7.642 40.756 10.503.053.011.106.015.16.024s.104.025.158.034l11.211 1.823c16.764 2.683 31.644.071 45.479-7.987l90.155-52.511c25.95-15.115 45.93-16.652 53.441-4.111 5.176 8.644 2.861 22.123-4.588 26.709zM59.301 357.807a9.031 9.031 0 1 1-17.873 2.613 9.032 9.032 0 0 1 17.873-2.613zM504 61.973V46.744C504 30.895 491.105 18 475.257 18H344.878c-15.849 0-28.743 12.895-28.743 28.744v15.229c0 8.147 3.413 15.508 8.877 20.744-5.464 5.235-8.877 12.596-8.877 20.743v15.229c0 1.14.072 2.278.208 3.408-41.861 9.459-73.218 46.948-73.218 91.627 0 51.795 42.139 93.933 93.934 93.933 34.626 0 64.932-18.835 81.221-46.794h56.977c15.849 0 28.743-12.894 28.743-28.743v-15.23c0-8.147-3.413-15.508-8.877-20.743 5.464-5.235 8.877-12.596 8.877-20.743v-15.229c0-8.147-3.413-15.507-8.877-20.743 5.464-5.235 8.877-12.596 8.877-20.743V103.46c0-8.147-3.413-15.507-8.877-20.743C500.587 77.481 504 70.12 504 61.973zM337.059 291.656c-42.973 0-77.934-34.96-77.934-77.933s34.961-77.933 77.934-77.933 77.933 34.96 77.933 77.933-34.961 77.933-77.933 77.933zM488 216.89v15.229c0 7.026-5.717 12.743-12.743 12.743h-49.578a93.505 93.505 0 0 0 5.312-31.139c0-3.232-.164-6.427-.485-9.577h44.75c7.027 0 12.744 5.717 12.744 12.744zm0-56.716v15.229c0 7.026-5.717 12.743-12.743 12.743h-47.806c-4.417-15.59-12.768-29.543-23.907-40.715h71.713c7.026.001 12.743 5.717 12.743 12.743zm0-56.715v15.229c0 7.027-5.717 12.743-12.743 12.743H382.31c-13.43-7.415-28.855-11.642-45.251-11.642-1.626 0-3.244.042-4.85.124a12.746 12.746 0 0 1-.074-1.225v-15.229c0-7.026 5.717-12.743 12.743-12.743h130.379c7.026 0 12.743 5.717 12.743 12.743zM344.878 74.716c-7.026 0-12.743-5.717-12.743-12.744V46.744c0-7.027 5.717-12.744 12.743-12.744h130.379C482.283 34 488 39.717 488 46.744v15.229c0 7.027-5.717 12.744-12.743 12.744H344.878zm27.539 158.158c.891 7.339-1.088 14.049-5.722 19.406-4.89 5.653-12.699 9.58-21.637 11.044v4.777a8 8 0 0 1-16 0v-4.905c-13.657-2.604-24.159-11.702-27.33-24.423a8 8 0 0 1 15.525-3.869c2.477 9.935 12.72 13.217 20.735 13.045 7.008-.167 13.525-2.576 16.604-6.136 1.67-1.931 2.286-4.158 1.94-7.011-.583-4.796-3.462-10.666-20.693-13.494-25.115-4.125-30.979-17.182-31.475-27.41-.688-14.15 9.122-25.987 24.408-29.455l.284-.063v-5.036a8 8 0 0 1 16 0v4.965c10.052 2.076 19.688 8.333 24.675 20.211a8 8 0 0 1-4.278 10.473 8.001 8.001 0 0 1-10.474-4.279c-4.188-9.972-14.4-12.541-22.668-10.668-6.025 1.367-12.333 5.52-11.967 13.075.126 2.599.462 9.503 18.086 12.397 20.762 3.409 32.196 12.612 33.987 27.356zM168.439 84.001h15.408v98.941a8 8 0 0 0 8 8h32.393a8 8 0 0 0 8-8V84.001h15.408a8.001 8.001 0 0 0 6.677-12.407l-39.604-60.001a8.003 8.003 0 0 0-13.354 0l-39.604 60.001a8.001 8.001 0 0 0 6.676 12.407zm39.605-53.479 24.738 37.479h-8.542a8 8 0 0 0-8 8v98.941h-16.393V76.001a8 8 0 0 0-8-8h-8.542z" fill="#224653" data-original="#000000" opacity="1"></path></g></svg>