<?xml version="1.0" encoding="UTF-8" standalone="no"?>
<!-- Created with Inkscape (http://www.inkscape.org/) -->

<svg
   version="1.1"
   id="svg1110"
   xml:space="preserve"
   width="682.66669"
   height="682.66669"
   viewBox="0 0 682.66669 682.66669"
   xmlns="http://www.w3.org/2000/svg"
   xmlns:svg="http://www.w3.org/2000/svg"><defs
     id="defs1114"><clipPath
       clipPathUnits="userSpaceOnUse"
       id="clipPath1124"><path
         d="M 0,512 H 512 V 0 H 0 Z"
         id="path1122" /></clipPath></defs><g
     id="g1116"
     transform="matrix(1.3333333,0,0,-1.3333333,0,682.66667)"><g
       id="g1118"><g
         id="g1120"
         clip-path="url(#clipPath1124)"><g
           id="g1126"
           transform="translate(165.9997,20)"><path
             d="M 0,0 H -84 V 19.22 123 v 0 c 19.45,23.186 48.163,36.577 78.427,36.577 h 4.142 c 24.468,0 48.46,-6.757 69.331,-19.527 l 16.218,-9.923 h 78.929 c 17.052,0 30.875,-13.823 30.875,-30.875 v 0 c 0,-17.052 -13.823,-30.875 -30.875,-30.875 L 60.334,68.4 h 103.525 c 6.96,0 13.688,2.496 18.964,7.034 l 107.657,92.594 c 8.099,6.885 19.429,8.512 29.138,4.184 v 0 c 17.691,-7.887 21.983,-31.058 8.29,-44.757 L 233.971,33.47 C 212.552,12.04 183.495,0 153.196,0 H 90"
             style="fill:none;stroke:#224653;stroke-width:20;stroke-linecap:round;stroke-linejoin:round;stroke-miterlimit:10;stroke-dasharray:none;stroke-opacity:1"
             id="path1128" /></g><g
           id="g1130"
           transform="translate(20,178)"><path
             d="m 0,0 h 52 c 5.523,0 10,-4.477 10,-10 v -148 c 0,-5.523 -4.477,-10 -10,-10 H 0 c -5.523,0 -10,4.477 -10,10 v 148 c 0,5.523 4.477,10 10,10 z"
             style="fill:none;stroke:#224653;stroke-width:20;stroke-linecap:round;stroke-linejoin:round;stroke-miterlimit:10;stroke-dasharray:none;stroke-opacity:1"
             id="path1132" /></g><g
           id="g1134"
           transform="translate(148,354.425)"><path
             d="m 0,0 v -72.622 c 0,-2.406 1.216,-4.65 3.233,-5.963 l 75.818,-49.369 c 10.303,-6.71 23.595,-6.71 33.898,0 l 75.818,49.369 c 2.017,1.313 3.233,3.557 3.233,5.963 V 0"
             style="fill:none;stroke:#224653;stroke-width:20;stroke-linecap:round;stroke-linejoin:round;stroke-miterlimit:10;stroke-dasharray:none;stroke-opacity:1"
             id="path1136" /></g><g
           id="g1138"
           transform="translate(67.9626,401.4625)"><path
             d="M 0,0 176.037,100.538 352.075,0 176.037,-100.537 Z"
             style="fill:none;stroke:#224653;stroke-width:20;stroke-linecap:round;stroke-linejoin:round;stroke-miterlimit:10;stroke-dasharray:none;stroke-opacity:1"
             id="path1140" /></g><g
           id="g1142"
           transform="translate(396.0374,236.7522)"><path
             d="m 0,0 h 48 v 82.963 c 0,13.255 -10.745,24 -24,24 v 0 c -13.255,0 -24,-10.745 -24,-24 z"
             style="fill:none;stroke:#224653;stroke-width:20;stroke-linecap:round;stroke-linejoin:round;stroke-miterlimit:10;stroke-dasharray:none;stroke-opacity:1"
             id="path1144" /></g><g
           id="g1146"
           transform="translate(223.9963,400.5499)"><path
             d="M 0,0 C 0,11.046 8.954,20 20,20 31.046,20 40,11.046 40,0 40,-11.046 31.046,-20 20,-20 8.954,-20 0,-11.046 0,0 Z"
             style="fill:none;stroke:#224653;stroke-width:20;stroke-linecap:round;stroke-linejoin:round;stroke-miterlimit:10;stroke-dasharray:none;stroke-opacity:1"
             id="path1148" /></g><g
           id="g1150"
           transform="translate(420.0374,349.2495)"><path
             d="M 0,0 V 52.213 H -156.041"
             style="fill:none;stroke:#224653;stroke-width:20;stroke-linecap:round;stroke-linejoin:round;stroke-miterlimit:10;stroke-dasharray:none;stroke-opacity:1"
             id="path1152" /></g><g
           id="g1154"
           transform="translate(211,20)"><path
             d="M 0,0 V 0"
             style="fill:none;stroke:#224653;stroke-width:20;stroke-linecap:round;stroke-linejoin:round;stroke-miterlimit:10;stroke-dasharray:none;stroke-opacity:1"
             id="path1156" /></g></g></g></g></svg>
