<?xml version="1.0" encoding="utf-8"?>
<!-- Generator: Adobe Illustrator 16.0.0, SVG Export Plug-In . SVG Version: 6.00 Build 0)  -->
<!DOCTYPE svg PUBLIC "-//W3C//DTD SVG 1.1//EN" "http://www.w3.org/Graphics/SVG/1.1/DTD/svg11.dtd">
<svg version="1.1" id="Layer_1" xmlns="http://www.w3.org/2000/svg" xmlns:xlink="http://www.w3.org/1999/xlink" x="0px" y="0px"
	 width="1000px" height="1000px" viewBox="0 0 1000 1000" enable-background="new 0 0 1000 1000" xml:space="preserve">
<g>
	<path fill="#FFFFFF" stroke="#FFFFFF" stroke-width="3" stroke-miterlimit="10" d="M785.108,159.282
		c-97.064,0-196.144,27.3-196.144,79.869v209.284c-11.121-1.009-23.251-1.009-35.389-1.009c-40.438,0-80.884,5.058-114.249,14.154
		c-42.465-55.608-110.201-90.99-185.019-90.99c-129.414,0-234.56,105.146-234.56,234.561c0,129.414,105.143,234.56,234.56,234.56
		c47.518,0,92.006-14.152,128.403-38.419c35.389,25.275,103.126,39.43,170.866,39.43c82.908,0,165.81-20.22,189.063-57.632
		c14.154,1.008,27.302,2.023,41.455,2.023c97.063,0,196.141-27.3,196.141-80.887l0.007-464.063
		c1.009-52.576-97.063-80.884-195.128-80.884L785.108,159.282z M58.173,604.139c0-109.191,87.959-197.151,197.152-197.151
		c109.191,0,197.151,87.958,197.151,197.151c0,109.192-87.959,197.152-197.151,197.152
		C146.139,801.298,58.173,712.324,58.173,604.139z M713.323,757.817c0,13.146-53.584,43.472-158.735,43.472
		c-69.763,0-116.265-13.146-140.534-26.286c19.211-17.187,35.39-38.422,47.521-61.674c28.308,6.064,60.665,9.098,93.015,9.098
		c60.666,0,121.322-11.121,158.735-31.339L713.323,757.817L713.323,757.817z M713.323,642.56c0,13.146-53.584,43.473-158.735,43.473
		c-30.333,0-56.616-2.024-77.852-6.065c8.089-23.253,13.146-49.543,13.146-75.827v-1.009c21.237,3.032,43.472,5.057,65.714,5.057
		c60.665,0,121.323-11.121,158.736-31.341v65.714L713.323,642.56L713.323,642.56z M554.588,570.78
		c-26.285,0-49.542-2.023-68.748-5.06c-4.041-25.274-12.13-49.541-24.266-71.786c24.266-6.063,55.608-10.112,93.014-10.112
		c105.146,0,158.736,30.333,158.736,43.472c0,13.152-53.584,43.484-158.736,43.484V570.78z M943.837,702.209
		c0,13.145-53.586,43.47-158.737,43.47c-12.13,0-24.266-1.009-35.39-1.009v-78.86c11.122,1.01,23.252,1.01,35.39,1.01
		c60.666,0,121.322-11.121,158.737-31.339V702.209z M943.837,585.943c0,13.146-53.586,43.471-158.737,43.471
		c-12.13,0-24.266-1.009-35.39-1.009l0.008-78.859c11.121,1.008,23.252,1.008,35.39,1.008c60.666,0,121.322-11.121,158.736-31.341
		L943.837,585.943z M943.837,470.686c0,13.146-53.586,43.472-158.737,43.472c-13.145,0-26.283-1.008-38.42-2.023
		c-11.122-31.341-60.667-51.563-121.322-60.667v-47.518c37.405,21.234,98.07,31.34,158.735,31.34
		c60.667,0,121.322-11.122,158.735-31.34l-0.007,66.736H943.837L943.837,470.686z M943.837,355.428
		c0,13.146-53.586,43.472-158.737,43.472c-105.143,0-158.735-30.335-158.735-43.472v-66.729
		c37.408,21.234,98.07,31.339,158.735,31.339c60.666,0,121.322-11.122,158.737-31.339V355.428z M785.1,283.64
		c-105.143,0-158.735-30.333-158.735-43.47c0-13.146,53.586-43.471,158.735-43.471c105.146,0,158.737,30.332,158.737,43.471
		C943.837,253.316,890.251,283.64,785.1,283.64z"/>
	<path fill="#FFFFFF" stroke="#FFFFFF" stroke-width="3" stroke-miterlimit="10" d="M264.424,585.939h-20.219
		c-15.161,0-27.298-13.146-26.284-29.316c1.008-14.154,14.154-23.252,27.3-23.252h23.252c9.098,0,16.178,6.064,18.193,14.154
		c0,2.022,3.034,4.041,5.058,4.041h27.292c3.032,0,5.057-3.033,5.057-5.058c-3.032-26.284-24.266-47.52-51.56-49.543v-26.285
		c0-3.031-2.024-5.056-5.057-5.056h-26.284c-3.033,0-5.057,2.023-5.057,5.056v26.285c-32.356,4.041-57.632,34.373-54.593,68.746
		c3.032,32.356,32.356,56.617,65.714,56.617h17.187c15.163,0,27.3,13.146,26.284,29.317c-1.009,13.146-14.154,23.252-27.3,23.252
		h-23.252c-9.098,0-16.178-6.065-18.195-14.154c0-2.024-3.033-4.041-5.057-4.041h-26.284c-3.033,0-5.057,3.032-5.057,5.057
		c3.032,26.284,24.266,47.518,51.56,49.541v26.286c0,3.032,2.024,5.058,5.057,5.058l26.285,0.007c3.032,0,5.056-2.023,5.056-5.058
		v-27.3c28.311-5.057,51.562-26.284,54.593-55.607c3.039-37.406-26.285-68.747-63.69-68.747H264.424L264.424,585.939z"/>
</g>
</svg>
