<?xml version="1.0" encoding="utf-8"?>
<!-- Generator: Adobe Illustrator 16.0.0, SVG Export Plug-In . SVG Version: 6.00 Build 0)  -->
<!DOCTYPE svg PUBLIC "-//W3C//DTD SVG 1.1//EN" "http://www.w3.org/Graphics/SVG/1.1/DTD/svg11.dtd">
<svg version="1.1" id="Layer_1" xmlns="http://www.w3.org/2000/svg" xmlns:xlink="http://www.w3.org/1999/xlink" x="0px" y="0px"
	 width="642px" height="274px" viewBox="0 0 642 274" enable-background="new 0 0 642 274" xml:space="preserve">
<g>
	<path fill-rule="evenodd" clip-rule="evenodd" fill="#61A744" d="M49.91,152.238c13.596-2.206,21.439,14.695,23.109,27.336
		c2.075,15.713-2.237,31.299-10.922,39.709C32.995,247.461,45.834,161.093,49.91,152.238L49.91,152.238z M188.679,165.945
		c-8.922-9.135-7.778-25.022-6.181-38.725c5.047,15.392,13.313,20.511,19.536,26.096
		C199.335,160.005,196.444,164.93,188.679,165.945L188.679,165.945z M208.4,140.599c-14.069-6.467-18.147-54.863-1.348-56.566
		C226.92,82.017,215.555,132.162,208.4,140.599L208.4,140.599z M69.046,58.186c3.214-5.687-0.362-1.064,3.505-3.377
		c7.426,11.549-6.537,38.615-12.786,43.997L69.046,58.186L69.046,58.186z M227.667,134.037c0.829-14.629,6.876-39.456-6.061-53.782
		c-11.989-13.275-31.659-3.226-40.46,7.024c-9.406,10.954-11.815,27.048-16.527,43.198c-3.549,12.16-15.217,34.633-27.634,36.13
		c-10.434-21.81-2.158-92.612-6.203-127.669c-1.723-14.938-3.806-25.05-21.771-21.811c-3.027,8.368-4.782,70.039-4.79,83.255
		c-0.01,18.325,1.802,23.01-12.941,30.096c-10.307,4.954-26.091,8.368-38.786,7.29c-0.039-29.33,10.317-16.712,24.547-49.081
		c7.957-18.098,13.766-46.414-4.8-55.907c-6.759-3.457-23.075-5.546-30.154-1.585c-10.388,5.811-20.902,76.44-22.314,88.71
		c-4.199,36.511-8.436,109.76,24.221,118.982c23.937,6.762,36.494-13.843,40.717-32.576c7.867-34.897-6.054-44.888-12.218-57.414
		c4.685-3.163,11.714-4.698,17.236-7.084c6.754-2.919,10.178-6.774,15.218-8.959c2.756,16.72,5.728,36.019,17.948,41.649
		c20.06,9.241,32.345-13.434,40.225-21.528l6.737,11.437c12.976,18.167,33.718,16.214,47.835-5.028
		c7.045-9.952,18.771,3.547,33.243-23.189c1.357-2.507,7.79-32.482,5.351-27.555C244.963,131.521,226.467,155.182,227.667,134.037
		L227.667,134.037z"/>
	<path fill-rule="evenodd" clip-rule="evenodd" fill="#243E8F" d="M616.242,169.643c-6.919-14.462-1.432-60.952-4.115-84.197
		c-1.142-9.905-2.523-16.611-14.436-14.462c-0.554,1.529-1.042,5.749-1.461,11.237c-0.461-0.606-0.945-1.2-1.464-1.775
		c-11.988-13.276-31.659-3.227-40.461,7.023c-9.405,10.954-11.813,27.048-16.528,43.199c-1.432,4.908-4.188,10.899-7.78,16.397
		c-7.105,6.878-13.642,18.23-23.855,19.463c-7.634-15.954-5.331-57.923-5.055-93.246c11.812-0.32,32.229-1.455,37.075-3.206
		c2.233-12.385-4.737-13.821-15.034-15.009c-6.817-0.786-14.428-0.896-22.181-0.812c-0.172-5.991-0.498-11.526-1.058-16.379
		c-1.735-15.052-3.835-25.241-21.938-21.977c-1.486,4.107-2.667,20.951-3.489,38.692c-9.99-0.145-18.797-0.986-24.68-3.8
		c0.582-4.833,4.971-9.502,10.189-13.09c-13.561,0-21.426,10.235-15.633,22.804c3.882,8.424,17.186,10.472,28.711,12.375
		l0.687,0.045c-0.398,11.949-0.609,22.293-0.612,26.869c-0.01,17.343-0.173,20.948-0.204,21.901l0,0c0,0,0,0.002,0,0.002
		c-0.011,0.337-0.006,0.344,0.03,0.51c0.386,11.423-16.317,47.142-25.635,46.521c-6.919-14.463-0.514-60.036-3.196-83.281
		c-1.144-9.905-2.522-16.611-14.437-14.462c-0.554,1.529-1.041,5.749-1.462,11.237c-0.459-0.606-0.943-1.2-1.463-1.775
		c-11.989-13.276-31.659-3.227-40.461,7.023c-9.405,10.954-11.814,27.048-16.526,43.199c-1.434,4.908-4.188,10.899-7.782,16.397
		c-6.395,7.155-13.161,18.325-23.247,19.542c-10.433-21.811-2.157-92.612-6.201-127.671c-1.724-14.937-3.807-25.047-21.772-21.809
		c-2.135,5.905-3.638,38.345-4.34,61.578c-12.075-10.577-30.314-0.996-38.696,8.764c-14.714,17.136-23.079,56.642-11.29,77.133
		c12.976,18.168,33.717,16.214,47.833-5.026c2.615-3.935,4.634-5.838,6.329-6.789c2.623,9.852,6.632,18.301,14.048,21.718
		c14.816,6.827,25.39-1.759,33.081-9.976l4.255-4.407c2.363-2.58,4.442-5.065,6.282-6.956l6.737,11.437
		c12.976,18.168,33.717,16.214,47.835-5.026c1.915-3.42,3.439-6.22,4.673-8.675c1.729,10.245,4.036,21.058,11.374,24.439
		c17.559,7.766,29.781-12.73,37.083-30.708c2.588,13.124,6.553,25.515,15.97,29.854c17.265,7.953,28.976-2.87,38.054-14.364
		c2.362-2.58,4.441-5.065,6.281-6.956l6.737,11.437c12.977,18.168,33.717,16.214,47.835-5.026c1.917-3.42,3.442-6.22,4.674-8.675
		c1.728,10.245,4.036,21.058,11.374,24.439c12.09,5.568,26.373-2.718,28.862-30.876C628.361,158.955,620.89,169.082,616.242,169.643
		z M275.266,166.136c-19.335-17.298-0.521-80.755,18.374-81.914C319.494,81.599,298.243,162.541,275.266,166.136z M393.832,166.136
		c-19.336-17.298-0.521-80.755,18.373-81.914C438.061,81.599,416.809,162.541,393.832,166.136z M561.84,166.136
		c-19.337-17.298-0.521-80.755,18.374-81.914C606.068,81.599,584.816,162.541,561.84,166.136z"/>
	<g>
		<path fill="#61A744" d="M291.257,235.821c-0.519-0.499-1.101-0.903-1.757-1.206c-0.653-0.302-1.308-0.447-1.953-0.447
			c-0.665,0-1.34,0.105-2.026,0.313c-0.685,0.207-1.361,0.488-2.027,0.842c-0.436,0.229-0.861,0.51-1.287,0.84
			c-0.426,0.335-0.812,0.707-1.155,1.124c-0.342,0.413-0.621,0.862-0.84,1.339c-0.219,0.479-0.333,0.968-0.333,1.466
			c0,0.726,0.208,1.37,0.624,1.943c0.415,0.572,0.956,1.062,1.61,1.454c0.654,0.396,1.371,0.696,2.149,0.904
			c0.78,0.209,1.53,0.312,2.257,0.312c0.997,0,1.902-0.134,2.701-0.394s1.486-0.614,2.057-1.061c0.573-0.449,1.009-0.978,1.311-1.59
			c0.301-0.612,0.445-1.257,0.445-1.942c0-0.75-0.166-1.467-0.499-2.141C292.201,236.902,291.774,236.318,291.257,235.821z"/>
		<path fill="#61A744" d="M308.961,235.821c-0.52-0.499-1.102-0.903-1.756-1.206c-0.655-0.302-1.31-0.447-1.954-0.447
			c-0.665,0-1.339,0.105-2.025,0.313c-0.685,0.207-1.362,0.488-2.026,0.842c-0.436,0.229-0.863,0.51-1.289,0.84
			c-0.425,0.335-0.81,0.707-1.152,1.124c-0.344,0.413-0.624,0.862-0.843,1.339c-0.216,0.479-0.331,0.968-0.331,1.466
			c0,0.726,0.206,1.37,0.622,1.943c0.417,0.572,0.957,1.062,1.611,1.454c0.653,0.396,1.371,0.696,2.151,0.904
			c0.779,0.209,1.526,0.312,2.255,0.312c0.996,0,1.901-0.134,2.701-0.394c0.799-0.26,1.487-0.614,2.056-1.061
			c0.572-0.449,1.009-0.978,1.311-1.59c0.302-0.612,0.446-1.257,0.446-1.942c0-0.75-0.167-1.467-0.498-2.141
			C309.907,236.902,309.481,236.318,308.961,235.821z"/>
		<path fill="#61A744" d="M273.55,235.821c-0.518-0.499-1.1-0.903-1.753-1.206c-0.655-0.302-1.311-0.447-1.954-0.447
			c-0.666,0-1.341,0.105-2.026,0.313c-0.687,0.207-1.362,0.488-2.025,0.842c-0.438,0.229-0.864,0.51-1.29,0.84
			c-0.426,0.335-0.81,0.707-1.152,1.124c-0.344,0.413-0.625,0.862-0.843,1.339c-0.218,0.479-0.333,0.968-0.333,1.466
			c0,0.726,0.208,1.37,0.624,1.943c0.416,0.572,0.957,1.062,1.611,1.454c0.655,0.396,1.372,0.696,2.151,0.904
			c0.78,0.209,1.528,0.312,2.255,0.312c0.997,0,1.9-0.134,2.702-0.394c0.799-0.26,1.483-0.614,2.057-1.061
			c0.571-0.449,1.007-0.978,1.308-1.59c0.303-0.612,0.448-1.257,0.448-1.942c0-0.75-0.166-1.467-0.5-2.141
			C274.499,236.902,274.071,236.318,273.55,235.821z"/>
		<path fill="#61A744" d="M635.432,220.649c-0.218-0.175-0.487-0.258-0.8-0.258c-0.497,0-0.902,0.092-1.216,0.29
			c-0.311,0.197-0.53,0.478-0.655,0.832c-0.289,0.768-0.686,1.673-1.194,2.721c-0.508,1.05-1.123,2.142-1.829,3.274
			c-0.706,1.131-1.495,2.255-2.38,3.365c-0.882,1.113-1.858,2.11-2.917,2.993c-1.061,0.884-2.203,1.602-3.43,2.15
			c-1.226,0.551-2.525,0.832-3.897,0.832c-1.101,0-2.057-0.167-2.865-0.51c-0.813-0.343-1.498-0.811-2.068-1.394
			c-0.573-0.57-1.03-1.256-1.373-2.046c-0.344-0.788-0.58-1.621-0.705-2.481c2.316-0.25,4.3-0.762,5.952-1.526
			c1.65-0.771,2.994-1.666,4.032-2.671c1.027-1.021,1.788-2.079,2.264-3.181c0.478-1.092,0.718-2.108,0.718-3.044
			c0-0.954-0.187-1.861-0.57-2.725c-0.386-0.851-0.916-1.608-1.581-2.265c-0.664-0.652-1.444-1.173-2.349-1.567
			c-0.903-0.396-1.881-0.594-2.918-0.594c-1.787,0-3.44,0.24-4.968,0.73c-1.525,0.487-2.907,1.149-4.146,1.993
			c-1.236,0.842-2.328,1.839-3.271,2.992c-0.946,1.153-1.746,2.4-2.391,3.729c-0.37,0.765-0.669,1.556-0.933,2.36
			c-0.391,0.813-0.81,1.645-1.281,2.514c-0.581,1.069-1.204,2.139-1.867,3.21c-0.668,1.07-1.334,2.025-2.008,2.867
			c-0.675,0.842-1.339,1.528-1.982,2.058c-0.646,0.531-1.239,0.801-1.777,0.801c-0.479,0-0.843-0.114-1.102-0.343
			c-0.262-0.229-0.458-0.54-0.584-0.936c-0.125-0.395-0.197-0.862-0.219-1.393c-0.019-0.53-0.031-1.091-0.031-1.695
			c0-2.096,0.021-4.082,0.065-5.94c0.042-1.859,0.06-3.366,0.06-4.53c0-0.831-0.27-1.526-0.799-2.09
			c-0.529-0.56-1.173-1.027-1.924-1.392c-0.746-0.364-1.536-0.655-2.368-0.872c-0.819-0.219-1.517-0.385-2.078-0.511
			c-1.254-0.291-2.295-0.569-3.118-0.83c-0.818-0.26-1.492-0.509-2.016-0.748c-0.518-0.24-0.91-0.467-1.162-0.695
			c-0.25-0.229-0.426-0.458-0.53-0.687c-0.103-0.229-0.154-0.459-0.154-0.688c0-0.227,0-0.465,0-0.714
			c0-0.228,0.011-0.499,0.031-0.801c0.021-0.303,0.03-0.777,0.03-1.443c0-0.688-0.073-1.321-0.217-1.903
			c-0.148-0.582-0.384-1.091-0.729-1.525c-0.343-0.437-0.821-0.779-1.422-1.02c-0.604-0.238-1.353-0.354-2.245-0.354
			c-0.727,0-1.402,0.22-2.036,0.656c-0.632,0.438-1.185,1.007-1.652,1.724c-0.468,0.718-0.833,1.526-1.092,2.422
			c-0.258,0.893-0.396,1.786-0.396,2.681c0,1.103,0.22,2.107,0.646,3.032c0.428,0.925,1.06,1.747,1.913,2.452
			c0.104,0.083,0.207,0.239,0.301,0.479c0.092,0.239,0.135,0.582,0.135,1.018c0,0.249-0.01,0.509-0.031,0.779
			s-0.072,0.571-0.156,0.913c-0.034,0.147-0.085,0.311-0.141,0.478c-0.256,0.666-0.595,1.441-1.009,2.311
			c-0.001,0.003-0.003,0.006-0.003,0.007c-0.003,0.007-0.006,0.017-0.01,0.021c-0.044,0.095-0.077,0.174-0.126,0.271
			c-0.51,1.05-1.123,2.142-1.827,3.274c-0.708,1.131-1.497,2.255-2.381,3.365c-0.884,1.113-1.859,2.11-2.921,2.993
			c-1.059,0.884-2.201,1.602-3.428,2.15c-1.224,0.551-2.523,0.832-3.896,0.832c-1.102,0-2.057-0.167-2.868-0.51
			c-0.811-0.343-1.494-0.811-2.065-1.394c-0.573-0.57-1.03-1.256-1.373-2.046c-0.344-0.788-0.581-1.621-0.706-2.481
			c2.317-0.25,4.301-0.762,5.953-1.526c1.65-0.771,2.993-1.666,4.033-2.671c1.027-1.021,1.786-2.079,2.263-3.181
			c0.479-1.092,0.72-2.108,0.72-3.044c0-0.954-0.191-1.861-0.574-2.725c-0.382-0.851-0.914-1.608-1.579-2.265
			c-0.665-0.652-1.444-1.173-2.348-1.567c-0.902-0.396-1.881-0.594-2.919-0.594c-1.788,0-3.441,0.24-4.967,0.73
			c-1.527,0.487-2.907,1.149-4.146,1.993c-1.236,0.842-2.328,1.839-3.274,2.992c-0.944,1.153-1.745,2.4-2.388,3.729
			c-0.365,0.753-0.665,1.533-0.924,2.329c-0.392,0.81-0.815,1.639-1.289,2.512c-0.584,1.071-1.206,2.141-1.872,3.211
			c-0.662,1.071-1.33,2.037-1.995,2.892c-0.664,0.85-1.319,1.536-1.973,2.065c-0.654,0.531-1.257,0.801-1.798,0.801
			c-0.479,0-0.842-0.114-1.104-0.343c-0.259-0.229-0.455-0.54-0.58-0.936c-0.125-0.395-0.197-0.862-0.218-1.393
			c-0.021-0.53-0.031-1.091-0.031-1.695c0-2.989-0.127-5.658-0.364-7.997c-0.238-2.34-0.677-4.313-1.317-5.936
			c-0.657-1.619-1.529-2.857-2.65-3.697c-1.113-0.842-2.548-1.259-4.293-1.259c-2.006,0-3.729,0.333-5.175,1
			c-1.455,0.663-2.681,1.548-3.686,2.649c-1.02,1.101-1.863,2.358-2.535,3.78c-0.677,1.423-1.26,2.897-1.737,4.416
			c0.083-3.782,0.146-7.149,0.187-10.089s0.064-5.516,0.064-7.741c0-2.888-0.041-5.246-0.126-7.077
			c-0.084-1.826-0.218-3.258-0.404-4.287c-0.188-1.03-0.437-1.727-0.75-2.103c-0.312-0.372-0.696-0.56-1.152-0.56
			c-0.289,0-0.685,0.031-1.196,0.093c-0.506,0.064-1.057,0.158-1.641,0.29c-0.582,0.135-1.174,0.326-1.775,0.553
			c-0.604,0.228-1.154,0.518-1.652,0.873c-0.5,0.354-0.905,0.768-1.226,1.256c-0.323,0.489-0.489,1.049-0.489,1.675
			c0,0.187,0,0.444-0.01,0.787c-0.012,0.345-0.021,0.957-0.031,1.841c-0.012,0.884-0.045,2.129-0.085,3.73
			c-0.04,1.6-0.082,3.758-0.133,6.484c-0.052,2.723-0.125,6.098-0.221,10.131c-0.007,0.388-0.018,0.791-0.026,1.192
			c-0.438,1.106-0.913,2.011-1.428,2.703c-0.538,0.727-1.112,1.288-1.724,1.693c-0.613,0.405-1.257,0.684-1.922,0.829
			c-0.665,0.146-1.341,0.219-2.027,0.219c-0.102,0-0.176-0.009-0.218-0.03c0.166-0.81,0.3-1.683,0.395-2.619
			c0.094-0.936,0.134-1.921,0.134-2.961c0-1.205-0.063-2.325-0.195-3.365c-0.137-1.039-0.373-1.955-0.718-2.734
			c-0.343-0.78-0.811-1.393-1.401-1.838c-0.594-0.448-1.34-0.664-2.234-0.664c-0.852,0-1.643,0.167-2.379,0.497
			c-0.74,0.335-1.383,0.801-1.925,1.391c-0.54,0.605-0.965,1.34-1.277,2.195c-0.312,0.862-0.468,1.827-0.468,2.877
			c0,1.02,0.095,2.057,0.273,3.107c0.175,1.059,0.444,2.079,0.809,3.065c0.362,0.987,0.82,1.892,1.383,2.711
			c0.56,0.811,1.214,1.485,1.964,1.994c-0.188,0.833-0.418,1.62-0.697,2.348c-0.278,0.738-0.624,1.384-1.018,1.913
			c-0.396,0.54-0.865,0.977-1.414,1.298c-0.551,0.322-1.194,0.479-1.921,0.479c-1.312,0-2.339-0.25-3.086-0.739
			c-0.751-0.489-1.313-1.131-1.693-1.942c-0.386-0.811-0.646-1.746-0.769-2.805c-0.126-1.061-0.23-2.16-0.313-3.306l-0.563-9.1
			c-0.038-0.54-0.136-1.07-0.289-1.58c-0.156-0.511-0.396-0.956-0.715-1.352c-0.326-0.393-0.741-0.716-1.25-0.955
			c-0.509-0.238-1.151-0.354-1.923-0.354c-0.893,0-1.65,0.251-2.274,0.759c-0.624,0.51-1.133,1.185-1.537,2.017
			c-0.405,0.832-0.728,1.767-0.968,2.816c-0.237,1.049-0.414,2.12-0.528,3.2c-0.115,1.079-0.188,2.129-0.209,3.148
			c-0.02,1.019-0.031,1.899-0.031,2.647v0.811c0,0.79,0.031,1.591,0.094,2.402c0.064,0.809,0.178,1.609,0.345,2.4
			c-0.355,0.603-0.779,1.069-1.28,1.413c-0.497,0.341-1.131,0.519-1.9,0.519c-1.308,0-2.327-0.25-3.066-0.739
			c-0.738-0.489-1.297-1.131-1.681-1.942c-0.385-0.811-0.645-1.746-0.781-2.805c-0.135-1.061-0.248-2.16-0.331-3.306l-0.563-6.605
			c-0.04-0.542-0.132-1.071-0.289-1.58c-0.157-0.51-0.394-0.955-0.718-1.351c-0.321-0.396-0.737-0.719-1.245-0.955
			c-0.511-0.24-1.153-0.356-1.923-0.356c-0.893,0-1.652,0.199-2.276,0.593c-0.622,0.396-1.13,0.926-1.537,1.591
			c-0.406,0.665-0.726,1.413-0.967,2.255c-0.036,0.131-0.061,0.269-0.097,0.4c-1.032,2.551-2.319,4.873-3.882,6.955
			c-1.661,2.214-3.522,4.291-5.581,6.226c0.105-1.019,0.209-2.089,0.314-3.211c0.103-1.123,0.207-2.246,0.31-3.364
			c0.104-1.125,0.208-2.226,0.301-3.297c0.095-1.069,0.167-2.067,0.229-3.002c0.061-0.935,0.116-1.766,0.155-2.483
			c0.043-0.719,0.062-1.287,0.062-1.725c0-0.938-0.156-1.726-0.467-2.36c-0.312-0.634-0.707-1.131-1.183-1.507
			c-0.481-0.373-0.999-0.643-1.57-0.81c-0.572-0.166-1.121-0.248-1.643-0.248c-0.996,0-1.837,0.196-2.534,0.593
			c-0.696,0.396-1.276,0.911-1.745,1.567c-0.468,0.654-0.842,1.403-1.111,2.232c-0.27,0.834-0.47,1.697-0.603,2.589
			c-0.136,0.895-0.219,1.769-0.248,2.628c-0.033,0.863-0.053,1.653-0.053,2.357v1.498c0,1.724-0.241,3.274-0.719,4.654
			c-0.478,1.381-1.07,2.556-1.776,3.522c-0.707,0.968-1.464,1.704-2.274,2.214c-0.812,0.508-1.549,0.769-2.215,0.769
			c-0.415,0-0.77-0.115-1.068-0.333c-0.301-0.218-0.551-0.51-0.749-0.884c-0.198-0.373-0.352-0.809-0.459-1.299
			c-0.102-0.486-0.155-0.996-0.155-1.537c0-1.454,0.062-2.92,0.187-4.383c0.126-1.468,0.261-2.929,0.407-4.396
			c0.146-1.465,0.28-2.949,0.405-4.458c0.125-1.504,0.187-3.032,0.187-4.591c0-0.936-0.154-1.674-0.468-2.204
			c-0.312-0.53-0.861-0.788-1.653-0.788c-1.33,0-2.491,0.28-3.501,0.852c-1.006,0.57-1.881,1.328-2.619,2.274
			c-0.737,0.945-1.359,2.048-1.858,3.294c-0.251,0.632-0.476,1.279-0.676,1.937c-0.047,0.081-0.103,0.154-0.135,0.245
			c-0.268,0.686-0.635,1.515-1.09,2.492c-0.457,0.978-0.976,1.997-1.559,3.065c-0.579,1.071-1.206,2.141-1.871,3.211
			c-0.663,1.071-1.328,2.037-2.004,2.892c-0.677,0.85-1.343,1.536-1.986,2.065c-0.645,0.531-1.237,0.801-1.775,0.801
			c-0.52,0-0.926-0.168-1.217-0.489c-0.289-0.32-0.499-0.735-0.624-1.257c-0.123-0.518-0.195-1.1-0.216-1.735
			c-0.023-0.633-0.012-1.257,0.031-1.881c0.039-0.624,0.091-1.204,0.144-1.735c0.054-0.531,0.074-0.946,0.074-1.257
			c0-4.881-0.686-8.624-2.047-11.21c-1.361-2.587-3.575-3.877-6.629-3.877c-1.528,0-2.9,0.197-4.106,0.604
			c-1.205,0.405-2.263,0.964-3.188,1.682c-0.925,0.719-1.735,1.56-2.422,2.518c-0.686,0.955-1.288,1.972-1.809,3.064
			c-0.521,1.089-0.965,2.234-1.339,3.428c-0.375,1.196-0.705,2.38-0.998,3.544c-0.084-1.247-0.156-2.4-0.22-3.449
			c-0.062-1.051-0.125-1.893-0.187-2.536c-0.062-0.54-0.167-1.07-0.319-1.58c-0.156-0.509-0.396-0.957-0.707-1.349
			c-0.313-0.396-0.721-0.719-1.227-0.957c-0.511-0.24-1.154-0.355-1.923-0.355c-0.937,0-1.755,0.229-2.464,0.687
			c-0.704,0.459-1.288,1.018-1.755,1.684c-0.469,0.666-0.819,1.372-1.05,2.131c-0.132,0.442-0.217,0.854-0.271,1.246
			c-0.148,0.337-0.299,0.672-0.477,1.048c-0.458,0.978-0.976,1.997-1.559,3.065c-0.581,1.071-1.203,2.141-1.869,3.211
			c-0.666,1.071-1.329,2.037-2.006,2.892c-0.675,0.85-1.341,1.536-1.985,2.065c-0.645,0.531-1.237,0.801-1.774,0.801
			c-0.48,0-0.845-0.114-1.103-0.343c-0.261-0.229-0.458-0.54-0.584-0.936c-0.123-0.395-0.196-0.862-0.214-1.393
			c-0.024-0.53-0.034-1.091-0.034-1.695c0-1.038,0.01-1.867,0.021-2.481c0.013-0.614,0.022-1.133,0.042-1.556
			c0.022-0.427,0.04-0.823,0.053-1.199c0.009-0.374,0.009-0.851,0.009-1.432c0-0.895-0.228-1.683-0.696-2.369
			c-0.468-0.687-1.07-1.259-1.809-1.713c-0.737-0.458-1.559-0.812-2.451-1.052c-0.895-0.239-1.765-0.376-2.619-0.416
			c-0.271-4.446-3.239-6.671-8.914-6.671c-2.182,0-4.197,0.552-6.048,1.663c-1.849,1.111-3.437,2.618-4.769,4.518
			c-1.33,1.905-2.369,4.129-3.117,6.673c-0.748,2.547-1.121,5.247-1.121,8.094c0,1.973,0.302,3.658,0.903,5.051
			c0.604,1.392,1.373,2.533,2.307,3.44c0.935,0.901,1.985,1.567,3.147,1.981c1.167,0.415,2.309,0.625,3.43,0.625
			c2.62,0,4.885-0.686,6.786-2.057c1.899-1.374,3.374-3.431,4.436-6.174c0.166,1.434,0.426,2.673,0.769,3.709
			c0.344,1.038,0.821,1.893,1.433,2.568c0.615,0.675,1.375,1.175,2.289,1.485c0.913,0.31,2.013,0.468,3.302,0.468
			c1.454,0,2.857-0.394,4.197-1.185c1.342-0.791,2.598-1.829,3.783-3.117c1.184-1.289,2.286-2.753,3.293-4.395
			c1.011-1.643,1.922-3.314,2.754-5.009c0.036-0.071,0.063-0.143,0.098-0.214c-0.002,0.502-0.01,0.994-0.015,1.449
			c-0.031,2.288-0.072,4.138-0.114,5.561c-0.041,1.422-0.072,2.493-0.104,3.198c-0.031,0.71-0.054,1.196-0.054,1.466
			c0,0.457,0.094,0.842,0.271,1.162c0.177,0.322,0.416,0.595,0.727,0.803c0.314,0.207,0.678,0.352,1.083,0.445
			c0.402,0.095,0.829,0.146,1.288,0.146c0.996,0,1.867-0.094,2.616-0.271c0.748-0.175,1.403-0.414,1.954-0.716
			c0.55-0.301,0.995-0.666,1.352-1.089c0.351-0.429,0.642-0.886,0.87-1.384l0.125-0.22c0.21-0.499,0.45-1.172,0.708-2.025
			c0.26-0.852,0.551-1.799,0.872-2.826c0.324-1.029,0.665-2.119,1.039-3.272c0.374-1.15,0.77-2.296,1.175-3.43
			c0.406-1.131,0.834-2.21,1.288-3.241c0.457-1.028,0.925-1.935,1.404-2.713c0.475-0.779,0.974-1.4,1.484-1.868
			c0.509-0.467,1.03-0.695,1.569-0.695c0.479,0,0.871,0.164,1.185,0.507c0.311,0.343,0.562,0.779,0.746,1.311
			c0.19,0.529,0.323,1.122,0.396,1.775c0.075,0.655,0.104,1.29,0.104,1.893v2.431c0,2.764,0.094,5.12,0.28,7.087
			c0.188,1.963,0.572,3.573,1.144,4.82c0.582,1.247,1.392,2.159,2.453,2.742c1.049,0.584,2.449,0.874,4.186,0.874
			c1.446,0,2.837-0.394,4.178-1.185c1.339-0.791,2.598-1.829,3.782-3.117c1.184-1.289,2.285-2.753,3.293-4.395
			c0.876-1.429,1.668-2.884,2.413-4.352c0.038,1.328,0.175,2.682,0.453,4.082c0.324,1.607,0.864,3.083,1.633,4.414
			c0.769,1.33,1.809,2.42,3.097,3.273c1.289,0.852,2.899,1.278,4.843,1.278c4.674,0,8.042-2.203,10.077-6.608
			c-0.042,0.748-0.083,1.505-0.125,2.275c-0.041,0.767-0.093,1.569-0.156,2.401c-1.86,1.287-3.489,2.524-4.925,3.718
			c-1.422,1.197-2.617,2.382-3.594,3.553c-0.967,1.175-1.704,2.349-2.215,3.523c-0.507,1.174-0.768,2.379-0.768,3.606
			c0,1.287,0.261,2.41,0.779,3.366c0.52,0.956,1.165,1.743,1.931,2.38c0.771,0.634,1.601,1.11,2.485,1.432
			c0.883,0.322,1.683,0.488,2.408,0.488c1.935,0,3.596-0.361,4.988-1.09c1.394-0.726,2.565-1.694,3.521-2.888
			c0.959-1.195,1.727-2.566,2.309-4.115c0.581-1.548,1.048-3.139,1.392-4.778c0.343-1.644,0.593-3.264,0.761-4.863
			c0.165-1.602,0.31-3.065,0.436-4.396c1.494-1.329,2.887-2.733,4.175-4.196c1.29-1.466,2.485-3.033,3.585-4.718
			c0.633-0.966,1.229-1.993,1.804-3.055c0.026,0.848,0.079,1.704,0.183,2.586c0.135,1.165,0.383,2.296,0.746,3.389
			c0.362,1.102,0.854,2.129,1.476,3.107c0.623,0.976,1.423,1.817,2.401,2.543c0.978,0.718,2.151,1.287,3.521,1.714
			c1.37,0.415,2.994,0.625,4.862,0.625c1.851,0,3.461-0.418,4.831-1.259c1.373-0.841,2.558-1.909,3.554-3.229
			c0.976,1.32,2.307,2.389,3.99,3.229c1.686,0.841,3.856,1.259,6.516,1.259c1.786,0,3.367-0.394,4.726-1.195
			c1.362-0.8,2.537-1.818,3.524-3.065c0.988-1.248,1.807-2.627,2.472-4.166c0.665-1.538,1.205-3.047,1.622-4.542
			c1.412-0.061,2.699-0.278,3.855-0.655c1.152-0.381,2.192-0.954,3.126-1.732c0.517-0.426,1.005-0.928,1.47-1.492
			c-0.05,2.213-0.104,4.577-0.16,7.124c-0.022,0.6-0.041,1.277-0.072,2.027c-0.033,0.746-0.064,1.475-0.094,2.188
			c-0.032,0.719-0.062,1.374-0.095,1.965c-0.031,0.593-0.052,1.029-0.052,1.299c0,0.457,0.094,0.842,0.271,1.162
			c0.176,0.322,0.415,0.595,0.726,0.803c0.313,0.207,0.676,0.352,1.081,0.445c0.404,0.095,0.832,0.146,1.289,0.146
			c0.996,0,1.87-0.094,2.618-0.271c0.747-0.175,1.401-0.414,1.953-0.716c0.552-0.301,0.998-0.666,1.351-1.089
			c0.354-0.429,0.644-0.886,0.874-1.384l0.125-0.22c0.205-0.499,0.445-1.172,0.704-2.025c0.261-0.852,0.55-1.799,0.875-2.826
			c0.322-1.029,0.664-2.119,1.037-3.272c0.375-1.15,0.771-2.296,1.178-3.43c0.404-1.131,0.829-2.21,1.286-3.241
			c0.455-1.028,0.923-1.935,1.402-2.713c0.478-0.779,0.976-1.4,1.484-1.868c0.511-0.467,1.029-0.695,1.569-0.695
			c0.48,0,0.874,0.164,1.188,0.507c0.31,0.343,0.56,0.779,0.745,1.311c0.187,0.529,0.323,1.122,0.396,1.775
			c0.073,0.655,0.104,1.29,0.104,1.893v2.431c0,2.764,0.092,5.12,0.28,7.087c0.188,1.963,0.572,3.573,1.165,4.82
			c0.58,1.247,1.412,2.159,2.473,2.742c1.071,0.584,2.483,0.874,4.238,0.874c1.455,0,2.858-0.394,4.197-1.185
			c1.341-0.791,2.608-1.829,3.793-3.117c1.187-1.289,2.286-2.753,3.295-4.395c0.503-0.821,0.982-1.647,1.44-2.48
			c0.134,0.802,0.315,1.591,0.563,2.364c0.54,1.696,1.426,3.2,2.629,4.511c1.206,1.31,2.783,2.349,4.718,3.127
			c1.943,0.781,4.3,1.175,7.085,1.175c1.933,0,3.753-0.386,5.456-1.144c1.704-0.768,3.283-1.788,4.728-3.054
			c1.443-1.269,2.762-2.703,3.958-4.301c1.195-1.612,2.265-3.265,3.211-4.957c0.945-1.695,1.768-3.368,2.462-5.021
			c0.696-1.651,1.258-3.136,1.694-4.467c0.042-0.104,0.063-0.198,0.063-0.281c0-0.005,0-0.011,0-0.017
			c0.133-0.41,0.281-0.809,0.405-1.23c0.271-0.911,0.563-1.652,0.873-2.211c1.309,0.186,2.357,0.424,3.146,0.716
			c0.793,0.291,1.393,0.697,1.81,1.217c0.416,0.517,0.697,1.183,0.831,2.005c0.134,0.819,0.195,1.858,0.195,3.105v4.115
			c0,2.764,0.093,5.12,0.283,7.087c0.186,1.963,0.571,3.573,1.163,4.82c0.583,1.247,1.413,2.159,2.474,2.742
			c1.069,0.584,2.484,0.874,4.237,0.874c1.453,0,2.859-0.394,4.2-1.185c1.339-0.791,2.605-1.829,3.791-3.117
			c1.185-1.289,2.286-2.753,3.295-4.395c0.502-0.821,0.981-1.648,1.438-2.48c0.136,0.802,0.318,1.591,0.566,2.364
			c0.54,1.696,1.423,3.2,2.628,4.511c1.205,1.31,2.784,2.349,4.716,3.127c1.944,0.781,4.303,1.175,7.085,1.175
			c1.936,0,3.754-0.386,5.456-1.144c1.706-0.768,3.285-1.788,4.729-3.054c1.446-1.269,2.765-2.703,3.958-4.301
			c1.196-1.612,2.267-3.265,3.21-4.957c0.947-1.695,1.769-3.368,2.463-5.021c0.697-1.651,1.258-3.136,1.692-4.467
			c0.043-0.104,0.065-0.198,0.065-0.281s0-0.154,0-0.216C635.755,221.099,635.65,220.826,635.432,220.649z M334.946,224.733
			c-0.301,0.947-0.541,1.913-0.706,2.889c-0.044,0.167-0.061,0.27-0.061,0.313c-0.25,1.517-0.655,2.876-1.227,4.092
			c-0.572,1.216-1.217,2.256-1.934,3.117c-0.716,0.863-1.476,1.527-2.265,1.996c-0.79,0.468-1.516,0.706-2.182,0.706
			c-0.416,0-0.769-0.115-1.07-0.333c-0.301-0.218-0.552-0.51-0.747-0.884c-0.199-0.373-0.354-0.809-0.459-1.299
			c-0.104-0.486-0.155-0.996-0.155-1.537c0-1.495,0.178-3.014,0.527-4.54c0.355-1.525,0.916-2.908,1.686-4.155
			c0.771-1.246,1.757-2.267,2.951-3.045c1.193-0.778,2.628-1.165,4.31-1.165c0.377,0,0.678,0.044,0.905,0.136
			c0.229,0.093,0.437,0.207,0.614,0.333c0.177,0.125,0.332,0.25,0.468,0.373c0.135,0.126,0.29,0.219,0.477,0.281
			C335.623,222.883,335.248,223.79,334.946,224.733z M418.576,252.852c-0.153,0.883-0.33,1.661-0.519,2.326
			c-0.187,0.664-0.394,1.193-0.621,1.59c-0.23,0.395-0.448,0.593-0.655,0.593c-0.604,0-1.081-0.166-1.444-0.489
			c-0.364-0.324-0.552-0.717-0.552-1.195c0.021-0.457,0.178-0.956,0.467-1.485c0.292-0.527,0.645-1.039,1.06-1.536
			c0.419-0.499,0.864-0.979,1.34-1.423c0.48-0.448,0.916-0.834,1.31-1.167C418.856,251.043,418.733,251.967,418.576,252.852z
			 M545.744,224.143c0.259-1.053,0.611-1.973,1.058-2.774c0.448-0.801,0.987-1.444,1.633-1.934c0.644-0.489,1.373-0.727,2.204-0.727
			c0.851,0,1.433,0.209,1.756,0.624c0.322,0.415,0.477,0.935,0.477,1.557c0,0.853-0.208,1.651-0.622,2.411
			c-0.418,0.759-0.969,1.434-1.673,2.016c-0.707,0.581-1.519,1.051-2.444,1.413c-0.911,0.365-1.868,0.593-2.867,0.675
			C545.328,226.282,545.484,225.189,545.744,224.143z M610.455,224.143c0.258-1.053,0.612-1.973,1.059-2.774
			c0.446-0.801,0.987-1.444,1.632-1.934c0.644-0.489,1.371-0.727,2.201-0.727c0.851,0,1.435,0.209,1.758,0.624
			c0.321,0.415,0.477,0.935,0.477,1.557c0,0.853-0.204,1.651-0.623,2.411c-0.416,0.759-0.965,1.434-1.672,2.016
			c-0.706,0.581-1.518,1.051-2.442,1.413c-0.914,0.365-1.871,0.593-2.869,0.675C610.04,226.282,610.194,225.189,610.455,224.143z"/>
	</g>
</g>
</svg>
