<svg xmlns="http://www.w3.org/2000/svg" version="1.1" xmlns:xlink="http://www.w3.org/1999/xlink" xmlns:svgjs="http://svgjs.com/svgjs" width="512" height="512" x="0" y="0" viewBox="0 0 60 60" style="enable-background:new 0 0 512 512" xml:space="preserve"><g><path fill="#224653" fill-rule="nonzero" d="M58 30h-6v-3.181c.418-.143.797-.38 1.108-.693A2.944 2.944 0 0 0 54 24a3 3 0 0 0-3-3H40v-4a1 1 0 0 0 0-2h-.065C39.416 10.8 35.68 7.466 31 7.046V6h3a2 2 0 0 0 2-2V2a2 2 0 0 0-2-2h-3a2 2 0 0 0-2 2v5.046c-4.68.42-8.416 3.756-8.935 7.954H20a1 1 0 0 0 0 2v4H9a3.015 3.015 0 0 0-3 3 3 3 0 0 0 2 2.816V29H2a2 2 0 0 0-2 2v15a2 2 0 0 0 2 2h10a2 2 0 0 0 1.993-1.932 10.94 10.94 0 0 1 2.287.49 2.973 2.973 0 0 0 .6 3.369c.27.27.59.486.943.635a2.98 2.98 0 0 0 3.249 4.407c.134.499.395.954.758 1.321.524.523 1.225.83 1.965.863a2.992 2.992 0 0 0 5.105 1.966l.7-.7.691.69c.56.571 1.326.892 2.126.89A3.006 3.006 0 0 0 35.3 57.8a3.027 3.027 0 0 0 2.759-.8c.37-.363.639-.817.78-1.316a3 3 0 0 0 3.575-3.573 3 3 0 0 0 1.986-3.995l2.083-.832c.375.45.93.713 1.517.716h10a2 2 0 0 0 2-2V32a2 2 0 0 0-2-2zm-10 0a2 2 0 0 0-2 2v.725l-7-1.712V27h11v3zm-14.661 6.032.32-.28a1 1 0 0 0-1.318-1.505l-1.119.98h-.006l-5.362 4.693c-.544.46-1.327.5-1.915.1a1.566 1.566 0 0 1-.667-1.191c-.03-.472.158-.932.51-1.247l4.381-3.945.021-.019 1.628-1.465a2.971 2.971 0 0 1 2.733-.673L46 34.784v10.537l-2.868 1.146zm-5.59-13.279c.026-.022.055-.038.079-.062L29.984 21l5.116 4H24.89zM23 27h14v3.523l-3.972-.972a4.959 4.959 0 0 0-4.557 1.126l-1.342 1.208L23 31.626zm29-3c0 .27-.11.527-.306.712A.957.957 0 0 1 51 25H38.345l-2.556-2H51a1 1 0 0 1 1 1zm-14.091-9h-3.934a15.833 15.833 0 0 0-1.15-5.541A7.286 7.286 0 0 1 37.909 15zM30 9c.536 0 1.786 2.1 1.974 6h-3.948c.188-3.9 1.438-6 1.974-6zm1-7h3v2h-3zm-3.825 7.459A15.833 15.833 0 0 0 26.025 15h-3.934a7.286 7.286 0 0 1 5.084-5.541zM22 17h16v4h-4.766l-2.018-1.58a1.973 1.973 0 0 0-2.432 0L26.766 21H22zM8.306 23.288A.957.957 0 0 1 9 23h15.211l-2.556 2H9a1 1 0 0 1-1-1c0-.27.11-.527.306-.712zM10 27h11v4.5l-7-.439V31a2 2 0 0 0-2-2h-2zM2 46V31h10v15zm18.414 1.806-.707.707a1.023 1.023 0 0 1-1.414 0 1 1 0 0 1 0-1.414l.243-.243.008-.008.456-.456a1 1 0 1 1 1.414 1.414zm-.707 4.949a1 1 0 0 1 0-1.414l2.122-2.121a1 1 0 1 1 1.414 1.414l-2.122 2.121a1.023 1.023 0 0 1-1.414 0zm3.243 1.414c0-.265.105-.52.293-.707l.353-.353 1.061-1.06a1 1 0 1 1 1.413 1.414l-1.415 1.414a1.022 1.022 0 0 1-1.413 0 .99.99 0 0 1-.292-.708zm3.121 3.536a1 1 0 0 1 0-1.414l1.414-1.415a1 1 0 0 1 1.415 1.415l-1.414 1.414a1 1 0 0 1-1.415 0zm16.242-7.774a1 1 0 0 1-1.4.011l-.017-.016-3.636-3.632a1 1 0 0 0-1.414 1.414l3.636 3.636.026.025.684.675a1 1 0 1 1-1.416 1.415l-.71-.71-3.493-3.493a1 1 0 0 0-1.414 1.414l3.493 3.493a1 1 0 0 1 .3.715.976.976 0 0 1-.3.7 1.01 1.01 0 0 1-1.41-.006l-.71-.7-.495-.5a1 1 0 0 0-1.415 1.413l.5.5a1 1 0 0 1 0 1.41.984.984 0 0 1-.7.3.988.988 0 0 1-.708-.3l-.821-.821a2.973 2.973 0 0 0-2.537-4.28 2.905 2.905 0 0 0-2.826-2.8 2.909 2.909 0 0 0-2.829-2.829 2.975 2.975 0 0 0-.865-1.992 3.071 3.071 0 0 0-4.2-.036 12.377 12.377 0 0 0-3.636-.88V33.065l7.979.5h.032l3.038.19-2.609 2.352a3.561 3.561 0 0 0 4.728 5.325l4.665-4.083 10.48 11.167a1 1 0 0 1 0 1.415zM48 46V32h10v14z" data-original="#000000" opacity="1"></path></g></svg>