<svg xmlns="http://www.w3.org/2000/svg" version="1.1" xmlns:xlink="http://www.w3.org/1999/xlink" xmlns:svgjs="http://svgjs.com/svgjs" width="512" height="512" x="0" y="0" viewBox="0 0 512 512" style="enable-background:new 0 0 512 512" xml:space="preserve" class=""><g><path d="M432.352 113.923h-77.807l20.805-16.469a8 8 0 0 0 3.035-6.272V77.389c9.234-3.297 15.863-12.126 15.863-22.479 0-13.158-10.705-23.863-23.863-23.863s-23.863 10.705-23.863 23.863c0 10.352 6.629 19.182 15.863 22.479v9.923l-27.167 21.504-7.211-7.21a8.005 8.005 0 0 0-8.904-1.654l-13.87 6.16a100.396 100.396 0 0 0-21.633-8.97l-5.448-14.153a8 8 0 0 0-7.466-5.126H264V49.342c9.234-3.297 15.863-12.127 15.863-22.479C279.863 13.705 269.157 3 256 3s-23.863 10.705-23.863 23.862c0 10.353 6.629 19.183 15.863 22.479v28.521h-6.686a8.001 8.001 0 0 0-7.466 5.126L228.4 97.142a100.375 100.375 0 0 0-21.633 8.97l-13.87-6.16a7.997 7.997 0 0 0-8.904 1.654l-7.211 7.21-27.167-21.504v-9.923c9.234-3.297 15.863-12.126 15.863-22.479 0-13.158-10.705-23.863-23.863-23.863s-23.863 10.705-23.863 23.863c0 10.352 6.629 19.182 15.863 22.479v13.793a8 8 0 0 0 3.035 6.272l20.805 16.469H79.648c-22.079 0-40.041 17.962-40.041 40.041V374.39c0 22.079 17.962 40.041 40.041 40.041h102.857v34.906h-40.771c-19.478 0-35.324 13.382-35.324 29.831V501a8 8 0 0 0 8 8h283.18a8 8 0 0 0 8-8v-21.832c0-16.449-15.846-29.831-35.324-29.831h-40.771v-34.906h102.857c22.078 0 40.041-17.962 40.041-40.041V153.964c0-22.079-17.963-40.041-40.041-40.041zm-61.967-66.876c4.335 0 7.863 3.527 7.863 7.863 0 3.262-1.998 6.065-4.834 7.254h-6.058c-2.836-1.188-4.834-3.992-4.834-7.254 0-4.336 3.528-7.863 7.863-7.863zM256 19c4.335 0 7.863 3.527 7.863 7.862 0 4.336-3.527 7.863-7.863 7.863s-7.863-3.527-7.863-7.863c0-4.335 3.527-7.862 7.863-7.862zM141.615 47.047c4.335 0 7.863 3.527 7.863 7.863 0 4.335-3.527 7.862-7.863 7.862s-7.863-3.527-7.863-7.862c0-4.336 3.528-7.863 7.863-7.863zm2.991 125.183a8 8 0 0 0-5.126 7.466v6.687h-19.234c-3.296-9.235-12.127-15.863-22.479-15.863a23.754 23.754 0 0 0-15.366 5.625v-19.429h79.806a100.274 100.274 0 0 0-3.449 10.067zm-38.977 22.153c0 4.335-3.527 7.862-7.863 7.862s-7.863-3.527-7.863-7.862c0-4.336 3.527-7.863 7.863-7.863s7.863 3.527 7.863 7.863zM82.401 212.62a23.752 23.752 0 0 0 15.366 5.625c10.352 0 19.182-6.628 22.479-15.862h19.234v6.687a8 8 0 0 0 5.126 7.466l14.148 5.446a100.417 100.417 0 0 0 8.971 21.641l-6.158 13.864a8 8 0 0 0 1.654 8.904l20.77 20.77a8 8 0 0 0 8.904 1.654l13.871-6.16a100.413 100.413 0 0 0 21.633 8.969l5.448 14.153a8 8 0 0 0 7.466 5.126h29.373a8 8 0 0 0 7.466-5.126l5.446-14.148a100.332 100.332 0 0 0 21.641-8.972l13.864 6.158a7.999 7.999 0 0 0 8.904-1.654l20.77-20.77a8.001 8.001 0 0 0 1.655-8.904l-6.16-13.871a100.422 100.422 0 0 0 8.969-21.633l14.153-5.448a8 8 0 0 0 5.126-7.466v-6.686h19.234c3.296 9.234 12.126 15.862 22.479 15.862 5.85 0 11.212-2.12 15.367-5.626v131.839H82.401zm323.969-18.237c0-4.336 3.527-7.863 7.862-7.863 4.336 0 7.863 3.527 7.863 7.863 0 4.335-3.527 7.862-7.863 7.862-4.335 0-7.862-3.527-7.862-7.862zm23.23-18.237a23.75 23.75 0 0 0-15.367-5.626c-10.352 0-19.182 6.629-22.479 15.863H372.52v-6.687a8 8 0 0 0-5.126-7.466l-14.148-5.445a100.224 100.224 0 0 0-3.449-10.069H429.6zm-238.178-59.342 12.603 5.597a7.999 7.999 0 0 0 7.441-.499 84.513 84.513 0 0 1 24.777-10.273 7.998 7.998 0 0 0 5.614-4.908l4.95-12.857h18.387l4.949 12.857a7.994 7.994 0 0 0 5.614 4.908 84.513 84.513 0 0 1 24.777 10.273 7.993 7.993 0 0 0 7.441.499l12.603-5.597 13.002 13.001-5.595 12.598a7.998 7.998 0 0 0 .5 7.442 84.471 84.471 0 0 1 10.274 24.783 7.998 7.998 0 0 0 4.909 5.614l12.853 4.947v18.387l-12.857 4.949a8.002 8.002 0 0 0-4.909 5.613 84.488 84.488 0 0 1-10.272 24.777 8.002 8.002 0 0 0-.5 7.441l5.597 12.604-13.001 13.001-12.597-5.595a8 8 0 0 0-7.442.5 84.456 84.456 0 0 1-24.782 10.272 8 8 0 0 0-5.615 4.909l-4.948 12.854h-18.387l-4.949-12.857a7.994 7.994 0 0 0-5.614-4.908 84.511 84.511 0 0 1-24.778-10.272 8.001 8.001 0 0 0-7.441-.499l-12.603 5.597-13.002-13.001 5.595-12.598a7.998 7.998 0 0 0-.5-7.442 84.518 84.518 0 0 1-10.274-24.784 7.998 7.998 0 0 0-4.909-5.613l-12.853-4.947V185.19l12.856-4.949a8.002 8.002 0 0 0 4.909-5.613 84.44 84.44 0 0 1 10.273-24.778 8.001 8.001 0 0 0 .499-7.442l-5.596-12.602zM389.59 479.168V493H122.41v-13.832c0-7.497 8.849-13.831 19.324-13.831h228.532c10.475 0 19.324 6.334 19.324 13.831zm-76.095-29.831h-114.99v-34.906h114.99zm142.898-74.947c0 13.256-10.785 24.041-24.041 24.041H79.648c-13.256 0-24.041-10.785-24.041-24.041V153.964c0-13.256 10.785-24.041 24.041-24.041h81.471c.112.459.253.914.449 1.356l4.191 9.437H78.844c-6.861 0-12.443 5.582-12.443 12.443v199.299a8 8 0 0 0 8 8H437.6a8 8 0 0 0 8-8V153.159c0-6.861-5.583-12.443-12.444-12.443H346.24l4.192-9.438c.196-.442.337-.897.449-1.355h81.471c13.256 0 24.041 10.785 24.041 24.041zM256 254.882c33.359 0 60.5-27.14 60.5-60.499s-27.14-60.5-60.5-60.5-60.5 27.141-60.5 60.5 27.14 60.499 60.5 60.499zm0-104.999c24.537 0 44.5 19.963 44.5 44.5s-19.962 44.499-44.5 44.499-44.5-19.962-44.5-44.499 19.963-44.5 44.5-44.5z" fill="#224653" data-original="#000000" class="" opacity="1"></path></g></svg>