<?xml version="1.0" encoding="utf-8"?>
<!-- Generator: Adobe Illustrator 16.0.0, SVG Export Plug-In . SVG Version: 6.00 Build 0)  -->
<!DOCTYPE svg PUBLIC "-//W3C//DTD SVG 1.1//EN" "http://www.w3.org/Graphics/SVG/1.1/DTD/svg11.dtd">
<svg version="1.1" id="Layer_1" xmlns="http://www.w3.org/2000/svg" xmlns:xlink="http://www.w3.org/1999/xlink" x="0px" y="0px"
	 width="40px" height="40px" viewBox="0 0 40 40" enable-background="new 0 0 40 40" xml:space="preserve">
<g>
	<g>
		<path fill="#FFFFFF" stroke="#FFFFFF" stroke-width="0.5" stroke-miterlimit="10" d="M16.697,26.704v7.817
			c0.011,0.254,0.148,0.488,0.367,0.623c0.11,0.069,0.237,0.108,0.367,0.109l0.331-0.074l5.138-2.567
			c0.254-0.118,0.414-0.38,0.404-0.661v-5.247l8.879-7.634c0.185-0.123,0.295-0.329,0.293-0.551V15.4
			c-0.011-0.461-0.351-0.847-0.807-0.918H8.33c-0.456,0.071-0.795,0.457-0.808,0.918v3.119c0,0.222,0.11,0.428,0.293,0.551
			L16.697,26.704z M8.991,15.951h22.021v2.239l-8.883,7.596c-0.17,0.134-0.277,0.334-0.294,0.551v5.175l-3.67,1.836v-7.011
			c-0.016-0.217-0.122-0.417-0.293-0.551L8.991,18.19V15.951z"/>
		<path fill="#FFFFFF" stroke="#FFFFFF" stroke-width="0.5" stroke-miterlimit="10" d="M11.669,13.822
			c1.744,0,3.157-1.413,3.157-3.156S13.413,7.51,11.669,7.51c-1.743,0-3.156,1.413-3.156,3.156l0,0
			C8.514,12.409,9.926,13.822,11.669,13.822z M11.669,8.978c0.933,0,1.688,0.756,1.688,1.688s-0.756,1.688-1.688,1.688
			s-1.688-0.756-1.688-1.688S10.737,8.978,11.669,8.978z"/>
		<path fill="#FFFFFF" stroke="#FFFFFF" stroke-width="0.5" stroke-miterlimit="10" d="M22.568,10.409
			c-0.021,2.026,1.606,3.687,3.634,3.707c2.026,0.02,3.687-1.606,3.707-3.634c0.021-2.027-1.606-3.687-3.634-3.706
			c-0.012-0.001-0.023-0.001-0.037-0.001C24.227,6.775,22.589,8.396,22.568,10.409z M26.238,8.244
			c1.197-0.021,2.183,0.933,2.201,2.128c0,0.013,0,0.024,0,0.037c0,1.217-0.984,2.202-2.201,2.202s-2.201-0.985-2.201-2.202
			c0-1.196,0.97-2.165,2.165-2.165C26.216,8.244,26.227,8.244,26.238,8.244z"/>
		<path fill="#FFFFFF" stroke="#FFFFFF" stroke-width="0.5" stroke-miterlimit="10" d="M18.863,9.932
			c1.337,0,2.421-1.084,2.421-2.422c0-1.338-1.084-2.423-2.421-2.423c-1.338,0-2.422,1.085-2.422,2.423
			C16.441,8.848,17.524,9.932,18.863,9.932L18.863,9.932z M18.863,6.556c0.527,0,0.955,0.427,0.955,0.954
			c0,0.527-0.428,0.954-0.955,0.954c-0.527,0-0.954-0.427-0.954-0.954C17.909,6.983,18.336,6.556,18.863,6.556z"/>
		<path fill="#FFFFFF" stroke="#FFFFFF" stroke-width="0.5" stroke-miterlimit="10" d="M23.268,5.895c1.336,0,2.42-1.084,2.42-2.422
			c0-1.338-1.084-2.422-2.42-2.422c-1.338,0-2.422,1.084-2.422,2.422C20.846,4.811,21.93,5.895,23.268,5.895L23.268,5.895z
			 M23.268,2.519c0.526,0,0.953,0.427,0.953,0.954s-0.427,0.954-0.953,0.954S22.313,4,22.313,3.473l0,0
			C22.313,2.945,22.74,2.519,23.268,2.519L23.268,2.519z"/>
	</g>
	<text transform="matrix(1 0 0 1 23.5684 37.7568)" fill="#FFFFFF" font-family="'Montserrat-Bold'" font-size="12">$</text>
</g>
</svg>
