<svg xmlns="http://www.w3.org/2000/svg" version="1.1" xmlns:xlink="http://www.w3.org/1999/xlink" width="512" height="512" x="0" y="0" viewBox="0 0 512 512" style="enable-background:new 0 0 512 512" xml:space="preserve"><g><path d="M249 61.08V6.99c0-3.87 3.13-7 7-7s7 3.13 7 7v54.08c0 3.87-3.13 7-7 7s-7-3.13-7-6.99zm88.45 28.82c1.1.64 2.31.94 3.5.94 2.42 0 4.77-1.26 6.07-3.5l27.04-46.83c1.93-3.35.79-7.63-2.56-9.56s-7.63-.79-9.56 2.56L334.9 80.34c-1.94 3.35-.8 7.63 2.55 9.56zm65.7 63.13c1.19 0 2.39-.3 3.5-.94l46.83-27.04c3.35-1.93 4.5-6.22 2.56-9.56-1.93-3.35-6.22-4.5-9.56-2.56l-46.83 27.04c-3.35 1.93-4.5 6.22-2.56 9.56a6.965 6.965 0 0 0 6.06 3.5zm76.84 70.98h-54.08c-3.87 0-7 3.13-7 7s3.13 7 7 7h54.08c3.87 0 7-3.13 7-7s-3.13-7-7-7zm-393.93 0H32.01c-3.87 0-7 3.13-7 7s3.13 7 7 7h54.06c3.87 0 7-3.13 7-7s-3.14-7-7.01-7zm28.83-74.48c1.93-3.35.79-7.63-2.56-9.56L65.5 112.92c-3.35-1.94-7.63-.79-9.56 2.56s-.79 7.63 2.56 9.56l46.83 27.04c1.1.64 2.31.94 3.5.94 2.41.01 4.76-1.24 6.06-3.49zm50.06-62.19c1.3 2.25 3.65 3.5 6.07 3.5 1.19 0 2.39-.3 3.49-.94a7 7 0 0 0 2.57-9.56l-27.01-46.83a7 7 0 1 0-12.13 6.99zm300.44 318.78c9.72 9.72 9.72 25.55 0 35.27-4.86 4.86-11.25 7.29-17.64 7.29s-12.77-2.43-17.64-7.29L382.72 394l-7.96 7.96c-4.16 4.16-9.71 6.45-15.64 6.45s-11.48-2.29-15.64-6.45c-8.61-8.65-8.6-22.67 0-31.27l7.96-7.96-7.14-7.14c-11.66 14.83-23.36 31.9-32.75 54.38v52.35c0 27.4-24.92 49.69-55.56 49.69-30.65 0-55.59-22.29-55.59-49.69v-52.37c-12.71-30.41-29.1-50.25-44.97-69.44-23.58-28.52-45.85-55.45-45.85-109.62 0-80.73 65.68-146.41 146.41-146.41 80.71 0 146.38 65.68 146.38 146.41 0 40.48-12.46 65.3-26.8 85.4l11.15 11.14 7.95-7.95c8.6-8.6 22.63-8.61 31.26-.01l.01.01c8.62 8.62 8.62 22.65 0 31.27l-7.96 7.96zM297.56 460v-16.1h-83.14V460zm0-44.45h-83.14v14.34h83.14zm-2.3 58.45h-78.54c5.65 13.96 21.12 24.01 39.29 24.01 18.14 0 33.6-10.05 39.25-24.01zm39.08-128.38-14.95-14.95c-17.88 11.26-38.39 17.18-59.68 17.18-61.83 0-112.14-50.3-112.14-112.14s50.31-112.14 112.14-112.14 112.14 50.31 112.14 112.14c0 21.3-5.92 41.81-17.18 59.68l10.86 10.85c13.89-20.04 22.85-41.54 22.85-75.35C388.38 157.88 329 98.48 256 98.48c-73.01 0-132.41 59.4-132.41 132.41 0 49.13 19.76 73.02 42.64 100.69 15.26 18.46 32.47 39.26 45.82 69.95h87.86c10.08-23.14 22.32-40.64 34.43-55.91zm27.01 7.2 15.48-15.48-15.16-15.15c-.14-.13-.27-.26-.4-.4l-20.56-20.54a6.997 6.997 0 0 1-.77-8.99c11.72-16.61 17.91-36.16 17.91-56.54 0-54.11-44.02-98.14-98.14-98.14s-98.14 44.02-98.14 98.14c0 54.11 44.02 98.14 98.14 98.14 20.38 0 39.93-6.19 56.54-17.91a7.01 7.01 0 0 1 8.99.77l23.43 23.43.03.03zm16.14 26.61c.09-.1.17-.2.26-.29s.19-.18.29-.26l24.81-24.81c.09-.1.17-.2.27-.3s.2-.18.3-.27l12.63-12.63c3.11-3.11 3.11-8.36.01-11.47-1.59-1.58-3.67-2.37-5.75-2.37s-4.15.79-5.73 2.36l-12.89 12.89-.01.01-.01.01-25.1 25.1c-.09.1-.17.2-.27.3s-.2.18-.3.27l-12.63 12.63c-3.15 3.16-3.15 8.31.01 11.48 1.5 1.5 3.54 2.34 5.72 2.34s4.22-.83 5.74-2.35zm77.99 36.59-47.39-47.39-15.47 15.47 47.39 47.39c4.26 4.26 11.2 4.26 15.47 0s4.27-11.21 0-15.47zm-135.19-137.1h-7.31v-70.3c0-3.87-3.13-7-7-7s-7 3.13-7 7v70.3H282v-40.76c0-3.87-3.13-7-7-7s-7 3.13-7 7v40.76h-17.01v-57.37c0-3.87-3.13-7-7-7s-7 3.13-7 7v57.37H220v-36.79c0-3.87-3.13-7-7-7s-7 3.13-7 7v36.79h-7.31c-3.87 0-7 3.13-7 7s3.13 7 7 7H320.3c3.87 0 7-3.13 7-7s-3.14-7-7.01-7zM213 224.86c1.88 0 3.68-.76 5-2.1l27.14-27.69 26.29 15.52a7.007 7.007 0 0 0 8.69-1.26L311.1 176c2.63-2.83 2.47-7.26-.36-9.9-2.83-2.63-7.26-2.47-9.9.36l-27.15 29.21-26.16-15.45a6.998 6.998 0 0 0-8.56 1.13l-28.92 29.51h-13.73c-3.87 0-7 3.13-7 7s3.13 7 7 7z" fill="#1b76ff" opacity="1" data-original="#000000"></path></g></svg>