<svg xmlns="http://www.w3.org/2000/svg" version="1.1" xmlns:xlink="http://www.w3.org/1999/xlink" width="512" height="512" x="0" y="0" viewBox="0 0 24 24" style="enable-background:new 0 0 512 512" xml:space="preserve"><g><linearGradient id="a" x1="2.975" x2="21.013" y1="12.038" y2="12.038" gradientUnits="userSpaceOnUse"><stop offset="0" stop-color="#4dbfff"></stop><stop offset="1" stop-color="#008ddb"></stop></linearGradient><path fill="url(#a)" d="M18.4 16.5 12 22.9l-6.4-6.4C2.1 13 2.1 7.3 5.6 3.8s9.2-3.5 12.7 0c3.6 3.5 3.6 9.2.1 12.7zM12 14.1c2.2 0 4-1.8 4-4s-1.8-4-4-4-4 1.8-4 4 1.8 4 4 4zm0-2c-1.1 0-2-.9-2-2s.9-2 2-2 2 .9 2 2-.9 2-2 2z" opacity="1" data-original="url(#a)"></path></g></svg>