<svg width="104" height="36" fill="none" xmlns="http://www.w3.org/2000/svg"><path d="M44.83 9.572h6.854L48.076 3.71l-6.674 10.553h-3.067l8.118-12.627c.631-.902 1.804-1.083 2.706-.451.18.09.36.18.45.36l8.119 12.719H54.66l-1.443-2.346h-6.946L44.83 9.572zm31.479 2.345V.913h-2.616V13c0 .36.18.631.36.902.271.27.542.36.903.36h11.726l1.533-2.345H76.31zM33.825 9.933a4.466 4.466 0 0 0 4.51-4.51 4.466 4.466 0 0 0-4.51-4.51H22.55v13.35h2.616V3.257h8.478a2.26 2.26 0 0 1 2.075 2.255c-.09 1.083-.902 1.985-2.075 2.075h-7.216l7.667 6.674h3.699l-5.142-4.329h1.173zm-27.06 4.33h7.757a6.66 6.66 0 0 0 6.675-6.675A6.66 6.66 0 0 0 14.522.913H6.765C3.067.913 0 3.89 0 7.588s3.067 6.674 6.765 6.674zm7.577-2.346H6.855c-2.345-.09-4.24-2.074-4.149-4.51a4.323 4.323 0 0 1 4.15-4.149h7.486c2.345-.09 4.42 1.804 4.51 4.15.09 2.345-1.804 4.42-4.15 4.51h-.36zm48.798 2.345h7.937l1.534-2.345H63.32c-2.345.09-4.42-1.804-4.51-4.149-.09-2.345 1.804-4.42 4.15-4.51h7.846L72.34.913h-9.2a6.66 6.66 0 0 0-6.675 6.675 6.66 6.66 0 0 0 6.675 6.674zm31.48-2.345a4.33 4.33 0 0 1-4.15-3.157h11.004l1.534-2.345H90.47a4.33 4.33 0 0 1 4.15-3.157h7.576l1.533-2.345h-9.2a6.66 6.66 0 0 0-6.675 6.675 6.66 6.66 0 0 0 6.675 6.674h7.938L104 11.917h-9.38zM1.954 34.92V22.2H4.48l5.502 8.3v-8.3h2.706v12.72h-2.525L4.66 26.621v8.299H1.954zm13.26 0V22.2h8.298v2.346H18.01v2.796h5.051v2.345H18.01v2.977h5.682v2.164l-8.478.09zm13.71 0V24.456h-3.788v-2.255h10.192v2.346H31.54v10.372h-2.616zm8.118-.632v-1.443a8.823 8.823 0 0 0 3.698.812c.812.09 1.624-.18 2.255-.542.541-.36.812-.992.812-1.623 0-.451-.18-.902-.541-1.263-.541-.45-1.173-.812-1.804-.992l-1.353-.541c-.902-.27-1.714-.812-2.436-1.444-.45-.54-.721-1.172-.721-1.894 0-.992.45-1.894 1.172-2.525.992-.632 2.075-.992 3.247-.902.632 0 1.173.09 1.804.18.542.09 1.083.27 1.534.541v1.444c-.992-.451-2.165-.722-3.247-.812-1.895 0-2.887.631-2.887 1.894 0 .45.18.812.541 1.082.542.451 1.173.722 1.804.992l1.353.542c.902.27 1.804.811 2.526 1.533.451.541.722 1.263.722 2.075.09.992-.361 1.984-1.173 2.615-.992.722-2.165.993-3.337.993-.451 0-.902 0-1.353-.09l-1.353-.271c-.632 0-.992-.18-1.263-.361zm10.463-5.141V22.2h1.624v6.946c0 1.533.27 2.706.812 3.427 1.262 1.353 3.427 1.534 4.78.271l.27-.27c.542-.722.813-1.895.813-3.428V22.2h1.623v7.036c0 2.075-.45 3.518-1.263 4.51-.812.992-2.074 1.443-3.698 1.443-1.623 0-2.886-.45-3.698-1.443-.812-.992-1.263-2.526-1.263-4.6zm12.628 5.773V22.2h1.624v12.72h-1.624zm7.847 0V23.553h-3.968V22.2h9.651v1.353h-4.059V34.83h-1.623v.09zm7.848 0V22.2h7.847v1.353h-6.224v4.15h5.683v1.353h-5.683v4.33h6.405v1.352h-8.028v.18z" fill="#312D2A"/></svg>