<?xml version="1.0" encoding="utf-8"?>
<!-- Generator: Adobe Illustrator 16.0.0, SVG Export Plug-In . SVG Version: 6.00 Build 0)  -->
<!DOCTYPE svg PUBLIC "-//W3C//DTD SVG 1.1//EN" "http://www.w3.org/Graphics/SVG/1.1/DTD/svg11.dtd">
<svg version="1.1" id="Layer_1" xmlns="http://www.w3.org/2000/svg" xmlns:xlink="http://www.w3.org/1999/xlink" x="0px" y="0px"
	 width="1000px" height="1000px" viewBox="0 0 1000 1000" enable-background="new 0 0 1000 1000" xml:space="preserve">
<g>
	<path fill="#1B76FF" d="M638.863,221.63c-10.613,0.257-20.535,5.342-26.943,13.811L477.058,413.983l-91.518-96.893h0.007
		c-6.337-6.703-15.077-10.622-24.3-10.887c-9.223-0.271-18.181,3.134-24.898,9.456c-6.728,6.346-10.653,15.094-10.919,24.34
		c-0.271,9.238,3.144,18.205,9.495,24.923l119.753,126.83c7.037,7.457,17.007,11.439,27.248,10.871
		c10.24-0.562,19.712-5.606,25.886-13.796l159.763-211.332c5.592-7.371,8.01-16.672,6.733-25.833
		c-1.274-9.168-6.145-17.45-13.539-23.017c-6.297-4.751-14.02-7.224-21.905-7.006V221.63z"/>
	<path fill="#1B76FF" d="M150.409,361.796c0,49.394,10.451,96.354,29.051,139.007L17.04,778.008
		c-14.051,24.09,4.487,54.106,32.315,52.326l163.642-10.413l70.964,147.717c12.021,25.021,47.055,26.615,61.307,2.79
		l102.608-171.536c9.923-16.516,4.557-37.938-11.976-47.829c-16.517-9.859-37.9-4.471-47.77,12.047l-69.402,115.941l-53.14-110.501
		c-6.144-12.785-19.441-20.566-33.601-19.666l-121.659,7.761l109.474-186.836c69.236,83.647,145.399,141.114,282.857,141.114
		L654.598,970.15c14.113,24.044,49.349,22.605,61.439-2.521l70.965-147.714l163.639,10.412c27.832,1.78,46.371-28.236,32.32-52.325
		l-162.889-277.94c18.397-42.45,28.719-89.153,28.719-138.262c0-192.444-156.752-349.188-349.188-349.188
		c-192.447,0.008-349.188,156.752-349.188,349.188L150.409,361.796z M499.595,82.281c154.793,0,279.515,124.722,279.515,279.515
		S654.388,641.39,499.595,641.39c-154.792,0-279.512-124.794-279.512-279.594C220.083,206.995,344.81,82.281,499.595,82.281z
		 M779.867,569.106l109.822,187.521l-121.66-7.762c-14.16-0.901-27.457,6.875-33.607,19.667l-52.799,109.823L578.131,701.794
		c82.117-18.998,153.035-67.024,201.736-132.678V569.106L779.867,569.106z"/>
</g>
</svg>
