<svg xmlns="http://www.w3.org/2000/svg" version="1.1" xmlns:xlink="http://www.w3.org/1999/xlink" width="512" height="512" x="0" y="0" viewBox="0 0 512 512" style="enable-background:new 0 0 512 512" xml:space="preserve" class=""><g><path d="M491.776 426.566h-26.352v-185.07c20.641-8.235 35.045-26.545 35.045-47.776a8.008 8.008 0 0 0-1.153-4.138l-56.747-93.9c-.181-.299-.371-.59-.569-.874V53.284c0-12.122-9.862-21.984-21.984-21.984H151.278c-12.122 0-21.984 9.862-21.984 21.984V97.59l-55.593 91.991a8.005 8.005 0 0 0-1.153 4.138c0 21.231 14.404 39.541 35.045 47.776v52.547H49.307l-6.051-27.063a8 8 0 0 0-7.807-6.254H16a8 8 0 0 0 0 16h13.04l22.043 98.582c-6.58 3.431-11.09 10.308-11.09 18.228 0 10.267 7.575 18.776 17.425 20.292a22.179 22.179 0 0 0-.972 6.502c0 8.799 5.138 16.421 12.571 20.024v28.124c0 6.74 5.483 12.224 12.224 12.224h410.536c6.74 0 12.224-5.483 12.224-12.224v-29.688c-.001-6.74-5.484-12.223-12.225-12.223zm-50.797-196.421c-20.698 0-38.054-12.178-42.421-28.426H483.4c-4.365 16.248-21.722 28.426-42.421 28.426zM144.784 103.901h57.814l-24.991 81.818H94.729l49.373-81.7c.072-.035.281-.118.682-.118zm208.906 0 24.991 81.818h-84.172v-81.818zm-75.181 81.818h-84.173l24.991-81.818h59.181v81.818zm-1.07 16c-4.366 16.248-21.722 28.426-42.421 28.426-20.698 0-38.054-12.178-42.421-28.426zm102.981 0c-4.366 16.248-21.722 28.426-42.421 28.426s-38.054-12.178-42.421-28.426zm97.868-16H395.41l-24.991-81.818h57.814c.4 0 .609.083.681.118zM151.278 47.3h268.739a5.992 5.992 0 0 1 5.984 5.984v34.617H145.293V53.284c0-3.3 2.685-5.984 5.985-5.984zM89.616 201.719h84.842c-4.366 16.248-21.722 28.426-42.421 28.426s-38.055-12.178-42.421-28.426zm73.875 108.323c.655 0 2.279.567 3.185 1.698.415.517.791 1.257.44 2.826l-13.062 58.412H66.958l-14.073-62.936zM55.993 393.534c0-2.47 2.086-4.557 4.556-4.557h99.914a8 8 0 0 0 7.807-6.254l14.46-64.666c1.338-5.983.071-11.779-3.567-16.32-3.745-4.674-9.896-7.695-15.672-7.695h-39.898v-48.435c2.76.347 5.578.538 8.445.538 21.963 0 41.185-10.543 51.49-26.188 10.305 15.645 29.527 26.188 51.49 26.188 21.964 0 41.186-10.543 51.491-26.188 10.305 15.645 29.527 26.188 51.49 26.188s41.185-10.543 51.49-26.188c10.305 15.645 29.527 26.188 51.49 26.188 2.867 0 5.685-.19 8.445-.537v180.958h-68.406V311.937h1.35a8 8 0 0 0 8-8v-22.615a8 8 0 0 0-8-8H190.649a8 8 0 0 0-8 8v22.615a8 8 0 0 0 8 8h1.35v114.628h-18.156c.58-1.98.897-4.072.897-6.237 0-12.255-9.966-22.226-22.218-22.237l-.019-.001H60.549c-2.47.001-4.556-2.086-4.556-4.556zm318.375-97.597H198.649v-6.615h175.719zm-95.859 16v114.628h-70.51V311.937zm16 0h70.509v114.628h-70.509zM152.492 426.566a6.244 6.244 0 0 1-6.228-6.237c0-3.439 2.798-6.237 6.237-6.237s6.238 2.798 6.238 6.237a6.244 6.244 0 0 1-6.228 6.237zm-73.808-12.475c3.439 0 6.237 2.798 6.237 6.237s-2.798 6.238-6.237 6.238-6.238-2.798-6.238-6.238 2.798-6.237 6.238-6.237zm21.34 0h31.137a22.159 22.159 0 0 0 0 12.475h-31.137a22.152 22.152 0 0 0 0-12.475zM488 464.7H85.017v-22.135H488zM185.97 67.6a8 8 0 0 1 8-8h61.051a8 8 0 0 1 0 16H193.97a8 8 0 0 1-8-8zm124.026 0a8 8 0 0 1 8-8h61.051a8 8 0 0 1 0 16h-61.051a8 8 0 0 1-8-8zM235.78 384.927l17.312-29.984a8 8 0 0 1 13.856 8l-17.312 29.984a7.998 7.998 0 0 1-10.929 2.928 8 8 0 0 1-2.927-10.928zm-16.22-9.366 17.312-29.984a8 8 0 0 1 13.856 8l-17.312 29.984a7.998 7.998 0 0 1-10.929 2.928 8 8 0 0 1-2.927-10.928zm133.898-12.619-17.312 29.984a7.998 7.998 0 0 1-10.929 2.928 8 8 0 0 1-2.928-10.928l17.312-29.984a7.999 7.999 0 0 1 10.928-2.928 8 8 0 0 1 2.929 10.928zm-16.221-9.365-17.312 29.984a7.998 7.998 0 0 1-10.929 2.928 8 8 0 0 1-2.928-10.928l17.312-29.984a7.998 7.998 0 0 1 10.928-2.928 8 8 0 0 1 2.929 10.928z" fill="#224653" opacity="1" data-original="#000000" class=""></path></g></svg>