<svg xmlns="http://www.w3.org/2000/svg" version="1.1" xmlns:xlink="http://www.w3.org/1999/xlink" width="512" height="512" x="0" y="0" viewBox="0 0 512 512" style="enable-background:new 0 0 512 512" xml:space="preserve" class=""><g><path d="M371.99 140.01c-43.89-43.89-95-78.35-151.93-102.43C161.11 12.64 98.51 0 33.99 0 15.22 0 0 15.22 0 33.99s15.22 33.99 33.99 33.99c55.37 0 109.06 10.84 159.59 32.21 48.82 20.65 92.67 50.22 130.34 87.89s67.24 81.52 87.89 130.34c21.37 50.53 32.21 104.22 32.21 159.59 0 18.77 15.22 33.99 33.99 33.99S512 496.78 512 478.01c0-64.52-12.64-127.12-37.58-186.07-24.08-56.92-58.54-108.04-102.43-151.93z" fill="#ffffff" opacity="1" data-original="#000000" class=""></path><path d="M271.49 240.51c-30.83-30.83-66.75-55.05-106.75-71.97-41.43-17.52-85.42-26.41-130.75-26.41C15.22 142.13 0 157.35 0 176.12s15.22 33.99 33.99 33.99c71.55 0 138.83 27.86 189.42 78.46 50.6 50.6 78.46 117.87 78.46 189.42 0 18.77 15.22 33.99 33.99 33.99s33.99-15.22 33.99-33.99c0-45.33-8.89-89.32-26.41-130.75-16.92-40-41.13-75.91-71.97-106.75z" fill="#ffffff" opacity="1" data-original="#000000" class=""></path><path d="M159.74 478.01c0 18.77 15.22 33.99 33.99 33.99s33.99-15.22 33.99-33.99c0-106.82-86.91-193.73-193.73-193.73C15.22 284.28 0 299.5 0 318.27s15.22 33.99 33.99 33.99c69.34 0 125.75 56.41 125.75 125.75zM0 460.41v17.6C0 496.78 15.22 512 33.99 512h17.6c18.77 0 33.99-15.22 33.99-33.99 0-28.45-23.14-51.59-51.59-51.59C15.22 426.42 0 441.64 0 460.41z" fill="#ffffff" opacity="1" data-original="#000000" class=""></path></g></svg>