<?xml version="1.0" encoding="utf-8"?>
<!-- Generator: Adobe Illustrator 16.0.0, SVG Export Plug-In . SVG Version: 6.00 Build 0)  -->
<!DOCTYPE svg PUBLIC "-//W3C//DTD SVG 1.1//EN" "http://www.w3.org/Graphics/SVG/1.1/DTD/svg11.dtd">
<svg version="1.1" id="Layer_1" xmlns="http://www.w3.org/2000/svg" xmlns:xlink="http://www.w3.org/1999/xlink" x="0px" y="0px"
	 width="1000px" height="1000px" viewBox="0 0 1000 1000" enable-background="new 0 0 1000 1000" xml:space="preserve">
<g>
	<path fill="#FFFFFF" d="M340.748,814.421c-45.168-23.01-84.896-55.395-116.542-94.992c-5.563-6.729-15.487-7.759-22.315-2.315
		c-6.828,5.439-8.044,15.345-2.731,22.271c34.5,43.209,77.833,78.562,127.09,103.681c2.245,1.136,4.727,1.729,7.243,1.723
		c7.4-0.007,13.836-5.084,15.56-12.284c1.724-7.191-1.709-14.637-8.302-17.997L340.748,814.421z"/>
	<path fill="#FFFFFF" d="M244.392,212.891c-28.236,25.126-52.618,54.269-72.383,86.49c-4.611,7.544-2.245,17.404,5.306,22.023
		c7.544,4.62,17.404,2.245,22.023-5.306c18.112-29.547,40.47-56.272,66.355-79.325c6.606-5.885,7.193-16.01,1.315-22.617
		c-5.885-6.607-16.009-7.2-22.616-1.315V212.891z"/>
	<path fill="#FFFFFF" d="M830.968,354.055c5.541,0.015,10.697-2.831,13.63-7.529c2.933-4.698,3.231-10.582,0.785-15.552
		c-12.45-25.368-27.657-49.294-45.342-71.339c-5.541-6.9-15.622-8.001-22.523-2.467c-6.892,5.542-8,15.624-2.459,22.523
		c16.232,20.207,30.202,42.139,41.645,65.398c2.665,5.45,8.193,8.924,14.266,8.968L830.968,354.055L830.968,354.055z"/>
	<path fill="#FFFFFF" d="M753.171,789.25c20.097-17.604,38.308-37.252,54.347-58.615c5.304-7.079,3.873-17.119-3.205-22.424
		c-7.077-5.306-17.116-3.875-22.423,3.203c-14.716,19.585-31.425,37.597-49.858,53.734c-6.114,5.946-6.493,15.649-0.858,22.06
		c5.636,6.399,15.304,7.272,21.981,1.967L753.171,789.25z"/>
	<path fill="#FFFFFF" d="M708.216,812.316c0,8.845-7.171,16.017-16.017,16.017c-8.844,0-16.018-7.172-16.018-16.017
		c0-8.847,7.173-16.019,16.018-16.019C701.045,796.299,708.216,803.471,708.216,812.316"/>
	<path fill="#FFFFFF" d="M557.074,19.5H355.85c-12.741,0-24.97,5.063-33.977,14.072c-9.008,9.009-14.072,21.236-14.072,33.978
		v180.344c0,12.748,5.063,24.97,14.072,33.976c9.009,9.01,21.237,14.072,33.977,14.072h17.876
		c4.305,11.025,12.886,19.834,23.79,24.434c10.904,4.604,23.203,4.604,34.106,0c10.896-4.598,19.478-13.407,23.789-24.434h162.727
		c4.313,11.025,12.894,19.834,23.798,24.434c10.896,4.604,23.193,4.604,34.099,0c10.905-4.598,19.483-13.407,23.79-24.434h28.893
		c4.249,0,8.322-1.688,11.326-4.691c3.004-3.002,4.691-7.079,4.691-11.326v-96.1c0.008-2.245-0.466-4.469-1.396-6.514
		l-34.449-77.252c-2.352-5.263-6.172-9.738-10.997-12.892c-4.826-3.153-10.46-4.847-16.231-4.884h-76.53V67.546
		c0-12.741-5.063-24.968-14.072-33.976c-9.01-9.008-21.229-14.072-33.977-14.072L557.074,19.5z M339.833,67.549
		c0-8.844,7.171-16.016,16.017-16.016h201.226c4.245,0,8.322,1.687,11.326,4.69c3.002,3.004,4.688,7.08,4.688,11.326v30.432v0.386
		v81.299H339.833V67.549z M339.833,247.895V211.7h233.202v52.211H455.528c-4.412-10.955-13.035-19.692-23.933-24.246
		c-10.896-4.555-23.166-4.555-34.069,0c-10.897,4.554-19.513,13.292-23.925,24.246h-17.746c-8.846,0-16.018-7.164-16.018-16.016
		H339.833z M414.631,291.783c-4.84,0.036-9.224-2.86-11.09-7.33c-1.866-4.468-0.852-9.617,2.574-13.042
		c3.418-3.418,8.573-4.44,13.035-2.567c4.47,1.866,7.365,6.242,7.33,11.083C426.43,286.457,421.153,291.733,414.631,291.783
		L414.631,291.783z M658.889,291.783c-4.824-0.036-9.156-2.968-10.975-7.443c-1.814-4.469-0.758-9.596,2.675-12.984
		c3.431-3.39,8.573-4.377,13.021-2.496c4.447,1.873,7.321,6.242,7.294,11.068c-0.006,3.175-1.278,6.208-3.53,8.438
		C665.11,290.589,662.059,291.819,658.889,291.783L658.889,291.783z M699.91,263.911h-0.006
		c-4.404-10.955-13.021-19.692-23.918-24.253c-10.896-4.555-23.165-4.555-34.063,0c-10.904,4.561-19.519,13.299-23.923,24.253
		h-12.93v-58.775h107.633v58.783L699.91,263.911z M680.178,114.318l26.219,58.783H605.133v-58.783H680.178z"/>
	<path fill="#FFFFFF" d="M964.483,403.9H740.25c-8.846,0-16.017,7.172-16.017,16.017V644.15c0,4.248,1.688,8.321,4.69,11.325
		c3.002,3.003,7.079,4.69,11.325,4.69h224.233c4.245,0,8.32-1.688,11.324-4.69c3.002-3.004,4.691-7.077,4.691-11.325V419.917
		c0-4.247-1.689-8.323-4.691-11.326C972.805,405.587,968.729,403.9,964.483,403.9z M879.464,435.933v35.717H825.27v-35.717H879.464z
		 M948.466,628.134H756.267V435.933h36.968v51.732c0,4.248,1.688,8.324,4.69,11.327c3.002,3.002,7.079,4.689,11.325,4.689h86.232
		c4.246,0,8.321-1.688,11.325-4.689c3.005-3.003,4.691-7.079,4.691-11.327v-51.732h36.966L948.466,628.134L948.466,628.134z"/>
	<path fill="#FFFFFF" d="M35.517,660.167H355.85c4.248,0,8.323-1.688,11.326-4.69c3.003-3.004,4.691-7.077,4.691-11.325V414.754
		c0-5.577-2.896-10.747-7.651-13.657c-4.749-2.91-10.675-3.146-15.638-0.614l-87.598,44.639l2.689-28.83h0.007
		c0.551-5.878-2.166-11.577-7.071-14.844c-4.912-3.269-11.227-3.568-16.424-0.787l-95.399,50.834l-14.766-129.492
		c-0.922-8.102-7.78-14.221-15.938-14.206H52.979c-8.144,0.007-14.987,6.121-15.91,14.206L19.608,474.897h0.007
		c-0.079,0.601-0.115,1.2-0.115,1.809v167.438c0,4.246,1.688,8.323,4.691,11.325c3.002,3.003,7.078,4.691,11.326,4.691V660.167z
		 M51.533,477.576l15.731-137.743h32.527l15.81,138.687c0.593,5.271,3.761,9.903,8.459,12.378
		c4.697,2.466,10.311,2.452,14.986-0.043l89.937-47.972l-2.581,28.286c-0.544,5.813,2.123,11.469,6.957,14.744
		c4.834,3.281,11.069,3.668,16.268,1.015l90.208-46.033v187.241H51.533V477.576z"/>
	<path fill="#FFFFFF" d="M115.6,564.066c0,8.845-7.172,16.017-16.017,16.017s-16.016-7.172-16.016-16.017
		s7.171-16.018,16.016-16.018C108.427,548.05,115.6,555.223,115.6,564.066"/>
	<path fill="#FFFFFF" d="M211.7,564.066c0,8.845-7.172,16.017-16.018,16.017c-8.845,0-16.017-7.172-16.017-16.017
		s7.172-16.018,16.017-16.018C204.528,548.05,211.7,555.223,211.7,564.066"/>
	<path fill="#FFFFFF" d="M307.799,564.066c0,8.845-7.171,16.017-16.017,16.017c-8.844,0-16.016-7.172-16.016-16.017
		s7.172-16.018,16.016-16.018C300.628,548.05,307.799,555.223,307.799,564.066"/>
	<path fill="#FFFFFF" d="M361.14,980.5H644.15c4.246,0,8.322-1.688,11.324-4.69c3.005-3.004,4.691-7.078,4.691-11.325
		c0.529-32.82-8.279-65.118-25.405-93.126c-17.124-28.001-41.856-50.562-71.315-65.039c0.406-2.194,0.613-4.419,0.62-6.649v-61.978
		c0-26.313-27.02-46.93-61.51-46.93c-34.484,0-61.341,20.615-61.341,46.93v61.983v-0.007c0.008,2.21,0.207,4.411,0.607,6.585
		c-29.466,14.486-54.205,37.054-71.331,65.068c-17.125,28.022-25.927,60.327-25.376,93.163c0,4.247,1.687,8.322,4.69,11.325
		c3.003,3.004,7.079,4.69,11.326,4.69L361.14,980.5z M473.256,737.688c0-5.929,11.69-14.896,29.313-14.896
		c17.617,0,29.473,8.967,29.473,14.896v61.984v-0.007c-0.164,1.896-0.979,3.675-2.31,5.034c-7.607,6.35-17.212,9.831-27.128,9.831
		c-9.918,0-19.521-3.481-27.135-9.831c-1.272-1.408-2.052-3.204-2.209-5.099L473.256,737.688z M459.499,833.371v-0.007
		c12.735,8.559,27.737,13.135,43.081,13.135c15.337,0,30.339-4.576,43.074-13.135c22.694,10.09,42.25,26.101,56.615,46.349
		c14.371,20.248,23.017,44.003,25.043,68.75H378c1.988-24.74,10.611-48.479,24.955-68.736
		c14.343-20.249,33.878-36.266,56.554-46.361L459.499,833.371z"/>
</g>
</svg>
