<svg xmlns="http://www.w3.org/2000/svg" version="1.1" xmlns:xlink="http://www.w3.org/1999/xlink" xmlns:svgjs="http://svgjs.com/svgjs" width="512" height="512" x="0" y="0" viewBox="0 0 682.667 682.667" style="enable-background:new 0 0 512 512" xml:space="preserve"><g><defs><clipPath id="b" clipPathUnits="userSpaceOnUse"><path d="M0 512h512V0H0Z" fill="#002254" data-original="#000000" opacity="1"></path></clipPath></defs><mask id="a"><rect width="100%" height="100%" fill="#ffffff" data-original="#ffffff"></rect></mask><g mask="url(#a)"><g clip-path="url(#b)" transform="matrix(1.33333 0 0 -1.33333 0 682.667)"><path d="m0 0 66.997 66.294c25.025 25.025 73.151-6.545 47.149-37.135L33.019-66.285a56.88 56.88 0 0 0-10.85-9.849C9.089-84.491-6.487-87.276-21.832-87.276h-120.389c-8.709 0-17.411-.504-26.062-1.511l-34.625-3.889-71.818 69.694s40.743 76.938 120.661 54.823c14.948-4.137 30.416-6.11 45.925-6.11h79.124c37.248 0 37.539-59.182-.311-59.182h-68.881" style="stroke-width:20;stroke-linecap:round;stroke-linejoin:round;stroke-miterlimit:10;stroke-dasharray:none;stroke-opacity:1" transform="translate(378.307 195.5)" fill="none" stroke="#002254" stroke-width="20" stroke-linecap="round" stroke-linejoin="round" stroke-miterlimit="10" stroke-dasharray="none" stroke-opacity="" data-original="#000000" opacity="1"></path><path d="m0 0 68.324 70.098a.049.049 0 0 1-.001.069L-47.613 182.674a.049.049 0 0 1-.069-.001l-68.967-71.599z" style="stroke-width:20;stroke-linecap:round;stroke-linejoin:round;stroke-miterlimit:10;stroke-dasharray:none;stroke-opacity:1" transform="translate(128.224 12.134)" fill="none" stroke="#002254" stroke-width="20" stroke-linecap="round" stroke-linejoin="round" stroke-miterlimit="10" stroke-dasharray="none" stroke-opacity="" data-original="#000000" opacity="1"></path><path d="m0 0 .096-.408" style="stroke-width:20;stroke-linecap:round;stroke-linejoin:round;stroke-miterlimit:10;stroke-dasharray:none;stroke-opacity:1" transform="translate(239.179 162.431)" fill="none" stroke="#002254" stroke-width="20" stroke-linecap="round" stroke-linejoin="round" stroke-miterlimit="10" stroke-dasharray="none" stroke-opacity="" data-original="#000000" opacity="1"></path><path d="M0 0c-21.659-2.05-38.604-20.288-38.604-42.483v-45.439c0-7.849 6.362-14.211 14.211-14.211h97.44c7.849 0 14.211 6.362 14.211 14.211v45.439c0 22.212-16.97 40.46-38.652 42.488" style="stroke-width:20;stroke-linecap:round;stroke-linejoin:round;stroke-miterlimit:10;stroke-dasharray:none;stroke-opacity:1" transform="translate(93.56 403.93)" fill="none" stroke="#002254" stroke-width="20" stroke-linecap="round" stroke-linejoin="round" stroke-miterlimit="10" stroke-dasharray="none" stroke-opacity="" data-original="#000000" opacity="1"></path><path d="M0 0c0-26.334-21.348-47.682-47.682-47.682-26.334 0-47.682 21.348-47.682 47.682 0 26.334 21.348 47.682 47.682 47.682C-21.348 47.682 0 26.334 0 0Z" style="stroke-width:20;stroke-linecap:round;stroke-linejoin:round;stroke-miterlimit:10;stroke-dasharray:none;stroke-opacity:1" transform="translate(165.57 445.094)" fill="none" stroke="#002254" stroke-width="20" stroke-linecap="round" stroke-linejoin="round" stroke-miterlimit="10" stroke-dasharray="none" stroke-opacity="" data-original="#000000" opacity="1"></path><path d="M0 0c-21.659-2.05-38.604-20.288-38.604-42.483v-45.439c0-7.849 6.362-14.211 14.211-14.211h97.44c7.849 0 14.211 6.362 14.211 14.211v45.439c0 22.212-16.97 40.46-38.652 42.488" style="stroke-width:20;stroke-linecap:round;stroke-linejoin:round;stroke-miterlimit:10;stroke-dasharray:none;stroke-opacity:1" transform="translate(219.423 403.93)" fill="none" stroke="#002254" stroke-width="20" stroke-linecap="round" stroke-linejoin="round" stroke-miterlimit="10" stroke-dasharray="none" stroke-opacity="" data-original="#000000" opacity="1"></path><path d="M0 0c0-26.334-21.348-47.682-47.682-47.682-26.334 0-47.682 21.348-47.682 47.682 0 26.334 21.348 47.682 47.682 47.682C-21.348 47.682 0 26.334 0 0Z" style="stroke-width:20;stroke-linecap:round;stroke-linejoin:round;stroke-miterlimit:10;stroke-dasharray:none;stroke-opacity:1" transform="translate(291.432 445.094)" fill="none" stroke="#002254" stroke-width="20" stroke-linecap="round" stroke-linejoin="round" stroke-miterlimit="10" stroke-dasharray="none" stroke-opacity="" data-original="#000000" opacity="1"></path><path d="M0 0c-21.659-2.05-38.604-20.288-38.604-42.483v-45.439c0-7.849 6.362-14.211 14.211-14.211h97.44c7.849 0 14.211 6.362 14.211 14.211v45.439c0 22.212-16.97 40.46-38.652 42.488" style="stroke-width:20;stroke-linecap:round;stroke-linejoin:round;stroke-miterlimit:10;stroke-dasharray:none;stroke-opacity:1" transform="translate(345.286 403.93)" fill="none" stroke="#002254" stroke-width="20" stroke-linecap="round" stroke-linejoin="round" stroke-miterlimit="10" stroke-dasharray="none" stroke-opacity="" data-original="#000000" opacity="1"></path><path d="M0 0c0-26.334-21.348-47.682-47.682-47.682-26.334 0-47.682 21.348-47.682 47.682 0 26.334 21.348 47.682 47.682 47.682C-21.348 47.682 0 26.334 0 0Z" style="stroke-width:20;stroke-linecap:round;stroke-linejoin:round;stroke-miterlimit:10;stroke-dasharray:none;stroke-opacity:1" transform="translate(417.295 445.094)" fill="none" stroke="#002254" stroke-width="20" stroke-linecap="round" stroke-linejoin="round" stroke-miterlimit="10" stroke-dasharray="none" stroke-opacity="" data-original="#000000" opacity="1"></path></g></g></g></svg>