<svg xmlns="http://www.w3.org/2000/svg" version="1.1" xmlns:xlink="http://www.w3.org/1999/xlink" xmlns:svgjs="http://svgjs.com/svgjs" width="512" height="512" x="0" y="0" viewBox="0 0 512 511" style="enable-background:new 0 0 512 512" xml:space="preserve"><g><path d="M509.914 214.86 424.22 103.54a10.04 10.04 0 0 0-13.344-2.345l-55.328 35.188h-72.16c-.934 0-1.864.199-2.762.46l-55.95 16.106-58.054-15.879-56.41-35.875a10.035 10.035 0 0 0-13.2 2.164L2.228 220.766c-3.407 4.218-2.844 10.379 1.265 13.914l49.68 42.754 44.57 60.062c-13.035 13.887-12.781 35.79.781 49.356 6.012 6.007 13.657 9.402 21.52 10.191a35.708 35.708 0 0 0-.414 5.426c0 9.476 3.691 18.386 10.39 25.086 6.704 6.703 15.614 10.394 25.09 10.394.13 0 .254-.008.38-.012-.005.243-.016.481-.016.723 0 9.477 3.691 18.387 10.39 25.09 6.703 6.7 15.614 10.39 25.09 10.39a36.2 36.2 0 0 0 5.54-.433 35.298 35.298 0 0 0 10.202 21.602c6.914 6.918 16 10.375 25.086 10.375s18.172-3.457 25.09-10.375l5.426-5.426 2.277 1.836c6.86 6.644 15.766 9.965 24.672 9.965 9.086 0 18.172-3.457 25.086-10.375 7.059-7.059 10.516-16.375 10.371-25.645 9.266.14 18.586-3.312 25.645-10.367 7.05-7.055 10.507-16.363 10.37-25.629 9.653.152 18.81-3.555 25.641-10.387 7.059-7.058 10.516-16.375 10.371-25.644 9.274.14 18.586-3.313 25.645-10.371 12.047-12.047 13.598-30.668 4.664-44.414l32.543-68.157 48.926-42.101c4.043-3.48 4.66-9.512 1.406-13.735zM107 122.95l40.563 25.792-88.239 107.5-35.36-30.433zm5.723 227.921 12.242-12.242a15.368 15.368 0 0 1 9.523-4.445c.086-.008.176-.008.262-.012.438-.035.875-.059 1.316-.055 4.196.059 8.094 1.774 10.985 4.824 5.672 5.996 5.367 15.793-.68 21.84L134.5 372.652c-6.004 6.004-15.773 6.004-21.777 0-6.004-6.007-6.004-15.777 0-21.78zm31.496 62.484c-2.91-2.906-4.512-6.773-4.512-10.886s1.602-7.98 4.512-10.89l23.738-23.74c4.547-4.546 11.695-5.792 17.508-3.023 5.992 2.856 9.363 9.36 8.484 15.903a16.252 16.252 0 0 1-4.586 9.277L166 413.356c-2.91 2.91-6.777 4.511-10.89 4.511s-7.981-1.601-10.891-4.512zm35.844 36.192a15.284 15.284 0 0 1-4.512-10.887 15.3 15.3 0 0 1 4.512-10.89l23.734-23.739c4.863-4.86 12.664-5.906 18.617-2.441 5.438 3.164 8.285 9.375 7.352 15.562a16.27 16.27 0 0 1-4.563 9.036l-23.36 23.359c-2.91 2.91-6.777 4.512-10.89 4.512s-7.98-1.602-10.89-4.512zm40.828 31.562c-6.004-6.004-6.004-15.773 0-21.777l12.242-12.242a16.162 16.162 0 0 1 1.183-1.07 15.347 15.347 0 0 1 6.829-3.172l.175-.024c.43-.078.868-.14 1.305-.18.176-.015.352-.015.531-.027.36-.02.715-.043 1.078-.039a15.301 15.301 0 0 1 11.977 5.992c4.617 6.035 3.996 15-1.734 20.735l-11.809 11.808c-6.004 6.004-15.773 6-21.777-.004zm187.285-112.043c-6.004 6.008-15.774 6.004-21.778 0a9.137 9.137 0 0 0-.683-.613L321.16 303.22c-3.902-3.942-10.258-3.973-14.2-.07-3.94 3.898-3.972 10.253-.073 14.195l65.254 65.933.023.024c6.004 6.004 6.004 15.777 0 21.781a15.3 15.3 0 0 1-10.89 4.512 15.286 15.286 0 0 1-10.891-4.512l-43.653-44.105c-3.898-3.942-10.253-3.973-14.195-.075-3.941 3.903-3.973 10.258-.074 14.2l42.984 43.43c.22.273.453.534.703.784 6.004 6.004 6.004 15.778 0 21.782-6.007 6.004-15.78 6-21.785-.004L290.54 417.02c-3.902-3.942-10.258-3.977-14.2-.075-3.94 3.899-3.972 10.254-.073 14.196l23.16 23.398c.219.274.453.54.707.79 6.004 6.003 6.004 15.776 0 21.78-6.004 6.008-15.774 6.004-21.778 0-.69-.691-1.503-1.222-2.277-1.816-.656-.5-.828-.848-.5-1.645.332-.808.828-1.539 1.16-2.351.367-.906.664-1.84.953-2.777a36.198 36.198 0 0 0 1.301-15.446c-1.328-9.879-6.762-18.793-14.996-24.433a35.242 35.242 0 0 0-14.934-5.79c2.586-11.406-.519-23.773-8.597-32.308-6.649-7.023-15.63-10.965-25.29-11.098a47.817 47.817 0 0 0-1.058 0c.215-9.218-3.137-18.379-9.492-25.093-6.652-7.024-15.633-10.965-25.29-11.098-2.87-.04-5.769.266-8.565.91-1.196-8.316-5.387-16.012-11.735-21.516-6.308-5.46-14.242-8.492-22.691-8.609-8.895-.129-17.633 3.152-24.239 9.117l-38.808-52.293 92.844-113.11 29.59 8.095-38.645 68.191c-4.672 8.246-5.852 17.816-3.324 26.95 2.527 9.136 8.457 16.738 16.703 21.41.515.292 1.035.57 1.562.835.04.02.078.04.121.059a35.71 35.71 0 0 0 4.258 1.785c6.73 2.332 14 2.586 21.012.649 9.133-2.528 16.734-8.461 21.406-16.704l25.113-44.316 44.84 3.18L408.18 347.285c6 6.008 6 15.777-.004 21.781zm4.16-46.02L300.324 211.04a10.046 10.046 0 0 0-6.387-2.914l-54.902-3.895c-3.797-.261-7.57 1.758-9.445 5.067l-28.235 49.828a15.303 15.303 0 0 1-9.292 7.25 15.305 15.305 0 0 1-11.7-1.445 15.303 15.303 0 0 1-7.25-9.293 15.283 15.283 0 0 1 1.446-11.7l37.691-66.519 15.273-4.395c.102-.03.2-.07.301-.101l57.004-16.461h68.875l85.985 109.305zm40.504-73.038L373.324 148.87l40.582-25.809 74.301 96.512zm0 0" fill="#fa9600" data-original="#000000" opacity="1"></path><path d="M310.184 117.531c2.57 0 5.14-.98 7.101-2.941l68.578-68.578c3.922-3.922 3.922-10.278 0-14.2s-10.277-3.921-14.199 0l-68.578 68.579a10.039 10.039 0 0 0 0 14.199 10.01 10.01 0 0 0 7.098 2.941zM194.715 114.59a10.012 10.012 0 0 0 7.101 2.941c2.567 0 5.137-.98 7.098-2.941a10.039 10.039 0 0 0 0-14.2l-68.578-68.578c-3.922-3.921-10.277-3.921-14.2 0s-3.921 10.278 0 14.2zM256 117.531c5.543 0 10.04-4.496 10.04-10.039V50.738c0-5.543-4.497-10.039-10.04-10.039s-10.04 4.496-10.04 10.04v56.753c0 5.543 4.497 10.04 10.04 10.04zM246.734 14.352c1.594 3.863 5.567 6.398 9.758 6.18 4.14-.216 7.778-3.012 9.059-6.954 1.285-3.973-.114-8.5-3.442-11.031-3.394-2.586-8.129-2.73-11.68-.383-3.96 2.617-5.495 7.828-3.695 12.188zm0 0" fill="#fa9600" data-original="#000000" opacity="1"></path></g></svg>