<svg xmlns="http://www.w3.org/2000/svg" version="1.1" xmlns:xlink="http://www.w3.org/1999/xlink" xmlns:svgjs="http://svgjs.com/svgjs" width="512" height="512" x="0" y="0" viewBox="0 0 682.667 682.667" style="enable-background:new 0 0 512 512" xml:space="preserve"><g><defs><clipPath id="b" clipPathUnits="userSpaceOnUse"><path d="M0 512h512V0H0Z" fill="#fa9600" data-original="#000000" opacity="1"></path></clipPath></defs><mask id="a"><rect width="100%" height="100%" fill="#ffffff" data-original="#ffffff"></rect><path d="M0 0c5.52 0 10-4.48 10-10S5.52-20 0-20s-10 4.48-10 10S-5.52 0 0 0" style="fill-opacity:1;fill-rule:nonzero;stroke:none" transform="matrix(1.33333 0 0 -1.33333 341.333 528)" fill="#ffffff" data-original="#ffffff"></path></mask><g mask="url(#a)"><g clip-path="url(#b)" transform="matrix(1.33333 0 0 -1.33333 0 682.667)"><path d="M0 0c5.52 0 10-4.48 10-10S5.52-20 0-20s-10 4.48-10 10S-5.52 0 0 0" style="fill-opacity:1;fill-rule:nonzero;stroke:none" transform="translate(256 116)" fill="#fa9600" data-original="#000000" opacity="1"></path><path d="M0 0c0-27.61-22.39-50-50-50s-50 22.39-50 50 22.39 50 50 50S0 27.61 0 0Z" style="stroke-width:20;stroke-linecap:round;stroke-linejoin:round;stroke-miterlimit:10;stroke-dasharray:none;stroke-opacity:1" transform="translate(469 196)" fill="none" stroke="#fa9600" stroke-width="20" stroke-linecap="round" stroke-linejoin="round" stroke-miterlimit="10" stroke-dasharray="none" stroke-opacity="" data-original="#000000" opacity="1"></path><path d="M0 0h-136v20c0 44.18 38.82 80 83 80 27.01 0 53.89-13.38 68.37-33.88" style="stroke-width:20;stroke-linecap:round;stroke-linejoin:round;stroke-miterlimit:10;stroke-dasharray:none;stroke-opacity:1" transform="translate(146 26)" fill="none" stroke="#fa9600" stroke-width="20" stroke-linecap="round" stroke-linejoin="round" stroke-miterlimit="10" stroke-dasharray="none" stroke-opacity="" data-original="#000000" opacity="1"></path><path d="M0 0c14.48 20.5 41.36 33.88 68.37 33.88 44.18 0 83-35.82 83-80v-20h-136" style="stroke-width:20;stroke-linecap:round;stroke-linejoin:round;stroke-miterlimit:10;stroke-dasharray:none;stroke-opacity:1" transform="translate(350.63 92.12)" fill="none" stroke="#fa9600" stroke-width="20" stroke-linecap="round" stroke-linejoin="round" stroke-miterlimit="10" stroke-dasharray="none" stroke-opacity="" data-original="#000000" opacity="1"></path><path d="M0 0c0-27.61-22.39-50-50-50s-50 22.39-50 50 22.39 50 50 50S0 27.61 0 0Z" style="stroke-width:20;stroke-linecap:round;stroke-linejoin:round;stroke-miterlimit:10;stroke-dasharray:none;stroke-opacity:1" transform="translate(143 196)" fill="none" stroke="#fa9600" stroke-width="20" stroke-linecap="round" stroke-linejoin="round" stroke-miterlimit="10" stroke-dasharray="none" stroke-opacity="" data-original="#000000" opacity="1"></path><path d="M0 0c0-38.66-31.34-70-70-70s-70 31.34-70 70 31.34 70 70 70S0 38.66 0 0Z" style="stroke-width:20;stroke-linecap:round;stroke-linejoin:round;stroke-miterlimit:10;stroke-dasharray:none;stroke-opacity:1" transform="translate(326 236)" fill="none" stroke="#fa9600" stroke-width="20" stroke-linecap="round" stroke-linejoin="round" stroke-miterlimit="10" stroke-dasharray="none" stroke-opacity="" data-original="#000000" opacity="1"></path><path d="m0 0-21.63-44.23-48.36-7.02 35-34.11-8.26-48.17L0-110.79c16.25-8.54 27.471-14.44 43.261-22.74L34.99-85.36l35 34.11-48.36 7.02z" style="stroke-width:20;stroke-linecap:round;stroke-linejoin:round;stroke-miterlimit:10;stroke-dasharray:none;stroke-opacity:1" transform="translate(255.64 486)" fill="none" stroke="#fa9600" stroke-width="20" stroke-linecap="round" stroke-linejoin="round" stroke-miterlimit="10" stroke-dasharray="none" stroke-opacity="" data-original="#000000" opacity="1"></path><path d="m0 0 30.79-16.18-5.88 34.28 24.909 24.29-34.429 5L0 78.59l-15.4-31.2-34.43-5 24.91-24.29-5.88-34.28z" style="stroke-width:20;stroke-linecap:round;stroke-linejoin:round;stroke-miterlimit:10;stroke-dasharray:none;stroke-opacity:1" transform="translate(425.28 317.41)" fill="none" stroke="#fa9600" stroke-width="20" stroke-linecap="round" stroke-linejoin="round" stroke-miterlimit="10" stroke-dasharray="none" stroke-opacity="" data-original="#000000" opacity="1"></path><path d="m0 0 30.79-16.18-5.88 34.28 24.91 24.29-34.43 5L0 78.59l-15.4-31.2-34.43-5 24.91-24.29-5.88-34.28Z" style="stroke-width:20;stroke-linecap:round;stroke-linejoin:round;stroke-miterlimit:10;stroke-dasharray:none;stroke-opacity:1" transform="translate(85.28 317.41)" fill="none" stroke="#fa9600" stroke-width="20" stroke-linecap="round" stroke-linejoin="round" stroke-miterlimit="10" stroke-dasharray="none" stroke-opacity="" data-original="#000000" opacity="1"></path><path d="M0 0h-220v10c0 20.5 5.61 39.69 15.37 56.12C-185.45 98.38-150.25 120-110 120c30.38 0 57.88-12.31 77.78-32.22 6.47-6.47 12.14-13.74 16.85-21.66C-5.61 49.69 0 30.5 0 10Z" style="stroke-width:20;stroke-linecap:round;stroke-linejoin:round;stroke-miterlimit:10;stroke-dasharray:none;stroke-opacity:1" transform="translate(366 26)" fill="none" stroke="#fa9600" stroke-width="20" stroke-linecap="round" stroke-linejoin="round" stroke-miterlimit="10" stroke-dasharray="none" stroke-opacity="" data-original="#000000" opacity="1"></path><path d="M0 0c10.7-7.03 19.37-16.91 24.91-28.55" style="stroke-width:20;stroke-linecap:round;stroke-linejoin:round;stroke-miterlimit:10;stroke-dasharray:none;stroke-opacity:1" transform="translate(294.33 94.55)" fill="none" stroke="#fa9600" stroke-width="20" stroke-linecap="round" stroke-linejoin="round" stroke-miterlimit="10" stroke-dasharray="none" stroke-opacity="" data-original="#000000" opacity="1"></path></g></g></g></svg>