<svg width="52" height="52" viewBox="0 0 52 52" fill="none" xmlns="http://www.w3.org/2000/svg">
<path d="M48.3681 2.52271H3.63187C2.46898 2.52271 1.52344 3.46825 1.52344 4.63114V38.7805C1.52344 39.9434 2.46898 40.889 3.63187 40.889H20.4527V44.2029L18.0832 45.4339C18.0131 45.4704 17.943 45.506 17.874 45.5405C17.2138 45.8747 16.3089 46.3317 16.3089 47.4204C16.3089 48.5539 17.2311 49.4761 18.3645 49.4761H33.6365C34.7699 49.4761 35.6921 48.5539 35.6921 47.4204C35.6921 46.3307 34.7872 45.8736 34.127 45.5405C34.0569 45.505 33.9879 45.4704 33.9178 45.4339L31.5484 44.2029V40.889H48.3691C49.532 40.889 50.4776 39.9434 50.4776 38.7805V4.63114C50.4766 3.46825 49.531 2.52271 48.3681 2.52271ZM3.63187 3.74146H48.3681C48.8587 3.74146 49.2578 4.1406 49.2578 4.63114V9.6727H2.74219V4.63114C2.74219 4.1406 3.14133 3.74146 3.63187 3.74146ZM2.74219 24.2215V10.8915H11.0642V24.2205H2.74219V24.2215ZM11.0642 25.4403V33.4647H2.74219V25.4403H11.0642ZM12.283 24.8309V10.8915H39.718V17.556V24.8299C39.718 25.1661 39.9912 25.4393 40.3274 25.4393H49.2578V33.4637H12.283V24.8309ZM40.9358 24.2215V18.1664H49.2578V24.2215H40.9358ZM40.9358 16.9476V10.8925H49.2578V16.9476H40.9358ZM30.6566 45.114L33.3552 46.5155C33.4293 46.5541 33.5034 46.5917 33.5766 46.6283C34.2601 46.9736 34.4723 47.1279 34.4723 47.4204C34.4723 47.8815 34.0966 48.2573 33.6355 48.2573H18.3645C17.9034 48.2573 17.5277 47.8815 17.5277 47.4204C17.5277 47.1279 17.7399 46.9736 18.4234 46.6283C18.4976 46.5907 18.5717 46.5531 18.6448 46.5155L21.3434 45.114C21.5455 45.0093 21.6714 44.8011 21.6714 44.5736V40.889H30.3276V44.5736C30.3286 44.8011 30.4545 45.0093 30.6566 45.114ZM48.3681 39.6702H3.63187C3.14133 39.6702 2.74219 39.2711 2.74219 38.7805V34.6825H49.2578V38.7805C49.2578 39.2711 48.8587 39.6702 48.3681 39.6702ZM47.2885 13.919C47.2885 14.2552 47.0153 14.5284 46.6791 14.5284H43.5155C43.1793 14.5284 42.9061 14.2552 42.9061 13.919C42.9061 13.5829 43.1793 13.3097 43.5155 13.3097H46.6791C47.0153 13.3097 47.2885 13.5829 47.2885 13.919ZM47.2885 21.194C47.2885 21.5301 47.0153 21.8033 46.6791 21.8033H43.5155C43.1793 21.8033 42.9061 21.5301 42.9061 21.194C42.9061 20.8578 43.1793 20.5846 43.5155 20.5846H46.6791C47.0153 20.5846 47.2885 20.8568 47.2885 21.194ZM9.09391 14.6645C9.09391 15.0007 8.8207 15.2739 8.48453 15.2739H5.32086C4.98469 15.2739 4.71148 15.0007 4.71148 14.6645C4.71148 14.3283 4.98469 14.0551 5.32086 14.0551H8.48453C8.82172 14.0551 9.09391 14.3273 9.09391 14.6645ZM9.09391 20.4485C9.09391 20.7847 8.8207 21.0579 8.48453 21.0579H5.32086C4.98469 21.0579 4.71148 20.7847 4.71148 20.4485C4.71148 20.1123 4.98469 19.8391 5.32086 19.8391H8.48453C8.82172 19.8391 9.09391 20.1123 9.09391 20.4485ZM29.8807 17.9734C29.8492 17.9521 29.8157 17.9358 29.7812 17.9216V17.9206L23.0709 15.0799C22.9186 15.0159 22.748 15.0159 22.5956 15.0799L15.8854 17.9206V17.9216C15.8509 17.9358 15.8173 17.9531 15.7859 17.9734C15.6152 18.0861 15.5127 18.2771 15.5127 18.4812V25.874C15.5127 26.1187 15.6589 26.3401 15.8844 26.4356L22.5946 29.2763V29.2753C22.6698 29.3068 22.751 29.325 22.8312 29.325C22.9115 29.325 22.9927 29.3088 23.0689 29.2773L29.7791 26.4366C30.0046 26.3411 30.1509 26.1197 30.1509 25.875V18.4822C30.1539 18.2771 30.0513 18.0861 29.8807 17.9734ZM22.8333 16.3027L27.9805 18.4812L22.8333 20.6597L17.6861 18.4812L22.8333 16.3027ZM16.7324 19.4014L22.2239 21.7261V27.7955L16.7324 25.4708V19.4014ZM28.9352 25.4708L23.4437 27.7955V21.7261L28.9352 19.4014V25.4708ZM34.7252 17.9358V26.4193L35.4463 25.6983C35.684 25.4606 36.0699 25.4606 36.3086 25.6983C36.5462 25.9359 36.5462 26.3218 36.3086 26.5595L34.5475 28.3206C34.4327 28.4354 34.2784 28.4993 34.1169 28.4993C33.9554 28.4993 33.8 28.4354 33.6862 28.3206L31.9252 26.5595C31.6875 26.3218 31.6875 25.9359 31.9252 25.6983C32.1628 25.4606 32.5487 25.4606 32.7874 25.6983L33.5085 26.4193V17.9358L32.7874 18.6569C32.5498 18.8946 32.1638 18.8946 31.9252 18.6569C31.6875 18.4193 31.6875 18.0333 31.9252 17.7947L33.6862 16.0336C33.8 15.9198 33.9554 15.8548 34.1169 15.8548C34.2784 15.8548 34.4337 15.9188 34.5475 16.0336L36.3086 17.7947C36.5462 18.0323 36.5462 18.4183 36.3086 18.6569C36.1898 18.7758 36.0334 18.8357 35.878 18.8357C35.7226 18.8357 35.5662 18.7758 35.4473 18.6569L34.7252 17.9358Z" fill="#0119FF"/>
</svg>
