<svg width="52" height="52" viewBox="0 0 52 52" fill="none" xmlns="http://www.w3.org/2000/svg">
<path d="M48.5753 5.48535H3.42469C2.37656 5.48535 1.52344 6.33848 1.52344 7.3866V44.6154C1.52344 45.6635 2.37656 46.5166 3.42469 46.5166H48.5753C49.6234 46.5166 50.4766 45.6635 50.4766 44.6154V7.3866C50.4766 6.33848 49.6234 5.48535 48.5753 5.48535ZM3.42469 6.7041H48.5753C48.9511 6.7041 49.2578 7.0098 49.2578 7.3866V14.3558H2.74219V7.3866C2.74219 7.0098 3.04789 6.7041 3.42469 6.7041ZM48.5753 45.2979H3.42469C3.04891 45.2979 2.74219 44.9921 2.74219 44.6154V15.5746H49.2578V44.6154C49.2578 44.9921 48.9521 45.2979 48.5753 45.2979ZM4.1407 10.53C4.1407 10.1938 4.41391 9.92059 4.75008 9.92059H9.41484C9.75102 9.92059 10.0242 10.1938 10.0242 10.53C10.0242 10.8661 9.75102 11.1393 9.41484 11.1393H4.75008C4.41289 11.1393 4.1407 10.8661 4.1407 10.53ZM23.4589 32.4573L27.365 18.2101C27.4544 17.8851 27.7895 17.6952 28.1135 17.7836C28.4385 17.8729 28.6295 18.2081 28.5401 18.5321L24.634 32.7793C24.5598 33.0494 24.3141 33.2282 24.047 33.2282C23.9931 33.2282 23.9393 33.2211 23.8855 33.2058C23.5615 33.1175 23.3705 32.7823 23.4589 32.4573ZM30.875 28.6182L33.998 25.4952L30.875 22.3721C30.6373 22.1345 30.6373 21.7486 30.875 21.5109C31.1127 21.2732 31.4986 21.2732 31.7373 21.5109L35.2909 25.0646C35.4057 25.1783 35.4697 25.3337 35.4697 25.4952C35.4697 25.6567 35.4057 25.8121 35.2909 25.9258L31.7373 29.4795C31.6184 29.5983 31.462 29.6582 31.3066 29.6582C31.1502 29.6582 30.9948 29.5983 30.876 29.4795C30.6363 29.2418 30.6363 28.8559 30.875 28.6182ZM16.7101 25.9258C16.4724 25.6882 16.4724 25.3022 16.7101 25.0646L20.2638 21.5109C20.5014 21.2732 20.8873 21.2732 21.125 21.5109C21.3627 21.7486 21.3627 22.1345 21.125 22.3721L18.002 25.4952L21.125 28.6182C21.3627 28.8559 21.3627 29.2418 21.125 29.4795C21.0062 29.5983 20.8498 29.6582 20.6944 29.6582C20.539 29.6582 20.3826 29.5983 20.2638 29.4795L16.7101 25.9258ZM43.3113 36.077C43.3113 36.4132 43.0381 36.6864 42.702 36.6864H9.29805C8.96188 36.6864 8.68867 36.4132 8.68867 36.077C8.68867 35.7408 8.96188 35.4676 9.29805 35.4676H42.7009C43.0381 35.4676 43.3113 35.7398 43.3113 36.077ZM8.68867 39.2884C8.68867 38.9522 8.96188 38.679 9.29805 38.679H17.5378C17.874 38.679 18.1472 38.9522 18.1472 39.2884C18.1472 39.6246 17.874 39.8978 17.5378 39.8978H9.29805C8.96188 39.8978 8.68867 39.6256 8.68867 39.2884ZM26.4205 39.8978C26.0843 39.8978 25.8111 39.6246 25.8111 39.2884C25.8111 38.9522 26.0843 38.679 26.4205 38.679H31.0781C31.4143 38.679 31.6875 38.9522 31.6875 39.2884C31.6875 39.6246 31.4143 39.8978 31.0781 39.8978H26.4205ZM43.3113 39.2884C43.3113 39.6246 43.0381 39.8978 42.702 39.8978H32.9073C32.5711 39.8978 32.2979 39.6246 32.2979 39.2884C32.2979 38.9522 32.5711 38.679 32.9073 38.679H42.702C43.0381 38.679 43.3113 38.9522 43.3113 39.2884ZM19.367 39.8978C19.0308 39.8978 18.7576 39.6246 18.7576 39.2884C18.7576 38.9522 19.0308 38.679 19.367 38.679H24.0246C24.3608 38.679 24.634 38.9522 24.634 39.2884C24.634 39.6246 24.3608 39.8978 24.0246 39.8978H19.367ZM43.3113 42.5008C43.3113 42.837 43.0381 43.1102 42.702 43.1102H9.29805C8.96188 43.1102 8.68867 42.837 8.68867 42.5008C8.68867 42.1646 8.96188 41.8914 9.29805 41.8914H42.7009C43.0381 41.8914 43.3113 42.1646 43.3113 42.5008ZM11.895 10.53C11.895 10.1938 12.1682 9.92059 12.5044 9.92059H17.1691C17.5053 9.92059 17.7785 10.1938 17.7785 10.53C17.7785 10.8661 17.5053 11.1393 17.1691 11.1393H12.5044C12.1682 11.1393 11.895 10.8661 11.895 10.53ZM19.6493 10.53C19.6493 10.1938 19.9225 9.92059 20.2587 9.92059H24.9234C25.2596 9.92059 25.5328 10.1938 25.5328 10.53C25.5328 10.8661 25.2596 11.1393 24.9234 11.1393H20.2587C19.9225 11.1393 19.6493 10.8661 19.6493 10.53Z" fill="#0119FF"/>
</svg>
