<svg width="52" height="52" viewBox="0 0 52 52" fill="none" xmlns="http://www.w3.org/2000/svg">
<path d="M44.2315 33.668L42.8157 33.6243C42.6532 33.082 42.4358 32.5579 42.1667 32.0582L43.1376 31.0253C43.423 30.7216 43.4149 30.2534 43.1214 29.9599L40.8637 27.7022C40.5691 27.4077 40.1009 27.4005 39.7983 27.6859L38.7654 28.6559C38.2667 28.3867 37.7426 28.1694 37.1993 28.0069L37.1556 26.5911C37.1424 26.1747 36.8062 25.8487 36.3898 25.8487H35.4026V5.04258C35.4026 3.10172 33.8233 1.52344 31.8835 1.52344H10.5462C8.60538 1.52344 7.0271 3.10172 7.0271 5.04258V46.9564C7.0271 48.8973 8.6064 50.4755 10.5462 50.4755H31.8835C33.8244 50.4755 35.4026 48.8963 35.4026 46.9564V46.2089H36.3898C36.8062 46.2089 37.1424 45.8829 37.1556 45.4665L37.1983 44.0517C37.7416 43.8892 38.2667 43.6719 38.7654 43.4017L39.7973 44.3716C40.1009 44.657 40.5691 44.6499 40.8637 44.3554L43.1214 42.0977C43.4159 41.8031 43.423 41.3359 43.1376 41.0313L42.1677 39.9984C42.4369 39.4997 42.6542 38.9746 42.8167 38.4323L44.2325 38.3886C44.6489 38.3764 44.9749 38.0402 44.9749 37.6228V34.4307C44.9729 34.0173 44.6469 33.6802 44.2315 33.668ZM26.3555 2.74219L25.1916 5.22438C25.0869 5.44781 24.8859 5.57477 24.6391 5.57477H17.7897C17.5439 5.57477 17.3418 5.4468 17.2382 5.22438L16.0743 2.74219H26.3555ZM10.5462 2.74219H14.7276L16.1342 5.74133C16.4389 6.39031 17.0726 6.79352 17.7897 6.79352H24.6391C25.3561 6.79352 25.9898 6.39031 26.2945 5.74133L27.7012 2.74219H31.8825C33.151 2.74219 34.1829 3.77406 34.1829 5.04258V25.8487H33.1957C32.7793 25.8487 32.4431 26.1747 32.4299 26.5911L32.3862 28.0069C31.8429 28.1694 31.3178 28.3867 30.8191 28.6569L29.7883 27.687C29.4846 27.4005 29.0164 27.4077 28.7219 27.7032L26.4651 29.9599C26.1706 30.2545 26.1635 30.7227 26.4489 31.0263L27.4198 32.0572C27.1497 32.5569 26.9323 33.082 26.7698 33.6263L25.3551 33.669C24.9387 33.6812 24.6126 34.0184 24.6126 34.4348V37.6269C24.6126 38.0433 24.9387 38.3795 25.3551 38.3927L26.7698 38.4353C26.9323 38.9787 27.1507 39.5038 27.4198 40.0045L26.4489 41.0353C26.1635 41.339 26.1706 41.8072 26.4651 42.1017L27.1182 42.7548H8.24585V5.04258C8.24585 3.77406 9.27772 2.74219 10.5462 2.74219ZM34.1839 46.9574C34.1839 48.2259 33.152 49.2578 31.8835 49.2578H10.5462C9.27772 49.2578 8.24585 48.2259 8.24585 46.9574V43.9715H28.338L28.7239 44.3574C29.0184 44.652 29.4866 44.6591 29.7903 44.3737L30.8212 43.4027C31.3209 43.6729 31.8469 43.8902 32.3903 44.0527L32.433 45.4675C32.4451 45.8839 32.7823 46.2099 33.1987 46.2099H34.1859V46.9574H34.1839ZM43.7541 37.1871L42.445 37.2277C42.1007 37.2379 41.8112 37.4695 41.7259 37.8036C41.5583 38.4617 41.2963 39.0924 40.949 39.6774C40.7733 39.974 40.8139 40.3416 41.0495 40.5925L41.9473 41.5482L40.3112 43.1844L39.3555 42.2866C39.1046 42.0499 38.7369 42.0103 38.4404 42.186C37.8544 42.5334 37.2237 42.7954 36.5645 42.963C36.2304 43.0483 35.9988 43.3367 35.9887 43.682L35.9491 44.9912H33.6365L33.5969 43.682C33.5867 43.3367 33.3551 43.0483 33.021 42.963C32.3619 42.7954 31.7301 42.5334 31.1441 42.185C30.8476 42.0083 30.4789 42.0489 30.228 42.2855L29.2744 43.1834L27.6392 41.5482L28.537 40.5945C28.7737 40.3427 28.8143 39.975 28.6376 39.6784C28.2892 39.0924 28.0272 38.4607 27.8596 37.8016C27.7743 37.4674 27.4848 37.2348 27.1405 37.2257L25.8314 37.1861V34.8725L27.1405 34.8329C27.4848 34.8227 27.7743 34.5912 27.8596 34.257C28.0282 33.5969 28.2892 32.9662 28.6376 32.3802C28.8133 32.0836 28.7726 31.7159 28.537 31.4641L27.6392 30.5104L29.2744 28.8752L30.228 29.773C30.4789 30.0097 30.8466 30.0503 31.1441 29.8746C31.7301 29.5263 32.3608 29.2652 33.019 29.0966C33.3531 29.0113 33.5847 28.7229 33.5958 28.3786L33.6365 27.0684H35.9511L35.9917 28.3786C36.0029 28.7229 36.2344 29.0113 36.5676 29.0966C37.2257 29.2652 37.8564 29.5263 38.4414 29.8736C38.738 30.0493 39.1056 30.0087 39.3565 29.773L40.3122 28.8752L41.9483 30.5114L41.0505 31.4671C40.8149 31.718 40.7743 32.0866 40.95 32.3822C41.2973 32.9672 41.5583 33.5979 41.7269 34.256C41.8123 34.5902 42.1007 34.8217 42.445 34.8319L43.7551 34.8725V37.1871H43.7541ZM36.0801 31.2264C33.4323 30.5175 30.7003 32.0938 29.9904 34.7425C29.2805 37.3913 30.8577 40.1223 33.5065 40.8322C33.9351 40.947 34.3698 41.0038 34.8014 41.0038C35.6626 41.0038 36.5137 40.7784 37.2795 40.3355C38.4292 39.6713 39.2529 38.5988 39.5962 37.3161C40.3051 34.6684 38.7278 31.9363 36.0801 31.2264ZM38.4191 37.0013C38.1591 37.9702 37.5385 38.7786 36.6701 39.2803C35.8018 39.782 34.7902 39.9151 33.8223 39.6551C31.8236 39.1198 30.6323 37.0571 31.1685 35.0584C31.6174 33.3836 33.1378 32.2756 34.7953 32.2756C35.1162 32.2756 35.4423 32.3172 35.7662 32.4035C37.764 32.9398 38.9543 35.0015 38.4191 37.0013ZM24.6797 46.8284C24.6797 47.1646 24.4065 47.4378 24.0703 47.4378H18.3594C18.0233 47.4378 17.7501 47.1646 17.7501 46.8284C17.7501 46.4923 18.0233 46.2191 18.3594 46.2191H24.0703C24.4065 46.2191 24.6797 46.4913 24.6797 46.8284ZM25.416 24.3913L28.7493 21.1372L25.416 17.8831C25.1753 17.6485 25.1702 17.2626 25.4058 17.0219C25.6405 16.7812 26.0264 16.7761 26.2671 17.0117L30.0473 20.7015C30.1651 20.8163 30.2311 20.9737 30.2311 21.1372C30.2311 21.3007 30.1651 21.4581 30.0473 21.5729L26.2671 25.2627C26.1483 25.3784 25.9949 25.4363 25.8416 25.4363C25.6831 25.4363 25.5247 25.3754 25.4058 25.2525C25.1702 25.0118 25.1753 24.6269 25.416 24.3913ZM12.3815 21.5729C12.2637 21.4581 12.1976 21.3007 12.1976 21.1372C12.1976 20.9737 12.2637 20.8163 12.3815 20.7015L16.1616 17.0117C16.4023 16.7761 16.7883 16.7812 17.0229 17.0219C17.2575 17.2626 17.2534 17.6485 17.0127 17.8831L13.6794 21.1372L17.0127 24.3913C17.2534 24.6259 17.2585 25.0118 17.0229 25.2525C16.903 25.3744 16.7456 25.4363 16.5872 25.4363C16.4338 25.4363 16.2805 25.3784 16.1616 25.2627L12.3815 21.5729ZM19.8544 27.6443L22.619 14.3823C22.688 14.0532 23.011 13.8409 23.3401 13.91C23.6691 13.9791 23.8814 14.301 23.8123 14.6311L21.0478 27.8931C20.9879 28.1805 20.734 28.3786 20.4516 28.3786C20.41 28.3786 20.3683 28.3745 20.3267 28.3654C19.9976 28.2963 19.7854 27.9734 19.8544 27.6443Z" fill="#0119FF"/>
</svg>
