<svg width="52" height="52" viewBox="0 0 52 52" fill="none" xmlns="http://www.w3.org/2000/svg">
<path d="M26.001 33.6375C28.5066 33.6375 30.5124 32.2786 31.5057 29.9091C32.6361 27.2127 32.2329 23.789 30.5876 22.1142C29.3841 20.8904 27.9277 20.3206 26.0041 20.3206C24.0744 20.3206 22.6149 20.8904 21.4114 22.1142C19.7661 23.788 19.3629 27.2116 20.4933 29.9081C21.4876 32.2776 23.4945 33.6375 26.001 33.6375ZM22.2818 22.9684C23.2537 21.9802 24.4014 21.5384 26.0051 21.5384C27.6016 21.5384 28.7473 21.9791 29.7192 22.9684C31.0243 24.2958 31.3219 27.1974 30.3824 29.4369C29.9152 30.55 28.7259 32.4177 26.001 32.4177C23.2751 32.4177 22.0848 30.55 21.6176 29.4369C20.6791 27.1974 20.9767 24.2958 22.2818 22.9684ZM48.6728 21.3007L45.2786 21.1433C44.981 21.1291 44.7454 20.9432 44.6631 20.6568C44.2589 19.2441 43.6912 17.874 42.9741 16.5841C42.8289 16.3231 42.8645 16.0245 43.0645 15.8041L45.3548 13.2905C46.0363 12.542 46.0098 11.3953 45.2938 10.6793L41.3207 6.70617C40.6047 5.99016 39.458 5.96375 38.7095 6.64523L36.1969 8.93445C35.9765 9.13555 35.6779 9.17008 35.4169 9.02484C34.128 8.30883 32.758 7.74008 31.3442 7.33586C31.0578 7.25359 30.8709 7.01797 30.8567 6.72039L30.6993 3.32617C30.6516 2.31563 29.8218 1.52344 28.8092 1.52344H23.1898C22.1772 1.52344 21.3474 2.31562 21.3007 3.32719L21.1433 6.72141C21.1291 7.01898 20.9432 7.25461 20.6558 7.33687C19.242 7.74109 17.8709 8.30984 16.5831 9.02586C16.3221 9.17109 16.0235 9.13656 15.8031 8.93547L13.2895 6.64523C12.5409 5.96375 11.3943 5.99016 10.6783 6.70617L6.70516 10.6793C5.98914 11.3953 5.96273 12.542 6.64422 13.2905L8.93445 15.8031C9.13555 16.0235 9.17008 16.3221 9.02484 16.5831C8.30883 17.8709 7.74008 19.242 7.33586 20.6558C7.25359 20.9422 7.01797 21.1291 6.72039 21.1423L3.32617 21.2997C2.31563 21.3484 1.52344 22.1782 1.52344 23.1908V28.8102C1.52344 29.8228 2.31562 30.6526 3.32719 30.6993L6.72141 30.8567C7.01898 30.8709 7.25461 31.0568 7.33687 31.3432C7.74109 32.758 8.30984 34.128 9.02586 35.4159C9.17109 35.6769 9.13555 35.9755 8.93547 36.1959L6.64523 38.7095C5.96273 39.458 5.99016 40.6047 6.70617 41.3207L10.6793 45.2938C10.7677 45.3822 10.8641 45.4584 10.9647 45.5264C10.9525 45.7407 10.9444 45.956 10.9444 46.1723V49.8672C10.9444 50.2034 11.2176 50.4766 11.5538 50.4766H40.4452C40.7814 50.4766 41.0546 50.2034 41.0546 49.8672V46.1723C41.0546 45.956 41.0465 45.7407 41.0343 45.5264C41.1359 45.4584 41.2323 45.3822 41.3207 45.2938L45.2938 41.3207C46.0098 40.6047 46.0363 39.458 45.3548 38.7095L43.0645 36.1969C42.8634 35.9765 42.8289 35.6779 42.9741 35.4169C43.6912 34.127 44.2589 32.757 44.6631 31.3442C44.7454 31.0578 44.981 30.8709 45.2786 30.8567L48.6728 30.6993C49.6844 30.6526 50.4766 29.8228 50.4766 28.8102V23.1908C50.4766 22.1782 49.6844 21.3484 48.6728 21.3007ZM39.8359 49.2578H35.1051V45.8402C35.1051 45.5041 34.8319 45.2309 34.4957 45.2309C34.1595 45.2309 33.8863 45.5041 33.8863 45.8402V49.2578H18.1137V45.8402C18.1137 45.5041 17.8405 45.2309 17.5043 45.2309C17.1681 45.2309 16.8949 45.5041 16.8949 45.8402V49.2578H12.1641V46.1723C12.1641 41.8438 14.8434 38.0372 18.8795 36.5544L25.479 47.4652C25.5897 47.648 25.7867 47.7598 26 47.7598C26.2133 47.7598 26.4113 47.648 26.521 47.4652L33.1195 36.5544C37.1556 38.0372 39.8348 41.8438 39.8348 46.1723V49.2578H39.8359ZM13.5535 26C13.5535 19.1374 19.1374 13.5535 26 13.5535C32.8626 13.5535 38.4465 19.1374 38.4465 26C38.4465 29.7294 36.8134 33.1987 33.9523 35.5753C33.6517 35.4504 33.346 35.3377 33.0362 35.2391C32.7681 35.1538 32.4766 35.2635 32.3304 35.5042L28.5472 41.7595L28.0069 38.2941L29.8807 35.6718C30.0138 35.4859 30.031 35.2422 29.9264 35.0391C29.8218 34.8359 29.6126 34.709 29.3841 34.709H22.6098C22.3813 34.709 22.1721 34.837 22.0675 35.0391C21.9629 35.2422 21.9812 35.487 22.1132 35.6718L23.9911 38.2992L23.4487 41.7625L19.6645 35.5052C19.5193 35.2645 19.2278 35.1548 18.9597 35.2402C18.6499 35.3387 18.3442 35.4514 18.0436 35.5763C15.1866 33.1988 13.5535 29.7294 13.5535 26ZM25.1306 37.7924L23.7971 35.9257H28.2019L26.8724 37.7863C26.78 37.9163 26.7414 38.0768 26.7658 38.2342L27.5671 43.3804L26 45.9733L24.4329 43.3814L25.2373 38.2403C25.2616 38.0829 25.2241 37.9224 25.1306 37.7924ZM49.2578 28.8092C49.2578 29.1698 48.9765 29.4643 48.6159 29.4816L45.2217 29.639C44.397 29.6776 43.7176 30.2148 43.4911 31.008C43.1123 32.3314 42.5801 33.6152 41.9088 34.8237C41.5076 35.5459 41.6071 36.4061 42.1637 37.0165L44.4539 39.5302C44.6966 39.7962 44.6865 40.2045 44.4326 40.4595L40.8545 44.0375C40.5356 42.3445 39.8369 40.7479 38.7857 39.3382C37.8127 38.0331 36.5595 36.9444 35.1457 36.1542C38.0291 33.5623 39.6662 29.9122 39.6662 26.001C39.6662 18.4661 33.5359 12.3358 26.001 12.3358C18.4661 12.3358 12.3348 18.4651 12.3348 26C12.3348 29.9112 13.972 33.5613 16.8553 36.1532C15.4416 36.9434 14.1883 38.0321 13.2153 39.3372C12.1641 40.7469 11.4654 42.3445 11.1465 44.0365L7.56844 40.4584C7.31352 40.2035 7.30437 39.7962 7.54711 39.5291L9.83734 37.0155C10.3939 36.4051 10.4934 35.5438 10.0923 34.8227C9.42094 33.6162 8.88875 32.3324 8.50992 31.007C8.28344 30.2138 7.60398 29.6766 6.7793 29.638L3.38508 29.4805C3.02555 29.4633 2.7432 29.1687 2.7432 28.8082V23.1888C2.7432 22.8282 3.02453 22.5337 3.38508 22.5164L6.7793 22.359C7.60398 22.3204 8.28344 21.7831 8.50992 20.9899C8.88875 19.6645 9.42094 18.3808 10.0923 17.1742C10.4934 16.4521 10.3939 15.5919 9.83734 14.9815L7.54609 12.4698C7.30336 12.2037 7.31352 11.7955 7.56742 11.5416L11.5405 7.56844C11.7955 7.31352 12.2027 7.30437 12.4688 7.54711L14.9825 9.83734C15.5929 10.3939 16.4541 10.4934 17.1752 10.0923C18.3818 9.42094 19.6655 8.88875 20.9909 8.50992C21.7841 8.28344 22.3214 7.60398 22.36 6.7793L22.5174 3.38508C22.5337 3.02555 22.8292 2.7432 23.1898 2.7432H28.8092C29.1688 2.7432 29.4643 3.02453 29.4816 3.38508L29.639 6.7793C29.6776 7.60398 30.2148 8.28344 31.0091 8.50992C32.3334 8.88875 33.6172 9.42094 34.8248 10.0923C35.5469 10.4934 36.4071 10.3929 37.0175 9.83734L39.5302 7.54812C39.7962 7.30539 40.2045 7.31453 40.4595 7.56945L44.4326 11.5426C44.6875 11.7975 44.6966 12.2048 44.4539 12.4709L42.1637 14.9845C41.6071 15.5949 41.5076 16.4562 41.9088 17.1773C42.5801 18.3859 43.1133 19.6696 43.4911 20.993C43.7176 21.7862 44.397 22.3245 45.2217 22.362L48.6159 22.5195C48.9755 22.5357 49.2578 22.8313 49.2578 23.1918V28.8092Z" fill="#0119FF"/>
</svg>
