<svg width="52" height="52" viewBox="0 0 52 52" fill="none" xmlns="http://www.w3.org/2000/svg">
<path d="M46.0859 8.8126C46.0605 8.50385 45.8076 8.26314 45.4979 8.254C38.1011 8.0133 31.6671 5.79314 26.3757 1.65244C26.1553 1.47979 25.8455 1.47979 25.6251 1.65244C20.3327 5.79314 13.8987 8.0133 6.50191 8.254C6.19215 8.26416 5.93926 8.50486 5.91387 8.8126C4.95004 20.5177 6.4298 29.6502 10.4385 36.7342C13.6986 42.4958 18.5574 46.8427 25.7287 50.4126C25.814 50.4553 25.9075 50.4766 25.9999 50.4766C26.0923 50.4766 26.1857 50.4553 26.2711 50.4126C33.4424 46.8427 38.3001 42.4968 41.5613 36.7342C45.5689 29.6502 47.0497 20.5167 46.0859 8.8126ZM25.9999 49.1857C16.0884 44.1878 5.1359 35.096 7.0859 9.45041C14.3466 9.12033 20.7054 6.91846 25.9999 2.90166C31.2954 6.91846 37.6532 9.11932 44.9139 9.45041C46.8639 35.096 35.9114 44.1878 25.9999 49.1857ZM41.5339 12.2119C35.9175 11.5304 30.8018 9.72158 26.331 6.83416C26.1299 6.70416 25.8709 6.70416 25.6698 6.83416C21.199 9.72158 16.0833 11.5304 10.4669 12.2119C10.1693 12.2485 9.94285 12.4953 9.93168 12.7938C9.59043 21.8888 10.9676 29.0347 14.1394 34.641C16.6907 39.1503 20.3662 42.6319 25.7054 45.5985C25.7978 45.6493 25.8993 45.6757 26.0009 45.6757C26.1025 45.6757 26.205 45.6503 26.2964 45.5985C31.6356 42.6319 35.3111 39.1503 37.8624 34.641C41.0342 29.0347 42.4104 21.8888 42.0701 12.7938C42.0579 12.4942 41.8304 12.2474 41.5339 12.2119ZM36.8011 34.0407C34.4123 38.2627 30.9744 41.5513 25.9999 44.3676C21.0254 41.5513 17.5875 38.2627 15.1987 34.0407C12.2006 28.7422 10.8691 21.972 11.1311 13.3555C16.5932 12.6232 21.5911 10.8469 25.9999 8.06916C30.4087 10.8469 35.4066 12.6232 40.8686 13.3555C41.1307 21.972 39.7992 28.7422 36.8011 34.0407ZM32.25 21.0174H31.7656V20.214C31.7656 17.0727 29.2103 14.5174 26.0689 14.5174C22.9276 14.5174 20.3723 17.0727 20.3723 20.214V21.0174H19.8879C18.9504 21.0174 18.1877 21.7801 18.1877 22.7175V33.1896C18.1877 34.1271 18.9504 34.8898 19.8879 34.8898H32.2511C33.1885 34.8898 33.9512 34.1271 33.9512 33.1896V22.7175C33.9502 21.7801 33.1875 21.0174 32.25 21.0174ZM21.59 20.214C21.59 17.745 23.5989 15.7361 26.0679 15.7361C28.5369 15.7361 30.5458 17.745 30.5458 20.214V21.0174H29.3271V20.214C29.3271 18.4163 27.8646 16.9549 26.0679 16.9549C24.2703 16.9549 22.8088 18.4174 22.8088 20.214V21.0174H21.59V20.214ZM28.1093 21.0174H24.0286V20.214C24.0286 19.0887 24.9436 18.1736 26.0689 18.1736C27.1943 18.1736 28.1093 19.0887 28.1093 20.214V21.0174ZM32.7314 33.1896C32.7314 33.4547 32.5151 33.671 32.25 33.671H19.8868C19.6218 33.671 19.4054 33.4547 19.4054 33.1896V22.7175C19.4054 22.4524 19.6218 22.2361 19.8868 22.2361H32.25C32.5151 22.2361 32.7314 22.4524 32.7314 22.7175V33.1896ZM25.9999 24.0419C24.7182 24.0419 23.6741 25.0849 23.6741 26.3677C23.6741 27.4392 24.4023 28.3431 25.3895 28.6112V30.7928C25.3895 31.1289 25.6627 31.4021 25.9989 31.4021C26.335 31.4021 26.6082 31.1289 26.6082 30.7928V28.6112C27.5954 28.3431 28.3246 27.4392 28.3246 26.3677C28.3257 25.0849 27.2816 24.0419 25.9999 24.0419ZM25.9999 27.4737C25.3895 27.4737 24.8929 26.977 24.8929 26.3667C24.8929 25.7563 25.3895 25.2596 25.9999 25.2596C26.6103 25.2596 27.1069 25.7563 27.1069 26.3667C27.1069 26.977 26.6103 27.4737 25.9999 27.4737Z" fill="#0119FF"/>
</svg>
