<svg width="52" height="52" viewBox="0 0 52 52" fill="none" xmlns="http://www.w3.org/2000/svg">
<path d="M44.4062 38.1733C44.4062 38.5094 44.133 38.7827 43.7968 38.7827H37.4755C37.1394 38.7827 36.8662 38.5094 36.8662 38.1733C36.8662 37.8371 37.1394 37.5639 37.4755 37.5639H43.7968C44.134 37.5639 44.4062 37.8371 44.4062 38.1733ZM40.8637 45.7082L36.3228 43.0869C36.0313 42.9183 35.6586 43.0188 35.49 43.3103C35.3214 43.6018 35.422 43.9745 35.7134 44.1431L40.2543 46.7645C40.3508 46.8203 40.4554 46.8457 40.558 46.8457C40.7682 46.8457 40.9734 46.736 41.0861 46.541C41.2547 46.2485 41.1552 45.8758 40.8637 45.7082ZM36.0191 33.343C36.1227 33.343 36.2273 33.3166 36.3228 33.2617L40.8637 30.6404C41.1552 30.4718 41.2547 30.0991 41.0871 29.8076C40.9185 29.5161 40.5468 29.4166 40.2543 29.5841L35.7134 32.2055C35.422 32.3741 35.3224 32.7468 35.49 33.0383C35.6038 33.2333 35.8079 33.343 36.0191 33.343ZM50.9844 4.48703V15.7544C50.9844 17.6688 49.4274 19.2258 47.513 19.2258H34.1849V20.1348C34.1849 22.4829 32.2745 24.3923 29.9274 24.3923H19.759L12.1601 29.3739C11.8239 29.5943 11.4471 29.705 11.0683 29.705C10.7443 29.705 10.4193 29.6237 10.1166 29.4602C9.46055 29.1058 9.06953 28.4497 9.06953 27.7042V24.3923C6.74883 24.3608 4.87094 22.4626 4.87094 20.1348V10.5239C4.87094 8.17578 6.78133 6.26641 9.12844 6.26641H25.8446V4.48703C25.8446 2.57258 27.4016 1.01562 29.316 1.01562H47.513C49.4274 1.01562 50.9844 2.57258 50.9844 4.48703ZM32.9662 19.2268H29.316C27.4016 19.2268 25.8446 17.6698 25.8446 15.7554V7.48516H9.12844C7.45266 7.48516 6.08969 8.84812 6.08969 10.5239V20.1348C6.08969 21.8105 7.45266 23.1735 9.12844 23.1735H9.67891C10.0151 23.1735 10.2883 23.4467 10.2883 23.7829V27.7042C10.2883 28.0028 10.4335 28.2466 10.6966 28.3887C10.9596 28.5309 11.242 28.5187 11.4928 28.3552L19.2441 23.2741C19.3436 23.2091 19.4594 23.1745 19.5782 23.1745H29.9284C31.6042 23.1745 32.9672 21.8116 32.9672 20.1358V19.2268H32.9662ZM49.7656 4.48703C49.7656 3.24492 48.7551 2.23437 47.513 2.23437H29.316C28.0739 2.23437 27.0634 3.24492 27.0634 4.48703V15.7544C27.0634 16.9965 28.0739 18.007 29.316 18.007H47.513C48.7551 18.007 49.7656 16.9965 49.7656 15.7544V4.48703ZM43.5805 10.1207C43.5805 10.5767 43.3448 10.986 42.9487 11.2145L35.6698 15.4172C35.4717 15.5309 35.2554 15.5888 35.038 15.5888C34.8207 15.5888 34.6044 15.532 34.4063 15.4172C34.0112 15.1887 33.7746 14.7804 33.7746 14.3234V5.91906C33.7746 5.46203 34.0112 5.05375 34.4063 4.82523C34.8014 4.59672 35.2737 4.59672 35.6688 4.82523L42.9477 9.02789C43.3448 9.25539 43.5805 9.66469 43.5805 10.1207ZM42.3617 10.1207C42.3617 10.0984 42.3587 10.0933 42.3394 10.0821L35.0614 5.88047C35.0523 5.87539 35.0452 5.87234 35.0391 5.87234C35.033 5.87234 35.0269 5.87539 35.0167 5.88047C34.9974 5.89164 34.9944 5.89672 34.9944 5.91906V14.3234C34.9944 14.3457 34.9974 14.3508 35.0167 14.362C35.036 14.3731 35.0411 14.3731 35.0604 14.362L42.3394 10.1593C42.3597 10.1481 42.3617 10.143 42.3617 10.1207ZM30.8862 43.6861V46.6802C30.8862 48.7774 29.1799 50.4847 27.0816 50.4847C25.1103 50.4847 23.4843 48.9775 23.2964 47.0549C19.9936 45.5102 16.2967 44.3869 12.0159 43.6292V48.8536C12.0159 50.0287 11.0591 50.9854 9.88406 50.9854C7.74312 50.9854 6.46648 50.3344 6.28977 49.1532L5.4468 43.5205C2.68531 43.0412 1.01562 40.5224 1.01562 38.1702C1.01562 35.5621 3.0743 32.7468 6.39945 32.7468H11.8686C16.2134 31.9881 19.956 30.8567 23.2974 29.2937C23.4863 27.3711 25.1113 25.8639 27.0827 25.8639C29.1799 25.8639 30.8872 27.5702 30.8872 29.6684V33.1632C33.5085 33.4801 35.552 35.7236 35.552 38.4252C35.5509 41.1257 33.5085 43.3692 30.8862 43.6861ZM12.1794 42.4186C16.3587 43.1559 20.0027 44.2335 23.2781 45.7041V30.6424C20.0017 32.113 16.3587 33.1906 12.1794 33.928V42.4186ZM6.39945 42.382H10.9606V33.9645H6.39945C3.55875 33.9645 2.23438 36.4741 2.23438 38.1692C2.23438 39.8684 3.55773 42.382 6.39945 42.382ZM10.7971 48.8526V43.6008H6.69094L7.49531 48.9714C7.57758 49.5198 8.75469 49.7656 9.88508 49.7656C10.3878 49.7656 10.7971 49.3563 10.7971 48.8526ZM29.6674 29.6674C29.6674 28.2415 28.5076 27.0816 27.0816 27.0816C25.6557 27.0816 24.4959 28.2415 24.4959 29.6674V46.6791C24.4959 48.1051 25.6557 49.2649 27.0816 49.2649C28.5076 49.2649 29.6674 48.1051 29.6674 46.6791V29.6674ZM34.3322 38.4241C34.3322 36.3939 32.8341 34.6988 30.8862 34.3911V42.4562C32.8352 42.1494 34.3322 40.4534 34.3322 38.4241ZM22.8902 10.6133H10.5595C10.2233 10.6133 9.95008 10.8865 9.95008 11.2227C9.95008 11.5588 10.2233 11.832 10.5595 11.832H22.8902C23.2263 11.832 23.4995 11.5588 23.4995 11.2227C23.4995 10.8865 23.2263 10.6133 22.8902 10.6133ZM22.8902 14.5823H10.5595C10.2233 14.5823 9.95008 14.8555 9.95008 15.1917C9.95008 15.5279 10.2233 15.8011 10.5595 15.8011H22.8902C23.2263 15.8011 23.4995 15.5279 23.4995 15.1917C23.4995 14.8555 23.2263 14.5823 22.8902 14.5823ZM22.8902 18.5514H10.5595C10.2233 18.5514 9.95008 18.8246 9.95008 19.1608C9.95008 19.497 10.2233 19.7702 10.5595 19.7702H22.8902C23.2263 19.7702 23.4995 19.497 23.4995 19.1608C23.4995 18.8246 23.2263 18.5514 22.8902 18.5514Z" fill="#0119FF"/>
</svg>
