<?xml version="1.0" encoding="utf-8"?>
<!-- Generator: Adobe Illustrator 16.0.0, SVG Export Plug-In . SVG Version: 6.00 Build 0)  -->
<!DOCTYPE svg PUBLIC "-//W3C//DTD SVG 1.1//EN" "http://www.w3.org/Graphics/SVG/1.1/DTD/svg11.dtd">
<svg version="1.1" id="Layer_1" xmlns="http://www.w3.org/2000/svg" xmlns:xlink="http://www.w3.org/1999/xlink" x="0px" y="0px"
	 width="40px" height="40px" viewBox="0 0 40 40" enable-background="new 0 0 40 40" xml:space="preserve">
<g>
	<path fill="#0077FF" d="M19.992,15.782h0.042c3.281-0.025,5.932-2.714,5.908-5.995c-0.026-3.295-2.701-5.876-6.142-5.876
		c-1.474,0.011-2.888,0.629-3.981,1.741c-1.124,1.143-1.76,2.691-1.747,4.249C14.101,13.144,16.756,15.782,19.992,15.782z
		 M19.986,5.755l0.052-0.245c0,0,0,0,0.001,0v0.244c2.18,0,4.034,1.865,4.048,4.071c0.007,1.091-0.407,2.115-1.166,2.882
		c-0.763,0.771-1.79,1.198-2.908,1.202c-2.267,0-4.063-1.775-4.089-4.041C15.899,7.632,17.722,5.787,19.986,5.755z"/>
	<path fill="#0077FF" d="M25.182,15.033c-0.313,0.225-0.61,0.472-0.872,0.689l-0.548,0.449l0.338,0.175
		c0.338,0.176,0.684,0.34,1.028,0.503c0.779,0.369,1.517,0.718,2.164,1.2c0.658,0.49,1.237,1.129,1.797,1.747
		c0.251,0.277,0.502,0.554,0.761,0.819l0.225,0.231l0.994-1.632l-0.087-0.132c-1.233-1.885-2.966-3.251-5.147-4.062
		C25.735,14.984,25.356,14.906,25.182,15.033z"/>
	<path fill="#0077FF" d="M10.324,20.578c1.197-2.126,3.063-3.482,5.707-4.144l0.485-0.122L15.768,15.7
		c-0.285-0.237-0.554-0.461-0.843-0.662c-0.189-0.127-0.525-0.167-0.751-0.087c-2.192,0.775-3.926,2.124-5.155,4.008L8.93,19.095
		l1.191,1.843L10.324,20.578z"/>
	<path fill="#0077FF" d="M24.478,31.246c0.17-0.172,0.339-0.344,0.504-0.52c0.354-0.375,0.73-0.895,0.487-1.586
		c-0.19-0.539-0.63-0.857-1.343-0.973l-0.262-0.041c-0.454-0.074-0.909-0.146-1.365-0.201c-0.235-0.029-0.338-0.104-0.42-0.307
		c-0.171-0.422-0.374-0.832-0.57-1.229l-0.202-0.412c-0.307-0.629-0.745-0.947-1.305-0.947s-1,0.318-1.306,0.947
		c-0.087,0.18-0.172,0.361-0.256,0.541c-0.172,0.369-0.35,0.75-0.549,1.107c-0.065,0.117-0.234,0.244-0.361,0.271
		c-0.296,0.066-0.599,0.109-0.9,0.15c-0.309,0.045-0.618,0.088-0.922,0.154c-0.603,0.135-1.036,0.477-1.188,0.934
		c-0.152,0.459-0.007,0.99,0.396,1.457c0.229,0.266,0.475,0.516,0.721,0.768c0.224,0.227,0.447,0.455,0.658,0.695
		c0.068,0.076,0.118,0.242,0.105,0.348c-0.064,0.525-0.153,1.049-0.235,1.531l-0.086,0.529c-0.023,0.502,0.119,0.939,0.4,1.234
		c0.376,0.393,0.981,0.482,1.563,0.221c0.307-0.139,0.603-0.301,0.898-0.463c0.276-0.152,0.551-0.305,0.838-0.436
		c0.113-0.053,0.337-0.055,0.452,0c0.349,0.16,0.696,0.352,1.031,0.537c0.196,0.107,0.394,0.217,0.593,0.32
		c0.267,0.139,0.525,0.209,0.771,0.209c0.286,0,0.553-0.094,0.792-0.281C23.833,35.48,24,35,23.908,34.383
		c-0.037-0.248-0.078-0.496-0.119-0.744c-0.069-0.41-0.138-0.818-0.186-1.232c-0.013-0.105,0.037-0.271,0.104-0.35
		C23.954,31.777,24.216,31.512,24.478,31.246z M23.425,30.037c-0.363,0.342-0.737,0.697-1.121,1.023
		c-0.413,0.35-0.547,0.752-0.434,1.301c0.102,0.488,0.177,0.99,0.257,1.521c0.014,0.09,0.027,0.182,0.042,0.275l-0.187-0.1
		c-0.518-0.277-0.999-0.535-1.47-0.811c-0.366-0.215-0.66-0.213-1.021,0c-0.454,0.266-0.917,0.516-1.419,0.785l-0.235,0.127
		c0.008-0.063,0.017-0.125,0.024-0.186c0.063-0.473,0.122-0.918,0.224-1.342c0.182-0.758,0.016-1.293-0.538-1.729
		c-0.35-0.277-0.681-0.602-1.001-0.914c-0.065-0.064-0.131-0.129-0.197-0.193l0.335-0.053c0.542-0.086,1.084-0.172,1.628-0.244
		c0.447-0.059,0.723-0.268,0.894-0.678c0.2-0.477,0.432-0.951,0.679-1.453c0.038-0.078,0.077-0.158,0.116-0.238
		c0.035,0.072,0.07,0.145,0.104,0.215c0.249,0.508,0.484,0.988,0.689,1.475c0.173,0.412,0.448,0.621,0.893,0.68
		c0.531,0.07,1.062,0.152,1.591,0.236l0.398,0.063C23.592,29.877,23.508,29.957,23.425,30.037z"/>
	<path fill="#0077FF" d="M10.981,29.332c0.19,0.115,0.404,0.176,0.617,0.176c0.353,0,0.691-0.166,0.905-0.441
		c0.208-0.27,0.275-0.604,0.188-0.941c-0.235-0.914-0.038-1.523,0.706-2.172c0.364-0.318,0.508-0.777,0.375-1.197
		c-0.135-0.424-0.521-0.719-1.007-0.77c-0.938-0.096-1.564-0.34-1.788-1.268l-0.062-0.113c-0.279-0.419-0.692-0.668-1.104-0.668
		c-0.438,0-0.813,0.278-1.002,0.746c-0.351,0.863-0.857,1.227-1.806,1.297c-0.482,0.035-0.873,0.324-1.02,0.756
		c-0.145,0.426-0.013,0.889,0.345,1.207c0.844,0.754,1.051,1.334,0.715,2.002l-0.026,0.105c-0.012,0.473,0.123,0.877,0.38,1.141
		c0.353,0.363,0.892,0.41,1.396,0.111C9.594,28.828,10.154,28.834,10.981,29.332z M9.868,24.416c0.318,0.631,0.82,0.994,1.516,1.096
		c-0.523,0.531-0.717,1.121-0.586,1.783c-0.362-0.172-0.689-0.254-1.004-0.254c-0.292,0-0.572,0.07-0.845,0.209
		c0.093-0.686-0.103-1.26-0.592-1.732C9.05,25.396,9.55,25.033,9.868,24.416z"/>
	<path fill="#0077FF" d="M33.027,23.988c-0.953-0.061-1.471-0.432-1.846-1.326c-0.191-0.46-0.595-0.746-1.054-0.746
		c-0.449,0-0.837,0.278-1.012,0.727c-0.348,0.889-0.876,1.256-1.949,1.357c-0.433,0.043-0.787,0.326-0.926,0.742
		s-0.024,0.855,0.297,1.15c0.807,0.738,1.19,1.314,0.765,2.08l-0.031,0.057v0.064c-0.002,0.455,0.139,0.85,0.395,1.105
		c0.341,0.344,0.849,0.396,1.313,0.129c0.88-0.506,1.479-0.5,2.293,0.008c0.183,0.113,0.39,0.174,0.599,0.174
		c0.346,0,0.678-0.162,0.891-0.43c0.2-0.254,0.27-0.566,0.194-0.879c-0.229-0.957-0.008-1.629,0.76-2.322
		c0.331-0.301,0.447-0.744,0.304-1.154C33.872,24.299,33.491,24.018,33.027,23.988z M31.144,27.373
		c-0.348-0.197-0.678-0.381-1.043-0.383c-0.328,0-0.636,0.172-0.957,0.363c0.181-0.785-0.011-1.408-0.57-1.859
		c0.753-0.113,1.272-0.469,1.567-1.078c0.337,0.629,0.823,0.998,1.47,1.115C31.13,26.01,30.976,26.619,31.144,27.373z"/>
	<path fill="#0077FF" d="M6.757,22.066c0.204-0.248,0.279-0.567,0.212-0.898C6.793,20.29,6.97,19.72,7.6,19.134
		c0.299-0.277,0.408-0.709,0.278-1.102c-0.122-0.37-0.429-0.625-0.8-0.667c-0.828-0.092-1.307-0.448-1.71-1.27
		c-0.199-0.404-0.554-0.645-0.95-0.645c-0.428,0-0.805,0.281-0.984,0.733c-0.295,0.746-0.708,1.054-1.522,1.134
		c-0.421,0.042-0.771,0.313-0.914,0.708c-0.138,0.382-0.046,0.799,0.239,1.087c0.7,0.708,0.997,1.248,0.562,2.074l-0.065,0.124
		l0.071,0.12c0.042,0.072,0.08,0.146,0.117,0.217c0.088,0.172,0.18,0.348,0.319,0.494c0.201,0.211,0.449,0.322,0.719,0.322
		c0.216,0,0.432-0.073,0.626-0.212c0.594-0.425,1.071-0.423,1.714,0.006C5.773,22.576,6.416,22.483,6.757,22.066z M5.079,20.188
		c-0.472-0.2-0.918-0.184-1.34,0.042c0.05-0.269,0.08-0.524,0.003-0.763c-0.082-0.257-0.274-0.456-0.487-0.657
		c0.533-0.089,0.925-0.338,1.182-0.755c0.28,0.471,0.718,0.67,1.193,0.75C5.28,19.139,5.008,19.585,5.079,20.188z"/>
	<path fill="#0077FF" d="M39.015,18.062c-0.134-0.414-0.501-0.701-0.96-0.75c-0.847-0.091-1.246-0.385-1.42-1.042l-0.058-0.119
		c-0.275-0.438-0.658-0.688-1.053-0.688c-0.398,0-0.743,0.256-0.945,0.703c-0.351,0.771-0.778,1.087-1.578,1.169
		c-0.4,0.04-0.732,0.301-0.866,0.681c-0.14,0.397-0.037,0.831,0.268,1.13c0.766,0.75,0.934,1.24,0.619,1.806l-0.031,0.116
		c-0.009,0.445,0.115,0.813,0.359,1.061c0.361,0.367,0.949,0.396,1.488,0.059c0.579-0.361,0.981-0.355,1.465,0.018
		c0.042,0.033,0.085,0.055,0.139,0.08c0.197,0.096,0.402,0.145,0.608,0.145c0.351,0,0.668-0.145,0.869-0.396
		c0.195-0.244,0.261-0.563,0.186-0.9c-0.189-0.835-0.026-1.374,0.578-1.919C39.02,18.911,39.146,18.469,39.015,18.062z
		 M36.226,20.198c-0.493-0.222-0.947-0.2-1.378,0.057c0.043-0.676-0.046-0.914-0.492-1.435c0.267-0.036,0.535-0.084,0.752-0.24
		c0.204-0.147,0.329-0.372,0.449-0.616c0.251,0.472,0.631,0.762,1.136,0.867C36.32,19.249,36.165,19.702,36.226,20.198z"/>
	<path fill="#0077FF" d="M30.93,30.219c-0.271,0.049-0.486,0.221-0.661,0.359c-0.065,0.053-0.131,0.104-0.197,0.146
		c-0.063,0.041-0.126,0.09-0.188,0.139c-0.101,0.08-0.165,0.125-0.178,0.131c-0.456,0.018-0.907,0.02-1.326,0.02l-0.841-0.002
		c-0.224,0-0.447,0-0.67,0.004c-0.209,0.002-0.503,0.039-0.716,0.209c-0.27,0.219-0.524,0.463-0.749,0.678l-0.499,0.473l0.385,0.568
		l2.834,0.008c0.601,0,1.202-0.004,1.804-0.016c1.073-0.023,1.839-0.762,1.906-1.842c0.02-0.326-0.104-0.535-0.214-0.652
		C31.451,30.266,31.178,30.172,30.93,30.219z"/>
	<path fill="#0077FF" d="M14.513,31.945c-0.13-0.1-0.253-0.193-0.336-0.295c-0.389-0.479-0.872-0.682-1.55-0.652
		c-0.273,0.014-0.564,0.021-0.941,0.021c-0.18,0-0.359-0.002-0.538-0.004h-0.126c-0.227-0.004-0.454-0.006-0.68-0.006h-0.073
		c-0.285,0-0.296,0-0.368-0.158c-0.174-0.385-0.753-0.59-1.109-0.59l-0.082,0.004c-0.236,0.023-0.417,0.117-0.536,0.281
		c-0.208,0.285-0.125,0.658-0.064,0.932c0.188,0.857,0.821,1.406,1.65,1.432c0.58,0.018,1.21,0.025,1.983,0.025
		c0.444,0,0.887-0.002,1.331-0.006l0.333-0.002c0.331,0,0.663-0.002,0.994-0.002h0.218l0.352-0.609l-0.243-0.205
		C14.66,32.057,14.59,32.004,14.513,31.945z"/>
</g>
</svg>
