<?xml version="1.0" encoding="utf-8"?>
<!-- Generator: Adobe Illustrator 16.0.3, SVG Export Plug-In . SVG Version: 6.00 Build 0)  -->
<!DOCTYPE svg PUBLIC "-//W3C//DTD SVG 1.1//EN" "http://www.w3.org/Graphics/SVG/1.1/DTD/svg11.dtd">
<svg version="1.1" id="Layer_1" xmlns="http://www.w3.org/2000/svg" xmlns:xlink="http://www.w3.org/1999/xlink" x="0px" y="0px"
	 width="40px" height="40px" viewBox="0 0 40 40" enable-background="new 0 0 40 40" xml:space="preserve">
<g transform="matrix(0.99832288,0,0,0.99982266,0.06594471,-0.01952052)">
	<path fill="#0077FF" d="M36.046,27.613c-1.399,0.006-2.636,0.901-3.078,2.228h-2.122v-5.818h0.273
		c3.946,0.02,7.241-3.003,7.561-6.936c0.321-3.933-2.443-7.449-6.339-8.068c-0.256-3.705-2.98-6.771-6.627-7.463
		c-3.649-0.692-7.305,1.165-8.899,4.518c-0.496-0.08-0.999-0.117-1.502-0.109c-3.396,0-6.34,2.011-7.244,4.817H7.886
		c-3.726-0.093-6.798,2.902-6.798,6.631s3.071,6.723,6.798,6.63h1.193v5.799H6.945c-1.158-3.521-6.35-2.682-6.35,1.019
		c0,3.697,5.192,4.538,6.35,1.017h3.151c0.562,0,1.018-0.455,1.018-1.017v-6.837h3.811v8.26c-3.52,1.159-2.681,6.351,1.018,6.351
		c3.7,0,4.539-5.191,1.018-6.351v-8.26h6.001v8.26c-3.521,1.159-2.68,6.351,1.018,6.351s4.538-5.191,1.017-6.351v-8.26h3.811v6.837
		c0,0.562,0.457,1.017,1.019,1.017h3.151c0.825,2.54,4.184,3.063,5.742,0.895C40.28,30.607,38.715,27.587,36.046,27.613z
		 M3.879,32.068c-1.088,0-1.633-1.316-0.864-2.084c0.77-0.771,2.085-0.225,2.085,0.862l0,0l0,0
		C5.1,31.521,4.554,32.068,3.879,32.068z M15.943,36.571c-1.088,0-1.633-1.315-0.864-2.084c0.77-0.771,2.086-0.225,2.086,0.864
		C17.165,36.025,16.618,36.571,15.943,36.571z M23.981,36.571c-1.089,0-1.634-1.315-0.864-2.084
		c0.769-0.771,2.086-0.225,2.086,0.864C25.203,36.025,24.655,36.571,23.981,36.571z M3.288,17.394
		c0.002-2.539,2.059-4.595,4.598-4.597c0.26,0,0.521,0.025,0.777,0.074c0.272,0.049,0.552-0.013,0.778-0.171
		c0.223-0.163,0.37-0.41,0.407-0.684c0.342-2.3,2.688-4.035,5.456-4.035c0.613,0,1.223,0.087,1.812,0.261
		c0.525,0.156,1.08-0.129,1.258-0.648c0.971-2.84,3.854-4.559,6.813-4.064c2.96,0.495,5.127,3.059,5.121,6.059
		c0,0.1,0,0.198,0,0.297c-0.034,0.573,0.412,1.062,0.985,1.079c2.994,0.112,5.35,2.593,5.307,5.589
		c-0.042,2.995-2.47,5.408-5.465,5.433H7.886C5.349,21.983,3.293,19.93,3.288,17.394z M36.046,32.068
		c-0.676,0-1.222-0.547-1.222-1.222l0,0l0,0c0-1.087,1.315-1.633,2.086-0.862C37.679,30.753,37.134,32.068,36.046,32.068z"/>
</g>
</svg>
