<?xml version="1.0" encoding="utf-8"?>
<!-- Generator: Adobe Illustrator 16.0.0, SVG Export Plug-In . SVG Version: 6.00 Build 0)  -->
<!DOCTYPE svg PUBLIC "-//W3C//DTD SVG 1.1//EN" "http://www.w3.org/Graphics/SVG/1.1/DTD/svg11.dtd">
<svg version="1.1" id="Layer_1" xmlns="http://www.w3.org/2000/svg" xmlns:xlink="http://www.w3.org/1999/xlink" x="0px" y="0px"
	 width="40px" height="40px" viewBox="0 0 40 40" enable-background="new 0 0 40 40" xml:space="preserve">
<g>
	<path fill="#0077FF" d="M7.48,16.12c-0.052,0.072-0.096,0.15-0.133,0.24l-0.038,0.158c-0.017,0.075-0.026,0.154-0.028,0.242
		c0.001,0.076,0.011,0.153,0.028,0.229l0.034,0.143c0.039,0.099,0.092,0.192,0.161,0.28l11.633,14.596
		c0.064,0.089,0.142,0.163,0.229,0.221l0.146,0.08h0.015c0.024,0.012,0.048,0.023,0.074,0.033l0.158,0.034
		c0.078,0.019,0.157,0.028,0.237,0.028c0.081,0,0.16-0.01,0.238-0.028l0.158-0.034c0.025-0.01,0.05-0.021,0.074-0.033l0.158-0.078
		c0.089-0.058,0.167-0.133,0.219-0.205l11.651-14.619c0.307-0.395,0.307-0.945-0.004-1.345l-4.45-5.577
		c-0.207-0.255-0.516-0.402-0.849-0.404H12.802c-0.328,0.002-0.635,0.148-0.848,0.407l-4.447,5.574L7.48,16.12z M14.953,17.838
		l2.484,8.574l-6.833-8.574H14.953z M10.604,15.672l2.721-3.408h2.616l-0.988,3.408H10.604z M22.794,17.838L20,27.477l-2.793-9.638
		H22.794z M17.206,15.672l0.988-3.408h3.609l0.99,3.408H17.206z M24.06,12.264h2.615l2.721,3.408h-4.348L24.06,12.264z
		 M29.396,17.838l-6.835,8.574l2.486-8.575L29.396,17.838z"/>
	<path fill="#0077FF" d="M8.709,10.241c0.202,0.202,0.481,0.318,0.767,0.318h0.003h0.003c0.286-0.003,0.555-0.116,0.762-0.32
		c0.416-0.421,0.416-1.105-0.002-1.529L8.082,6.551C7.667,6.166,6.975,6.18,6.578,6.579C6.164,6.994,6.152,7.654,6.563,8.095
		L8.709,10.241z"/>
	<path fill="#0077FF" d="M5.116,18.917H2.081c-0.597,0-1.083,0.486-1.083,1.083c0,0.597,0.486,1.082,1.083,1.082h3.035
		c0.597,0,1.083-0.485,1.083-1.082C6.199,19.403,5.713,18.917,5.116,18.917z"/>
	<path fill="#0077FF" d="M8.709,29.758l-2.143,2.145c-0.205,0.201-0.322,0.48-0.322,0.768c0,0.288,0.117,0.568,0.319,0.767
		c0.205,0.204,0.476,0.316,0.765,0.316s0.561-0.112,0.766-0.316l2.159-2.159c0.397-0.428,0.386-1.088-0.027-1.504
		C9.827,29.374,9.149,29.35,8.709,29.758z"/>
	<path fill="#0077FF" d="M20,33.802c-0.597,0-1.083,0.485-1.083,1.083v3.033c0,0.598,0.486,1.083,1.083,1.083
		c0.598,0,1.083-0.485,1.083-1.083v-3.033C21.083,34.287,20.598,33.802,20,33.802z"/>
	<path fill="#0077FF" d="M31.277,29.745c-0.415-0.384-1.104-0.371-1.504,0.029c-0.412,0.413-0.425,1.073-0.015,1.517l2.147,2.145
		c0.203,0.205,0.475,0.317,0.764,0.317c0.288,0,0.56-0.112,0.764-0.313c0.205-0.202,0.322-0.482,0.322-0.77
		c0-0.286-0.117-0.565-0.319-0.765L31.277,29.745z"/>
	<path fill="#0077FF" d="M37.919,18.917h-3.034c-0.598,0-1.083,0.486-1.083,1.083c0,0.597,0.485,1.082,1.083,1.082h3.034
		c0.597,0,1.082-0.485,1.082-1.082C39.001,19.403,38.516,18.917,37.919,18.917z"/>
	<path fill="#0077FF" d="M30.519,10.559h0.006c0.284,0,0.563-0.116,0.767-0.318l2.156-2.158c0.399-0.427,0.389-1.088-0.025-1.504
		c-0.399-0.401-1.082-0.423-1.516-0.016l-2.151,2.149c-0.414,0.421-0.414,1.106,0.007,1.533
		C29.965,10.444,30.233,10.556,30.519,10.559z"/>
	<path fill="#0077FF" d="M20,6.199c0.598,0,1.083-0.486,1.083-1.083V2.081c0-0.597-0.485-1.083-1.083-1.083
		c-0.597,0-1.083,0.486-1.083,1.083v3.035C18.917,5.713,19.403,6.199,20,6.199z"/>
</g>
</svg>
