<?xml version="1.0" encoding="utf-8"?>
<!-- Generator: Adobe Illustrator 16.0.0, SVG Export Plug-In . SVG Version: 6.00 Build 0)  -->
<!DOCTYPE svg PUBLIC "-//W3C//DTD SVG 1.1//EN" "http://www.w3.org/Graphics/SVG/1.1/DTD/svg11.dtd">
<svg version="1.1" id="Layer_1" xmlns="http://www.w3.org/2000/svg" xmlns:xlink="http://www.w3.org/1999/xlink" x="0px" y="0px"
	 width="40px" height="40px" viewBox="0 0 40 40" enable-background="new 0 0 40 40" xml:space="preserve">
<g>
	<path fill="#0077FF" d="M6.302,14.547c0.206,0.206,0.421,0.419,0.647,0.616c0.146,0.129,0.184,0.253,0.141,0.473
		c-0.075,0.367-0.137,0.736-0.193,1.07l-0.058,0.352c-0.01,0.275,0.07,0.516,0.226,0.679c0.212,0.219,0.544,0.268,0.852,0.121
		c0.473-0.225,0.932-0.475,1.398-0.731c0.124-0.068,0.189-0.067,0.3-0.006c0.287,0.163,0.581,0.315,0.875,0.468
		c0.154,0.08,0.307,0.159,0.46,0.24c0.151,0.081,0.293,0.119,0.43,0.119c0.153,0,0.299-0.05,0.432-0.151
		c0.248-0.188,0.342-0.462,0.279-0.814c-0.028-0.161-0.055-0.322-0.081-0.483c-0.053-0.321-0.107-0.652-0.178-0.976
		c-0.028-0.135-0.004-0.204,0.108-0.307c0.215-0.201,0.425-0.407,0.636-0.613c0.135-0.133,0.271-0.265,0.408-0.396
		c0.28-0.272,0.364-0.551,0.258-0.851c-0.105-0.301-0.341-0.471-0.721-0.52c-0.194-0.025-0.387-0.054-0.58-0.082
		c-0.265-0.039-0.529-0.078-0.795-0.109c-0.182-0.022-0.271-0.083-0.336-0.237c-0.108-0.244-0.229-0.483-0.348-0.722
		c-0.089-0.175-0.177-0.349-0.259-0.526c-0.11-0.232-0.306-0.541-0.742-0.541c-0.425,0.004-0.622,0.316-0.732,0.551
		c-0.072,0.149-0.147,0.297-0.221,0.445c-0.134,0.261-0.27,0.531-0.388,0.806c-0.063,0.142-0.142,0.198-0.315,0.22
		c-0.285,0.037-0.57,0.078-0.854,0.118c-0.184,0.027-0.367,0.053-0.55,0.078c-0.374,0.051-0.603,0.216-0.698,0.502
		c-0.108,0.314-0.026,0.603,0.243,0.857C6.064,14.312,6.183,14.429,6.302,14.547z M10.604,16.202
		c-0.756-0.454-1.51-0.451-2.278,0.004c0.205-0.874-0.026-1.59-0.699-2.168c0.903-0.095,1.51-0.534,1.841-1.333
		c0.362,0.816,0.968,1.255,1.838,1.334C10.643,14.624,10.412,15.337,10.604,16.202z"/>
	<path fill="#0077FF" d="M31.17,27.385c1.692-0.565,2.785-2.087,2.714-3.87c-0.074-1.88-1.569-3.442-3.479-3.632
		c-1.902-0.184-3.652,1.123-4.078,2.984c-0.245,1.073-0.047,2.085,0.588,3.008c0.496,0.717,1.172,1.219,2.017,1.497
		c-1.17,0.248-2.164,0.754-3.021,1.535c-0.669-0.821-1.421-1.456-2.296-1.938c-0.687-0.38-1.453-0.651-2.329-0.824
		c1.074-0.301,1.967-0.888,2.66-1.749c0.876-1.088,1.243-2.319,1.09-3.662c-0.282-2.485-2.186-4.356-4.63-4.551
		c-2.361-0.187-4.627,1.387-5.255,3.613c-0.426,1.51-0.216,2.926,0.626,4.207c0.7,1.067,1.685,1.784,2.933,2.139
		c-1.856,0.354-3.391,1.264-4.572,2.712c-0.153-0.096-0.302-0.193-0.45-0.289c-0.414-0.269-0.805-0.522-1.236-0.718
		c-0.436-0.197-0.894-0.325-1.337-0.448c-0.026-0.007-0.051-0.014-0.077-0.021c1.997-0.612,2.894-2.486,2.716-4.062
		c-0.224-1.996-1.827-3.445-3.81-3.445H9.9c-1.953,0.021-3.572,1.514-3.768,3.473c-0.157,1.596,0.753,3.403,2.778,4.034
		c-2.123,0.432-3.622,1.656-4.458,3.643c-0.436,1.033-0.395,2.123-0.355,3.176l0.001,0.039c0.01,0.216,0.188,0.457,0.355,0.567
		c0.171,0.112,0.403,0.127,0.629,0.127c9.943,0.004,19.884,0.004,29.829,0.004h0.093c0.64-0.004,0.915-0.275,0.921-0.907
		c0.001-0.207,0.001-0.412,0-0.618v-0.308C35.919,30.26,33.937,27.904,31.17,27.385z M20.001,17.53v0.127
		c1.969,0,3.573,1.603,3.575,3.573c0,0.95-0.373,1.848-1.051,2.525c-0.677,0.677-1.574,1.05-2.53,1.05
		c-0.952-0.002-1.849-0.379-2.525-1.059c-0.675-0.68-1.045-1.578-1.041-2.53c0.007-1.958,1.605-3.555,3.565-3.559L20.001,17.53
		L20.001,17.53z M16.659,28.561c2.023-1.325,4.184-1.409,6.289-0.243c1.907,1.057,2.95,2.777,3.101,5.111H13.961
		C14.074,31.298,14.981,29.661,16.659,28.561z M31.71,22.058c0.446,0.449,0.691,1.035,0.688,1.649
		c-0.009,1.278-1.055,2.323-2.344,2.33c-0.616,0-1.2-0.248-1.646-0.697c-0.447-0.448-0.69-1.034-0.687-1.648
		c0.007-1.278,1.052-2.324,2.331-2.33l0.01-0.127l0,0v0.127C30.677,21.361,31.262,21.609,31.71,22.058z M26.836,30.083
		c1.308-1.202,2.79-1.589,4.4-1.142c1.637,0.458,2.674,1.518,3.085,3.15c0.077,0.306,0.097,0.629,0.119,0.971
		c0.008,0.122,0.016,0.245,0.026,0.368h-6.922c-0.007-0.081-0.014-0.163-0.021-0.245c-0.021-0.268-0.043-0.544-0.109-0.81
		c-0.175-0.679-0.397-1.35-0.612-2C26.746,30.212,26.743,30.169,26.836,30.083z M10,28.771c1.216,0,2.336,0.463,3.154,1.303
		c0.101,0.105,0.119,0.128,0.078,0.229l-0.041,0.102c-0.192,0.477-0.391,0.97-0.515,1.478c-0.091,0.37-0.134,0.743-0.179,1.137
		c-0.015,0.136-0.031,0.272-0.049,0.411h-6.87C5.507,32.42,5.73,31.537,6.26,30.732C7.07,29.505,8.468,28.771,10,28.771z
		 M9.942,21.234l0.01,0.127c1.277,0.006,2.323,1.052,2.33,2.33c0.004,0.614-0.24,1.2-0.686,1.649
		c-0.447,0.448-1.031,0.696-1.657,0.696H9.938c-1.278-0.007-2.325-1.052-2.332-2.33c-0.003-0.614,0.24-1.199,0.687-1.648
		s1.032-0.697,1.648-0.697V21.234L9.942,21.234z"/>
	<path fill="#0077FF" d="M16.096,10.43c0.261,0.255,0.522,0.511,0.786,0.763c0.114,0.109,0.138,0.175,0.112,0.308
		c-0.119,0.632-0.224,1.266-0.325,1.879l-0.091,0.552c-0.014,0.248,0.059,0.47,0.206,0.625c0.224,0.238,0.6,0.284,0.936,0.111
		c0.667-0.338,1.365-0.707,2.074-1.094c0.142-0.078,0.231-0.076,0.382,0.006c0.478,0.261,0.961,0.514,1.445,0.767l0.599,0.314
		c0.154,0.082,0.303,0.123,0.442,0.123c0.152,0,0.293-0.048,0.421-0.143c0.258-0.191,0.349-0.466,0.279-0.842
		c-0.07-0.376-0.135-0.752-0.198-1.13c-0.061-0.361-0.123-0.723-0.189-1.083c-0.034-0.195-0.002-0.303,0.131-0.425
		c0.358-0.332,0.713-0.68,1.056-1.016c0.188-0.185,0.376-0.369,0.565-0.551c0.29-0.279,0.377-0.567,0.264-0.88
		c-0.139-0.383-0.482-0.472-0.729-0.506C23.913,8.16,23.564,8.11,23.216,8.06c-0.403-0.059-0.808-0.117-1.212-0.17
		c-0.147-0.02-0.221-0.074-0.287-0.218c-0.179-0.379-0.363-0.755-0.548-1.13c-0.146-0.297-0.293-0.594-0.436-0.894
		c-0.137-0.284-0.332-0.576-0.753-0.582c-0.422,0-0.623,0.3-0.762,0.593c-0.131,0.273-0.265,0.545-0.398,0.817
		c-0.193,0.392-0.386,0.784-0.57,1.18c-0.072,0.155-0.149,0.215-0.307,0.235c-0.377,0.05-0.753,0.104-1.13,0.159
		c-0.366,0.053-0.73,0.106-1.097,0.155c-0.258,0.034-0.618,0.125-0.751,0.524c-0.103,0.308-0.011,0.594,0.28,0.874
		C15.531,9.877,15.813,10.153,16.096,10.43z M21.516,11.867c0.064,0.212,0.094,0.443,0.125,0.687
		c0.006,0.042,0.011,0.084,0.017,0.127c-0.065-0.034-0.131-0.066-0.194-0.099c-0.292-0.147-0.566-0.286-0.824-0.443
		c-0.231-0.142-0.449-0.211-0.665-0.211c-0.213,0-0.424,0.067-0.646,0.206c-0.261,0.164-0.54,0.303-0.834,0.451
		c-0.063,0.032-0.127,0.064-0.192,0.097l0.042-0.253c0.062-0.384,0.121-0.75,0.191-1.116c0.063-0.331-0.025-0.604-0.279-0.862
		c-0.265-0.267-0.519-0.544-0.776-0.825l-0.134-0.146c0.048-0.008,0.098-0.016,0.147-0.024c0.3-0.048,0.61-0.098,0.921-0.126
		c0.528-0.048,0.86-0.284,1.043-0.743C19.575,8.289,19.723,8,19.88,7.695c0.032-0.064,0.065-0.128,0.099-0.194
		c0.032,0.063,0.063,0.125,0.095,0.188c0.162,0.317,0.314,0.618,0.444,0.928c0.182,0.435,0.488,0.659,0.967,0.705
		c0.319,0.03,0.636,0.079,0.971,0.13c0.073,0.011,0.148,0.022,0.224,0.034c-0.03,0.032-0.06,0.065-0.088,0.097
		c-0.171,0.188-0.331,0.365-0.515,0.5C21.46,10.535,21.281,11.102,21.516,11.867z"/>
	<path fill="#0077FF" d="M27.28,14.547c0.206,0.206,0.421,0.419,0.647,0.616c0.146,0.129,0.184,0.253,0.141,0.473
		c-0.075,0.367-0.137,0.736-0.193,1.07l-0.058,0.352c-0.01,0.275,0.07,0.516,0.226,0.679c0.212,0.219,0.544,0.268,0.852,0.121
		c0.473-0.225,0.932-0.475,1.398-0.731c0.124-0.068,0.189-0.067,0.3-0.006c0.287,0.163,0.581,0.315,0.875,0.468
		c0.154,0.08,0.307,0.159,0.46,0.24c0.151,0.081,0.293,0.119,0.43,0.119c0.153,0,0.299-0.05,0.432-0.151
		c0.248-0.188,0.342-0.462,0.279-0.814c-0.028-0.161-0.055-0.322-0.081-0.483c-0.053-0.321-0.107-0.652-0.178-0.976
		c-0.028-0.135-0.004-0.204,0.108-0.307c0.215-0.201,0.425-0.407,0.636-0.613c0.135-0.133,0.271-0.265,0.408-0.396
		c0.28-0.272,0.364-0.551,0.258-0.851c-0.105-0.301-0.341-0.471-0.721-0.52c-0.194-0.025-0.387-0.054-0.58-0.082
		c-0.265-0.039-0.529-0.078-0.795-0.109c-0.182-0.022-0.271-0.083-0.336-0.237c-0.108-0.244-0.229-0.483-0.348-0.722
		c-0.089-0.175-0.177-0.349-0.259-0.526c-0.11-0.232-0.306-0.541-0.742-0.541c-0.425,0.004-0.622,0.316-0.732,0.551
		c-0.072,0.149-0.147,0.297-0.221,0.445c-0.134,0.261-0.27,0.531-0.388,0.806c-0.063,0.142-0.142,0.198-0.315,0.22
		c-0.285,0.037-0.57,0.078-0.854,0.118c-0.184,0.027-0.367,0.053-0.55,0.078c-0.374,0.051-0.603,0.216-0.698,0.502
		c-0.108,0.314-0.026,0.603,0.243,0.857C27.043,14.312,27.161,14.429,27.28,14.547z M31.582,16.202
		c-0.756-0.454-1.51-0.451-2.278,0.004c0.205-0.874-0.026-1.59-0.699-2.168c0.903-0.095,1.51-0.534,1.841-1.333
		c0.362,0.816,0.968,1.255,1.838,1.334C31.621,14.624,31.391,15.337,31.582,16.202z"/>
	<path fill="#0077FF" d="M21.944,30.561c0.552,0.403,0.979,0.892,1.305,1.494c0.141,0.261,0.376,0.409,0.643,0.409
		c0.124,0,0.253-0.034,0.372-0.1c0.362-0.205,0.476-0.626,0.277-1.025c-0.398-0.794-0.971-1.449-1.702-1.947
		c-0.1-0.068-0.21-0.105-0.291-0.133c-0.023-0.008-0.043-0.015-0.059-0.021l-0.05-0.009c-0.396,0.006-0.644,0.16-0.756,0.475
		C21.56,30.038,21.654,30.351,21.944,30.561z"/>
	<path fill="#0077FF" d="M20.003,29.992h0.004c0.188-0.001,0.376-0.084,0.516-0.226c0.14-0.143,0.22-0.332,0.218-0.519
		c-0.002-0.392-0.347-0.735-0.744-0.735c-0.394,0.004-0.738,0.352-0.736,0.745C19.266,29.649,19.612,29.992,20.003,29.992z
		 M20.003,29.863L20.003,29.863L20.003,29.863L20.003,29.863z"/>
</g>
</svg>
