<?xml version="1.0" encoding="utf-8"?>
<!-- Generator: Adobe Illustrator 16.0.0, SVG Export Plug-In . SVG Version: 6.00 Build 0)  -->
<!DOCTYPE svg PUBLIC "-//W3C//DTD SVG 1.1//EN" "http://www.w3.org/Graphics/SVG/1.1/DTD/svg11.dtd">
<svg version="1.1" id="Layer_1" xmlns="http://www.w3.org/2000/svg" xmlns:xlink="http://www.w3.org/1999/xlink" x="0px" y="0px"
	 width="40px" height="40px" viewBox="0 0 40 40" enable-background="new 0 0 40 40" xml:space="preserve">
<g>
	<path fill-rule="evenodd" clip-rule="evenodd" fill="#0077FF" d="M37.904,31.188c-0.236,0.575-0.386,1.209-0.727,1.713
		c-1.087,1.608-3.169,2.104-4.895,1.237c-1.715-0.861-2.528-2.826-1.934-4.677c0.024-0.076,0.046-0.152,0.076-0.254
		c-0.824-0.55-1.645-1.1-2.354-1.571c-0.492,0.426-0.946,0.841-1.421,1.23c-0.476,0.39-0.972,0.756-1.485,1.152
		c0.254,0.504,0.501,1.029,0.781,1.535c0.051,0.094,0.22,0.155,0.343,0.173c1.161,0.157,2.036,1.053,2.104,2.171
		c0.072,1.206-0.672,2.228-1.831,2.514c-0.938,0.23-1.99-0.191-2.528-1.015c-0.555-0.849-0.525-1.973,0.104-2.745
		c0.17-0.206,0.177-0.354,0.053-0.576c-0.228-0.405-0.423-0.827-0.638-1.252c-4.315,1.467-8.145,0.682-11.525-2.423
		c-0.565,0.47-1.145,0.951-1.724,1.434c-0.403,0.335-0.802,0.677-1.211,1.003c-0.143,0.115-0.16,0.21-0.099,0.384
		c0.666,1.907-0.583,3.788-2.589,3.859c-1.291,0.046-2.442-0.82-2.796-2.101c-0.326-1.183,0.212-2.557,1.279-3.166
		c0.818-0.469,1.667-0.538,2.55-0.197c0.092,0.035,0.247,0.051,0.309,0c1.045-0.855,2.079-1.724,3.141-2.607
		c-1.339-1.997-2-4.17-1.893-6.568c0.107-2.4,0.961-4.505,2.425-6.311c-1.125-1.162-2.234-2.305-3.356-3.462
		c-0.693,0.404-1.417,0.621-2.207,0.599C4.051,11.217,2.5,9.9,2.166,8.126c-0.015-0.078-0.046-0.151-0.07-0.227
		c0-0.326,0-0.652,0-0.979c0.176-0.78,0.449-1.508,1.001-2.117c1.298-1.431,3.458-1.699,5.053-0.611
		c1.605,1.095,2.151,3.18,1.3,4.921C9.396,9.221,9.378,9.43,9.443,9.498c1.065,1.124,2.146,2.234,3.217,3.34
		c4.304-3.669,10.769-3.286,14.591,0.665c0.521-0.417,1.047-0.835,1.572-1.255c-0.132-0.382-0.299-0.743-0.381-1.121
		c-0.346-1.616,0.144-2.968,1.449-3.956c1.287-0.973,2.722-1.077,4.141-0.313c1.433,0.771,2.122,2.036,2.038,3.66
		c-0.146,2.784-3.223,4.487-5.673,3.157c-0.219-0.12-0.358-0.118-0.55,0.045c-0.468,0.401-0.958,0.776-1.452,1.171
		c2.263,3.609,2.448,7.314,0.555,11.148c0.07,0.055,0.146,0.12,0.229,0.176c0.678,0.453,1.362,0.896,2.03,1.361
		c0.206,0.144,0.339,0.141,0.543-0.009c1.529-1.113,3.521-0.998,4.909,0.277c0.62,0.568,1.001,1.275,1.171,2.099
		c0.02,0.091,0.048,0.178,0.071,0.267C37.904,30.536,37.904,30.862,37.904,31.188z M28.448,20.896
		c-0.032-4.88-3.994-8.826-8.85-8.814c-4.885,0.011-8.867,4.009-8.829,8.866c0.038,4.877,4.036,8.847,8.863,8.798
		C24.527,29.698,28.481,25.728,28.448,20.896z M8.047,7.402C8.048,6.266,7.13,5.333,5.995,5.317c-1.14-0.017-2.09,0.928-2.092,2.079
		c-0.001,1.151,0.948,2.1,2.085,2.083C7.127,9.464,8.045,8.537,8.047,7.402z M34.28,10.246c-0.01-1.136-0.939-2.064-2.071-2.065
		c-1.146,0-2.083,0.945-2.075,2.096c0.007,1.137,0.935,2.059,2.071,2.06C33.354,12.339,34.288,11.397,34.28,10.246z M36.098,30.694
		c0.007-1.152-0.928-2.094-2.075-2.092c-1.134,0.002-2.064,0.932-2.069,2.064c-0.006,1.156,0.927,2.092,2.077,2.088
		C35.173,32.751,36.09,31.837,36.098,30.694z M5.307,32.235c-0.004,0.582,0.454,1.049,1.032,1.053
		c0.573,0.005,1.053-0.465,1.06-1.033c0.006-0.563-0.474-1.054-1.042-1.06C5.785,31.19,5.311,31.66,5.307,32.235z M26.606,34.079
		c-0.006-0.313-0.271-0.577-0.583-0.577c-0.329,0.001-0.589,0.277-0.575,0.614c0.012,0.315,0.286,0.573,0.596,0.561
		C26.354,34.666,26.611,34.392,26.606,34.079z"/>
	<path fill-rule="evenodd" clip-rule="evenodd" fill="#0077FF" d="M20.496,14.395c1.029,0.257,1.897,0.764,2.676,1.431
		c0.15,0.129,0.302,0.258,0.437,0.403c0.33,0.354,0.335,0.901,0.022,1.237c-0.331,0.356-0.854,0.362-1.264,0.056
		c-0.528-0.395-1.078-0.762-1.622-1.138c-0.055-0.038-0.125-0.052-0.225-0.092c-0.008,0.098-0.021,0.173-0.021,0.246
		c0,1.096,0.006,2.191-0.005,3.287c-0.003,0.226,0.072,0.318,0.285,0.391c1.524,0.517,2.488,1.814,2.571,3.438
		c0.075,1.467-0.825,2.912-2.219,3.549c-0.199,0.091-0.411,0.153-0.635,0.235c0,0.218,0.007,0.427-0.001,0.636
		c-0.021,0.483-0.405,0.867-0.868,0.876c-0.469,0.011-0.925-0.354-0.891-0.836c0.04-0.579-0.201-0.8-0.711-1.006
		c-0.975-0.396-1.745-1.106-2.437-1.891c-0.334-0.378-0.307-0.938,0.035-1.262c0.359-0.339,0.915-0.324,1.284,0.061
		c0.519,0.538,1.059,1.046,1.766,1.418c0.015-0.111,0.034-0.195,0.034-0.28c0.002-1.062-0.004-2.123,0.006-3.183
		c0.002-0.208-0.067-0.3-0.264-0.375c-1.491-0.564-2.363-1.648-2.489-3.233c-0.131-1.646,0.58-2.914,2.059-3.65
		c0.495-0.248,0.762-0.451,0.722-1.042c-0.031-0.451,0.446-0.814,0.89-0.799c0.448,0.015,0.835,0.393,0.862,0.851
		C20.505,13.932,20.496,14.142,20.496,14.395z M20.528,22.038c0,1.185,0,2.302,0,3.474c0.693-0.446,1.038-1.022,1.02-1.796
		C21.53,22.985,21.186,22.447,20.528,22.038z M18.683,19.715c0-1.123,0-2.208,0-3.309C17.423,17.122,17.418,18.928,18.683,19.715z"
		/>
</g>
</svg>
