<?xml version="1.0" encoding="utf-8"?>
<!-- Generator: Adobe Illustrator 16.0.0, SVG Export Plug-In . SVG Version: 6.00 Build 0)  -->
<!DOCTYPE svg PUBLIC "-//W3C//DTD SVG 1.1//EN" "http://www.w3.org/Graphics/SVG/1.1/DTD/svg11.dtd">
<svg version="1.1" id="Layer_1" xmlns="http://www.w3.org/2000/svg" xmlns:xlink="http://www.w3.org/1999/xlink" x="0px" y="0px"
	 width="40px" height="40px" viewBox="0 0 40 40" enable-background="new 0 0 40 40" xml:space="preserve">
<g>
	<path fill="#0077FF" d="M19.264,22.904l-0.039,0.001c-0.333,0.021-0.588,0.307-0.57,0.638l0.396,7.548l-0.615,0.615l-0.614-0.615
		l0.397-7.549c0.018-0.331-0.238-0.616-0.572-0.637l-0.041-0.001c-0.322,0-0.58,0.247-0.598,0.574l-0.411,7.82
		c-0.009,0.172,0.055,0.34,0.176,0.461l1.235,1.234c0.113,0.113,0.269,0.178,0.428,0.178c0.162,0,0.314-0.063,0.43-0.178
		l1.235-1.234c0.12-0.123,0.184-0.291,0.175-0.461l-0.411-7.82C19.851,23.162,19.582,22.904,19.264,22.904z"/>
	<path fill="#0077FF" d="M12.264,31.958h-1.039v-6.493c0-0.504,0.42-1.146,0.881-1.346l4.873-2.118
		c0.222-0.098,0.365-0.316,0.365-0.558v-1.438c0-0.228-0.133-0.44-0.336-0.541c-0.007-0.004-0.685-0.392-1.129-1.991
		c-0.028-0.095-0.077-0.182-0.135-0.242c-0.035-0.039-0.34-0.396-0.427-0.835c-0.042-0.208-0.021-0.403-0.001-0.488
		c0.212-0.129,0.326-0.374,0.285-0.619c-0.069-0.415-0.166-1.752,0.281-2.424c0.573-0.86,1.875-1.09,2.554-1.09
		c0.679,0,1.982,0.229,2.555,1.09c0.447,0.669,0.357,1.977,0.283,2.424c-0.039,0.247,0.074,0.492,0.287,0.619
		c0.02,0.085,0.039,0.281-0.004,0.489c-0.068,0.349-0.281,0.655-0.41,0.815l-0.01,0.01c-0.064,0.068-0.113,0.152-0.143,0.253
		c-0.422,1.521-1.056,1.944-1.11,1.978c-0.216,0.101-0.355,0.316-0.355,0.553v1.438c0,0.24,0.143,0.459,0.365,0.558l4.871,2.118
		c0.094,0.041,0.188,0.1,0.277,0.175c0.104,0.088,0.24,0.136,0.385,0.136c0.186,0,0.357-0.077,0.473-0.213
		c0.105-0.126,0.154-0.284,0.139-0.444c-0.014-0.161-0.09-0.307-0.215-0.411c-0.182-0.151-0.375-0.271-0.57-0.354l-4.508-1.961
		v-0.723c0.348-0.289,0.961-0.97,1.383-2.396c0.186-0.238,0.504-0.713,0.619-1.294c0.033-0.162,0.168-0.984-0.232-1.502
		c0.057-0.598,0.109-2.012-0.512-2.943c-0.807-1.201-2.426-1.628-3.568-1.628c-1.143,0-2.762,0.427-3.563,1.63
		c-0.621,0.93-0.569,2.344-0.514,2.941c-0.415,0.535-0.254,1.403-0.234,1.501c0.117,0.591,0.436,1.062,0.622,1.296
		c0.422,1.432,1.036,2.11,1.383,2.396v0.722l-4.507,1.962c-0.904,0.392-1.612,1.471-1.612,2.457v7.1
		c0,0.335,0.272,0.607,0.606,0.607h1.647c0.335,0,0.608-0.272,0.608-0.607C12.872,32.23,12.599,31.958,12.264,31.958z"/>
	<path fill="#0077FF" d="M13.475,32.137c-0.109,0.116-0.172,0.272-0.172,0.428c0,0.157,0.064,0.314,0.177,0.432
		c0.116,0.113,0.269,0.176,0.43,0.176c0.157,0,0.314-0.064,0.432-0.18c0.111-0.116,0.175-0.272,0.175-0.428
		c0-0.156-0.063-0.31-0.179-0.433C14.124,31.922,13.697,31.92,13.475,32.137z"/>
	<path fill="#0077FF" d="M35.063,27.103c-0.07-0.21-0.252-0.366-0.473-0.409l-4.17-0.726l-1.982-3.74
		c-0.098-0.189-0.303-0.308-0.535-0.308s-0.438,0.117-0.537,0.306l-1.98,3.742l-4.178,0.727c-0.219,0.042-0.398,0.199-0.469,0.412
		c-0.068,0.214-0.014,0.447,0.143,0.608l2.945,3.043l-0.596,4.189c-0.033,0.221,0.061,0.442,0.246,0.581
		c0.105,0.074,0.229,0.113,0.355,0.113c0.094,0,0.182-0.021,0.266-0.062l3.805-1.862l3.799,1.861
		c0.188,0.093,0.447,0.073,0.627-0.054c0.18-0.134,0.273-0.354,0.244-0.576l-0.596-4.191l2.945-3.042
		C35.08,27.553,35.135,27.318,35.063,27.103z M30.732,30.632l0.477,3.353l-3.041-1.489c-0.164-0.08-0.375-0.08-0.533,0l-3.039,1.489
		l0.473-3.35c0.027-0.183-0.031-0.372-0.162-0.507l-2.355-2.436l3.336-0.582c0.184-0.034,0.342-0.148,0.43-0.314l1.586-2.99
		l1.584,2.995c0.094,0.167,0.252,0.28,0.434,0.311l3.334,0.583l-2.355,2.431C30.77,30.255,30.707,30.443,30.732,30.632z"/>
	<path fill="#0077FF" d="M9.907,12.088c0.204-0.039,0.414-0.056,0.618-0.072c0.094-0.007,0.187-0.015,0.28-0.024
		c0.478-0.048,0.71-0.26,0.802-0.733c0.46-2.384,1.803-4.057,3.99-4.974C17.469,5.5,19.4,5.616,21.213,6.621
		c1.695,0.941,2.777,2.403,3.215,4.347c0.152,0.673,0.184,1.356,0.1,2.032c-0.01,0.076-0.018,0.154-0.02,0.23
		c-0.012,0.275,0.051,0.478,0.186,0.62c0.137,0.143,0.336,0.213,0.607,0.215c0.818,0.007,1.523,0.253,2.096,0.731
		c1.1,0.921,1.508,2.078,1.213,3.438l-0.021,0.09c-0.016,0.063-0.031,0.137-0.041,0.211c-0.051,0.405,0.184,0.749,0.555,0.817
		c0.402,0.072,0.727-0.147,0.834-0.533c0.043-0.158,0.076-0.318,0.107-0.474c0.016-0.081,0.033-0.162,0.051-0.245
		c0.008-0.031,0.016-0.062,0.025-0.094l0.023-0.082l-0.006-0.945c-0.025-0.104-0.047-0.209-0.07-0.314
		c-0.043-0.209-0.096-0.47-0.184-0.712c-0.664-1.815-1.963-2.909-3.859-3.25c-0.012-0.144-0.021-0.286-0.029-0.428l-0.002-0.029
		c-0.029-0.437-0.057-0.849-0.121-1.269c-0.209-1.386-0.799-2.66-1.754-3.787c-1.166-1.373-2.656-2.268-4.433-2.657
		c-0.251-0.055-0.506-0.089-0.758-0.123c-0.118-0.016-0.236-0.031-0.382-0.052l-1.103,0.003c-0.135,0.025-0.27,0.047-0.409,0.069
		c-0.291,0.048-0.592,0.097-0.886,0.172c-2.411,0.628-4.189,2.086-5.284,4.334c-0.19,0.391-0.317,0.811-0.44,1.217
		c-0.039,0.128-0.077,0.255-0.117,0.382c-0.026,0.082-0.026,0.082-0.088,0.089c-2.576,0.257-4.664,2.137-5.194,4.676
		c-0.03,0.14-0.053,0.278-0.077,0.419l-0.04,0.239l0.004,1.057l0.041,0.212c0.026,0.142,0.056,0.302,0.094,0.456
		c0.579,2.354,2.062,3.869,4.408,4.503c0.062,0.017,0.126,0.031,0.191,0.04c0.04,0.006,0.078,0.008,0.116,0.008
		c0.34,0,0.606-0.2,0.694-0.522c0.101-0.365-0.091-0.713-0.464-0.846c-0.125-0.045-0.25-0.084-0.377-0.123l-0.052-0.016
		c-0.208-0.063-0.403-0.122-0.589-0.204c-1.76-0.771-2.832-2.664-2.605-4.604C6.588,14.026,8.044,12.451,9.907,12.088z
		 M25.916,12.251L25.916,12.251L25.916,12.251L25.916,12.251z"/>
</g>
</svg>
