<?xml version="1.0" encoding="utf-8"?>
<!-- Generator: Adobe Illustrator 16.0.0, SVG Export Plug-In . SVG Version: 6.00 Build 0)  -->
<!DOCTYPE svg PUBLIC "-//W3C//DTD SVG 1.1//EN" "http://www.w3.org/Graphics/SVG/1.1/DTD/svg11.dtd">
<svg version="1.1" id="Layer_1" xmlns="http://www.w3.org/2000/svg" xmlns:xlink="http://www.w3.org/1999/xlink" x="0px" y="0px"
	 width="40px" height="40px" viewBox="0 0 40 40" enable-background="new 0 0 40 40" xml:space="preserve">
<g>
	<path fill="#0077FF" d="M35.486,24.111c-0.025-0.138-0.048-0.277-0.07-0.417l-0.014-0.084c-0.057-0.368-0.115-0.749-0.215-1.121
		c-0.973-3.67-3.292-6.167-6.896-7.421c-0.108-0.037-0.19-0.077-0.254-0.125l0.528,0c0.181,0,0.361,0,0.542-0.002
		c0.771-0.007,1.446-0.27,2.007-0.782c0.912-0.829,1.22-2.111,0.785-3.265c-0.431-1.14-1.526-1.913-2.727-1.924
		c-0.635-0.006-1.271-0.007-1.906-0.007l-2.495,0.002l0.003-0.008c0.089-0.238,0.188-0.508,0.24-0.783
		c0.157-0.831-0.061-1.693-0.598-2.369c-0.545-0.681-1.348-1.089-2.202-1.122c-0.107-0.004-0.215-0.005-0.323-0.005H7.741
		c-1.707,0-2.746,0.805-3.179,2.459l0.121,0.032l-0.14,0.015L4.512,8.046l0.014,0.064c0.041,0.107,0.076,0.216,0.112,0.333
		c0.083,0.252,0.167,0.512,0.31,0.75c0.558,0.941,1.44,1.445,2.553,1.458c0.604,0.006,1.207,0.008,1.812,0.008l2.522-0.003
		c-0.402,0.871-0.401,1.724,0.002,2.595l-0.575-0.001c-0.188,0-0.374,0.001-0.561,0.003c-0.828,0.012-1.592,0.341-2.151,0.928
		c-0.557,0.583-0.848,1.358-0.82,2.18c0.026,0.773,0.332,1.453,0.909,2.02c-0.61,0.615-0.909,1.314-0.911,2.136
		c-0.002,0.816,0.304,1.539,0.909,2.149c-0.602,0.61-0.907,1.328-0.908,2.135c-0.002,0.824,0.301,1.557,0.876,2.126
		c-0.054,0.084-0.11,0.168-0.166,0.251c-0.206,0.307-0.418,0.624-0.543,0.981c-0.319,0.901-0.187,1.866,0.363,2.648
		c0.565,0.805,1.459,1.27,2.453,1.275c2.242,0.016,4.484,0.007,6.729-0.001c0.133,0,0.213,0.034,0.319,0.135
		c2.146,2.062,4.558,3.106,7.17,3.106c0.973,0,1.983-0.147,3.007-0.438c3.843-1.096,6.3-3.693,7.304-7.722
		c0.088-0.352,0.14-0.725,0.181-1.023l0.006-0.046c0.02-0.137,0.039-0.277,0.064-0.45L35.486,24.111z M15.716,10.655l13.302,0.001
		c0.771,0,1.354,0.516,1.387,1.227c0.018,0.363-0.106,0.703-0.349,0.957c-0.251,0.264-0.604,0.41-0.993,0.411
		c-1.037,0.002-2.076,0.002-3.113,0.002l-4.147-0.001l-4.215,0.001c-1.005,0-2.011,0-3.016-0.002
		c-0.443-0.001-0.841-0.193-1.092-0.528c-0.241-0.321-0.313-0.733-0.199-1.132c0.159-0.554,0.66-0.928,1.249-0.932
		C14.924,10.655,15.32,10.655,15.716,10.655z M25.117,16.251h0.036c2.317,0.01,4.495,0.926,6.132,2.579
		c1.635,1.651,2.527,3.832,2.514,6.142c-0.025,4.763-3.928,8.638-8.699,8.638c-2.314-0.006-4.491-0.917-6.13-2.564
		c-1.638-1.647-2.536-3.829-2.527-6.143C16.457,20.132,20.349,16.251,25.117,16.251z M12.942,30.396c-0.718,0-1.437,0-2.154-0.002
		c-0.78-0.002-1.37-0.557-1.373-1.291c0-0.347,0.13-0.669,0.366-0.908c0.253-0.254,0.606-0.395,1.008-0.396l1.929-0.002l2.362,0.001
		l1.189,2.596L12.942,30.396z M18.015,17.392c-0.118,0.11-0.216,0.149-0.376,0.149c-0.995-0.003-1.991-0.004-2.986-0.004h-1.414
		c-0.825,0-1.65,0-2.475-0.002c-0.446-0.001-0.845-0.193-1.096-0.527c-0.241-0.32-0.314-0.732-0.201-1.132
		c0.158-0.553,0.659-0.928,1.247-0.933c0.342-0.003,0.684-0.004,1.025-0.004l10.598,0.003
		C20.744,15.378,19.294,16.199,18.015,17.392z M10.581,19.242c0.902-0.012,1.806-0.016,2.713-0.016c0.597,0,1.196,0.001,1.799,0.003
		l1.37,0.002c-0.546,0.839-0.952,1.688-1.237,2.585l-0.846,0.005c-1.251,0.004-2.5,0.009-3.75-0.009
		c-0.66-0.009-1.204-0.578-1.212-1.269c-0.004-0.338,0.117-0.662,0.342-0.912C9.982,19.384,10.274,19.246,10.581,19.242z
		 M10.807,23.516c0.611-0.002,1.222-0.002,1.835-0.002h2.193l-0.018,0.24c-0.026,0.356-0.051,0.698-0.063,1.044
		c-0.012,0.349-0.009,0.688-0.006,1.063l0.001,0.249l-2.363,0.002c-0.524,0-1.049,0-1.573-0.002c-0.808,0-1.395-0.544-1.397-1.293
		c0-0.36,0.138-0.689,0.388-0.926C10.058,23.648,10.414,23.516,10.807,23.516z M6.256,7.291c0.168-0.567,0.673-0.92,1.317-0.921
		l11.101-0.001c1.13,0,2.262,0,3.393,0.002c0.565,0.001,1.038,0.327,1.232,0.85c0.188,0.512,0.042,1.072-0.371,1.428
		c-0.251,0.217-0.557,0.318-0.964,0.318c-1.567-0.002-3.135-0.002-4.703-0.002L9.78,8.966c-0.75,0-1.499-0.001-2.248-0.003
		C7.094,8.96,6.7,8.767,6.451,8.431C6.209,8.107,6.138,7.691,6.256,7.291z"/>
	<path fill="#0077FF" d="M24.458,25.654c0.175,0.037,0.349,0.055,0.523,0.069l0.051,0.006c0.115,0.011,0.23,0.022,0.346,0.044
		c0.29,0.053,0.538,0.216,0.679,0.447c0.116,0.192,0.146,0.412,0.082,0.617c-0.137,0.44-0.63,0.705-1.186,0.651
		c-0.491-0.053-0.851-0.397-0.896-0.858c-0.049-0.519-0.39-0.854-0.871-0.854c-0.229,0.01-0.436,0.103-0.58,0.261
		c-0.164,0.175-0.247,0.421-0.233,0.693c0.022,0.574,0.241,1.096,0.648,1.551c0.319,0.357,0.729,0.617,1.253,0.791
		c0.085,0.601,0.368,0.905,0.841,0.905h0.002c0.48,0,0.765-0.306,0.844-0.909l0.084-0.029c1.1-0.376,1.832-1.356,1.821-2.439
		c-0.012-1.105-0.792-2.101-1.898-2.419c-0.23-0.065-0.463-0.09-0.688-0.112c-0.104-0.01-0.208-0.021-0.311-0.036
		c-0.467-0.067-0.744-0.273-0.872-0.649c-0.106-0.316-0.022-0.586,0.258-0.823c0.348-0.296,0.753-0.365,1.197-0.193
		c0.403,0.151,0.604,0.425,0.632,0.857c0.032,0.498,0.45,0.841,0.97,0.769c0.479-0.071,0.762-0.476,0.703-1.006
		c-0.114-1.08-0.71-1.827-1.769-2.222c-0.137-0.05-0.137-0.05-0.134-0.139c0.007-0.237-0.077-0.458-0.235-0.622
		c-0.302-0.311-0.889-0.313-1.192-0.009c-0.16,0.162-0.249,0.383-0.249,0.625c0.001,0.104,0.001,0.104-0.092,0.134
		c-1.166,0.386-1.878,1.394-1.814,2.568C22.431,24.44,23.289,25.399,24.458,25.654z"/>
	<path fill="#0077FF" d="M27.865,19.259c0.054,0.03,0.105,0.058,0.156,0.084l0.031,0.018c1.313,0.701,2.271,1.742,2.844,3.095
		c0.743,1.752,0.695,3.53-0.143,5.288c-0.072,0.155-0.147,0.34-0.16,0.536c-0.024,0.376,0.258,0.736,0.639,0.819
		c0.065,0.017,0.136,0.024,0.207,0.024c0.322,0,0.591-0.175,0.756-0.492c0.613-1.169,0.904-2.412,0.916-3.918
		c-0.063-2.32-1.046-4.353-2.843-5.876c-0.433-0.364-0.923-0.654-1.424-0.95l-0.195-0.115c-0.139-0.083-0.293-0.126-0.447-0.126
		c-0.312,0-0.597,0.177-0.743,0.463C27.244,18.536,27.407,18.997,27.865,19.259z"/>
	<path fill="#0077FF" d="M20.021,31.063c0.452,0.378,0.983,0.681,1.451,0.947l0.178,0.103c0.124,0.072,0.258,0.109,0.397,0.109
		c0.29,0,0.564-0.166,0.717-0.434c0.224-0.401,0.102-0.868-0.3-1.136c-0.06-0.038-0.121-0.07-0.185-0.104l-0.118-0.063
		c-1.304-0.706-2.252-1.743-2.819-3.082c-0.743-1.753-0.695-3.531,0.141-5.287c0.115-0.242,0.166-0.447,0.156-0.627
		c-0.022-0.38-0.288-0.668-0.676-0.733c-0.408-0.073-0.727,0.1-0.922,0.475c-0.61,1.171-0.901,2.418-0.913,3.928
		C17.189,27.493,18.189,29.534,20.021,31.063z"/>
	<path fill="#0077FF" d="M26.018,18.631h0.016c0.472,0,0.85-0.363,0.861-0.828c0.005-0.223-0.079-0.435-0.233-0.595
		c-0.163-0.17-0.38-0.262-0.63-0.267c-0.475,0-0.853,0.364-0.86,0.828c-0.005,0.226,0.079,0.438,0.234,0.597
		C25.563,18.533,25.78,18.626,26.018,18.631z"/>
	<path fill="#0077FF" d="M24.211,31.229c-0.478,0-0.856,0.364-0.863,0.829c-0.005,0.223,0.079,0.435,0.235,0.598
		c0.161,0.167,0.378,0.26,0.612,0.264h0.013c0.476,0,0.854-0.364,0.86-0.829c0.006-0.224-0.077-0.435-0.233-0.596
		C24.673,31.325,24.458,31.233,24.211,31.229z"/>
</g>
</svg>
