<?xml version="1.0" encoding="utf-8"?>
<!-- Generator: Adobe Illustrator 16.0.0, SVG Export Plug-In . SVG Version: 6.00 Build 0)  -->
<!DOCTYPE svg PUBLIC "-//W3C//DTD SVG 1.1//EN" "http://www.w3.org/Graphics/SVG/1.1/DTD/svg11.dtd">
<svg version="1.1" id="Layer_1" xmlns="http://www.w3.org/2000/svg" xmlns:xlink="http://www.w3.org/1999/xlink" x="0px" y="0px"
	 width="40px" height="40px" viewBox="0 0 40 40" enable-background="new 0 0 40 40" xml:space="preserve">
<g>
	<path fill="#0077FF" d="M16.529,19.752c-0.623,3.674-3.897,6.141-7.454,5.708s-6.061-3.317-6.03-6.818
		c0.029-3.35,2.616-6.249,5.902-6.647c3.607-0.438,6.948,1.986,7.579,5.724c5.65,0,11.303,0,16.955,0
		c0.024-0.028,0.05-0.057,0.077-0.083c-0.085-0.048-0.18-0.083-0.25-0.145c-0.513-0.452-1.032-0.9-1.528-1.369
		c-0.416-0.392-0.432-0.993-0.062-1.396c0.359-0.39,0.96-0.441,1.372-0.079c1.136,0.997,2.271,1.998,3.382,3.019
		c0.644,0.588,0.644,1.528,0.004,2.116c-1.112,1.024-2.243,2.024-3.38,3.021c-0.43,0.377-1.037,0.319-1.396-0.094
		c-0.358-0.414-0.329-1.001,0.098-1.395c0.556-0.515,1.128-1.015,1.738-1.565C27.826,19.752,22.177,19.752,16.529,19.752z
		 M14.475,17.741c-0.434-2.43-2.828-4.09-5.357-3.762c-2.439,0.317-4.28,2.634-4.075,5.128c0.212,2.592,2.377,4.486,5.033,4.404
		c2.094-0.066,4.334-2,4.363-3.786c-0.981,0-1.962,0.002-2.942-0.002c-0.152,0-0.31-0.011-0.456-0.051
		c-0.486-0.133-0.777-0.586-0.714-1.085c0.061-0.472,0.458-0.838,0.955-0.844C12.339,17.735,13.397,17.741,14.475,17.741z"/>
	<path fill="#0077FF" d="M29.327,11.724c-1.765,0-3.53,0.005-5.295-0.002c-0.805-0.002-1.301-0.749-0.954-1.43
		c0.208-0.408,0.562-0.556,1.008-0.556c2.703,0.005,5.406,0.002,8.109,0.002c0.827,0,1.655-0.002,2.481,0.001
		c0.644,0.003,1.082,0.417,1.075,1.002c-0.005,0.57-0.44,0.98-1.064,0.981C32.901,11.727,31.114,11.724,29.327,11.724z"/>
	<path fill="#0077FF" d="M14.686,31.651c-1.765,0-3.528,0.004-5.293-0.002c-0.803-0.003-1.298-0.756-0.948-1.435
		c0.209-0.405,0.565-0.554,1.011-0.552c2.747,0.005,5.491,0.002,8.237,0.002c0.772,0,1.544-0.002,2.315,0.002
		c0.637,0.002,1.095,0.418,1.097,0.989c0,0.571-0.457,0.993-1.093,0.994C18.236,31.653,16.462,31.651,14.686,31.651z"/>
	<path fill="#0077FF" d="M20.953,8.414c-1.378,0-2.756,0.002-4.133-0.001c-0.477-0.001-0.854-0.271-0.988-0.684
		c-0.131-0.403-0.012-0.852,0.347-1.085c0.183-0.119,0.426-0.207,0.641-0.207c2.755-0.014,5.511-0.01,8.268-0.008
		c0.61,0.001,1.056,0.427,1.056,0.992s-0.445,0.99-1.059,0.992C23.707,8.417,22.331,8.414,20.953,8.414z"/>
	<path fill="#0077FF" d="M23.106,28.342c-1.343,0-2.688,0.001-4.033,0c-0.665,0-1.125-0.407-1.127-0.989
		c-0.002-0.584,0.459-0.995,1.123-0.997c2.712,0,5.422,0,8.133,0.002c0.656,0,1.121,0.424,1.109,1.006
		c-0.011,0.574-0.462,0.979-1.104,0.979C25.841,28.343,24.474,28.342,23.106,28.342z"/>
	<path fill="#0077FF" d="M29.197,8.414c-0.254,0-0.508,0.007-0.761-0.002c-0.567-0.02-0.981-0.446-0.98-0.994
		c0.002-0.547,0.417-0.975,0.986-0.987c0.518-0.011,1.036-0.012,1.554,0c0.562,0.013,0.986,0.453,0.985,0.993
		c-0.002,0.542-0.426,0.971-0.991,0.989C29.725,8.42,29.461,8.414,29.197,8.414z"/>
	<path fill="#0077FF" d="M19.33,23.572c-0.264,0-0.529,0.01-0.793-0.002c-0.54-0.023-0.963-0.456-0.972-0.979
		c-0.009-0.532,0.424-0.985,0.979-1c0.529-0.016,1.058-0.016,1.586,0c0.542,0.015,0.965,0.451,0.974,0.974
		c0.009,0.53-0.429,0.981-0.982,1.005C19.86,23.58,19.595,23.572,19.33,23.572z"/>
	<path fill="#0077FF" d="M14.871,28.342c-0.253,0-0.506,0.005-0.759,0c-0.563-0.019-0.995-0.443-1.001-0.98
		c-0.007-0.537,0.419-0.986,0.977-1.002c0.528-0.015,1.058-0.016,1.587,0.002c0.562,0.016,0.973,0.458,0.962,1.009
		c-0.009,0.534-0.421,0.949-0.972,0.972C15.4,28.349,15.135,28.342,14.871,28.342z"/>
	<path fill="#0077FF" d="M18.039,11.658c0.253,0,0.508-0.008,0.76,0.001c0.539,0.02,0.966,0.449,0.978,0.972
		c0.012,0.517-0.407,0.983-0.943,1.004c-0.55,0.021-1.102,0.021-1.652,0c-0.535-0.02-0.956-0.486-0.944-1.002
		c0.011-0.523,0.437-0.955,0.975-0.974C17.488,11.651,17.763,11.658,18.039,11.658z"/>
	<path fill="#0077FF" d="M26.081,31.586c0.262,0,0.527-0.008,0.792,0.002c0.556,0.02,0.99,0.471,0.98,1.003
		c-0.008,0.524-0.432,0.962-0.972,0.977c-0.529,0.015-1.059,0.015-1.587,0.001c-0.555-0.015-0.989-0.473-0.981-1.003
		c0.01-0.522,0.433-0.955,0.974-0.978C25.551,31.578,25.813,31.586,26.081,31.586z"/>
</g>
</svg>
