<?xml version="1.0" encoding="utf-8"?>
<!-- Generator: Adobe Illustrator 16.0.0, SVG Export Plug-In . SVG Version: 6.00 Build 0)  -->
<!DOCTYPE svg PUBLIC "-//W3C//DTD SVG 1.1//EN" "http://www.w3.org/Graphics/SVG/1.1/DTD/svg11.dtd">
<svg version="1.1" id="Layer_1" xmlns="http://www.w3.org/2000/svg" xmlns:xlink="http://www.w3.org/1999/xlink" x="0px" y="0px"
	 width="40px" height="40px" viewBox="0 0 40 40" enable-background="new 0 0 40 40" xml:space="preserve">
<g>
	<path fill-rule="evenodd" clip-rule="evenodd" fill="#0077FF" d="M18.697,38.535c-0.382-0.226-0.507-0.558-0.501-0.997
		c0.02-1.291,0.008-2.582,0.008-3.873c0-0.127,0-0.254,0-0.379c-0.03-0.016-0.061-0.029-0.09-0.046
		c-0.203,0.216-0.406,0.433-0.611,0.646c-0.277,0.286-0.62,0.373-0.951,0.155c-0.572-0.379-1.094-0.351-1.701-0.042
		c-0.342,0.175-0.58,0.332-0.656,0.711c-0.029,0.152-0.099,0.298-0.158,0.44c-0.127,0.311-0.358,0.483-0.695,0.483
		c-0.832,0.006-1.665,0.006-2.497,0c-0.337,0-0.623-0.163-0.683-0.485c-0.142-0.753-0.597-1.132-1.3-1.343
		c-0.271-0.081-0.485-0.149-0.737,0.012c-0.151,0.097-0.326,0.155-0.489,0.233c-0.357,0.171-0.671,0.117-0.954-0.167
		c-0.55-0.56-1.11-1.107-1.661-1.668c-0.321-0.324-0.394-0.573-0.146-0.975c0.343-0.556,0.334-1.045,0.046-1.635
		c-0.188-0.387-0.392-0.599-0.788-0.724c-0.808-0.252-0.864-0.36-0.864-1.219c0-0.674-0.002-1.351,0.002-2.025
		c0.002-0.451,0.137-0.695,0.578-0.798c0.635-0.149,0.98-0.497,1.192-1.122c0.137-0.402,0.155-0.698-0.036-1.069
		c-0.407-0.785-0.379-0.857,0.235-1.474c0.478-0.478,0.953-0.957,1.434-1.432c0.316-0.313,0.601-0.396,0.978-0.163
		c0.554,0.342,1.043,0.347,1.637,0.059c0.386-0.187,0.625-0.382,0.728-0.788c0.096-0.377,0.22-0.753,0.714-0.88
		c-0.434-0.633-0.889-1.209-1.244-1.842c-0.317-0.564-0.711-0.753-1.357-0.719c-1.16,0.061-1.287-0.107-1.287-1.267
		c0-1.098-0.002-2.196,0.001-3.294c0.001-0.676,0.244-0.922,0.912-0.924c0.868-0.002,1.736,0,2.636,0
		C9.646,8.199,9.899,6.735,11.527,5.7C12.602,5.017,14.025,5.188,15,6.021c1.089,0.931,1.308,2.175,0.668,3.882
		c0.097,0.008,0.185,0.022,0.272,0.022c0.76,0.002,1.521,0.001,2.28,0.001c0.699,0,1.043,0.235,1.048,0.713
		c0.004,0.486-0.359,0.735-1.072,0.735c-2.931,0-5.862,0-8.794,0c-0.359,0-0.718,0-1.096,0c0,0.878,0,1.717,0,2.581
		c8.983,0,17.952,0,26.95,0c0-0.846,0-1.692,0-2.581c-0.146,0-0.287,0-0.429,0c-3.16,0-6.32,0-9.481,0
		c-0.133,0-0.268,0.006-0.398-0.017c-0.388-0.07-0.636-0.396-0.604-0.776c0.029-0.365,0.307-0.641,0.697-0.648
		c0.725-0.013,1.448-0.005,2.173-0.006c0.13,0,0.26,0,0.423,0c-0.268-1.167-0.075-2.195,0.752-3.047
		c0.619-0.639,1.392-0.932,2.28-0.917c1.553,0.026,3.38,1.525,2.822,3.964c0.776,0,1.548-0.001,2.318,0
		c0.696,0.001,0.923,0.23,0.923,0.938c0.002,1.23,0.003,2.461,0,3.692c-0.001,0.599-0.263,0.858-0.855,0.872
		c-0.431,0.01-0.932-0.105-1.275,0.076c-0.331,0.174-0.502,0.655-0.741,1.002c-2.765,4.025-5.53,8.05-8.285,12.082
		c-0.12,0.175-0.196,0.415-0.198,0.626c-0.016,1.833-0.018,3.668-0.002,5.501c0.004,0.457-0.167,0.737-0.576,0.94
		c-1.895,0.948-3.778,1.915-5.668,2.878C18.986,38.535,18.842,38.535,18.697,38.535z M10.755,15.449
		c0.458,0.668,0.906,1.255,1.277,1.886c0.287,0.487,0.618,0.727,1.208,0.652c0.459-0.057,0.667,0.138,0.834,0.583
		c0.042,0.113,0.101,0.223,0.122,0.34c0.071,0.382,0.322,0.532,0.659,0.707c0.608,0.317,1.13,0.324,1.702-0.047
		c0.313-0.204,0.65-0.134,0.923,0.138c0.573,0.571,1.146,1.142,1.715,1.715c0.26,0.261,0.305,0.563,0.155,0.897
		c-0.06,0.131-0.11,0.27-0.188,0.391c-0.207,0.32-0.157,0.603-0.037,0.965c0.213,0.648,0.57,1.031,1.238,1.17
		c0.393,0.081,0.563,0.389,0.563,0.781c0.003,0.784,0.002,1.569,0.001,2.353c-0.001,0.393-0.171,0.669-0.556,0.796
		c-0.103,0.034-0.2,0.095-0.306,0.108c-0.363,0.057-0.426,0.272-0.424,0.608c0.015,2.231,0.007,4.465,0.008,6.696
		c0,0.127,0.012,0.252,0.02,0.421c0.149-0.068,0.257-0.114,0.361-0.169c1.193-0.602,2.383-1.214,3.583-1.805
		c0.246-0.12,0.313-0.264,0.312-0.525c-0.013-1.726,0.001-3.45-0.012-5.176c-0.002-0.356,0.095-0.648,0.297-0.94
		c2.797-4.061,5.587-8.128,8.378-12.194c0.071-0.105,0.136-0.215,0.221-0.351C25.453,15.449,18.141,15.449,10.755,15.449z
		 M16.741,32.539c0.06-0.04,0.132-0.076,0.188-0.131c0.165-0.157,0.324-0.322,0.487-0.485c0.427-0.425,0.434-0.429,0.161-0.98
		c-0.153-0.313-0.249-0.604-0.08-0.959c0.249-0.52,0.433-1.069,0.682-1.589c0.097-0.201,0.273-0.479,0.45-0.508
		c0.841-0.137,0.963-0.666,0.853-1.367c-0.009-0.059-0.009-0.121,0-0.182c0.037-0.222-0.07-0.33-0.275-0.385
		c-0.14-0.036-0.271-0.106-0.41-0.141c-0.366-0.091-0.548-0.336-0.669-0.685c-0.174-0.498-0.422-0.971-0.592-1.469
		c-0.079-0.233-0.097-0.511-0.053-0.751c0.054-0.284,0.333-0.578,0.278-0.815c-0.056-0.25-0.411-0.421-0.593-0.659
		c-0.258-0.335-0.513-0.384-0.875-0.152c-0.316,0.204-0.653,0.31-1.053,0.106c-0.501-0.255-1.05-0.418-1.554-0.669
		c-0.218-0.107-0.453-0.299-0.55-0.511c-0.35-0.775-0.328-0.785-1.184-0.785c-0.609,0-0.613-0.001-0.813,0.572
		c-0.113,0.327-0.248,0.608-0.618,0.74c-0.553,0.198-1.082,0.465-1.637,0.66c-0.208,0.073-0.47,0.076-0.688,0.027
		c-0.284-0.064-0.578-0.337-0.818-0.286c-0.248,0.055-0.419,0.413-0.658,0.593c-0.358,0.268-0.381,0.541-0.143,0.906
		c0.203,0.31,0.279,0.643,0.096,1.021c-0.246,0.508-0.415,1.052-0.666,1.557c-0.106,0.218-0.309,0.417-0.514,0.555
		c-0.224,0.148-0.609,0.146-0.728,0.334c-0.134,0.209-0.046,0.558-0.054,0.846c0,0.013,0,0.024,0,0.036
		c0,0.576-0.007,0.599,0.54,0.762c0.467,0.139,0.712,0.417,0.848,0.882c0.129,0.447,0.344,0.87,0.547,1.293
		c0.134,0.278,0.178,0.534,0.049,0.828c-0.34,0.773-0.334,0.775,0.278,1.386c0.43,0.427,0.435,0.438,0.984,0.161
		c0.331-0.167,0.63-0.24,0.992-0.063c0.494,0.243,1.01,0.447,1.527,0.639c0.283,0.103,0.479,0.26,0.585,0.541
		c0.096,0.256,0.137,0.606,0.325,0.733c0.193,0.131,0.534,0.038,0.812,0.044c0.023,0.003,0.047,0.003,0.071,0.003
		c0.574,0,0.596,0.006,0.76-0.548c0.135-0.449,0.391-0.703,0.848-0.834c0.435-0.125,0.859-0.313,1.261-0.528
		c0.356-0.189,0.675-0.217,1.022-0.02C16.344,32.36,16.533,32.44,16.741,32.539z M11.443,8.322
		c-0.002,0.879,0.694,1.592,1.568,1.603c0.871,0.011,1.619-0.735,1.61-1.607c-0.009-0.871-0.723-1.575-1.598-1.575
		C12.143,6.743,11.445,7.438,11.443,8.322z M30.563,9.926c0.35,0,0.7,0.022,1.046-0.011c0.134-0.013,0.312-0.121,0.373-0.237
		c0.343-0.641,0.148-1.446-0.431-1.916c-0.586-0.475-1.406-0.473-1.998,0.005c-0.57,0.461-0.761,1.284-0.416,1.919
		c0.063,0.115,0.245,0.217,0.381,0.229C29.864,9.948,30.215,9.926,30.563,9.926z"/>
	<path fill-rule="evenodd" clip-rule="evenodd" fill="#0077FF" d="M22.173,1.465c0.217,0.064,0.438,0.116,0.651,0.194
		c1.425,0.521,2.239,1.978,1.945,3.469c-0.288,1.458-1.626,2.482-3.16,2.418c-1.412-0.06-2.661-1.223-2.833-2.636
		c-0.183-1.518,0.731-2.897,2.194-3.314c0.138-0.039,0.271-0.086,0.405-0.13C21.642,1.465,21.906,1.465,22.173,1.465z M20.208,4.484
		c-0.012,0.887,0.674,1.602,1.547,1.616c0.891,0.015,1.625-0.694,1.633-1.577c0.007-0.861-0.711-1.593-1.577-1.604
		C20.938,2.908,20.218,3.611,20.208,4.484z"/>
	<path fill-rule="evenodd" clip-rule="evenodd" fill="#0077FF" d="M30.716,1.465c0.438,0.18,0.599,0.514,0.574,0.975
		c-0.021,0.396,0.004,0.795-0.007,1.191c-0.014,0.463-0.319,0.784-0.728,0.784c-0.406,0-0.708-0.326-0.716-0.787
		c-0.007-0.385,0.022-0.772-0.008-1.155c-0.037-0.458,0.113-0.793,0.521-1.008C30.475,1.465,30.595,1.465,30.716,1.465z"/>
	<path fill-rule="evenodd" clip-rule="evenodd" fill="#0077FF" d="M16.162,1.465c0.413,0.212,0.561,0.551,0.522,1.007
		c-0.028,0.347,0.001,0.698-0.009,1.046c-0.012,0.437-0.315,0.749-0.715,0.75c-0.381,0.001-0.703-0.296-0.723-0.71
		c-0.021-0.457-0.013-0.914-0.002-1.371c0.01-0.372,0.251-0.578,0.564-0.721C15.922,1.465,16.043,1.465,16.162,1.465z"/>
	<path fill-rule="evenodd" clip-rule="evenodd" fill="#0077FF" d="M10.66,1.465c0.473,0.36,0.676,1.238,0.4,1.77
		c-0.146,0.282-0.392,0.426-0.709,0.392c-0.328-0.036-0.579-0.223-0.62-0.556c-0.043-0.341-0.072-0.708,0.01-1.035
		c0.056-0.217,0.316-0.383,0.484-0.571C10.371,1.465,10.517,1.465,10.66,1.465z"/>
	<path fill-rule="evenodd" clip-rule="evenodd" fill="#0077FF" d="M21.078,10.651c-0.003-0.403,0.301-0.715,0.699-0.722
		c0.408-0.006,0.747,0.329,0.738,0.729c-0.009,0.385-0.346,0.715-0.727,0.712C21.401,11.368,21.08,11.044,21.078,10.651z"/>
	<path fill-rule="evenodd" clip-rule="evenodd" fill="#0077FF" d="M9.415,28.904c-0.014-0.625,0.231-0.935,0.639-0.979
		c0.409-0.046,0.741,0.228,0.79,0.707c0.051,0.51,0.326,0.822,0.779,0.985c0.491,0.177,0.957,0.097,1.355-0.244
		c0.306-0.262,0.446-0.6,0.308-1.005c-0.161-0.473-0.529-0.694-1.003-0.77c-0.332-0.052-0.676-0.058-0.998-0.145
		c-1.075-0.296-1.825-1.223-1.872-2.268c-0.048-1.074,0.589-2.021,1.65-2.43c0.197-0.074,0.312-0.146,0.339-0.385
		c0.036-0.319,0.354-0.545,0.67-0.556c0.318-0.01,0.634,0.191,0.694,0.52c0.051,0.269,0.197,0.354,0.421,0.449
		c0.899,0.383,1.446,1.06,1.584,2.038c0.063,0.445-0.094,0.758-0.43,0.904c-0.452,0.2-0.955-0.092-0.995-0.61
		c-0.042-0.523-0.31-0.852-0.781-1.022c-0.489-0.178-0.956-0.103-1.355,0.237c-0.525,0.447-0.483,1.207,0.127,1.555
		c0.287,0.163,0.656,0.226,0.995,0.252c1.162,0.093,2.165,0.921,2.396,2.024c0.242,1.16-0.399,2.304-1.57,2.773
		c-0.199,0.078-0.34,0.157-0.404,0.393c-0.085,0.308-0.343,0.463-0.662,0.463c-0.32,0.002-0.579-0.157-0.659-0.463
		c-0.063-0.24-0.206-0.311-0.401-0.393C10.06,30.525,9.498,29.807,9.415,28.904z"/>
</g>
</svg>
