<?xml version="1.0" encoding="utf-8"?>
<!-- Generator: Adobe Illustrator 16.0.0, SVG Export Plug-In . SVG Version: 6.00 Build 0)  -->
<!DOCTYPE svg PUBLIC "-//W3C//DTD SVG 1.1//EN" "http://www.w3.org/Graphics/SVG/1.1/DTD/svg11.dtd">
<svg version="1.1" id="Layer_1" xmlns="http://www.w3.org/2000/svg" xmlns:xlink="http://www.w3.org/1999/xlink" x="0px" y="0px"
	 width="40px" height="40px" viewBox="0 0 40 40" enable-background="new 0 0 40 40" xml:space="preserve">
<g>
	<g>
		<path fill-rule="evenodd" clip-rule="evenodd" fill="#0077FF" d="M19.98,19.232c-2.508,0-5.015,0-7.521,0
			c-0.649,0-0.931-0.284-0.931-0.937c0-1.458-0.001-2.915,0-4.375c0.001-0.581,0.299-0.883,0.881-0.883c5.056,0,10.114,0,15.169,0
			c0.599,0,0.896,0.297,0.896,0.897c0,1.466,0,2.933,0,4.4c0,0.599-0.299,0.897-0.896,0.897
			C25.046,19.232,22.513,19.232,19.98,19.232z M13.075,17.677c4.631,0,9.237,0,13.841,0c0-1.043,0-2.069,0-3.089
			c-4.625,0-9.227,0-13.841,0C13.075,15.621,13.075,16.641,13.075,17.677z"/>
		<path fill-rule="evenodd" clip-rule="evenodd" fill="#0077FF" d="M16.135,26.963c-1.235,0-2.472,0-3.707-0.002
			c-0.602,0-0.898-0.295-0.899-0.89c-0.001-1.477-0.001-2.951,0-4.425c0.001-0.578,0.303-0.878,0.885-0.878
			c2.48-0.003,4.962-0.003,7.442,0c0.583,0,0.887,0.3,0.887,0.878c0.001,1.482,0.001,2.966,0,4.448c0,0.562-0.309,0.866-0.873,0.866
			C18.625,26.963,17.38,26.963,16.135,26.963z M13.075,25.407c2.053,0,4.086,0,6.11,0c0-1.043,0-2.068,0-3.09
			c-2.046,0-4.072,0-6.11,0C13.075,23.35,13.075,24.37,13.075,25.407z"/>
		<path fill-rule="evenodd" clip-rule="evenodd" fill="#0077FF" d="M28.474,23.863c0,0.75,0,1.501,0,2.249
			c-0.004,0.532-0.316,0.849-0.842,0.849c-1.509,0.002-3.016,0.002-4.526,0c-0.51-0.001-0.825-0.319-0.827-0.833
			c-0.001-1.508-0.001-3.018,0-4.525c0.002-0.516,0.316-0.833,0.825-0.834c1.518-0.003,3.035-0.003,4.553,0
			c0.496,0.001,0.813,0.321,0.813,0.819C28.477,22.346,28.474,23.105,28.474,23.863z M23.831,22.315c0,1.046,0,2.071,0,3.09
			c1.045,0,2.071,0,3.092,0c0-1.039,0-2.059,0-3.09C25.889,22.315,24.87,22.315,23.831,22.315z"/>
	</g>
	<g>
		<path fill="#0077FF" d="M20,4.122c2.567,0,5.089,0.626,7.348,1.806l-1.124,1.551l5.157,0.535l-2.114-4.734l-1.15,1.588
			C25.629,3.532,22.842,2.822,20,2.822C10.527,2.822,2.821,10.528,2.821,20c0,3.21,0.891,6.341,2.578,9.056
			c0.123,0.198,0.335,0.308,0.553,0.308c0.117,0,0.236-0.032,0.342-0.099c0.305-0.189,0.399-0.59,0.209-0.895
			C4.944,25.861,4.121,22.967,4.121,20C4.121,11.245,11.244,4.122,20,4.122z"/>
		<path fill="#0077FF" d="M35.156,11.906c-0.169-0.316-0.562-0.436-0.88-0.267c-0.316,0.169-0.436,0.563-0.267,0.88
			c1.223,2.285,1.869,4.871,1.869,7.481c0,8.756-7.123,15.879-15.879,15.879c-1.921,0-3.782-0.356-5.555-1.021l0.918-1.664
			l-5.184,0.103l2.68,4.438l0.953-1.728c1.972,0.764,4.047,1.172,6.188,1.172c9.473,0,17.18-7.707,17.18-17.18
			C37.18,17.177,36.479,14.378,35.156,11.906z"/>
	</g>
</g>
</svg>
