<?xml version="1.0" encoding="utf-8"?>
<!-- Generator: Adobe Illustrator 16.0.0, SVG Export Plug-In . SVG Version: 6.00 Build 0)  -->
<!DOCTYPE svg PUBLIC "-//W3C//DTD SVG 1.1//EN" "http://www.w3.org/Graphics/SVG/1.1/DTD/svg11.dtd">
<svg version="1.1" id="Layer_1" xmlns="http://www.w3.org/2000/svg" xmlns:xlink="http://www.w3.org/1999/xlink" x="0px" y="0px"
	 width="40px" height="40px" viewBox="0 0 40 40" enable-background="new 0 0 40 40" xml:space="preserve">
<g>
	<path fill="#0077FF" d="M31.872,36.661c-0.572-0.843-0.979-1.749-1.208-2.692c-0.198-0.831-0.36-1.688-0.517-2.516
		c-0.056-0.297-0.111-0.594-0.17-0.891c-0.105-0.522-0.44-0.797-0.877-0.723c-0.429,0.072-0.656,0.432-0.595,0.938l0.019,0.142
		c0.043,0.344,0.089,0.699,0.15,1.049c0.288,1.646,0.725,3.551,1.77,5.24H16.696c-0.406-1.361-1.095-2.62-2.05-3.746
		c0.504-0.17,0.967-0.327,1.428-0.485c1.063-0.374,2.173-0.812,3.038-1.684c0.53-0.531,0.811-1.158,0.835-1.861
		c0.016-0.48-0.248-0.811-0.672-0.841c-0.442-0.037-0.759,0.246-0.8,0.716c-0.036,0.432-0.185,0.747-0.456,0.965
		c-0.352,0.284-0.7,0.554-1.08,0.731c-0.646,0.304-1.336,0.546-1.945,0.759l-0.993,0.347c-2.062,0.723-4.193,1.47-6.36,1.974
		c-0.578,0.136-1.036-0.108-1.236-0.659c-0.181-0.496-0.203-1.01-0.068-1.568c0.29-1.215-0.053-2.001-1.147-2.628
		c-0.01-0.006-0.021-0.013-0.03-0.021c0.027-0.055,0.053-0.106,0.083-0.155c0.362-0.576,0.304-0.879-0.245-1.295l-0.486-0.38
		c0.03-0.058,0.06-0.114,0.089-0.17c0.092-0.176,0.18-0.342,0.257-0.514c0.51-1.123,0.191-2.115-0.874-2.724
		c-0.084-0.05-0.169-0.095-0.254-0.14c-0.086-0.045-0.172-0.09-0.255-0.14l-0.082-0.049c-0.362-0.215-0.602-0.356-0.618-0.444
		c-0.012-0.066,0.109-0.22,0.263-0.415c0.052-0.065,0.111-0.14,0.174-0.223c1.162-1.512,2.161-3.126,2.97-4.798
		c0.3-0.622,0.272-1.219-0.082-1.776c-0.142-0.225-0.345-0.454-0.621-0.698c-0.569-0.505-0.603-0.535-0.288-1.223
		c0.481-1.053,0.847-2.134,1.087-3.212c0.099-0.449,0.256-0.928,0.465-1.424c1.051-2.506,2.552-4.11,4.587-4.904
		c1.171-0.457,2.404-0.765,3.457-1.006c1.962-0.447,3.89-0.698,5.728-0.746c0.586-0.016,1.187,0.044,1.767,0.101
		c0.215,0.021,0.43,0.042,0.645,0.06c0.472,0.042,0.823-0.202,0.893-0.605c0.076-0.413-0.185-0.759-0.65-0.86
		c-0.095-0.021-0.19-0.034-0.288-0.047l-1.063-0.152l-2.05,0.001c-0.193,0.022-0.388,0.042-0.583,0.062
		c-0.425,0.042-0.865,0.086-1.292,0.165c-0.484,0.089-0.969,0.173-1.455,0.258c-1.389,0.241-2.826,0.491-4.209,0.857
		C8.624,3.564,6.19,6.033,4.995,9.945c-0.085,0.277-0.167,0.555-0.25,0.833c-0.298,1.007-0.607,2.048-1.051,3.026
		c-0.392,0.864-0.186,1.718,0.581,2.406l0.029,0.026C5.02,16.88,5.02,16.88,4.731,17.352c-0.058,0.095-0.126,0.207-0.202,0.34
		c-0.508,0.896-1.08,1.777-1.634,2.629c-0.267,0.41-0.533,0.82-0.794,1.234c-0.187,0.297-0.366,0.6-0.545,0.902
		c-0.091,0.153-0.181,0.307-0.273,0.459l-0.018,0.029v0.545l0.008,0.045c0.299,0.77,0.943,1.187,1.594,1.522
		c0.43,0.222,0.673,0.375,0.727,0.551c0.053,0.174-0.064,0.438-0.301,0.867c-0.022,0.043-0.045,0.082-0.07,0.124
		c-0.525,0.954-0.458,1.304,0.381,1.97l0.108,0.086c-0.01,0.042-0.021,0.084-0.031,0.125c-0.039,0.156-0.079,0.317-0.101,0.479
		c-0.062,0.44,0.112,0.802,0.502,1.044c0.113,0.071,0.229,0.142,0.343,0.208c0.554,0.328,0.604,0.446,0.451,1.046
		c-0.213,0.836-0.158,1.651,0.166,2.493c0.371,0.96,1.246,1.581,2.229,1.581c0.206,0,0.412-0.028,0.614-0.084
		c1.567-0.43,3.147-0.913,4.675-1.381l0.19-0.059c0.25-0.077,0.37-0.06,0.48,0.077c0.11,0.135,0.224,0.268,0.338,0.4
		c0.311,0.363,0.632,0.739,0.858,1.149c0.239,0.435,0.424,0.915,0.602,1.379c0.106,0.277,0.217,0.563,0.338,0.84
		c0.081,0.186,0.197,0.351,0.309,0.51c0.05,0.071,0.1,0.142,0.146,0.214l0.037,0.058h13.312l0.068-0.017
		c0.048-0.012,0.094-0.022,0.13-0.024l0.665-0.001c0.542,0,1.085-0.001,1.628-0.012c0.3-0.007,0.539-0.125,0.674-0.332
		c0.134-0.203,0.146-0.465,0.034-0.736C32.229,37.258,32.061,36.938,31.872,36.661z"/>
	<path fill="#0077FF" d="M38.713,13.533c-0.171-0.252-0.382-0.485-0.767-0.485l-0.315,0.001l-0.825-0.002
		c-0.214,0-0.427,0.001-0.641,0.006c-0.46,0.009-0.788,0.326-0.781,0.751c0.004,0.423,0.332,0.723,0.798,0.73
		c0.09,0.001,0.179,0.002,0.269,0.002c0.001,0,0.002,0,0.003,0l0.781-0.004c0.193,0,0.386,0.002,0.578,0.01l0.059,0.001
		c0.396,0,0.675-0.17,0.85-0.521l0.014-0.458L38.713,13.533z"/>
	<path fill="#0077FF" d="M25.465,3.744c0.003,0.531,0.282,0.865,0.728,0.873h0.014c0.447,0,0.739-0.35,0.744-0.892
		c0.002-0.193,0-0.386-0.002-0.579c-0.003-0.297-0.006-0.604,0.008-0.904c0.022-0.439-0.14-0.753-0.496-0.959l-0.029-0.017h-0.397
		l-0.055,0.013c-0.368,0.181-0.538,0.478-0.521,0.908c0.015,0.338,0.012,0.684,0.009,1.018C25.466,3.384,25.464,3.563,25.465,3.744z
		 M26.206,4.489L26.206,4.489v0.002V4.489z"/>
	<path fill="#0077FF" d="M26.219,5.617c-1.592,0-3.17,0.501-4.563,1.449c-2.232,1.517-3.561,3.969-3.646,6.728
		c-0.086,2.778,1.101,5.327,3.255,6.994c0.473,0.367,1.086,0.857,1.638,1.406c0.192,0.19,0.337,0.435,0.49,0.692
		c0.05,0.085,0.101,0.17,0.153,0.255c-0.714,0.382-1.074,0.85-1.132,1.463c-0.073,0.74-0.069,1.387,0.012,1.978
		c0.053,0.385,0.329,0.736,0.575,1.049c0.278,0.35,0.608,0.835,0.699,1.148c0.321,1.112,1.355,1.89,2.514,1.89
		c0.082,0,0.164-0.004,0.247-0.012c1.229-0.114,2.213-1.116,2.339-2.381c0.013-0.115,0.088-0.26,0.155-0.298
		c0.714-0.404,1.083-1.029,1.097-1.858c0.001-0.094,0-0.188-0.001-0.282c-0.002-0.147-0.004-0.295,0.004-0.439
		c0.063-1.056-0.324-1.792-1.18-2.248c0.039-0.071,0.076-0.142,0.114-0.212c0.12-0.228,0.233-0.442,0.39-0.603
		c0.467-0.476,0.991-0.942,1.559-1.386c2.953-2.304,4.026-5.328,3.19-8.988C33.289,8.286,29.963,5.617,26.219,5.617z M28.197,14.384
		c0.02-0.267,0.205-0.443,0.471-0.451l0.014-0.123l0,0v0.123c0.255,0,0.458,0.173,0.493,0.419c0.034,0.252-0.131,0.487-0.375,0.534
		c-0.147,0.028-0.299,0.031-0.475,0.034c-0.043,0.001-0.087,0.002-0.132,0.003c0-0.041-0.001-0.08-0.002-0.118
		C28.189,14.651,28.187,14.518,28.197,14.384z M25.733,22.953v-6.544l0.203,0l0.599,0c0.047,0.001,0.094,0.004,0.146,0.009v6.535
		H25.733z M24.225,14.86v0.044c-0.048,0.001-0.093,0.002-0.137,0.004c-0.071,0.002-0.139,0.004-0.203,0.004
		c-0.081,0-0.158-0.003-0.234-0.015c-0.276-0.039-0.441-0.251-0.41-0.53c0.029-0.26,0.168-0.4,0.426-0.43
		c0.024-0.003,0.048-0.004,0.071-0.004c0.238,0,0.418,0.159,0.469,0.414c0.012,0.06,0.014,0.121,0.016,0.182l0.002,0.049
		C24.226,14.67,24.225,14.761,24.225,14.86z M24.4,24.477c0.246-0.004,0.493-0.005,0.74-0.005l1.038,0.002l1.059-0.002
		c0.251,0,0.503,0.001,0.755,0.005c0.385,0.003,0.547,0.16,0.561,0.544c0.013,0.37,0.013,0.746,0,1.116
		c-0.011,0.381-0.186,0.561-0.551,0.563c-1.196,0.006-2.395,0.005-3.593,0c-0.367-0.003-0.552-0.185-0.563-0.554
		c-0.011-0.354-0.012-0.729-0.003-1.116C23.854,24.657,24.03,24.481,24.4,24.477z M28.335,21.134l-0.128,0.106v-4.835
		c0.029,0,0.06,0.001,0.089,0.001c0.156,0.002,0.313,0.005,0.469-0.004c1.063-0.066,1.88-0.896,1.9-1.931
		c0.02-1.007-0.719-1.891-1.681-2.012c-1.108-0.137-2.035,0.526-2.241,1.563c-0.044,0.222-0.047,0.444-0.051,0.68
		c-0.001,0.062-0.002,0.124-0.004,0.188h-0.976v-0.021c0-0.097,0.001-0.191-0.001-0.284c-0.007-1.262-0.824-2.144-1.99-2.145
		c-1.099,0-1.968,0.861-1.979,1.961c-0.003,0.572,0.211,1.085,0.602,1.447c0.394,0.364,0.935,0.558,1.563,0.562h0.29v5.028
		c-0.188-0.172-0.374-0.345-0.561-0.518c-0.47-0.438-0.957-0.891-1.462-1.306c-2.216-1.82-3.063-4.141-2.515-6.897
		c0.559-2.811,2.288-4.676,5.001-5.395c0.586-0.155,1.164-0.233,1.719-0.233c1.842,0,3.487,0.845,4.893,2.511
		c2.17,2.569,2.165,6.452-0.012,9.032c-0.271,0.321-0.607,0.604-0.934,0.878l-0.196,0.167c-0.218,0.189-0.452,0.371-0.679,0.547
		c-0.142,0.11-0.284,0.22-0.424,0.334C28.79,20.752,28.553,20.951,28.335,21.134z M27.27,28.21c-0.005,0.204-0.08,0.404-0.218,0.572
		c-0.18,0.221-0.449,0.363-0.74,0.392c-0.614,0.055-1.084-0.346-1.191-0.964H27.27z"/>
	<path fill="#0077FF" d="M8.408,12.528c0.062-0.194,0.106-0.394,0.149-0.587c0.027-0.123,0.055-0.247,0.087-0.37
		c0.422-1.654,1.146-2.922,2.211-3.877c0.649-0.581,1.468-1.008,2.502-1.305c0.431-0.125,0.655-0.494,0.545-0.899
		c-0.114-0.421-0.499-0.641-0.941-0.523c-1.519,0.403-2.768,1.151-3.71,2.224c-1.169,1.328-1.913,2.978-2.273,5.059
		c-0.021,0.36,0.214,0.678,0.56,0.755c0.062,0.014,0.125,0.021,0.187,0.021C8.049,13.024,8.312,12.834,8.408,12.528z"/>
	<path fill="#0077FF" d="M34.064,4.899c-0.466,0.438-0.959,0.909-1.409,1.428c-0.155,0.179-0.171,0.542-0.088,0.757
		c0.063,0.159,0.212,0.262,0.356,0.362c0.054,0.038,0.107,0.075,0.154,0.115l0.063,0.052l0.073-0.036
		c0.067-0.033,0.13-0.059,0.188-0.083c0.127-0.052,0.236-0.098,0.325-0.182c0.54-0.516,0.973-0.949,1.364-1.364
		c0.275-0.296,0.262-0.736-0.033-1.024C34.779,4.655,34.343,4.639,34.064,4.899z"/>
	<path fill="#0077FF" d="M18.404,4.956c-0.089-0.085-0.199-0.138-0.325-0.199c-0.063-0.03-0.131-0.063-0.206-0.105l-0.077-0.042
		L17.73,4.667c-0.052,0.045-0.107,0.088-0.161,0.131c-0.133,0.104-0.271,0.21-0.366,0.354c-0.172,0.262-0.117,0.571,0.151,0.847
		c0.495,0.509,0.883,0.897,1.258,1.259c0.18,0.176,0.384,0.269,0.589,0.269c0.192,0,0.372-0.082,0.518-0.235
		c0.291-0.304,0.27-0.748-0.053-1.079C19.176,5.707,18.775,5.308,18.404,4.956z"/>
	<path fill="#0077FF" d="M14.427,14.533c0.124,0.004,0.247,0.006,0.371,0.006l0.542-0.003l0.571,0.003
		c0.113,0,0.227-0.001,0.34-0.005c0.46-0.015,0.751-0.29,0.761-0.717c0.012-0.43-0.292-0.75-0.725-0.764
		c-0.632-0.016-1.266-0.017-1.896,0.003c-0.204,0.007-0.387,0.087-0.515,0.227c-0.133,0.145-0.2,0.341-0.19,0.556
		C13.706,14.246,13.997,14.518,14.427,14.533z"/>
	<path fill="#0077FF" d="M6.952,13.683L6.952,13.683c-0.199,0.004-0.391,0.092-0.527,0.239s-0.206,0.334-0.195,0.529
		c0.021,0.386,0.361,0.712,0.744,0.712c0.195,0,0.378-0.077,0.517-0.217c0.143-0.144,0.22-0.334,0.218-0.539
		C7.702,13.994,7.385,13.683,6.952,13.683z"/>
</g>
</svg>
