<?xml version="1.0" encoding="utf-8"?>
<!-- Generator: Adobe Illustrator 16.0.3, SVG Export Plug-In . SVG Version: 6.00 Build 0)  -->
<!DOCTYPE svg PUBLIC "-//W3C//DTD SVG 1.1//EN" "http://www.w3.org/Graphics/SVG/1.1/DTD/svg11.dtd">
<svg version="1.1" id="Layer_1" xmlns="http://www.w3.org/2000/svg" xmlns:xlink="http://www.w3.org/1999/xlink" x="0px" y="0px"
	 width="38px" height="38px" viewBox="0 0 38 38" enable-background="new 0 0 38 38" xml:space="preserve">
<g>
	<path fill="#224653" stroke="#224653" stroke-width="0.215" stroke-miterlimit="10" d="M23.279,23.994h-8.559
		c-1.182,0-2.141-0.96-2.141-2.142v-5.706c0-1.181,0.959-2.14,2.141-2.14h8.559c1.183,0,2.142,0.959,2.142,2.14v5.706
		C25.421,23.034,24.462,23.994,23.279,23.994z M14.721,15.434c-0.395,0-0.714,0.318-0.714,0.713v5.706
		c0,0.395,0.319,0.714,0.714,0.714h8.559c0.395,0,0.715-0.319,0.715-0.714v-5.706c0-0.395-0.32-0.713-0.715-0.713H14.721z"/>
	<path fill="#224653" stroke="#224653" stroke-width="0.215" stroke-miterlimit="10" d="M23.279,36.833h-8.559
		c-1.182,0-2.141-0.956-2.141-2.139v-5.708c0-1.183,0.959-2.141,2.141-2.141h8.559c1.183,0,2.142,0.958,2.142,2.141v5.708
		C25.421,35.877,24.462,36.833,23.279,36.833z M14.721,28.273c-0.395,0-0.714,0.319-0.714,0.713v5.708
		c0,0.394,0.319,0.713,0.714,0.713h8.559c0.395,0,0.715-0.319,0.715-0.713v-5.708c0-0.394-0.32-0.713-0.715-0.713H14.721z"/>
	<path fill="#224653" stroke="#224653" stroke-width="0.215" stroke-miterlimit="10" d="M23.279,11.153h-8.559
		c-1.182,0-2.141-0.958-2.141-2.141V3.307c0-1.183,0.959-2.14,2.141-2.14h8.559c1.183,0,2.142,0.957,2.142,2.14v5.706
		C25.421,10.195,24.462,11.153,23.279,11.153z M14.721,2.593c-0.395,0-0.714,0.32-0.714,0.714v5.706
		c0,0.395,0.319,0.714,0.714,0.714h8.559c0.395,0,0.715-0.319,0.715-0.714V3.307c0-0.394-0.32-0.714-0.715-0.714H14.721z"/>
	<path fill="#224653" stroke="#224653" stroke-width="0.215" stroke-miterlimit="10" d="M21.854,5.446H19
		c-0.393,0-0.713-0.319-0.713-0.713c0-0.395,0.32-0.714,0.713-0.714h2.854c0.394,0,0.713,0.319,0.713,0.714
		C22.566,5.127,22.247,5.446,21.854,5.446z"/>
	<circle fill="#224653" stroke="#224653" stroke-width="0.215" stroke-miterlimit="10" cx="16.146" cy="4.733" r="0.713"/>
	<path fill="#224653" stroke="#224653" stroke-width="0.215" stroke-miterlimit="10" d="M21.854,18.286H19
		c-0.393,0-0.713-0.319-0.713-0.713c0-0.393,0.32-0.713,0.713-0.713h2.854c0.394,0,0.713,0.32,0.713,0.713
		C22.566,17.967,22.247,18.286,21.854,18.286z"/>
	<circle fill="#224653" stroke="#224653" stroke-width="0.215" stroke-miterlimit="10" cx="16.146" cy="17.573" r="0.713"/>
	<path fill="#224653" stroke="#224653" stroke-width="0.215" stroke-miterlimit="10" d="M18.287,34.158
		c-0.19,0.003-0.372-0.074-0.507-0.206l-1.783-1.783c-0.288-0.281-0.294-0.739-0.015-1.026c0.279-0.29,0.74-0.296,1.027-0.015l0,0
		l1.277,1.311L20.99,29.7c0.28-0.28,0.733-0.28,1.014,0c0.278,0.28,0.278,0.733,0,1.014l-3.21,3.265
		C18.654,34.102,18.473,34.167,18.287,34.158z"/>
	<path fill="#224653" stroke="#224653" stroke-width="0.215" stroke-miterlimit="10" d="M29.699,19.713h-2.139
		c-0.395,0-0.715-0.318-0.715-0.713s0.32-0.714,0.715-0.714h2.139c3.153,0,5.708-2.555,5.708-5.706c0-3.152-2.555-5.707-5.708-5.707
		h-4.993c-0.395,0-0.712-0.319-0.712-0.713c0-0.395,0.317-0.714,0.712-0.714h4.993c3.939,0,7.134,3.194,7.134,7.134
		C36.833,16.521,33.639,19.713,29.699,19.713z"/>
	<path fill="#224653" stroke="#224653" stroke-width="0.215" stroke-miterlimit="10" d="M29.345,21.496
		c-0.191,0.002-0.373-0.073-0.508-0.207l-1.782-1.783c-0.282-0.276-0.282-0.729-0.006-1.009c0.003,0,0.003-0.003,0.006-0.003
		l1.782-1.783c0.278-0.281,0.733-0.281,1.012,0c0.282,0.278,0.282,0.733,0,1.012l0,0L28.564,19l1.284,1.277
		c0.282,0.276,0.282,0.728,0.006,1.009c-0.003,0-0.003,0.002-0.006,0.003C29.714,21.423,29.532,21.498,29.345,21.496z"/>
	<path fill="#224653" stroke="#224653" stroke-width="0.215" stroke-miterlimit="10" d="M10.439,32.554H8.3
		c-3.938,0-7.133-3.195-7.133-7.135s3.194-7.133,7.133-7.133h4.994c0.395,0,0.713,0.319,0.713,0.714s-0.318,0.713-0.713,0.713H8.3
		c-3.151,0-5.706,2.556-5.706,5.706c0,3.153,2.555,5.709,5.706,5.709h2.14c0.395,0,0.715,0.319,0.715,0.713
		C11.154,32.233,10.834,32.554,10.439,32.554z"/>
	<path fill="#224653" stroke="#224653" stroke-width="0.215" stroke-miterlimit="10" d="M8.656,34.337
		c-0.188,0-0.371-0.073-0.506-0.206c-0.28-0.278-0.281-0.729-0.004-1.009c0.001-0.003,0.003-0.003,0.004-0.006l1.285-1.275
		L8.15,30.564c-0.28-0.282-0.28-0.733,0-1.016c0.279-0.278,0.733-0.278,1.012,0l1.784,1.784c0.279,0.278,0.281,0.73,0.006,1.009
		c-0.003,0.003-0.003,0.003-0.006,0.006l-1.784,1.783C9.029,34.264,8.846,34.337,8.656,34.337z"/>
	<path fill="#224653" stroke="#224653" stroke-width="0.215" stroke-miterlimit="10" d="M8.656,8.656
		C8.468,8.658,8.285,8.583,8.15,8.45C7.87,8.173,7.869,7.721,8.146,7.44C8.147,7.439,8.149,7.438,8.15,7.437L9.436,6.16L8.15,4.883
		c-0.28-0.28-0.28-0.733,0-1.013c0.279-0.28,0.733-0.28,1.012,0l0,0l1.784,1.783c0.279,0.277,0.281,0.729,0.006,1.009
		c-0.003,0.001-0.003,0.003-0.006,0.004L9.162,8.45C9.029,8.583,8.846,8.658,8.656,8.656z"/>
	<path fill="#224653" stroke="#224653" stroke-width="0.215" stroke-miterlimit="10" d="M10.439,6.873H1.88
		c-0.394,0-0.713-0.319-0.713-0.713c0-0.395,0.319-0.714,0.713-0.714h8.56c0.395,0,0.715,0.319,0.715,0.714
		C11.154,6.554,10.834,6.873,10.439,6.873z"/>
	<path fill="#224653" stroke="#224653" stroke-width="0.215" stroke-miterlimit="10" d="M21.854,8.3h-5.707
		c-0.394,0-0.713-0.319-0.713-0.713s0.319-0.714,0.713-0.714h5.707c0.394,0,0.713,0.32,0.713,0.714S22.247,8.3,21.854,8.3z"/>
	<path fill="#224653" stroke="#224653" stroke-width="0.215" stroke-miterlimit="10" d="M21.854,21.14h-5.707
		c-0.394,0-0.713-0.319-0.713-0.713c0-0.395,0.319-0.714,0.713-0.714h5.707c0.394,0,0.713,0.319,0.713,0.714
		C22.566,20.82,22.247,21.14,21.854,21.14z"/>
</g>
</svg>
