<?xml version="1.0" encoding="utf-8"?>
<!-- Generator: Adobe Illustrator 16.0.3, SVG Export Plug-In . SVG Version: 6.00 Build 0)  -->
<!DOCTYPE svg PUBLIC "-//W3C//DTD SVG 1.1//EN" "http://www.w3.org/Graphics/SVG/1.1/DTD/svg11.dtd">
<svg version="1.1" id="Layer_1" xmlns="http://www.w3.org/2000/svg" xmlns:xlink="http://www.w3.org/1999/xlink" x="0px" y="0px"
	 width="38px" height="38px" viewBox="0 0 38 38" enable-background="new 0 0 38 38" xml:space="preserve">
<g>
	<path fill="#224653" d="M34.465,16.04c-1.324,0-2.453,0.896-2.803,2.104h-5.025V14.91h2.766c0.467,0,0.855-0.39,0.855-0.857V10.78
		c0.469-0.156,0.896-0.351,1.25-0.74c0.543-0.545,0.855-1.286,0.855-2.065c0-1.636-1.324-2.961-2.961-2.961
		s-2.961,1.325-2.961,2.961c0,1.325,0.895,2.455,2.104,2.805v2.416h-2.182c-0.467-1.129-1.596-1.948-2.922-1.948H19.7V8.131
		c1.21-0.351,2.104-1.48,2.104-2.805c0-1.637-1.324-2.961-2.96-2.961c-1.637,0-2.961,1.325-2.961,2.961
		c0,1.325,0.896,2.454,2.104,2.805v3.116h-3.741c-1.324,0-2.453,0.819-2.921,1.948H9.142V10.78c1.209-0.351,2.105-1.48,2.105-2.805
		c0-1.636-1.325-2.961-2.961-2.961c-1.637,0-2.961,1.325-2.961,2.961c0,1.325,0.896,2.455,2.104,2.805v3.273
		c0,0.467,0.389,0.857,0.857,0.857h2.766v3.233H6.181c-0.35-1.208-1.48-2.104-2.804-2.104c-1.637,0-2.961,1.325-2.961,2.961
		c0,1.636,1.325,2.961,2.961,2.961c1.324,0,2.454-0.896,2.804-2.104h5.026v3.233H8.441c-0.468,0-0.856,0.391-0.856,0.858v3.312
		C6.376,27.611,5.48,28.74,5.48,30.064c0,1.637,1.324,2.961,2.961,2.961c1.637,0,2.961-1.324,2.961-2.961
		c0-1.324-0.896-2.453-2.104-2.804v-2.455h2.182c0.468,1.13,1.597,1.947,2.922,1.947h3.741v3.118
		c-1.209,0.351-2.105,1.479-2.105,2.804c0,1.637,1.326,2.961,2.961,2.961c1.637,0,2.961-1.324,2.961-2.961
		c0-1.324-0.896-2.453-2.104-2.804v-3.118h3.741c1.324,0,2.453-0.817,2.92-1.947h2.184v2.455c-1.209,0.351-2.105,1.479-2.105,2.804
		c0,1.637,1.326,2.961,2.961,2.961c1.637,0,2.961-1.324,2.961-2.961c0-1.324-0.895-2.453-2.102-2.804v-3.312
		c0-0.468-0.391-0.858-0.859-0.858h-2.766v-3.233h5.027c0.35,1.208,1.48,2.104,2.805,2.104c1.635,0,2.961-1.325,2.961-2.961
		C37.428,17.326,36.104,16.04,34.465,16.04z M28.156,7.975c0-0.701,0.582-1.247,1.246-1.247c0.701,0,1.246,0.584,1.246,1.247
		c0,0.351-0.154,0.663-0.35,0.896c-0.234,0.234-0.547,0.351-0.896,0.351C28.738,9.222,28.156,8.676,28.156,7.975z M17.675,5.326
		c0-0.702,0.584-1.247,1.247-1.247c0.701,0,1.246,0.583,1.246,1.247c0,0.701-0.584,1.247-1.246,1.247
		C18.221,6.611,17.675,6.027,17.675,5.326z M7.156,7.975c0-0.701,0.584-1.247,1.247-1.247c0.702,0,1.247,0.584,1.247,1.247
		c0,0.701-0.584,1.247-1.247,1.247S7.156,8.676,7.156,7.975z M3.377,20.247c-0.702,0-1.248-0.584-1.248-1.246
		c0-0.663,0.584-1.247,1.248-1.247c0.662,0,1.247,0.583,1.247,1.247C4.624,19.663,4.039,20.247,3.377,20.247z M9.688,29.986
		c0,0.703-0.583,1.247-1.247,1.247c-0.701,0-1.247-0.584-1.247-1.247c0-0.701,0.584-1.246,1.247-1.246
		C9.104,28.74,9.688,29.325,9.688,29.986z M20.168,32.597c0,0.701-0.584,1.247-1.246,1.247c-0.701,0-1.247-0.546-1.247-1.247
		c0-0.7,0.584-1.246,1.247-1.246C19.623,31.313,20.168,31.896,20.168,32.597z M30.688,29.986c0,0.703-0.584,1.247-1.246,1.247
		c-0.703,0-1.246-0.584-1.246-1.247c0-0.701,0.584-1.246,1.246-1.246S30.688,29.325,30.688,29.986z M24.961,23.521
		c0,0.817-0.662,1.48-1.48,1.48h-9.117c-0.819,0-1.481-0.663-1.481-1.48v-9.117c0-0.818,0.662-1.481,1.481-1.481h9.156
		c0.818,0,1.48,0.663,1.48,1.481v9.117H24.961z M34.465,20.247c-0.699,0-1.246-0.584-1.246-1.246c0-0.663,0.586-1.247,1.246-1.247
		c0.705,0,1.25,0.583,1.25,1.247C35.715,19.663,35.17,20.247,34.465,20.247z"/>
	<path fill="#224653" d="M21.025,16.507l-2.922,3.079l-1.324-1.364c-0.312-0.351-0.857-0.351-1.208-0.04
		c-0.352,0.312-0.352,0.857-0.039,1.208l1.909,2.026c0.156,0.156,0.389,0.273,0.623,0.273s0.467-0.078,0.624-0.273l3.546-3.74
		c0.311-0.35,0.311-0.857-0.039-1.208C21.883,16.157,21.338,16.195,21.025,16.507z"/>
</g>
</svg>
