<?xml version="1.0" encoding="utf-8"?>
<!-- Generator: Adobe Illustrator 16.0.3, SVG Export Plug-In . SVG Version: 6.00 Build 0)  -->
<!DOCTYPE svg PUBLIC "-//W3C//DTD SVG 1.1//EN" "http://www.w3.org/Graphics/SVG/1.1/DTD/svg11.dtd">
<svg version="1.1" id="Layer_1" xmlns="http://www.w3.org/2000/svg" xmlns:xlink="http://www.w3.org/1999/xlink" x="0px" y="0px"
	 width="38px" height="38px" viewBox="0 0 38 38" enable-background="new 0 0 38 38" xml:space="preserve">
<path fill="#224653" stroke="#224653" stroke-width="0.25" stroke-miterlimit="10" d="M30.705,24.423
	c-0.368-0.368-0.962-0.369-1.331-0.003c-0.001,0.001-0.002,0.003-0.002,0.003l-1.05,1.05l-2.813-2.813
	c3.078-3.588,3.853-8.612,1.999-12.961l3.638-3.638v1.732c0,0.52,0.422,0.942,0.941,0.942s0.941-0.422,0.941-0.942V3.788
	c0-0.52-0.422-0.942-0.941-0.942h-4.002c-0.52,0-0.942,0.422-0.942,0.942c0,0.52,0.423,0.941,0.942,0.941h1.732l-3.22,3.219
	C22.88,2.179,15.19,0.517,9.421,4.234C4.244,7.57,2.292,14.195,4.833,19.806L1.019,23.62c-0.368,0.368-0.368,0.964,0,1.334
	c0.368,0.367,0.965,0.367,1.333,0l3.445-3.447c0.442,0.663,0.946,1.28,1.506,1.847l0,0c4.594,4.583,11.94,4.86,16.866,0.636
	l2.813,2.813l-1.052,1.05c-0.367,0.368-0.367,0.963,0,1.331c0,0.001,0,0.002,0,0.002l5.594,5.58c1.313,1.311,3.438,1.311,4.751,0
	l0,0c1.311-1.313,1.311-3.438,0-4.752L30.705,24.423z M23.525,22.02c-4.116,4.108-10.781,4.108-14.896,0l0,0
	c-4.121-4.113-4.128-10.789-0.015-14.91c4.113-4.121,10.789-4.128,14.911-0.014c4.12,4.113,4.127,10.789,0.014,14.911
	C23.535,22.01,23.53,22.016,23.525,22.02z M34.956,33.421L34.956,33.421c-0.577,0.576-1.513,0.576-2.09,0l-4.895-4.895l2.102-2.102
	l4.914,4.896c0.571,0.584,0.561,1.52-0.021,2.092C34.963,33.416,34.96,33.419,34.956,33.421z M23.784,13.42l-4.349,4.353
	c-0.366,0.368-0.964,0.369-1.331,0.001c0,0,0-0.001-0.002-0.001l-2.485-2.479l-1.811-1.811L10.12,17.17
	c-0.368,0.368-0.966,0.368-1.333,0c-0.369-0.368-0.369-0.965,0-1.333l4.364-4.349c0.367-0.368,0.963-0.369,1.331-0.002
	c0.001,0.001,0.001,0.001,0.002,0.002l2.478,2.477l1.811,1.812l3.686-3.686c0.369-0.369,0.966-0.369,1.333,0
	c0.369,0.368,0.369,0.965,0,1.333L23.784,13.42z"/>
</svg>
