<?xml version="1.0" encoding="utf-8"?>
<!-- Generator: Adobe Illustrator 16.0.3, SVG Export Plug-In . SVG Version: 6.00 Build 0)  -->
<!DOCTYPE svg PUBLIC "-//W3C//DTD SVG 1.1//EN" "http://www.w3.org/Graphics/SVG/1.1/DTD/svg11.dtd">
<svg version="1.1" id="Layer_1" xmlns="http://www.w3.org/2000/svg" xmlns:xlink="http://www.w3.org/1999/xlink" x="0px" y="0px"
	 width="38px" height="38px" viewBox="0 0 38 38" enable-background="new 0 0 38 38" xml:space="preserve">
<g>
	<path fill="#224653" stroke="#224653" stroke-width="0.3" stroke-miterlimit="10" d="M27.766,36.533H5.85
		c-1.21,0-2.191-0.982-2.191-2.191v-26.3c0-0.193,0.077-0.38,0.214-0.517l5.845-5.845c0.136-0.137,0.323-0.214,0.517-0.214h17.532
		c1.211,0,2.193,0.981,2.193,2.191v4.384h-1.461V3.658c0-0.403-0.328-0.73-0.732-0.73h-17.23L5.119,8.345v25.997
		c0,0.403,0.327,0.729,0.73,0.729h21.916c0.404,0,0.732-0.326,0.732-0.729v-2.192h1.461v2.192
		C29.959,35.551,28.977,36.533,27.766,36.533z"/>
	<path fill="#224653" stroke="#224653" stroke-width="0.3" stroke-miterlimit="10" d="M8.771,8.772H4.389V7.312h4.383
		c0.403,0,0.731-0.327,0.731-0.73V2.197h1.461v4.384C10.964,7.791,9.982,8.772,8.771,8.772z"/>
	<path fill="#224653" stroke="#224653" stroke-width="0.3" stroke-miterlimit="10" d="M27.037,8.042h-1.463V6.581
		c0-0.403-0.326-0.73-0.73-0.73h-1.461V4.389h1.461c1.211,0,2.193,0.981,2.193,2.192V8.042z"/>
	
		<rect x="20.461" y="4.389" fill="#224653" stroke="#224653" stroke-width="0.3" stroke-miterlimit="10" width="1.461" height="1.462"/>
	<path fill="#224653" stroke="#224653" stroke-width="0.3" stroke-miterlimit="10" d="M33.609,15.348h-7.303
		c-1.211,0-2.193-0.981-2.193-2.191v-2.923c0-0.403,0.328-0.73,0.73-0.73h7.307c1.209,0,2.191,0.981,2.191,2.191v2.923
		C34.342,15.021,34.014,15.348,33.609,15.348z M25.574,10.964v2.192c0,0.402,0.328,0.73,0.732,0.73h6.574v-2.192
		c0-0.403-0.328-0.73-0.73-0.73H25.574z"/>
	<path fill="#224653" stroke="#224653" stroke-width="0.3" stroke-miterlimit="10" d="M33.609,23.383h-7.303
		c-1.211,0-2.193-0.98-2.193-2.19V18.27c0-0.403,0.328-0.73,0.73-0.73h7.307c1.209,0,2.191,0.981,2.191,2.192v2.923
		C34.342,23.057,34.014,23.383,33.609,23.383z M25.574,19v2.192c0,0.403,0.328,0.73,0.732,0.73h6.574v-2.191
		c0-0.404-0.328-0.731-0.73-0.731H25.574z"/>
	<path fill="#224653" stroke="#224653" stroke-width="0.3" stroke-miterlimit="10" d="M33.609,30.689h-7.303
		c-1.211,0-2.193-0.982-2.193-2.192v-2.922c0-0.403,0.328-0.729,0.73-0.729h7.307c1.209,0,2.191,0.979,2.191,2.189v2.925
		C34.342,30.362,34.014,30.689,33.609,30.689z M25.574,26.306v2.191c0,0.403,0.328,0.73,0.732,0.73h6.574v-2.192
		c0-0.403-0.328-0.729-0.73-0.729H25.574z"/>
	<path fill="#224653" stroke="#224653" stroke-width="0.3" stroke-miterlimit="10" d="M16.808,30.689h-2.191
		c-0.404,0-0.73-0.327-0.73-0.729v-2.013c-0.102-0.04-0.203-0.083-0.305-0.128l-1.422,1.424c-0.285,0.286-0.747,0.286-1.033,0
		l-3.101-3.101c-0.284-0.283-0.284-0.747,0-1.031l1.424-1.424c-0.045-0.102-0.086-0.203-0.126-0.305H7.311
		c-0.402,0-0.73-0.326-0.73-0.729V18.27c0-0.403,0.328-0.73,0.73-0.73h2.013c0.04-0.102,0.081-0.202,0.126-0.304l-1.424-1.424
		c-0.284-0.284-0.284-0.747,0-1.032l3.101-3.1c0.286-0.286,0.748-0.286,1.033,0l1.422,1.424c0.102-0.046,0.203-0.088,0.305-0.127
		v-2.013c0-0.403,0.326-0.73,0.73-0.73h2.191v1.461h-1.46v1.797c0,0.319-0.207,0.602-0.512,0.697
		c-0.368,0.117-0.725,0.267-1.066,0.445c-0.282,0.147-0.629,0.095-0.854-0.131l-1.273-1.273l-2.065,2.066l1.272,1.273
		c0.226,0.226,0.279,0.571,0.131,0.854c-0.18,0.342-0.328,0.698-0.445,1.065c-0.096,0.305-0.377,0.512-0.697,0.512H8.042v2.922
		h1.795c0.32,0,0.602,0.208,0.698,0.513c0.117,0.367,0.267,0.723,0.445,1.064c0.147,0.284,0.095,0.629-0.131,0.854l-1.273,1.272
		l2.065,2.066l1.274-1.273c0.227-0.225,0.571-0.279,0.854-0.131c0.342,0.181,0.698,0.329,1.065,0.446
		c0.305,0.095,0.512,0.379,0.512,0.696v1.796h1.461L16.808,30.689z"/>
	<path fill="#224653" stroke="#224653" stroke-width="0.3" stroke-miterlimit="10" d="M16.078,24.846
		c-2.421,0-4.385-1.963-4.385-4.384s1.964-4.384,4.385-4.384v1.461c-1.614,0-2.923,1.309-2.923,2.923
		c0,1.613,1.309,2.921,2.923,2.921V24.846z"/>
	<path fill="#224653" stroke="#224653" stroke-width="0.3" stroke-miterlimit="10" d="M24.844,28.497h-2.922
		c-1.209,0-2.192-0.982-2.192-2.191V13.887c0-1.211,0.983-2.192,2.192-2.192h2.922v1.462h-2.922c-0.402,0-0.73,0.327-0.73,0.73
		v12.419c0,0.403,0.328,0.729,0.73,0.729h2.922V28.497z"/>
	
		<rect x="16.078" y="19.731" fill="#224653" stroke="#224653" stroke-width="0.3" stroke-miterlimit="10" width="8.766" height="1.461"/>
</g>
</svg>
