<?xml version="1.0" encoding="utf-8"?>
<!-- Generator: Adobe Illustrator 16.0.3, SVG Export Plug-In . SVG Version: 6.00 Build 0)  -->
<!DOCTYPE svg PUBLIC "-//W3C//DTD SVG 1.1//EN" "http://www.w3.org/Graphics/SVG/1.1/DTD/svg11.dtd">
<svg version="1.1" id="Layer_1" xmlns="http://www.w3.org/2000/svg" xmlns:xlink="http://www.w3.org/1999/xlink" x="0px" y="0px"
	 width="38px" height="38px" viewBox="0 0 38 38" enable-background="new 0 0 38 38" xml:space="preserve">
<g>
	
		<path fill="none" stroke="#224653" stroke-width="1.9024" stroke-linecap="round" stroke-linejoin="round" stroke-miterlimit="10" d="
		M35.379,15.046c-2.033,0.226-4.067-0.678-5.196-2.598c-1.13-1.92-0.903-4.179,0.34-5.76c-1.921-1.808-4.294-3.163-6.891-3.954
		c-0.792,1.92-2.6,3.162-4.858,3.162s-4.065-1.355-4.856-3.162C11.432,3.525,9.173,4.88,7.252,6.688
		c1.243,1.694,1.469,3.953,0.34,5.76c-1.13,1.92-3.163,2.824-5.196,2.598C2.169,16.29,1.943,17.645,1.943,19
		s0.226,2.711,0.452,3.953c2.033-0.225,4.066,0.678,5.196,2.598c1.129,1.92,0.903,4.18-0.34,5.762
		c1.921,1.807,4.293,3.162,6.891,3.953c0.791-1.92,2.599-3.162,4.857-3.162s4.066,1.355,4.856,3.162
		c2.599-0.791,4.972-2.146,6.891-3.953c-1.243-1.582-1.468-3.842-0.338-5.762c1.129-1.92,3.162-2.822,5.196-2.598
		c0.338-1.242,0.451-2.598,0.451-3.953C35.83,17.645,35.605,16.29,35.379,15.046z"/>
	
		<path fill="none" stroke="#224653" stroke-width="1.9024" stroke-linecap="round" stroke-linejoin="round" stroke-miterlimit="10" d="
		M22.275,26.906h-6.777c-1.243,0-2.259-1.016-2.259-2.258v-4.52c0-1.242,1.016-2.258,2.259-2.258h6.777
		c1.243,0,2.259,1.016,2.259,2.258v4.52C24.534,25.891,23.519,26.906,22.275,26.906z"/>
	
		<path fill="none" stroke="#224653" stroke-width="1.9024" stroke-linecap="round" stroke-linejoin="round" stroke-miterlimit="10" d="
		M23.405,17.871h-9.036v-2.259c0-2.485,2.033-4.518,4.518-4.518l0,0c2.485,0,4.519,2.033,4.519,4.518V17.871z"/>
	
		<line fill="none" stroke="#224653" stroke-width="1.9024" stroke-linecap="round" stroke-linejoin="round" stroke-miterlimit="10" x1="18.887" y1="21.26" x2="18.887" y2="23.518"/>
</g>
</svg>
