<?xml version="1.0" encoding="utf-8"?>
<!-- Generator: Adobe Illustrator 16.0.3, SVG Export Plug-In . SVG Version: 6.00 Build 0)  -->
<!DOCTYPE svg PUBLIC "-//W3C//DTD SVG 1.1//EN" "http://www.w3.org/Graphics/SVG/1.1/DTD/svg11.dtd">
<svg version="1.1" id="Layer_1" xmlns="http://www.w3.org/2000/svg" xmlns:xlink="http://www.w3.org/1999/xlink" x="0px" y="0px"
	 width="38px" height="38px" viewBox="0 0 38 38" enable-background="new 0 0 38 38" xml:space="preserve">
<g>
	<g>
		<g>
			<g>
				<path fill="#224653" stroke="#224653" stroke-width="0.5" stroke-miterlimit="10" d="M11.407,36.716H5.188
					c-0.399,0-0.723-0.325-0.723-0.722v-9.813c0-0.773,0.485-1.459,1.211-1.718l0.1-0.044c0.366-0.161,0.792,0.005,0.953,0.371
					c0.161,0.367-0.006,0.791-0.371,0.953L6.23,25.799c-0.021,0.01-0.042,0.018-0.063,0.024C6.014,25.874,5.91,26.018,5.91,26.18
					v9.09h4.773V23.844l-1.017,0.445c-0.365,0.162-0.792-0.005-0.952-0.371c-0.16-0.365,0.006-0.792,0.371-0.952l2.031-0.892
					c0.223-0.098,0.481-0.077,0.687,0.056c0.204,0.136,0.327,0.361,0.327,0.604v13.26C12.13,36.391,11.806,36.716,11.407,36.716z"/>
			</g>
			<g>
				<path fill="#224653" stroke="#224653" stroke-width="0.5" stroke-miterlimit="10" d="M8.153,9.238
					c-2.193,0-3.978-1.784-3.978-3.976c0-2.194,1.784-3.978,3.978-3.978c2.193,0,3.977,1.784,3.977,3.978
					C12.13,7.454,10.346,9.238,8.153,9.238z M8.153,2.73c-1.396,0-2.531,1.135-2.531,2.531s1.136,2.53,2.531,2.53
					c1.396,0,2.531-1.136,2.531-2.53C10.684,3.866,9.549,2.73,8.153,2.73z"/>
			</g>
			<g>
				<path fill="#224653" stroke="#224653" stroke-width="0.5" stroke-miterlimit="10" d="M12.853,18.639h-2.169
					c-0.164,0-0.323-0.056-0.452-0.159l-3.615-2.893c-0.312-0.249-0.362-0.705-0.113-1.016c0.25-0.312,0.705-0.363,1.017-0.113
					l3.417,2.734h1.916c0.399,0,0.723,0.323,0.723,0.723C13.576,18.314,13.252,18.639,12.853,18.639z"/>
			</g>
			<g>
				<path fill="#224653" stroke="#224653" stroke-width="0.5" stroke-miterlimit="10" d="M32.811,36.716h-6.219
					c-0.4,0-0.723-0.325-0.723-0.722v-13.26c0-0.243,0.123-0.471,0.328-0.604c0.205-0.133,0.461-0.153,0.686-0.056l2.029,0.892
					c0.365,0.16,0.533,0.587,0.373,0.952c-0.16,0.366-0.588,0.533-0.955,0.371l-1.016-0.445V35.27h4.772v-9.088
					c0-0.164-0.104-0.308-0.258-0.357c-0.021-0.008-0.041-0.016-0.063-0.024l-0.125-0.055c-0.367-0.162-0.533-0.587-0.371-0.953
					c0.16-0.366,0.588-0.532,0.951-0.371l0.103,0.044c0.725,0.258,1.211,0.943,1.211,1.717v9.813
					C33.535,36.391,33.209,36.716,32.811,36.716z"/>
			</g>
			<g>
				<path fill="#224653" stroke="#224653" stroke-width="0.5" stroke-miterlimit="10" d="M29.846,9.238
					c-2.193,0-3.977-1.784-3.977-3.976c0-2.194,1.783-3.978,3.977-3.978c2.194,0,3.978,1.784,3.978,3.978
					C33.822,7.454,32.039,9.238,29.846,9.238z M29.846,2.73c-1.396,0-2.531,1.135-2.531,2.531s1.136,2.53,2.531,2.53
					c1.398,0,2.531-1.136,2.531-2.53C32.377,3.866,31.244,2.73,29.846,2.73z"/>
			</g>
			<g>
				<path fill="#224653" stroke="#224653" stroke-width="0.5" stroke-miterlimit="10" d="M27.314,18.639h-2.168
					c-0.4,0-0.726-0.325-0.726-0.724c0-0.4,0.324-0.723,0.726-0.723h1.914l3.418-2.734c0.313-0.25,0.768-0.198,1.018,0.113
					c0.248,0.311,0.197,0.767-0.113,1.016l-3.615,2.893C27.639,18.583,27.479,18.639,27.314,18.639z"/>
			</g>
			<g>
				<path fill="#224653" stroke="#224653" stroke-width="0.5" stroke-miterlimit="10" d="M4.839,26.168
					c-1.003,0-1.82-0.818-1.82-1.822v-1.74c0-0.399,0.324-0.724,0.723-0.724c0.4,0,0.724,0.323,0.724,0.724v1.74
					c0,0.231,0.195,0.377,0.374,0.377c0.033,0,0.067-0.005,0.099-0.016l6.186-2.637c0.018-0.008,0.036-0.016,0.055-0.02l0.952-0.32
					v-3.815c0-0.4,0.323-0.723,0.723-0.723h3.05l0.26-1.037c0.096-0.388,0.489-0.623,0.876-0.526
					c0.388,0.097,0.624,0.49,0.527,0.877l-0.396,1.584c-0.081,0.322-0.37,0.548-0.702,0.548h-2.893v3.615
					c0,0.312-0.199,0.587-0.494,0.688l-1.419,0.472l-6.192,2.639c-0.017,0.009-0.036,0.015-0.055,0.021
					C5.229,26.136,5.034,26.168,4.839,26.168z M3.741,19.712c-0.398,0-0.723-0.323-0.723-0.723v-5.702
					c0-1.834,1.492-3.326,3.327-3.326h3.904c1.834,0,3.326,1.492,3.326,3.326V14.3h1.446c0.4,0,0.724,0.324,0.724,0.723
					c0,0.4-0.323,0.724-0.724,0.724h-2.168c-0.4,0-0.723-0.324-0.723-0.724v-1.735c0-1.037-0.844-1.88-1.88-1.88H6.345
					c-1.037,0-1.88,0.843-1.88,1.88v5.702C4.465,19.39,4.141,19.712,3.741,19.712z"/>
			</g>
			<g>
				<path fill="#224653" stroke="#224653" stroke-width="0.5" stroke-miterlimit="10" d="M33.16,26.168
					c-0.197,0-0.391-0.032-0.58-0.095c-0.016-0.007-0.035-0.013-0.055-0.021l-6.189-2.639l-1.131-0.378
					c-0.377-0.125-0.584-0.534-0.457-0.914c0.127-0.378,0.535-0.583,0.914-0.457l1.158,0.388c0.02,0.005,0.037,0.011,0.055,0.021
					l6.186,2.636c0.031,0.011,0.064,0.015,0.101,0.015c0.18,0,0.375-0.145,0.375-0.377V13.288c0-0.138-0.017-0.277-0.048-0.412
					c-0.086-0.39,0.158-0.776,0.55-0.863c0.392-0.087,0.776,0.159,0.862,0.549c0.054,0.237,0.08,0.481,0.08,0.726v11.058
					C34.98,25.35,34.164,26.168,33.16,26.168z M25.146,19.665c-0.4,0-0.726-0.323-0.726-0.723v-0.303h-2.894
					c-0.329,0-0.618-0.227-0.7-0.549l-0.724-2.893c-0.055-0.216-0.006-0.445,0.131-0.62c0.138-0.175,0.349-0.278,0.572-0.278h3.613
					v-1.012c0-1.834,1.49-3.326,3.328-3.326h3.904c0.397,0,0.723,0.323,0.723,0.723s-0.324,0.724-0.723,0.724H27.75
					c-1.039,0-1.881,0.843-1.881,1.88v1.735c0,0.4-0.322,0.724-0.723,0.724h-3.414l0.36,1.446h3.054
					c0.399,0,0.723,0.323,0.723,0.723v1.026C25.869,19.342,25.547,19.665,25.146,19.665z"/>
			</g>
			<g>
				<path fill="#224653" stroke="#224653" stroke-width="0.5" stroke-miterlimit="10" d="M22.977,24.424h-2.205
					c-0.217,0-0.422-0.099-0.561-0.265c-0.136-0.17-0.189-0.39-0.148-0.603c0.016-0.07,0.021-0.146,0.021-0.218
					c0-0.599-0.486-1.086-1.085-1.086c-0.598,0-1.084,0.487-1.084,1.086c0,0.072,0.007,0.146,0.021,0.218
					c0.042,0.213-0.012,0.433-0.148,0.603c-0.137,0.166-0.343,0.265-0.561,0.265h-2.206c-0.398,0-0.723-0.324-0.723-0.724v-1.511
					c0-0.397,0.324-0.722,0.723-0.722c0.4,0,0.724,0.323,0.724,0.722v0.787h0.75c0.177-1.226,1.231-2.168,2.504-2.168
					c1.272,0,2.329,0.942,2.505,2.168h0.748v-4.337h-0.723c-0.33,0-0.619-0.227-0.701-0.549l-0.516-2.068
					c-0.099-0.387,0.139-0.78,0.524-0.877c0.39-0.097,0.779,0.139,0.875,0.526l0.381,1.521h0.884c0.397,0,0.723,0.323,0.723,0.723
					V23.7C23.699,24.1,23.375,24.424,22.977,24.424z M15.021,19.299c-0.398,0-0.723-0.325-0.723-0.723v-0.661
					c0-0.4,0.324-0.723,0.723-0.723h0.882l0.362-1.446h-1.244c-0.398,0-0.723-0.324-0.723-0.724v-3.615
					c0-0.4,0.324-0.724,0.723-0.724h1.473c0.177-1.225,1.231-2.168,2.504-2.168c1.271,0,2.329,0.944,2.505,2.168h1.474
					c0.397,0,0.723,0.324,0.723,0.724v3.018c0,0.399-0.324,0.724-0.723,0.724c-0.4,0-0.726-0.324-0.726-0.724V12.13h-1.479
					c-0.217,0-0.424-0.097-0.562-0.265c-0.136-0.168-0.188-0.389-0.147-0.602c0.015-0.071,0.021-0.145,0.021-0.217
					c0-0.599-0.485-1.085-1.085-1.085c-0.598,0-1.084,0.486-1.084,1.085c0,0.073,0.007,0.146,0.021,0.217
					c0.042,0.212-0.012,0.434-0.148,0.602c-0.137,0.168-0.343,0.265-0.561,0.265h-1.482v2.17h1.446c0.222,0,0.434,0.103,0.57,0.278
					c0.136,0.175,0.185,0.404,0.131,0.621l-0.723,2.892c-0.081,0.322-0.37,0.548-0.702,0.548H15.74
					C15.711,19.009,15.4,19.299,15.021,19.299z"/>
			</g>
			<g>
				<path fill="#224653" stroke="#224653" stroke-width="0.5" stroke-miterlimit="10" d="M22.977,36.716h-2.205
					c-0.217,0-0.422-0.098-0.561-0.264c-0.136-0.17-0.189-0.392-0.148-0.604c0.016-0.07,0.021-0.146,0.021-0.217
					c0-0.6-0.486-1.085-1.085-1.085c-0.205,0-0.401,0.056-0.573,0.164c-0.34,0.212-0.785,0.108-0.996-0.229
					c-0.212-0.338-0.11-0.783,0.228-0.996c0.402-0.252,0.866-0.385,1.341-0.385c1.272,0,2.329,0.944,2.505,2.17h0.748V24.424h-1.48
					c-0.217,0-0.422-0.099-0.561-0.265c-0.136-0.17-0.189-0.39-0.148-0.603c0.016-0.07,0.021-0.146,0.021-0.218
					c0-0.599-0.486-1.086-1.085-1.086c-0.598,0-1.084,0.487-1.084,1.086c0,0.072,0.007,0.146,0.021,0.218
					c0.042,0.213-0.012,0.433-0.148,0.603c-0.137,0.166-0.343,0.265-0.561,0.265h-1.482V35.27h0.062
					c0.399,0,0.723,0.324,0.723,0.726c0,0.396-0.324,0.722-0.723,0.722h-0.786c-0.398,0-0.723-0.324-0.723-0.722V23.7
					c0-0.398,0.324-0.724,0.723-0.724h1.473c0.177-1.226,1.231-2.168,2.504-2.168c1.271,0,2.329,0.942,2.505,2.168h1.474
					c0.397,0,0.723,0.324,0.723,0.724v12.294C23.699,36.391,23.375,36.716,22.977,36.716z"/>
			</g>
			<g>
				<path fill="#224653" stroke="#224653" stroke-width="0.5" stroke-miterlimit="10" d="M35.548,36.548H22.532
					c-0.4,0-0.724-0.325-0.724-0.722c0-0.4,0.322-0.725,0.724-0.725h13.016c0.399,0,0.724,0.323,0.724,0.725
					C36.271,36.223,35.947,36.548,35.548,36.548z"/>
			</g>
			<g>
				<path fill="#224653" stroke="#224653" stroke-width="0.5" stroke-miterlimit="10" d="M14.578,36.548H1.563
					c-0.4,0-0.724-0.325-0.724-0.722c0-0.4,0.323-0.725,0.724-0.725h13.015c0.4,0,0.724,0.323,0.724,0.725
					C15.301,36.223,14.978,36.548,14.578,36.548z"/>
			</g>
		</g>
	</g>
</g>
</svg>
