<?xml version="1.0" encoding="utf-8"?>
<!-- Generator: Adobe Illustrator 16.0.3, SVG Export Plug-In . SVG Version: 6.00 Build 0)  -->
<!DOCTYPE svg PUBLIC "-//W3C//DTD SVG 1.1//EN" "http://www.w3.org/Graphics/SVG/1.1/DTD/svg11.dtd">
<svg version="1.1" id="Layer_1" xmlns="http://www.w3.org/2000/svg" xmlns:xlink="http://www.w3.org/1999/xlink" x="0px" y="0px"
	 width="38px" height="38px" viewBox="0 0 38 38" enable-background="new 0 0 38 38" xml:space="preserve">
<g>
	<path fill="#224653" stroke="#224653" stroke-width="0.15" stroke-miterlimit="10" d="M12.241,15.639l2.229-3.195l-2.229-3.19
		h-7.34l2.229,3.19l-2.229,3.195H12.241z M7.165,10.432h4.465l1.403,2.012l-1.403,2.016H7.165l1.403-2.016L7.165,10.432z"/>
	<path fill="#224653" stroke="#224653" stroke-width="0.15" stroke-miterlimit="10" d="M14.019,15.639h7.34l2.229-3.195l-2.229-3.19
		h-7.34l2.228,3.19L14.019,15.639z M16.282,10.432h4.486l1.404,2.012l-1.404,2.016h-4.486l1.403-2.016L16.282,10.432z"/>
	<path fill="#224653" stroke="#224653" stroke-width="0.15" stroke-miterlimit="10" d="M23.127,15.639h7.348l2.228-3.195
		l-2.228-3.19h-7.348l2.229,3.19L23.127,15.639z M25.391,10.432h4.465l1.403,2.012l-1.403,2.016h-4.457l1.401-2.016L25.391,10.432z"
		/>
	<path fill="#224653" stroke="#224653" stroke-width="0.15" stroke-miterlimit="10" d="M5.438,22.922h7.979v-4.587H5.438V22.922z
		 M6.617,19.513h5.632v2.229H6.617V19.513z"/>
	<path fill="#224653" stroke="#224653" stroke-width="0.15" stroke-miterlimit="10" d="M14.607,22.922h7.989v-4.587h-7.989V22.922z
		 M15.787,19.513h5.63v2.229h-5.63V19.513z"/>
	<path fill="#224653" stroke="#224653" stroke-width="0.15" stroke-miterlimit="10" d="M23.794,22.922h7.984v-4.587h-7.984V22.922z
		 M24.974,19.513h5.624v2.229h-5.624V19.513z"/>
	<path fill="#224653" stroke="#224653" stroke-width="0.15" stroke-miterlimit="10" d="M5.438,28.741h7.979v-4.582H5.438V28.741z
		 M6.617,25.339h5.632v2.224H6.617V25.339z"/>
	<path fill="#224653" stroke="#224653" stroke-width="0.15" stroke-miterlimit="10" d="M14.607,28.741h7.989v-4.582h-7.989V28.741z
		 M15.787,25.339h5.63v2.224h-5.63V25.339z"/>
	<path fill="#224653" stroke="#224653" stroke-width="0.15" stroke-miterlimit="10" d="M23.794,28.741h7.984v-4.582h-7.984V28.741z
		 M24.974,25.339h5.624v2.224h-5.624V25.339z"/>
	<path fill="#224653" stroke="#224653" stroke-width="0.15" stroke-miterlimit="10" d="M1.43,4.612v28.775H36.57V4.612H1.43z
		 M35.393,32.207H2.607V5.791h32.785V32.207z"/>
</g>
</svg>
