<?xml version="1.0" encoding="utf-8"?>
<!-- Generator: Adobe Illustrator 16.0.3, SVG Export Plug-In . SVG Version: 6.00 Build 0)  -->
<!DOCTYPE svg PUBLIC "-//W3C//DTD SVG 1.1//EN" "http://www.w3.org/Graphics/SVG/1.1/DTD/svg11.dtd">
<svg version="1.1" id="Layer_1" xmlns="http://www.w3.org/2000/svg" xmlns:xlink="http://www.w3.org/1999/xlink" x="0px" y="0px"
	 width="38px" height="38px" viewBox="0 0 38 38" enable-background="new 0 0 38 38" xml:space="preserve">
<g>
	<g>
		<g>
			<path fill="#224653" stroke="#224653" stroke-width="0.2603" stroke-miterlimit="10" d="M20.053,29.134h-0.002
				c-1.525,0-3.006-0.294-4.398-0.875c-0.671-0.279-1.316-0.624-1.921-1.025c-0.598-0.398-1.161-0.855-1.672-1.359
				c-0.511-0.504-0.977-1.06-1.382-1.648c-0.409-0.597-0.761-1.235-1.044-1.896c-0.591-1.377-0.891-2.838-0.891-4.343
				c0-2.778,1.042-5.44,2.936-7.493c0.153-0.166,0.37-0.261,0.594-0.261c0.203,0,0.398,0.076,0.547,0.214
				c0.328,0.302,0.348,0.813,0.046,1.141c-1.617,1.756-2.507,4.028-2.508,6.399c0.001,2.542,1.007,4.933,2.834,6.735
				c1.833,1.803,4.268,2.795,6.859,2.795c2.59,0,5.026-0.992,6.858-2.795c1.827-1.803,2.834-4.193,2.834-6.735
				c0-2.543-1.007-4.936-2.834-6.735c-1.832-1.803-4.269-2.796-6.858-2.797c-0.202,0-0.407,0.007-0.61,0.019
				c-0.015,0.001-0.032,0.001-0.049,0.001c-0.426,0-0.78-0.333-0.805-0.758c-0.001-0.017-0.001-0.036-0.001-0.052
				c0-0.425,0.333-0.778,0.758-0.803c0.236-0.015,0.472-0.021,0.707-0.021h0.002c1.522,0,3.002,0.294,4.396,0.875
				c0.67,0.28,1.316,0.625,1.922,1.026c0.599,0.398,1.16,0.855,1.672,1.359c0.512,0.502,0.976,1.058,1.382,1.648
				c0.41,0.596,0.76,1.234,1.044,1.895c0.592,1.377,0.891,2.838,0.891,4.344c0,1.504-0.299,2.965-0.891,4.343
				c-0.284,0.66-0.634,1.299-1.044,1.896c-0.406,0.589-0.87,1.145-1.382,1.648s-1.073,0.961-1.672,1.359
				c-0.605,0.401-1.252,0.746-1.922,1.025C23.055,28.84,21.575,29.134,20.053,29.134z M15.506,9.472
				c-0.311,0-0.598-0.182-0.731-0.463c-0.092-0.195-0.104-0.415-0.03-0.617c0.072-0.202,0.22-0.366,0.413-0.458l0.002-0.001
				c0.108-0.052,0.225-0.077,0.344-0.077c0.311,0,0.598,0.18,0.732,0.461c0.19,0.402,0.018,0.885-0.384,1.076h-0.001
				C15.74,9.446,15.626,9.472,15.506,9.472z"/>
		</g>
		<g>
			<path fill="#224653" stroke="#224653" stroke-width="0.2603" stroke-miterlimit="10" d="M8.257,29.667
				c-0.223,0-0.431-0.09-0.584-0.251c-0.711-0.748-1.356-1.563-1.915-2.425c-0.566-0.868-1.051-1.796-1.443-2.753
				c-0.814-1.987-1.227-4.091-1.227-6.251c0-1.134,0.116-2.269,0.345-3.371c0.224-1.075,0.557-2.129,0.99-3.139
				c0.426-0.992,0.952-1.947,1.566-2.841C6.595,7.751,7.292,6.918,8.06,6.163c0.768-0.755,1.611-1.441,2.51-2.038
				c0.907-0.603,1.876-1.122,2.881-1.541c1.023-0.426,2.095-0.753,3.183-0.973c1.117-0.225,2.265-0.339,3.416-0.339h0.001
				c0.446,0,0.808,0.362,0.808,0.808c0,0.445-0.361,0.807-0.808,0.807c-4.101,0-7.957,1.572-10.857,4.427
				c-2.896,2.854-4.491,6.643-4.491,10.673c0,3.844,1.471,7.508,4.14,10.313c0.148,0.157,0.228,0.361,0.222,0.577
				c-0.006,0.217-0.095,0.417-0.251,0.566C8.664,29.588,8.465,29.667,8.257,29.667z"/>
		</g>
		<g>
			<path fill="#224653" stroke="#224653" stroke-width="0.2603" stroke-miterlimit="10" d="M20.053,34.701v-0.004l-0.002,0.004
				h-0.018l-0.326-0.008c-0.446-0.009-0.801-0.379-0.79-0.824c0.004-0.213,0.091-0.413,0.242-0.559
				c0.157-0.154,0.364-0.237,0.583-0.231l0.316,0.007c4.1-0.003,7.949-1.574,10.847-4.427s4.492-6.642,4.492-10.672
				c0-4.813-2.254-9.228-6.181-12.112c-0.359-0.263-0.438-0.77-0.176-1.128c0.154-0.207,0.396-0.331,0.653-0.331
				c0.173,0,0.339,0.054,0.477,0.156c1.035,0.76,1.984,1.637,2.818,2.608c0.842,0.976,1.568,2.045,2.158,3.181
				c0.603,1.154,1.066,2.38,1.38,3.64c0.322,1.298,0.485,2.638,0.485,3.987c0,1.134-0.115,2.268-0.346,3.37
				c-0.223,1.074-0.556,2.131-0.989,3.141c-0.427,0.991-0.953,1.946-1.565,2.839c-0.607,0.886-1.305,1.718-2.072,2.475
				c-0.768,0.754-1.612,1.44-2.511,2.038c-0.905,0.603-1.876,1.12-2.88,1.54c-1.022,0.426-2.096,0.754-3.184,0.974
				C22.351,34.588,21.202,34.701,20.053,34.701z M15.687,34.607c-0.005,0-0.01,0-0.017,0c-0.214-0.006-0.416-0.094-0.566-0.25
				c-0.15-0.157-0.229-0.36-0.224-0.577c0.004-0.213,0.089-0.411,0.244-0.56c0.155-0.152,0.361-0.237,0.582-0.229
				c0.444,0.009,0.8,0.379,0.789,0.824c-0.005,0.214-0.09,0.413-0.243,0.56C16.099,34.523,15.9,34.607,15.687,34.607z M11.649,34.52
				c-0.005,0-0.012,0-0.017,0l-9.856-0.217c-0.214-0.004-0.417-0.092-0.565-0.249c-0.149-0.154-0.229-0.359-0.224-0.576
				c0.005-0.213,0.092-0.411,0.244-0.561c0.156-0.151,0.364-0.235,0.583-0.229l9.854,0.214c0.212,0.007,0.411,0.091,0.56,0.242
				c0.147,0.152,0.23,0.353,0.231,0.563c0,0.006,0,0.015,0,0.021c-0.005,0.214-0.091,0.411-0.243,0.561
				C12.063,34.437,11.862,34.52,11.649,34.52z"/>
		</g>
		<g>
			<path fill="#224653" stroke="#224653" stroke-width="0.2603" stroke-miterlimit="10" d="M35.722,35.111h-7.271
				c-0.445,0-0.807-0.362-0.807-0.809c0-0.444,0.361-0.806,0.807-0.806h5.964l-0.224-0.448c-0.097-0.192-0.111-0.411-0.045-0.616
				c0.069-0.203,0.213-0.371,0.406-0.467c0.113-0.058,0.234-0.085,0.36-0.085c0.309,0,0.586,0.172,0.723,0.445l0.808,1.616
				c0.127,0.253,0.113,0.546-0.034,0.787C36.26,34.968,36.004,35.111,35.722,35.111z"/>
		</g>
		<g>
			<path fill="#224653" stroke="#224653" stroke-width="0.2603" stroke-miterlimit="10" d="M34.913,36.728
				c-0.126,0-0.247-0.029-0.36-0.085c-0.398-0.2-0.561-0.686-0.361-1.085L35,33.942c0.137-0.274,0.414-0.445,0.722-0.445
				c0.126,0,0.247,0.027,0.361,0.084c0.397,0.199,0.561,0.686,0.36,1.084l-0.808,1.615C35.499,36.556,35.222,36.728,34.913,36.728z"
				/>
		</g>
		<g>
			<path fill="#224653" stroke="#224653" stroke-width="0.2603" stroke-miterlimit="10" d="M28.451,7.648
				c-0.087,0-0.172-0.015-0.255-0.042c-0.205-0.068-0.371-0.212-0.467-0.405c-0.098-0.193-0.112-0.413-0.046-0.616l0.809-2.424
				c0.112-0.331,0.42-0.552,0.768-0.552h2.424c0.443,0,0.808,0.363,0.808,0.808c0,0.445-0.364,0.808-0.808,0.808h-1.842
				l-0.624,1.871C29.108,7.426,28.8,7.648,28.451,7.648z"/>
		</g>
		<g>
			<path fill="#224653" stroke="#224653" stroke-width="0.2603" stroke-miterlimit="10" d="M17.279,21.126h-2.958
				c-0.288,0-0.556-0.154-0.701-0.403l-1.478-2.563c-0.145-0.25-0.145-0.559,0-0.808l1.478-2.561
				c0.144-0.25,0.413-0.405,0.701-0.405h2.958c0.288,0,0.555,0.154,0.7,0.405l1.479,2.561c0.144,0.249,0.144,0.559,0,0.808
				l-1.479,2.563C17.834,20.972,17.567,21.126,17.279,21.126z M14.787,19.512h2.025l1.015-1.755l-1.015-1.754h-2.025l-1.013,1.754
				L14.787,19.512z"/>
		</g>
		<g>
			<path fill="#224653" stroke="#224653" stroke-width="0.2603" stroke-miterlimit="10" d="M23.741,24.886h-2.957
				c-0.288,0-0.556-0.152-0.699-0.401l-1.48-2.563c-0.146-0.25-0.146-0.559,0-0.808l1.48-2.562c0.142-0.25,0.411-0.404,0.699-0.404
				h2.957c0.288,0,0.555,0.154,0.699,0.404l1.479,2.562c0.144,0.249,0.144,0.558,0,0.808l-1.479,2.563
				C24.296,24.733,24.029,24.886,23.741,24.886z M21.247,23.271h2.027l1.014-1.754l-1.014-1.754h-2.027l-1.012,1.754L21.247,23.271z
				"/>
		</g>
		<g>
			<path fill="#224653" stroke="#224653" stroke-width="0.2603" stroke-miterlimit="10" d="M23.741,17.618h-2.957
				c-0.288,0-0.558-0.155-0.699-0.404l-1.48-2.562c-0.146-0.25-0.146-0.559,0-0.808l1.48-2.562c0.142-0.249,0.411-0.404,0.699-0.404
				h2.957c0.288,0,0.555,0.155,0.699,0.404l1.479,2.562c0.144,0.249,0.144,0.558,0,0.808l-1.479,2.562
				C24.296,17.463,24.029,17.618,23.741,17.618z M21.247,16.002h2.027l1.014-1.753l-1.014-1.754h-2.027l-1.012,1.754L21.247,16.002z
				"/>
		</g>
		<g>
			<path fill="#224653" stroke="#224653" stroke-width="0.2603" stroke-miterlimit="10" d="M17.143,23.803
				c-0.212,0-0.421-0.087-0.571-0.236c-0.152-0.15-0.237-0.359-0.237-0.57c0-0.214,0.085-0.423,0.237-0.572
				c0.15-0.15,0.358-0.236,0.571-0.236s0.42,0.086,0.571,0.236c0.149,0.149,0.237,0.358,0.237,0.572c0,0.211-0.088,0.42-0.237,0.57
				C17.563,23.716,17.355,23.803,17.143,23.803z"/>
		</g>
		<g>
			<path fill="#224653" stroke="#224653" stroke-width="0.2603" stroke-miterlimit="10" d="M17.143,13.302
				c-0.212,0-0.421-0.087-0.571-0.237c-0.152-0.149-0.237-0.359-0.237-0.57c0-0.212,0.085-0.422,0.237-0.572
				c0.15-0.15,0.358-0.237,0.571-0.237s0.42,0.086,0.571,0.237c0.149,0.149,0.237,0.359,0.237,0.572c0,0.211-0.088,0.421-0.237,0.57
				C17.563,13.215,17.355,13.302,17.143,13.302z"/>
		</g>
		<g>
			<path fill="#224653" stroke="#224653" stroke-width="0.2603" stroke-miterlimit="10" d="M26.029,18.956
				c-0.213,0-0.422-0.086-0.572-0.237c-0.151-0.149-0.236-0.359-0.236-0.57c0-0.213,0.085-0.422,0.236-0.572
				c0.15-0.15,0.359-0.237,0.572-0.237c0.211,0,0.42,0.086,0.57,0.237c0.149,0.149,0.237,0.359,0.237,0.572
				c0,0.211-0.088,0.421-0.237,0.57C26.449,18.87,26.24,18.956,26.029,18.956z"/>
		</g>
	</g>
</g>
</svg>
