<?xml version="1.0" encoding="utf-8"?>
<!-- Generator: Adobe Illustrator 16.0.3, SVG Export Plug-In . SVG Version: 6.00 Build 0)  -->
<!DOCTYPE svg PUBLIC "-//W3C//DTD SVG 1.1//EN" "http://www.w3.org/Graphics/SVG/1.1/DTD/svg11.dtd">
<svg version="1.1" id="Layer_1" xmlns="http://www.w3.org/2000/svg" xmlns:xlink="http://www.w3.org/1999/xlink" x="0px" y="0px"
	 width="38px" height="38px" viewBox="0 0 38 38" enable-background="new 0 0 38 38" xml:space="preserve">
<g>
	<g transform="translate(-416.000000, -182.000000)">
		<path fill="#224653" stroke="#224653" stroke-width="0.25" stroke-miterlimit="10" d="M440.31,209.858h6.371
			c1.759,0,3.186,1.427,3.186,3.186s-1.427,3.186-3.186,3.186h-6.371c-1.759,0-3.186-1.427-3.186-3.186
			S438.551,209.858,440.31,209.858z M440.31,211.981c-0.586,0-1.063,0.477-1.063,1.063s0.477,1.063,1.063,1.063h6.371
			c0.586,0,1.061-0.477,1.061-1.063s-0.475-1.063-1.061-1.063H440.31z M436.062,190.746c0,0.587-0.475,1.062-1.062,1.062
			c-0.586,0-1.062-0.475-1.062-1.062v-3.15c-3.599,0.237-6.871,1.669-9.425,3.904l2.228,2.228c0.415,0.414,0.415,1.087,0,1.501
			c-0.414,0.415-1.087,0.415-1.501,0l-2.228-2.228c-2.235,2.553-3.667,5.826-3.904,9.425h3.15c0.587,0,1.062,0.476,1.062,1.062
			c0,0.587-0.475,1.063-1.062,1.063h-3.15c0.232,3.521,1.615,6.812,3.904,9.424l2.228-2.228c0.414-0.415,1.087-0.415,1.501,0
			c0.415,0.414,0.415,1.086,0,1.503l-3.003,3.003c-0.414,0.414-1.087,0.414-1.502,0c-3.362-3.363-5.286-7.913-5.286-12.765
			c0-9.969,8.081-18.05,18.05-18.05c9.97,0,18.05,8.081,18.05,18.05c0,0.587-0.475,1.063-1.061,1.063h-4.248
			c-0.586,0-1.061-0.476-1.061-1.063c0-0.586,0.475-1.062,1.061-1.062h3.151c-0.523-7.95-6.881-14.307-14.831-14.83V190.746z
			 M437.929,199.059l4.284-4.285c0.415-0.415,1.087-0.415,1.501,0c0.415,0.414,0.415,1.087,0,1.502l-4.284,4.284
			c0.556,0.84,0.88,1.846,0.88,2.928c0,2.932-2.377,5.311-5.31,5.311c-2.932,0-5.309-2.379-5.309-5.311s2.377-5.309,5.309-5.309
			C436.083,198.179,437.089,198.502,437.929,199.059L437.929,199.059z M435,206.673c1.759,0,3.187-1.425,3.187-3.186
			c0-1.759-1.428-3.185-3.187-3.185s-3.186,1.426-3.186,3.185C431.814,205.248,433.241,206.673,435,206.673z"/>
	</g>
</g>
</svg>
