<?xml version="1.0" encoding="utf-8"?>
<!-- Generator: Adobe Illustrator 16.0.3, SVG Export Plug-In . SVG Version: 6.00 Build 0)  -->
<!DOCTYPE svg PUBLIC "-//W3C//DTD SVG 1.1//EN" "http://www.w3.org/Graphics/SVG/1.1/DTD/svg11.dtd">
<svg version="1.1" id="Layer_1" xmlns="http://www.w3.org/2000/svg" xmlns:xlink="http://www.w3.org/1999/xlink" x="0px" y="0px"
	 width="38px" height="38px" viewBox="0 0 38 38" enable-background="new 0 0 38 38" xml:space="preserve">
<g>
	<path fill="#224653" stroke="#224653" stroke-width="0.5838" stroke-miterlimit="10" d="M25.255,25.254H7.741
		c-0.346,0-0.625,0.281-0.625,0.627s0.279,0.625,0.625,0.625h17.514c0.345,0,0.625-0.279,0.625-0.625S25.6,25.254,25.255,25.254z"/>
	<path fill="#224653" stroke="#224653" stroke-width="0.5838" stroke-miterlimit="10" d="M24.629,29.633H8.367
		c-0.346,0-0.626,0.279-0.626,0.625s0.28,0.627,0.626,0.627h16.262c0.346,0,0.626-0.281,0.626-0.627S24.975,29.633,24.629,29.633z"
		/>
	<path fill="#224653" stroke="#224653" stroke-width="0.5838" stroke-miterlimit="10" d="M17.124,14.622h7.505
		c0.346,0,0.626-0.28,0.626-0.625c0-0.346-0.28-0.625-0.626-0.625h-7.505c-0.346,0-0.626,0.28-0.626,0.625
		C16.498,14.342,16.778,14.622,17.124,14.622z"/>
	<path fill="#224653" stroke="#224653" stroke-width="0.5838" stroke-miterlimit="10" d="M35.928,27.127l-4.419-4.418V2.738
		c0-1.036-0.841-1.876-1.877-1.876H9.617c-0.165,0-0.324,0.066-0.441,0.183L1.671,8.551C1.553,8.667,1.487,8.827,1.487,8.993v26.269
		c0,1.037,0.84,1.877,1.876,1.877h26.269c1.036,0,1.877-0.84,1.877-1.877v-4.959l0.622,0.621c0.78,0.781,2.046,0.781,2.826,0
		l0.971-0.971C36.708,29.172,36.708,27.906,35.928,27.127z M8.992,2.997v5.37h-5.37L8.992,2.997z M30.259,35.262
		c0,0.346-0.28,0.627-0.627,0.627H3.363c-0.345,0-0.625-0.281-0.625-0.627V9.619h6.879c0.346,0,0.627-0.281,0.627-0.626v-6.88
		h19.388c0.347,0,0.627,0.28,0.627,0.625v19.04c-0.688-0.213-1.468-0.049-2.012,0.496l-0.043,0.041l-1.075-1.072
		c2.763-3.213,2.62-8.061-0.425-11.105c-3.194-3.193-8.37-3.193-11.563,0c-0.601,0.6-1.088,1.27-1.462,1.984H8.367
		c-0.346,0-0.626,0.279-0.626,0.625s0.28,0.625,0.626,0.625h4.783c-0.33,1.012-0.459,2.075-0.385,3.127H7.741
		c-0.346,0-0.625,0.28-0.625,0.625s0.279,0.625,0.625,0.625h5.21c0.255,1.112,0.743,2.18,1.468,3.127H8.367
		c-0.346,0-0.626,0.281-0.626,0.625c0,0.346,0.28,0.625,0.626,0.625h7.192c0.014,0,0.026,0,0.04,0c3.055,2.625,7.591,2.625,10.646,0
		l1.072,1.072l-0.043,0.045c-0.78,0.779-0.78,2.045,0,2.826l2.983,2.98V35.262z M25.819,20.816c-2.705,2.705-7.09,2.705-9.795,0
		c-2.704-2.705-2.704-7.09,0-9.795c2.705-2.705,7.09-2.705,9.795,0C28.523,13.726,28.523,18.112,25.819,20.816z M35.042,29.068
		l-0.97,0.971c-0.292,0.293-0.765,0.293-1.058,0l-4.854-4.854c-0.291-0.293-0.291-0.766,0-1.057l0.972-0.973
		c0.292-0.291,0.765-0.291,1.058,0l4.853,4.855C35.335,28.303,35.335,28.777,35.042,29.068z"/>
	<path fill="#224653" stroke="#224653" stroke-width="0.5838" stroke-miterlimit="10" d="M16.342,17.124
		c-0.346,0-0.626,0.28-0.626,0.625c0,0.346,0.28,0.625,0.626,0.625h9.226c0.346,0,0.625-0.28,0.625-0.625
		c0-0.345-0.279-0.625-0.625-0.625H16.342z"/>
</g>
</svg>
