<?xml version="1.0" encoding="utf-8"?>
<!-- Generator: Adobe Illustrator 16.0.3, SVG Export Plug-In . SVG Version: 6.00 Build 0)  -->
<!DOCTYPE svg PUBLIC "-//W3C//DTD SVG 1.1//EN" "http://www.w3.org/Graphics/SVG/1.1/DTD/svg11.dtd">
<svg version="1.1" id="Layer_1" xmlns="http://www.w3.org/2000/svg" xmlns:xlink="http://www.w3.org/1999/xlink" x="0px" y="0px"
	 width="38px" height="38px" viewBox="0 0 38 38" enable-background="new 0 0 38 38" xml:space="preserve">
<g>
	<g>
		<path fill="#224653" d="M34.582,37.075H3.418c-1.375,0-2.493-1.119-2.493-2.493v-4.556c0-0.513,0.415-0.927,0.927-0.927h11.653
			c0.378,0,0.719,0.229,0.86,0.579l0.705,1.75h7.843l0.705-1.748c0.141-0.353,0.482-0.581,0.859-0.581h11.67
			c0.513,0,0.928,0.414,0.928,0.927v4.556C37.075,35.956,35.957,37.075,34.582,37.075z M2.779,30.953v3.629
			c0,0.352,0.287,0.639,0.639,0.639h31.164c0.353,0,0.639-0.287,0.639-0.639v-3.629H25.104l-0.705,1.749
			c-0.142,0.351-0.481,0.58-0.86,0.58h-9.094c-0.377,0-0.719-0.229-0.86-0.58l-0.704-1.749H2.779z"/>
		<path fill="#224653" d="M32.127,11.793h-2.645V9.741c0-0.429-0.293-0.801-0.709-0.901l-1.705-0.41
			c-0.094-0.263-0.202-0.521-0.324-0.775l0.907-1.472c0.228-0.368,0.17-0.843-0.138-1.147l-2.198-2.164
			c-0.3-0.296-0.764-0.352-1.126-0.135l-1.504,0.899c-0.262-0.124-0.531-0.234-0.806-0.331l-0.416-1.677
			c-0.102-0.413-0.474-0.704-0.899-0.704h-3.109c-0.425,0-0.797,0.291-0.899,0.704l-0.415,1.669
			c-0.274,0.096-0.543,0.206-0.807,0.329l-1.51-0.903C13.463,2.506,13,2.562,12.699,2.858l-2.197,2.165
			c-0.309,0.303-0.367,0.778-0.14,1.146l0.904,1.465c-0.123,0.252-0.232,0.511-0.328,0.773L9.227,8.82
			c-0.416,0.1-0.709,0.473-0.709,0.901v2.072H5.873c-1.363,0-2.472,1.108-2.472,2.472v9.5c0,0.512,0.415,0.927,0.927,0.927
			s0.927-0.415,0.927-0.927v-9.5c0-0.341,0.277-0.619,0.618-0.619h26.254c0.342,0,0.618,0.278,0.618,0.619v9.5
			c0,0.512,0.415,0.927,0.927,0.927s0.927-0.415,0.927-0.927v-9.5C34.599,12.901,33.49,11.793,32.127,11.793z M16.647,11.261
			c0-1.3,1.055-2.357,2.353-2.357c1.297,0,2.353,1.058,2.353,2.357c0,0.181-0.021,0.359-0.061,0.532h-4.584
			C16.668,11.62,16.647,11.442,16.647,11.261z M27.628,11.793h-4.457c0.023-0.175,0.035-0.352,0.035-0.532
			c0-2.322-1.887-4.211-4.206-4.211c-2.319,0-4.206,1.889-4.206,4.211c0,0.18,0.012,0.356,0.035,0.532h-4.457v-1.342l1.503-0.362
			c0.324-0.078,0.581-0.323,0.673-0.642c0.141-0.483,0.339-0.951,0.59-1.393c0.167-0.294,0.161-0.656-0.017-0.944l-0.793-1.286
			l1.162-1.143l1.334,0.797c0.282,0.168,0.632,0.175,0.921,0.017c0.451-0.246,0.929-0.441,1.421-0.578
			c0.322-0.09,0.57-0.346,0.65-0.669l0.365-1.47h1.66l0.365,1.476c0.082,0.323,0.328,0.579,0.648,0.669
			c0.492,0.139,0.971,0.335,1.421,0.583c0.288,0.158,0.641,0.152,0.923-0.017l1.328-0.794l1.161,1.144l-0.797,1.29
			c-0.176,0.288-0.184,0.648-0.018,0.942c0.25,0.442,0.446,0.911,0.585,1.394c0.093,0.321,0.351,0.567,0.675,0.645l1.496,0.361
			V11.793z"/>
	</g>
	<g>
		<polygon fill="#224653" points="10.103,22.548 15.737,25.449 15.737,23.672 12.367,21.983 15.737,20.294 15.737,18.516 
			10.103,21.418 		"/>
		<polygon fill="#224653" points="16.72,25.546 18.422,25.546 21.614,17.281 19.901,17.281 		"/>
		<polygon fill="#224653" points="22.263,18.518 22.263,20.295 25.656,21.983 22.263,23.672 22.263,25.448 27.897,22.559 
			27.897,21.408 		"/>
	</g>
	<circle fill="#224653" cx="33.684" cy="26.78" r="1.004"/>
	<circle fill="#224653" cx="4.331" cy="26.78" r="1.004"/>
</g>
</svg>
