<?xml version="1.0" encoding="utf-8"?>
<!-- Generator: Adobe Illustrator 16.0.3, SVG Export Plug-In . SVG Version: 6.00 Build 0)  -->
<!DOCTYPE svg PUBLIC "-//W3C//DTD SVG 1.1//EN" "http://www.w3.org/Graphics/SVG/1.1/DTD/svg11.dtd">
<svg version="1.1" id="Layer_1" xmlns="http://www.w3.org/2000/svg" xmlns:xlink="http://www.w3.org/1999/xlink" x="0px" y="0px"
	 width="38px" height="38px" viewBox="0 0 38 38" enable-background="new 0 0 38 38" xml:space="preserve">
<g>
	<g>
		<path fill="#224653" stroke="#224653" stroke-width="0.3" stroke-miterlimit="10" d="M32.293,30.236V17.833
			c3.101-2.368,2.142-7.385-1.635-8.4c-0.452-2.593-2.764-4.34-5.075-4.34c-2.197-5.581-10.259-5.525-12.289,0.112
			C10.306,4.642,7.545,6.671,7.093,9.49c-3.495,1.24-4.341,5.919-1.353,8.287v12.404l-1.86,6.145
			c-0.113,0.338,0.169,0.732,0.507,0.732h29.146l0,0c0.45,0,0.677-0.452,0.507-0.847L32.293,30.236z M14.365,19.863l2.763,3.271
			c0.225,0.282,0.619,0.282,0.845,0l2.762-3.271c0.339-0.338,0.058-0.902-0.451-0.902h-0.732v-8.906
			c0-0.338-0.226-0.564-0.564-0.564h-0.112l1.521-1.804l1.521,1.804h-0.112c-0.337,0-0.564,0.226-0.564,0.564v4.735
			c0,0.338,0.228,0.563,0.564,0.563h7.78c0.844,0,1.578,0.676,1.578,1.578v12.797h-7.329c-0.168,0-0.337,0.112-0.45,0.226
			l-0.677,1.016h-7.328l-0.676-1.016c-0.114-0.168-0.282-0.226-0.452-0.226H6.924V16.875c0-0.846,0.676-1.578,1.579-1.578h7.216
			v3.607h-0.789C14.309,18.904,14.028,19.468,14.365,19.863z M7.714,10.504c0.226-0.056,0.395-0.281,0.395-0.507
			c0.226-2.536,2.706-4.34,5.355-3.551c0.282,0.112,0.619-0.057,0.676-0.395c1.465-5.13,8.795-5.299,10.485-0.169
			c0.058,0.282,0.34,0.395,0.622,0.395c1.916-0.226,4.113,1.352,4.34,3.72c0,0.226,0.225,0.451,0.449,0.507
			c2.821,0.507,3.835,3.89,2.199,5.863c-0.225-1.24-1.353-2.143-2.648-2.143h-7.216v-3.607h0.789c0.508,0,0.733-0.563,0.451-0.902
			l-2.763-3.27c-0.226-0.282-0.62-0.282-0.846,0l-2.762,3.27c-0.338,0.338-0.058,0.902,0.451,0.902h0.732v8.85
			c0,0.338,0.226,0.565,0.564,0.565h0.112l-1.521,1.804l-1.521-1.804h0.112c0.337,0,0.564-0.227,0.564-0.565v-4.735
			c0-0.338-0.227-0.563-0.564-0.563H8.39c-1.297,0-2.368,0.902-2.65,2.143C4.162,14.338,5.12,11.238,7.714,10.504z M5.177,35.93
			l1.522-5.017h7.159l0.676,1.015c0.112,0.17,0.282,0.225,0.451,0.225h7.95c0.168,0,0.337-0.112,0.45-0.225l0.677-1.015h7.159
			l1.521,5.017H5.177z"/>
	</g>
	<g>
		<path fill="#224653" stroke="#224653" stroke-width="0.3" stroke-miterlimit="10" d="M14.365,17.89
			c0.339,0,0.564-0.225,0.564-0.563s-0.225-0.564-0.564-0.564H8.897c-0.338,0-0.563,0.226-0.563,0.564v10.431
			c0,0.337,0.225,0.563,0.563,0.563h20.239c0.339,0,0.563-0.226,0.563-0.563V17.326c0-0.338-0.225-0.564-0.563-0.564h-7.329
			c-0.337,0-0.564,0.226-0.564,0.564s0.228,0.563,0.564,0.563h6.765v9.303H9.461V17.89H14.365z"/>
	</g>
	<g>
		<path fill="#224653" stroke="#224653" stroke-width="0.3" stroke-miterlimit="10" d="M25.641,33.394H12.279
			c-0.338,0-0.563,0.226-0.563,0.563c0,0.339,0.225,0.564,0.563,0.564h13.361c0.337,0,0.564-0.226,0.564-0.564
			C26.205,33.675,25.978,33.394,25.641,33.394z"/>
	</g>
</g>
</svg>
