<?xml version="1.0" encoding="utf-8"?>
<!-- Generator: Adobe Illustrator 16.0.3, SVG Export Plug-In . SVG Version: 6.00 Build 0)  -->
<!DOCTYPE svg PUBLIC "-//W3C//DTD SVG 1.1//EN" "http://www.w3.org/Graphics/SVG/1.1/DTD/svg11.dtd">
<svg version="1.1" id="Layer_1" xmlns="http://www.w3.org/2000/svg" xmlns:xlink="http://www.w3.org/1999/xlink" x="0px" y="0px"
	 width="38px" height="38px" viewBox="0 0 38 38" enable-background="new 0 0 38 38" xml:space="preserve">
<g>
	<path fill="#224653" stroke="#224653" stroke-width="0.3063" stroke-miterlimit="10" d="M6.654,6.654
		c-6.82,6.817-6.824,17.871-0.007,24.692c6.815,6.819,17.87,6.824,24.69,0.009c0.003-0.004,0.005-0.007,0.008-0.009
		c6.819-6.816,6.825-17.871,0.008-24.692c-6.815-6.82-17.871-6.822-24.692-0.007C6.659,6.649,6.657,6.651,6.654,6.654z M7.478,7.477
		c2.745-2.759,6.392-4.437,10.273-4.725L16.217,4.67c-0.17,0.211-0.17,0.514,0,0.726l1.619,2.023
		c-4.554,0.454-8.342,3.544-9.815,7.716L5.227,16.19l-1.641-2.496C4.391,11.351,5.724,9.226,7.478,7.477z M8.524,19
		c0-5.777,4.699-10.476,10.476-10.476c5.776,0,10.475,4.699,10.475,10.476c0,5.775-4.698,10.474-10.475,10.474
		C13.223,29.475,8.524,24.775,8.524,19z M34.077,12.795l-2.309-0.87c-0.253-0.095-0.54-0.002-0.691,0.225l-1.424,2.166
		c-1.771-4.01-5.739-6.841-10.371-6.952l-1.864-2.332l1.859-2.325C25.779,2.824,31.592,6.786,34.077,12.795L34.077,12.795z
		 M30.522,30.522c-0.311,0.311-0.631,0.606-0.962,0.888l0.114-2.451c0.013-0.272-0.165-0.517-0.429-0.59l-2.505-0.687
		c3.374-3,4.704-7.684,3.413-12.01l1.641-2.494l2.796,1.053c0.469,1.546,0.705,3.153,0.704,4.768
		C35.308,23.324,33.588,27.473,30.522,30.522z M19,35.295c-3.018,0.008-5.978-0.828-8.545-2.415l2.373-0.65
		c0.262-0.072,0.44-0.317,0.427-0.589l-0.12-2.591c3.896,2.279,8.759,2.095,12.47-0.472l2.887,0.792l-0.139,2.979
		C25.614,34.275,22.347,35.305,19,35.295z M2.705,19c-0.001-1.294,0.152-2.581,0.454-3.84l1.352,2.057
		c0.15,0.229,0.437,0.322,0.692,0.225l2.424-0.914c-0.958,4.409,0.72,8.974,4.305,11.713l0.139,2.988l-2.874,0.789
		c-0.607-0.459-1.18-0.959-1.719-1.496C4.413,27.473,2.693,23.324,2.705,19z"/>
	<path fill="#224653" stroke="#224653" stroke-width="0.3063" stroke-miterlimit="10" d="M13.18,23.074h-1.164v1.163h13.969v-1.163
		h-1.165v-5.82c0-0.322-0.26-0.583-0.58-0.583h-2.91v-1.746c0-0.32-0.262-0.581-0.583-0.581h-2.911v-1.747
		c0-0.321-0.259-0.582-0.582-0.582h-3.492c-0.32,0-0.582,0.261-0.582,0.582V23.074z M16.671,13.18v9.894h-2.327V13.18H16.671z
		 M20.165,15.508v7.566h-2.33v-7.566H20.165z M23.656,23.074h-2.327v-5.238h2.327V23.074z"/>
	
		<rect x="21.329" y="25.401" fill="#224653" stroke="#224653" stroke-width="0.3063" stroke-miterlimit="10" width="2.327" height="1.165"/>
	
		<rect x="17.835" y="25.401" fill="#224653" stroke="#224653" stroke-width="0.3063" stroke-miterlimit="10" width="2.33" height="1.165"/>
	
		<rect x="14.345" y="25.401" fill="#224653" stroke="#224653" stroke-width="0.3063" stroke-miterlimit="10" width="2.327" height="1.165"/>
</g>
</svg>
