<?xml version="1.0" encoding="utf-8"?>
<!-- Generator: Adobe Illustrator 16.0.0, SVG Export Plug-In . SVG Version: 6.00 Build 0)  -->
<!DOCTYPE svg PUBLIC "-//W3C//DTD SVG 1.1//EN" "http://www.w3.org/Graphics/SVG/1.1/DTD/svg11.dtd">
<svg version="1.1" id="Layer_1" xmlns="http://www.w3.org/2000/svg" xmlns:xlink="http://www.w3.org/1999/xlink" x="0px" y="0px"
	 width="40px" height="40px" viewBox="0 0 40 40" enable-background="new 0 0 40 40" xml:space="preserve">
<g>
	<path fill-rule="evenodd" clip-rule="evenodd" fill="#0077FF" d="M20.908,1.685c0.731,0.095,1.468,0.158,2.191,0.29
		c3.855,0.702,7.128,2.496,9.784,5.369c2.285,2.473,3.729,5.39,4.337,8.709c0.641,3.497,0.232,6.878-1.159,10.145
		c-0.213,0.499-0.683,0.706-1.132,0.521c-0.425-0.176-0.59-0.635-0.428-1.146c0.348-1.099,0.798-2.178,1.016-3.302
		c0.903-4.666-0.12-8.91-2.958-12.72c-0.029-0.038-0.062-0.071-0.094-0.106c-0.008-0.008-0.021-0.011,0.004,0.001
		c-1.405,0.518-2.786,1.026-4.117,1.517c0.246,1.448,0.501,2.9,0.734,4.356c0.075,0.47,0.102,0.948,0.134,1.424
		c0.041,0.59-0.248,0.974-0.751,1.026c-0.467,0.049-0.862-0.331-0.911-0.896c-0.15-1.783-0.418-3.548-0.856-5.284
		c-0.018-0.069-0.04-0.137-0.048-0.163c-1.932,0.246-3.851,0.488-5.815,0.737c0,0.06,0,0.187,0,0.314
		c0,1.442,0.001,2.886-0.002,4.328c-0.001,0.513-0.208,0.818-0.611,0.938c-0.459,0.136-0.942-0.149-1.03-0.622
		c-0.03-0.162-0.034-0.331-0.034-0.498c-0.003-1.371-0.002-2.742-0.002-4.113c0-0.14,0-0.279,0-0.336
		c-1.969-0.266-3.877-0.522-5.845-0.789c-0.154,0.742-0.352,1.538-0.479,2.345c-0.156,0.987-0.253,1.984-0.376,2.977
		c-0.012,0.095-0.019,0.189-0.037,0.283c-0.095,0.506-0.468,0.831-0.9,0.786c-0.481-0.051-0.816-0.452-0.76-0.993
		c0.11-1.066,0.227-2.133,0.392-3.191c0.142-0.903,0.355-1.795,0.54-2.71c-0.079-0.033-0.152-0.069-0.228-0.097
		C10.27,10.354,9.069,9.93,7.875,9.488C7.665,9.411,7.55,9.423,7.406,9.616c-2.441,3.287-3.501,6.969-3.156,11.046
		c0.135,1.602,0.532,3.144,1.153,4.627c0.056,0.131,0.112,0.263,0.152,0.399c0.14,0.469-0.051,0.898-0.467,1.064
		c-0.433,0.173-0.911-0.006-1.084-0.478c-0.364-0.993-0.747-1.986-1.009-3.008C2.415,21,2.33,18.692,2.734,16.388
		c0.816-4.665,3.09-8.456,6.908-11.292c2.242-1.664,4.755-2.692,7.495-3.174c0.655-0.114,1.322-0.16,1.983-0.237
		C19.716,1.685,20.313,1.685,20.908,1.685z M20.855,3.338c0,2.411,0,4.717,0,7.022c1.31,0.041,4.633-0.39,5.268-0.679
		c0.001-0.022,0.01-0.048,0.003-0.068c-0.636-1.978-1.456-3.874-2.473-5.686c-0.041-0.073-0.126-0.158-0.201-0.171
		C22.6,3.611,21.744,3.479,20.855,3.338z M19.13,3.344c-0.852,0.131-1.658,0.261-2.466,0.376c-0.222,0.031-0.355,0.128-0.454,0.333
		c-0.406,0.847-0.861,1.671-1.233,2.531c-0.433,1-0.799,2.029-1.205,3.074c1.802,0.419,3.557,0.667,5.358,0.719
		C19.13,8.037,19.13,5.743,19.13,3.344z M31.293,8.109c-1.595-1.596-3.342-2.767-5.338-3.572c0.642,1.599,1.271,3.168,1.921,4.786
		C28.985,8.929,30.104,8.532,31.293,8.109z M8.743,8.075c1.176,0.412,2.289,0.803,3.369,1.182c0.64-1.601,1.257-3.144,1.88-4.702
		C12.027,5.375,10.299,6.519,8.743,8.075z"/>
	<path fill-rule="evenodd" clip-rule="evenodd" fill="#0077FF" d="M13.468,38.315c-0.849-0.314-1.126-0.942-1.1-1.818
		c0.041-1.357,0.042-2.72,0.004-4.077c-0.081-2.912,2.235-5.291,5.083-5.296c1.801-0.002,3.603-0.033,5.4,0.029
		c2.45,0.085,4.577,2.151,4.705,4.6c0.09,1.699,0.047,3.408,0.045,5.112c0,0.754-0.465,1.182-1.116,1.45
		C22.149,38.315,17.809,38.315,13.468,38.315z M25.902,36.61c0.01-0.071,0.021-0.117,0.021-0.163
		c0.001-1.418,0.027-2.838-0.008-4.256c-0.048-1.951-1.511-3.367-3.473-3.388c-1.622-0.018-3.243-0.016-4.866-0.001
		c-2.047,0.017-3.521,1.515-3.529,3.567c-0.004,1.299-0.001,2.6,0,3.898c0,0.113,0.011,0.227,0.019,0.365
		c0.374,0,0.708-0.016,1.039,0.004c0.264,0.016,0.35-0.07,0.347-0.341c-0.014-1.156-0.007-2.313-0.005-3.47
		c0-0.226-0.005-0.454,0.023-0.678c0.043-0.337,0.254-0.528,0.592-0.564c0.341-0.036,0.615,0.144,0.706,0.47
		c0.041,0.146,0.052,0.305,0.052,0.458c0.004,1.239,0.002,2.48,0.002,3.72c0,0.126,0,0.252,0,0.37c2.133,0,4.212,0,6.318,0
		c0-0.159,0-0.288,0-0.418c0-1.216-0.002-2.433,0.002-3.647c0-0.154,0.012-0.312,0.048-0.459c0.082-0.336,0.344-0.516,0.687-0.498
		c0.407,0.023,0.637,0.307,0.639,0.83c0.006,1.252,0.002,2.505,0.002,3.756c0,0.142,0,0.281,0,0.444
		C24.996,36.61,25.434,36.61,25.902,36.61z"/>
	<path fill-rule="evenodd" clip-rule="evenodd" fill="#0077FF" d="M4.096,38.315c-0.86-0.311-1.172-0.934-1.148-1.828
		c0.037-1.394,0-2.79,0.012-4.184c0.023-2.609,1.763-4.673,4.309-5.113c0.292-0.051,0.592-0.067,0.889-0.068
		c1.395-0.007,2.789-0.007,4.184-0.002c0.554,0.002,0.896,0.237,0.98,0.647c0.122,0.596-0.269,1.027-0.952,1.03
		c-1.395,0.006-2.79-0.005-4.184,0.004c-1.149,0.007-2.108,0.432-2.825,1.351c-0.471,0.604-0.703,1.296-0.708,2.056
		c-0.01,1.405-0.005,2.813-0.004,4.219c0,0.056,0.016,0.112,0.027,0.187c0.451,0,0.886,0,1.369,0c0-0.142,0-0.268,0-0.396
		c0-1.262-0.003-2.526,0.002-3.789c0.002-0.552,0.261-0.857,0.699-0.849c0.339,0.009,0.563,0.181,0.641,0.511
		c0.035,0.149,0.041,0.308,0.041,0.461c0.003,1.216,0.001,2.432,0.001,3.646c0,0.128,0,0.256,0,0.436c0.176,0,0.314,0,0.453,0
		c1.001,0.001,2.002-0.002,3.004,0.002c0.385,0.002,0.702,0.141,0.864,0.516c0.135,0.314,0.085,0.617-0.143,0.865
		c-0.115,0.126-0.285,0.201-0.43,0.299C8.818,38.315,6.457,38.315,4.096,38.315z"/>
	<path fill-rule="evenodd" clip-rule="evenodd" fill="#0077FF" d="M28.851,38.315c-0.13-0.079-0.28-0.138-0.387-0.24
		c-0.229-0.223-0.32-0.504-0.227-0.817c0.096-0.322,0.305-0.552,0.647-0.586c0.367-0.036,0.737-0.035,1.106-0.037
		c0.846-0.005,1.691-0.001,2.581-0.001c0.008-0.145,0.019-0.27,0.019-0.395c0.002-1.263-0.002-2.527,0.003-3.79
		c0.002-0.563,0.242-0.863,0.678-0.869c0.336-0.006,0.598,0.193,0.663,0.526c0.031,0.162,0.038,0.331,0.038,0.497
		c0.003,1.322,0.002,2.644,0.002,3.997c0.467,0,0.91,0,1.353,0c0.014-0.022,0.036-0.042,0.036-0.063
		c-0.002-1.536,0.049-3.076-0.022-4.61c-0.083-1.786-1.614-3.112-3.499-3.126c-1.395-0.011-2.788,0.002-4.184-0.004
		c-0.673-0.003-1.061-0.407-0.959-0.989c0.062-0.353,0.277-0.636,0.623-0.643c1.939-0.039,3.9-0.274,5.809,0.121
		c2.365,0.493,3.884,2.509,3.926,4.979c0.026,1.501,0.004,3.003,0.007,4.504c0.002,0.796-0.401,1.289-1.13,1.546
		C33.571,38.315,31.212,38.315,28.851,38.315z"/>
	<path fill-rule="evenodd" clip-rule="evenodd" fill="#0077FF" d="M29.45,18.352c2.144-0.002,3.893,1.737,3.901,3.876
		c0.009,2.144-1.77,3.924-3.91,3.911c-2.14-0.013-3.883-1.767-3.881-3.902C25.563,20.096,27.309,18.352,29.45,18.352z M31.66,22.246
		c0.002-1.214-0.973-2.202-2.191-2.22c-1.206-0.019-2.23,1.008-2.221,2.228c0.011,1.217,0.997,2.194,2.211,2.191
		C30.676,24.443,31.656,23.463,31.66,22.246z"/>
	<path fill-rule="evenodd" clip-rule="evenodd" fill="#0077FF" d="M19.981,18.352c2.16-0.006,3.926,1.753,3.916,3.898
		c-0.01,2.137-1.768,3.891-3.899,3.889c-2.138-0.001-3.886-1.75-3.888-3.89C16.107,20.099,17.838,18.356,19.981,18.352z
		 M22.209,22.253c0.007-1.215-0.961-2.2-2.184-2.227c-1.2-0.026-2.238,1.006-2.232,2.22c0.005,1.212,0.995,2.198,2.208,2.199
		C21.219,24.446,22.203,23.47,22.209,22.253z"/>
	<path fill-rule="evenodd" clip-rule="evenodd" fill="#0077FF" d="M14.478,22.241c0,2.143-1.742,3.892-3.881,3.897
		c-2.145,0.005-3.926-1.782-3.906-3.917c0.02-2.146,1.764-3.872,3.909-3.87C12.743,18.354,14.479,20.094,14.478,22.241z
		 M10.597,24.444c1.212-0.004,2.207-0.996,2.208-2.203c0.001-1.197-0.997-2.2-2.205-2.215c-1.211-0.015-2.224,1.005-2.217,2.23
		C8.391,23.471,9.38,24.45,10.597,24.444z"/>
</g>
</svg>
