<?xml version="1.0" encoding="utf-8"?>
<!-- Generator: Adobe Illustrator 16.0.0, SVG Export Plug-In . SVG Version: 6.00 Build 0)  -->
<!DOCTYPE svg PUBLIC "-//W3C//DTD SVG 1.1//EN" "http://www.w3.org/Graphics/SVG/1.1/DTD/svg11.dtd">
<svg version="1.1" id="Layer_1" xmlns="http://www.w3.org/2000/svg" xmlns:xlink="http://www.w3.org/1999/xlink" x="0px" y="0px"
	 width="40px" height="40px" viewBox="0 0 40 40" enable-background="new 0 0 40 40" xml:space="preserve">
<g>
	<path fill-rule="evenodd" clip-rule="evenodd" fill="#0077FF" d="M7.045,38.021c-0.609-0.281-0.794-0.763-0.785-1.418
		c0.018-1.27,0.012-2.527,0.427-3.755c1.104-3.262,4.153-5.49,7.597-5.524c0.599-0.006,1.194-0.001,1.873-0.001
		c-0.036-0.61-0.023-1.208-0.12-1.787c-0.09-0.541-0.531-0.856-0.968-1.152c-1.626-1.101-2.757-2.584-3.403-4.44
		c-1.757-5.057,1.55-10.625,6.827-11.495c4.929-0.812,9.525,2.47,10.2,7.403c0.482,3.533-0.805,6.403-3.712,8.485
		c-0.761,0.544-1.194,1.157-1.113,2.104c0.024,0.278,0.004,0.56,0.004,0.882c0.618,0,1.212-0.005,1.807,0.001
		c1.586,0.015,3.063,0.433,4.377,1.324c2.345,1.592,3.568,3.818,3.668,6.653c0.016,0.435-0.022,0.871,0.01,1.302
		c0.05,0.656-0.173,1.137-0.78,1.419C24.316,38.021,15.682,38.021,7.045,38.021z M21.055,25.209c0.177,0,0.304,0,0.432,0
		c0.06,0,0.129,0.021,0.174-0.004c0.088-0.048,0.211-0.109,0.232-0.188c0.3-1.048,0.984-1.767,1.854-2.389
		c2.34-1.673,3.313-3.965,2.8-6.798c-0.685-3.796-4.567-6.193-8.284-5.175c-3.764,1.032-5.871,5.024-4.574,8.672
		c0.513,1.442,1.424,2.573,2.703,3.409c0.74,0.482,1.288,1.117,1.598,1.948c0.201,0.537,0.202,0.537,0.769,0.523
		c0.054-0.001,0.108-0.013,0.162-0.02c0.01-0.055,0.021-0.09,0.021-0.123c0.002-1.735,0.005-3.471-0.005-5.206
		c-0.001-0.121-0.078-0.267-0.164-0.357c-0.522-0.54-1.059-1.064-1.587-1.598c-0.292-0.295-0.427-0.643-0.312-1.057
		c0.227-0.825,1.172-1.05,1.813-0.427c0.435,0.423,0.852,0.864,1.308,1.329c0.446-0.45,0.854-0.868,1.269-1.279
		c0.51-0.507,1.143-0.547,1.59-0.107s0.416,1.083-0.085,1.591c-0.487,0.493-0.973,0.986-1.471,1.465
		c-0.174,0.167-0.25,0.335-0.246,0.58c0.014,1.02,0.005,2.041,0.005,3.061C21.055,23.762,21.055,24.464,21.055,25.209z
		 M8.406,35.887c7.743,0,15.466,0,23.185,0c0.266-2.811-1.637-5.497-4.39-6.246c-1.097-0.299-2.213-0.184-3.323-0.197
		c-0.073-0.001-0.184,0.119-0.219,0.206c-0.652,1.623-2.021,2.599-3.659,2.599c-1.638,0.001-3.015-0.981-3.664-2.596
		c-0.039-0.095-0.186-0.207-0.284-0.21c-0.657-0.017-1.314-0.023-1.97-0.002C10.771,29.552,8.117,32.559,8.406,35.887z
		 M21.781,27.346c-1.219,0-2.371,0-3.541,0c0,0.374-0.008,0.724,0.002,1.074c0.024,0.883,0.693,1.608,1.564,1.709
		c0.879,0.1,1.72-0.479,1.892-1.366C21.786,28.312,21.757,27.836,21.781,27.346z"/>
	<path fill-rule="evenodd" clip-rule="evenodd" fill="#0077FF" d="M20.28,1.979c0.608,0.281,0.824,0.76,0.783,1.416
		c-0.036,0.56-0.003,1.124-0.01,1.686C21.048,5.731,20.601,6.201,20,6.201c-0.603,0-1.048-0.471-1.055-1.121
		c-0.006-0.563,0.026-1.126-0.009-1.686c-0.042-0.655,0.174-1.135,0.781-1.416C19.905,1.979,20.093,1.979,20.28,1.979z"/>
	<path fill-rule="evenodd" clip-rule="evenodd" fill="#0077FF" d="M7.822,8.98c0.194,0.073,0.399,0.123,0.58,0.223
		c0.563,0.31,1.119,0.634,1.672,0.961c0.588,0.348,0.779,0.962,0.475,1.491c-0.305,0.528-0.936,0.671-1.525,0.336
		c-0.591-0.334-1.181-0.667-1.761-1.018c-0.434-0.263-0.606-0.754-0.461-1.217C6.939,9.322,7.35,9.021,7.822,8.98z"/>
	<path fill-rule="evenodd" clip-rule="evenodd" fill="#0077FF" d="M33.238,10.267c-0.004,0.194-0.163,0.501-0.484,0.695
		c-0.62,0.374-1.246,0.741-1.883,1.085c-0.531,0.288-1.147,0.098-1.428-0.404c-0.282-0.505-0.121-1.114,0.403-1.429
		c0.601-0.362,1.206-0.716,1.823-1.05C32.404,8.765,33.243,9.264,33.238,10.267z"/>
	<path fill-rule="evenodd" clip-rule="evenodd" fill="#0077FF" d="M12.945,3.873c0.394-0.001,0.709,0.162,0.91,0.497
		c0.373,0.621,0.74,1.247,1.083,1.884c0.277,0.515,0.094,1.12-0.39,1.405c-0.496,0.293-1.122,0.143-1.437-0.374
		c-0.372-0.608-0.732-1.225-1.067-1.854C11.658,4.709,12.147,3.882,12.945,3.873z"/>
	<path fill-rule="evenodd" clip-rule="evenodd" fill="#0077FF" d="M27.037,3.873c0.771,0,1.301,0.784,0.953,1.479
		c-0.344,0.689-0.743,1.353-1.157,2.003c-0.296,0.466-0.9,0.577-1.369,0.312c-0.476-0.269-0.688-0.873-0.426-1.367
		c0.354-0.67,0.743-1.324,1.138-1.974C26.364,4.018,26.672,3.876,27.037,3.873z"/>
</g>
</svg>
