<svg width="52" height="52" viewBox="0 0 52 52" fill="none" xmlns="http://www.w3.org/2000/svg">
<path fill-rule="evenodd" clip-rule="evenodd" d="M25.1814 29.1411C34.6489 39.0634 39.3825 44.0243 39.3825 44.0243C40.3459 44.8373 40.3459 46.1672 39.3825 46.9802C38.419 47.7933 36.8433 47.7933 35.8798 46.9802C36.8431 47.7933 36.8431 49.1231 35.8798 49.936C34.9164 50.749 33.3406 50.7491 32.3774 49.9362L30.4668 48.3239C31.4302 49.1368 31.4302 50.4666 30.4668 51.2797C29.5036 52.0927 27.9276 52.0927 26.9643 51.2797L23.5929 48.4346C24.5563 49.2475 24.5563 50.5773 23.5927 51.3904C22.6296 52.2032 21.0536 52.2032 20.0903 51.3904L6.27539 39.7318C6.27539 39.7318 7.20918 36.2016 9.07676 29.1411H25.1814Z" fill="#B0B8FF"/>
<path fill-rule="evenodd" clip-rule="evenodd" d="M27.7963 41.3555C27.4047 41.025 27.4047 40.4891 27.7963 40.1586C28.1879 39.828 28.8231 39.828 29.2147 40.1586L36.0375 45.9164C36.4291 46.2468 36.4291 46.7827 36.0375 47.1134C35.6459 47.4438 35.0109 47.4438 34.6191 47.1134L27.7963 41.3555ZM19.956 46.5621C19.5642 46.2317 19.5642 45.6956 19.956 45.3651C20.3475 45.0346 20.9825 45.0346 21.3743 45.3651L23.7674 47.3846C24.159 47.715 24.159 48.2511 23.7674 48.5816C23.3757 48.9122 22.7407 48.9121 22.349 48.5816L19.956 46.5621ZM23.876 43.9587L29.2062 48.4569C29.5977 48.7873 30.2329 48.7873 30.6246 48.4569C31.0163 48.1265 31.0161 47.5906 30.6246 47.2599L25.2944 42.7619C24.9029 42.4313 24.2679 42.4313 23.876 42.7619C23.4844 43.0924 23.4844 43.6283 23.876 43.9587Z" fill="#8A95FF"/>
<path fill-rule="evenodd" clip-rule="evenodd" d="M6.02734 27.1382L12.0557 28.1494L8.35736 43.8508L2.32899 42.8396L6.02734 27.1382Z" fill="#010E8C"/>
<path fill-rule="evenodd" clip-rule="evenodd" d="M46.4955 38.8927C46.3761 38.9311 41.7622 29.0952 41.6444 29.1324C37.2129 30.53 33.8154 31.0395 29.2496 27.8604C27.805 26.8547 25.8577 26.7431 24.4203 27.756L18.6083 31.8512C17.9135 32.3406 17.5328 33.021 17.7258 33.7672L19.4889 40.5852C23.9713 39.653 23.9504 36.9611 24.2662 34.1309C24.4182 33.0469 26.4939 33.3437 29.0992 35.3468L39.8201 44.5261L46.4955 38.8927Z" fill="#8A95FF"/>
<path fill-rule="evenodd" clip-rule="evenodd" d="M49.6875 42.8079L43.659 43.8191L39.9607 28.1178L45.9891 27.1065L49.6875 42.8079Z" fill="#010E8C"/>
<path fill-rule="evenodd" clip-rule="evenodd" d="M26 23.6641C32.5168 23.6641 37.8319 18.3489 37.8319 11.832C37.8319 5.31517 32.5168 0 26 0C19.4831 0 14.168 5.31517 14.168 11.832C14.168 18.3489 19.4831 23.6641 26 23.6641Z" fill="#8A95FF"/>
<path fill-rule="evenodd" clip-rule="evenodd" d="M26.0006 20.4597C30.7525 20.4597 34.6281 16.5838 34.6281 11.832C34.6281 7.08022 30.7525 3.20459 26.0006 3.20459C21.2487 3.20459 17.373 7.08022 17.373 11.832C17.373 16.5838 21.2487 20.4597 26.0006 20.4597Z" fill="#B0B8FF"/>
<path fill-rule="evenodd" clip-rule="evenodd" d="M28.6128 8.36821C28.9085 8.77629 28.8175 9.34697 28.4093 9.64272C28.0011 9.93867 27.4304 9.84746 27.1346 9.43918C27.0443 9.31436 26.9294 9.21361 26.7997 9.14699C26.6763 9.08371 26.5319 9.04776 26.3744 9.04776H25.7924C25.5362 9.04776 25.3026 9.15329 25.1327 9.3233C24.9627 9.49311 24.8573 9.72681 24.8573 9.98285C24.8573 10.2391 24.9626 10.4726 25.1327 10.6426C25.3026 10.8126 25.5362 10.9179 25.7924 10.9179H26.2057C26.9665 10.9179 27.6575 11.2286 28.1579 11.729C28.6583 12.2293 28.9689 12.9203 28.9689 13.6811C28.9689 14.4421 28.6582 15.1332 28.1579 15.6335C27.8183 15.9733 27.3906 16.2254 26.913 16.3523V16.7417C26.913 17.2466 26.5039 17.6558 25.999 17.6558C25.4942 17.6558 25.0849 17.2466 25.0849 16.7417V16.39C24.8344 16.339 24.5943 16.2533 24.37 16.1381C23.9784 15.9372 23.6406 15.6458 23.3853 15.2925C23.0915 14.8843 23.1842 14.3152 23.5924 14.0214C24.0005 13.7276 24.5697 13.8204 24.8635 14.2285C24.951 14.3496 25.066 14.4493 25.1984 14.5171C25.3218 14.5806 25.4662 14.6165 25.6237 14.6165H26.2058C26.4619 14.6165 26.6956 14.511 26.8654 14.341C27.0354 14.1712 27.1409 13.9375 27.1409 13.6812C27.1409 13.4252 27.0354 13.1915 26.8654 13.0217C26.6956 12.8517 26.4619 12.7462 26.2058 12.7462H25.7925C25.0317 12.7462 24.3406 12.4357 23.8402 11.9353C23.3398 11.4349 23.0293 10.744 23.0293 9.98295C23.0293 9.22225 23.3399 8.53111 23.8402 8.03082C24.1799 7.69099 24.6075 7.43891 25.085 7.31196V6.92236C25.085 6.4175 25.4943 6.0083 25.9991 6.0083C26.504 6.0083 26.9131 6.4175 26.9131 6.92236V7.27407C27.1637 7.32526 27.4038 7.41098 27.628 7.52595C28.0224 7.72846 28.3601 8.01873 28.6128 8.36821Z" fill="#0119FF"/>
</svg>
