<svg width="52" height="52" viewBox="0 0 52 52" fill="none" xmlns="http://www.w3.org/2000/svg">
<path fill-rule="evenodd" clip-rule="evenodd" d="M46.3658 38.8489V44.5824V44.5888H46.3627C46.3605 45.9224 45.8177 47.1322 44.9429 48.0074C44.0643 48.8866 42.854 49.4321 41.5224 49.4321H41.516V49.4289L29.6465 49.41V47.7913L41.516 47.8102V47.8071H41.5224C42.4092 47.8071 43.2128 47.4463 43.7939 46.8648C44.3792 46.2792 44.7426 45.4735 44.744 44.5888H44.7408V44.5824V38.8489H46.3658Z" fill="#B0B8FF"/>
<path fill-rule="evenodd" clip-rule="evenodd" d="M25.9996 1.82263C37.7223 1.82263 47.3135 11.414 47.3135 23.1365V32.2123H43.4542V23.1365C43.4542 13.5365 35.5995 5.68201 25.9996 5.68201C16.3996 5.68201 8.54492 13.5365 8.54492 23.1365V32.2123H4.68555V23.1365C4.68555 11.414 14.2768 1.82263 25.9996 1.82263Z" fill="#B0B8FF"/>
<path fill-rule="evenodd" clip-rule="evenodd" d="M44.066 25.6195H47.0426C49.1168 25.6195 50.814 27.3166 50.814 29.3908V37.1087C50.814 39.1829 49.1168 40.88 47.0426 40.88H44.066C43.5806 40.88 43.1836 40.483 43.1836 39.9976V26.5017C43.1836 26.0165 43.5806 25.6195 44.066 25.6195Z" fill="#010E8C"/>
<path fill-rule="evenodd" clip-rule="evenodd" d="M7.93346 25.6195H4.95687C2.88266 25.6195 1.18555 27.3166 1.18555 29.3908V37.1087C1.18555 39.1829 2.88266 40.88 4.95687 40.88H7.93356C8.41893 40.88 8.81594 40.483 8.81594 39.9976V26.5017C8.81584 26.0165 8.41883 25.6195 7.93346 25.6195Z" fill="#010E8C"/>
<path fill-rule="evenodd" clip-rule="evenodd" d="M14.0742 4.35988C17.6275 2.09117 21.7817 0.863281 25.9993 0.863281C30.2169 0.863281 34.371 2.09127 37.9243 4.35988L34.8377 9.2037C32.1731 7.50242 29.1592 6.63081 25.9993 6.63081C22.8395 6.63081 19.8254 7.50242 17.1609 9.2037L14.0742 4.35988Z" fill="#8A95FF"/>
<path fill-rule="evenodd" clip-rule="evenodd" d="M23.6186 46.1025H28.3818C29.7662 46.1025 30.8988 47.2351 30.8988 48.6196C30.8988 50.0041 29.7662 51.1367 28.3818 51.1367H23.6186C22.2342 51.1367 21.1016 50.0041 21.1016 48.6196C21.1016 47.2351 22.2341 46.1025 23.6186 46.1025Z" fill="#0119FF"/>
<path fill-rule="evenodd" clip-rule="evenodd" d="M37.7106 21.7056H21.1321C20.4333 21.7056 19.8633 22.2755 19.8633 22.9744V33.3627C19.8633 34.0616 20.4333 34.6315 21.1321 34.6315H30.5599L35.9321 38.4889V34.6315H37.7107C38.4095 34.6315 38.9795 34.0616 38.9795 33.3627V22.9744C38.9794 22.2755 38.4094 21.7056 37.7106 21.7056Z" fill="#010E8C"/>
<path fill-rule="evenodd" clip-rule="evenodd" d="M14.2905 18.5229H30.869C31.5678 18.5229 32.1377 19.0929 32.1377 19.7918V30.18C32.1377 30.8789 31.5678 31.4488 30.869 31.4488H21.4411L16.069 35.3062V31.4488H14.2904C13.5915 31.4488 13.0215 30.8789 13.0215 30.18V19.7918C13.0216 19.0929 13.5916 18.5229 14.2905 18.5229Z" fill="#8A95FF"/>
<path fill-rule="evenodd" clip-rule="evenodd" d="M16.8047 29.0301C16.356 29.0301 15.9922 28.6663 15.9922 28.2176C15.9922 27.7689 16.356 27.4051 16.8047 27.4051H28.3535C28.8022 27.4051 29.166 27.7689 29.166 28.2176C29.166 28.6663 28.8022 29.0301 28.3535 29.0301H16.8047ZM16.8047 25.7984C16.356 25.7984 15.9922 25.4346 15.9922 24.9859C15.9922 24.5372 16.356 24.1734 16.8047 24.1734H28.3535C28.8022 24.1734 29.166 24.5372 29.166 24.9859C29.166 25.4346 28.8022 25.7984 28.3535 25.7984H16.8047ZM16.8047 22.5667C16.356 22.5667 15.9922 22.2029 15.9922 21.7542C15.9922 21.3054 16.356 20.9417 16.8047 20.9417H28.3535C28.8022 20.9417 29.166 21.3054 29.166 21.7542C29.166 22.2029 28.8022 22.5667 28.3535 22.5667H16.8047Z" fill="#0119FF"/>
</svg>
