<svg width="52" height="50" viewBox="0 0 52 50" fill="none" xmlns="http://www.w3.org/2000/svg">
<path fill-rule="evenodd" clip-rule="evenodd" d="M12.4377 37.2404C15.8833 37.2404 18.6937 34.4302 18.6937 30.9846C18.6937 27.5387 15.8833 24.7285 12.4377 24.7285C8.99177 24.7285 6.18164 27.5387 6.18164 30.9846C6.18164 34.4303 8.99177 37.2404 12.4377 37.2404Z" fill="#010E8C"/>
<path fill-rule="evenodd" clip-rule="evenodd" d="M24.0134 49.8312C24.0134 43.4648 18.8047 38.256 12.4384 38.256C6.07202 38.256 0.863281 43.4649 0.863281 49.8312H24.0134Z" fill="#B0B8FF"/>
<path fill-rule="evenodd" clip-rule="evenodd" d="M39.5607 37.2404C43.0064 37.2404 45.8165 34.4302 45.8165 30.9846C45.8165 27.5387 43.0064 24.7285 39.5607 24.7285C36.115 24.7285 33.3047 27.5387 33.3047 30.9846C33.3048 34.4303 36.115 37.2404 39.5607 37.2404Z" fill="#0119FF"/>
<path fill-rule="evenodd" clip-rule="evenodd" d="M51.1365 49.8312C51.1365 43.4648 45.9279 38.256 39.5615 38.256C33.1952 38.256 27.9863 43.4648 27.9863 49.8312H51.1365Z" fill="#8A95FF"/>
<path fill-rule="evenodd" clip-rule="evenodd" d="M39.4965 3.83752H20.3862C19.5806 3.83752 18.9238 4.49453 18.9238 5.30002V17.2748C18.9238 18.0804 19.5807 18.7374 20.3862 18.7374H31.254L37.4465 23.1837V18.7374H39.4966C40.3022 18.7374 40.9592 18.0803 40.9592 17.2748V5.30002C40.9592 4.49453 40.3021 3.83752 39.4965 3.83752Z" fill="#010E8C"/>
<path fill-rule="evenodd" clip-rule="evenodd" d="M12.5017 0.168823H31.6118C32.4176 0.168823 33.0746 0.825831 33.0746 1.63142V13.6062C33.0746 14.4117 32.4175 15.0687 31.6118 15.0687H20.7444L14.5517 19.515V15.0687H12.5016C11.696 15.0687 11.0391 14.4116 11.0391 13.6062V1.63142C11.0391 0.825831 11.6961 0.168823 12.5017 0.168823Z" fill="#8A95FF"/>
<path fill-rule="evenodd" clip-rule="evenodd" d="M26.3457 2.92501C26.9089 2.36175 27.8224 2.36175 28.3856 2.92501C28.949 3.48838 28.949 4.40163 28.3856 4.965L21.0382 12.3124C20.4003 12.9505 19.3462 12.8502 18.8343 12.1168L15.6175 8.06895C15.1227 7.44658 15.2261 6.54074 15.8486 6.04593C16.471 5.55111 17.3768 5.65451 17.8716 6.27698L20.1397 9.13109L26.3457 2.92501Z" fill="#0119FF"/>
</svg>
