<svg width="579" height="260" viewBox="0 0 579 260" fill="none" xmlns="http://www.w3.org/2000/svg">
<path d="M121.056 255V193.889H0.222222L96.8889 5H142.722L63.5556 157.5H121.889V105.833L162.444 84.1667V157.5H193.833V193.889H163.278V255H121.056ZM505.462 255V193.889H384.628L481.295 5H527.128L447.962 157.5H506.295V105.833L546.851 84.1667V157.5H578.24V193.889H547.684V255H505.462Z" fill="#0119FF"/>
<path d="M294.37 260C278.629 260 265.018 256.296 253.536 248.889C242.24 241.296 232.796 231.204 225.203 218.611C217.796 206.019 212.24 192.037 208.536 176.667C205.018 161.296 203.259 145.741 203.259 130C203.259 114.259 205.018 98.7037 208.536 83.3333C212.24 67.963 217.796 53.9815 225.203 41.3889C232.796 28.7963 242.24 18.7963 253.536 11.3889C265.018 3.7963 278.629 4.76837e-06 294.37 4.76837e-06C310.111 4.76837e-06 323.629 3.7963 334.925 11.3889C346.407 18.7963 355.851 28.7963 363.259 41.3889C370.851 53.9815 376.407 67.963 379.925 83.3333C383.629 98.7037 385.481 114.259 385.481 130C385.481 145.741 383.629 161.296 379.925 176.667C376.407 192.037 370.851 206.019 363.259 218.611C355.851 231.204 346.407 241.296 334.925 248.889C323.629 256.296 310.111 260 294.37 260ZM294.37 219.167C302.703 219.167 309.74 216.481 315.481 211.111C321.407 205.741 326.129 198.704 329.648 190C333.351 181.111 336.036 171.481 337.703 161.111C339.37 150.556 340.203 140.185 340.203 130C340.203 119.63 339.37 109.259 337.703 98.8889C336.036 88.5185 333.351 78.9815 329.648 70.2778C326.129 61.3889 321.407 54.2592 315.481 48.8889C309.74 43.5185 302.703 40.8333 294.37 40.8333C286.036 40.8333 278.907 43.5185 272.981 48.8889C267.24 54.2592 262.518 61.3889 258.814 70.2778C255.296 78.9815 252.703 88.5185 251.036 98.8889C249.37 109.259 248.536 119.63 248.536 130C248.536 140.185 249.37 150.556 251.036 161.111C252.703 171.481 255.296 181.111 258.814 190C262.518 198.704 267.24 205.741 272.981 211.111C278.907 216.481 286.036 219.167 294.37 219.167Z" fill="#0D0E1D"/>
</svg>
