<svg xmlns="http://www.w3.org/2000/svg" version="1.1" xmlns:xlink="http://www.w3.org/1999/xlink" width="512" height="512" x="0" y="0" viewBox="0 0 492 492" style="enable-background:new 0 0 512 512" xml:space="preserve" class=""><g transform="matrix(1,0,0,1,0,45)"><path d="M123.309 87.031c15.972 0 28.968-13.453 28.968-29.992s-12.996-29.996-28.968-29.996c-15.97 0-28.965 13.457-28.965 29.996 0 16.535 12.996 29.992 28.965 29.992zm0-43.988c7.152 0 12.968 6.277 12.968 13.996 0 7.715-5.816 13.992-12.968 13.992-7.149 0-12.965-6.277-12.965-13.992 0-7.719 5.816-13.996 12.965-13.996zM191.45 87.031c15.972 0 28.964-13.453 28.964-29.992s-12.992-29.996-28.965-29.996c-15.972 0-28.969 13.457-28.969 29.996 0 16.535 12.997 29.992 28.97 29.992zm0-43.988c7.148 0 12.964 6.277 12.964 13.996 0 7.715-5.816 13.992-12.965 13.992-7.148 0-12.969-6.277-12.969-13.992 0-7.719 5.82-13.996 12.97-13.996zM55.172 87.031c15.973 0 28.965-13.453 28.965-29.992S71.145 27.043 55.172 27.043 26.207 40.5 26.207 57.039c0 16.535 12.992 29.992 28.965 29.992zm0-43.988c7.148 0 12.965 6.277 12.965 13.996 0 7.715-5.817 13.992-12.965 13.992S42.207 64.754 42.207 57.04c0-7.719 5.816-13.996 12.965-13.996zM332.535 274.7c2.64 0 4.68-.65 5.277-2.93l4.56-15.77h27.48l4.558 15.77c.602 2.28 2.64 3.027 5.281 3.027 4.2 0 9.84-2.809 9.84-6.527a5.599 5.599 0 0 0-.238-1.223l-23.16-75.492c-1.082-3.598-5.52-5.285-10.078-5.285-4.442 0-8.883 1.675-9.961 5.277l-23.16 75.476c-.114.391-.196.793-.239 1.2 0 3.84 5.64 6.476 9.84 6.476zm23.52-68.54L366.492 243h-20.879zM417.5 274.7c3.84 0 7.5-1.68 7.5-4.919v-78c0-3.36-3.66-4.8-7.5-4.8-3.96 0-7.5 1.44-7.5 4.8v78c0 3.239 3.54 4.918 7.5 4.918zm0 0" fill="#0119ff" opacity="1" data-original="#000000" class=""></path><path d="M484 140h-12V40.543C472 17.941 454.3 0 432.547 0H39.449C17.7 0 0 17.941 0 40.543v316.914C0 380.059 17.7 398 39.45 398h393.097C454.3 398 472 380.059 472 357.457V318h12a8.037 8.037 0 0 0 8-8.043V147.965a7.945 7.945 0 0 0-2.348-5.64A7.964 7.964 0 0 0 484 140zM39.45 16h393.097C445.477 16 456 26.762 456 40.543V97H16V40.543C16 26.762 26.52 16 39.45 16zM456 357.457C456 371.238 445.477 382 432.547 382H39.449C26.52 382 16 371.238 16 357.457V113h440v27H266.105a8.066 8.066 0 0 0-8.105 7.965v161.992a8.128 8.128 0 0 0 8.105 8.043H299v39a7.969 7.969 0 0 0 4.309 7.11 7.977 7.977 0 0 0 8.293-.598L374.777 318H456zM476 302H372.2a7.874 7.874 0 0 0-4.638 1.488L315 341.375v-31.418a8.035 8.035 0 0 0-8.086-7.957H274V156h202zm0 0" fill="#0119ff" opacity="1" data-original="#000000" class=""></path></g></svg>