<svg xmlns="http://www.w3.org/2000/svg" version="1.1" xmlns:xlink="http://www.w3.org/1999/xlink" width="512" height="512" x="0" y="0" viewBox="0 0 512 512" style="enable-background:new 0 0 512 512" xml:space="preserve" class=""><g><path d="M479.037 350.604c12.596-12.594 18.993-28.477 18.5-45.932l-4.79-169.053c-.445-15.755-16.168-29.87-33.128-29.87-.162 0-.326.001-.488.004-8.305.133-35.386 4.684-35.186 57.643l.35 91.833c.014 3.703-.385 7.22-1.217 10.61a33.274 33.274 0 0 0-4.537-5.61c-11.445-11.445-30.212-11.572-42.729-.286a7.85 7.85 0 0 0-.751.775c-14.915 17.634-33.184 33.03-47.862 45.402-5.115 4.311-9.946 8.382-13.897 11.944-16.155 14.561-18.306 34.792-18.278 52.662l.101 67.25-7.696-.066h-.173c-10.773 0-19.586 8.719-19.68 19.515l-.22 25.581c-.094 10.854 8.66 19.759 19.515 19.854l132.893 1.141h.174c5.181 0 10.069-2.004 13.784-5.655 3.756-3.692 5.85-8.614 5.895-13.858l.22-25.582c.045-5.245-1.963-10.202-5.655-13.958s-8.614-5.85-13.858-5.895l-15.408-.132v-14.193zM422.77 456.161c.403.41 1.078 1.294 1.066 2.604l-.22 25.583c-.011 1.31-.7 2.182-1.11 2.585a3.681 3.681 0 0 1-2.604 1.065l-132.893-1.141c-1.311-.011-2.183-.701-2.586-1.111s-1.078-1.294-1.066-2.604l.22-25.581c.011-1.311.701-2.184 1.111-2.587.406-.399 1.278-1.066 2.57-1.066l.032.001h.001l132.895 1.142c1.309.011 2.181.7 2.584 1.11zm-111.645-18.048-.101-67.412c-.023-15.064 1.534-30.429 12.99-40.753 3.755-3.385 8.269-7.189 13.496-11.595 15.017-12.656 33.676-28.381 49.384-46.851 6.267-5.354 14.93-5.368 20.333.038 6.559 6.558 4.5 13.591 1.088 18.773-8.648 9.936-17.33 18.367-26.429 27.205-3.935 3.821-8.003 7.773-12.207 11.978a7.999 7.999 0 0 0 .001 11.313 7.998 7.998 0 0 0 11.313-.001c4.12-4.121 8.146-8.031 12.04-11.812 8.684-8.435 16.999-16.511 25.378-25.935a7.974 7.974 0 0 0 1.606-1.599c.341-.452.671-.906.988-1.362a261.084 261.084 0 0 0 5.148-6.143c9.568-11.781 14.194-24.47 14.141-38.791l-.35-91.833c-.098-25.842 7.17-41.387 19.441-41.584l.231-.002c8.326 0 16.933 7.161 17.135 14.323l4.79 169.053c.371 13.132-4.278 24.626-13.819 34.165l-76.467 76.466a8.002 8.002 0 0 0-2.343 5.657v17.369zm-18.912 29.441c1.622-4.08 6.244-6.072 10.324-4.45s6.072 6.244 4.45 10.324-6.244 6.072-10.324 4.45-6.072-6.245-4.45-10.324zm-67.469-29.645h-.172l-7.698.066.102-67.249c.027-17.871-2.123-38.103-18.277-52.663-3.952-3.562-8.783-7.634-13.898-11.944-14.679-12.372-32.947-27.769-47.862-45.402a7.85 7.85 0 0 0-.751-.775c-12.518-11.284-31.284-11.159-42.729.286a33.261 33.261 0 0 0-4.536 5.609c-.832-3.389-1.23-6.906-1.217-10.608l.35-91.833c.2-52.959-26.881-57.509-35.186-57.643-17.136-.261-33.166 13.96-33.616 29.866l-4.79 169.055c-.493 17.454 5.904 33.337 18.499 45.931l74.124 74.122v14.193l-15.408.132c-5.244.045-10.166 2.139-13.858 5.895s-5.7 8.713-5.655 13.957l.22 25.583c.045 5.244 2.139 10.166 5.895 13.858 3.715 3.651 8.604 5.656 13.783 5.655h.174l132.895-1.141c10.854-.095 19.607-9 19.514-19.853l-.22-25.583c-.097-10.796-8.908-19.514-19.683-19.514zm-104.001-22.154-76.468-76.466c-9.54-9.539-14.189-21.033-13.818-34.164l4.79-169.054c.202-7.162 8.808-14.322 17.135-14.322.076 0 .154 0 .231.002 12.271.197 19.539 15.742 19.441 41.584l-.35 91.834c-.054 14.321 4.572 27.009 14.142 38.792a268.109 268.109 0 0 0 5.147 6.142c.317.456.647.91.988 1.362a8.053 8.053 0 0 0 1.606 1.599c8.379 9.424 16.693 17.5 25.378 25.935 3.894 3.781 7.92 7.691 12.04 11.812a7.998 7.998 0 0 0 11.313.001 7.999 7.999 0 0 0 .001-11.313c-4.204-4.204-8.272-8.156-12.207-11.978-9.099-8.838-17.78-17.27-26.428-27.205-3.413-5.183-5.472-12.216 1.086-18.773 5.403-5.404 14.068-5.393 20.334-.038 15.708 18.47 34.367 34.194 49.384 46.851 5.228 4.405 9.741 8.21 13.497 11.595 11.455 10.324 13.013 25.688 12.989 40.754l-.102 67.411-77.788.668v-17.369a7.994 7.994 0 0 0-2.341-5.66zm106.834 69.992c-.403.41-1.275 1.101-2.585 1.111l-132.895 1.141c-1.306.007-2.193-.663-2.604-1.065-.41-.403-1.1-1.275-1.11-2.585l-.22-25.584c-.012-1.31.663-2.193 1.066-2.604.402-.41 1.274-1.1 2.584-1.11l132.895-1.142h.001c1.33-.012 2.192.663 2.603 1.065.41.403 1.101 1.276 1.111 2.586l.22 25.583c.012 1.31-.663 2.194-1.066 2.604zm-7.79-18.193c1.622 4.08-.37 8.702-4.45 10.324s-8.702-.37-10.324-4.45.37-8.702 4.45-10.324 8.702.37 10.324 4.45zM184.874 206.43H330.98a7.997 7.997 0 0 0 7.954-8.852c-3.349-31.295-24.021-56.77-51.907-67.384 9.807-8.289 16.051-20.668 16.051-34.484 0-24.896-20.254-45.15-45.15-45.15s-45.15 20.254-45.15 45.15c0 13.816 6.244 26.195 16.051 34.484-27.888 10.614-48.56 36.09-51.908 67.385a7.997 7.997 0 0 0 7.953 8.851zm43.903-110.72c0-16.074 13.077-29.15 29.15-29.15s29.15 13.077 29.15 29.15c0 16.067-13.066 29.139-29.13 29.15h-.04c-16.063-.011-29.13-13.083-29.13-29.15zm29.13 45.15h.042c30.494.01 56.389 20.772 63.518 49.57H194.388c7.128-28.798 33.024-49.561 63.519-49.57zm74.141 105.151c-21.213 14.654-46.204 22.596-72.271 22.966-.637.01-1.272.014-1.908.014-17.883 0-35.328-3.579-51.451-10.483a8.002 8.002 0 0 1-14.928 2.946l-10.125-18.123a8 8 0 0 1 .113-7.999 7.966 7.966 0 0 1 6.984-3.902l20.758.293a8 8 0 0 1 7.886 8.112 7.956 7.956 0 0 1-1.829 4.979c35.081 13.915 76.093 9.852 107.678-11.967 3.635-2.51 8.617-1.6 11.129 2.035s1.6 8.618-2.036 11.129zm32.151-64.578a114.359 114.359 0 0 0-11.925-107.967 8 8 0 0 1 2.037-11.129 8 8 0 0 1 11.129 2.036c14.408 20.862 22.343 45.436 22.945 71.063.443 18.837-3.096 37.288-10.328 54.285a7.976 7.976 0 0 1 5.649 3.873 7.998 7.998 0 0 1-2.885 10.939l-17.938 10.451a7.995 7.995 0 0 1-8 .032 8 8 0 0 1-4.027-6.912l-.083-20.76a8 8 0 0 1 7.968-8.032h.033a7.98 7.98 0 0 1 5.425 2.121zM181.766 42.11a8 8 0 0 1 2.037-11.129c21.042-14.534 45.83-22.472 71.684-22.958 18.61-.344 36.795 3.178 53.571 10.3a8 8 0 0 1 14.77-2.703l10.562 17.873a8.001 8.001 0 0 1-6.807 12.07l-20.759.21h-.083a7.999 7.999 0 0 1-7.997-7.919 7.97 7.97 0 0 1 2.156-5.545c-35.141-14.042-76.393-9.997-108.005 11.836a7.997 7.997 0 0 1-11.129-2.035zm-43.773 44.693a8.001 8.001 0 0 1-3.061-14.992l18.237-9.918a8 8 0 0 1 11.819 7.232l-.528 20.753a8 8 0 0 1-8.2 7.794 7.958 7.958 0 0 1-4.711-1.685c-13.853 35.048-9.774 75.984 12.024 107.54a7.998 7.998 0 0 1-6.575 12.547 7.99 7.99 0 0 1-6.589-3.454c-14.67-21.235-22.611-46.254-22.967-72.351-.253-18.594 3.359-36.745 10.551-53.466z" fill="#0119ff" opacity="1" data-original="#000000"></path></g></svg>