<svg xmlns="http://www.w3.org/2000/svg" version="1.1" xmlns:xlink="http://www.w3.org/1999/xlink" width="512" height="512" x="0" y="0" viewBox="0 0 479.994 479.994" style="enable-background:new 0 0 512 512" xml:space="preserve" class=""><g><path d="M336.323 167.824a8 8 0 0 0 8.902-6.982C352.877 97.508 303.333 42 239.996 42c-58.449 0-106 47.552-106 106s47.551 106 106 106c34.704 0 67.263-17.034 87.095-45.566a8 8 0 1 0-13.138-9.132C297.11 223.533 269.463 238 239.996 238c-49.626 0-90-40.374-90-90s40.374-90 90-90c53.644 0 95.867 47.001 89.345 100.922a8 8 0 0 0 6.982 8.902z" fill="#0119ff" opacity="1" data-original="#000000" class=""></path><path d="M288.413 367.973h-1.707v-79.501c58.221-19.407 101.289-74.34 101.289-140.472 0-81.607-66.393-148-148-148s-148 66.393-148 148c0 80.197 63.742 145.606 143.607 147.936 4.427.137 8.102-3.347 8.23-7.763a8 8 0 0 0-7.763-8.23C164.253 277.847 107.996 219.891 107.996 148c0-72.785 59.215-132 132-132s132 59.215 132 132c0 58.567-39.27 110.746-95.497 126.89a8.001 8.001 0 0 0-5.792 7.689v93.394a8 8 0 0 0 8 8h9.707c3.665 0 5.829 4.095 3.762 7.123l-48.417 70.917c-1.805 2.644-5.712 2.653-7.523 0l-48.417-70.917c-2.066-3.027.095-7.123 3.762-7.123h9.707a8 8 0 0 0 8-8v-49.812a8 8 0 0 0-16 0v41.812h-1.707c-16.497 0-26.284 18.511-16.976 32.145l48.417 70.917c8.142 11.926 25.783 11.964 33.951 0l48.417-70.917c9.301-13.625-.468-32.145-16.977-32.145z" fill="#0119ff" opacity="1" data-original="#000000" class=""></path><path d="M130.707 332.879v-48.835a8 8 0 0 0-16 0v56.088a8 8 0 0 0 8 8h2.566c3.218 0 5.119 3.596 3.303 6.255L96.77 400.973c-1.591 2.33-5.014 2.333-6.607 0l-31.806-46.586c-1.814-2.657.083-6.255 3.303-6.255h2.566a8 8 0 0 0 8-8V208a8 8 0 0 0-16 0v124.879c-13.05 3.669-18.838 19.172-11.083 30.53l31.806 46.586c7.921 11.603 25.087 11.641 33.035 0l31.806-46.586c7.752-11.354 1.973-26.86-11.083-30.53zM423.764 332.879V208a8 8 0 0 0-16 0v132.132a8 8 0 0 0 8 8h2.566c3.217 0 5.119 3.596 3.303 6.255l-31.806 46.586c-1.591 2.33-5.014 2.333-6.607 0l-31.806-46.586c-1.815-2.658.083-6.255 3.303-6.255h2.566a8 8 0 0 0 8-8v-56.088a8 8 0 0 0-16 0v48.835c-13.083 3.678-18.822 19.195-11.083 30.53l31.806 46.586c7.922 11.605 25.088 11.64 33.035 0l31.806-46.586c7.768-11.378 1.948-26.867-11.083-30.53zM239.996 224a8 8 0 0 0 8-8v-10.71c17.638-3.026 30.922-15.799 30.922-31.054 0-23.998-21.6-28.378-37.371-31.577-18.722-3.797-24.551-6.484-24.551-15.896 0-8.53 10.515-15.737 22.961-15.737 8.497 0 16.299 3.293 20.363 8.594a8 8 0 0 0 12.698-9.734c-5.692-7.425-14.716-12.452-25.022-14.184V85a8 8 0 0 0-16 0v10.695c-17.678 3.002-31 15.791-31 31.068 0 23.998 21.6 28.378 37.371 31.577 18.722 3.797 24.551 6.484 24.551 15.896 0 8.53-10.515 15.737-22.961 15.737-8.497 0-16.299-3.293-20.363-8.594a8 8 0 0 0-12.698 9.734c5.706 7.444 14.761 12.478 25.1 14.199V216a8 8 0 0 0 8 8z" fill="#0119ff" opacity="1" data-original="#000000" class=""></path></g></svg>