<svg xmlns="http://www.w3.org/2000/svg" version="1.1" xmlns:xlink="http://www.w3.org/1999/xlink" width="512" height="512" x="0" y="0" viewBox="0 0 60 60" style="enable-background:new 0 0 512 512" xml:space="preserve" class=""><g><path d="M49.981.9a2.714 2.714 0 0 0-3.962 0l-9.34 10.619a2.681 2.681 0 0 0-.435 2.91A2.626 2.626 0 0 0 38.658 16H42v41a3 3 0 0 0 3 3h6a3 3 0 0 0 3-3V16h3.341a2.626 2.626 0 0 0 2.414-1.571 2.682 2.682 0 0 0-.434-2.91zm7.953 12.707a.64.64 0 0 1-.592.394H53a1 1 0 0 0-1 1V57a1 1 0 0 1-1 1h-6a1 1 0 0 1-1-1V15a1 1 0 0 0-1-1h-4.342a.64.64 0 0 1-.592-.394.705.705 0 0 1 .114-.766l9.341-10.616a.625.625 0 0 1 .958 0l9.342 10.62a.7.7 0 0 1 .113.764z" fill="#0119ff" opacity="1" data-original="#000000"></path><path d="M37 20h-6a3 3 0 0 0-3 3v34a3 3 0 0 0 3 3h6a3 3 0 0 0 3-3V23a3 3 0 0 0-3-3zm1 37a1 1 0 0 1-1 1h-6a1 1 0 0 1-1-1V23a1 1 0 0 1 1-1h6a1 1 0 0 1 1 1zM23 27h-6a3 3 0 0 0-3 3v27a3 3 0 0 0 3 3h6a3 3 0 0 0 3-3V30a3 3 0 0 0-3-3zm1 30a1 1 0 0 1-1 1h-6a1 1 0 0 1-1-1V30a1 1 0 0 1 1-1h6a1 1 0 0 1 1 1zM9 35H3a3 3 0 0 0-3 3v19a3 3 0 0 0 3 3h6a3 3 0 0 0 3-3V38a3 3 0 0 0-3-3zm1 22a1 1 0 0 1-1 1H3a1 1 0 0 1-1-1V38a1 1 0 0 1 1-1h6a1 1 0 0 1 1 1z" fill="#0119ff" opacity="1" data-original="#000000"></path></g></svg>