<svg xmlns="http://www.w3.org/2000/svg" version="1.1" xmlns:xlink="http://www.w3.org/1999/xlink" width="512" height="512" x="0" y="0" viewBox="0 0 512 512" style="enable-background:new 0 0 512 512" xml:space="preserve" class=""><g><path d="M418.9 60.7H269.4V19.4c0-7.4-6-13.4-13.4-13.4s-13.4 6-13.4 13.4v41.4H93.1c-36.8 0-66.8 29.9-66.8 66.8V338c0 36.8 29.9 66.8 66.8 66.8h80.8l-53.1 80.6c-4.1 6.2-2.4 14.4 3.8 18.5 2.3 1.5 4.8 2.2 7.3 2.2 4.3 0 8.6-2.1 11.2-6l62.8-95.3h100.2l62.8 95.3c2.6 3.9 6.8 6 11.2 6 2.5 0 5.1-.7 7.3-2.2 6.2-4.1 7.9-12.3 3.8-18.5l-53.1-80.6h80.8c36.8 0 66.8-29.9 66.8-66.8V127.5c0-36.8-30-66.8-66.8-66.8zM459 337.9c0 22.1-18 40.1-40.1 40.1H93.1C71 378 53 360 53 337.9V127.5c0-22.1 18-40.1 40.1-40.1h325.8c22.1 0 40.1 18 40.1 40.1z" fill="#0119ff" opacity="1" data-original="#000000"></path><path d="M412.2 158.8H99.8c-7.4 0-13.4 6-13.4 13.4s6 13.4 13.4 13.4h312.4c7.4 0 13.4-6 13.4-13.4s-6-13.4-13.4-13.4zM412.2 219.4H99.8c-7.4 0-13.4 6-13.4 13.4s6 13.4 13.4 13.4h312.4c7.4 0 13.4-6 13.4-13.4 0-7.5-6-13.4-13.4-13.4zM256 279.9H99.8c-7.4 0-13.4 6-13.4 13.4s6 13.4 13.4 13.4H256c7.4 0 13.4-6 13.4-13.4s-6-13.4-13.4-13.4z" fill="#0119ff" opacity="1" data-original="#000000"></path></g></svg>