<svg xmlns="http://www.w3.org/2000/svg" version="1.1" xmlns:xlink="http://www.w3.org/1999/xlink" width="512" height="512" x="0" y="0" viewBox="0 0 512 512" style="enable-background:new 0 0 512 512" xml:space="preserve" class=""><g transform="matrix(1.0499999999999994,0,0,1.0499999999999994,-12.79999999999984,-12.79999999999984)"><path d="M56 488a8 8 0 0 0 8 8h384a8 8 0 0 0 8-8V56a40.045 40.045 0 0 0-40-40H64a8 8 0 0 0-8 8zM440 56v24h-32V48a31.8 31.8 0 0 0-4.3-16H416a24.028 24.028 0 0 1 24 24zM72 32h304a16.019 16.019 0 0 1 16 16v40a8 8 0 0 0 8 8h40v384H72z" fill="#0119ff" opacity="1" data-original="#000000" class=""></path><path d="M400 416h-64a8 8 0 0 0 0 16h64a8 8 0 0 0 0-16zM400 448H272a8 8 0 0 0 0 16h128a8 8 0 0 0 0-16zM168 104a8.009 8.009 0 0 1 8 8 8 8 0 0 0 16 0 24.039 24.039 0 0 0-16-22.624V88a8 8 0 0 0-16 0v1.376A24 24 0 0 0 168 136a8 8 0 1 1-8 8 8 8 0 0 0-16 0 24.039 24.039 0 0 0 16 22.624V168a8 8 0 0 0 16 0v-1.376A24 24 0 0 0 168 120a8 8 0 0 1 0-16z" fill="#0119ff" opacity="1" data-original="#000000" class=""></path><path d="M248 128a80 80 0 1 0-80 80 80.091 80.091 0 0 0 80-80zm-80 64a64 64 0 1 1 64-64 64.072 64.072 0 0 1-64 64zM144 240h-32a8 8 0 0 0 0 16h32a8 8 0 0 0 0-16zM320 240H192a8 8 0 0 0 0 16h128a8 8 0 0 0 0-16zM400 240h-16a8 8 0 0 0 0 16h16a8 8 0 0 0 0-16zM144 272h-32a8 8 0 0 0 0 16h32a8 8 0 0 0 0-16zM320 272H192a8 8 0 0 0 0 16h128a8 8 0 0 0 0-16zM400 272h-16a8 8 0 0 0 0 16h16a8 8 0 0 0 0-16zM144 304h-32a8 8 0 0 0 0 16h32a8 8 0 0 0 0-16zM320 304H192a8 8 0 0 0 0 16h128a8 8 0 0 0 0-16zM400 304h-16a8 8 0 0 0 0 16h16a8 8 0 0 0 0-16zM144 336h-32a8 8 0 0 0 0 16h32a8 8 0 0 0 0-16zM320 336H192a8 8 0 0 0 0 16h128a8 8 0 0 0 0-16zM400 336h-16a8 8 0 0 0 0 16h16a8 8 0 0 0 0-16zM144 368h-32a8 8 0 0 0 0 16h32a8 8 0 0 0 0-16zM328 376a8 8 0 0 0-8-8H192a8 8 0 0 0 0 16h128a8 8 0 0 0 8-8zM400 368h-16a8 8 0 0 0 0 16h16a8 8 0 0 0 0-16zM400 128h-80a8 8 0 0 0 0 16h80a8 8 0 0 0 0-16zM400 160H280a8 8 0 0 0 0 16h120a8 8 0 0 0 0-16zM400 192H280a8 8 0 0 0 0 16h120a8 8 0 0 0 0-16z" fill="#0119ff" opacity="1" data-original="#000000" class=""></path></g></svg>