<svg xmlns="http://www.w3.org/2000/svg" version="1.1" xmlns:xlink="http://www.w3.org/1999/xlink" width="512" height="512" x="0" y="0" viewBox="0 0 4000 4000" style="enable-background:new 0 0 512 512" xml:space="preserve"><g transform="matrix(1.5000000000000018,0,0,1.5000000000000018,-1005.4999389648469,-1045.000091552739)"><path d="M1440.18 1857.677c8.963 8.963 20.71 13.445 32.457 13.445s23.495-4.483 32.457-13.445c17.927-17.925 17.927-46.989 0-64.914l-265.039-265.04c131.845-118.381 290.792-185.997 452.17-191.536l191.854 7.026c25.328.958 46.622-18.858 47.551-44.191.927-25.335-18.857-46.625-44.192-47.553l-193.451-7.085a51.426 51.426 0 0 0-3.142-.008c-199.17 6.349-394.153 95.142-549.032 250.02-17.927 17.925-17.927 46.989 0 64.914zM3190.796 999.436c-3.809-84.851-73.276-154.299-158.147-158.106-213.197-9.545-621.058 24.573-957.28 360.68-293.515 293.41-609.175 760.349-734.252 1086.143l-10.687 27.834 385.208 385.074 27.82-10.674c313.692-120.348 777.957-438.729 1079.922-740.589 151.035-150.979 257.592-330.302 316.715-532.985 49.738-170.511 55.024-321.087 50.701-417.377zM1738.134 2593.738l-300.387-300.282c20.385-50.042 45.118-103.198 73.356-158.294l384.534 384.533c-55.152 28.798-108.084 53.804-157.503 74.043zm1020.342-708.865c-215.471 215.393-514.86 439.027-778.837 588.998l-423.261-423.261c150.68-270.67 372.991-572.845 583.894-783.674 100.301-100.267 207.607-171.471 313.619-221.683 79.771 258.282 259.476 429.897 535.162 511.138-51.077 109.739-124.755 222.697-230.577 328.482zm266.232-413.786c-252.615-71.99-415.765-227.15-485.743-461.949 192.162-72.452 372.451-81.352 489.571-76.093 36.6 1.639 68.907 33.928 70.549 70.509 4.145 92.354-.934 269.859-74.377 467.533z" fill="#0119ff" opacity="1" data-original="#000000"></path><path d="M2367.734 1412.098c-139.209 0-252.463 113.254-252.463 252.463s113.254 252.463 252.463 252.463 252.463-113.254 252.463-252.463-113.254-252.463-252.463-252.463zm0 413.122c-88.587 0-160.658-72.07-160.658-160.659s72.071-160.658 160.658-160.658 160.658 72.07 160.658 160.658c.001 88.589-72.071 160.659-160.658 160.659zM969.461 1795.469l311.062 292.692c8.864 8.341 20.166 12.473 31.447 12.473 12.215 0 24.407-4.847 33.438-14.445 17.373-18.463 16.489-47.513-1.974-64.886l-310.039-291.731 80.896-77.836c18.268-17.575 18.83-46.634 1.252-64.903-17.578-18.267-46.635-18.83-64.903-1.25l-81.549 78.46c-.214.207-.426.415-.635.625-35.788 35.794-35.788 94.032 0 129.826.33.331.665.656 1.005.975zM2735.696 2100.64c-.254-.003-.504-.006-.758-.006-25.003 0-45.475 20.066-45.882 45.16l-2.961 183.024c-4.921 151.206-73.591 299.299-204.237 440.707l-242.325-242.324c-17.925-17.925-46.99-17.925-64.915 0-17.927 17.925-17.927 46.989 0 64.914l275.415 275.415c8.963 8.963 20.71 13.445 32.457 13.445s23.495-4.483 32.457-13.445c166.116-166.116 257.031-351.508 262.916-536.134.009-.241.014-.479.018-.72l2.968-183.397c.412-25.346-19.805-46.227-45.153-46.639zM2380.144 2895.488l-87.501 93.363-305.818-301.235c-18.061-17.793-47.123-17.569-64.914.49s-17.571 47.124.49 64.912l305.345 300.767c17.898 17.894 41.407 26.843 64.916 26.843s47.019-8.948 64.916-26.845c.35-.35 89.552-95.514 89.552-95.514 17.335-18.497 16.394-47.547-2.103-64.881-18.5-17.34-47.549-16.393-64.883 2.1zM1459.192 2527.202c-17.925-17.925-46.99-17.925-64.915 0l-459.024 459.024c-17.926 17.925-17.926 46.99 0 64.915 8.962 8.962 20.71 13.445 32.457 13.445s23.495-4.483 32.457-13.445l459.024-459.024c17.927-17.926 17.927-46.99.001-64.915zM1577.887 2733.762l-527.878 527.878c-17.926 17.925-17.926 46.99 0 64.915 8.963 8.962 20.71 13.445 32.457 13.445s23.495-4.483 32.457-13.445l527.878-527.878c17.927-17.925 17.927-46.99 0-64.915-17.925-17.925-46.989-17.925-64.914 0zM1275.583 2320.641c-17.928-17.925-46.99-17.925-64.917 0L843.447 2687.86c-17.925 17.925-17.925 46.99 0 64.915 8.964 8.962 20.711 13.445 32.459 13.445 11.747 0 23.495-4.483 32.459-13.445l367.219-367.219c17.925-17.926 17.925-46.99-.001-64.915z" fill="#0119ff" opacity="1" data-original="#000000"></path></g></svg>