<svg xmlns="http://www.w3.org/2000/svg" version="1.1" xmlns:xlink="http://www.w3.org/1999/xlink" width="512" height="512" x="0" y="0" viewBox="0 0 512 512" style="enable-background:new 0 0 512 512" xml:space="preserve" class=""><g><path d="M479.541 322.29c-5.323-9.223-13.952-15.828-24.297-18.601-10.344-2.772-21.12-1.368-30.343 3.958l-105.69 61.018a43.494 43.494 0 0 0-5.541-17.136c-5.774-10.095-15.087-17.323-26.222-20.354L168.2 298.719a7.825 7.825 0 0 0-1.051-.212c-17.982-2.383-34.395 2.002-48.786 13.024l-31.942 24.462-1.355-5.058v-.001c-2.147-8.014-10.419-12.786-18.429-10.641l-28.375 7.604c-8.014 2.148-12.786 10.416-10.638 18.43l41.135 153.519c1.8 6.715 7.896 11.154 14.539 11.154 1.285 0 2.591-.166 3.89-.514l28.375-7.603c8.014-2.149 12.786-10.417 10.639-18.431l-1.592-5.941c16.946-12.717 32.519-16.294 51.398-11.967l68.303 15.659c5.914 1.355 11.677 2.032 17.274 2.032 11.596 0 22.479-2.904 32.506-8.693l170.81-98.615c19.098-11.023 25.665-35.535 14.64-54.637zM83.967 494.786 43.325 343.105l26.533-7.109L110.5 487.677zm372.934-131.713-170.81 98.615c-11.414 6.589-23.911 8.201-38.205 4.922l-68.303-15.659c-21.69-4.973-40.38-1.555-59.387 11.093L90.902 352.716l37.19-28.482c10.916-8.361 22.842-11.612 36.44-9.932l118.713 32.311c7.011 1.909 12.884 6.476 16.537 12.86 3.652 6.385 4.613 13.763 2.704 20.774-3.968 14.576-19.055 23.205-33.632 19.24l-63.699-17.337a7.998 7.998 0 0 0-9.82 5.618 7.999 7.999 0 0 0 5.618 9.819l63.699 17.337a43.362 43.362 0 0 0 11.394 1.531c7.465 0 14.853-1.951 21.533-5.773 8.779-5.022 15.388-12.733 18.955-21.998L432.9 321.502c5.521-3.188 11.985-4.026 18.202-2.359 6.216 1.665 11.395 5.623 14.581 11.144 6.616 11.464 2.676 26.171-8.782 32.786zM295.18 64.578c-56.794 0-103 46.206-103 103s46.206 103 103 103 103-46.206 103-103-46.205-103-103-103zm0 190c-47.972 0-87-39.028-87-87s39.028-87 87-87 87 39.028 87 87-39.028 87-87 87zm0-164.271c-42.607 0-77.271 34.663-77.271 77.271s34.664 77.271 77.271 77.271 77.271-34.663 77.271-77.271-34.664-77.271-77.271-77.271zm0 138.541c-33.785 0-61.271-27.485-61.271-61.271s27.486-61.271 61.271-61.271 61.271 27.485 61.271 61.271-27.486 61.271-61.271 61.271zm24.503-46.426c0 10.396-6.982 19.193-16.503 21.948v2.619a8 8 0 0 1-16 0v-2.281a22.983 22.983 0 0 1-13.531-8.936 8 8 0 0 1 12.965-9.375c1.298 1.796 3.374 2.868 5.551 2.868h4.673c3.774 0 6.844-3.07 6.844-6.844s-3.07-6.844-6.844-6.844h-3.318c-12.596 0-22.844-10.248-22.844-22.844 0-10.396 6.982-19.193 16.502-21.948v-2.619a8 8 0 0 1 16 0v2.281a22.983 22.983 0 0 1 13.531 8.934 8 8 0 0 1-1.793 11.17 7.998 7.998 0 0 1-11.17-1.793c-1.299-1.796-3.375-2.868-5.553-2.868h-4.673c-3.774 0-6.844 3.07-6.844 6.844s3.07 6.844 6.844 6.844h3.318c12.598 0 22.845 10.248 22.845 22.844zm-129.389 58.87-5.285-2.238c23.981 36.882 65.363 59.847 110.171 59.847 30.182 0 59.658-10.499 83-29.563a8 8 0 0 1 10.121 12.393c-26.191 21.391-59.262 33.171-93.122 33.171-51.527 0-99.005-27.077-125.567-70.284l-2.119 7.72a8.003 8.003 0 0 1-7.71 5.884 8 8 0 0 1-7.719-10.12l7.51-27.356a7.996 7.996 0 0 1 4.226-5.081 8.01 8.01 0 0 1 6.607-.168l26.124 11.062c4.069 1.724 5.97 6.418 4.248 10.486a8 8 0 0 1-10.485 4.247zm-40.555-50.167a148.825 148.825 0 0 1-1.882-23.545c0-79.918 63.963-145.176 143.383-147.271l-5.619-5.688a8 8 0 1 1 11.382-11.244l19.937 20.182a7.998 7.998 0 0 1-.871 12.007l-22.642 17.093a7.967 7.967 0 0 1-4.814 1.615 8.001 8.001 0 0 1-4.827-14.385l4.581-3.458c-69.259 3.556-124.512 61.021-124.512 131.15 0 7.005.565 14.072 1.679 21.006a8 8 0 0 1-7.908 9.271 8.004 8.004 0 0 1-7.887-6.733zM337.196 34.47a8.002 8.002 0 0 1 10.321-4.635c27.633 10.505 51.254 28.896 68.31 53.182 17.452 24.851 26.677 54.092 26.677 84.562 0 24.835-6.102 48.77-17.774 70.212l7.696-2.012a8.001 8.001 0 0 1 4.047 15.481l-27.447 7.175a7.997 7.997 0 0 1-6.514-1.12 7.998 7.998 0 0 1-3.449-5.639l-3.481-28.155a8 8 0 0 1 6.958-8.921 8 8 0 0 1 8.921 6.958l.712 5.759c9.421-18.371 14.331-38.691 14.331-59.737 0-54.189-34.027-103.535-84.672-122.789a8.002 8.002 0 0 1-4.636-10.321z" fill="#0119ff" opacity="1" data-original="#000000" class=""></path></g></svg>