<svg xmlns="http://www.w3.org/2000/svg" version="1.1" xmlns:xlink="http://www.w3.org/1999/xlink" width="512" height="512" x="0" y="0" viewBox="0 0 64 64" style="enable-background:new 0 0 512 512" xml:space="preserve"><g><g data-name="Give Time"><path d="M61.687 26.451a4.316 4.316 0 0 0-4.493.218l-14.5 9.667A4.992 4.992 0 0 0 38 33H17a1 1 0 0 0-.707.293L10 39.586l-1.293-1.293a1 1 0 0 0-1.414 0l-5 5a1 1 0 0 0 0 1.414L3.586 46 .293 49.293a1 1 0 1 0 1.414 1.414L5 47.414 16.586 59l-3.293 3.293a1 1 0 1 0 1.414 1.414L18 60.414l1.293 1.293a1 1 0 0 0 1.414 0l5-5a1 1 0 0 0 0-1.414L24.414 54l3-3H39a.997.997 0 0 0 .6-.2l22.65-16.987A4.4 4.4 0 0 0 64 30.311a4.315 4.315 0 0 0-2.313-3.86ZM20 59.586 4.414 44 8 40.414 23.586 56Zm41.05-27.373L38.667 49H27a1 1 0 0 0-.707.293L23 52.586 11.414 41l6-6H38a3 3 0 0 1 0 6H25a1 1 0 0 0 0 2h13a4.99 4.99 0 0 0 4.942-4.426l15.362-10.241A2.377 2.377 0 0 1 62 30.311a2.391 2.391 0 0 1-.95 1.902ZM21.14 31a1 1 0 0 0 .891-1.453A18.716 18.716 0 0 1 20 21a19 19 0 0 1 38 0 17.385 17.385 0 0 1-.094 1.864 1 1 0 1 0 1.989.212A19.29 19.29 0 0 0 60 21a21 21 0 0 0-42 0 20.69 20.69 0 0 0 2.248 9.453.998.998 0 0 0 .893.547Z" fill="#0119ff" opacity="1" data-original="#000000"></path><path d="M54.303 25.802a1.001 1.001 0 0 0 1.209-.735A17.002 17.002 0 1 0 22 21a16.987 16.987 0 0 0 2.932 9.56 1 1 0 1 0 1.656-1.12A15.004 15.004 0 1 1 54 21a15.202 15.202 0 0 1-.432 3.593 1 1 0 0 0 .735 1.209Z" fill="#0119ff" opacity="1" data-original="#000000"></path><path d="M39 11a1 1 0 0 0 1-1V9a1 1 0 0 0-2 0v1a1 1 0 0 0 1 1ZM32.5 9.742a1 1 0 0 0-.366 1.366l.5.866a1 1 0 0 0 1.732-1l-.5-.866a1 1 0 0 0-1.366-.366ZM29.974 14.634l-.867-.5a1 1 0 1 0-1 1.732l.867.5a1 1 0 1 0 1-1.732ZM29 21a1 1 0 0 0-1-1h-1a1 1 0 0 0 0 2h1a1 1 0 0 0 1-1ZM28.608 28a.994.994 0 0 0 .5-.134l.866-.5a1 1 0 1 0-1-1.732l-.867.5A1 1 0 0 0 28.608 28ZM44.134 31.892a1 1 0 0 0 .867.5 1 1 0 0 0 .865-1.5l-.5-.866a1 1 0 0 0-1.732 1ZM48.026 27.366l.867.5a1 1 0 0 0 1-1.732l-.867-.5a1 1 0 1 0-1 1.732ZM52 21a1 1 0 0 0-1-1h-1a1 1 0 0 0 0 2h1a1 1 0 0 0 1-1ZM48.527 16.5a.994.994 0 0 0 .5-.134l.866-.5a1 1 0 1 0-1-1.732l-.867.5a1 1 0 0 0 .501 1.866ZM45.5 9.742a.999.999 0 0 0-1.366.366l-.5.866a1 1 0 0 0 1.732 1l.5-.866a1 1 0 0 0-.366-1.366ZM38 21a1 1 0 0 0 1 1h5a1 1 0 0 0 0-2h-4v-6a1 1 0 0 0-2 0Z" fill="#0119ff" opacity="1" data-original="#000000"></path></g></g></svg>