<svg width="64" height="64" viewBox="0 0 64 64" fill="none" xmlns="http://www.w3.org/2000/svg">
<path d="M32.0013 41.4C35.085 41.4 37.5537 39.7275 38.7762 36.8112C40.1675 33.4925 39.6713 29.2788 37.6463 27.2175C36.165 25.7113 34.3725 25.01 32.005 25.01C29.63 25.01 27.8338 25.7113 26.3525 27.2175C24.3275 29.2775 23.8312 33.4913 25.2225 36.81C26.4462 39.7262 28.9163 41.4 32.0013 41.4ZM27.4237 28.2687C28.62 27.0525 30.0325 26.5088 32.0062 26.5088C33.9712 26.5088 35.3812 27.0512 36.5775 28.2687C38.1838 29.9025 38.55 33.4737 37.3937 36.23C36.8187 37.6 35.355 39.8988 32.0013 39.8988C28.6463 39.8988 27.1813 37.6 26.6063 36.23C25.4513 33.4737 25.8175 29.9025 27.4237 28.2687ZM59.905 26.2162L55.7275 26.0225C55.3613 26.005 55.0713 25.7763 54.97 25.4237C54.4725 23.685 53.7738 21.9987 52.8913 20.4112C52.7125 20.09 52.7562 19.7225 53.0025 19.4513L55.8213 16.3575C56.66 15.4362 56.6275 14.025 55.7463 13.1438L50.8563 8.25375C49.975 7.3725 48.5638 7.34 47.6425 8.17875L44.55 10.9963C44.2787 11.2438 43.9113 11.2863 43.59 11.1075C42.0037 10.2262 40.3175 9.52625 38.5775 9.02875C38.225 8.9275 37.995 8.6375 37.9775 8.27125L37.7837 4.09375C37.725 2.85 36.7038 1.875 35.4575 1.875H28.5413C27.295 1.875 26.2738 2.85 26.2162 4.095L26.0225 8.2725C26.005 8.63875 25.7763 8.92875 25.4225 9.03C23.6825 9.5275 21.995 10.2275 20.41 11.1088C20.0887 11.2875 19.7213 11.245 19.45 10.9975L16.3563 8.17875C15.435 7.34 14.0238 7.3725 13.1425 8.25375L8.2525 13.1438C7.37125 14.025 7.33875 15.4362 8.1775 16.3575L10.9963 19.45C11.2438 19.7213 11.2863 20.0887 11.1075 20.41C10.2262 21.995 9.52625 23.6825 9.02875 25.4225C8.9275 25.775 8.6375 26.005 8.27125 26.0212L4.09375 26.215C2.85 26.275 1.875 27.2962 1.875 28.5425V35.4588C1.875 36.705 2.85 37.7262 4.095 37.7837L8.2725 37.9775C8.63875 37.995 8.92875 38.2237 9.03 38.5762C9.5275 40.3175 10.2275 42.0037 11.1088 43.5887C11.2875 43.91 11.2438 44.2775 10.9975 44.5488L8.17875 47.6425C7.33875 48.5638 7.3725 49.975 8.25375 50.8563L13.1438 55.7463C13.2525 55.855 13.3713 55.9487 13.495 56.0325C13.48 56.2962 13.47 56.5612 13.47 56.8275V61.375C13.47 61.7887 13.8063 62.125 14.22 62.125H49.7788C50.1925 62.125 50.5288 61.7887 50.5288 61.375V56.8275C50.5288 56.5612 50.5187 56.2962 50.5037 56.0325C50.6287 55.9487 50.7475 55.855 50.8563 55.7463L55.7463 50.8563C56.6275 49.975 56.66 48.5638 55.8213 47.6425L53.0025 44.55C52.755 44.2787 52.7125 43.9113 52.8913 43.59C53.7738 42.0025 54.4725 40.3162 54.97 38.5775C55.0713 38.225 55.3613 37.995 55.7275 37.9775L59.905 37.7837C61.15 37.7262 62.125 36.705 62.125 35.4588V28.5425C62.125 27.2962 61.15 26.275 59.905 26.2162ZM49.0288 60.625H43.2062V56.4188C43.2062 56.005 42.87 55.6688 42.4562 55.6688C42.0425 55.6688 41.7062 56.005 41.7062 56.4188V60.625H22.2938V56.4188C22.2938 56.005 21.9575 55.6688 21.5438 55.6688C21.13 55.6688 20.7938 56.005 20.7938 56.4188V60.625H14.9712V56.8275C14.9712 51.5 18.2687 46.815 23.2362 44.99L31.3587 58.4188C31.495 58.6437 31.7375 58.7812 32 58.7812C32.2625 58.7812 32.5063 58.6437 32.6413 58.4188L40.7625 44.99C45.73 46.815 49.0275 51.5 49.0275 56.8275V60.625H49.0288ZM16.6812 32C16.6812 23.5537 23.5537 16.6812 32 16.6812C40.4463 16.6812 47.3187 23.5537 47.3187 32C47.3187 36.59 45.3088 40.86 41.7875 43.785C41.4175 43.6312 41.0412 43.4925 40.66 43.3713C40.33 43.2663 39.9712 43.4012 39.7912 43.6975L35.135 51.3963L34.47 47.1312L36.7762 43.9038C36.94 43.675 36.9613 43.375 36.8325 43.125C36.7038 42.875 36.4463 42.7188 36.165 42.7188H27.8275C27.5462 42.7188 27.2887 42.8763 27.16 43.125C27.0312 43.375 27.0537 43.6763 27.2162 43.9038L29.5275 47.1375L28.86 51.4L24.2025 43.6987C24.0238 43.4025 23.665 43.2675 23.335 43.3725C22.9537 43.4938 22.5775 43.6325 22.2075 43.7863C18.6912 40.86 16.6812 36.59 16.6812 32ZM30.93 46.5137L29.2887 44.2163H34.71L33.0737 46.5062C32.96 46.6662 32.9125 46.8638 32.9425 47.0575L33.9287 53.3913L32 56.5825L30.0713 53.3925L31.0613 47.065C31.0913 46.8713 31.045 46.6737 30.93 46.5137ZM60.625 35.4575C60.625 35.9012 60.2787 36.2637 59.835 36.285L55.6575 36.4787C54.6425 36.5262 53.8063 37.1875 53.5275 38.1637C53.0612 39.7925 52.4062 41.3725 51.58 42.86C51.0863 43.7487 51.2087 44.8075 51.8937 45.5588L54.7125 48.6525C55.0113 48.98 54.9987 49.4825 54.6862 49.7962L50.2825 54.2C49.89 52.1162 49.03 50.1512 47.7363 48.4162C46.5388 46.81 44.9963 45.47 43.2562 44.4975C46.805 41.3075 48.82 36.815 48.82 32.0013C48.82 22.7275 41.275 15.1825 32.0013 15.1825C22.7275 15.1825 15.1812 22.7262 15.1812 32C15.1812 36.8138 17.1963 41.3063 20.745 44.4963C19.005 45.4688 17.4625 46.8088 16.265 48.415C14.9712 50.15 14.1112 52.1162 13.7188 54.1987L9.315 49.795C9.00125 49.4812 8.99 48.98 9.28875 48.6512L12.1075 45.5575C12.7925 44.8062 12.915 43.7463 12.4213 42.8587C11.595 41.3737 10.94 39.7937 10.4738 38.1625C10.195 37.1862 9.35875 36.525 8.34375 36.4775L4.16625 36.2837C3.72375 36.2625 3.37625 35.9 3.37625 35.4562V28.54C3.37625 28.0963 3.7225 27.7337 4.16625 27.7125L8.34375 27.5187C9.35875 27.4712 10.195 26.81 10.4738 25.8337C10.94 24.2025 11.595 22.6225 12.4213 21.1375C12.915 20.2488 12.7925 19.19 12.1075 18.4387L9.2875 15.3475C8.98875 15.02 9.00125 14.5175 9.31375 14.205L14.2037 9.315C14.5175 9.00125 15.0187 8.99 15.3462 9.28875L18.44 12.1075C19.1912 12.7925 20.2512 12.915 21.1388 12.4213C22.6238 11.595 24.2037 10.94 25.835 10.4738C26.8112 10.195 27.4725 9.35875 27.52 8.34375L27.7138 4.16625C27.7338 3.72375 28.0975 3.37625 28.5413 3.37625H35.4575C35.9 3.37625 36.2637 3.7225 36.285 4.16625L36.4787 8.34375C36.5262 9.35875 37.1875 10.195 38.165 10.4738C39.795 10.94 41.375 11.595 42.8613 12.4213C43.75 12.915 44.8088 12.7913 45.56 12.1075L48.6525 9.29C48.98 8.99125 49.4825 9.0025 49.7962 9.31625L54.6862 14.2063C55 14.52 55.0113 15.0212 54.7125 15.3488L51.8937 18.4425C51.2087 19.1937 51.0863 20.2537 51.58 21.1413C52.4062 22.6287 53.0625 24.2087 53.5275 25.8375C53.8063 26.8137 54.6425 27.4762 55.6575 27.5225L59.835 27.7162C60.2775 27.7362 60.625 28.1 60.625 28.5438V35.4575Z" fill="#0119FF"/>
</svg>
