<svg width="64" height="64" viewBox="0 0 64 64" fill="none" xmlns="http://www.w3.org/2000/svg">
<path d="M54.6538 46.9826C54.6538 47.3964 54.3175 47.7326 53.9038 47.7326H46.1237C45.71 47.7326 45.3737 47.3964 45.3737 46.9826C45.3737 46.5689 45.71 46.2326 46.1237 46.2326H53.9038C54.3188 46.2326 54.6538 46.5689 54.6538 46.9826ZM50.2938 56.2564L44.705 53.0301C44.3463 52.8226 43.8875 52.9464 43.68 53.3051C43.4725 53.6639 43.5963 54.1226 43.955 54.3301L49.5438 57.5564C49.6625 57.6251 49.7912 57.6564 49.9175 57.6564C50.1763 57.6564 50.4288 57.5214 50.5675 57.2814C50.775 56.9214 50.6525 56.4626 50.2938 56.2564ZM44.3312 41.0376C44.4587 41.0376 44.5875 41.0051 44.705 40.9376L50.2938 37.7114C50.6525 37.5039 50.775 37.0451 50.5687 36.6864C50.3612 36.3276 49.9038 36.2051 49.5438 36.4114L43.955 39.6376C43.5963 39.8451 43.4738 40.3039 43.68 40.6626C43.82 40.9026 44.0713 41.0376 44.3312 41.0376ZM62.75 5.52262V19.3901C62.75 21.7464 60.8338 23.6626 58.4775 23.6626H42.0737V24.7814C42.0737 27.6714 39.7225 30.0214 36.8338 30.0214H24.3188L14.9663 36.1526C14.5525 36.4239 14.0888 36.5601 13.6225 36.5601C13.2238 36.5601 12.8238 36.4601 12.4513 36.2589C11.6438 35.8226 11.1625 35.0151 11.1625 34.0976V30.0214C8.30625 29.9826 5.995 27.6464 5.995 24.7814V12.9526C5.995 10.0626 8.34625 7.71262 11.235 7.71262H31.8088V5.52262C31.8088 3.16637 33.725 1.25012 36.0812 1.25012H58.4775C60.8338 1.25012 62.75 3.16637 62.75 5.52262ZM40.5737 23.6639H36.0812C33.725 23.6639 31.8088 21.7476 31.8088 19.3914V9.21262H11.235C9.1725 9.21262 7.495 10.8901 7.495 12.9526V24.7814C7.495 26.8439 9.1725 28.5214 11.235 28.5214H11.9125C12.3263 28.5214 12.6625 28.8576 12.6625 29.2714V34.0976C12.6625 34.4651 12.8413 34.7651 13.165 34.9401C13.4887 35.1151 13.8363 35.1001 14.145 34.8989L23.685 28.6451C23.8075 28.5651 23.95 28.5226 24.0963 28.5226H36.835C38.8975 28.5226 40.575 26.8451 40.575 24.7826V23.6639H40.5737ZM61.25 5.52262C61.25 3.99387 60.0063 2.75012 58.4775 2.75012H36.0812C34.5525 2.75012 33.3088 3.99387 33.3088 5.52262V19.3901C33.3088 20.9189 34.5525 22.1626 36.0812 22.1626H58.4775C60.0063 22.1626 61.25 20.9189 61.25 19.3901V5.52262ZM53.6375 12.4564C53.6375 13.0176 53.3475 13.5214 52.86 13.8026L43.9012 18.9751C43.6575 19.1151 43.3913 19.1864 43.1237 19.1864C42.8562 19.1864 42.59 19.1164 42.3462 18.9751C41.86 18.6939 41.5687 18.1914 41.5687 17.6289V7.28512C41.5687 6.72262 41.86 6.22012 42.3462 5.93887C42.8325 5.65762 43.4137 5.65762 43.9 5.93887L52.8587 11.1114C53.3475 11.3914 53.6375 11.8951 53.6375 12.4564ZM52.1375 12.4564C52.1375 12.4289 52.1338 12.4226 52.11 12.4089L43.1525 7.23762C43.1413 7.23137 43.1325 7.22762 43.125 7.22762C43.1175 7.22762 43.11 7.23137 43.0975 7.23762C43.0737 7.25137 43.07 7.25762 43.07 7.28512V17.6289C43.07 17.6564 43.0737 17.6626 43.0975 17.6764C43.1213 17.6901 43.1275 17.6901 43.1512 17.6764L52.11 12.5039C52.135 12.4901 52.1375 12.4839 52.1375 12.4564ZM38.0137 53.7676V57.4526C38.0137 60.0339 35.9137 62.1351 33.3312 62.1351C30.905 62.1351 28.9038 60.2801 28.6725 57.9139C24.6075 56.0126 20.0575 54.6301 14.7887 53.6976V60.1276C14.7887 61.5739 13.6112 62.7514 12.165 62.7514C9.53 62.7514 7.95875 61.9501 7.74125 60.4964L6.70375 53.5639C3.305 52.9739 1.25 49.8739 1.25 46.9789C1.25 43.7689 3.78375 40.3039 7.87625 40.3039H14.6075C19.955 39.3701 24.5612 37.9776 28.6737 36.0539C28.9062 33.6876 30.9062 31.8326 33.3325 31.8326C35.9137 31.8326 38.015 33.9326 38.015 36.5151V40.8164C41.2412 41.2064 43.7562 43.9676 43.7562 47.2926C43.755 50.6164 41.2412 53.3776 38.0137 53.7676ZM14.99 52.2076C20.1338 53.1151 24.6187 54.4414 28.65 56.2514V37.7139C24.6175 39.5239 20.1338 40.8501 14.99 41.7576V52.2076ZM7.87625 52.1626H13.49V41.8026H7.87625C4.38 41.8026 2.75 44.8914 2.75 46.9776C2.75 49.0689 4.37875 52.1626 7.87625 52.1626ZM13.2887 60.1264V53.6626H8.235L9.225 60.2726C9.32625 60.9476 10.775 61.2501 12.1663 61.2501C12.785 61.2501 13.2887 60.7464 13.2887 60.1264ZM36.5137 36.5139C36.5137 34.7589 35.0863 33.3314 33.3312 33.3314C31.5763 33.3314 30.1488 34.7589 30.1488 36.5139V57.4514C30.1488 59.2064 31.5763 60.6339 33.3312 60.6339C35.0863 60.6339 36.5137 59.2064 36.5137 57.4514V36.5139ZM42.255 47.2914C42.255 44.7926 40.4112 42.7064 38.0137 42.3276V52.2539C40.4125 51.8764 42.255 49.7889 42.255 47.2914ZM28.1725 13.0626H12.9963C12.5825 13.0626 12.2463 13.3989 12.2463 13.8126C12.2463 14.2264 12.5825 14.5626 12.9963 14.5626H28.1725C28.5863 14.5626 28.9225 14.2264 28.9225 13.8126C28.9225 13.3989 28.5863 13.0626 28.1725 13.0626ZM28.1725 17.9476H12.9963C12.5825 17.9476 12.2463 18.2839 12.2463 18.6976C12.2463 19.1114 12.5825 19.4476 12.9963 19.4476H28.1725C28.5863 19.4476 28.9225 19.1114 28.9225 18.6976C28.9225 18.2839 28.5863 17.9476 28.1725 17.9476ZM28.1725 22.8326H12.9963C12.5825 22.8326 12.2463 23.1689 12.2463 23.5826C12.2463 23.9964 12.5825 24.3326 12.9963 24.3326H28.1725C28.5863 24.3326 28.9225 23.9964 28.9225 23.5826C28.9225 23.1689 28.5863 22.8326 28.1725 22.8326Z" fill="#0119FF"/>
</svg>
