<svg xmlns="http://www.w3.org/2000/svg" version="1.1" xmlns:xlink="http://www.w3.org/1999/xlink" width="512" height="512" x="0" y="0" viewBox="0 0 96 96" style="enable-background:new 0 0 512 512" xml:space="preserve" class=""><g transform="matrix(1.0599999999999998,0,0,1.0599999999999998,-2.8800000000000026,-2.8800000000000026)"><path d="M48 5.5C24.565 5.5 5.5 24.565 5.5 48S24.565 90.5 48 90.5 90.5 71.435 90.5 48 71.435 5.5 48 5.5zm0 80c-20.678 0-37.5-16.822-37.5-37.5S27.322 10.5 48 10.5 85.5 27.322 85.5 48 68.678 85.5 48 85.5z" fill="#0119ff" opacity="1" data-original="#000000" class=""></path><path d="M67.394 34.32 45.336 56.377 34.019 45.061a2.5 2.5 0 1 0-3.536 3.535L43.568 61.68c.488.489 1.128.733 1.768.733s1.28-.244 1.768-.733l23.825-23.825a2.5 2.5 0 1 0-3.535-3.535z" fill="#0119ff" opacity="1" data-original="#000000" class=""></path></g></svg>