<svg xmlns="http://www.w3.org/2000/svg" version="1.1" xmlns:xlink="http://www.w3.org/1999/xlink" width="512" height="512" x="0" y="0" viewBox="0 0 512 512" style="enable-background:new 0 0 512 512" xml:space="preserve" class=""><g><path d="m478.213 163.221-46.805-80.939c-5.184-9.515-16.917-13.824-27.648-9.963l-52.885 21.248c-10.069-7.232-20.629-13.376-31.531-18.304L311.301 19.2C309.957 8.256 300.443 0 289.221 0h-93.867c-11.221 0-20.715 8.256-22.059 19.008l-8.064 56.277c-10.581 4.821-20.949 10.859-31.467 18.325L80.731 72.299c-10.389-4.032-22.229.235-27.456 9.771l-46.87 81.087c-5.632 9.557-3.307 21.952 5.44 28.864l44.8 35.029c-.683 6.763-1.024 12.672-1.024 18.283s.341 11.52 1.045 18.261l-44.864 35.072c-8.555 6.763-10.901 18.752-5.461 28.779l46.805 80.96c5.205 9.493 16.875 13.845 27.669 9.941l52.885-21.248c10.069 7.232 20.629 13.376 31.531 18.304l8.043 56.085c1.365 10.923 10.88 19.179 22.08 19.179h73.515c3.989 0 7.637-2.219 9.429-5.675a10.69 10.69 0 0 0-.704-11.029c-16.341-23.381-24.96-50.795-24.96-79.232 0-13.269 1.941-26.56 5.781-39.509a10.72 10.72 0 0 0-1.856-9.643c-2.133-2.709-5.483-4.16-8.939-4.053-1.152.064-2.283.213-5.184.576-53.056 0-96.213-43.157-96.213-96.213 0-53.077 43.157-96.235 96.213-96.235s96.213 43.157 96.021 97.984c-.149 1.131-.299 2.261-.363 3.413a10.753 10.753 0 0 0 4.053 8.939c2.731 2.155 6.336 2.795 9.643 1.856 20.757-6.187 41.216-7.68 64.384-3.456 2.837.512 5.952-.768 8.341-2.539 2.389-1.771 3.947-5.056 4.267-8 .043-.384.149-2.112.149-2.496 0-6.635-.469-12.907-1.024-18.283L472.752 192c8.555-6.741 10.923-18.731 5.461-28.779zm-68.096 50.71a10.689 10.689 0 0 0-4.011 9.728c.448 3.584.917 7.595 1.216 11.861-16.299-1.728-31.915-.832-47.531 2.325-4.117-61.12-55.147-109.589-117.291-109.589-64.811 0-117.547 52.736-117.547 117.568 0 62.165 48.469 113.195 109.589 117.291a158.949 158.949 0 0 0-3.179 31.552c0 26.176 6.336 51.605 18.432 74.496l-55.36-.512-8.917-62.187a10.705 10.705 0 0 0-6.528-8.363c-12.992-5.312-25.493-12.587-37.205-21.589a10.623 10.623 0 0 0-6.507-2.219c-1.344 0-2.688.256-3.968.768L71.769 397.93l-46.784-82.475 49.515-38.72a10.689 10.689 0 0 0 4.011-9.728c-1.067-8.491-1.557-15.381-1.557-21.675s.491-13.184 1.557-21.675a10.689 10.689 0 0 0-4.011-9.728l-49.664-40 48.021-81.792 58.432 23.467c3.499 1.387 7.424.875 10.389-1.365 12.587-9.451 24.789-16.533 37.291-21.653 3.499-1.451 5.995-4.608 6.528-8.363l9.856-62.891 94.784.704 8.917 62.187a10.705 10.705 0 0 0 6.528 8.363c12.971 5.312 25.493 12.565 37.205 21.589 2.987 2.304 6.933 2.837 10.475 1.429l59.541-22.848 46.827 82.453-49.513 38.722z" fill="#0119ff" opacity="1" data-original="#000000"></path><path d="M391.323 277.333c-64.704 0-117.333 52.629-117.333 117.333S326.619 512 391.323 512s117.333-52.629 117.333-117.333-52.629-117.334-117.333-117.334zm0 213.334c-52.928 0-96-43.072-96-96s43.072-96 96-96c52.949 0 96 43.072 96 96s-43.072 96-96 96z" fill="#0119ff" opacity="1" data-original="#000000"></path><path d="M391.323 320c-5.888 0-10.667 4.779-10.667 10.667V416c0 5.888 4.779 10.667 10.667 10.667A10.658 10.658 0 0 0 401.99 416v-85.333c-.001-5.888-4.779-10.667-10.667-10.667zM398.789 450.987c-4.053-3.84-10.88-3.84-14.933.213-2.133 1.92-3.2 4.693-3.2 7.467 0 2.987 1.067 5.547 3.2 7.68 2.133 1.92 4.693 2.987 7.467 2.987s5.547-1.067 7.68-3.2c1.92-2.133 2.987-4.693 2.987-7.467a10.827 10.827 0 0 0-3.201-7.68z" fill="#0119ff" opacity="1" data-original="#000000"></path></g></svg>