<svg xmlns="http://www.w3.org/2000/svg" version="1.1" xmlns:xlink="http://www.w3.org/1999/xlink" width="512" height="512" x="0" y="0" viewBox="0 0 64 64" style="enable-background:new 0 0 512 512" xml:space="preserve" class=""><g><path d="M59.56 45.6c.48-.24.83-.66.99-1.16l1.85-5.71c.17-.51.12-1.05-.12-1.53s-.66-.83-1.16-.99l-2.35-.77c.15-1.14.22-2.29.22-3.43s-.07-2.29-.22-3.44l2.35-.76a1.997 1.997 0 0 0 1.28-2.52l-1.85-5.71a2.003 2.003 0 0 0-2.52-1.28l-2.35.75a26.661 26.661 0 0 0-4.05-5.56l1.46-2c.31-.43.44-.96.36-1.49s-.37-.99-.8-1.3L47.8 5.17c-.89-.65-2.14-.45-2.79.44L43.55 7.6a26.47 26.47 0 0 0-6.54-2.12V3c0-1.1-.9-2-2-2h-6c-1.1 0-2 .9-2 2v2.47c-2.26.42-4.46 1.14-6.55 2.13l-1.45-2c-.65-.89-1.9-1.09-2.79-.44l-4.85 3.53a1.987 1.987 0 0 0-.44 2.79l1.44 2a27.146 27.146 0 0 0-4.04 5.57l-2.35-.76c-1.05-.34-2.18.23-2.52 1.28l-1.85 5.71c-.17.51-.12 1.05.12 1.53.24.47.66.83 1.16.99l2.35.77c-.15 1.14-.22 2.29-.22 3.43s.07 2.29.22 3.44l-2.35.76a1.997 1.997 0 0 0-1.28 2.52l1.85 5.71a1.997 1.997 0 0 0 2.52 1.28l2.35-.75c1.11 2.02 2.46 3.89 4.05 5.56l-1.46 2c-.31.43-.44.96-.36 1.49s.37.99.8 1.3l4.85 3.53c.89.65 2.15.45 2.79-.44l1.46-1.99c2.08.99 4.28 1.7 6.54 2.12V61c0 1.1.9 2 2 2h6c1.1 0 2-.9 2-2v-2.47c2.26-.42 4.46-1.14 6.55-2.13l1.45 2c.65.89 1.9 1.09 2.79.44l4.85-3.53a1.987 1.987 0 0 0 .44-2.79l-1.44-2c1.57-1.67 2.93-3.54 4.04-5.57l2.35.76c.51.17 1.05.12 1.53-.12zm-5.63-1.59c-1.02 1.87-2.28 3.6-3.74 5.14-.66.7-.74 1.78-.17 2.55l1.45 2-4.85 3.53-1.45-2a1.99 1.99 0 0 0-2.48-.62c-1.93.92-3.96 1.58-6.04 1.97-.95.18-1.64 1-1.64 1.96v2.47h-6v-2.47c0-.96-.69-1.78-1.64-1.96-2.08-.39-4.11-1.05-6.04-1.97a2.013 2.013 0 0 0-2.48.63l-1.45 2-4.86-3.53 1.46-2c.56-.77.49-1.85-.17-2.55a25.23 25.23 0 0 1-3.74-5.14 1.991 1.991 0 0 0-2.37-.95l-2.35.77-1.85-5.71 2.35-.76c.91-.3 1.48-1.21 1.36-2.17-.14-1.06-.2-2.12-.2-3.18s.07-2.12.2-3.18c.12-.96-.45-1.87-1.36-2.17l-2.35-.76 1.85-5.71 2.35.76c.91.29 1.91-.11 2.37-.95 1.02-1.87 2.28-3.6 3.74-5.14.66-.7.74-1.78.17-2.55l-1.45-2 4.85-3.53 1.45 2a1.99 1.99 0 0 0 2.48.62c1.93-.92 3.96-1.58 6.04-1.97.95-.18 1.64-1 1.64-1.96V3h6v2.47c0 .96.69 1.78 1.64 1.96 2.08.39 4.11 1.05 6.04 1.97.88.41 1.92.15 2.48-.62l1.45-2 4.86 3.53-1.46 2c-.56.77-.49 1.85.17 2.55A25.23 25.23 0 0 1 53.93 20c.46.85 1.46 1.25 2.37.95l2.35-.77 1.85 5.71-2.35.76c-.91.3-1.48 1.21-1.36 2.17.14 1.06.2 2.12.2 3.18s-.07 2.12-.2 3.18c-.12.96.45 1.87 1.36 2.17l2.35.76-1.85 5.71-2.35-.76c-.91-.3-1.91.1-2.37.95z" fill="#0119ff" opacity="1" data-original="#000000"></path><path d="M32 10c-12.13 0-22 9.87-22 22s9.87 22 22 22 22-9.87 22-22-9.87-22-22-22zm0 42c-11.03 0-20-8.97-20-20s8.97-20 20-20 20 8.97 20 20-8.97 20-20 20z" fill="#0119ff" opacity="1" data-original="#000000"></path><path d="M41.19 21.81a.996.996 0 0 0-1.41 0L27.76 33.83l-3.54-3.54a.996.996 0 0 0-1.41 0l-3.54 3.54a.996.996 0 0 0 0 1.41l6.36 6.37c.58.58 1.35.88 2.12.88s1.54-.29 2.12-.88l14.85-14.85a.996.996 0 0 0 0-1.41l-3.54-3.54zM28.46 40.19c-.39.39-1.02.39-1.42 0l-5.66-5.66 2.12-2.12 3.54 3.54c.39.39 1.02.39 1.41 0l12.02-12.02 2.12 2.12-14.14 14.14z" fill="#0119ff" opacity="1" data-original="#000000"></path></g></svg>