<svg xmlns="http://www.w3.org/2000/svg" version="1.1" xmlns:xlink="http://www.w3.org/1999/xlink" width="512" height="512" x="0" y="0" viewBox="0 0 512 512" style="enable-background:new 0 0 512 512" xml:space="preserve" class=""><g><path d="M256 416c-35.332 0-64-28.668-64-64s28.668-64 64-64 64 28.668 64 64-28.668 64-64 64zm0-106.668c-23.465 0-42.668 19.203-42.668 42.668s19.203 42.668 42.668 42.668 42.668-19.203 42.668-42.668-19.203-42.668-42.668-42.668zm0 0" fill="#0119ff" opacity="1" data-original="#000000" class=""></path><path d="m414.762 178.16 15.086 15.082L301.25 321.84l-15.086-15.082zm0 0" fill="#0119ff" opacity="1" data-original="#000000" class=""></path><path d="M512 266.668H405.332v-21.336h85.066c-5.597-124.398-108.53-224-234.398-224s-228.8 99.602-234.398 224h85.066v21.336H0V256C0 114.8 114.8 0 256 0s256 114.8 256 256zm0 0" fill="#0119ff" opacity="1" data-original="#000000" class=""></path><path d="M382.266 141.2C350 105.733 304 85.331 256 85.331s-94 20.402-126.266 55.867L114 126.801C150.266 86.934 202 64 256 64s105.734 22.934 142 62.8zm0 0" fill="#0119ff" opacity="1" data-original="#000000" class=""></path></g></svg>