<svg xmlns="http://www.w3.org/2000/svg" version="1.1" xmlns:xlink="http://www.w3.org/1999/xlink" width="512" height="512" x="0" y="0" viewBox="0 0 512 512" style="enable-background:new 0 0 512 512" xml:space="preserve" class=""><g><path d="M32 168H16v-32a40.045 40.045 0 0 1 40-40h272V80h-16a8 8 0 0 1-5.657-13.657l48-48a8 8 0 0 1 11.314 0l48 48A8 8 0 0 1 408 80h-16v16h32a40.045 40.045 0 0 1 40 40v160h-16V136a24.028 24.028 0 0 0-24-24h-32v144h-16V72a8 8 0 0 1 8-8h4.687L360 35.313 331.313 64H336a8 8 0 0 1 8 8v192h-16V112H56a24.028 24.028 0 0 0-24 24Zm24 248h133.247l-19.2 64H152v16h176v-16h-18.047l-10.29-34.3-15.326 4.6 8.911 29.7h-106.5l19.2-64H264v-16H56a24.028 24.028 0 0 1-24-24v-8h224v-16H32V184H16v192a40.045 40.045 0 0 0 40 40Zm240-136V152h-32v184H56v-16h32v-64a8 8 0 0 1 8-8h48a8 8 0 0 1 8 8v64h16V200a8 8 0 0 1 8-8h48a8 8 0 0 1 8 8v120h16V144a8 8 0 0 1 8-8h48a8 8 0 0 1 8 8v136Zm-160-16h-32v56h32Zm80-56h-32v112h32ZM56 128v16h16v-16Zm48 0H88v16h16Zm16 0v16h16v-16Zm368.967 327.033A24.167 24.167 0 0 1 496 472a23.978 23.978 0 0 1-24 24 24.5 24.5 0 0 1-16.967-7.033l-38.293-38.292a96.074 96.074 0 1 1 33.935-33.935ZM448 368a80 80 0 1 0-80 80 80.091 80.091 0 0 0 80-80Zm29.652 98.348-36.387-36.389a96.887 96.887 0 0 1-11.306 11.306l36.389 36.387a7.993 7.993 0 1 0 11.3-11.3ZM432 368a64 64 0 1 1-64-64 64.072 64.072 0 0 1 64 64Zm-16 0a48 48 0 1 0-48 48 48.053 48.053 0 0 0 48-48Zm-80 0h16a16.019 16.019 0 0 1 16-16v-16a32.036 32.036 0 0 0-32 32ZM440 64h16a48.053 48.053 0 0 0-48-48v16a32.036 32.036 0 0 1 32 32Z" fill="#0119ff" opacity="1" data-original="#000000" class=""></path></g></svg>